<svg width="639" height="648" viewBox="0 0 639 648" fill="none" xmlns="http://www.w3.org/2000/svg">
<path fill-rule="evenodd" clip-rule="evenodd" d="M340.093 0.00516736C417.738 -0.622921 480.194 56.1135 534.357 111.818C587.571 166.546 631.96 230.172 637.931 306.317C644.386 388.648 621.705 471.745 567.456 533.956C509.515 600.401 428.154 645.228 340.093 647.865C249.629 650.574 162.466 612.307 98.7112 547.992C35.1924 483.915 -8.88031 395.993 1.52169 306.317C11.1714 223.126 86.8799 171.086 148.943 114.936C206.27 63.0714 262.832 0.630153 340.093 0.00516736Z" fill="#2C4096"/>
<path d="M245.09 581.726C242.39 582.567 239.358 583.94 238.672 586.618C247.171 592.018 257.684 593.257 267.732 592.992C277.78 592.726 287.806 590.956 297.876 590.889C311.155 590.889 326.117 593.257 336.785 585.201C332.047 582.201 326.607 580.492 321.004 580.244C322.974 567.85 252.969 579.27 245.09 581.726Z" fill="url(#paint0_linear)"/>
<path d="M74.4717 434.082C70.8863 434.082 65.9286 435.896 66.8139 439.371L230.438 452.651C249.694 454.222 268.971 455.771 288.314 455.771C317.529 455.771 346.611 452.186 375.759 450.504C403.203 448.932 430.692 449.043 458.158 449.176C483.588 449.309 514.861 453.89 539.561 447.228C543.279 446.232 547.019 443.244 546.776 439.415C546.665 437.645 545.736 435.808 546.422 434.17C546.82 433.366 547.453 432.703 548.237 432.267C553.305 429.146 559.768 431.581 565.611 432.864C574.911 434.886 584.623 433.652 593.121 429.367C594.714 428.705 596.071 427.579 597.016 426.136C597.467 425.407 597.63 424.537 597.475 423.694C597.32 422.852 596.856 422.097 596.175 421.577C595.488 421.237 594.73 421.062 593.962 421.068L543.877 417.173C542.027 416.886 540.136 417.053 538.366 417.659C536.396 418.523 536.507 420.824 534.913 421.776C532.324 423.303 526.436 422.484 523.471 422.661C515.879 423.082 508.288 423.502 500.674 423.879C485.521 424.602 470.338 425.214 455.126 425.716C424.141 426.756 393 427.376 361.949 427.929C300.532 428.925 239.092 429.456 177.697 431.824C143.281 433.108 108.888 433.329 74.4717 434.082Z" fill="#273984"/>
<path d="M200.295 93.0883C197.414 92.0879 194.269 92.1665 191.442 93.3097C189.618 93.9602 187.951 94.9856 186.549 96.3198C185.146 97.654 184.038 99.2674 183.297 101.056C183.282 101.289 183.218 101.515 183.109 101.721C183 101.927 182.848 102.107 182.664 102.249C182.48 102.392 182.267 102.493 182.04 102.547C181.814 102.601 181.578 102.606 181.349 102.561C178.129 102.554 175.02 103.745 172.629 105.903C169.841 108.448 169.841 111.569 169.464 115.221C169.008 114.991 168.504 114.871 167.992 114.871C167.481 114.871 166.977 114.991 166.521 115.221C165.609 115.67 164.779 116.269 164.064 116.991C162.843 117.972 161.866 119.222 161.209 120.643C160.324 123.056 161.32 125.711 161.364 128.279C161.379 128.394 161.37 128.511 161.335 128.622C161.301 128.733 161.243 128.835 161.165 128.921C161.074 128.96 160.976 128.98 160.877 128.98C160.778 128.98 160.68 128.96 160.589 128.921C159.903 128.788 159.283 128.434 158.597 128.367C157.795 128.375 157.02 128.662 156.406 129.179C155.792 129.696 155.377 130.411 155.233 131.2C154.972 132.786 155.055 134.408 155.477 135.959C155.888 137.51 155.842 139.147 155.344 140.673C154.813 141.675 154.118 142.58 153.286 143.351C150.885 145.588 149.323 148.579 148.859 151.828C148.729 153.397 149.152 154.963 150.054 156.254C150.518 156.891 151.139 157.398 151.856 157.724C152.574 158.049 153.364 158.184 154.149 158.113C157.823 157.626 159.106 152.469 162.603 151.252C166.1 150.035 170.018 145.918 172.275 142.665C174.09 140.053 175.861 137.021 178.915 136.025C179.92 135.811 180.889 135.454 181.792 134.963C182.393 134.494 182.89 133.906 183.253 133.236C184.518 131.372 185.495 129.327 186.152 127.172C187.259 122.923 186.152 118.142 188.21 114.225C188.798 113.101 189.616 112.114 190.612 111.328C191.607 110.543 192.757 109.976 193.987 109.665C195.027 109.4 196.2 109.333 197.152 109.046C198.355 108.698 199.492 108.152 200.516 107.43C201.862 106.656 203.02 105.594 203.908 104.32C204.796 103.046 205.391 101.591 205.651 100.06C205.85 96.9394 203.039 94.1507 200.295 93.0883Z" fill="#DE1D4A"/>
<path d="M209.346 98.3337C210.452 98.7605 211.369 99.5678 211.933 100.61C212.497 101.653 212.67 102.863 212.422 104.022C212.044 104.959 211.479 105.81 210.762 106.523L206.756 110.949L205.097 104.796C204.925 103.642 204.353 102.584 203.481 101.808C202.912 101.482 202.267 101.311 201.611 101.311C200.955 101.311 200.31 101.482 199.74 101.808C198.567 102.406 197.527 103.336 196.487 104.022C196.199 104.199 195.801 104.398 195.491 104.221C195.181 104.044 195.137 103.402 195.292 102.959C197.195 97.6918 204.477 96.2311 209.346 98.3337Z" fill="#DE1D4A"/>
<path d="M212.07 264.836C212.192 266.907 212.881 268.906 214.062 270.612C215.855 272.825 218.843 273.932 221.322 275.548C221.577 275.677 221.8 275.861 221.976 276.087C222.152 276.313 222.276 276.574 222.34 276.853C222.325 277.123 222.231 277.383 222.07 277.599C221.908 277.816 221.687 277.98 221.432 278.071C220.907 278.219 220.357 278.257 219.817 278.181C217.289 277.785 214.739 277.541 212.181 277.451C210.897 277.451 209.414 277.584 208.596 276.588C208.068 275.744 207.886 274.73 208.087 273.755C208.313 270.094 208.015 266.42 207.201 262.844C206.93 261.971 206.832 261.054 206.914 260.144C206.996 259.723 207.188 259.331 207.469 259.007C207.75 258.683 208.111 258.438 208.517 258.297C208.922 258.156 209.357 258.124 209.778 258.203C210.2 258.282 210.593 258.471 210.92 258.749C212.38 260.011 211.893 263.131 212.07 264.836Z" fill="#FCBDBA"/>
<path d="M171.125 278.535C170.825 280.588 171.085 282.683 171.878 284.6C173.184 287.233 175.906 288.805 178.009 290.885C178.236 291.059 178.421 291.284 178.548 291.541C178.674 291.798 178.74 292.081 178.739 292.368C178.674 292.629 178.531 292.864 178.329 293.041C178.128 293.219 177.877 293.332 177.61 293.364C177.071 293.42 176.526 293.352 176.017 293.165C173.612 292.287 171.158 291.548 168.669 290.952C167.407 290.73 165.924 290.509 165.327 289.402C164.964 288.478 164.964 287.45 165.327 286.525C166.288 282.978 166.735 279.31 166.655 275.636C166.565 274.727 166.655 273.81 166.92 272.936C167.087 272.54 167.354 272.196 167.695 271.935C168.036 271.675 168.439 271.509 168.864 271.453C169.289 271.397 169.722 271.453 170.119 271.616C170.515 271.78 170.862 272.044 171.125 272.383C172.387 273.865 171.28 276.831 171.125 278.535Z" fill="#FCBDBA"/>
<path d="M163.068 178.94C163.068 178.94 184.183 210.279 198.015 219.641C197.75 222.775 197.816 225.928 198.215 229.047C198.923 234.116 201.379 238.564 202.176 243.544L204.832 260.298C204.943 261.051 205.164 261.958 205.894 262.224C206.333 262.364 206.805 262.364 207.245 262.224L213.087 260.63C212.737 250.563 212.951 240.485 213.729 230.442C214.208 226.38 214.312 222.283 214.039 218.202C213.065 209.35 205.806 201.448 200.76 194.344C197.728 190.05 194.474 183.632 190.225 180.378C186.684 177.678 181.682 178.962 177.233 179.404C173.897 179.723 170.531 179.484 167.273 178.696C166.608 178.384 165.874 178.243 165.14 178.286C164.406 178.328 163.694 178.553 163.068 178.94Z" fill="#473F47"/>
<path d="M155.034 178.741C155.034 178.741 163.245 215.635 172.74 229.402C171.36 232.235 170.27 235.202 169.487 238.254C168.963 240.754 168.659 243.294 168.579 245.846L166.676 276.654C169.618 276.808 172.564 276.434 175.374 275.548L186.174 248.391C188.237 244.065 189.454 239.385 189.76 234.603C189.76 225.351 180.907 191.577 179.867 189.873C177.543 186.044 172.43 185.447 168.137 184.207C164.913 183.296 161.867 181.844 159.129 179.914C157.779 179.073 156.561 178.254 155.034 178.741Z" fill="#473F47"/>
<path d="M230.838 150.013C235.337 152.089 240.331 152.856 245.246 152.226C246.687 151.829 248.199 151.753 249.673 152.005C249.031 152.912 248.411 154.218 249.318 154.993C249.596 155.174 249.917 155.281 250.248 155.303C251.442 155.456 252.654 155.327 253.789 154.926C254.325 154.661 254.918 154.531 255.515 154.55C256.043 154.681 256.497 155.015 256.779 155.479C257.061 155.944 257.147 156.501 257.02 157.029C256.707 158.083 256.013 158.982 255.073 159.552C253.553 160.559 251.792 161.143 249.972 161.244C248.151 161.345 246.337 160.96 244.715 160.127C243.785 159.618 242.922 158.977 241.97 158.468C240.14 157.633 238.204 157.052 236.216 156.741C230.398 155.537 224.679 153.894 219.108 151.828C218.264 151.627 217.47 151.257 216.773 150.739C216.077 150.222 215.493 149.568 215.057 148.818C213.929 146.029 216.009 141.359 219.329 143.174C223.18 145.409 226.655 148.287 230.838 150.013Z" fill="#FCBDBA"/>
<path d="M203.35 134.122C209.922 138.419 217.253 141.423 224.951 142.975C225.283 142.975 225.681 143.196 225.77 143.528C225.805 143.754 225.75 143.985 225.615 144.17C224.043 147.334 222.056 150.274 219.706 152.912C219.453 153.247 219.128 153.52 218.754 153.709C218.386 153.817 218.001 153.849 217.62 153.803C217.24 153.757 216.872 153.635 216.541 153.443C211.568 151.452 206.699 149.238 201.933 146.804C197.692 144.943 193.913 142.17 190.867 138.681C189.348 136.871 188.448 134.622 188.3 132.263C188.3 129.651 190.69 124.959 193.988 126.243C195.471 126.818 196.776 128.655 197.905 129.695C199.628 131.281 201.446 132.759 203.35 134.122Z" fill="#4561B5"/>
<path d="M203.35 134.122C209.922 138.419 217.253 141.423 224.951 142.975C225.283 142.975 225.681 143.196 225.77 143.528C225.805 143.754 225.75 143.985 225.615 144.17C224.043 147.334 222.056 150.274 219.706 152.912C219.453 153.247 219.128 153.52 218.754 153.709C218.386 153.817 218.001 153.849 217.62 153.803C217.24 153.757 216.872 153.635 216.541 153.443C211.568 151.452 206.699 149.238 201.933 146.804C197.692 144.943 193.913 142.17 190.867 138.681C189.348 136.871 188.448 134.622 188.3 132.263C188.3 129.651 190.69 124.959 193.988 126.243C195.471 126.818 196.776 128.655 197.905 129.695C199.628 131.281 201.446 132.759 203.35 134.122Z" fill="url(#paint1_linear)"/>
<path d="M295.993 120.931C297.176 122.422 297.881 124.235 298.019 126.133C298.156 128.031 297.718 129.926 296.763 131.572C295.807 133.218 294.378 134.538 292.662 135.36C290.946 136.181 289.022 136.467 287.14 136.18C287.14 136.18 276.672 136.424 279.04 146.295L298.959 171.658L273.595 191.577C263.724 193.945 263.481 183.477 263.481 183.477C263.752 181.598 263.453 179.68 262.623 177.973C261.793 176.265 260.471 174.846 258.826 173.897C257.181 172.949 255.29 172.515 253.396 172.653C251.502 172.79 249.694 173.492 248.203 174.668C246.712 175.844 245.608 177.439 245.034 179.249C244.459 181.059 244.44 182.999 244.979 184.819C245.519 186.64 246.591 188.257 248.059 189.461C249.526 190.666 251.321 191.403 253.211 191.577C262.219 194.543 258.722 203.307 258.722 203.307L233.359 223.227L181.812 157.781L206.933 137.862C216.804 135.494 217.047 145.963 217.047 145.963C216.812 147.515 216.967 149.101 217.496 150.578C218.026 152.056 218.915 153.379 220.083 154.428C221.251 155.477 222.661 156.219 224.187 156.588C225.712 156.957 227.306 156.941 228.824 156.541C230.342 156.142 231.737 155.371 232.883 154.299C234.03 153.227 234.892 151.887 235.392 150.399C235.892 148.911 236.015 147.322 235.749 145.775C235.483 144.228 234.836 142.771 233.868 141.536C233.06 140.521 232.056 139.68 230.915 139.064C229.774 138.448 228.52 138.069 227.228 137.951C218.309 135.007 221.806 126.154 221.806 126.154L247.413 105.947L267.332 131.333C267.332 131.333 276.185 134.83 279.062 125.822C279.252 123.936 280.002 122.15 281.216 120.693C282.43 119.237 284.052 118.178 285.874 117.652C287.695 117.126 289.632 117.157 291.436 117.741C293.239 118.326 294.827 119.436 295.993 120.931Z" fill="#FFD200"/>
<path d="M212.18 178.652C217.602 183.079 223.246 187.837 229.886 188.988C231.163 189.274 232.485 189.302 233.773 189.07C235.062 188.838 236.291 188.351 237.388 187.638C237.767 187.413 238.076 187.086 238.279 186.695C238.482 186.304 238.572 185.864 238.539 185.425C238.296 184.34 236.968 183.964 235.883 183.765C230.811 183.071 225.941 181.322 221.586 178.63C219.971 177.487 218.44 176.23 217.005 174.868L206.226 165.262C206.095 165.102 205.929 164.973 205.741 164.885C205.554 164.797 205.349 164.752 205.142 164.753C204.699 164.753 204.433 165.262 204.234 165.66C203.566 167.02 203.061 168.454 202.729 169.932C202.397 171.548 202.729 171.769 204.124 172.699C206.912 174.587 209.598 176.572 212.18 178.652Z" fill="#DDB912"/>
<path d="M217.182 170.552C220.932 173.833 225.537 175.982 230.461 176.749C231.926 176.769 233.369 177.109 234.689 177.745C233.781 178.431 232.807 179.604 233.493 180.511C233.714 180.764 233.996 180.955 234.312 181.065C235.415 181.535 236.612 181.747 237.809 181.684C238.402 181.594 239.007 181.64 239.58 181.817C239.811 181.952 240.014 182.131 240.176 182.345C240.337 182.558 240.456 182.801 240.524 183.06C240.591 183.319 240.607 183.589 240.571 183.854C240.534 184.119 240.446 184.375 240.31 184.606C239.732 185.543 238.811 186.218 237.743 186.487C236.005 187.035 234.151 187.107 232.376 186.694C230.601 186.281 228.969 185.4 227.651 184.141C226.876 183.389 226.234 182.525 225.437 181.795C223.915 180.481 222.216 179.386 220.391 178.542C215.142 175.753 210.111 172.571 205.341 169.025C204.588 168.597 203.929 168.022 203.405 167.334C202.88 166.645 202.5 165.858 202.287 165.019C201.977 162.009 205.275 158.091 207.975 160.791C211.118 163.978 213.663 167.63 217.182 170.552Z" fill="#FCBDBA"/>
<path d="M155.033 183.477C155.43 183.952 155.929 184.33 156.494 184.584C158.721 185.854 161.036 186.963 163.421 187.903C169.619 190.122 176.404 190.067 182.566 187.748C185.031 186.861 187.345 185.599 189.427 184.008C190.217 183.47 190.881 182.768 191.374 181.95C191.962 180.615 192.146 179.138 191.906 177.7C191.352 170.242 190.533 162.54 191.906 155.302C192.347 152.816 193.09 150.393 194.119 148.087C195.911 144.941 197.393 141.627 198.545 138.194C198.94 136.084 198.869 133.914 198.338 131.834C197.807 129.754 196.827 127.816 195.469 126.154C192.592 122.48 187.324 119.227 182.676 120.887C177.308 122.91 172.652 126.465 169.286 131.112C165.617 136.315 162.71 142.017 160.655 148.043C159.769 150.411 158.906 152.779 158.22 155.214C156.755 161.103 155.807 167.109 155.387 173.163C155.144 175.686 154.922 178.209 154.657 180.733C154.448 181.663 154.581 182.637 155.033 183.477Z" fill="#4561B5"/>
<path d="M182.566 187.749C185.031 186.861 187.346 185.6 189.427 184.008C190.217 183.47 190.881 182.768 191.375 181.95C191.962 180.615 192.147 179.138 191.906 177.7C191.353 170.242 190.534 162.54 191.906 155.303C191.021 154.417 190.025 153.62 189.051 152.824C186.838 151.009 183.651 147.423 180.441 147.667C181.216 151.053 181.836 154.506 182.301 157.958C182.765 161.411 182.588 164.997 183.142 168.405C183.876 174.436 183.734 180.541 182.721 186.531C182.627 186.93 182.575 187.338 182.566 187.749Z" fill="#2E499B"/>
<path d="M209.501 158.932C209.674 159.02 209.828 159.142 209.953 159.29C210.079 159.438 210.173 159.61 210.231 159.795C210.238 160.163 210.103 160.52 209.855 160.791C207.844 163.629 205.322 166.069 202.419 167.984C202.139 168.207 201.801 168.345 201.445 168.383C201.037 168.339 200.655 168.16 200.36 167.874C195.934 164.487 191.507 161.234 187.192 157.693C184.401 155.712 181.936 153.308 179.888 150.566C178.383 148.092 177.235 145.417 176.48 142.621C173.846 134.321 181.813 130.713 187.147 136.8C194.185 144.856 200.604 152.713 209.501 158.932Z" fill="#4561B5"/>
<path d="M208.416 276.897C208.301 276.623 208.261 276.322 208.3 276.026C208.338 275.731 208.455 275.451 208.638 275.215C209.125 274.751 209.921 274.972 210.541 275.215C211.91 275.879 213.34 276.405 214.813 276.787C216.296 277.177 217.87 277.012 219.239 276.322C219.992 275.879 220.722 275.215 221.585 275.282C222.02 275.347 222.435 275.505 222.802 275.747C224.131 276.435 225.556 276.92 227.03 277.185C227.65 277.238 228.248 277.435 228.778 277.761C228.938 277.873 229.056 278.037 229.11 278.225C229.11 278.668 228.69 279 228.269 279.155C223.666 280.948 218.509 280.284 213.595 279.752C213.045 279.675 212.486 279.675 211.936 279.752C211.117 279.907 210.121 280.328 209.435 279.752C208.847 278.908 208.496 277.923 208.416 276.897Z" fill="#473F47"/>
<path d="M164.705 289.513C164.633 289.227 164.634 288.927 164.707 288.641C164.78 288.355 164.924 288.092 165.125 287.875C165.679 287.477 166.431 287.875 167.029 288.119C168.315 288.937 169.67 289.64 171.079 290.221C172.507 290.752 174.078 290.752 175.505 290.221C176.302 289.889 177.099 289.314 177.962 289.491C178.381 289.614 178.772 289.817 179.113 290.089C180.332 290.981 181.684 291.676 183.119 292.147C183.735 292.274 184.312 292.548 184.801 292.944C184.873 293.004 184.931 293.078 184.973 293.162C185.015 293.246 185.039 293.337 185.045 293.431C185.045 293.873 184.558 294.139 184.115 294.249C179.312 295.467 174.288 294.249 169.485 293.032C168.946 292.876 168.387 292.794 167.826 292.789C167.007 292.789 165.966 293.143 165.347 292.39C164.899 291.499 164.678 290.51 164.705 289.513Z" fill="#473F47"/>
<path d="M205.695 113.517C205.318 114.734 204.942 115.951 204.632 117.191C204.281 119.039 203.793 120.859 203.171 122.635C202.856 123.521 202.352 124.328 201.695 125C201.038 125.673 200.243 126.195 199.365 126.53C198.469 126.817 197.497 126.746 196.652 126.334C195.807 125.922 195.153 125.199 194.828 124.317C193.765 124.561 193.389 125.866 193.411 126.973C193.589 128.056 193.386 129.167 192.836 130.116C191.84 131.289 189.892 130.802 188.586 129.961C186.609 128.629 185.072 126.74 184.17 124.533C183.268 122.327 183.041 119.902 183.518 117.567C184.602 112.631 184.558 106.722 187.369 102.45C188.379 101.009 189.665 99.7827 191.154 98.8429C192.458 97.888 193.979 97.272 195.58 97.0502C196.701 96.9844 197.826 97.0738 198.922 97.3158C203.614 98.1125 207.598 98.7986 207.62 104.177C207.476 107.372 206.826 110.525 205.695 113.517Z" fill="#FCBDBA"/>
<path d="M199.919 104.819C199.188 104.819 198.347 104.642 197.706 105.084C197.064 105.527 197.02 106.523 196.621 107.298C195.847 108.736 193.877 108.935 192.394 109.688C191.496 110.168 190.748 110.888 190.232 111.766C189.717 112.645 189.454 113.649 189.472 114.668C189.501 114.016 189.34 113.37 189.008 112.808C188.919 112.675 188.804 112.562 188.67 112.475C188.537 112.388 188.386 112.329 188.229 112.302C188.071 112.275 187.91 112.28 187.755 112.318C187.599 112.356 187.453 112.425 187.326 112.521C187.126 112.757 187.009 113.053 186.994 113.362C186.933 113.994 187.036 114.631 187.292 115.212C187.547 115.793 187.948 116.299 188.454 116.682C187.995 117.631 187.273 118.429 186.375 118.982C185.478 119.534 184.44 119.819 183.386 119.802C182.72 119.818 182.069 119.599 181.549 119.183C181.222 118.846 180.979 118.436 180.841 117.987C179.579 114.446 181.505 110.662 181.97 106.921C182.014 105.601 182.23 104.291 182.611 103.026C183.022 102.132 183.583 101.316 184.271 100.614C186.337 98.1325 189.072 96.2966 192.15 95.3239C195.116 94.505 201.003 94.9256 203.327 97.2716C203.855 97.9429 204.188 98.746 204.291 99.5934C204.394 100.441 204.262 101.3 203.911 102.078C203.559 102.856 203.002 103.523 202.298 104.006C201.594 104.489 200.771 104.77 199.919 104.819Z" fill="#DE1D4A"/>
<path d="M198.611 440.81V399.4C204.056 387.582 214.79 395.638 214.79 395.638C216.466 397.394 218.629 398.608 221.001 399.123C223.373 399.639 225.845 399.432 228.099 398.529C230.352 397.626 232.284 396.07 233.644 394.059C235.004 392.049 235.731 389.677 235.731 387.25C235.731 384.822 235.004 382.45 233.644 380.44C232.284 378.43 230.352 376.873 228.099 375.97C225.845 375.068 223.373 374.861 221.001 375.376C218.629 375.891 216.466 377.105 214.79 378.861C204.653 385.501 198.611 375.099 198.611 375.099V333.667H240.021C240.021 333.667 250.512 327.625 243.783 317.488C242.027 315.813 240.813 313.649 240.298 311.277C239.783 308.905 239.99 306.433 240.892 304.18C241.795 301.926 243.352 299.995 245.362 298.634C247.372 297.274 249.744 296.547 252.172 296.547C254.599 296.547 256.971 297.274 258.981 298.634C260.992 299.995 262.548 301.926 263.451 304.18C264.354 306.433 264.561 308.905 264.045 311.277C263.53 313.649 262.316 315.813 260.56 317.488C260.56 317.488 252.504 328.223 264.322 333.667H305.732V440.81H198.611Z" fill="url(#paint2_linear)"/>
<path d="M119.268 438.597H111.787L188.365 236.395C188.623 235.743 189.071 235.183 189.651 234.788C190.231 234.393 190.917 234.182 191.618 234.182C192.185 234.181 192.743 234.318 193.245 234.581C193.747 234.843 194.178 235.224 194.5 235.69C194.823 236.156 195.027 236.693 195.095 237.256C195.164 237.818 195.095 238.389 194.894 238.919L119.268 438.597Z" fill="#95A9E8"/>
<path d="M164.129 438.597H156.648L234.067 234.138H241.548L164.129 438.597Z" fill="#A4B5E7"/>
<path d="M221.984 266.075H182.411L184.403 260.807H223.976L221.984 266.075Z" fill="#99ABE2"/>
<path d="M209.812 298.189H170.239L172.253 292.921H211.826L209.812 298.189Z" fill="#99ABE2"/>
<path d="M197.661 330.303H158.088L160.08 325.013H199.652L197.661 330.303Z" fill="#99ABE2"/>
<path d="M185.509 362.395H145.937L147.928 357.127H187.501L185.509 362.395Z" fill="#99ABE2"/>
<path d="M173.337 394.509H133.765L135.779 389.241H175.329L173.337 394.509Z" fill="#99ABE2"/>
<path d="M184.603 266.075L174.422 292.922H211.892L209.9 298.189H172.496L162.337 325.013H199.719L197.727 330.281H160.279L150.12 357.127H187.546L185.554 362.395H148.128L137.948 389.241H175.351L173.337 394.509H135.956L119.268 438.597H111.787L188.365 236.395C188.698 235.702 189.25 235.137 189.936 234.789C190.622 234.44 191.404 234.328 192.16 234.469C192.916 234.611 193.605 234.997 194.119 235.57C194.634 236.142 194.945 236.868 195.005 237.635C195.005 238.058 194.93 238.477 194.783 238.874L186.484 260.807H223.865L221.873 266.075H184.603Z" fill="url(#paint3_linear)"/>
<path d="M164.129 438.597H156.648L234.067 234.138H241.548L164.129 438.597Z" fill="url(#paint4_linear)"/>
<path d="M535.267 263.773C534.161 264.708 532.836 265.348 531.416 265.632C530.112 265.687 528.812 265.453 527.609 264.946L509.195 258.815C507.804 259.899 506.875 261.47 506.596 263.211C506.317 264.953 506.708 266.735 507.69 268.199C509.495 270.177 511.843 271.578 514.441 272.228L527.078 276.765C529.995 278.127 533.178 278.824 536.397 278.805C539.616 278.786 542.791 278.051 545.691 276.654C549.454 275.392 553.593 273.821 555.407 270.28C557.222 266.739 555.894 262.047 556.426 257.908C557.124 255.279 557.62 252.601 557.908 249.896C557.908 247.572 556.005 244.075 553.239 244.562C550.848 244.983 549.255 249.144 547.993 250.892C544.436 255.813 540.144 260.157 535.267 263.773Z" fill="white"/>
<path d="M506.895 257.775C506.703 257.277 506.409 256.825 506.032 256.447C505.846 256.258 505.608 256.127 505.348 256.072C505.088 256.017 504.818 256.04 504.571 256.138C504.329 256.286 504.135 256.5 504.009 256.755C503.884 257.009 503.833 257.294 503.863 257.576C503.881 257.676 503.878 257.779 503.855 257.878C503.832 257.976 503.79 258.07 503.73 258.152C503.597 258.284 503.354 258.152 503.155 258.152C501.074 257.753 498.949 257.443 496.825 257.222C496.597 257.176 496.361 257.194 496.142 257.272C495.923 257.35 495.729 257.486 495.581 257.665C495.434 257.845 495.338 258.061 495.303 258.291C495.269 258.521 495.297 258.756 495.386 258.971C495.617 259.675 495.969 260.334 496.426 260.918C497.511 262.689 497.909 265.013 499.636 266.164C500.691 266.781 501.918 267.037 503.132 266.894C504.35 266.894 505.545 266.606 506.762 266.673C507.567 266.845 508.405 266.752 509.152 266.407C509.431 266.198 509.653 265.923 509.796 265.605C509.939 265.288 510 264.939 509.971 264.592C509.843 263.499 509.456 262.452 508.843 261.538C508.157 260.343 507.515 259.059 506.895 257.775Z" fill="#FDB9A9"/>
<path d="M558.242 396.39C551.204 394.797 552.576 404.778 550.717 408.497C549.54 410.406 548.043 412.098 546.29 413.498C544.565 414.935 543.437 416.963 543.125 419.186C543.084 419.6 543.169 420.017 543.369 420.382C543.728 420.819 544.229 421.117 544.785 421.223C548.81 422.398 553.132 421.969 556.848 420.027C558.588 419.207 560.033 417.87 560.986 416.199C561.757 414.397 562.12 412.447 562.049 410.488C562.27 406.328 564.129 397.696 558.242 396.39Z" fill="#FDB9A9"/>
<path d="M552 416.973C552 416.973 531.948 417.836 540.447 424.122C548.946 430.408 561.628 422.595 562.867 421.156C564.106 419.718 563.088 417.261 563.088 417.261L552 416.973Z" fill="#4561B5"/>
<path d="M561.982 419.74C560.211 421.953 550.783 424.853 546.6 424.543C542.417 424.233 538.676 422.33 539.097 419.607C539.517 416.885 546.865 410.621 548.26 410.644C549.654 410.666 550.738 413.875 553.527 414.539C554.773 414.746 556.052 414.63 557.241 414.204C558.43 413.778 559.49 413.055 560.322 412.104C560.571 411.772 560.924 411.532 561.325 411.424C561.726 411.316 562.152 411.345 562.535 411.507C563.118 412.821 563.373 414.257 563.276 415.692C563.18 417.126 562.736 418.516 561.982 419.74Z" fill="white"/>
<path d="M582.432 400.33C575.394 398.692 576.766 408.696 574.907 412.392C573.731 414.308 572.234 416.008 570.481 417.416C568.757 418.844 567.628 420.865 567.316 423.082C567.279 423.502 567.364 423.925 567.559 424.299C567.924 424.73 568.423 425.026 568.976 425.14C573.001 426.306 577.32 425.878 581.038 423.945C582.775 423.109 584.218 421.766 585.177 420.094C585.945 418.299 586.307 416.357 586.239 414.406C586.46 410.201 588.32 401.591 582.432 400.33Z" fill="#FDB9A9"/>
<path d="M576.189 420.824C576.189 420.824 556.138 421.665 564.636 427.995C573.135 434.325 585.817 426.446 587.056 425.007C588.296 423.569 587.278 421.112 587.278 421.112L576.189 420.824Z" fill="#4561B5"/>
<path d="M586.172 423.547C584.402 425.76 574.973 428.681 570.79 428.371C566.607 428.062 562.867 426.158 563.287 423.436C563.708 420.714 571.056 414.45 572.45 414.583C573.844 414.716 574.929 417.814 577.718 418.456C578.962 418.668 580.24 418.557 581.429 418.135C582.618 417.712 583.68 416.992 584.512 416.044C584.759 415.708 585.112 415.466 585.514 415.357C585.916 415.249 586.343 415.28 586.725 415.446C587.286 416.743 587.528 418.154 587.432 419.564C587.336 420.973 586.904 422.338 586.172 423.547Z" fill="white"/>
<path d="M564.263 309.299L573.691 408.541L587.28 406.859C592.658 382.646 591.331 310.207 591.331 310.207L564.263 309.299Z" fill="#473F47"/>
<path d="M573.688 306.621L564.26 405.841L550.626 404.159C542.858 341.391 549.276 302.35 549.276 302.35L573.688 306.621Z" fill="#473F47"/>
<path d="M550.516 270.745C550.339 268.93 549.852 267.115 549.675 265.256C549.232 261.517 549.299 257.734 549.874 254.013C550.514 250.042 551.714 246.182 553.437 242.548C554.986 239.405 557.864 238.122 561.006 236.484C563.68 235.047 566.575 234.067 569.572 233.585C571.68 233.392 573.806 233.511 575.879 233.939C582.298 235.156 590.73 238.365 595.112 243.522C598.41 247.307 598.786 252.751 598.897 257.775C599.03 264.703 598.897 271.63 598.454 278.558C598.454 279.554 598.344 280.549 598.255 281.568C597.898 289.274 596.733 296.922 594.78 304.386C594.414 306.718 593.151 308.815 591.261 310.229C586.237 313.15 578.58 311.535 573.157 310.782C565.964 309.764 558.594 308.702 552.22 305.205C550.897 304.637 549.827 303.606 549.21 302.306C548.892 300.667 549.101 298.971 549.807 297.459C552.021 290.376 550.294 282.918 550.294 275.68C550.294 274.375 550.449 273.047 550.449 271.719C550.516 271.409 550.516 271.077 550.516 270.745Z" fill="white"/>
<path d="M573.091 283.559C574.797 284.621 576.678 285.37 578.646 285.773C584.512 287.477 590.532 288.384 596.352 290.199C596.748 290.276 597.116 290.46 597.415 290.73C597.653 291.098 597.762 291.534 597.725 291.97C597.752 293.674 597.498 295.372 596.972 296.994C596.801 297.804 596.336 298.521 595.666 299.008C594.816 299.317 593.883 299.317 593.032 299.008L571.099 294.36C569.53 293.959 567.916 293.766 566.297 293.785C564.378 294.008 562.496 294.477 560.697 295.179C557.333 296.256 553.871 296.998 550.361 297.392C550.548 293.205 551.059 289.04 551.888 284.932C552.21 283.717 552.671 282.544 553.261 281.435C553.968 280.339 554.8 279.329 555.739 278.425C559.281 274.729 561.737 270.103 565.323 266.407C567.204 264.459 569.55 263.22 571.21 261.139C571.874 260.298 577.628 253.061 577.075 252.286C578.182 253.659 580.926 252.286 581.922 253.703C582.542 254.588 581.922 255.783 581.347 256.691C577.106 263.792 574.147 271.583 572.604 279.708C572.162 281.59 571.498 282.254 573.091 283.559Z" fill="#E1E1E1"/>
<path d="M555.21 192.706C557.244 194.014 558.843 195.899 559.8 198.12C560.757 200.341 561.03 202.797 560.583 205.174C560.136 207.551 558.99 209.74 557.292 211.462C555.593 213.184 553.419 214.36 551.049 214.839C551.049 214.839 538.478 219.575 545.538 230.508L580.463 252.751L558.33 287.676C547.397 294.736 542.661 282.165 542.661 282.165C542.185 279.792 541.01 277.615 539.286 275.915C537.563 274.215 535.371 273.07 532.991 272.626C530.611 272.183 528.154 272.461 525.934 273.426C523.714 274.391 521.833 275.998 520.534 278.041C519.235 280.083 518.577 282.468 518.645 284.888C518.712 287.307 519.502 289.651 520.913 291.618C522.324 293.585 524.291 295.085 526.562 295.925C528.832 296.764 531.302 296.906 533.653 296.33C545.825 296.086 545.294 308.193 545.294 308.193L523.162 343.118L432.773 285.574L454.795 250.959C465.729 243.921 470.465 256.47 470.465 256.47C470.934 258.852 472.106 261.039 473.829 262.749C475.553 264.459 477.749 265.613 480.135 266.063C482.521 266.513 484.987 266.238 487.215 265.273C489.443 264.309 491.331 262.698 492.635 260.651C493.939 258.603 494.6 256.211 494.533 253.784C494.465 251.357 493.672 249.006 492.255 247.034C490.839 245.062 488.864 243.56 486.586 242.721C484.307 241.882 481.83 241.745 479.473 242.327C467.3 242.57 467.853 230.464 467.853 230.464L490.295 195.185L525.242 217.45C525.242 217.45 537.349 217.981 537.105 205.809C536.719 204.21 536.657 202.55 536.923 200.926C537.189 199.303 537.778 197.75 538.655 196.358C540.398 193.717 543.101 191.858 546.192 191.177C549.282 190.495 552.517 191.044 555.21 192.706Z" fill="#D84479"/>
<path d="M609.101 264.26C610.008 265.84 610.749 267.508 611.314 269.24C612.029 272.275 612.105 275.425 611.536 278.491C611.268 281.496 610.189 284.373 608.415 286.813C604.675 291.239 597.991 291.66 592.192 291.107C585.61 290.499 579.11 289.193 572.804 287.211C572.218 287.079 571.667 286.823 571.188 286.459C570.677 285.88 570.326 285.179 570.17 284.423C569.687 282.588 569.369 280.714 569.219 278.823C575.858 276.92 583.206 278.469 590.134 277.451C590.606 277.449 591.071 277.334 591.489 277.116C591.908 276.899 592.269 276.584 592.542 276.199C592.815 275.813 592.991 275.369 593.058 274.901C593.124 274.434 593.077 273.957 592.922 273.511C592.59 269.616 590.178 266.208 589.049 262.445C587.943 258.824 588.037 254.943 589.315 251.379C589.696 250.123 590.344 248.964 591.215 247.982C592.086 247.001 593.159 246.219 594.361 245.691C597.128 244.784 598.19 246.953 599.717 248.989C603.232 253.831 606.37 258.936 609.101 264.26Z" fill="white"/>
<path d="M566.452 276.344C566.191 276.132 565.877 275.994 565.544 275.946C565.289 275.972 565.046 276.066 564.84 276.218C564.634 276.37 564.472 276.574 564.371 276.809C564.177 277.286 563.955 277.752 563.707 278.203C563.375 278.573 562.963 278.862 562.503 279.05C562.043 279.237 561.547 279.319 561.051 279.288C560.058 279.188 559.057 279.188 558.063 279.288C557.695 279.363 557.353 279.531 557.067 279.775C556.796 280.041 556.604 280.379 556.514 280.749C556.345 281.501 556.366 282.283 556.575 283.024C556.784 283.766 557.173 284.444 557.709 284.998C558.79 286.094 560.118 286.913 561.582 287.388C563.076 288.048 564.733 288.248 566.341 287.964C567.223 287.707 568.065 287.327 568.842 286.835L572.073 285.042C572.343 284.915 572.583 284.734 572.781 284.511C573.49 283.626 572.516 280.97 571.874 280.085C570.259 278.58 568.432 277.32 566.452 276.344Z" fill="#FDB9A9"/>
<path d="M564.284 223.536C564.284 221.633 564.439 219.708 564.638 217.848C564.837 215.989 565.081 214.529 565.39 212.891C565.411 212.406 565.537 211.932 565.759 211.5C565.98 211.068 566.292 210.689 566.674 210.39C569.232 208.862 572.172 208.095 575.151 208.177C576.277 208.097 577.408 208.253 578.471 208.634C579.534 209.015 580.506 209.613 581.326 210.39C582.325 211.661 582.919 213.203 583.03 214.816C583.133 219.005 582.717 223.191 581.79 227.277C581.323 230.486 581.152 233.731 581.281 236.971C579.713 238.014 577.911 238.652 576.036 238.83C575.164 238.822 574.298 238.68 573.469 238.409C573.007 238.305 572.599 238.038 572.318 237.657C572.219 237.302 572.219 236.927 572.318 236.572C572.34 236.233 572.34 235.893 572.318 235.554C572.447 233.659 572.41 231.755 572.207 229.866C572.211 229.784 572.197 229.702 572.167 229.626C572.136 229.549 572.09 229.481 572.03 229.424C571.909 229.38 571.775 229.38 571.654 229.424H571.123C570.181 229.523 569.231 229.523 568.29 229.424C567.157 229.313 566.103 228.794 565.324 227.963C564.425 226.674 564.053 225.091 564.284 223.536Z" fill="#FDB9A9"/>
<path d="M568.221 211.408C567.557 211.408 566.959 211.762 566.384 211.408C565.782 210.909 565.253 210.328 564.812 209.682C563.755 208.279 563.236 206.543 563.352 204.79C563.393 203.997 563.654 203.231 564.104 202.577C564.596 201.982 565.227 201.518 565.941 201.227C567.314 200.551 568.842 200.253 570.368 200.364C572.579 200.651 574.641 201.636 576.255 203.175C576.595 203.529 577.011 203.802 577.472 203.971C577.895 204.06 578.333 204.06 578.756 203.971C581.557 203.736 584.34 204.592 586.524 206.362C587.764 207.446 588.738 208.841 590.021 209.792C591.305 210.744 592.566 211.098 593.23 212.315C593.508 212.881 593.62 213.514 593.553 214.14C593.487 214.767 593.244 215.362 592.854 215.857C592.03 216.827 590.897 217.484 589.645 217.716C589.783 218.076 589.847 218.46 589.834 218.845C589.822 219.23 589.732 219.609 589.572 219.959C589.411 220.31 589.182 220.624 588.898 220.885C588.614 221.146 588.281 221.348 587.919 221.478C587.408 221.556 586.914 221.721 586.458 221.965C586.148 222.208 586.015 222.585 585.705 222.828C584.975 223.426 584.023 223.625 583.714 224.643C583.621 225.072 583.584 225.511 583.603 225.949C583.549 226.598 583.285 227.212 582.85 227.697C582.563 228.007 582.054 228.782 581.633 228.87C581.213 228.959 580.836 228.45 580.704 228.007C580.185 226.13 580.317 224.133 581.08 222.341C581.628 221.476 581.947 220.486 582.009 219.464C582.009 218.446 580.549 217.649 579.796 218.247C579.044 218.844 578.999 220.283 578.203 219.995C578.697 218.565 578.66 217.004 578.1 215.598C577.539 214.192 576.491 213.035 575.148 212.337C573.657 211.881 572.104 211.665 570.545 211.696C569.817 211.542 569.075 211.461 568.332 211.452L568.221 211.408Z" fill="#473F47"/>
<path d="M571.122 229.468C573.32 229.05 575.47 228.412 577.54 227.565C577.727 229.309 577.307 231.064 576.352 232.535C575.397 234.006 573.964 235.104 572.295 235.643C572.461 233.751 572.461 231.847 572.295 229.955C572.293 229.791 572.23 229.633 572.118 229.512C571.996 229.468 571.863 229.468 571.742 229.512H571.233L571.122 229.468Z" fill="#DE9F93"/>
<path d="M501.826 245.381C502.162 245.862 502.379 246.416 502.46 246.996C502.54 247.577 502.483 248.169 502.291 248.723C501.907 249.831 501.347 250.87 500.631 251.8L497.156 256.934C496.249 258.262 494.943 259.767 493.416 259.634C489.609 259.369 487.927 249.498 489.344 246.576C490.981 242.925 499.325 242.261 501.826 245.381Z" fill="#FDB9A9"/>
<path d="M519.752 333.667V440.81H412.632V399.378C412.632 399.378 418.674 388.887 428.811 395.616C430.486 397.372 432.65 398.586 435.022 399.101C437.394 399.616 439.866 399.409 442.119 398.507C444.373 397.604 446.304 396.047 447.665 394.037C449.025 392.027 449.752 389.655 449.752 387.227C449.752 384.8 449.025 382.428 447.665 380.418C446.304 378.407 444.373 376.851 442.119 375.948C439.866 375.045 437.394 374.838 435.022 375.354C432.65 375.869 430.486 377.083 428.811 378.839C428.811 378.839 418.076 386.895 412.632 375.077V333.667H454.041C465.86 328.223 457.804 317.488 457.804 317.488C456.048 315.813 454.834 313.649 454.318 311.277C453.803 308.905 454.01 306.433 454.913 304.18C455.815 301.926 457.372 299.995 459.383 298.634C461.393 297.274 463.765 296.547 466.192 296.547C468.62 296.547 470.991 297.274 473.002 298.634C475.012 299.995 476.569 301.926 477.472 304.18C478.374 306.433 478.581 308.905 478.066 311.277C477.55 313.649 476.336 315.813 474.58 317.488C467.941 327.625 478.343 333.667 478.343 333.667H519.752Z" fill="#26647D"/>
<path d="M342.651 280.085C342.644 282.511 341.911 284.88 340.548 286.887C339.185 288.894 337.253 290.448 335.001 291.35C332.748 292.251 330.278 292.459 327.906 291.946C325.535 291.434 323.371 290.224 321.691 288.473C311.555 281.833 305.513 292.235 305.513 292.235V333.667H412.633V226.524H305.513V267.934C310.957 279.753 321.691 271.696 321.691 271.696C323.371 269.945 325.535 268.735 327.906 268.223C330.278 267.71 332.748 267.918 335.001 268.82C337.253 269.721 339.185 271.275 340.548 273.282C341.911 275.29 342.644 277.658 342.651 280.085Z" fill="#F0A236"/>
<path d="M350.682 349.846C348.926 351.522 347.712 353.685 347.197 356.057C346.681 358.429 346.888 360.901 347.791 363.155C348.693 365.408 350.25 367.339 352.261 368.7C354.271 370.06 356.643 370.787 359.07 370.787C361.498 370.787 363.869 370.06 365.88 368.7C367.89 367.339 369.447 365.408 370.35 363.155C371.252 360.901 371.459 358.429 370.944 356.057C370.429 353.685 369.215 351.522 367.458 349.846C367.458 349.846 359.402 339.112 371.221 333.667H346.897C346.897 333.667 357.41 339.709 350.682 349.846Z" fill="#4561B5"/>
<path d="M305.513 333.667V440.81H412.633V399.378C412.633 399.378 418.675 388.887 428.812 395.616C430.488 397.372 432.651 398.586 435.023 399.101C437.395 399.616 439.867 399.409 442.121 398.507C444.374 397.604 446.306 396.047 447.666 394.037C449.026 392.027 449.753 389.655 449.753 387.227C449.753 384.8 449.026 382.428 447.666 380.418C446.306 378.407 444.374 376.85 442.121 375.948C439.867 375.045 437.395 374.838 435.023 375.354C432.651 375.869 430.488 377.083 428.812 378.839C428.812 378.839 418.078 386.895 412.633 375.077V333.667H371.246C359.427 339.112 367.483 349.846 367.483 349.846C369.239 351.522 370.453 353.685 370.969 356.057C371.484 358.429 371.277 360.901 370.375 363.155C369.472 365.408 367.915 367.339 365.905 368.7C363.894 370.06 361.523 370.787 359.095 370.787C356.668 370.787 354.296 370.06 352.285 368.7C350.275 367.339 348.718 365.408 347.816 363.155C346.913 360.901 346.706 358.429 347.221 356.057C347.737 353.685 348.951 351.522 350.707 349.846C357.347 339.709 346.944 333.667 346.944 333.667H305.513Z" fill="#63A774"/>
<path d="M198.611 440.81V399.4C204.056 387.582 214.79 395.638 214.79 395.638C216.466 397.394 218.629 398.608 221.001 399.123C223.373 399.639 225.845 399.432 228.099 398.529C230.352 397.626 232.284 396.07 233.644 394.059C235.004 392.049 235.731 389.677 235.731 387.25C235.731 384.822 235.004 382.45 233.644 380.44C232.284 378.43 230.352 376.873 228.099 375.97C225.845 375.068 223.373 374.861 221.001 375.376C218.629 375.891 216.466 377.105 214.79 378.861C204.653 385.501 198.611 375.099 198.611 375.099V333.667H240.021C240.021 333.667 250.512 327.625 243.783 317.488C242.027 315.813 240.813 313.649 240.298 311.277C239.783 308.905 239.99 306.433 240.892 304.18C241.795 301.926 243.352 299.995 245.362 298.634C247.372 297.274 249.744 296.547 252.172 296.547C254.599 296.547 256.971 297.274 258.981 298.634C260.992 299.995 262.548 301.926 263.451 304.18C264.354 306.433 264.561 308.905 264.045 311.277C263.53 313.649 262.316 315.813 260.56 317.488C260.56 317.488 252.504 328.223 264.322 333.667H305.732V440.81H198.611Z" fill="#5E9FBA"/>
<path d="M342.781 280.107C342.774 282.533 342.042 284.902 340.679 286.909C339.316 288.916 337.384 290.47 335.132 291.372C332.879 292.273 330.409 292.481 328.037 291.968C325.666 291.456 323.501 290.246 321.822 288.495C321.822 288.495 311.088 280.439 305.643 292.257V333.667H264.234C252.415 328.222 260.471 317.488 260.471 317.488C262.227 315.812 263.441 313.649 263.957 311.277C264.472 308.905 264.265 306.433 263.363 304.179C262.46 301.926 260.903 299.995 258.893 298.634C256.882 297.274 254.511 296.547 252.083 296.547C249.656 296.547 247.284 297.274 245.273 298.634C243.263 299.995 241.706 301.926 240.804 304.179C239.901 306.433 239.694 308.905 240.209 311.277C240.725 313.649 241.939 315.812 243.695 317.488C250.335 327.625 239.932 333.667 239.932 333.667H198.611V226.524H239.623C251.441 231.969 243.385 242.703 243.385 242.703C241.629 244.379 240.415 246.542 239.9 248.914C239.384 251.286 239.591 253.758 240.494 256.012C241.396 258.265 242.953 260.197 244.964 261.557C246.974 262.917 249.346 263.644 251.773 263.644C254.201 263.644 256.572 262.917 258.583 261.557C260.593 260.197 262.15 258.265 263.053 256.012C263.955 253.758 264.162 251.286 263.647 248.914C263.132 246.542 261.918 244.379 260.161 242.703C253.522 232.566 263.924 226.524 263.924 226.524H305.732V267.956C305.732 267.956 311.774 278.447 321.911 271.719C323.59 269.967 325.754 268.758 328.126 268.245C330.497 267.732 332.968 267.94 335.22 268.842C337.473 269.743 339.405 271.297 340.768 273.305C342.131 275.312 342.863 277.68 342.87 280.107H342.781Z" fill="#8CD36B"/>
<path d="M369.032 485.982C369.07 488.412 368.379 490.797 367.048 492.83C365.717 494.863 363.807 496.45 361.565 497.387C359.323 498.323 356.851 498.566 354.47 498.083C352.088 497.601 349.906 496.415 348.205 494.68C348.205 494.68 337.36 486.779 332.093 498.664L332.69 540.073L291.281 540.671C279.374 535.403 287.275 524.559 287.275 524.559C288.999 522.859 290.175 520.682 290.651 518.308C291.127 515.934 290.882 513.472 289.947 511.239C289.013 509.006 287.431 507.103 285.406 505.776C283.38 504.45 281.004 503.76 278.584 503.795C276.163 503.83 273.808 504.589 271.822 505.974C269.836 507.358 268.31 509.306 267.44 511.566C266.571 513.825 266.397 516.293 266.942 518.652C267.487 521.011 268.726 523.153 270.498 524.802C277.382 534.828 266.979 541.025 266.979 541.025L225.57 541.623L224.021 434.48L265.032 433.904C276.939 439.172 269.038 450.017 269.038 450.017C267.314 451.717 266.138 453.894 265.661 456.267C265.185 458.641 265.43 461.103 266.365 463.336C267.3 465.57 268.882 467.472 270.907 468.799C272.932 470.126 275.308 470.816 277.729 470.781C280.15 470.746 282.505 469.987 284.491 468.602C286.477 467.217 288.002 465.269 288.872 463.01C289.742 460.75 289.915 458.282 289.37 455.923C288.825 453.564 287.587 451.422 285.814 449.773C278.931 439.747 289.333 433.55 289.333 433.55L331.141 432.953L331.739 474.385C331.739 474.385 337.936 484.787 347.962 477.904C349.098 476.691 350.469 475.721 351.99 475.051C353.512 474.382 355.153 474.027 356.815 474.008C360.02 473.985 363.104 475.231 365.394 477.474C367.683 479.718 368.991 482.777 369.032 485.982Z" fill="#B62E26"/>
<path d="M239.024 434.878C237.542 436.516 236.391 440.124 238.737 441.651C239.576 442.103 240.507 442.361 241.459 442.403L253.986 443.93C253.61 443.93 260.161 517.742 262.728 533.434C263.038 535.293 263.813 537.617 265.694 537.86C266.258 537.826 266.806 537.66 267.294 537.376C267.783 537.091 268.197 536.696 268.505 536.222C270.313 533.389 271.344 530.13 271.493 526.772C274.604 502.679 276.083 478.404 275.919 454.111C275.919 449.309 275.742 444.285 273.352 440.102C271.884 437.826 269.959 435.88 267.7 434.386C265.441 432.893 262.896 431.885 260.227 431.426C253.079 429.81 244.226 429.08 239.024 434.878Z" fill="#941E17"/>
<path d="M269.171 588.078V588.366C269.702 589.716 271.384 590.159 272.801 590.336C274.138 590.483 275.484 590.542 276.829 590.513C277.474 590.537 278.118 590.447 278.732 590.247C279.295 590 279.824 589.68 280.304 589.296L284.177 586.418C285.265 585.668 286.261 584.792 287.143 583.807C288.015 582.794 288.473 581.49 288.426 580.155C288.38 579.495 288.132 578.866 287.717 578.351C287.301 577.837 286.738 577.462 286.102 577.278C285.294 577.179 284.476 577.179 283.668 577.278C282.769 577.393 281.856 577.245 281.039 576.853C280.222 576.46 279.536 575.839 279.064 575.065C278.904 574.342 278.516 573.691 277.958 573.205C277.394 572.932 276.756 572.854 276.143 572.984C274.799 573.052 273.472 573.312 272.203 573.759C271.563 573.988 270.983 574.357 270.504 574.84C270.026 575.322 269.661 575.906 269.437 576.547C269.301 577.142 269.242 577.752 269.26 578.362C269.337 579.623 269.337 580.887 269.26 582.147C269.083 583.72 268.994 585.301 268.994 586.883C269.007 587.287 269.066 587.688 269.171 588.078Z" fill="#262836"/>
<path d="M306.73 588.587C304.122 589.781 301.438 590.801 298.696 591.642C297.604 592.113 296.382 592.183 295.243 591.841C294.797 591.624 294.402 591.315 294.085 590.933C293.768 590.551 293.537 590.106 293.406 589.628C293.167 588.651 293.07 587.644 293.118 586.64C293.288 585.086 293.607 583.551 294.07 582.058C294.314 580.664 294.513 579.27 294.69 577.875C294.978 575.861 295.243 573.869 295.487 571.877L302.458 573.36C303.189 573.515 303.875 576.326 304.317 576.924C304.642 577.364 305.061 577.725 305.543 577.982C306.026 578.239 306.56 578.384 307.106 578.406C308.294 578.235 309.491 578.138 310.692 578.119C311.465 578.3 312.157 578.733 312.657 579.35C313.158 579.967 313.44 580.733 313.458 581.527C313.452 582.317 313.282 583.096 312.958 583.817C312.634 584.537 312.164 585.182 311.577 585.71C310.403 586.773 309.056 587.626 307.593 588.233L306.73 588.587Z" fill="#262836"/>
<path d="M306.84 580.797C305.011 581.837 303.11 582.747 301.152 583.519H300.975C297.744 584.781 294.136 579.712 294.136 579.712C294.136 579.712 289.577 551.56 289.71 539.874C289.865 531.862 287.961 520.442 285.106 499.726C284.398 520.885 280.813 530.18 281.72 537.772C283.114 549.303 281.455 577.942 281.455 577.942C281.455 577.942 278.4 583.519 275.058 582.767H274.859C272.847 582.309 270.872 581.703 268.95 580.952C268.95 580.952 265.054 541.512 265.054 531.11C265.054 520.708 265.497 511.39 265.497 511.39L263.461 478.457L272.137 465.841L272.845 465.554L273.509 464.89L283.137 457.83C283.137 457.83 283.137 459.467 282.96 462.256L290.44 466.262L291.148 466.793L291.879 466.97L304.406 469.183C304.406 469.183 307.681 519.712 308.832 530.047C309.983 540.383 306.84 580.797 306.84 580.797Z" fill="#4561B5"/>
<path d="M306.84 580.797C305.011 581.837 303.11 582.747 301.152 583.519H300.975C297.744 584.781 294.136 579.712 294.136 579.712C294.136 579.712 289.577 551.56 289.71 539.874C289.865 531.862 287.961 520.442 285.106 499.726C284.398 520.885 280.813 530.18 281.72 537.772C283.114 549.303 281.455 577.942 281.455 577.942C281.455 577.942 278.4 583.519 275.058 582.767H274.859C272.847 582.309 270.872 581.703 268.95 580.952C268.95 580.952 265.054 541.512 265.054 531.11C265.054 520.708 265.497 511.39 265.497 511.39L263.461 478.457L272.137 465.841L272.845 465.554L273.509 464.89L283.137 457.83C283.137 457.83 283.137 459.467 282.96 462.256L290.44 466.262L291.148 466.793L291.879 466.97L304.406 469.183C304.406 469.183 307.681 519.712 308.832 530.047C309.983 540.383 306.84 580.797 306.84 580.797Z" fill="url(#paint5_linear)"/>
<path d="M365.8 404.668C365.955 404.557 366.14 404.495 366.331 404.491C366.84 404.491 366.862 405.31 366.685 405.796C366.223 407.154 365.551 408.431 364.693 409.581C364.416 409.868 364.251 410.245 364.229 410.643C364.229 411.042 364.583 411.329 364.848 411.617C365.663 412.562 366.242 413.687 366.538 414.898C366.834 416.11 366.839 417.375 366.553 418.589C365.939 421.013 364.676 423.224 362.901 424.985C362.473 425.529 361.942 425.984 361.338 426.322C360.734 426.66 360.069 426.875 359.382 426.955C356.991 426.955 354.004 424.011 353.052 421.975C352.705 420.958 352.629 419.868 352.831 418.813C353.033 417.758 353.505 416.773 354.203 415.955C357.027 411.252 361.023 407.363 365.8 404.668Z" fill="#A67C52"/>
<path d="M296.459 381.429C297.234 382.225 298.429 383.044 298.097 384.085C297.92 384.638 297.322 384.97 296.88 385.368C295.788 386.527 295.199 388.07 295.242 389.662C295.289 391.245 295.064 392.824 294.578 394.332C294.302 395.078 293.776 395.705 293.091 396.109C292.405 396.512 291.602 396.666 290.816 396.545C289.908 396.302 289.001 395.505 288.115 395.881C287.23 396.257 287.23 396.988 286.876 397.607C286.393 398.37 285.705 398.982 284.891 399.373C284.077 399.764 283.17 399.919 282.272 399.821C280.497 399.554 278.786 398.961 277.226 398.072C276.564 397.808 275.989 397.363 275.566 396.789C275.309 396.227 275.247 395.596 275.389 394.996C275.936 393.194 276.831 391.518 278.023 390.06C279.931 387.119 281.08 383.75 281.365 380.256C281.542 377.821 281.365 375.143 282.936 373.262C285.15 370.694 290.174 370.717 292.807 372.598C295.441 374.479 294.025 378.928 296.459 381.429Z" fill="#A67C52"/>
<path d="M293.317 370.407C293.008 371.013 292.542 371.526 291.967 371.89C290.794 372.576 289.753 373.372 288.691 374.103C287.62 374.809 286.866 375.904 286.588 377.157C286.124 379.37 287.363 381.893 286.588 384.129C286.301 384.594 285.57 384.306 285.283 383.863C284.995 383.421 284.818 382.867 284.375 382.602C283.601 382.159 282.671 382.912 282.339 383.73C281.996 384.683 282.035 385.731 282.448 386.655C282.86 387.579 283.614 388.308 284.552 388.688C284.442 389.396 283.534 389.684 282.804 389.595C282.083 389.397 281.338 389.3 280.591 389.308C278.931 389.618 278.377 391.986 276.651 392.229C276.079 392.191 275.524 392.022 275.029 391.734C274.534 391.446 274.112 391.047 273.796 390.569L271.782 388.356C271.457 387.925 271.102 387.519 270.72 387.139C270.255 386.785 269.502 386.763 269.126 386.342C268.75 385.922 269.126 384.926 268.728 384.394C268.539 384.197 268.303 384.052 268.042 383.974C267.462 383.681 267.001 383.198 266.735 382.606C266.469 382.014 266.415 381.348 266.581 380.72C266.635 380.563 266.635 380.391 266.581 380.233C266.581 380.012 266.271 379.924 266.05 379.813C265.439 379.417 264.989 378.816 264.782 378.118C264.575 377.42 264.624 376.671 264.921 376.006C265.258 375.243 265.739 374.551 266.337 373.97C266.549 373.645 266.848 373.387 267.201 373.226C267.554 373.065 267.945 373.008 268.329 373.063L268.661 370.163C268.653 369.672 268.754 369.185 268.957 368.738C269.16 368.291 269.46 367.894 269.834 367.576C270.209 367.259 270.65 367.028 271.124 366.902C271.599 366.775 272.095 366.755 272.579 366.843L271.915 364.453C271.793 364.148 271.793 363.807 271.915 363.501C272.097 363.29 272.348 363.149 272.623 363.103C273.395 362.883 274.189 362.749 274.991 362.705C274.704 362.034 274.481 361.337 274.327 360.624C274.277 360.522 274.258 360.406 274.273 360.293C274.288 360.179 274.337 360.073 274.413 359.988C274.489 359.902 274.589 359.841 274.7 359.813C274.811 359.784 274.927 359.789 275.035 359.827C275.329 359.872 275.627 359.872 275.921 359.827C275.921 359.827 275.478 357.791 275.456 357.614C275.322 356.975 275.441 356.308 275.788 355.755C276.03 355.48 276.337 355.269 276.681 355.141C277.024 355.014 277.394 354.974 277.758 355.025C278.476 355.152 279.165 355.407 279.794 355.777C279.794 355.003 280.746 354.604 281.52 354.538C283.012 354.454 284.5 354.749 285.846 355.395C287.193 356.042 288.354 357.018 289.222 358.234C289.365 358.448 289.528 358.648 289.709 358.832C290.063 359.057 290.452 359.221 290.86 359.318C291.488 359.596 292.046 360.011 292.494 360.531C292.942 361.052 293.268 361.666 293.449 362.328C293.781 363.644 293.915 365.001 293.848 366.357C293.898 367.398 293.801 368.441 293.56 369.455C293.516 369.781 293.435 370.1 293.317 370.407Z" fill="#2F3554"/>
<path d="M282.317 395.505C284.16 396.277 285.949 397.172 287.673 398.183C288.205 398.469 288.666 398.869 289.023 399.356C289.214 399.623 289.331 399.935 289.362 400.262C289.393 400.588 289.337 400.917 289.2 401.215C288.735 402.034 287.628 401.746 286.787 401.436C282.887 400.113 278.772 399.542 274.659 399.754C274.384 399.8 274.102 399.768 273.844 399.662C273.586 399.557 273.362 399.382 273.198 399.157C273.103 398.885 273.067 398.596 273.094 398.31C273.12 398.023 273.209 397.746 273.353 397.497C275.456 393.27 278.886 393.956 282.317 395.505Z" fill="white"/>
<path d="M358.077 428.128C357.277 430.115 356.097 431.927 354.602 433.462C353.164 435.077 351.681 436.627 350.176 438.132C346.54 441.647 342.705 444.95 338.689 448.025C335.962 450.435 332.711 452.177 329.194 453.115C327.768 453.449 326.275 453.357 324.901 452.85C323.783 452.292 322.772 451.543 321.913 450.636C320.895 449.618 309.076 436.007 308.877 436.007C308.206 436.367 307.688 436.956 307.416 437.667C305.709 441.205 304.652 445.02 304.296 448.932C304.152 450.678 304.152 452.432 304.296 454.178C304.76 460.131 306.841 466.262 304.783 471.884C304.371 473.072 303.689 474.147 302.791 475.026C301.924 475.784 300.927 476.376 299.847 476.775C297.939 477.556 295.949 478.12 293.916 478.457C292.754 478.671 291.577 478.797 290.396 478.833C285.97 479.01 281.765 478.169 277.427 478.368C273.753 478.568 270.101 479.519 266.361 479.386C265.833 479.489 265.29 479.476 264.767 479.349C264.245 479.221 263.757 478.982 263.336 478.647C262.916 478.313 262.572 477.891 262.33 477.411C262.088 476.931 261.953 476.405 261.934 475.867C260.501 467.987 259.76 459.996 259.721 451.987C259.721 449.198 259.566 446.387 259.389 443.598C259.234 441.23 259.876 435.21 257.176 434.745C250.315 433.417 243.188 435.1 236.261 434.126C236.453 429.593 238.378 425.307 241.639 422.152C243.238 420.802 244.974 419.623 246.818 418.633C248.941 417.113 250.847 415.311 252.484 413.277C257.19 407.465 263.153 402.796 269.924 399.621C271.003 399.093 272.139 398.692 273.31 398.426H273.598C273.767 398.407 273.938 398.407 274.107 398.426C275.588 398.302 277.078 398.392 278.534 398.692C288.408 400.33 298.178 402.547 307.793 405.332C309.061 405.617 310.263 406.143 311.334 406.881C312.081 407.556 312.722 408.339 313.237 409.205C315.937 413.277 318.571 417.394 321.293 421.466C323.639 424.963 325.941 429.345 329.394 431.913C336.909 428.857 344.005 424.856 350.508 420.005C351.415 419.319 352.588 418.567 353.629 419.031C353.975 419.186 354.284 419.412 354.536 419.695C357.081 421.909 359.317 424.343 358.077 428.128Z" fill="white"/>
<defs>
<linearGradient id="paint0_linear" x1="284.552" y1="523.939" x2="289.134" y2="612.003" gradientUnits="userSpaceOnUse">
<stop offset="0.01"/>
<stop offset="0.08" stop-opacity="0.69"/>
<stop offset="0.21" stop-opacity="0.32"/>
<stop offset="1" stop-opacity="0"/>
</linearGradient>
<linearGradient id="paint1_linear" x1="-76049.3" y1="35076.5" x2="-75369.1" y2="35341.6" gradientUnits="userSpaceOnUse">
<stop offset="0.01"/>
<stop offset="0.08" stop-opacity="0.69"/>
<stop offset="0.21" stop-opacity="0.32"/>
<stop offset="1" stop-opacity="0"/>
</linearGradient>
<linearGradient id="paint2_linear" x1="18387.7" y1="18736.2" x2="18094.3" y2="44514.5" gradientUnits="userSpaceOnUse">
<stop offset="0.01"/>
<stop offset="0.08" stop-opacity="0.69"/>
<stop offset="0.21" stop-opacity="0.32"/>
<stop offset="1" stop-opacity="0"/>
</linearGradient>
<linearGradient id="paint3_linear" x1="18434.3" y1="32512.2" x2="8567.43" y2="35618.5" gradientUnits="userSpaceOnUse">
<stop offset="0.01"/>
<stop offset="0.08" stop-opacity="0.69"/>
<stop offset="0.21" stop-opacity="0.32"/>
<stop offset="1" stop-opacity="0"/>
</linearGradient>
<linearGradient id="paint4_linear" x1="11273.4" y1="29770.2" x2="-2354.4" y2="33015.5" gradientUnits="userSpaceOnUse">
<stop offset="0.01"/>
<stop offset="0.08" stop-opacity="0.69"/>
<stop offset="0.21" stop-opacity="0.32"/>
<stop offset="1" stop-opacity="0"/>
</linearGradient>
<linearGradient id="paint5_linear" x1="7724.47" y1="30104" x2="13109.1" y2="32835.8" gradientUnits="userSpaceOnUse">
<stop offset="0.01"/>
<stop offset="0.08" stop-opacity="0.69"/>
<stop offset="0.21" stop-opacity="0.32"/>
<stop offset="1" stop-opacity="0"/>
</linearGradient>
</defs>
</svg>
