<svg width="298" height="267" viewBox="0 0 298 267" fill="none" xmlns="http://www.w3.org/2000/svg">
<path d="M297.526 0.830166L30.7859 1.48193L31.2594 195.279L298 194.627L297.526 0.830166Z" fill="#F2F2F2"/>
<path d="M297.643 1.39502H30.7825V39.2441H297.643V1.39502Z" fill="#E6E6E6"/>
<path d="M5.74927 234.478L66.3558 185.61L89.5923 204.175L50.1861 264.542L5.74927 234.478Z" fill="#F4A28C"/>
<path d="M0 230.525L52.8211 266.698L87.3165 216.152L50.7849 190.281L0 230.525Z" fill="#C5CEEC"/>
<path opacity="0.06" d="M74.6204 207.17L30.7825 251.846L52.8212 266.698L87.3166 216.153L74.6204 207.17Z" fill="black"/>
<path d="M247.816 25.5894C250.462 25.5894 252.607 23.4444 252.607 20.7984C252.607 18.1523 250.462 16.0073 247.816 16.0073C245.17 16.0073 243.025 18.1523 243.025 20.7984C243.025 23.4444 245.17 25.5894 247.816 25.5894Z" fill="#24285B"/>
<path d="M262.309 25.5894C264.955 25.5894 267.1 23.4444 267.1 20.7984C267.1 18.1523 264.955 16.0073 262.309 16.0073C259.663 16.0073 257.518 18.1523 257.518 20.7984C257.518 23.4444 259.663 25.5894 262.309 25.5894Z" fill="#4764BA"/>
<path d="M275.844 25.4698C278.49 25.4698 280.635 23.3247 280.635 20.6787C280.635 18.0327 278.49 15.8877 275.844 15.8877C273.198 15.8877 271.052 18.0327 271.052 20.6787C271.052 23.3247 273.198 25.4698 275.844 25.4698Z" fill="#FFD200"/>
<path d="M233.563 15.8877H87.9155V25.5895H233.563V15.8877Z" fill="white"/>
<path d="M233.563 15.8877H218.112V25.5895H233.563V15.8877Z" fill="#C9C9C9"/>
<path d="M246.259 93.3828H89.8315V117.937H246.259V93.3828Z" fill="white"/>
<path d="M246.259 93.3828H211.524V117.937H246.259V93.3828Z" fill="#4764BA"/>
<path d="M201.582 59.8452H128.519V73.4996H201.582V59.8452Z" fill="#A5A5A5"/>
<path d="M107.46 134.495L94.1777 171.086L104.649 174.887L117.93 138.296L107.46 134.495Z" fill="#24285B"/>
<path opacity="0.06" d="M154.51 81.2842C154.51 81.2842 188.646 100.568 168.045 138.896C147.443 177.225 138.221 146.801 128.639 195.071H97.7366L112.229 140.813L128.519 142.37L146.605 135.902L156.786 119.612V98.0528L154.51 81.2842Z" fill="black"/>
<path opacity="0.18" d="M107.46 134.495L94.1777 171.086L104.649 174.887L117.93 138.296L107.46 134.495Z" fill="white"/>
<path d="M103.008 153.509L109.715 155.905C112.59 156.983 114.147 160.097 113.069 163.091L101.93 193.634C100.852 196.509 97.7374 198.066 94.743 196.988L88.0356 194.592C85.161 193.514 83.6039 190.4 84.6819 187.406L95.821 156.863C96.899 153.869 100.133 152.431 103.008 153.509Z" fill="#24285B"/>
<path d="M196.192 160.336H136.784V169.08H196.192V160.336Z" fill="#C9C9C9"/>
<path opacity="0.39" d="M185.413 145.844H147.563V154.587H185.413V145.844Z" fill="#C9C9C9"/>
<path d="M137.263 69.0677C116.662 61.5218 93.7844 72.3016 86.2386 92.903C78.6927 113.624 89.4725 136.501 110.074 144.047C130.795 151.593 153.672 140.813 161.218 120.212C168.764 99.4907 157.984 76.6135 137.263 69.0677ZM113.547 134.585C98.0964 128.956 90.0714 111.828 95.7009 96.3765C101.33 80.9255 118.458 72.9005 133.909 78.53C149.36 84.1594 157.385 101.287 151.756 116.738C146.126 132.189 128.999 140.214 113.547 134.585Z" fill="#FFD200"/>
<path d="M66.3555 185.61C66.3555 185.61 77.9737 172.913 87.3162 163.93C96.6587 154.947 99.4136 171.237 111.032 168.721C122.65 166.206 131.753 209.685 89.592 204.175L66.3555 185.61Z" fill="#F4A28C"/>
<path d="M106.515 105.181L108.747 104.964C108.881 105.713 109.152 106.263 109.56 106.614C109.974 106.966 110.529 107.141 111.226 107.141C111.965 107.141 112.52 106.986 112.892 106.676C113.27 106.361 113.458 105.995 113.458 105.576C113.458 105.307 113.378 105.08 113.218 104.894C113.063 104.703 112.789 104.538 112.397 104.398C112.128 104.305 111.516 104.14 110.56 103.902C109.33 103.597 108.468 103.223 107.972 102.779C107.274 102.154 106.926 101.392 106.926 100.493C106.926 99.914 107.088 99.3742 107.414 98.8731C107.744 98.3668 108.217 97.9819 108.832 97.7184C109.452 97.455 110.198 97.3232 111.071 97.3232C112.497 97.3232 113.569 97.6358 114.287 98.2609C115.011 98.886 115.39 99.7203 115.426 100.764L113.133 100.865C113.035 100.281 112.823 99.8624 112.497 99.6092C112.177 99.3509 111.694 99.2218 111.048 99.2218C110.382 99.2218 109.86 99.3587 109.483 99.6325C109.24 99.8081 109.119 100.043 109.119 100.338C109.119 100.606 109.232 100.836 109.46 101.027C109.749 101.27 110.451 101.523 111.567 101.787C112.683 102.05 113.507 102.324 114.039 102.608C114.577 102.887 114.995 103.272 115.295 103.763C115.599 104.248 115.752 104.85 115.752 105.568C115.752 106.219 115.571 106.829 115.209 107.397C114.848 107.965 114.336 108.389 113.675 108.668C113.014 108.942 112.19 109.079 111.203 109.079C109.767 109.079 108.664 108.748 107.894 108.087C107.124 107.42 106.665 106.452 106.515 105.181Z" fill="#24285B"/>
<path d="M117.085 108.877V97.5166H125.509V99.4384H119.379V101.957H125.083V103.871H119.379V106.963H125.726V108.877H117.085Z" fill="#24285B"/>
<path d="M125.46 103.267C125.46 102.11 125.633 101.138 125.979 100.353C126.238 99.7746 126.589 99.2554 127.033 98.7956C127.483 98.3358 127.974 97.9948 128.506 97.7727C129.213 97.4731 130.03 97.3232 130.954 97.3232C132.628 97.3232 133.966 97.8424 134.968 98.8808C135.976 99.9192 136.48 101.363 136.48 103.213C136.48 105.047 135.981 106.483 134.984 107.521C133.987 108.554 132.654 109.071 130.985 109.071C129.296 109.071 127.953 108.557 126.956 107.529C125.959 106.496 125.46 105.075 125.46 103.267ZM127.824 103.189C127.824 104.476 128.121 105.452 128.715 106.119C129.309 106.78 130.063 107.11 130.978 107.11C131.892 107.11 132.641 106.782 133.225 106.126C133.814 105.465 134.108 104.476 134.108 103.158C134.108 101.857 133.822 100.885 133.248 100.245C132.68 99.6041 131.923 99.2838 130.978 99.2838C130.032 99.2838 129.27 99.6092 128.692 100.26C128.113 100.906 127.824 101.882 127.824 103.189Z" fill="#24285B"/>
<path d="M230.927 107.635C233.176 107.635 235 105.812 235 103.563C235 101.314 233.176 99.4902 230.927 99.4902C228.678 99.4902 226.855 101.314 226.855 103.563C226.855 105.812 228.678 107.635 230.927 107.635Z" stroke="white" stroke-miterlimit="10"/>
<path d="M229.011 107.037L226.256 111.828" stroke="white" stroke-miterlimit="10"/>
<path d="M76.0577 16.0073H49.4675V25.7092H76.0577V16.0073Z" fill="#24285B"/>
</svg>
