<svg width="682" height="528" viewBox="0 0 682 528" fill="none" xmlns="http://www.w3.org/2000/svg">
<g clip-path="url(#clip0)">
<path opacity="0.24" d="M86 165.5C80.3 193.4 80.5 222.6 71.4 249.6C55.1 298.2 10.5 335.2 1.5 385.7C-5.1 422.6 10.4 462.5 40 485.4C65.4 505.1 98.4 511.7 130.2 516.3C249.6 533.4 370.9 529 491.2 520.6C535 517.5 580.4 513.5 618.7 492.1C643.1 478.5 664 457.6 674.4 431.7C684.8 405.8 683.6 374.8 668.4 351.4C651.6 325.7 619.3 309.5 612.9 279.5C607.4 253.9 623.2 229.4 634.6 205.9C653.6 166.7 661 118.5 639.9 80.4002C626.9 56.9002 604.5 39.8002 580.4 27.8002C513.1 -5.69982 434 -2.39982 359.1 4.60018C250.7 14.7002 111.5 40.0002 86 165.5Z" fill="#4D61B4"/>
<path d="M196.7 145.1H523.7C534.4 145.1 543.1 153.8 543.1 164.5V362.1C543.1 372.8 534.4 381.5 523.7 381.5H196.7C186 381.5 177.3 372.8 177.3 362.1V164.5C177.3 153.8 186 145.1 196.7 145.1Z" fill="#4D61B4"/>
<path d="M204.4 154.2H512.9C523 154.2 531.2 162.4 531.2 172.5V359C531.2 369.1 523 377.3 512.9 377.3H204.4C194.3 377.3 186.1 369.1 186.1 359V172.5C186 162.4 194.2 154.2 204.4 154.2Z" fill="white"/>
<path opacity="0.14" d="M99.4 284.6H199.7C208.1 284.6 214.9 291.4 214.9 299.8V326C214.9 334.4 208.1 341.2 199.7 341.2H99.4C91 341.2 84.2 334.4 84.2 326V299.9C84.1 291.5 90.9 284.6 99.4 284.6Z" fill="#4D61B4"/>
<path opacity="0.14" d="M507.6 287.5H607.9C616.3 287.5 623.1 294.3 623.1 302.7V328.8C623.1 337.2 616.3 344 607.9 344H507.6C499.2 344 492.4 337.2 492.4 328.8V302.7C492.4 294.4 499.2 287.5 507.6 287.5Z" fill="#4D61B4"/>
<path opacity="0.14" d="M510.3 158.2H610.6C619 158.2 625.8 165 625.8 173.4V199.5C625.8 207.9 619 214.7 610.6 214.7H510.3C501.9 214.7 495.1 207.9 495.1 199.5V173.4C495 165 501.9 158.2 510.3 158.2Z" fill="#4D61B4"/>
<path opacity="0.11" d="M235.9 218.9H339C347 218.9 353.5 225.4 353.5 233.4V347C353.5 355 347 361.5 339 361.5H235.9C227.9 361.5 221.4 355 221.4 347V233.4C221.4 225.4 227.9 218.9 235.9 218.9Z" fill="#4D61B4"/>
<path opacity="0.14" d="M215.3 259.1C215.3 259.1 212.5 270.4 221.5 276.1C230.5 281.8 265.2 266.5 286.2 264.2C307.2 261.9 350.3 270.5 350.3 270.5C350.3 270.5 342.3 285.3 342.9 301.7C343.5 318.1 344.6 331.2 342.9 334C341.2 336.8 352.5 348.2 354.2 348.8C355.9 349.4 371.2 350.5 371.2 350.5L390.5 378.9L439.6 377.9L409.4 278.3L424 229.2L289 211.6L215.3 259.1Z" fill="#4D61B4"/>
<path d="M189 379.7L121 430.9H597.1L530.6 378.9L189 379.7Z" fill="#4D61B4"/>
<path d="M189 379.7L121 430.9H597.1L530.6 378.9L189 379.7Z" fill="url(#paint0_linear)"/>
<path d="M140.4 449.6L121 430.9H597.1L579.5 450.8L140.4 449.6Z" fill="#4D61B4"/>
<path d="M140.4 449.6L121 430.9H597.1L579.5 450.8L140.4 449.6Z" fill="url(#paint1_linear)"/>
<path opacity="0.58" d="M305.5 422.9L325.8 406.8L399.9 406.4L421.3 422.5L305.5 422.9Z" fill="#4D61B4"/>
<path opacity="0.58" d="M164.5 403.9L549.7 403.4L529.1 386.6H188.2L164.5 403.9Z" fill="#4D61B4"/>
<path d="M400.8 350.6C398.6 347.6 394.7 346.4 391.2 345.1C377.5 339.8 366.6 329 357 317.9C354.8 315.3 352.5 312.6 351.5 309.4C350.3 305.4 351.2 301 353.9 297.7C354.4 297.1 354.9 296.5 355.4 295.8C355.9 294.8 356.2 293.7 356.4 292.6C357.1 289.3 358.6 285.4 362 284.8C362.8 284.7 363.5 284.6 364.2 284.4C365.4 283.9 366 282.5 366.5 281.3C368.4 276.8 371.6 272.2 376.5 271.6C377.1 271.6 377.7 271.5 378.3 271.2C379.6 270.4 379.5 268.5 379.8 267C380.5 263.2 385.2 261.3 389 262.1C392.8 262.9 395.8 265.6 398.7 268.2L409.6 278.2C412.5 280.9 415.6 283.7 419.5 284.6C420.2 284.8 420.9 284.8 421.5 284.5C422.1 283.9 422.5 283.1 422.5 282.3C423.9 273.9 438.8 264.6 445.3 265.7C441.3 277.1 438.2 295 435.8 311.4C446.9 329.8 463.4 343.6 480.2 357C484.3 360.5 488.7 363.6 493.3 366.5C498.8 369.7 504.8 372.1 509.6 376.2L439.6 377.8C437.7 378 435.7 377.8 433.8 377.2C432 376.4 430.3 375.3 428.9 373.9C422.2 368.1 415.8 362.1 409.5 355.9C407.3 353.7 403.9 351.3 400.8 350.6Z" fill="url(#paint2_linear)"/>
<path d="M417.1 299.9C416.4 306 413.1 311.4 409.5 316.4C407 320.1 403.9 323.4 400.3 326.2C396.7 328.9 392.2 330.3 387.6 330C383.8 329.6 380.3 327.8 377.8 325C376.9 324.1 376.3 322.9 376 321.7C375.5 318.8 377.6 316.3 379.6 314.2C387.1 306.4 395.1 299.1 403.5 292.3C406.1 290.2 413.4 284 417.2 285.4C419.2 286.2 417.5 296.9 417.1 299.9Z" fill="url(#paint3_linear)"/>
<path d="M438.2 260.2L375.2 341.3C375.2 341.3 358.7 340.2 348.5 331.7C338.3 323.2 356.5 318.1 356.5 318.1C356.5 318.1 393.9 280.7 399 251.2L438.2 260.2Z" fill="#4D61B4"/>
<path d="M348.5 331.7C353.3 335.7 359.2 338 364.3 339.4C367.9 340.4 371.5 341.1 375.2 341.4L437.2 261.7L438.2 260.3L399 251.2C393.9 280.7 356.4 318.2 356.4 318.2C356.4 318.2 338.3 323.2 348.5 331.7Z" fill="url(#paint4_linear)"/>
<path d="M358.7 335.7C360.4 337.1 362.3 338.3 364.3 339.3C367.9 340.3 371.5 341 375.2 341.3L437.2 261.6L409.3 255.1C404.1 284.6 366.7 322.1 366.7 322.1C366.7 322.1 348.5 327.2 358.7 335.7Z" fill="url(#paint5_linear)"/>
<path d="M483 213.3C478.9 205.6 471.6 199.9 463.1 197.9C423.8 188.4 300.6 154.2 293.5 95.0998C293.5 95.0998 291.2 79.7998 271.9 79.7998C252.6 79.7998 222 262.5 227.1 266.4C232.2 270.3 249.8 261.9 258.9 253.4C268 244.9 293.5 227.3 328.1 238.1C343.7 243 372 249.5 398.5 255.3C417.5 259.4 435.6 263.2 447.2 265.5C457.1 267.5 467.2 263.9 473.6 256.1C480.8 247.4 487.9 234.3 485.2 217.6C485.3 217.7 484.3 215.8 483 213.3Z" fill="#4D61B4"/>
<path d="M277.843 181.059C290.95 129.854 287.61 84.7694 270.381 80.359C253.152 75.9487 228.56 113.883 215.452 165.088C202.344 216.292 205.685 261.377 222.914 265.787C240.142 270.198 264.735 232.263 277.843 181.059Z" fill="#4D61B4"/>
<path d="M215.4 165.1C228.5 113.9 253.1 76.0002 270.4 80.4002C287.7 84.8002 291 129.9 277.9 181.1C264.8 232.3 240.2 270.2 222.9 265.8C205.6 261.4 202.3 216.3 215.4 165.1Z" fill="url(#paint6_linear)"/>
<path d="M240.8 171.8C244.7 156.4 252.1 145 257.3 146.3C262.5 147.6 263.5 161.2 259.6 176.6C255.7 192 248.3 203.4 243.1 202.1C237.8 200.8 236.8 187.2 240.8 171.8Z" fill="#DE1D4A"/>
<path d="M257.3 146.3L281.9 149.5C281.9 149.5 272.5 209.1 262 214.2L245.3 201.7L257.3 146.3Z" fill="url(#paint7_linear)"/>
<path d="M399.2 278.1C402.7 281 406.8 283.1 410.5 285.7C413 287.4 415.5 289.6 415.7 292.6C415.7 294.1 415.3 295.5 414.6 296.8C413.3 299.4 411.4 301.8 409.2 303.7C407.4 305.2 405.3 306.5 403.8 308.3C402.8 309.6 401.9 311 401.2 312.4C398.5 316.9 394.6 320.5 390.7 324.1C389.6 325.2 388.4 326.1 387.2 327C383.4 329.2 378.9 329.5 374.9 327.9C370.9 326.3 367.5 323.6 365 320C362.4 316.5 360.5 312 361.2 307.7C361.8 305.1 362.9 302.6 364.4 300.4C369.4 292.4 375.2 284.9 381.6 278C383.2 276.2 388.9 268.6 391.6 269C393.6 269.2 397.1 276.4 399.2 278.1Z" fill="url(#paint8_linear)"/>
<path d="M427.3 224.3C427.3 224.3 420.6 254.5 398.4 255.3L453.4 267.8C453.4 267.8 473.1 266.7 476.9 258.7C480.7 250.8 500.3 223.2 472.8 201.6L428.5 188C428.5 188 433.4 206.1 427.3 224.3Z" fill="url(#paint9_linear)"/>
<path d="M296.9 116.1C296.9 116.1 303.4 187.2 262.1 250C262.1 250 286.7 231.1 316.6 235.2C316.6 235.2 332.9 175.4 325.7 158.8C318.5 142.2 296.9 116.1 296.9 116.1Z" fill="url(#paint10_linear)"/>
<path d="M447.2 40.2002H607.9C621.4 40.2002 632.4 51.1002 632.4 64.6002V106.5C632.4 120 621.5 130.9 607.9 130.9H447.2C433.7 130.9 422.7 120 422.7 106.5V64.7002C422.8 51.2002 433.7 40.2002 447.2 40.2002Z" fill="white"/>
<path d="M515.3 151H615.6C624 151 630.8 157.8 630.8 166.2V192.4C630.8 200.8 624 207.6 615.6 207.6H515.3C506.9 207.6 500.1 200.8 500.1 192.4V166.2C500.1 157.8 506.9 151 515.3 151Z" fill="white"/>
<path d="M284.1 15.7998H384.4C392.8 15.7998 399.6 22.5998 399.6 30.9998V57.1998C399.6 65.5998 392.8 72.3998 384.4 72.3998H284.1C275.7 72.3998 268.9 65.5998 268.9 57.1998V31.0998C268.9 22.6998 275.7 15.7998 284.1 15.7998Z" fill="white"/>
<path d="M93.3 278.9H193.6C202 278.9 208.8 285.7 208.8 294.1V320.2C208.8 328.6 202 335.4 193.6 335.4H93.3C84.9 335.4 78.1 328.6 78.1 320.2V294.1C78.1 285.7 84.9 278.9 93.3 278.9Z" fill="white"/>
<path d="M514.4 279.8H614.7C623.1 279.8 629.9 286.6 629.9 295V321.1C629.9 329.5 623.1 336.3 614.7 336.3H514.4C506 336.3 499.2 329.5 499.2 321.1V295C499.1 286.7 506 279.8 514.4 279.8Z" fill="white"/>
<path opacity="0.11" d="M453.5 55.8999H603.8C605.6 55.8999 607 57.3999 607 59.0999C607 60.8999 605.5 62.2999 603.8 62.2999H453.5C451.7 62.2999 450.3 60.7999 450.3 59.0999C450.2 57.2999 451.7 55.8999 453.5 55.8999Z" fill="#4D61B4"/>
<path opacity="0.11" d="M453.5 78.2998H603.8C605.6 78.2998 607 79.7998 607 81.4998C607 83.2998 605.5 84.6998 603.8 84.6998H453.5C451.7 84.6998 450.3 83.1998 450.3 81.4998C450.2 79.6998 451.7 78.2998 453.5 78.2998Z" fill="#4D61B4"/>
<path opacity="0.11" d="M521.4 163.5H613.1C614.5 163.5 615.7 164.6 615.7 166.1V167.5C615.7 168.9 614.6 170.1 613.1 170.1H521.4C520 170.1 518.8 169 518.8 167.5V166.1C518.9 164.7 520 163.5 521.4 163.5Z" fill="#4D61B4"/>
<path opacity="0.11" d="M521.4 185.9H613.1C614.5 185.9 615.7 187 615.7 188.5V189.9C615.7 191.3 614.6 192.5 613.1 192.5H521.4C520 192.5 518.8 191.4 518.8 189.9V188.5C518.9 187.1 520 185.9 521.4 185.9Z" fill="#4D61B4"/>
<path opacity="0.11" d="M521.4 292.2H613.1C614.5 292.2 615.7 293.3 615.7 294.8V296.2C615.7 297.6 614.6 298.8 613.1 298.8H521.4C520 298.8 518.8 297.7 518.8 296.2V294.8C518.9 293.3 520 292.2 521.4 292.2Z" fill="#4D61B4"/>
<path opacity="0.11" d="M521.4 314.6H613.1C614.5 314.6 615.7 315.7 615.7 317.2V318.6C615.7 320 614.6 321.2 613.1 321.2H521.4C520 321.2 518.8 320.1 518.8 318.6V317.2C518.9 315.7 520 314.6 521.4 314.6Z" fill="#4D61B4"/>
<path opacity="0.11" d="M100.9 290.7H192.6C194 290.7 195.2 291.8 195.2 293.3V294.7C195.2 296.1 194.1 297.3 192.6 297.3H100.9C99.5 297.3 98.3 296.2 98.3 294.7V293.3C98.3 291.9 99.5 290.7 100.9 290.7Z" fill="#4D61B4"/>
<path opacity="0.11" d="M100.9 313.1H192.6C194 313.1 195.2 314.2 195.2 315.7V317.1C195.2 318.5 194.1 319.7 192.6 319.7H100.9C99.5 319.7 98.3 318.6 98.3 317.1V315.7C98.3 314.3 99.5 313.1 100.9 313.1Z" fill="#4D61B4"/>
<path opacity="0.11" d="M288.8 28.6001H380.5C381.9 28.6001 383.1 29.7001 383.1 31.2001V32.6001C383.1 34.0001 382 35.2001 380.5 35.2001H288.8C287.4 35.2001 286.2 34.1001 286.2 32.6001V31.2001C286.2 29.8001 287.3 28.6001 288.8 28.6001Z" fill="#4D61B4"/>
<path opacity="0.11" d="M288.8 51H380.5C381.9 51 383.1 52.1 383.1 53.6V55C383.1 56.4 382 57.6 380.5 57.6H288.8C287.4 57.6 286.2 56.5 286.2 55V53.6C286.2 52.2 287.3 51 288.8 51Z" fill="#4D61B4"/>
<path opacity="0.11" d="M453.5 100.7H603.8C605.6 100.7 607 102.2 607 103.9C607 105.7 605.5 107.1 603.8 107.1H453.5C451.7 107.1 450.3 105.6 450.3 103.9C450.2 102.1 451.7 100.7 453.5 100.7Z" fill="#4D61B4"/>
<path d="M184.8 50.8002C186.2 53.7002 209.4 93.2002 209.4 93.2002L220.5 85.5002L208.4 40.7002L184.8 50.8002Z" fill="url(#paint11_linear)"/>
<path d="M138.1 99.5L175.2 127.4L167.4 139.4L122.6 125.5L138.1 99.5Z" fill="url(#paint12_linear)"/>
<path d="M112 203.5L160.2 195.8L160.7 209.8L113.5 225.7L112 203.5Z" fill="url(#paint13_linear)"/>
</g>
<defs>
<linearGradient id="paint0_linear" x1="356.108" y1="334.188" x2="359.518" y2="446.528" gradientUnits="userSpaceOnUse">
<stop stop-color="white" stop-opacity="0"/>
<stop offset="0.95" stop-color="white"/>
</linearGradient>
<linearGradient id="paint1_linear" x1="358.802" y1="425.668" x2="362.582" y2="507.368" gradientUnits="userSpaceOnUse">
<stop stop-color="#010101" stop-opacity="0"/>
<stop offset="0.95" stop-color="#010101"/>
</linearGradient>
<linearGradient id="paint2_linear" x1="509.639" y1="319.787" x2="351.061" y2="319.787" gradientUnits="userSpaceOnUse">
<stop stop-color="#E5C6D6"/>
<stop offset="0.42" stop-color="#EAD4D0"/>
<stop offset="1" stop-color="#F0E9CB"/>
</linearGradient>
<linearGradient id="paint3_linear" x1="419.745" y1="318.606" x2="283.205" y2="238.806" gradientUnits="userSpaceOnUse">
<stop stop-color="#010101" stop-opacity="0"/>
<stop offset="0.95" stop-color="#010101"/>
</linearGradient>
<linearGradient id="paint4_linear" x1="393.501" y1="304.707" x2="378.191" y2="203.737" gradientUnits="userSpaceOnUse">
<stop stop-color="#010101" stop-opacity="0"/>
<stop offset="0.95" stop-color="#010101"/>
</linearGradient>
<linearGradient id="paint5_linear" x1="397.894" y1="306.198" x2="383.554" y2="211.648" gradientUnits="userSpaceOnUse">
<stop stop-color="#010101" stop-opacity="0"/>
<stop offset="0.95" stop-color="#010101"/>
</linearGradient>
<linearGradient id="paint6_linear" x1="229.353" y1="167.861" x2="346.869" y2="203.292" gradientUnits="userSpaceOnUse">
<stop stop-color="#010101" stop-opacity="0"/>
<stop offset="0.95" stop-color="#010101"/>
</linearGradient>
<linearGradient id="paint7_linear" x1="254.858" y1="176.743" x2="305.558" y2="192.113" gradientUnits="userSpaceOnUse">
<stop stop-color="#010101" stop-opacity="0"/>
<stop offset="0.95" stop-color="#010101"/>
</linearGradient>
<linearGradient id="paint8_linear" x1="415.719" y1="298.896" x2="361.063" y2="298.896" gradientUnits="userSpaceOnUse">
<stop stop-color="#E5C6D6"/>
<stop offset="0.42" stop-color="#EAD4D0"/>
<stop offset="1" stop-color="#F0E9CB"/>
</linearGradient>
<linearGradient id="paint9_linear" x1="461.65" y1="211.372" x2="374.65" y2="329.002" gradientUnits="userSpaceOnUse">
<stop stop-color="#010101" stop-opacity="0"/>
<stop offset="0.95" stop-color="#010101"/>
</linearGradient>
<linearGradient id="paint10_linear" x1="304.319" y1="182.298" x2="135.249" y2="187.408" gradientUnits="userSpaceOnUse">
<stop stop-color="#010101" stop-opacity="0"/>
<stop offset="0.95" stop-color="#010101"/>
</linearGradient>
<linearGradient id="paint11_linear" x1="184.789" y1="66.9336" x2="220.429" y2="66.9336" gradientUnits="userSpaceOnUse">
<stop stop-color="white" stop-opacity="0"/>
<stop offset="0.95" stop-color="white"/>
</linearGradient>
<linearGradient id="paint12_linear" x1="122.649" y1="119.453" x2="175.159" y2="119.453" gradientUnits="userSpaceOnUse">
<stop stop-color="white" stop-opacity="0"/>
<stop offset="0.95" stop-color="white"/>
</linearGradient>
<linearGradient id="paint13_linear" x1="112.049" y1="210.743" x2="160.709" y2="210.743" gradientUnits="userSpaceOnUse">
<stop stop-color="white" stop-opacity="0"/>
<stop offset="0.95" stop-color="white"/>
</linearGradient>
<clipPath id="clip0">
<rect width="681.2" height="528" fill="white"/>
</clipPath>
</defs>
</svg>
