<svg width="364" height="333" viewBox="0 0 364 333" fill="none" xmlns="http://www.w3.org/2000/svg">
<path opacity="0.45" d="M181.914 333C282.367 333 363.8 322.805 363.8 310.23C363.8 297.654 282.367 287.46 181.914 287.46C81.4618 287.46 0.0288086 297.654 0.0288086 310.23C0.0288086 322.805 81.4618 333 181.914 333Z" fill="#E6E6E6"/>
<path d="M196.231 124.118C211.093 137.344 220.637 155.478 223.227 175.248C227.59 208.38 269.721 183.429 281.72 147.161L293.309 154.932C293.309 154.932 275.448 216.697 223.091 219.288C170.734 221.878 152.191 137.889 196.231 124.118Z" fill="#588A40"/>
<path opacity="0.46" d="M196.231 124.118C211.093 137.344 220.637 155.478 223.227 175.248C227.59 208.38 269.721 183.429 281.72 147.161L293.309 154.932C293.309 154.932 275.448 216.697 223.091 219.288C170.734 221.878 152.191 137.889 196.231 124.118Z" fill="white"/>
<path opacity="0.3" d="M91.6534 67.126C64.3842 80.2153 45.0231 111.575 42.2962 148.661C40.1146 180.021 51.295 225.151 99.6979 233.059C193.913 248.603 292.628 256.374 312.943 204.017C333.259 151.661 310.489 46.9468 262.768 42.9928C225 39.9932 144.828 41.493 91.6534 67.126Z" fill="#E6E6E6"/>
<path d="M178.506 78.0345C180.415 81.7158 181.915 85.5335 182.733 89.6239C183.005 91.6691 181.642 93.5779 179.597 93.8506C176.461 94.5324 173.188 93.3052 171.28 90.7147L166.644 85.6699C165.008 83.352 164.871 80.3524 166.508 77.8981C169.371 73.5351 176.597 73.9441 178.506 78.0345Z" fill="#F4A28C"/>
<path d="M170.189 86.4873L164.326 110.212L177.551 112.393L176.597 94.8044L170.189 86.4873Z" fill="#F4A28C"/>
<path d="M180.551 82.2598L183.55 84.0323C184.096 84.4413 184.232 85.123 183.959 85.6684C183.823 85.8048 183.687 85.9411 183.55 86.0775L181.233 87.7136L180.551 82.2598Z" fill="#F4A28C"/>
<path opacity="0.31" d="M176.597 93.8494C176.597 93.8494 171.688 92.7586 170.052 91.2588C170.052 91.2588 170.461 102.303 177.006 103.803L176.597 93.8494Z" fill="#CE8172"/>
<path d="M168.007 84.3051C168.007 84.3051 164.053 83.078 163.372 86.0776C162.69 89.0772 167.189 90.4407 169.371 88.1228C168.416 87.1684 168.007 85.8049 168.007 84.3051Z" fill="#F4A28C"/>
<path d="M199.776 242.876H113.741V304.368H199.776V242.876Z" fill="#E6E6E6"/>
<path opacity="0.08" d="M177.142 304.368L181.232 250.238L198.548 252.829L199.776 269.327V304.368H177.142Z" fill="black"/>
<path d="M179.188 297.277C179.188 297.277 181.096 302.458 185.732 302.868C190.368 303.277 191.595 307.776 187.368 309.003C183.142 310.23 172.507 304.776 172.507 304.776L172.779 298.095L179.188 297.277Z" fill="#588A40"/>
<path d="M237.816 297.824C237.816 297.824 242.861 299.732 246.27 296.46C249.679 293.188 253.769 295.233 251.996 299.187C250.224 303.141 239.18 307.777 239.18 307.777L233.181 302.187L237.816 297.824Z" fill="#588A40"/>
<path d="M178.778 112.256L165.553 109.938C165.553 109.938 121.513 109.938 113.741 125.073C105.969 140.207 107.606 196.382 133.102 242.467L185.323 243.967C185.323 243.967 182.46 210.153 192.14 191.61C201.821 173.067 232.09 134.072 178.778 112.256Z" fill="#588A40"/>
<path d="M133.103 242.467L158.6 238.649C171.961 236.604 184.369 245.875 186.414 259.101C186.687 261.146 186.823 263.191 186.55 265.237L183.278 297.687H170.734L171.825 267.282C172.098 260.874 167.053 255.556 160.781 255.42C159.963 255.42 159.281 255.42 158.463 255.556C147.555 257.329 134.194 256.51 133.103 242.467Z" fill="#24285B"/>
<path opacity="0.08" d="M137.602 130.526C137.602 130.526 152.055 143.207 149.191 157.25C148.646 159.568 148.237 162.295 147.692 165.295C143.874 188.882 150.828 212.879 166.507 230.741L175.643 241.103L133.239 242.603L129.558 235.513L109.787 202.517L137.602 130.526Z" fill="black"/>
<path d="M112.923 126.435C103.243 140.07 94.6531 170.066 102.152 212.47C104.47 225.286 115.241 234.967 128.331 235.785L168.28 238.375V225.286L138.011 220.923C131.603 219.969 127.24 214.106 128.194 207.834C128.331 207.289 128.467 206.607 128.603 206.061C133.921 188.473 142.238 156.568 140.056 133.934C138.693 120.163 120.968 115.119 112.923 126.435Z" fill="#588A40"/>
<path opacity="0.46" d="M112.923 126.435C103.243 140.07 94.6531 170.066 102.152 212.47C104.47 225.286 115.241 234.967 128.331 235.785L168.28 238.375V225.286L138.011 220.923C131.603 219.969 127.24 214.106 128.194 207.834C128.331 207.289 128.467 206.607 128.603 206.061C133.921 188.473 142.238 156.568 140.056 133.934C138.693 120.163 120.968 115.119 112.923 126.435Z" fill="white"/>
<path d="M168.28 228.423C168.28 228.423 184.505 228.014 182.187 236.468C179.869 244.921 168.28 238.24 168.28 238.24V228.423Z" fill="#F4A28C"/>
<path d="M222.137 241.377L228.681 204.427H182.324L178.233 235.923L156.963 236.195V241.377H222.137Z" fill="#FFD200"/>
<path d="M203.593 226.787C206.154 226.787 208.229 224.712 208.229 222.151C208.229 219.591 206.154 217.516 203.593 217.516C201.033 217.516 198.958 219.591 198.958 222.151C198.958 224.712 201.033 226.787 203.593 226.787Z" fill="white"/>
<path opacity="0.58" d="M72.974 289.915C72.974 289.915 60.2938 286.507 57.5669 274.644C57.5669 274.644 77.2007 270.69 77.7461 291.006L72.974 289.915Z" fill="#588A40"/>
<path opacity="0.73" d="M74.61 288.552C74.61 288.552 65.7475 274.508 73.5192 261.419C73.5192 261.419 88.5173 270.963 81.8364 288.552H74.61Z" fill="#588A40"/>
<path d="M76.9277 288.552C76.9277 288.552 81.5635 273.69 95.7435 270.963C95.7435 270.963 98.3341 280.643 86.6083 288.552H76.9277Z" fill="#588A40"/>
<path d="M67.6565 288.279L70.2471 305.868L86.4723 306.004L88.7901 288.416L67.6565 288.279Z" fill="#24285B"/>
<path d="M168.962 93.9854C168.962 93.9854 156.418 90.7131 160.372 82.2596C160.372 82.2596 155.872 75.1696 163.371 71.4883C167.735 69.3067 174.143 68.216 178.779 67.6706C180.551 67.3979 182.324 68.7613 182.46 70.5338C182.596 71.2156 182.324 72.0336 182.051 72.7154C179.46 76.9421 175.234 79.8054 170.325 80.6235C171.825 84.9865 171.416 89.895 168.962 93.9854Z" fill="#24285B"/>
<path d="M172.098 85.805C172.098 85.805 170.871 83.2144 169.098 84.3052C167.326 85.3959 168.962 89.0773 171.689 88.3955L172.098 85.805Z" fill="#F4A28C"/>
<path d="M283.765 148.388C283.765 148.388 288.674 131.481 292.355 131.209C296.036 130.936 292.355 140.889 292.355 140.889C292.355 140.889 305.717 144.298 293.582 154.933L283.765 148.388Z" fill="#F4A28C"/>
<path d="M299.172 78.3067C320.181 78.3067 337.213 61.2754 337.213 40.2661C337.213 19.2569 320.181 2.22559 299.172 2.22559C278.163 2.22559 261.132 19.2569 261.132 40.2661C261.132 61.2754 278.163 78.3067 299.172 78.3067Z" fill="#FFD200"/>
<path opacity="0.46" d="M307.762 53.901C318.455 53.901 327.123 45.2327 327.123 34.5399C327.123 23.847 318.455 15.1787 307.762 15.1787C297.069 15.1787 288.401 23.847 288.401 34.5399C288.401 45.2327 297.069 53.901 307.762 53.901Z" fill="white"/>
<path opacity="0.46" d="M314.306 42.311C320.18 42.311 324.941 37.5496 324.941 31.676C324.941 25.8025 320.18 21.041 314.306 21.041C308.433 21.041 303.671 25.8025 303.671 31.676C303.671 37.5496 308.433 42.311 314.306 42.311Z" fill="white"/>
<path d="M321.396 70.9434H277.084V105.575H321.396V70.9434Z" fill="#24285B"/>
<path d="M309.671 105.575H288.401V119.483H309.671V105.575Z" fill="#24285B"/>
<path opacity="0.75" d="M309.671 105.575H288.401V119.483H309.671V105.575Z" fill="white"/>
<path d="M245.043 15.1784C245.043 15.1784 120.695 -25.1801 88.9265 30.3128C67.5201 67.5353 110.605 88.3962 133.784 84.9876" stroke="#E6E6E6" stroke-width="2" stroke-linecap="round" stroke-linejoin="round" stroke-dasharray="2 2"/>
<path d="M199.231 240.831L239.862 295.915L231.954 303.278C231.954 303.278 196.64 261.965 177.552 250.375L170.871 241.513L199.231 240.831Z" fill="#24285B"/>
</svg>
