<svg width="637" height="486" viewBox="0 0 637 486" fill="none" xmlns="http://www.w3.org/2000/svg">
<path d="M629.219 229.723C619.05 263.867 600.299 294.746 582.201 325.438C573.898 339.525 565.408 354.172 563.636 370.404C562.33 382.439 564.755 394.66 563.822 406.694C561.397 441.211 531.917 469.292 498.892 479.647C465.868 490.002 430.138 485.804 396.273 478.714C362.409 471.624 328.918 461.549 294.401 460.429C269.492 459.59 244.77 463.321 220.235 467.146C190.475 471.81 159.97 476.475 130.303 471.251C100.637 466.027 71.3439 448.861 59.7759 420.967C45.4093 386.263 61.6417 345.962 52.7792 309.486C50.1671 298.664 45.5025 288.775 39.9984 279.073C35.8937 271.797 31.2292 264.706 26.6579 257.616C18.635 245.209 10.7986 232.615 5.94754 218.808C-6.73991 182.611 4.17503 139.231 32.4419 113.297C83.7515 66.0918 162.768 82.0444 221.821 51.2587C287.031 17.2078 341.232 -19.9217 418.476 12.45C439.84 21.4059 459.244 34.7463 480.608 43.6089C498.613 51.0721 517.83 55.1769 536.395 61.2407L538.074 61.8005C547.217 64.8791 556.079 68.5174 564.662 72.8087C588.917 84.9364 610.374 102.195 623.155 125.797C640.134 157.05 639.387 195.578 629.219 229.723Z" fill="#71A459"/>
<path d="M551.508 67.0247L550.482 143.709L531.731 153.971L526.973 96.8775L336.474 223.752L237.12 141.004L40.0917 279.073C35.9869 271.796 31.3224 264.706 26.7512 257.616L238.426 109.192L338.154 192.313L511.3 79.7122C511.487 79.8055 461.576 62.2669 461.576 62.2669C463.069 61.2407 472.118 51.0721 473.704 49.9526C473.704 49.9526 537.794 61.7072 538.074 61.8005C547.217 64.7858 542.925 62.7334 551.508 67.0247Z" fill="#FFD200"/>
<path opacity="0.24" d="M513.726 136.153H589.197C594.328 136.153 598.433 140.257 598.433 145.388V159.848C598.433 164.979 594.328 169.084 589.197 169.084H513.726C508.595 169.084 504.49 164.979 504.49 159.848V145.388C504.49 140.351 508.595 136.153 513.726 136.153Z" fill="#4D61B4"/>
<path opacity="0.24" d="M423.141 393.074H531.357C538.634 393.074 544.605 399.044 544.605 406.321V427.031C544.605 434.308 538.634 440.278 531.357 440.278H423.141C415.864 440.278 409.894 434.308 409.894 427.031V406.321C409.894 398.951 415.864 393.074 423.141 393.074Z" fill="#4D61B4"/>
<path opacity="0.24" d="M70.3177 283.551H168.645C175.362 283.551 180.773 288.962 180.773 295.679V314.897C180.773 321.613 175.362 327.024 168.645 327.024H70.3177C63.6008 327.024 58.1899 321.613 58.1899 314.897V295.679C58.1899 288.962 63.6008 283.551 70.3177 283.551Z" fill="#4D61B4"/>
<path opacity="0.24" d="M106.887 387.57H182.732C188.236 387.57 192.621 392.047 192.621 397.458V414.81C192.621 420.314 188.143 424.699 182.732 424.699H106.887C101.383 424.699 96.9985 420.221 96.9985 414.81V397.458C96.9985 391.954 101.476 387.57 106.887 387.57Z" fill="#4D61B4"/>
<path opacity="0.37" d="M381.813 226.458C381.813 203.601 387.691 185.783 399.445 173.096C411.2 160.408 427.526 153.971 448.422 153.971C469.879 153.971 486.392 160.222 498.053 172.722C509.621 185.223 515.498 202.762 515.498 225.245C515.498 241.571 512.979 255.004 507.848 265.453C503.09 275.621 495.441 284.111 485.832 289.895C476.223 295.679 464.282 298.571 450.008 298.571C435.455 298.571 423.421 296.052 413.905 291.014C404.39 285.977 396.646 278.047 390.769 267.132C384.705 256.404 381.813 242.783 381.813 226.458ZM421.648 226.644C421.648 240.824 424.074 250.9 428.925 257.057C433.776 263.214 440.306 266.292 448.702 266.292C457.285 266.292 463.909 263.307 468.573 257.243C473.238 251.179 475.57 240.358 475.57 224.685C475.57 211.531 473.144 201.829 468.2 195.765C463.349 189.701 456.632 186.623 448.236 186.716C440.679 186.529 433.496 189.981 428.925 195.952C424.074 202.202 421.648 212.371 421.648 226.644Z" fill="#6EAD68"/>
<path opacity="0.37" d="M122.84 251.273L160.996 248.847C161.835 255.098 163.515 259.762 166.033 263.027C170.138 268.251 176.109 270.864 183.759 270.864C189.449 270.864 193.927 269.558 197.006 266.852C200.084 264.147 201.67 261.068 201.67 257.523C201.67 254.165 200.178 251.179 197.286 248.474C194.394 245.769 187.49 243.343 176.762 240.917C159.223 236.999 146.629 231.682 139.166 225.151C131.796 218.994 127.598 209.759 127.878 200.15C127.878 193.433 129.93 186.809 133.662 181.305C137.487 175.335 143.364 170.67 151.107 167.312C158.85 163.953 169.485 162.181 183.012 162.274C199.618 162.274 212.212 165.352 220.888 171.51C229.564 177.667 234.788 187.462 236.374 200.896L198.592 203.135C197.565 197.258 195.513 193.06 192.248 190.448C189.076 187.835 184.598 186.436 178.907 186.436C174.243 186.436 170.791 187.462 168.366 189.421C166.127 191.101 164.821 193.806 164.821 196.605C164.914 198.844 165.94 200.896 167.713 202.202C169.578 203.881 174.056 205.467 181.146 206.96C198.685 210.691 211.186 214.516 218.742 218.435C226.299 222.353 231.803 227.111 235.255 232.801C238.706 238.585 240.479 245.209 240.386 251.926C240.386 260.135 238.053 268.158 233.482 274.875C228.818 281.965 222.101 287.562 214.171 290.828C205.962 294.466 195.513 296.238 182.919 296.238C160.902 296.238 145.603 291.947 137.113 283.551C128.624 275.155 123.96 264.427 122.84 251.273Z" fill="#6EAD68"/>
<path opacity="0.37" d="M260.536 164.513H367.913V192.22H300.744V212.837H363.062V239.238H300.744V264.8H369.872V294.186H260.536V164.513Z" fill="#6EAD68"/>
<path d="M123.959 230.656L162.115 228.23C162.955 234.48 164.634 239.145 167.153 242.41C171.258 247.634 177.228 250.246 184.878 250.246C190.569 250.246 194.953 248.94 198.125 246.235C201.204 243.53 202.79 240.451 202.79 236.906C202.79 233.548 201.297 230.562 198.405 227.857C195.513 225.151 188.61 222.726 177.881 220.3C160.343 216.382 147.748 211.065 140.285 204.534C132.915 198.377 128.717 189.141 128.997 179.533C128.997 172.816 131.05 166.192 134.781 160.688C138.606 154.811 144.483 150.146 152.226 146.694C159.969 143.243 170.605 141.563 184.132 141.657C200.737 141.657 213.331 144.735 222.007 150.893C230.683 157.05 235.908 166.845 237.494 180.279L199.711 182.518C198.685 176.641 196.632 172.443 193.367 169.83C190.102 167.218 185.718 165.819 180.027 165.819C175.362 165.819 171.817 166.845 169.485 168.804C167.246 170.483 165.94 173.189 165.94 175.988C166.033 178.227 167.059 180.279 168.832 181.585C170.698 183.264 175.176 184.943 182.266 186.343C199.804 190.074 212.305 193.899 219.862 197.817C227.418 201.642 232.922 206.493 236.374 212.184C239.826 217.968 241.598 224.592 241.505 231.402C241.505 239.611 239.173 247.541 234.602 254.351C229.937 261.441 223.22 267.039 215.29 270.304C207.081 273.942 196.632 275.715 184.038 275.715C162.022 275.715 146.722 271.517 138.233 263.027C129.743 254.538 125.079 243.809 123.959 230.656Z" fill="white"/>
<path d="M261.656 143.896H369.033V171.603H301.864V192.22H364.181V218.621H301.864V244.183H370.992V273.476H261.656V143.896Z" fill="white"/>
<path d="M143.084 334.487H487.138C494.601 334.487 500.572 340.551 500.572 347.921V364.713C500.572 372.177 494.508 378.147 487.138 378.147H143.084C135.621 378.147 129.65 372.083 129.65 364.713V347.921C129.557 340.458 135.621 334.487 143.084 334.487Z" fill="white"/>
<path opacity="0.24" d="M492.642 333.648C490.869 332.902 489.004 332.622 487.045 332.622H143.084C134.595 332.622 127.784 339.525 127.691 347.921V364.713C127.691 373.203 134.595 380.013 143.084 380.013H487.138C495.627 379.92 502.437 373.11 502.437 364.713V347.921C502.437 341.577 498.519 335.887 492.642 333.648ZM498.706 364.713C498.706 371.057 493.482 376.281 487.138 376.281H143.084C136.647 376.281 131.516 371.15 131.516 364.713V347.921C131.516 341.484 136.74 336.353 143.084 336.353H487.138C493.482 336.353 498.706 341.577 498.706 347.921V364.713Z" fill="#4D61B4"/>
<path opacity="0.56" d="M142.897 360.515C143.644 360.982 144.483 361.262 145.416 361.262C146.816 361.262 147.469 360.609 147.469 359.676C147.469 358.743 146.909 358.276 145.509 357.717C143.644 357.064 142.711 356.037 142.711 354.731C142.711 353.052 144.11 351.653 146.349 351.653C147.282 351.653 148.122 351.839 148.961 352.306L148.495 353.705C147.842 353.332 147.095 353.052 146.349 353.145C145.23 353.145 144.577 353.798 144.577 354.545C144.577 355.291 145.23 355.758 146.536 356.317C148.308 356.97 149.241 357.903 149.241 359.489C149.241 361.355 147.842 362.661 145.323 362.661C144.297 362.661 143.271 362.474 142.431 361.915L142.897 360.515Z" fill="#4D61B4"/>
<path opacity="0.56" d="M152.786 357.623C152.6 359.489 153.999 361.075 155.865 361.262C156.051 361.262 156.145 361.262 156.331 361.262C157.357 361.262 158.29 361.075 159.223 360.702L159.596 362.101C158.477 362.568 157.264 362.754 156.145 362.754C152.879 362.754 151.014 360.609 151.014 357.437C151.014 354.265 152.879 351.839 155.958 351.839C159.41 351.839 160.249 354.825 160.249 356.784C160.249 357.064 160.249 357.344 160.156 357.717L152.786 357.623ZM158.384 356.224C158.384 355.011 157.917 353.145 155.771 353.145C153.812 353.145 152.973 354.918 152.879 356.224H158.384Z" fill="#4D61B4"/>
<path opacity="0.56" d="M168.366 362.474L168.179 361.168H168.086C167.339 362.195 166.127 362.754 164.914 362.754C163.235 362.848 161.835 361.635 161.742 359.956C161.742 359.862 161.742 359.769 161.742 359.676C161.742 357.157 163.981 355.758 167.992 355.758V355.571C168.179 354.358 167.339 353.332 166.127 353.145C165.94 353.145 165.754 353.145 165.567 353.145C164.634 353.145 163.701 353.425 162.862 353.892L162.395 352.586C163.421 351.933 164.634 351.653 165.847 351.653C169.019 351.653 169.858 353.798 169.858 355.944V359.862C169.858 360.702 169.858 361.542 170.045 362.381L168.366 362.474ZM168.086 357.157C166.033 357.157 163.608 357.53 163.608 359.489C163.515 360.422 164.261 361.262 165.101 361.262C165.194 361.262 165.287 361.262 165.38 361.262C166.5 361.262 167.526 360.609 167.899 359.489C167.992 359.303 167.992 359.116 167.992 358.929V357.157H168.086Z" fill="#4D61B4"/>
<path opacity="0.56" d="M172.937 355.291C172.937 354.078 172.937 352.959 172.844 352.026H174.523L174.616 354.078H174.709C175.082 352.772 176.295 351.839 177.601 351.746C177.788 351.746 177.974 351.746 178.161 351.839V353.612C177.974 353.519 177.695 353.519 177.508 353.519C176.202 353.612 175.082 354.638 174.989 355.944C174.896 356.224 174.896 356.504 174.896 356.877V362.474H173.03L172.937 355.291Z" fill="#4D61B4"/>
<path opacity="0.56" d="M187.21 362.101C186.277 362.568 185.251 362.754 184.225 362.661C181.053 362.661 179.001 360.515 179.001 357.344C178.907 354.452 181.146 351.933 184.038 351.746C184.225 351.746 184.412 351.746 184.598 351.746C185.531 351.746 186.371 351.933 187.21 352.306L186.744 353.798C186.091 353.425 185.344 353.239 184.505 353.332C182.079 353.332 180.773 355.105 180.773 357.25C180.587 359.209 182.079 360.982 184.038 361.168C184.132 361.168 184.318 361.168 184.412 361.168C185.251 361.168 185.997 360.982 186.744 360.609L187.21 362.101Z" fill="#4D61B4"/>
<path opacity="0.56" d="M189.449 347.175H191.315V353.705C191.595 353.145 192.155 352.679 192.714 352.399C193.274 352.026 194.02 351.839 194.673 351.839C196.073 351.839 198.312 352.679 198.312 356.317V362.568H196.446V356.597C196.446 354.918 195.793 353.519 194.02 353.519C192.901 353.519 191.875 354.265 191.502 355.384C191.408 355.664 191.315 356.037 191.408 356.317V362.661H189.543L189.449 347.175Z" fill="#4D61B4"/>
<path d="M502.437 347.921V364.713C502.437 369.565 500.198 374.042 496.28 376.934H451.501V333.648H492.642C498.519 335.98 502.437 341.577 502.437 347.921Z" fill="#4D61B4"/>
<path d="M471.279 363.874C464.002 363.874 458.125 357.997 458.125 350.72C458.125 343.443 464.002 337.566 471.279 337.566C478.555 337.566 484.433 343.443 484.433 350.72C484.433 357.997 478.555 363.874 471.279 363.874ZM471.279 341.204C466.054 341.204 461.763 345.496 461.763 350.72C461.763 355.944 466.054 360.236 471.279 360.236C476.503 360.236 480.794 355.944 480.794 350.72C480.794 345.402 476.503 341.204 471.279 341.204Z" fill="white"/>
<path d="M478.947 357.49L475.874 359.921L484.612 370.969L487.685 368.539L478.947 357.49Z" fill="white"/>
<path d="M498.706 158.915C487.324 147.161 471.185 141.284 450.288 141.284C429.858 141.284 413.905 147.254 402.43 159.195C391.049 171.23 385.265 187.929 385.265 209.479C385.265 224.872 388.157 237.746 393.941 247.914C399.725 258.176 407.281 265.639 416.61 270.397C425.939 275.155 437.601 277.487 451.874 277.487C465.868 277.487 477.529 274.782 486.858 269.278C496.094 263.867 503.557 255.937 508.315 246.328C513.259 236.44 515.685 223.845 515.685 208.453C515.685 187.182 510.087 170.67 498.706 158.915ZM424.167 209.665C424.167 196.232 426.499 186.623 431.257 180.839C435.548 175.428 442.079 172.256 448.982 172.163C449.355 172.069 449.728 172.069 450.102 172.069C458.311 172.069 464.748 174.961 469.599 180.652C472.491 184.29 474.45 188.582 475.29 193.153C476.316 198.004 476.783 202.855 476.783 207.799C476.783 211.065 476.689 214.143 476.409 217.035C475.57 226.924 473.424 234.107 469.879 238.492C465.308 244.183 458.778 246.981 450.475 246.981C442.359 246.981 435.922 244.089 431.164 238.305C426.499 232.521 424.167 223.099 424.074 210.038V209.665H424.167Z" fill="white"/>
<path d="M427.712 400.07H531.637C538.634 400.07 544.325 405.761 544.325 412.758V432.629C544.325 439.625 538.634 445.316 531.637 445.316H427.712C420.715 445.316 415.025 439.625 415.025 432.629V412.758C414.931 405.854 420.715 400.07 427.712 400.07Z" fill="white"/>
<path opacity="0.24" d="M430.324 412.571H531.171C532.29 412.571 533.13 413.411 533.13 414.53C533.13 415.65 532.29 416.489 531.171 416.489H430.324C429.205 416.489 428.365 415.65 428.365 414.53C428.365 413.411 429.205 412.571 430.324 412.571Z" fill="#4D61B4"/>
<path opacity="0.24" d="M429.951 423.3H500.572C501.411 423.3 502.158 424.046 502.158 424.886V425.352C502.158 426.192 501.411 426.938 500.572 426.938H429.951C429.111 426.938 428.365 426.192 428.365 425.352V424.886C428.365 424.046 429.111 423.3 429.951 423.3Z" fill="#4D61B4"/>
<path d="M59.3094 273.756H163.235C170.231 273.756 175.922 279.446 175.922 286.443V306.314C175.922 313.311 170.231 319.001 163.235 319.001H59.3094C52.3127 319.001 46.622 313.311 46.622 306.314V286.443C46.5287 279.446 52.2194 273.756 59.3094 273.756Z" fill="white"/>
<path opacity="0.24" d="M61.9216 286.163H162.768C163.888 286.163 164.727 287.003 164.727 288.122C164.727 289.242 163.888 290.081 162.768 290.081H61.9216C60.8021 290.081 59.9625 289.242 59.9625 288.122C59.9625 287.003 60.8021 286.163 61.9216 286.163Z" fill="#4D61B4"/>
<path opacity="0.24" d="M61.5485 296.892H132.169C133.009 296.892 133.755 297.638 133.755 298.477V298.944C133.755 299.784 133.009 300.53 132.169 300.53H61.5485C60.7088 300.53 59.9625 299.784 59.9625 298.944V298.477C59.9625 297.638 60.7088 296.892 61.5485 296.892Z" fill="#4D61B4"/>
<path d="M103.995 392.234H179.467C184.598 392.234 188.703 396.339 188.703 401.47V415.93C188.703 421.061 184.598 425.165 179.467 425.165H103.995C98.8645 425.165 94.7598 421.061 94.7598 415.93V401.47C94.7598 396.432 98.9578 392.234 103.995 392.234Z" fill="white"/>
<path opacity="0.24" d="M105.955 401.283H179.187C179.934 401.283 180.587 401.936 180.587 402.683C180.587 403.429 179.934 404.082 179.187 404.082H105.955C105.208 404.082 104.555 403.429 104.555 402.683C104.555 401.936 105.115 401.283 105.955 401.283Z" fill="#4D61B4"/>
<path opacity="0.24" d="M105.675 409.12H156.891C157.544 409.12 158.01 409.679 158.01 410.239V410.612C158.01 411.265 157.451 411.732 156.891 411.732H105.675C105.022 411.732 104.555 411.172 104.555 410.612V410.239C104.555 409.586 105.022 409.12 105.675 409.12Z" fill="#4D61B4"/>
<path d="M516.804 125.984H592.276C597.407 125.984 601.512 130.089 601.512 135.22V149.68C601.512 154.811 597.407 158.915 592.276 158.915H516.804C511.673 158.915 507.568 154.811 507.568 149.68V135.22C507.568 130.089 511.673 125.984 516.804 125.984Z" fill="white"/>
<path opacity="0.24" d="M518.67 134.94H591.903C592.649 134.94 593.302 135.593 593.302 136.339C593.302 137.086 592.649 137.739 591.903 137.739H518.67C517.924 137.739 517.271 137.086 517.271 136.339C517.271 135.593 517.924 134.94 518.67 134.94Z" fill="#4D61B4"/>
<path opacity="0.24" d="M518.39 142.776H569.606C570.259 142.776 570.726 143.336 570.726 143.896V144.269C570.726 144.922 570.166 145.388 569.606 145.388H518.39C517.737 145.388 517.271 144.829 517.271 144.269V143.896C517.271 143.336 517.83 142.776 518.39 142.776Z" fill="#4D61B4"/>
<path opacity="0.24" d="M203.629 340.831H202.23V368.352H203.629V340.831Z" fill="#4D61B4"/>
</svg>
