<svg width="649" height="568" viewBox="0 0 649 568" fill="none" xmlns="http://www.w3.org/2000/svg">
<path fill-rule="evenodd" clip-rule="evenodd" d="M327.21 20.1683C386.653 29.1195 442.352 44.1582 492.733 71.9829C545.283 101.005 598.953 133.245 621.128 182.494C643.814 232.881 636.019 289.506 613.365 339.903C591.418 388.728 542.619 421.906 497.359 457.838C444.208 500.033 400.413 563.43 327.21 567.076C253.704 570.738 193.296 519.392 141.645 475.559C96.5637 437.3 78.1832 386.185 55.0484 336.105C30.3273 282.592 -7.62821 230.852 2.38575 174.107C13.3508 111.973 46.3776 45.6135 111.783 14.6172C175.834 -15.7378 254.733 9.25429 327.21 20.1683Z" fill="#3A8F97"/>
<path d="M201.56 453.62C201.56 453.62 199.655 459.907 194.32 460.669C188.985 461.431 187.652 466.957 192.796 467.909C197.94 468.862 210.134 462.003 210.134 462.003L209.372 454.192L201.56 453.62Z" fill="#4561B5"/>
<path opacity="0.58" d="M521.45 421.803C521.45 421.803 503.921 417.04 500.111 400.845C500.111 400.845 527.165 395.32 528.118 423.327L521.45 421.803Z" fill="#CDD8FB"/>
<path opacity="0.73" d="M523.736 420.088C523.736 420.088 511.352 400.845 522.021 382.745C522.021 382.745 542.788 395.701 533.643 420.088H523.736Z" fill="#CDD8FB"/>
<path d="M526.784 420.088C526.784 420.088 533.071 399.702 552.695 395.701C552.695 395.701 556.506 408.847 540.121 420.088H526.784Z" fill="#CDD8FB"/>
<path d="M514.21 419.707L517.83 443.904H540.121L543.36 419.707H514.21Z" fill="#24285B"/>
<path d="M480.296 68H262.908V451.715H480.296V68Z" fill="#C9C9C9"/>
<path d="M460.863 112.392H280.818V386.937H460.863V112.392Z" fill="white"/>
<path d="M423.901 204.415H319.875V349.594H423.901V204.415Z" fill="#E6E6E6"/>
<path opacity="0.08" d="M379.318 231.66L383.51 210.893L402.562 227.659L421.234 290.722L426.949 287.865L432.094 300.249L423.71 304.631L439.143 336.258C439.143 336.258 395.322 401.988 310.539 373.41L298.155 388.842L346.739 451.715H262.718L264.051 361.026L262.718 263.096V210.702C262.718 210.702 279.484 206.892 286.533 217.561C290.725 223.849 292.249 231.66 290.725 238.9L283.485 239.853L286.533 275.671L315.493 315.491L337.403 352.833L371.507 352.452L404.087 340.64L415.708 322.921L401.229 292.437L379.318 231.66Z" fill="black"/>
<path opacity="0.56" d="M371.697 439.522C383.482 439.522 393.036 429.968 393.036 418.183C393.036 406.398 383.482 396.845 371.697 396.845C359.912 396.845 350.358 406.398 350.358 418.183C350.358 429.968 359.912 439.522 371.697 439.522Z" fill="white"/>
<path opacity="0.12" d="M414.184 83.2418H353.217V92.1964H414.184V83.2418Z" fill="black"/>
<path d="M331.116 98.4841C336.587 98.4841 341.023 94.0485 341.023 88.5768C341.023 83.1052 336.587 78.6696 331.116 78.6696C325.644 78.6696 321.208 83.1052 321.208 88.5768C321.208 94.0485 325.644 98.4841 331.116 98.4841Z" fill="white"/>
<path d="M232.997 224.801C232.997 224.801 230.52 235.471 231.282 242.71C231.663 245.759 234.33 247.855 237.188 247.664C241.951 247.474 246.143 244.425 247.857 240.043L252.43 231.089C253.954 227.278 252.811 222.896 249.763 220.229C244.237 214.894 234.14 218.323 232.997 224.801Z" fill="#F4A28C"/>
<path d="M252.239 235.47L258.146 264.811L240.046 269.383L243.094 240.805L252.239 235.47Z" fill="#F4A28C"/>
<path d="M242.903 235.661C242.903 235.661 243.665 231.469 246.714 232.231C249.762 232.994 248.81 238.9 244.428 238.9L242.903 235.661Z" fill="#F4A28C"/>
<path d="M231.662 231.66L228.042 235.28C227.28 236.042 227.28 236.995 228.042 237.757C228.233 237.947 228.423 238.138 228.614 238.138L232.615 239.471L231.662 231.66Z" fill="#F4A28C"/>
<path opacity="0.31" d="M242.522 245.378C244.618 244.044 246.332 242.52 247.857 240.615C247.857 240.615 250.524 251.284 241.569 255.095L242.522 245.378Z" fill="#CE8172"/>
<path d="M232.424 210.702C232.424 210.702 224.422 218.133 233.758 222.705C243.094 227.278 243.856 225.373 243.856 225.373C243.856 225.373 239.093 237.947 248.047 240.043L253.001 238.138C253.001 238.138 263.861 224.039 258.526 217.752C258.336 217.752 250.905 198.128 232.424 210.702Z" fill="#24285B"/>
<path d="M242.523 266.335C242.523 266.335 301.204 253.761 311.492 279.291C321.781 305.012 281.58 385.984 281.58 385.984L225.757 382.936C225.566 383.126 157.359 299.867 242.523 266.335Z" fill="#CDD8FB"/>
<path opacity="0.08" d="M252.239 301.964L271.863 312.252C271.863 312.252 271.482 354.929 241.57 383.889L225.566 383.127C224.042 381.412 222.708 379.507 221.565 377.602C220.231 375.315 252.239 301.964 252.239 301.964Z" fill="black"/>
<path d="M242.142 237.185C242.142 237.185 246.143 229.374 249.763 233.375C253.383 237.376 246.714 244.806 242.142 237.185Z" fill="#F4A28C"/>
<path d="M142.687 278.338L204.608 252.427L253.191 295.104C253.191 295.104 249 353.214 215.848 383.508C200.607 397.797 176.791 396.844 162.502 381.602C161.549 380.65 160.787 379.697 160.025 378.554C146.307 360.645 134.114 329.589 142.687 278.338Z" fill="#FFD200"/>
<path opacity="0.57" d="M159.454 293.199L200.417 276.052L232.615 304.44C232.615 304.44 229.757 343.117 207.847 363.122C197.749 372.457 181.936 371.886 172.41 361.788C171.838 361.216 171.267 360.454 170.695 359.692C161.931 347.88 153.738 327.113 159.454 293.199Z" fill="white"/>
<path d="M279.484 270.336C287.295 264.811 297.965 265.192 305.395 271.098C313.588 277.386 325.21 289.77 332.831 312.251C345.786 350.356 373.222 352.833 405.611 324.254L413.994 335.114C413.994 335.114 342.928 405.227 288.439 325.398C265.385 291.675 270.529 276.814 279.484 270.336Z" fill="#CDD8FB"/>
<path opacity="0.2" d="M279.484 270.336C287.295 264.811 297.965 265.192 305.395 271.098C313.588 277.386 325.21 289.77 332.831 312.251C345.786 350.356 373.222 352.833 405.611 324.254L413.994 335.114C413.994 335.114 342.928 405.227 288.439 325.398C265.385 291.675 270.529 276.814 279.484 270.336Z" fill="white"/>
<path d="M225.566 383.126L201.369 402.179C189.747 411.324 185.746 427.137 191.462 440.855L197.94 455.907H209.371L205.942 436.092C204.418 427.518 208.609 418.945 216.04 414.753C232.044 405.799 248.619 397.987 265.766 391.7L281.389 385.984L225.566 383.126Z" fill="#24285B"/>
<path d="M400.658 304.44L361.6 239.662L363.315 215.847L384.272 229.184L412.279 300.058L400.658 304.44Z" fill="#FFD200"/>
<path d="M395.895 305.393L399.705 312.633L405.611 309.584L419.329 336.258L427.14 332.066L413.232 305.583L419.138 302.535L415.328 295.295L395.895 305.393Z" fill="#FFD200"/>
<path opacity="0.57" d="M395.895 305.393L399.705 312.633L405.611 309.584L419.329 336.258L427.14 332.066L413.232 305.583L419.138 302.535L415.328 295.295L395.895 305.393Z" fill="white"/>
<path opacity="0.08" d="M363.314 215.847L406.182 300.249L411.135 297.582L384.272 229.184L363.314 215.847Z" fill="black"/>
<path d="M281.39 385.984L331.307 452.477L318.732 458.955C318.732 458.955 278.341 405.989 241.951 394.939L281.39 385.984Z" fill="#24285B"/>
<path d="M407.707 326.922C407.707 326.922 413.042 316.062 417.424 314.919C421.996 313.776 431.713 328.065 412.47 333.209L407.707 326.922Z" fill="#F4A28C"/>
<path d="M327.877 454.954C327.877 454.954 331.878 460.098 337.213 458.765C342.548 457.431 345.596 462.194 341.405 465.052C337.213 467.91 323.114 465.814 323.114 465.814L321.019 458.193L327.877 454.954Z" fill="#4561B5"/>
<path d="M118.491 244.806C150.795 244.806 176.982 218.619 176.982 186.315C176.982 154.012 150.795 127.824 118.491 127.824C86.1877 127.824 60.0005 154.012 60.0005 186.315C60.0005 218.619 86.1877 244.806 118.491 244.806Z" fill="#24285B"/>
<path d="M145.546 174.884C142.688 159.832 128.208 150.116 113.157 152.973C98.1052 155.831 88.3885 170.311 91.2464 185.362C92.9611 194.127 98.6768 201.557 106.679 205.177L109.918 222.134L117.92 220.609L115.443 207.654C116.777 207.844 118.11 207.844 119.444 207.844L121.73 219.847L129.732 218.323L127.446 206.32C128.78 205.749 130.304 205.177 131.637 204.415L134.114 217.561L142.116 216.037L138.877 198.699C144.784 192.221 147.26 183.457 145.546 174.884ZM108.965 192.793C104.393 193.746 99.8199 190.126 98.6768 184.791C97.7242 179.456 100.582 174.503 105.155 173.55C109.727 172.597 114.3 176.217 115.443 181.552C116.586 186.887 113.728 191.84 108.965 192.793ZM131.256 188.411C126.684 189.363 122.111 185.743 120.968 180.409C119.825 175.074 122.873 170.121 127.446 169.168C132.018 168.215 136.591 171.835 137.734 177.17C138.877 182.505 136.019 187.649 131.256 188.411Z" fill="#F8F8F8"/>
<path d="M590.42 262.906C622.723 262.906 648.91 236.719 648.91 204.415C648.91 172.111 622.723 145.924 590.42 145.924C558.116 145.924 531.929 172.111 531.929 204.415C531.929 236.719 558.116 262.906 590.42 262.906Z" fill="#24285B"/>
<path d="M619.759 206.701C624.141 192.031 615.758 176.599 601.088 172.407C586.418 168.025 570.985 176.408 566.794 191.078C564.317 199.652 566.032 208.797 571.557 215.846L566.794 232.422L574.605 234.708L578.416 222.134C579.559 222.896 580.702 223.467 581.845 224.039L578.225 235.852L586.037 238.138L589.466 226.325C590.99 226.516 592.514 226.706 594.039 226.516L590.228 239.281L598.04 241.567L602.993 224.611C611.186 221.753 617.283 215.084 619.759 206.701ZM579.178 205.939C574.605 204.606 572.319 199.271 573.653 194.127C575.177 188.983 580.13 185.744 584.512 187.077C588.894 188.411 591.371 193.746 590.038 198.89C588.513 204.034 583.56 207.273 579.178 205.939ZM600.898 212.227C596.325 210.893 594.039 205.558 595.372 200.414C596.897 195.27 601.85 192.222 606.232 193.555C610.614 194.889 613.091 200.033 611.757 205.368C610.424 210.702 605.47 213.56 600.898 212.227Z" fill="#F8F8F8"/>
<path opacity="0.45" d="M425.806 141.161H319.875V177.36H425.806V141.161Z" fill="#E6E6E6"/>
<path d="M336.26 164.024C338.996 164.024 341.214 161.806 341.214 159.07C341.214 156.335 338.996 154.117 336.26 154.117C333.524 154.117 331.307 156.335 331.307 159.07C331.307 161.806 333.524 164.024 336.26 164.024Z" fill="#C9C9C9"/>
<path d="M353.216 164.024C355.952 164.024 358.17 161.806 358.17 159.07C358.17 156.335 355.952 154.117 353.216 154.117C350.48 154.117 348.263 156.335 348.263 159.07C348.263 161.806 350.48 164.024 353.216 164.024Z" fill="#C9C9C9"/>
<path d="M370.936 164.024C373.671 164.024 375.889 161.806 375.889 159.07C375.889 156.335 373.671 154.117 370.936 154.117C368.2 154.117 365.982 156.335 365.982 159.07C365.982 161.806 368.2 164.024 370.936 164.024Z" fill="#C9C9C9"/>
<path d="M388.083 164.024C390.819 164.024 393.037 161.806 393.037 159.07C393.037 156.335 390.819 154.117 388.083 154.117C385.347 154.117 383.129 156.335 383.129 159.07C383.129 161.806 385.347 164.024 388.083 164.024Z" fill="#C9C9C9"/>
<path d="M406.373 164.024C409.109 164.024 411.327 161.806 411.327 159.07C411.327 156.335 409.109 154.117 406.373 154.117C403.637 154.117 401.419 156.335 401.419 159.07C401.419 161.806 403.637 164.024 406.373 164.024Z" fill="#C9C9C9"/>
</svg>
