<svg width="637" height="563" viewBox="0 0 637 563" fill="none" xmlns="http://www.w3.org/2000/svg">
<path fill-rule="evenodd" clip-rule="evenodd" d="M0.607654 298.967C6.05056 225.482 66.3244 167.421 128.38 114.571C191.785 60.5716 260.567 -1.16664 351.629 0.0167693C441.981 1.19096 513.17 60.9335 567.962 120.284C615.114 171.358 622.349 234.886 627.622 298.967C633.484 370.205 656.011 449.667 599.511 503.709C541.068 559.609 441.046 562.294 351.629 562.953C261.136 563.62 166.199 557.719 99.284 507.396C29.8594 455.185 -5.12566 376.373 0.607654 298.967Z" fill="#57A3C2"/>
<path d="M344.985 87H120.575V350.465H344.985V87Z" fill="#E6E6E6"/>
<path d="M523.616 103.327H372.676V243.863H523.616V103.327Z" fill="#E6E6E6"/>
<path d="M550.347 267.392H442.784V321.334H550.347V267.392Z" fill="#E6E6E6"/>
<path opacity="0.08" d="M309.291 228.976C309.291 228.976 297.767 225.935 294.886 234.098C292.004 242.262 265.274 231.698 262.072 255.867C260.312 269.313 234.701 293.642 201.248 301.165C167.795 308.688 165.714 350.465 165.714 350.465H256.47L316.654 262.11L309.291 228.976Z" fill="black"/>
<path opacity="0.45" d="M327.538 487C426.724 487 507.13 468.941 507.13 446.664C507.13 424.387 426.724 406.328 327.538 406.328C228.352 406.328 147.946 424.387 147.946 446.664C147.946 468.941 228.352 487 327.538 487Z" fill="#E6E6E6"/>
<path d="M300.168 265.311C300.168 265.311 221.576 256.988 224.617 298.605C227.659 340.221 271.676 428.577 271.676 428.577H368.195C368.195 428.577 441.344 316.372 405.81 280.197C370.276 244.023 361.952 275.075 300.168 265.311Z" fill="#4561B5"/>
<path d="M271.515 442.182L330.099 458.028L382.28 431.457L390.123 417.372H337.622H254.068L271.515 442.182Z" fill="#24285B"/>
<path d="M262.232 310.289C269.595 285.64 255.67 258.749 229.419 278.437C211.332 291.882 190.043 334.939 188.923 374.795C186.362 466.352 298.727 367.912 312.652 315.411L298.887 307.248C298.887 307.248 275.518 351.106 250.228 360.71C231.82 367.592 251.508 346.624 262.232 310.289Z" fill="#4561B5"/>
<path opacity="0.46" d="M262.232 310.289C269.595 285.64 255.67 258.749 229.419 278.437C211.332 291.882 190.043 334.939 188.923 374.795C186.362 466.352 298.727 367.912 312.652 315.411L298.887 307.248C298.887 307.248 275.518 351.106 250.228 360.71C231.82 367.592 251.508 346.624 262.232 310.289Z" fill="white"/>
<path d="M300.167 265.311C300.167 265.311 288.002 284.359 300.007 291.082C312.012 297.804 315.693 290.121 315.693 290.121C315.693 290.121 324.497 300.525 332.34 292.522C340.183 284.519 339.063 268.353 331.06 260.99C323.056 253.627 300.167 265.311 300.167 265.311Z" fill="white"/>
<path d="M302.888 265.952C303.528 269.473 303.848 272.994 304.008 276.516C304.169 281.318 305.769 288.681 313.452 289.961C325.297 292.202 328.498 273.475 328.498 273.475C328.498 273.475 335.861 255.868 323.056 253.627C311.531 251.386 300.647 249.785 302.888 265.952Z" fill="#F4A28C"/>
<path opacity="0.08" d="M348.506 292.362C348.506 292.362 341.144 307.728 359.711 339.421C370.275 357.508 337.622 387.6 337.622 387.6L256.31 395.764L271.676 428.737H368.194C368.194 428.737 410.611 359.749 413.813 324.375C417.014 289.001 348.506 292.362 348.506 292.362Z" fill="black"/>
<path d="M327.538 274.275C327.538 274.275 328.178 268.513 333.14 268.833C338.102 269.153 336.182 279.557 327.538 274.275Z" fill="#F4A28C"/>
<path d="M305.769 271.074C305.769 271.074 307.53 265.631 302.888 263.711C298.246 261.79 295.685 272.354 305.769 271.074Z" fill="#F4A28C"/>
<path d="M469.195 309.169C477.328 309.169 483.921 302.576 483.921 294.443C483.921 286.31 477.328 279.717 469.195 279.717C461.062 279.717 454.469 286.31 454.469 294.443C454.469 302.576 461.062 309.169 469.195 309.169Z" fill="#C9C9C9"/>
<path d="M275.357 412.41L268.475 350.466H372.676L362.272 415.612L363.713 423.935L274.237 424.575L275.357 412.41Z" fill="#FFD200"/>
<path opacity="0.08" d="M460.071 296.684C460.071 296.684 488.083 300.045 493.685 321.334H474.637L460.071 296.684Z" fill="black"/>
<path d="M317.134 442.182C317.134 442.182 336.982 449.065 330.099 458.028C323.217 466.992 312.652 452.106 312.652 452.106L317.134 442.182Z" fill="#4561B5"/>
<path opacity="0.08" d="M372.677 350.466L352.028 377.676C340.024 393.523 323.697 405.848 305.13 412.891L274.237 424.735L356.83 424.095H363.873L362.433 415.772L372.677 350.466Z" fill="black"/>
<path d="M302.889 265.952C302.889 265.952 283.681 263.231 292.324 249.145C300.968 235.06 302.729 245.624 306.89 234.739C311.052 223.855 314.573 221.774 320.496 226.416C326.418 231.058 320.656 240.822 329.619 238.101C338.583 235.38 344.665 232.819 346.426 240.182C348.187 247.545 346.426 251.226 340.664 253.787C334.901 256.348 344.025 266.272 329.459 270.434C314.893 274.595 307.37 258.589 307.37 258.589L302.889 265.952Z" fill="#24285B"/>
<path d="M317.774 438.661C317.774 438.661 237.902 397.844 231.179 419.613C224.456 441.382 279.358 453.867 314.893 455.147L317.774 438.661Z" fill="#24285B"/>
<path d="M321.616 392.722C326.566 392.722 330.58 388.709 330.58 383.759C330.58 378.808 326.566 374.795 321.616 374.795C316.665 374.795 312.652 378.808 312.652 383.759C312.652 388.709 316.665 392.722 321.616 392.722Z" fill="white"/>
<path d="M337.142 441.862C337.142 441.862 400.847 378.796 413.972 397.364C427.098 415.931 378.438 444.743 344.985 456.748L337.142 441.862Z" fill="#24285B"/>
<path d="M339.703 446.664C339.703 446.664 320.816 463.471 331.7 468.433C342.584 473.395 344.985 456.748 344.985 456.748L339.703 446.664Z" fill="#4561B5"/>
<path d="M348.507 292.362C347.066 277.636 357.79 264.351 372.516 262.91C386.922 261.31 405.81 262.27 422.616 272.834C455.269 293.322 491.444 309.649 482.48 346.784C473.517 383.919 408.851 399.445 408.851 399.445L400.207 385.359C400.207 385.359 457.35 366.152 446.946 335.899C437.502 308.528 354.749 353.987 348.507 292.362Z" fill="#4561B5"/>
<path opacity="0.46" d="M348.507 292.362C347.066 277.636 357.79 264.351 372.516 262.91C386.922 261.31 405.81 262.27 422.616 272.834C455.269 293.322 491.444 309.649 482.48 346.784C473.517 383.919 408.851 399.445 408.851 399.445L400.207 385.359C400.207 385.359 457.35 366.152 446.946 335.899C437.502 308.528 354.749 353.987 348.507 292.362Z" fill="white"/>
<path d="M401.648 387.6C401.648 387.6 383.561 399.765 390.124 403.126C396.686 406.488 407.731 397.524 407.731 397.524L401.648 387.6Z" fill="#F4A28C"/>
<path d="M301.288 308.849C301.288 308.849 307.691 293.002 316.654 294.283C325.618 295.563 311.692 314.931 311.692 314.931L301.288 308.849Z" fill="#F4A28C"/>
<path d="M210.851 118.373H145.705V207.689H210.851V118.373Z" fill="#C9C9C9"/>
<path d="M439.903 120.453H389.482V167.032H439.903V120.453Z" fill="#C9C9C9"/>
<path opacity="0.44" d="M439.903 180.157H389.482V226.736H439.903V180.157Z" fill="#C9C9C9"/>
<path opacity="0.44" d="M506.81 180.157H456.39V226.736H506.81V180.157Z" fill="#C9C9C9"/>
<path opacity="0.63" d="M393.324 158.388L403.088 143.182L414.773 156.628L425.817 137.26L436.061 158.548V163.991H393.324V158.388Z" fill="white"/>
<path d="M414.293 140.301C417.033 140.301 419.255 138.08 419.255 135.339C419.255 132.599 417.033 130.377 414.293 130.377C411.553 130.377 409.331 132.599 409.331 135.339C409.331 138.08 411.553 140.301 414.293 140.301Z" fill="white"/>
<path d="M507.13 120.453H456.71V167.032H507.13V120.453Z" fill="#C9C9C9"/>
<path opacity="0.63" d="M460.552 158.388L470.316 143.182L482 156.628L493.045 137.26L503.449 158.548V163.991H460.552V158.388Z" fill="white"/>
<path d="M481.52 140.301C484.26 140.301 486.482 138.08 486.482 135.339C486.482 132.599 484.26 130.377 481.52 130.377C478.779 130.377 476.558 132.599 476.558 135.339C476.558 138.08 478.779 140.301 481.52 140.301Z" fill="white"/>
<path d="M179.159 239.541H82V295.243H179.159V239.541Z" fill="#FFD200"/>
<path d="M117.534 281.158C117.054 281.158 116.574 280.998 116.094 280.677L101.688 269.313C101.208 268.833 100.888 268.192 100.888 267.552C100.888 266.912 101.208 266.272 101.688 265.791L116.094 254.267C117.054 253.467 118.495 253.627 119.295 254.587C120.095 255.547 119.935 256.988 118.975 257.788L106.65 267.552L118.815 277.156C119.775 277.956 119.935 279.397 119.135 280.357C118.815 280.677 118.175 280.998 117.534 281.158Z" fill="#24285B"/>
<path d="M143.625 281.158C142.984 281.158 142.344 280.837 141.864 280.357C141.064 279.397 141.224 277.956 142.184 277.316L154.349 267.712L142.024 257.948C141.064 257.148 140.904 255.707 141.704 254.747C142.504 253.787 143.945 253.627 144.905 254.427L159.311 265.951C159.791 266.432 160.111 267.072 160.111 267.712C160.111 268.352 159.791 268.993 159.311 269.473L144.905 280.837C144.585 280.997 144.105 281.158 143.625 281.158Z" fill="#24285B"/>
<path d="M124.577 281.158C124.257 281.158 123.937 281.158 123.616 280.998C122.496 280.518 122.016 279.077 122.496 277.957L133.06 254.907C133.54 253.787 134.821 253.307 135.941 253.787C137.062 254.267 137.542 255.548 137.062 256.668C137.062 256.668 137.062 256.668 137.062 256.828L126.498 279.717C126.177 280.518 125.377 281.158 124.577 281.158Z" fill="#24285B"/>
<path d="M178.358 148.305C183.309 148.305 187.322 144.291 187.322 139.341C187.322 134.391 183.309 130.377 178.358 130.377C173.408 130.377 169.395 134.391 169.395 139.341C169.395 144.291 173.408 148.305 178.358 148.305Z" fill="white"/>
<path opacity="0.56" d="M197.566 159.669H160.271V167.032H197.566V159.669Z" fill="white"/>
<path opacity="0.19" d="M197.566 176.476H160.271V183.839H197.566V176.476Z" fill="white"/>
<path opacity="0.46" d="M325.938 118.373H232.78V173.595H325.938V118.373Z" fill="white"/>
<path d="M325.938 189.281H232.78V207.688H325.938V189.281Z" fill="white"/>
<path d="M325.938 189.281H298.887V207.688H325.938V189.281Z" fill="#C9C9C9"/>
<path d="M530.979 284.999H494.965V291.562H530.979V284.999Z" fill="#C9C9C9"/>
<path opacity="0.45" d="M530.979 297.164H494.965V303.727H530.979V297.164Z" fill="#C9C9C9"/>
</svg>
