<svg width="590" height="552" viewBox="0 0 590 552" fill="none" xmlns="http://www.w3.org/2000/svg">
<path fill-rule="evenodd" clip-rule="evenodd" d="M276.695 0.52658C353.704 5.24319 414.55 57.4742 469.934 111.249C526.523 166.194 591.223 225.797 589.982 304.708C588.752 383.004 526.144 444.693 463.948 492.174C410.424 533.035 343.849 539.304 276.695 543.873C202.041 548.953 118.768 568.474 62.1343 519.513C3.55319 468.869 0.739509 382.194 0.0489204 304.708C-0.649979 226.291 5.53446 144.021 58.271 86.0357C112.986 25.875 195.577 -4.4417 276.695 0.52658Z" fill="#F06496"/>
<path opacity="0.3" d="M292.141 437C397.831 437 483.51 422.789 483.51 405.258C483.51 387.728 397.831 373.517 292.141 373.517C186.451 373.517 100.771 387.728 100.771 405.258C100.771 422.789 186.451 437 292.141 437Z" fill="white"/>
<path d="M165.942 390.998C165.942 390.998 164.102 397.132 158.735 397.899C153.368 398.665 152.294 404.032 157.201 405.106C162.108 406.179 174.375 399.279 174.375 399.279L173.609 391.458L165.942 390.998Z" fill="#4561B5"/>
<path d="M258.252 390.998C258.252 390.998 260.092 397.132 265.459 397.899C270.826 398.665 271.899 404.032 266.993 405.106C262.086 406.179 249.818 399.279 249.818 399.279L250.585 391.458L258.252 390.998Z" fill="#4561B5"/>
<path d="M242.612 59.6283C242.612 59.6283 243.685 71.4355 241.692 79.2559C240.925 82.4761 237.705 84.3162 234.485 83.5495C230.498 82.4761 225.591 79.8693 224.211 73.7357L220.684 63.4618C219.764 59.0149 221.604 54.568 225.437 52.1146C231.878 47.0543 242.305 52.2679 242.612 59.6283Z" fill="#F4A28C"/>
<path d="M222.37 65.9153L206.116 101.644L226.357 108.697L229.884 80.7894L222.37 65.9153Z" fill="#F4A28C"/>
<path d="M219.151 66.222L218.997 73.2757C222.524 74.6558 226.664 73.2757 228.658 70.0555C230.804 66.8354 230.804 62.5418 228.658 59.1683C228.658 59.1683 230.191 63.4619 233.871 60.8551C237.551 58.2483 240.005 58.4016 240.312 61.1618C240.618 63.9219 245.525 63.7686 247.519 58.2483C249.512 52.728 241.692 54.8748 244.145 51.5013C246.599 48.1278 249.972 45.8277 245.065 42.9142C240.158 40.0007 240.772 46.441 237.398 42.9142C234.025 39.3874 233.565 35.5538 228.044 37.5473C222.524 39.5407 226.204 44.7543 220.684 43.8342C215.164 42.9142 213.477 43.9876 212.71 49.9679C212.25 53.8014 211.943 56.7149 213.937 57.9416C217.004 59.475 218.997 62.6952 219.151 66.222Z" fill="#24285B"/>
<path d="M230.037 69.7486C230.037 69.7486 229.884 65.1484 226.511 65.6084C223.137 66.0684 223.137 72.5087 227.891 73.1221L230.037 69.7486Z" fill="#F4A28C"/>
<path d="M242.765 66.9888L245.985 71.589C246.599 72.509 246.445 73.5824 245.525 74.1958C245.372 74.3491 245.065 74.5025 244.758 74.5025L240.158 75.4225L242.765 66.9888Z" fill="#F4A28C"/>
<path opacity="0.31" d="M229.731 81.5562C227.431 80.1761 225.591 78.336 224.364 76.0359C224.364 76.0359 220.224 83.3963 228.811 89.6832L229.731 81.5562Z" fill="#CE8172"/>
<path d="M254.726 113.451C254.726 113.451 336.15 139.672 335.69 202.542L280.794 168.807L254.726 113.451Z" fill="#4561B5"/>
<path d="M443.182 254.985H434.288V402.499H443.182V254.985Z" fill="#C9C9C9"/>
<path d="M443.182 254.985H434.288V402.499H443.182V254.985Z" fill="#4561B5"/>
<path opacity="0.48" d="M443.182 254.985H434.288V402.499H443.182V254.985Z" fill="white"/>
<path d="M407.606 203.002H456.829C467.869 203.002 476.763 211.896 476.763 222.937V254.985H387.365V223.243C387.365 212.203 396.412 203.002 407.606 203.002Z" fill="#CDD8FB"/>
<path d="M404.079 203.002C413.433 203.002 420.947 210.516 420.947 219.87V255.138H387.212V219.87C387.365 210.516 394.879 203.002 404.079 203.002Z" fill="#CDD8FB"/>
<path opacity="0.08" d="M404.079 203.002C413.433 203.002 420.947 210.516 420.947 219.87V255.138H387.212V219.87C387.365 210.516 394.879 203.002 404.079 203.002Z" fill="black"/>
<path d="M420.181 402.652L410.674 373.518L426.928 384.558L428.308 353.123L445.176 384.712L463.27 373.518L452.383 402.652H420.181Z" fill="#C9C9C9"/>
<path d="M159.348 97.0436C163.948 93.21 169.929 91.3699 175.756 92.1366C195.383 94.5901 246.139 102.564 268.987 123.112C297.662 148.873 310.849 182.761 240.312 270.626H173.916C173.916 270.472 112.119 138.446 159.348 97.0436Z" fill="#CDD8FB"/>
<path opacity="0.08" d="M176.062 128.172C176.062 128.172 175.449 160.527 189.709 176.781C203.97 193.035 276.96 216.956 276.96 216.956C267.453 235.51 255.646 252.838 241.845 268.632L240.158 270.472H173.915C173.915 270.472 150.454 217.569 144.934 181.228C141.253 155.926 176.062 128.172 176.062 128.172Z" fill="black"/>
<path d="M189.848 127.658L185.945 189.178L256.494 193.654L260.397 132.134L189.848 127.658Z" fill="#24285B"/>
<path d="M224.058 144.579L182.196 173.254L178.516 229.837L258.406 234.897L261.933 178.314L224.058 144.579Z" fill="#FFD200"/>
<path opacity="0.08" d="M182.196 173.254C182.196 173.254 185.569 219.256 259.48 218.95L258.406 234.897L178.516 229.837L182.196 173.254Z" fill="black"/>
<path d="M161.188 207.449C161.188 207.449 170.388 197.022 187.255 206.222L185.722 217.11H161.188V207.449Z" fill="#F4A28C"/>
<path d="M156.894 96.4304C134.2 108.391 88.9643 135.992 73.3235 209.596C71.6368 217.723 76.697 225.697 84.9774 227.537C86.8175 227.844 88.5043 227.997 90.3444 227.69L161.188 216.956V207.449L116.719 204.382C116.719 204.382 182.042 163.287 177.595 107.471C176.829 99.8039 170.082 94.1303 162.415 94.897C160.421 95.0503 158.581 95.5104 156.894 96.4304Z" fill="#CDD8FB"/>
<path opacity="0.2" d="M156.894 96.4304C134.2 108.391 88.9643 135.992 73.3235 209.596C71.6368 217.723 76.697 225.697 84.9774 227.537C86.8175 227.844 88.5043 227.997 90.3444 227.69L161.188 216.956V207.449L116.719 204.382C116.719 204.382 182.042 163.287 177.595 107.471C176.829 99.8039 170.082 94.1303 162.415 94.897C160.421 95.0503 158.581 95.5104 156.894 96.4304Z" fill="white"/>
<path d="M268.986 132.465C268.986 132.465 258.099 124.338 247.979 125.872L246.445 136.605C246.445 136.605 265.92 141.206 268.986 146.266V132.465Z" fill="#F4A28C"/>
<path d="M268.986 132.465L332.163 190.275C337.07 194.721 337.376 202.235 332.929 207.142C330.783 209.442 327.716 210.822 324.649 210.976C305.175 211.742 279.107 201.315 268.986 146.112V132.465Z" fill="#CDD8FB"/>
<path opacity="0.2" d="M268.986 132.465L332.163 190.275C337.07 194.721 337.376 202.235 332.929 207.142C330.783 209.442 327.716 210.822 324.649 210.976C305.175 211.742 279.107 201.315 268.986 146.112V132.465Z" fill="white"/>
<path d="M234.164 185.103L233.29 198.876L249.818 199.924L250.691 186.151L234.164 185.103Z" fill="white"/>
<path opacity="0.08" d="M199.88 183.313L199.628 187.292L222.124 188.719L222.376 184.74L199.88 183.313Z" fill="black"/>
<path opacity="0.08" d="M199.292 190.907L199.04 194.885L221.536 196.313L221.789 192.334L199.292 190.907Z" fill="black"/>
<path d="M173.915 270.472L161.188 391.918H177.748L205.963 289.946L240.465 270.472H173.915Z" fill="#24285B"/>
<path d="M240.465 270.472L261.932 391.918H247.365L208.57 289.486L198.756 281.819L240.465 270.472Z" fill="#24285B"/>
<path d="M279.567 69.4423C279.567 69.4423 418.494 50.1214 420.334 182.915" stroke="#C9C9C9" stroke-width="2" stroke-linecap="round" stroke-linejoin="round" stroke-dasharray="3 3"/>
<path opacity="0.21" d="M451.615 222.937C455.142 222.937 458.055 225.85 458.055 229.377C458.055 232.904 455.142 235.817 451.615 235.817C448.088 235.817 445.175 232.904 445.175 229.377C445.175 225.85 448.088 222.937 451.615 222.937Z" fill="white"/>
<path d="M451.616 231.37C450.389 231.37 449.315 230.297 449.315 229.07V189.355C449.315 183.681 453.916 178.928 459.743 178.928H486.117C487.344 178.928 488.417 180.001 488.417 181.228C488.417 182.455 487.344 183.528 486.117 183.528H459.743C456.522 183.528 453.916 186.135 453.916 189.355V229.07C453.916 230.297 452.842 231.37 451.616 231.37Z" fill="#CDD8FB"/>
<path opacity="0.08" d="M451.616 231.37C450.389 231.37 449.315 230.297 449.315 229.07V189.355C449.315 183.681 453.916 178.928 459.743 178.928H486.117C487.344 178.928 488.417 180.001 488.417 181.228C488.417 182.455 487.344 183.528 486.117 183.528H459.743C456.522 183.528 453.916 186.135 453.916 189.355V229.07C453.916 230.297 452.842 231.37 451.616 231.37Z" fill="black"/>
<path d="M493.631 176.014H468.943V186.288H493.631V176.014Z" fill="#4561B5"/>
<path d="M493.631 176.474H468.943V186.748H493.631V176.474Z" fill="#4561B5"/>
</svg>
