<svg width="595" height="563" viewBox="0 0 595 563" fill="none" xmlns="http://www.w3.org/2000/svg">
<path fill-rule="evenodd" clip-rule="evenodd" d="M280.904 0.000945837C344.711 0.187732 402.339 31.9459 454.583 68.5449C507.647 105.717 559.441 148.89 580.736 210.043C602.27 271.88 599.868 342.856 570.487 401.38C543.053 456.027 482.81 481.749 429.376 511.542C382.501 537.677 334.555 561.087 280.904 562.838C225.884 564.634 171.319 551.516 125.21 521.472C77.365 490.298 39.6525 445.614 19.2105 392.326C-2.01551 336.994 -6.12569 276.422 9.25194 219.191C25.2225 159.753 58.5611 106.193 106.483 67.5259C156.208 27.4036 216.987 -0.186159 280.904 0.000945837Z" fill="#CB605B"/>
<path d="M451.443 138.428H92.1401V371.975H451.443V138.428Z" fill="#F2F2F2"/>
<path d="M244.661 345.211L231.095 431.92H322.021L301.123 345.211H244.661Z" fill="#C9C9C9"/>
<path d="M338.152 416.705H210.197V444.569H338.152V416.705Z" fill="#E6E6E6"/>
<path d="M451.443 326.879H92.1401V371.975H451.443V326.879Z" fill="#E6E6E6"/>
<path d="M275.825 361.709C282.608 361.709 288.107 356.21 288.107 349.427C288.107 342.643 282.608 337.144 275.825 337.144C269.041 337.144 263.542 342.643 263.542 349.427C263.542 356.21 269.041 361.709 275.825 361.709Z" fill="#A5A5A5"/>
<path d="M262.259 122.296C262.076 127.613 262.442 133.112 263.726 138.245C264.459 140.812 267.209 142.278 269.775 141.545C273.808 140.628 276.925 137.328 277.841 133.112L280.408 124.496C281.141 120.83 279.491 117.163 276.191 115.33C270.692 111.847 262.259 116.43 262.259 122.296Z" fill="#F4A28C"/>
<path d="M275.336 131.689L286.09 157.126L268.675 159.326L271.242 135.861L275.336 131.689Z" fill="#F4A28C"/>
<path d="M272.891 130.179C272.891 130.179 272.891 126.513 275.641 126.696C278.391 126.879 278.574 132.196 274.725 132.929L272.891 130.179Z" fill="#F4A28C"/>
<path d="M262.442 128.345L259.876 132.195C259.326 132.928 259.509 133.845 260.243 134.395C260.426 134.578 260.609 134.578 260.976 134.578L264.642 135.128L262.442 128.345Z" fill="#F4A28C"/>
<path opacity="0.08" d="M297.823 138.428H322.204C322.204 138.428 357.585 165.925 368.767 205.705C377.933 237.969 376.283 266.934 363.268 285.999C356.668 295.898 354.285 307.997 356.668 319.546L358.135 326.695H293.79L297.823 138.428Z" fill="black"/>
<path d="M268.675 160.059C268.675 160.059 243.927 160.059 239.894 179.674C235.861 199.289 237.511 248.052 221.746 249.885C205.981 251.718 178.483 189.757 178.483 189.757C178.483 189.757 166.751 179.308 159.235 183.891C151.719 188.474 170.417 198.556 170.417 198.556C170.417 198.556 184.899 317.896 258.043 265.284C331.187 212.672 268.675 160.059 268.675 160.059Z" fill="#F4A28C"/>
<path opacity="0.31" d="M270.509 140.994C272.708 140.261 274.542 138.978 276.008 137.328C276.008 137.328 276.008 143.194 269.775 149.06L270.509 140.994Z" fill="#CE8172"/>
<path d="M268.675 159.326L286.091 157.127C286.091 157.127 329.17 157.86 331.737 205.339C334.303 252.819 320.554 250.252 315.421 291.499H247.227C247.227 291.499 249.794 265.834 241.728 248.419C233.662 231.187 190.949 218.171 268.675 159.326Z" fill="#4764BA"/>
<path d="M278.208 191.04H251.077V230.82H278.208V191.04Z" fill="#24285B"/>
<path opacity="0.08" d="M282.424 167.393C282.424 167.393 274.175 186.641 289.207 211.022C304.239 235.403 312.305 248.419 286.274 248.052C260.242 247.502 259.692 202.04 259.692 202.04H240.077L242.461 239.62L254.559 241.453L274.358 280.866L316.521 284.166L331.92 264.734L340.169 230.821L306.805 172.709L282.424 167.393Z" fill="black"/>
<path d="M319.821 172.892C319.821 172.892 348.052 187.191 348.602 247.136C349.152 307.081 301.123 289.482 269.959 244.019C269.959 244.019 251.26 225.871 259.693 218.355C268.126 210.839 277.841 236.503 277.841 236.503C277.841 236.503 308.272 259.784 320.738 255.018C332.837 250.252 254.193 166.659 319.821 172.892Z" fill="#F4A28C"/>
<path d="M271.538 120.431C273.921 127.764 278.391 138.428 277.658 146.127C276.191 158.41 273.808 178.208 298.923 180.041C324.037 181.874 321.471 169.225 319.271 159.326C317.071 149.427 294.523 148.877 296.173 127.979C297.823 107.081 282.974 103.231 269.959 103.781C256.943 104.331 254.651 125.41 271.538 120.431Z" fill="#FFD200"/>
<path d="M247.594 278.666L239.895 326.878H324.771L316.521 284.165L247.594 278.666Z" fill="#24285B"/>
<path d="M152.452 170.325C178.775 170.325 200.114 148.986 200.114 122.663C200.114 96.3393 178.775 75 152.452 75C126.128 75 104.789 96.3393 104.789 122.663C104.789 148.986 126.128 170.325 152.452 170.325Z" fill="#24285B"/>
<path d="M439.527 201.856C465.648 201.856 486.824 180.681 486.824 154.56C486.824 128.439 465.648 107.264 439.527 107.264C413.407 107.264 392.231 128.439 392.231 154.56C392.231 180.681 413.407 201.856 439.527 201.856Z" fill="#24285B"/>
<path d="M459.509 365.376C486.339 365.376 508.088 343.626 508.088 316.797C508.088 289.967 486.339 268.217 459.509 268.217C432.68 268.217 410.93 289.967 410.93 316.797C410.93 343.626 432.68 365.376 459.509 365.376Z" fill="#24285B"/>
<path d="M94.5235 349.977C123.074 349.977 146.219 326.832 146.219 298.281C146.219 269.731 123.074 246.586 94.5235 246.586C65.9728 246.586 42.8279 269.731 42.8279 298.281C42.8279 326.832 65.9728 349.977 94.5235 349.977Z" fill="#24285B"/>
<path opacity="0.58" d="M157.035 424.221C157.035 424.221 142.003 420.188 138.703 406.072C138.703 406.072 162.168 401.306 162.718 425.504L157.035 424.221Z" fill="#4764BA"/>
<path opacity="0.73" d="M158.868 422.754C158.868 422.754 148.235 406.072 157.585 390.49C157.585 390.49 175.366 401.856 167.484 422.754H158.868Z" fill="#4764BA"/>
<path d="M161.618 422.754C161.618 422.754 167.117 405.156 183.982 401.856C183.982 401.856 187.099 413.222 172.983 422.754H161.618Z" fill="#4764BA"/>
<path d="M150.618 422.388L153.735 443.286L172.983 443.469L175.916 422.571L150.618 422.388Z" fill="#24285B"/>
<path d="M466.476 135.128H415.88V172.525H466.476V135.128Z" fill="white"/>
<path d="M415.88 135.128L441.178 162.443L466.476 135.128H415.88Z" fill="#4764BA"/>
<path d="M482.791 302.314H438.794V333.478H482.791V302.314Z" fill="#FFD200"/>
<path d="M453.827 310.197V326.329L471.425 317.896L453.827 310.197Z" fill="white"/>
<path d="M170.417 126.696C173.859 126.696 176.65 123.905 176.65 120.463C176.65 117.021 173.859 114.23 170.417 114.23C166.975 114.23 164.184 117.021 164.184 120.463C164.184 123.905 166.975 126.696 170.417 126.696Z" fill="#FFD200"/>
<path d="M147.685 112.947H128.987V129.446H147.685V112.947Z" fill="#FFD200"/>
<path d="M147.686 112.947C157.768 112.03 166.567 105.614 170.417 96.0817V142.828C170.417 142.828 162.901 129.446 147.686 129.446V112.947Z" fill="white"/>
<path d="M138.336 129.446L143.653 145.394H152.269L147.686 129.446H138.336Z" fill="#FFD200"/>
<path d="M122.021 276.466H66.2922V320.829H122.021V276.466Z" fill="#4764BA"/>
<path opacity="0.85" d="M66.2922 320.83L84.0741 290.582L94.1566 310.197L104.972 294.798L122.021 320.83H66.2922Z" fill="white"/>
<path d="M95.4397 293.332C97.6671 293.332 99.4727 291.526 99.4727 289.299C99.4727 287.071 97.6671 285.266 95.4397 285.266C93.2124 285.266 91.4067 287.071 91.4067 289.299C91.4067 291.526 93.2124 293.332 95.4397 293.332Z" fill="white"/>
</svg>
