<svg width="609" height="517" viewBox="0 0 609 517" fill="none" xmlns="http://www.w3.org/2000/svg">
<path d="M204.558 15.7642C170.901 33.8924 146.22 66.7848 135.375 103.415C129.017 125.094 126.961 147.895 119.481 169.2C98.5394 229.939 38.1443 269.559 12.5278 328.429C-1.86985 361.322 -4.30062 399.447 7.85321 433.087C20.007 466.727 46.9324 495.321 80.7762 507.095C101.344 514.384 123.782 515.505 145.659 516.252C186.795 517.561 228.118 517.748 268.506 510.459C287.765 506.908 306.65 501.862 326.096 499.619C363.68 495.321 402.011 501.862 439.407 495.882C465.398 491.583 490.079 481.491 513.639 469.53C531.403 460.746 548.792 450.841 563.189 437.385C601.708 402.063 616.105 344.688 605.634 293.294C595.163 241.9 562.628 196.859 521.679 164.341C503.729 149.95 484.096 137.989 465.211 124.72C440.903 107.9 417.718 89.2115 396.028 69.0275C343.86 21.184 276.733 -22.9218 204.558 15.7642Z" fill="#60B7B6"/>
<path d="M106.954 437.385L104.523 437.198C96.6696 436.638 91.4341 440.562 84.8898 444.487C77.0365 449.159 68.0614 451.589 60.3951 456.448C59.2732 457.196 57.9644 458.504 58.7123 459.625C59.0863 460.373 60.2082 460.56 61.1431 460.56C80.4022 460.933 99.8483 460.933 119.107 460.933H469.698C482.413 460.933 495.315 459.999 507.843 458.317C509.9 458.317 511.582 456.448 511.395 454.392C511.395 452.71 510.087 451.215 508.404 450.841C497.559 447.104 486.527 443.553 475.682 440.376C447.822 431.966 416.596 435.703 387.8 436.264C357.509 437.012 327.218 437.759 297.114 435.703C275.424 434.208 258.222 435.703 236.532 436.451C220.639 436.825 204.932 438.32 188.852 438.133L132.196 437.385C123.782 437.572 115.368 437.759 106.954 437.385Z" fill="url(#paint0_linear)"/>
<path d="M218.582 439.441H361.062L335.819 348.987H239.711L218.582 439.441Z" fill="#30728B"/>
<path d="M218.582 439.441H361.062L335.819 348.987H239.711L218.582 439.441Z" fill="url(#paint1_linear)"/>
<path d="M503.168 106.966V340.577C503.168 354.594 491.575 365.994 477.552 365.994H108.45C94.4259 365.994 82.833 354.594 82.833 340.577V106.966C82.833 92.7624 94.2389 81.3622 108.45 81.3622H477.552C491.575 81.3622 503.168 92.7624 503.168 106.966C503.168 106.779 503.168 106.779 503.168 106.966Z" fill="#30728B"/>
<path d="M503.168 106.966V311.796H82.833V106.966C82.833 92.7624 94.2389 81.3622 108.45 81.3622H477.552C491.575 81.3622 503.168 92.7624 503.168 106.966Z" fill="#473F47"/>
<path d="M496.811 111.825V304.881H89.1904V111.825C89.3774 98.1822 100.409 87.3426 113.872 87.3426H471.942C485.592 87.1557 496.624 98.1822 496.811 111.825Z" fill="white"/>
<path opacity="0.18" d="M496.811 111.825V304.881H89.1904V111.825C89.3774 98.1822 100.409 87.3426 113.872 87.3426H471.942C485.592 87.1557 496.624 98.1822 496.811 111.825Z" fill="#30728B"/>
<path d="M338.998 230.686H449.878C459.227 230.686 466.894 238.349 466.894 247.693V332.167C466.894 341.511 459.227 349.174 449.878 349.174H338.998C329.649 349.174 321.983 341.511 321.983 332.167V247.693C321.983 238.162 329.649 230.686 338.998 230.686Z" fill="url(#paint2_linear)"/>
<path d="M215.029 81.3622V161.164C215.029 167.331 209.981 172.19 203.997 172.19H82.833V106.779C82.833 92.7624 94.2389 81.3622 108.45 81.3622H215.029Z" fill="url(#paint3_linear)"/>
<path d="M178.942 365.994C182.307 350.108 166.04 336.279 166.788 320.019C166.975 312.917 170.527 306.376 174.08 300.209C174.267 299.648 174.641 299.275 175.202 299.088C175.95 298.714 176.698 299.275 177.446 299.648C183.803 303.012 192.03 298.34 195.209 291.799C198.388 285.258 197.827 277.595 197.079 270.494C190.161 276.1 180.624 277.595 172.21 274.418C168.097 272.736 164.17 270.12 159.869 270.12C155.569 270.12 151.455 273.11 148.277 276.287C137.245 287.314 131.074 302.265 128.27 317.59C125.465 332.915 126.026 350.482 126.4 365.994H178.942Z" fill="url(#paint4_linear)"/>
<path d="M203.997 178.171H398.458C405.751 178.171 411.547 183.964 411.547 191.253C411.547 198.541 405.751 204.335 398.458 204.335H203.997V178.171Z" fill="#30728B"/>
<path d="M361.062 178.171H203.997V204.148H361.062V178.171Z" fill="white"/>
<path d="M384.248 196.112C387.759 196.112 390.605 193.267 390.605 189.758C390.605 186.248 387.759 183.403 384.248 183.403C380.737 183.403 377.89 186.248 377.89 189.758C377.89 193.267 380.737 196.112 384.248 196.112Z" stroke="white" stroke-miterlimit="10"/>
<path d="M390.044 200.037L387.427 195.177" stroke="white" stroke-miterlimit="10"/>
<path d="M160.617 438.507C160.43 439.815 160.991 441.123 161.739 442.058C162.113 442.431 162.674 442.618 163.235 442.618C164.731 442.992 166.227 442.992 167.723 442.805C170.527 442.618 173.332 442.245 176.137 441.684L180.811 440.749C181.372 440.749 181.933 440.376 182.307 440.002C182.681 439.441 182.494 438.694 182.12 438.133C181.372 437.198 180.25 436.451 179.129 436.077C176.324 434.956 173.332 434.021 170.34 433.274C169.78 433.274 169.406 433.087 169.032 432.713C168.471 432.152 168.284 431.218 167.91 430.657C167.162 429.349 165.666 428.788 164.17 429.162C162.861 429.349 160.804 430.284 160.43 431.779C160.43 434.208 160.43 436.451 160.617 438.507Z" fill="#F9C6D6"/>
<path d="M175.95 434.021C175.015 433.834 173.893 434.021 173.145 434.769C172.397 435.89 173.332 437.759 172.397 438.694C171.836 439.254 171.088 439.441 170.34 439.254H165.105C163.796 439.254 162.3 439.254 160.991 438.88C160.617 438.694 160.43 438.694 160.056 438.694C159.496 438.88 159.309 439.254 159.122 439.628C159.122 440.189 159.122 440.562 159.309 441.123C159.683 442.058 160.056 442.992 160.804 443.74C160.991 443.926 161.178 444.113 161.365 444.3C161.739 444.487 161.926 444.487 162.3 444.487C165.479 444.487 168.471 444.674 171.649 444.3C173.706 444.113 175.95 443.926 178.007 443.74C181.185 443.74 184.177 443.179 187.169 442.245C187.917 442.058 188.478 441.497 188.852 440.749C189.039 440.189 188.852 439.441 188.478 438.88C188.104 438.32 187.543 437.946 186.982 437.572C185.299 436.451 183.429 435.703 181.559 435.143C179.877 434.769 177.82 434.395 175.95 434.021Z" fill="#565056"/>
<path d="M103.588 432.713V433.087C103.775 437.198 109.197 437.385 112.189 437.198C114.994 437.012 117.799 436.638 120.416 436.077L125.091 435.143C125.652 435.143 126.213 434.769 126.587 434.395C126.961 433.834 126.774 433.087 126.4 432.526C125.652 431.592 124.53 430.844 123.408 430.47C120.79 429.536 118.173 428.602 115.555 427.854C113.311 427.106 115.181 423.929 115.368 422.247C115.555 421.874 115.555 421.5 115.368 421.126C115.181 420.752 114.62 420.565 114.246 420.378C112.937 419.818 111.441 419.631 109.945 419.631C109.571 419.631 109.384 419.631 109.197 419.818C109.01 420.005 108.823 420.192 108.636 420.565L104.149 430.097C103.962 431.031 103.775 431.966 103.588 432.713Z" fill="#F9C6D6"/>
<path d="M105.458 310.675C105.458 310.675 102.092 329.551 109.01 343.754C112.563 351.417 116.677 358.892 121.164 365.994C121.164 365.994 106.767 381.693 106.767 401.316C106.767 420.939 106.393 421.874 106.393 421.874L115.181 426.359L136.871 365.994C136.871 365.994 138.18 357.397 136.871 354.594C135.562 351.79 124.343 318.711 124.343 318.711L105.458 310.675Z" fill="#473F47"/>
<path d="M184.177 233.677C179.69 233.677 174.828 228.817 172.023 221.529C168.845 212.932 170.34 205.083 175.202 203.401C180.064 201.719 186.234 206.578 189.413 215.175C192.591 223.771 191.282 231.621 186.234 233.49C185.486 233.677 184.925 233.677 184.177 233.677ZM177.259 207.138C177.072 207.138 176.698 207.138 176.511 207.325C174.267 208.26 173.332 213.866 175.763 220.407C178.194 226.949 182.494 230.686 184.738 229.752C186.982 228.817 187.917 223.211 185.486 216.67C183.429 210.876 179.69 207.138 177.259 207.138Z" fill="#473F47"/>
<path d="M201.94 252.552C201.379 252.552 200.819 252.365 200.258 251.805L185.299 232.929C184.551 231.995 184.738 230.873 185.673 230.126C186.608 229.378 187.73 229.565 188.478 230.499L203.436 249.375C204.184 250.31 203.997 251.431 203.062 252.179C202.875 252.365 202.501 252.552 201.94 252.552Z" fill="#473F47"/>
<path d="M175.576 224.706C175.763 226.762 175.95 228.631 175.763 230.686C175.389 232.181 174.454 233.49 173.145 234.424C171.836 235.359 170.34 235.919 168.845 236.293C167.536 236.48 166.601 237.414 166.788 238.723C166.788 238.909 166.788 239.096 166.788 239.283V244.329C166.788 244.89 166.788 245.451 166.414 245.824C166.227 246.011 165.853 246.198 165.479 246.385C162.861 246.946 160.243 245.637 159.309 243.208C158.748 242.087 158.187 240.965 157.439 239.844C156.691 238.536 156.317 237.041 156.317 235.359C155.756 230.499 156.691 225.453 158.935 221.155C160.243 218.352 162.3 215.922 164.918 214.053C166.975 212.558 170.714 210.502 172.771 212.932C173.706 214.24 173.706 215.922 174.641 217.23C175.389 218.165 176.511 218.725 176.698 219.847C176.885 220.968 176.137 221.716 175.763 222.837C175.576 223.398 175.576 223.958 175.576 224.706Z" fill="#F9C6D6"/>
<path d="M190.535 234.985V234.611C190.535 233.49 190.908 232.368 191.656 231.434C192.404 230.499 193.713 230.313 194.835 231.06C195.209 231.247 195.583 231.808 195.957 231.995C196.331 232.181 197.453 231.995 197.827 232.555C198.201 233.116 198.201 233.49 198.388 234.05C198.575 234.611 199.323 234.985 199.697 235.359C201.753 237.601 199.51 241.713 198.575 243.955C197.266 247.506 196.144 250.87 195.022 254.421C193.713 254.608 192.591 254.421 191.469 253.674C191.095 253.487 190.721 253.113 190.348 252.739C189.6 251.431 189.6 249.936 189.974 248.628C190.161 247.693 190.348 246.572 190.161 245.451C189.787 244.329 189.413 243.208 189.039 242.087C188.665 241.152 188.478 240.031 189.226 239.283C189.413 239.096 189.787 238.909 189.974 238.723C190.161 238.536 190.161 238.162 190.161 237.788C190.535 237.041 190.535 235.919 190.535 234.985Z" fill="#F9C6D6"/>
<path d="M149.212 318.711L170.154 365.807L169.219 432.9L159.496 432.152C159.496 432.152 143.041 394.027 153.512 370.479C153.512 370.479 128.083 348.613 118.547 336.278C106.954 320.954 109.571 308.245 109.571 308.245L149.212 318.711Z" fill="#565056"/>
<path d="M158.935 237.227C161.552 237.788 163.983 238.723 166.414 239.844C174.454 243.582 174.828 249.936 177.633 257.598C179.503 262.457 181.559 267.317 183.803 271.802L187.73 248.815L198.575 253.113C198.575 253.113 199.697 287.127 191.656 291.612C186.608 294.602 179.316 291.051 174.828 288.809C173.145 287.874 170.34 285.258 168.471 285.071C165.105 284.697 164.731 288.622 161.739 291.051C159.683 292.173 157.813 293.481 155.943 294.976C154.26 297.032 152.951 299.275 152.203 301.704C151.268 304.881 151.081 308.058 151.455 311.235C151.642 313.478 151.829 315.908 150.146 317.403C149.212 318.15 148.09 318.711 146.968 318.898C143.041 319.459 139.302 319.459 135.375 318.711C127.709 318.15 120.229 316.842 112.937 314.786C110.319 314.039 107.702 312.917 105.271 311.796C104.71 311.609 104.149 311.235 103.775 310.862C103.401 310.301 103.027 309.74 102.84 308.993C101.905 304.321 105.271 300.022 106.954 295.724C108.076 292.733 108.449 289.556 109.384 286.566C110.506 283.202 112.563 280.959 114.433 277.969C115.929 275.54 116.864 272.736 118.36 270.307C122.473 264.139 126.961 258.159 131.822 252.552C134.627 249.001 137.993 245.637 141.358 242.647C145.285 239.096 150.52 237.227 155.756 237.041C157.065 237.041 158 237.227 158.935 237.227Z" fill="white"/>
<path d="M150.52 197.794C144.163 198.168 138.741 202.279 136.684 208.26C135.936 210.502 136.123 213.119 135.936 215.548C135.749 218.165 134.627 220.781 132.944 222.65C130.7 224.706 127.335 225.08 124.53 225.827C120.042 226.949 115.368 229.752 113.685 234.05C112.002 238.349 113.498 243.021 112.75 247.506C112.189 251.244 110.132 254.421 107.141 256.664C105.084 258.159 102.653 259.093 100.409 260.589C92.743 266.382 91.0602 277.409 96.8566 285.071L97.0436 285.445C97.7915 286.192 98.5394 287.127 99.2874 288.061C99.8483 289.183 100.409 290.117 100.97 291.238C103.962 296.471 109.571 299.461 115.555 299.088C121.538 298.527 126.774 295.537 130.326 290.865C133.692 286.566 135.375 281.146 139.301 277.409C142.106 275.166 144.911 273.297 148.09 271.428C152.764 268.064 156.504 262.644 156.13 256.851C155.943 251.992 151.829 246.759 155.569 242.46C156.878 241.152 158.561 239.844 160.243 238.909C161.926 237.788 163.235 236.48 164.17 234.611C166.04 230.499 163.422 225.453 165.479 221.529C166.975 218.725 170.714 217.604 172.958 215.361C175.576 212.558 176.137 208.447 174.454 204.896C172.771 201.532 169.593 198.915 166.04 198.168C163.422 197.607 160.617 197.42 157.813 197.607L153.138 197.794C152.203 197.42 151.455 197.607 150.52 197.794Z" fill="#F37228"/>
<path d="M119.294 427.667C118.36 427.48 117.238 427.667 116.49 428.415C115.742 429.536 116.677 431.405 115.742 432.339C115.181 432.9 114.433 433.087 113.685 432.9H108.449C107.141 432.9 105.645 432.9 104.336 432.526C103.962 432.339 103.588 432.339 103.401 432.339C103.027 432.526 102.653 432.9 102.466 433.461C102.466 434.021 102.466 434.395 102.653 434.769C103.027 435.703 103.401 436.638 104.149 437.385C104.336 437.572 104.523 437.759 104.71 437.946C105.084 438.133 105.271 438.133 105.645 438.133C108.823 438.133 111.815 438.32 114.994 437.946C117.051 437.759 119.294 437.572 121.351 437.385C124.53 437.385 127.522 436.825 130.513 435.89C131.261 435.703 131.822 435.143 132.196 434.395C132.383 433.834 132.196 433.087 131.822 432.526C131.448 431.966 130.887 431.592 130.326 431.218C128.644 430.097 126.774 429.349 124.904 428.788C123.034 428.228 121.164 427.854 119.294 427.667Z" fill="#565056"/>
<path d="M332.08 223.771H442.96C452.309 223.771 459.975 231.434 459.975 240.778V325.252C459.975 334.597 452.309 342.259 442.96 342.259H332.08C322.731 342.259 315.064 334.597 315.064 325.252V240.778C315.064 231.247 322.544 223.771 332.08 223.771Z" fill="white"/>
<path d="M72.923 44.3582H195.583C201.753 44.3582 206.615 49.4042 206.615 55.3847V151.632C206.615 157.8 201.566 162.659 195.583 162.659H72.923C66.7526 162.659 61.704 157.613 61.704 151.632V55.3847C61.891 49.4042 66.7526 44.3582 72.923 44.3582Z" fill="#30728B"/>
<path d="M439.407 324.131H336.193V248.067H338.063V322.262H439.407V324.131Z" fill="#30728B"/>
<path d="M365.737 286.005H353.583V322.262H365.737V286.005Z" fill="#30728B"/>
<path d="M390.418 270.307H378.264V322.262H390.418V270.307Z" fill="#30728B"/>
<path d="M417.531 259.093H405.377V322.449H417.531V259.093Z" fill="#30728B"/>
<path d="M186.982 68.8406H80.7762V75.5686H186.982V68.8406Z" fill="url(#paint5_linear)"/>
<path d="M146.968 88.8377H80.7762V95.5657H146.968V88.8377Z" fill="url(#paint6_linear)"/>
<path d="M186.982 108.835H80.7762V115.563H186.982V108.835Z" fill="url(#paint7_linear)"/>
<path d="M146.968 128.832H80.7762V135.56H146.968V128.832Z" fill="url(#paint8_linear)"/>
<defs>
<linearGradient id="paint0_linear" x1="292.382" y1="316.756" x2="273.142" y2="680.33" gradientUnits="userSpaceOnUse">
<stop offset="0.01"/>
<stop offset="0.08" stop-opacity="0.69"/>
<stop offset="0.21" stop-opacity="0.32"/>
<stop offset="1" stop-opacity="0"/>
</linearGradient>
<linearGradient id="paint1_linear" x1="297.958" y1="328.923" x2="282.66" y2="535.212" gradientUnits="userSpaceOnUse">
<stop offset="0.01"/>
<stop offset="0.08" stop-opacity="0.69"/>
<stop offset="0.21" stop-opacity="0.32"/>
<stop offset="1" stop-opacity="0"/>
</linearGradient>
<linearGradient id="paint2_linear" x1="599.426" y1="176.951" x2="228.877" y2="381.265" gradientUnits="userSpaceOnUse">
<stop offset="0.01"/>
<stop offset="0.08" stop-opacity="0.69"/>
<stop offset="0.21" stop-opacity="0.32"/>
<stop offset="1" stop-opacity="0"/>
</linearGradient>
<linearGradient id="paint3_linear" x1="46.3988" y1="45.9423" x2="342.521" y2="279.715" gradientUnits="userSpaceOnUse">
<stop offset="0.01"/>
<stop offset="0.08" stop-opacity="0.69"/>
<stop offset="0.21" stop-opacity="0.32"/>
<stop offset="1" stop-opacity="0"/>
</linearGradient>
<linearGradient id="paint4_linear" x1="55.1355" y1="256.019" x2="375.841" y2="442.785" gradientUnits="userSpaceOnUse">
<stop offset="0.01"/>
<stop offset="0.08" stop-opacity="0.69"/>
<stop offset="0.21" stop-opacity="0.32"/>
<stop offset="1" stop-opacity="0"/>
</linearGradient>
<linearGradient id="paint5_linear" x1="131.443" y1="16.5374" x2="137.738" y2="157.564" gradientUnits="userSpaceOnUse">
<stop offset="0.01"/>
<stop offset="0.08" stop-opacity="0.69"/>
<stop offset="0.21" stop-opacity="0.32"/>
<stop offset="1" stop-opacity="0"/>
</linearGradient>
<linearGradient id="paint6_linear" x1="111.782" y1="45.2805" x2="117.106" y2="164.161" gradientUnits="userSpaceOnUse">
<stop offset="0.01"/>
<stop offset="0.08" stop-opacity="0.69"/>
<stop offset="0.21" stop-opacity="0.32"/>
<stop offset="1" stop-opacity="0"/>
</linearGradient>
<linearGradient id="paint7_linear" x1="131.443" y1="56.5316" x2="137.738" y2="197.558" gradientUnits="userSpaceOnUse">
<stop offset="0.01"/>
<stop offset="0.08" stop-opacity="0.69"/>
<stop offset="0.21" stop-opacity="0.32"/>
<stop offset="1" stop-opacity="0"/>
</linearGradient>
<linearGradient id="paint8_linear" x1="111.782" y1="85.2747" x2="117.106" y2="204.155" gradientUnits="userSpaceOnUse">
<stop offset="0.01"/>
<stop offset="0.08" stop-opacity="0.69"/>
<stop offset="0.21" stop-opacity="0.32"/>
<stop offset="1" stop-opacity="0"/>
</linearGradient>
</defs>
</svg>
