<svg width="634" height="633" viewBox="0 0 634 633" fill="none" xmlns="http://www.w3.org/2000/svg">
<path fill-rule="evenodd" clip-rule="evenodd" d="M326.47 22.3898C385.912 32.3802 441.612 49.1649 491.993 80.22C544.542 112.612 598.213 148.595 620.387 203.561C643.074 259.798 635.279 322.997 612.625 379.245C590.678 433.738 541.879 470.769 496.619 510.872C443.468 557.966 399.672 628.723 326.47 632.793C252.964 636.88 192.555 579.573 140.905 530.651C95.8234 487.95 77.443 430.9 54.3081 375.007C29.587 315.281 -8.36845 257.534 1.64552 194.201C12.6106 124.853 45.6373 50.7891 111.042 16.1942C175.094 -17.685 253.993 10.2087 326.47 22.3898Z" fill="#F7B966"/>
<path d="M612.339 101H50.4502V500.326H612.339V101Z" fill="#E6E6E6"/>
<path d="M507.11 152.94C512.698 152.94 517.228 148.41 517.228 142.822C517.228 137.234 512.698 132.704 507.11 132.704C501.522 132.704 496.992 137.234 496.992 142.822C496.992 148.41 501.522 152.94 507.11 152.94Z" fill="#24285B"/>
<path d="M537.465 152.714C543.053 152.714 547.583 148.184 547.583 142.596C547.583 137.008 543.053 132.478 537.465 132.478C531.877 132.478 527.347 137.008 527.347 142.596C527.347 148.184 531.877 152.714 537.465 152.714Z" fill="#4561B5"/>
<path d="M566.02 152.714C571.608 152.714 576.138 148.184 576.138 142.596C576.138 137.008 571.608 132.478 566.02 132.478C560.432 132.478 555.902 137.008 555.902 142.596C555.902 148.184 560.432 152.714 566.02 152.714Z" fill="#FFD200"/>
<path d="M611.439 177.448H50V501H611.439V177.448Z" fill="#F2F2F2"/>
<path d="M471.585 131.804H143.311V152.265H471.585V131.804Z" fill="white"/>
<path d="M471.81 131.804H436.959V152.265H471.81V131.804Z" fill="#C9C9C9"/>
<path d="M105.536 127.307H109.134V121.012C107.335 120.787 105.761 120.787 103.962 120.787C98.7909 120.787 95.1934 124.159 95.1934 130.005V135.626H89.5723V142.597H95.1934V160.135H102.164V142.597H107.56L108.459 135.626H102.164V130.68C102.164 128.656 102.613 127.307 105.536 127.307Z" fill="#A5A5A5"/>
<path d="M197.273 222.191H89.3477V323.372H197.273V222.191Z" fill="#24285B"/>
<path d="M149.157 257.268C151.405 261.54 152.979 266.262 154.104 270.984C154.328 273.457 152.754 275.705 150.281 275.93C146.459 276.605 142.636 275.256 140.388 272.108L134.992 266.037C133.193 263.339 133.193 259.741 134.992 257.043C138.364 251.872 146.908 252.322 149.157 257.268Z" fill="#F4A28C"/>
<path d="M137.69 263.788L136.565 292.568L152.305 292.118L146.908 271.432L137.69 263.788Z" fill="#F4A28C"/>
<path d="M143.31 267.835C143.31 267.835 141.961 264.687 139.713 266.036C137.464 267.385 139.263 271.657 142.636 270.758L143.31 267.835Z" fill="#F4A28C"/>
<path d="M151.405 262.439L155.003 264.687C155.677 265.137 155.902 266.036 155.452 266.711C155.452 266.935 155.228 266.935 155.003 267.16L152.08 268.959L151.405 262.439Z" fill="#F4A28C"/>
<path opacity="0.31" d="M148.258 276.154C146.234 275.929 144.435 275.03 142.861 273.681C143.986 277.728 146.459 281.101 150.056 283.349L148.258 276.154Z" fill="#CE8172"/>
<path d="M137.015 271.658L130.945 261.09C130.945 261.09 125.323 259.291 127.797 254.794C130.27 250.298 133.868 252.321 135.442 246.475C135.891 243.552 138.364 241.529 141.287 241.978C142.637 242.203 143.986 242.878 144.885 244.227C146.909 247.375 154.329 244.002 154.104 249.398C153.879 254.794 147.133 257.043 145.11 257.717C136.566 260.416 147.133 269.634 137.015 271.658Z" fill="#FFD200"/>
<path d="M89.3477 323.597C89.3477 323.597 96.7676 295.267 136.34 292.568L152.304 292.119C152.304 292.119 193.451 290.994 197.273 323.597H89.3477Z" fill="#4561B5"/>
<path d="M127.122 293.693C127.122 293.693 123.75 286.498 136.791 284.924C149.832 283.35 162.648 278.853 161.973 292.793C161.973 292.793 149.832 304.71 127.122 293.693Z" fill="#4561B5"/>
<path opacity="0.46" d="M127.122 293.693C127.122 293.693 123.75 286.498 136.791 284.924C149.832 283.35 162.648 278.853 161.973 292.793C161.973 292.793 149.832 304.71 127.122 293.693Z" fill="white"/>
<path d="M99.4655 361.596C104.929 361.596 109.359 357.167 109.359 351.703C109.359 346.239 104.929 341.81 99.4655 341.81C94.0016 341.81 89.5723 346.239 89.5723 351.703C89.5723 357.167 94.0016 361.596 99.4655 361.596Z" fill="#A5A5A5"/>
<path d="M128.022 346.532H185.357C188.505 346.532 190.978 349.005 190.978 352.153C190.978 355.301 188.505 357.774 185.357 357.774H128.022C124.874 357.774 122.4 355.301 122.4 352.153C122.4 349.005 124.874 346.532 128.022 346.532Z" fill="#C9C9C9"/>
<path d="M99.4655 393.524C104.929 393.524 109.359 389.094 109.359 383.631C109.359 378.167 104.929 373.737 99.4655 373.737C94.0016 373.737 89.5723 378.167 89.5723 383.631C89.5723 389.094 94.0016 393.524 99.4655 393.524Z" fill="#A5A5A5"/>
<path d="M128.022 378.459H185.357C188.505 378.459 190.978 380.932 190.978 384.08C190.978 387.228 188.505 389.701 185.357 389.701H128.022C124.874 389.701 122.4 387.228 122.4 384.08C122.4 380.932 124.874 378.459 128.022 378.459Z" fill="#C9C9C9"/>
<path d="M99.4655 425.227C104.929 425.227 109.359 420.797 109.359 415.334C109.359 409.87 104.929 405.44 99.4655 405.44C94.0016 405.44 89.5723 409.87 89.5723 415.334C89.5723 420.797 94.0016 425.227 99.4655 425.227Z" fill="#A5A5A5"/>
<path d="M128.022 410.162H185.357C188.505 410.162 190.978 412.636 190.978 415.784C190.978 418.931 188.505 421.405 185.357 421.405H128.022C124.874 421.405 122.4 418.931 122.4 415.784C122.4 412.636 124.874 410.162 128.022 410.162Z" fill="#C9C9C9"/>
<path d="M457.195 222.191H220.208V290.544H457.195V222.191Z" fill="white"/>
<path d="M457.195 308.982H220.208V377.335H457.195V308.982Z" fill="white"/>
<path d="M457.195 395.772H220.208V464.125H457.195V395.772Z" fill="white"/>
<path d="M443.03 265.588H403.457V282.901H443.03V265.588Z" fill="#4561B5"/>
<path d="M443.03 350.579H403.457V367.892H443.03V350.579Z" fill="#4561B5"/>
<path d="M443.03 437.818H403.457V455.131H443.03V437.818Z" fill="#4561B5"/>
<path opacity="0.28" d="M443.03 234.783H235.272V241.978H443.03V234.783Z" fill="#C9C9C9"/>
<path opacity="0.28" d="M443.03 249.173H235.272V256.368H443.03V249.173Z" fill="#C9C9C9"/>
<path opacity="0.28" d="M443.03 320.675H235.272V327.87H443.03V320.675Z" fill="#C9C9C9"/>
<path opacity="0.28" d="M443.03 335.289H235.272V342.484H443.03V335.289Z" fill="#C9C9C9"/>
<path opacity="0.28" d="M443.03 408.139H235.272V415.334H443.03V408.139Z" fill="#C9C9C9"/>
<path opacity="0.28" d="M443.03 422.754H235.272V429.949H443.03V422.754Z" fill="#C9C9C9"/>
<path d="M587.83 222.191H478.78V320.674H587.83V222.191Z" fill="#4561B5"/>
<path d="M587.83 343.159H478.78V441.641H587.83V343.159Z" fill="#FFD200"/>
<path d="M523.974 280.201H519.702L517.904 275.704H510.259L508.685 280.201H504.638L512.058 260.864H516.105L523.974 280.201ZM516.779 272.556L514.081 265.361L511.383 272.556H516.779Z" fill="#24285B"/>
<path d="M525.998 260.864H533.193C534.767 260.864 536.116 261.089 536.791 261.314C537.915 261.538 538.814 262.213 539.714 263.112C540.613 264.012 541.063 264.911 541.512 266.26C541.962 267.609 542.187 268.958 542.187 270.757C542.187 272.331 541.962 273.68 541.512 274.804C541.063 276.153 540.388 277.278 539.489 278.177C538.814 278.851 537.915 279.301 536.791 279.751C535.891 279.976 534.767 280.201 533.418 280.201H525.998V260.864ZM529.82 264.012V276.828H532.743C533.868 276.828 534.542 276.828 534.992 276.603C535.666 276.378 536.116 276.153 536.566 275.704C537.015 275.254 537.24 274.804 537.69 273.905C538.14 273.005 538.14 271.881 538.14 270.307C538.14 268.733 537.915 267.609 537.69 266.935C537.465 266.26 537.015 265.586 536.566 265.136C536.116 264.686 535.442 264.461 534.767 264.236C534.317 264.012 533.193 264.012 531.619 264.012H529.82Z" fill="#24285B"/>
<path d="M544.436 273.905L548.258 273.456C548.483 274.805 548.932 275.704 549.607 276.154C550.282 276.603 551.181 277.053 552.53 277.053C553.879 277.053 554.778 276.828 555.453 276.154C556.128 275.479 556.352 275.03 556.352 274.355C556.352 273.905 556.128 273.456 555.903 273.231C555.678 273.006 555.228 272.556 554.554 272.331C554.104 272.107 552.98 271.882 551.406 271.432C549.382 270.982 547.808 270.308 546.909 269.633C545.785 268.509 545.11 267.385 545.11 265.811C545.11 264.911 545.335 264.012 546.009 263.113C546.684 262.213 547.359 261.539 548.483 261.089C549.607 260.639 550.731 260.415 552.305 260.415C554.778 260.415 556.577 260.864 557.701 261.988C558.826 263.113 559.5 264.462 559.725 266.261L555.903 266.485C555.678 265.586 555.453 264.687 554.778 264.237C554.104 263.787 553.429 263.562 552.305 263.562C551.181 263.562 550.282 263.787 549.607 264.237C549.157 264.462 548.932 264.911 548.932 265.361C548.932 265.811 549.157 266.261 549.607 266.485C550.057 266.935 551.406 267.385 553.205 267.834C555.003 268.284 556.577 268.734 557.477 269.184C558.376 269.633 559.051 270.308 559.5 271.207C559.95 272.107 560.175 273.006 560.175 274.355C560.175 275.479 559.95 276.603 559.275 277.503C558.601 278.402 557.701 279.077 556.577 279.751C555.453 280.426 554.104 280.426 552.305 280.426C549.832 280.426 548.033 279.751 546.684 278.627C545.335 277.503 544.66 275.929 544.436 273.905Z" fill="#24285B"/>
<path d="M523.974 401.169H519.702L517.904 396.672H510.259L508.685 401.169H504.638L512.058 381.832H516.105L523.974 401.169ZM516.779 393.524L514.081 386.329L511.383 393.524H516.779Z" fill="#24285B"/>
<path d="M525.998 382.057H533.193C534.767 382.057 536.116 382.282 536.791 382.507C537.915 382.732 538.814 383.407 539.714 384.306C540.613 385.205 541.063 386.105 541.512 387.454C541.962 388.803 542.187 390.152 542.187 391.951C542.187 393.525 541.962 394.874 541.512 395.998C541.063 397.347 540.388 398.471 539.489 399.371C538.814 400.045 537.915 400.495 536.791 400.944C535.891 401.169 534.767 401.394 533.418 401.394H525.998V382.057ZM529.82 385.205V398.022H532.743C533.868 398.022 534.542 398.022 534.992 397.797C535.666 397.572 536.116 397.347 536.566 396.897C537.015 396.448 537.24 395.998 537.69 395.099C538.14 394.199 538.14 393.075 538.14 391.501C538.14 389.927 537.915 388.803 537.69 388.128C537.465 387.454 537.015 386.779 536.566 386.33C536.116 385.88 535.442 385.655 534.767 385.43C534.317 385.205 533.193 385.205 531.619 385.205H529.82Z" fill="#24285B"/>
<path d="M544.436 394.874L548.258 394.424C548.483 395.773 548.932 396.672 549.607 397.122C550.282 397.572 551.181 398.022 552.53 398.022C553.879 398.022 554.778 397.797 555.453 397.122C556.128 396.448 556.352 395.998 556.352 395.323C556.352 394.874 556.128 394.424 555.903 394.199C555.678 393.974 555.228 393.525 554.554 393.3C554.104 393.075 552.98 392.85 551.406 392.4C549.382 391.951 547.808 391.276 546.909 390.602C545.785 389.477 545.11 388.353 545.11 386.779C545.11 385.88 545.335 384.98 546.009 384.081C546.684 383.182 547.359 382.507 548.483 382.057C549.607 381.608 550.731 381.383 552.305 381.383C554.778 381.383 556.577 381.833 557.701 382.957C558.826 384.081 559.5 385.43 559.725 387.229L555.903 387.454C555.678 386.554 555.453 385.655 554.778 385.205C554.104 384.756 553.429 384.531 552.305 384.531C551.181 384.531 550.282 384.756 549.607 385.205C549.157 385.43 548.932 385.88 548.932 386.33C548.932 386.779 549.157 387.229 549.607 387.454C550.057 387.903 551.406 388.353 553.205 388.803C555.003 389.253 556.577 389.702 557.477 390.152C558.376 390.602 559.051 391.276 559.5 392.176C559.95 393.075 560.175 393.974 560.175 395.323C560.175 396.448 559.95 397.572 559.275 398.471C558.601 399.371 557.701 400.045 556.577 400.72C555.453 401.394 554.104 401.394 552.305 401.394C549.832 401.394 548.033 400.72 546.684 399.595C545.335 398.471 544.66 397.122 544.436 394.874Z" fill="#24285B"/>
</svg>
