<svg width="549" height="489" viewBox="0 0 549 489" fill="none" xmlns="http://www.w3.org/2000/svg">
<path fill-rule="evenodd" clip-rule="evenodd" d="M256.439 1.64005C310.845 0.00605839 367.045 -5.65003 414.566 20.9113C465.493 49.3759 503.178 97.2311 524.606 151.527C547.013 208.305 560.084 273.505 536.463 329.788C513.513 384.472 454.71 411.568 403.177 440.859C357.3 466.936 309.191 488.019 256.439 488.955C202.962 489.903 150.244 476.019 105.873 446.132C60.3158 415.446 21.0974 373.011 5.90151 320.199C-9.02552 268.322 7.02813 214.383 24.4932 163.306C41.6956 112.996 61.46 60.5955 105.059 30.2068C148.253 0.100621 203.825 3.22021 256.439 1.64005Z" fill="#E5F0E4"/>
<path d="M331.308 42L37.8673 42.717L38.3882 255.913L331.829 255.196L331.308 42Z" fill="#F2F2F2"/>
<path d="M331.436 42.6216H37.8636V84.2593H331.436V42.6216Z" fill="#E6E6E6"/>
<path d="M10.3247 299.036L76.9978 245.276L102.56 265.7L59.2095 332.109L10.3247 299.036Z" fill="#F4A28C"/>
<path d="M4 294.688L62.1084 334.481L100.057 278.876L59.8684 250.415L4 294.688Z" fill="#7FA66C"/>
<path opacity="0.06" d="M86.0896 268.994L37.8636 318.142L62.1083 334.481L100.057 278.876L86.0896 268.994Z" fill="black"/>
<path d="M276.622 69.238C279.533 69.238 281.892 66.8783 281.892 63.9674C281.892 61.0565 279.533 58.6968 276.622 58.6968C273.711 58.6968 271.351 61.0565 271.351 63.9674C271.351 66.8783 273.711 69.238 276.622 69.238Z" fill="#24285B"/>
<path d="M292.565 69.238C295.476 69.238 297.836 66.8783 297.836 63.9674C297.836 61.0565 295.476 58.6968 292.565 58.6968C289.655 58.6968 287.295 61.0565 287.295 63.9674C287.295 66.8783 289.655 69.238 292.565 69.238Z" fill="#4764BA"/>
<path d="M307.455 69.1066C310.366 69.1066 312.725 66.7469 312.725 63.836C312.725 60.9252 310.366 58.5654 307.455 58.5654C304.544 58.5654 302.184 60.9252 302.184 63.836C302.184 66.7469 304.544 69.1066 307.455 69.1066Z" fill="#FFD200"/>
<path d="M260.942 58.5654H100.716V69.2384H260.942V58.5654Z" fill="white"/>
<path d="M260.942 58.5654H243.944V69.2384H260.942V58.5654Z" fill="#C9C9C9"/>
<path d="M274.909 143.817H102.824V170.829H274.909V143.817Z" fill="white"/>
<path d="M274.909 143.817H236.697V170.829H274.909V143.817Z" fill="#7FA66C"/>
<path d="M225.761 106.923H145.384V121.944H225.761V106.923Z" fill="#A5A5A5"/>
<path d="M122.216 189.046L107.605 229.3L119.124 233.481L133.735 193.227L122.216 189.046Z" fill="#24285B"/>
<path opacity="0.06" d="M173.977 130.509C173.977 130.509 211.53 151.723 188.866 193.888C166.203 236.053 156.057 202.584 145.516 255.686H111.52L127.464 195.996L145.384 197.709L165.28 190.594L176.48 172.674V148.956L173.977 130.509Z" fill="black"/>
<path opacity="0.18" d="M122.216 189.046L107.605 229.3L119.124 233.481L133.735 193.227L122.216 189.046Z" fill="white"/>
<path d="M117.318 209.964L124.697 212.599C127.859 213.785 129.572 217.211 128.386 220.505L116.132 254.105C114.946 257.267 111.52 258.98 108.226 257.794L100.847 255.159C97.6849 253.973 95.972 250.547 97.1578 247.253L109.412 213.653C110.598 210.359 114.156 208.778 117.318 209.964Z" fill="#24285B"/>
<path d="M219.831 217.474H154.476V227.092H219.831V217.474Z" fill="#C9C9C9"/>
<path opacity="0.39" d="M207.972 201.531H166.335V211.149H207.972V201.531Z" fill="#C9C9C9"/>
<path d="M155.003 117.069C132.339 108.768 107.172 120.626 98.8708 143.29C90.5696 166.085 102.428 191.252 125.092 199.554C147.887 207.855 173.055 195.996 181.356 173.332C189.657 150.537 177.798 125.37 155.003 117.069ZM128.913 189.144C111.916 182.951 103.087 164.109 109.28 147.111C115.473 130.113 134.316 121.285 151.313 127.478C168.311 133.671 177.139 152.514 170.946 169.511C164.753 186.509 145.911 195.337 128.913 189.144Z" fill="#FFD200"/>
<path d="M76.9978 245.276C76.9978 245.276 89.7791 231.309 100.057 221.427C110.334 211.544 113.365 229.464 126.146 226.697C138.927 223.93 148.942 271.761 102.56 265.7L76.9978 245.276Z" fill="#F4A28C"/>
<path d="M121.177 156.797L123.632 156.558C123.78 157.382 124.078 157.987 124.527 158.374C124.982 158.76 125.593 158.954 126.36 158.954C127.173 158.954 127.784 158.783 128.193 158.442C128.608 158.095 128.815 157.692 128.815 157.232C128.815 156.936 128.727 156.686 128.551 156.481C128.38 156.271 128.079 156.089 127.647 155.936C127.352 155.833 126.678 155.652 125.627 155.39C124.274 155.055 123.325 154.643 122.78 154.154C122.012 153.466 121.629 152.628 121.629 151.639C121.629 151.003 121.808 150.409 122.166 149.858C122.53 149.301 123.05 148.877 123.726 148.587C124.408 148.298 125.229 148.153 126.19 148.153C127.758 148.153 128.937 148.496 129.727 149.184C130.523 149.872 130.941 150.79 130.981 151.938L128.457 152.048C128.349 151.406 128.116 150.946 127.758 150.667C127.406 150.383 126.874 150.241 126.164 150.241C125.431 150.241 124.857 150.392 124.442 150.693C124.175 150.886 124.041 151.145 124.041 151.469C124.041 151.764 124.166 152.017 124.416 152.227C124.735 152.495 125.508 152.773 126.735 153.063C127.963 153.353 128.869 153.654 129.455 153.967C130.046 154.273 130.506 154.697 130.836 155.237C131.171 155.771 131.339 156.433 131.339 157.223C131.339 157.939 131.14 158.61 130.742 159.235C130.344 159.86 129.781 160.326 129.054 160.633C128.326 160.934 127.42 161.085 126.335 161.085C124.755 161.085 123.541 160.721 122.694 159.994C121.848 159.26 121.342 158.195 121.177 156.797Z" fill="#24285B"/>
<path d="M132.806 160.863V148.366H142.072V150.48H135.329V153.25H141.603V155.356H135.329V158.757H142.311V160.863H132.806Z" fill="#24285B"/>
<path d="M142.018 154.691C142.018 153.418 142.209 152.35 142.59 151.486C142.874 150.849 143.26 150.278 143.749 149.772C144.243 149.266 144.783 148.891 145.369 148.647C146.147 148.317 147.045 148.153 148.062 148.153C149.904 148.153 151.376 148.724 152.478 149.866C153.587 151.008 154.141 152.597 154.141 154.631C154.141 156.649 153.592 158.229 152.495 159.371C151.399 160.508 149.932 161.076 148.097 161.076C146.238 161.076 144.76 160.511 143.664 159.38C142.567 158.243 142.018 156.68 142.018 154.691ZM144.618 154.606C144.618 156.021 144.945 157.095 145.599 157.828C146.252 158.556 147.082 158.919 148.088 158.919C149.094 158.919 149.918 158.559 150.56 157.837C151.208 157.109 151.532 156.021 151.532 154.572C151.532 153.14 151.217 152.071 150.586 151.366C149.961 150.662 149.128 150.309 148.088 150.309C147.048 150.309 146.21 150.667 145.573 151.384C144.937 152.094 144.618 153.168 144.618 154.606Z" fill="#24285B"/>
<path d="M258.043 159.497C260.517 159.497 262.523 157.491 262.523 155.017C262.523 152.543 260.517 150.537 258.043 150.537C255.569 150.537 253.563 152.543 253.563 155.017C253.563 157.491 255.569 159.497 258.043 159.497Z" stroke="white" stroke-miterlimit="10"/>
<path d="M255.935 158.838L252.904 164.109" stroke="white" stroke-miterlimit="10"/>
<path d="M87.6708 58.6968H58.419V69.3697H87.6708V58.6968Z" fill="#24285B"/>
</svg>
