<svg width="544" height="526" viewBox="0 0 544 526" fill="none" xmlns="http://www.w3.org/2000/svg">
<path fill-rule="evenodd" clip-rule="evenodd" d="M301.224 0.0041945C364.287 -0.505643 415.014 45.5489 459.006 90.7657C502.227 135.19 538.28 186.837 543.129 248.646C548.372 315.477 529.951 382.929 485.889 433.427C438.829 487.363 372.747 523.75 301.224 525.891C227.748 528.089 156.954 497.027 105.171 444.82C53.5811 392.807 17.7849 321.439 26.2335 248.646C34.071 181.118 95.562 138.875 145.97 93.2965C192.531 51.1969 238.472 0.511513 301.224 0.0041945Z" fill="#E5EFF3"/>
<path d="M198.236 69H29.929V266.599H198.236V69Z" fill="#E6E6E6"/>
<path d="M332.21 81.2451H219.005V186.647H332.21V81.2451Z" fill="#E6E6E6"/>
<path d="M352.258 204.294H271.586V244.75H352.258V204.294Z" fill="#E6E6E6"/>
<path opacity="0.08" d="M171.466 175.482C171.466 175.482 162.822 173.201 160.661 179.324C158.5 185.446 138.452 177.523 136.052 195.65C134.731 205.734 115.523 223.982 90.4333 229.624C65.3432 235.266 63.7826 266.599 63.7826 266.599H131.85L176.988 200.332L171.466 175.482Z" fill="black"/>
<path opacity="0.45" d="M185.151 369C259.541 369 319.845 355.455 319.845 338.748C319.845 322.04 259.541 308.496 185.151 308.496C110.762 308.496 50.4573 322.04 50.4573 338.748C50.4573 355.455 110.762 369 185.151 369Z" fill="#E6E6E6"/>
<path d="M164.623 202.734C164.623 202.734 105.679 196.491 107.96 227.704C110.241 258.916 143.254 325.183 143.254 325.183H215.643C215.643 325.183 270.505 241.029 243.855 213.898C217.204 186.767 210.961 210.057 164.623 202.734Z" fill="#4561B5"/>
<path d="M143.134 335.386L187.072 347.271L226.208 327.343L232.09 316.779H192.714H130.049L143.134 335.386Z" fill="#24285B"/>
<path d="M136.172 236.467C141.694 217.98 131.25 197.812 111.562 212.577C97.9965 222.661 82.0301 254.954 81.1898 284.846C79.269 353.514 163.543 279.684 173.987 240.309L163.663 234.186C163.663 234.186 146.136 267.079 127.168 274.282C113.363 279.444 128.129 263.718 136.172 236.467Z" fill="#4561B5"/>
<path opacity="0.46" d="M136.172 236.467C141.694 217.98 131.25 197.812 111.562 212.577C97.9965 222.661 82.0301 254.954 81.1898 284.846C79.269 353.514 163.543 279.684 173.987 240.309L163.663 234.186C163.663 234.186 146.136 267.079 127.168 274.282C113.363 279.444 128.129 263.718 136.172 236.467Z" fill="white"/>
<path d="M164.623 202.734C164.623 202.734 155.499 217.02 164.503 222.062C173.507 227.104 176.268 221.341 176.268 221.341C176.268 221.341 182.87 229.144 188.753 223.142C194.635 217.14 193.795 205.015 187.792 199.493C181.79 193.97 164.623 202.734 164.623 202.734Z" fill="white"/>
<path d="M166.664 203.214C167.144 205.855 167.384 208.496 167.504 211.137C167.624 214.738 168.825 220.26 174.587 221.221C183.471 222.901 185.872 208.856 185.872 208.856C185.872 208.856 191.394 195.651 181.79 193.97C173.147 192.289 164.983 191.089 166.664 203.214Z" fill="#F4A28C"/>
<path opacity="0.08" d="M200.877 223.022C200.877 223.022 195.355 234.546 209.281 258.316C217.204 271.881 192.714 294.45 192.714 294.45L131.73 300.573L143.254 325.302H215.643C215.643 325.302 247.456 273.562 249.857 247.031C252.258 220.501 200.877 223.022 200.877 223.022Z" fill="black"/>
<path d="M185.151 209.457C185.151 209.457 185.631 205.135 189.353 205.375C193.074 205.615 191.634 213.418 185.151 209.457Z" fill="#F4A28C"/>
<path d="M168.825 207.055C168.825 207.055 170.145 202.974 166.664 201.533C163.182 200.092 161.262 208.016 168.825 207.055Z" fill="#F4A28C"/>
<path d="M291.394 235.627C297.494 235.627 302.438 230.682 302.438 224.583C302.438 218.483 297.494 213.538 291.394 213.538C285.294 213.538 280.349 218.483 280.349 224.583C280.349 230.682 285.294 235.627 291.394 235.627Z" fill="#C9C9C9"/>
<path d="M146.016 313.058L140.854 266.599H219.005L211.202 315.459L212.282 321.701L145.175 322.182L146.016 313.058Z" fill="#FFD200"/>
<path opacity="0.08" d="M284.551 226.263C284.551 226.263 305.559 228.784 309.761 244.75H295.475L284.551 226.263Z" fill="black"/>
<path d="M177.348 335.386C177.348 335.386 192.234 340.548 187.072 347.271C181.91 353.994 173.987 342.829 173.987 342.829L177.348 335.386Z" fill="#4561B5"/>
<path opacity="0.08" d="M219.005 266.599L203.519 287.008C194.515 298.892 182.27 308.136 168.344 313.418L145.175 322.302L207.12 321.821H212.402L211.322 315.579L219.005 266.599Z" fill="black"/>
<path d="M166.664 203.214C166.664 203.214 152.258 201.173 158.741 190.609C165.223 180.045 166.544 187.968 169.665 179.805C172.786 171.641 175.427 170.081 179.869 173.562C184.311 177.044 179.989 184.366 186.712 182.326C193.434 180.285 197.996 178.364 199.317 183.886C200.637 189.408 199.317 192.17 194.995 194.09C190.673 196.011 197.516 203.454 186.592 206.575C175.667 209.697 170.025 197.692 170.025 197.692L166.664 203.214Z" fill="#24285B"/>
<path d="M177.828 332.746C177.828 332.746 117.924 302.133 112.882 318.46C107.84 334.786 149.017 344.15 175.667 345.111L177.828 332.746Z" fill="#24285B"/>
<path d="M180.709 298.292C184.422 298.292 187.432 295.282 187.432 291.569C187.432 287.857 184.422 284.847 180.709 284.847C176.997 284.847 173.987 287.857 173.987 291.569C173.987 295.282 176.997 298.292 180.709 298.292Z" fill="white"/>
<path d="M192.354 335.146C192.354 335.146 240.133 287.847 249.977 301.773C259.821 315.698 223.327 337.307 198.236 346.311L192.354 335.146Z" fill="#24285B"/>
<path d="M194.275 338.748C194.275 338.748 180.109 351.353 188.273 355.075C196.436 358.796 198.237 346.311 198.237 346.311L194.275 338.748Z" fill="#4561B5"/>
<path d="M200.878 223.022C199.797 211.977 207.84 202.013 218.885 200.933C229.689 199.732 243.855 200.453 256.46 208.376C280.95 223.742 308.08 235.987 301.358 263.838C294.635 291.689 246.136 303.334 246.136 303.334L239.653 292.769C239.653 292.769 282.51 278.364 274.707 255.675C267.624 235.146 205.559 269.24 200.878 223.022Z" fill="#4561B5"/>
<path opacity="0.46" d="M200.878 223.022C199.797 211.977 207.84 202.013 218.885 200.933C229.689 199.732 243.855 200.453 256.46 208.376C280.95 223.742 308.08 235.987 301.358 263.838C294.635 291.689 246.136 303.334 246.136 303.334L239.653 292.769C239.653 292.769 282.51 278.364 274.707 255.675C267.624 235.146 205.559 269.24 200.878 223.022Z" fill="white"/>
<path d="M240.733 294.45C240.733 294.45 227.168 303.574 232.09 306.095C237.012 308.616 245.295 301.893 245.295 301.893L240.733 294.45Z" fill="#F4A28C"/>
<path d="M165.463 235.387C165.463 235.387 170.265 223.502 176.988 224.462C183.711 225.423 173.266 239.949 173.266 239.949L165.463 235.387Z" fill="#F4A28C"/>
<path d="M97.6363 92.5298H48.7767V159.517H97.6363V92.5298Z" fill="#C9C9C9"/>
<path d="M269.425 94.0898H231.61V129.024H269.425V94.0898Z" fill="#C9C9C9"/>
<path opacity="0.44" d="M269.425 138.868H231.61V173.802H269.425V138.868Z" fill="#C9C9C9"/>
<path opacity="0.44" d="M319.605 138.868H281.79V173.802H319.605V138.868Z" fill="#C9C9C9"/>
<path opacity="0.63" d="M234.491 122.541L241.814 111.137L250.578 121.221L258.861 106.695L266.544 122.661V126.743H234.491V122.541Z" fill="white"/>
<path d="M250.217 108.976C252.273 108.976 253.939 107.31 253.939 105.255C253.939 103.199 252.273 101.533 250.217 101.533C248.162 101.533 246.496 103.199 246.496 105.255C246.496 107.31 248.162 108.976 250.217 108.976Z" fill="white"/>
<path d="M319.845 94.0898H282.03V129.024H319.845V94.0898Z" fill="#C9C9C9"/>
<path opacity="0.63" d="M284.911 122.541L292.234 111.137L300.997 121.221L309.281 106.695L317.084 122.661V126.743H284.911V122.541Z" fill="white"/>
<path d="M300.637 108.976C302.693 108.976 304.359 107.31 304.359 105.255C304.359 103.199 302.693 101.533 300.637 101.533C298.582 101.533 296.916 103.199 296.916 105.255C296.916 107.31 298.582 108.976 300.637 108.976Z" fill="white"/>
<path d="M73.8667 183.406H0.997559V225.182H73.8667V183.406Z" fill="#FFD200"/>
<path d="M27.6483 214.618C27.2882 214.618 26.928 214.498 26.5679 214.258L15.7636 205.735C15.4034 205.375 15.1633 204.894 15.1633 204.414C15.1633 203.934 15.4034 203.454 15.7636 203.094L26.5679 194.45C27.2882 193.85 28.3686 193.97 28.9689 194.69C29.5691 195.411 29.449 196.491 28.7288 197.091L19.4851 204.414L28.6087 211.617C29.329 212.217 29.449 213.298 28.8488 214.018C28.6087 214.258 28.1285 214.498 27.6483 214.618Z" fill="#24285B"/>
<path d="M47.216 214.618C46.7358 214.618 46.2556 214.378 45.8955 214.018C45.2952 213.298 45.4153 212.217 46.1356 211.737L55.2592 204.534L46.0155 197.211C45.2952 196.611 45.1752 195.531 45.7754 194.81C46.3757 194.09 47.4561 193.97 48.1764 194.57L58.9807 203.214C59.3409 203.574 59.581 204.054 59.581 204.534C59.581 205.015 59.3409 205.495 58.9807 205.855L48.1764 214.378C47.9363 214.498 47.5762 214.618 47.216 214.618Z" fill="#24285B"/>
<path d="M32.9302 214.618C32.6901 214.618 32.45 214.618 32.2099 214.498C31.3695 214.138 31.0094 213.058 31.3695 212.217L39.2927 194.931C39.6528 194.09 40.6132 193.73 41.4536 194.09C42.2939 194.45 42.654 195.411 42.2939 196.251C42.2939 196.251 42.2939 196.251 42.2939 196.371L34.3707 213.538C34.1306 214.138 33.5304 214.618 32.9302 214.618Z" fill="#24285B"/>
<path d="M73.2665 114.979C76.9794 114.979 79.9892 111.969 79.9892 108.256C79.9892 104.543 76.9794 101.533 73.2665 101.533C69.5537 101.533 66.5438 104.543 66.5438 108.256C66.5438 111.969 69.5537 114.979 73.2665 114.979Z" fill="white"/>
<path opacity="0.56" d="M87.6724 123.502H59.7012V129.024H87.6724V123.502Z" fill="white"/>
<path opacity="0.19" d="M87.6724 136.107H59.7012V141.629H87.6724V136.107Z" fill="white"/>
<path opacity="0.46" d="M183.951 92.5298H114.083V133.946H183.951V92.5298Z" fill="white"/>
<path d="M183.951 145.71H114.083V159.516H183.951V145.71Z" fill="white"/>
<path d="M183.951 145.71H163.663V159.516H183.951V145.71Z" fill="#C9C9C9"/>
<path d="M337.732 217.499H310.722V222.421H337.732V217.499Z" fill="#C9C9C9"/>
<path opacity="0.45" d="M337.732 226.623H310.722V231.545H337.732V226.623Z" fill="#C9C9C9"/>
</svg>
