<svg width="566" height="489" viewBox="0 0 566 489" fill="none" xmlns="http://www.w3.org/2000/svg">
<path fill-rule="evenodd" clip-rule="evenodd" d="M256.439 1.64005C310.845 0.00605839 367.045 -5.65003 414.566 20.9113C465.493 49.3759 503.178 97.2311 524.606 151.527C547.013 208.305 560.084 273.505 536.463 329.788C513.513 384.472 454.71 411.568 403.177 440.859C357.3 466.936 309.191 488.019 256.439 488.955C202.962 489.903 150.244 476.019 105.873 446.132C60.3158 415.446 21.0974 373.011 5.90151 320.199C-9.02552 268.322 7.02813 214.383 24.4932 163.306C41.6956 112.996 61.46 60.5955 105.059 30.2068C148.253 0.100621 203.825 3.22021 256.439 1.64005Z" fill="#E5F0E4"/>
<path d="M564.962 75L231.873 75.8139L232.464 317.816L565.553 317.002L564.962 75Z" fill="#F2F2F2"/>
<path d="M565.107 75.7054H231.868V122.969H565.107V75.7054Z" fill="#E6E6E6"/>
<path d="M200.608 366.766L276.29 305.742L305.306 328.925L256.098 404.308L200.608 366.766Z" fill="#F4A28C"/>
<path d="M193.429 361.83L259.389 407L302.464 343.882L256.846 311.575L193.429 361.83Z" fill="#C5CEEC"/>
<path opacity="0.06" d="M286.61 332.664L231.868 388.454L259.389 407L302.464 343.882L286.61 332.664Z" fill="black"/>
<path d="M502.887 105.918C506.191 105.918 508.869 103.24 508.869 99.9354C508.869 96.6313 506.191 93.9527 502.887 93.9527C499.582 93.9527 496.904 96.6313 496.904 99.9354C496.904 103.24 499.582 105.918 502.887 105.918Z" fill="#24285B"/>
<path d="M520.984 105.918C524.288 105.918 526.967 103.24 526.967 99.9354C526.967 96.6313 524.288 93.9527 520.984 93.9527C517.68 93.9527 515.001 96.6313 515.001 99.9354C515.001 103.24 517.68 105.918 520.984 105.918Z" fill="#4764BA"/>
<path d="M537.886 105.769C541.19 105.769 543.868 103.09 543.868 99.7862C543.868 96.482 541.19 93.8034 537.886 93.8034C534.581 93.8034 531.903 96.482 531.903 99.7862C531.903 103.09 534.581 105.769 537.886 105.769Z" fill="#FFD200"/>
<path d="M485.088 93.8034H303.212V105.918H485.088V93.8034Z" fill="white"/>
<path d="M485.088 93.8034H465.793V105.918H485.088V93.8034Z" fill="#C9C9C9"/>
<path d="M500.942 190.574H305.605V221.236H500.942V190.574Z" fill="white"/>
<path d="M500.942 190.574H457.567V221.236H500.942V190.574Z" fill="#4764BA"/>
<path d="M445.153 148.695H353.916V165.746H445.153V148.695Z" fill="#A5A5A5"/>
<path d="M327.618 241.913L311.032 287.607L324.108 292.353L340.693 246.66L327.618 241.913Z" fill="#24285B"/>
<path opacity="0.06" d="M386.372 175.468C386.372 175.468 428.999 199.548 403.274 247.41C377.548 295.272 366.031 257.282 354.066 317.558H315.477L333.575 249.803L353.916 251.748L376.501 243.671L389.214 223.329V196.407L386.372 175.468Z" fill="black"/>
<path opacity="0.18" d="M327.618 241.913L311.032 287.607L324.108 292.353L340.693 246.66L327.618 241.913Z" fill="white"/>
<path d="M322.058 265.658L330.434 268.649C334.024 269.995 335.968 273.884 334.622 277.623L320.712 315.763C319.366 319.353 315.477 321.297 311.738 319.951L303.362 316.96C299.773 315.614 297.828 311.725 299.174 307.986L313.084 269.846C314.43 266.107 318.469 264.312 322.058 265.658Z" fill="#24285B"/>
<path d="M438.422 274.183H364.236V285.101H438.422V274.183Z" fill="#C9C9C9"/>
<path opacity="0.39" d="M424.961 256.085H377.698V267.004H424.961V256.085Z" fill="#C9C9C9"/>
<path d="M364.835 160.212C339.109 150.789 310.541 164.25 301.118 189.976C291.696 215.851 305.157 244.419 330.883 253.842C356.758 263.264 385.326 249.803 394.748 224.077C404.171 198.202 390.71 169.634 364.835 160.212ZM335.22 242.026C315.926 234.996 305.905 213.608 312.934 194.313C319.964 175.019 341.352 164.998 360.647 172.028C379.941 179.057 389.962 200.446 382.932 219.74C375.903 239.034 354.514 249.055 335.22 242.026Z" fill="#FFD200"/>
<path d="M276.29 305.742C276.29 305.742 290.798 289.888 302.464 278.67C314.131 267.452 317.571 287.794 332.079 284.653C346.587 281.512 357.954 335.805 305.306 328.925L276.29 305.742Z" fill="#F4A28C"/>
<path d="M326.438 205.308L329.225 205.037C329.393 205.972 329.732 206.659 330.241 207.098C330.758 207.536 331.451 207.756 332.322 207.756C333.244 207.756 333.938 207.562 334.402 207.175C334.873 206.782 335.109 206.324 335.109 205.801C335.109 205.466 335.009 205.182 334.809 204.95C334.615 204.711 334.273 204.504 333.783 204.33C333.448 204.214 332.683 204.008 331.49 203.711C329.954 203.33 328.877 202.863 328.258 202.308C327.387 201.527 326.951 200.576 326.951 199.453C326.951 198.731 327.155 198.057 327.561 197.431C327.974 196.799 328.564 196.318 329.332 195.989C330.106 195.66 331.038 195.495 332.128 195.495C333.909 195.495 335.247 195.886 336.144 196.666C337.047 197.447 337.522 198.489 337.567 199.792L334.702 199.918C334.58 199.189 334.315 198.666 333.909 198.35C333.509 198.028 332.906 197.866 332.099 197.866C331.267 197.866 330.616 198.037 330.145 198.379C329.841 198.598 329.69 198.892 329.69 199.26C329.69 199.595 329.832 199.882 330.116 200.121C330.477 200.424 331.354 200.74 332.748 201.069C334.141 201.398 335.17 201.74 335.835 202.095C336.505 202.443 337.028 202.924 337.402 203.537C337.783 204.143 337.973 204.895 337.973 205.791C337.973 206.604 337.747 207.366 337.296 208.075C336.844 208.785 336.205 209.314 335.38 209.662C334.554 210.004 333.525 210.175 332.293 210.175C330.499 210.175 329.122 209.762 328.161 208.936C327.2 208.104 326.626 206.895 326.438 205.308Z" fill="#24285B"/>
<path d="M339.638 209.924V195.737H350.157V198.137H342.503V201.282H349.625V203.672H342.503V207.533H350.428V209.924H339.638Z" fill="#24285B"/>
<path d="M350.096 202.917C350.096 201.472 350.312 200.26 350.744 199.279C351.067 198.557 351.506 197.908 352.06 197.334C352.622 196.76 353.234 196.334 353.899 196.057C354.783 195.683 355.802 195.495 356.957 195.495C359.047 195.495 360.718 196.144 361.969 197.44C363.227 198.737 363.856 200.54 363.856 202.85C363.856 205.14 363.234 206.933 361.989 208.23C360.744 209.52 359.079 210.165 356.995 210.165C354.886 210.165 353.209 209.523 351.964 208.24C350.718 206.949 350.096 205.175 350.096 202.917ZM353.047 202.821C353.047 204.427 353.418 205.646 354.16 206.479C354.902 207.304 355.844 207.717 356.986 207.717C358.128 207.717 359.063 207.307 359.792 206.488C360.527 205.662 360.895 204.427 360.895 202.782C360.895 201.156 360.537 199.944 359.821 199.144C359.111 198.344 358.166 197.944 356.986 197.944C355.805 197.944 354.854 198.35 354.131 199.163C353.409 199.969 353.047 201.189 353.047 202.821Z" fill="#24285B"/>
<path d="M481.797 208.373C484.606 208.373 486.882 206.096 486.882 203.287C486.882 200.479 484.606 198.202 481.797 198.202C478.988 198.202 476.712 200.479 476.712 203.287C476.712 206.096 478.988 208.373 481.797 208.373Z" stroke="white" stroke-miterlimit="10"/>
<path d="M479.404 207.625L475.964 213.608" stroke="white" stroke-miterlimit="10"/>
<path d="M288.405 93.9527H255.201V106.068H288.405V93.9527Z" fill="#24285B"/>
</svg>
