<svg width="23" height="18" viewBox="0 0 23 18" xmlns="http://www.w3.org/2000/svg">
<path d="M20.9785 0H2.02148C0.907422 0 0 0.911846 0 2.03134V15.5736C0 16.6886 0.90293 17.6049 2.02148 17.6049H20.9785C22.0881 17.6049 23 16.6976 23 15.5736V2.03134C23 0.91636 22.0971 0 20.9785 0ZM20.7 1.35423L11.5449 10.5539L2.30898 1.35423H20.7ZM1.34766 15.2937V2.3067L7.83887 8.77087L1.34766 15.2937ZM2.3 16.2507L8.7957 9.72334L11.0732 11.9894C11.3383 12.2512 11.7605 12.2512 12.0256 11.9894L14.2447 9.75945L20.7 16.2507H2.3ZM21.6523 15.2937L15.1926 8.80247L21.6523 2.31121V15.2937Z"/>
</svg>
