<svg width="12" height="13" viewBox="0 0 12 13" xmlns="http://www.w3.org/2000/svg">
<path d="M11.9687 3.6275C11.9405 2.98863 11.8372 2.55175 11.6892 2.17125C11.5366 1.76725 11.3017 1.40789 10.9963 1.10724C10.6957 0.801899 10.3316 0.564671 9.93468 0.416697C9.55182 0.268723 9.11729 0.165376 8.47842 0.13719C7.83485 0.106656 7.63051 0.0996094 6.00044 0.0996094C4.37038 0.0996094 4.16603 0.106656 3.52716 0.134841C2.88829 0.163027 2.45141 0.266374 2.07091 0.414348C1.66691 0.56702 1.30755 0.801899 1.0069 1.10724C0.701558 1.40789 0.464329 1.77195 0.316355 2.1689C0.168381 2.55175 0.0650339 2.98628 0.0368483 3.62515C0.00631397 4.26872 -0.000732422 4.47307 -0.000732422 6.10078C-0.000732422 7.7285 0.00631397 7.93519 0.0344995 8.57407C0.0626851 9.21294 0.166032 9.64981 0.314006 10.0303C0.466678 10.4343 0.703907 10.7937 1.0069 11.0943C1.30755 11.3997 1.67161 11.6369 2.06856 11.7849C2.45141 11.9328 2.88594 12.0362 3.52481 12.0644C4.16368 12.0926 4.36803 12.0996 5.99809 12.0996C7.62816 12.0996 7.8325 12.0926 8.47138 12.0644C9.11025 12.0362 9.54712 11.9328 9.92763 11.7849C10.7333 11.4725 11.3721 10.836 11.6845 10.028C11.8325 9.64512 11.9359 9.21059 11.964 8.57172C11.9922 7.9305 11.9993 7.7285 11.9993 6.09843C11.9993 4.46837 11.9969 4.26872 11.9687 3.6275ZM10.8883 8.52944C10.8625 9.11664 10.7638 9.43138 10.6816 9.64277C10.4796 10.1665 10.0639 10.5799 9.54243 10.7819C9.33103 10.8641 9.0116 10.9628 8.4291 10.9886C7.79492 11.0168 7.60702 11.0239 6.00514 11.0239C4.40326 11.0239 4.21066 11.0168 3.58118 10.9886C2.99398 10.9628 2.67924 10.8641 2.46785 10.7819C2.20714 10.6856 1.96991 10.533 1.77966 10.3333C1.58001 10.1384 1.42734 9.90349 1.33104 9.64512C1.24883 9.43373 1.15018 9.11429 1.12434 8.53179C1.09616 7.89761 1.08911 7.70971 1.08911 6.10783C1.08911 4.50595 1.09616 4.31335 1.12434 3.68387C1.15018 3.09667 1.24883 2.78193 1.33104 2.57054C1.42499 2.30748 1.57766 2.0726 1.77966 1.88C1.97461 1.68035 2.20948 1.52768 2.46785 1.43138C2.67924 1.34917 2.99868 1.25052 3.58118 1.22468C4.21536 1.1965 4.40326 1.18945 6.00514 1.18945C7.60937 1.18945 7.79962 1.1965 8.4291 1.22468C9.0163 1.25052 9.33103 1.34917 9.54243 1.43138C9.80314 1.52768 10.0404 1.68035 10.2306 1.88C10.4303 2.07495 10.5829 2.30983 10.6792 2.57054C10.7615 2.78193 10.8601 3.10137 10.8859 3.68387C10.9141 4.31805 10.9212 4.50595 10.9212 6.10783C10.9212 7.70971 10.9165 7.89526 10.8883 8.52944Z"/>
<path d="M6.00047 3.01953C4.2976 3.01953 2.9165 4.40062 2.9165 6.1035C2.9165 7.80638 4.2976 9.18747 6.00047 9.18747C7.70335 9.18747 9.08444 7.80638 9.08444 6.1035C9.08444 4.40062 7.70335 3.01953 6.00047 3.01953ZM6.00047 8.10233C4.89654 8.10233 3.9993 7.20744 3.9993 6.10115C3.9993 4.99487 4.89419 4.09998 6.00047 4.09998C7.10441 4.09998 8.00165 4.99487 8.00165 6.10115C8.00165 7.20744 7.10676 8.10233 6.00047 8.10233Z"/>
<path d="M9.92764 2.89746C9.92764 3.2944 9.60585 3.61619 9.20891 3.61619C8.81196 3.61619 8.49017 3.2944 8.49017 2.89746C8.49017 2.50051 8.81196 2.17872 9.20891 2.17872C9.6035 2.17637 9.92764 2.50051 9.92764 2.89746Z"/>
</svg>
