<svg width="46" height="36" viewBox="0 0 46 36" xmlns="http://www.w3.org/2000/svg">
<path d="M10.5 36C9.375 36 7.9375 35.625 6.1875 34.875C4.4375 34 2.9375 32.125 1.6875 29.25C0.5625 26.25 0 23.0625 0 19.6875C0 16.3125 1.0625 12.9375 3.1875 9.5625C7.0625 3.4375 12.4375 0.249997 19.3125 0L19.6875 1.6875C16.8125 2.6875 14.625 4 13.125 5.62501C11.625 7.25 10.75 9 10.5 10.875C10.125 14.75 11.375 18.25 14.25 21.375C17.75 25.25 18.875 28.6875 17.625 31.6875C16.375 34.5625 14 36 10.5 36ZM45.9375 1.6875C42.1875 2.9375 39.6875 4.6875 38.4375 6.9375C37.1875 9.0625 36.5625 10.6875 36.5625 11.8125C36.5625 15.3125 37.875 18.5 40.5 21.375C44 25.25 45.125 28.6875 43.875 31.6875C42.625 34.5625 40.3125 36 36.9375 36C32.9375 36 30.125 34.125 28.5 30.375C27 26.625 26.25 23.0625 26.25 19.6875C26.25 16.3125 27.3125 12.9375 29.4375 9.5625C33.3125 3.4375 38.6875 0.249997 45.5625 0L45.9375 1.6875Z"/>
</svg>
