<svg width="188" height="180" viewBox="0 0 188 180" fill="none" xmlns="http://www.w3.org/2000/svg">
<path d="M118.446 14.7373H100.487V17.5477H118.446V14.7373Z" fill="#E6E6E6"/>
<path d="M118.378 11.8584H104.806V14.6688H118.378V11.8584Z" fill="#C9C9C9"/>
<path opacity="0.45" d="M93.6329 180C145.345 180 187.266 173.985 187.266 166.565C187.266 159.145 145.345 153.13 93.6329 153.13C41.9209 153.13 0 159.145 0 166.565C0 173.985 41.9209 180 93.6329 180Z" fill="#E6E6E6"/>
<path d="M137.845 39.9619V52.5057H146.002L147.784 57.5095L149.909 52.5057H157.997V39.9619H137.845Z" fill="#E6E6E6"/>
<path opacity="0.12" d="M146.893 49.0786C146.687 49.0786 146.55 49.0101 146.413 48.873L144.288 46.1312C144.082 45.857 144.151 45.4457 144.356 45.2401C144.631 45.0345 145.042 45.103 145.248 45.3086L146.893 47.4335L151.005 42.9781C151.211 42.7039 151.622 42.7039 151.896 42.9781C152.171 43.1837 152.171 43.595 151.965 43.8692L147.304 48.8044C147.304 48.9415 147.098 49.0786 146.893 49.0786Z" fill="black"/>
<path d="M29.2003 42.8408V55.4532H37.3572L39.1394 60.457L41.2643 55.4532H49.3526V42.8408H29.2003Z" fill="#E6E6E6"/>
<path opacity="0.12" d="M38.2483 51.9574C38.0426 51.9574 37.9055 51.8888 37.7685 51.7517L35.6436 49.0099C35.4379 48.7357 35.5065 48.3244 35.7806 48.1188C36.0548 47.9132 36.3976 47.9817 36.6032 48.2559L38.2483 50.3808L42.361 45.9254C42.6352 45.6512 42.9779 45.6512 43.2521 45.9254C43.5263 46.1995 43.5263 46.5423 43.2521 46.8165L38.591 51.8203C38.591 51.8888 38.4539 51.9574 38.2483 51.9574Z" fill="black"/>
<path d="M134.966 17.5479H52.917V164.715H134.966V17.5479Z" fill="#C9C9C9"/>
<path d="M127.631 34.3413H59.703V137.913H127.631V34.3413Z" fill="white"/>
<path opacity="0.56" d="M94.1813 159.162C98.6105 159.162 102.201 155.572 102.201 151.142C102.201 146.713 98.6105 143.123 94.1813 143.123C89.7521 143.123 86.1615 146.713 86.1615 151.142C86.1615 155.572 89.7521 159.162 94.1813 159.162Z" fill="white"/>
<path opacity="0.12" d="M110.015 23.3052H86.9841V26.6639H110.015V23.3052Z" fill="black"/>
<path d="M78.69 29.1318C80.7721 29.1318 82.46 27.4439 82.46 25.3618C82.46 23.2797 80.7721 21.5918 78.69 21.5918C76.6079 21.5918 74.92 23.2797 74.92 25.3618C74.92 27.4439 76.6079 29.1318 78.69 29.1318Z" fill="white"/>
<path d="M144.219 70.7387C144.014 72.2467 144.014 73.7547 144.219 75.1941C144.357 75.9481 145.111 76.3594 145.796 76.2223C146.961 76.0167 147.921 75.1941 148.195 74.0974L149.086 71.7668C149.36 70.8072 148.949 69.7105 148.127 69.1621C146.756 67.9969 144.357 69.0936 144.219 70.7387Z" fill="#F4A28C"/>
<path opacity="0.08" d="M52.7799 117.692L53.1226 125.164L60.3199 123.656L63.4044 110.701C64.5697 105.697 68.8195 101.927 73.9604 101.378C79.4441 100.761 86.23 100.213 90.5484 100.556C98.7053 101.104 115.979 99.1849 121.805 104.12C127.631 109.055 128.248 122.49 134.966 127.357V118.035L132.978 92.9473L125.575 90.4111L99.3222 94.3182L96.5118 94.798L93.6329 96.3746L87.4639 93.29L51.8888 91.8506L52.7799 117.692Z" fill="black"/>
<path d="M149.018 72.2466L149.977 80.9518L145.11 81.1575L146.344 74.7142L149.018 72.2466Z" fill="#F4A28C"/>
<path d="M44.3489 81.2949L90.5484 91.7824L89.7259 95.6894C89.7259 95.6894 66.6261 95.0725 49.4212 98.4313C32.2163 101.79 44.3489 81.2949 44.3489 81.2949Z" fill="#6EAD68"/>
<path opacity="0.08" d="M44.3489 81.2949L90.5484 91.7824L89.7259 95.6894C89.7259 95.6894 66.6261 95.0725 49.4212 98.4313C32.2163 101.79 44.3489 81.2949 44.3489 81.2949Z" fill="black"/>
<path d="M144.082 72.4521L143.328 73.4803C143.191 73.686 143.191 73.9601 143.397 74.0972C143.465 74.0972 143.465 74.1658 143.534 74.1658L144.562 74.3714L144.082 72.4521Z" fill="#F4A28C"/>
<path d="M143.191 81.2949L97.1973 92.6049L98.4311 95.0725C98.4311 95.0725 120.914 95.0725 138.187 98.3627C155.461 101.653 143.191 81.2949 143.191 81.2949Z" fill="#F4A28C"/>
<path opacity="0.31" d="M146.002 76.1538C146.618 76.0167 147.167 75.7425 147.647 75.2627C147.441 76.4965 146.687 77.6618 145.659 78.4158L146.002 76.1538Z" fill="#CE8172"/>
<path d="M122.285 96.2376L123.45 86.0929L139.695 81.9116L141.546 98.7052C135.034 99.2536 128.454 98.431 122.285 96.2376Z" fill="#6EAD68"/>
<path opacity="0.08" d="M122.285 96.2376L123.45 86.0929L139.695 81.9116L141.546 98.7052C135.034 99.2536 128.454 98.431 122.285 96.2376Z" fill="black"/>
<path d="M139.695 81.9802C139.695 81.9802 160.533 77.3191 168.005 81.5004C175.476 85.6817 160.807 125.164 160.807 125.164L137.776 124.41C137.845 124.41 117.692 85.9558 139.695 81.9802Z" fill="#6EAD68"/>
<path d="M144.356 162.247C144.356 162.247 143.26 164.166 141.409 164.029C139.558 163.892 138.736 165.605 140.312 166.359C141.889 167.113 146.55 165.674 146.55 165.674L146.961 162.247H144.356Z" fill="#6EAD68"/>
<path d="M161.287 161.836C161.287 161.836 162.041 163.892 163.96 164.029C165.88 164.166 166.36 166.017 164.646 166.497C162.932 166.976 158.614 164.852 158.614 164.852L158.751 161.424L161.287 161.836Z" fill="#6EAD68"/>
<path d="M137.845 124.41L143.74 162.178H147.578C147.578 162.178 144.014 133.732 150.251 130.304C156.489 126.877 157.723 162.178 157.723 162.178L161.836 161.835L161.767 122.833L137.845 124.41Z" fill="#24285B"/>
<path d="M43.3206 70.7387C43.5263 72.2467 43.5263 73.7547 43.3206 75.1941C43.1835 75.9481 42.4295 76.3594 41.7441 76.2223C40.5788 76.0852 39.6192 75.1941 39.345 74.0974L38.4539 71.7668C38.1797 70.8072 38.591 69.7105 39.4136 69.1621C40.7845 67.9969 43.1835 69.0936 43.3206 70.7387Z" fill="#F4A28C"/>
<path d="M38.5225 72.2466L37.5628 80.9518L42.4296 81.1575L41.1957 74.7142L38.5225 72.2466Z" fill="#F4A28C"/>
<path d="M43.4578 72.4521L44.2803 73.4803C44.4174 73.686 44.4174 73.9601 44.2117 74.0972C44.1432 74.1658 44.0747 74.1658 44.0747 74.1658L43.0465 74.3714L43.4578 72.4521Z" fill="#F4A28C"/>
<path opacity="0.31" d="M41.5385 76.1538C40.9215 76.0167 40.3732 75.7425 39.9619 75.2627C40.1676 76.4965 40.9215 77.6618 41.9497 78.4158L41.5385 76.1538Z" fill="#CE8172"/>
<path d="M47.8447 81.9802C47.8447 81.9802 27.0069 77.3191 19.5354 81.5004C12.064 85.6817 26.7327 125.164 26.7327 125.164L49.7639 124.41C49.6954 124.41 69.8477 85.9558 47.8447 81.9802Z" fill="#6EAD68"/>
<path d="M43.1836 162.247C43.1836 162.247 44.2803 164.166 46.131 164.029C47.9818 163.892 48.8043 165.605 47.2278 166.359C45.6512 167.113 40.9901 165.674 40.9901 165.674L40.5789 162.247H43.1836Z" fill="#6EAD68"/>
<path d="M26.2529 161.836C26.2529 161.836 25.4989 163.892 23.6482 164.029C21.7974 164.166 21.2491 166.017 22.9627 166.497C24.6763 166.976 28.9947 164.852 28.9947 164.852L28.8576 161.424L26.2529 161.836Z" fill="#6EAD68"/>
<path opacity="0.08" d="M29.6801 85.1333C29.6801 85.1333 36.2605 89.3831 32.9018 99.1851C29.543 108.919 28.9947 115.91 36.9459 113.511C44.8972 111.043 44.2803 100.076 44.2803 100.076L52.3686 101.31L53.1226 116.801L49.6954 124.41L29.6801 123.176L21.5232 121.12L18.5072 110.838L24.0594 93.4958L29.6801 85.1333Z" fill="black"/>
<path d="M49.6954 124.41L43.8005 162.178H39.9619C39.9619 162.178 43.5263 133.732 37.2887 130.304C31.051 126.877 29.8172 162.178 29.8172 162.178L25.7045 161.835L25.773 122.833L49.6954 124.41Z" fill="#24285B"/>
<path d="M25.6359 80.2668C25.6359 80.2668 12.6809 78.0734 12.6809 98.4999C12.6809 118.926 15.7654 137.091 45.7197 118.858L43.4577 115.362C43.4577 115.362 27.3496 122.491 23.9223 116.253C20.495 110.015 37.3572 83.6941 25.6359 80.2668Z" fill="#6EAD68"/>
<path opacity="0.46" d="M25.6359 80.2668C25.6359 80.2668 12.6809 78.0734 12.6809 98.4999C12.6809 118.926 15.7654 137.091 45.7197 118.858L43.4577 115.362C43.4577 115.362 27.3496 122.491 23.9223 116.253C20.495 110.015 37.3572 83.6941 25.6359 80.2668Z" fill="white"/>
<path d="M49.3521 98.4659L45.221 114.885L56.1894 117.645L60.3205 101.225L49.3521 98.4659Z" fill="#FFD200"/>
<path opacity="0.08" d="M160.533 86.1616C160.533 86.1616 155.529 90.1373 158.545 98.774C161.561 107.411 158.682 122.079 149.977 123.656L161.698 122.902L167.662 103.229L160.533 86.1616Z" fill="black"/>
<path d="M42.8408 70.876C42.6352 70.9446 42.4295 71.0131 42.2239 71.0131C41.9497 71.0817 41.6755 71.1502 41.4014 71.2873L41.1957 71.3558C40.853 71.4929 40.6474 71.8357 40.6474 72.1784C40.7845 73.4807 39.8248 74.646 38.5225 74.7831C38.4539 74.7831 38.3854 74.7831 38.3168 74.7831C38.3168 74.7831 36.1919 71.63 37.9056 69.1624C38.9337 67.7915 40.4417 66.9689 42.1554 66.9004C43.2521 66.9004 44.2117 67.7915 44.2117 68.8882C44.2117 69.7793 43.6634 70.5333 42.8408 70.876Z" fill="#24285B"/>
<path d="M40.5788 73.6863C40.7159 73.4807 40.7845 73.2065 40.6474 73.0008C40.5103 72.6581 40.1676 72.1783 39.6877 72.2468C39.2079 72.3154 39.0708 73.1379 39.4136 73.6177C39.6192 73.8919 40.099 73.9605 40.3732 73.7548C40.4417 73.6863 40.4417 73.6863 40.5103 73.6177L40.5788 73.6863Z" fill="#F4A28C"/>
<path d="M142.849 67.9971C143.191 68.5455 143.465 69.0938 143.534 69.7107C143.534 70.3962 144.082 70.9446 144.699 70.9446C144.836 70.9446 144.973 70.9446 145.111 70.876C147.167 70.5333 146.481 74.3718 149.155 73.9606C149.977 73.9606 150.731 73.3437 150.937 72.5211C151.143 71.6986 151.691 71.0131 152.445 70.6018C152.993 70.3277 153.473 69.7793 153.199 68.6826C152.582 66.2149 150.663 69.2995 149.977 66.6262C149.292 63.9529 148.195 64.3642 147.647 64.844C147.098 65.3238 146.55 66.0778 145.659 65.1868C144.768 64.2957 141.683 66.0778 142.849 67.9971Z" fill="#24285B"/>
<path d="M146.961 73.6863C146.824 73.4807 146.756 73.2065 146.893 73.0008C147.03 72.6581 147.304 72.1783 147.852 72.2468C148.401 72.3154 148.469 73.1379 148.126 73.6177C147.921 73.8919 147.441 73.9605 147.167 73.7548C147.098 73.6863 147.098 73.6863 147.03 73.6177L146.961 73.6863Z" fill="#F4A28C"/>
<path d="M90.4113 92.3306L92.1935 92.8789C93.2216 93.1531 93.9756 93.9757 94.1813 95.0038C94.3869 95.9635 94.3869 96.9916 93.6329 97.2658C92.1935 97.8827 89.8629 94.7982 89.8629 94.7982L90.4113 92.3306Z" fill="#F4A28C"/>
<path d="M98.157 92.3306L96.5119 92.8104C95.4151 93.1531 94.5926 94.0442 94.387 95.2095C94.2499 96.032 94.3184 96.9231 94.9353 97.1973C96.3748 97.8142 98.7053 94.7297 98.7053 94.7297L98.157 92.3306Z" fill="#F4A28C"/>
<path d="M93.5644 85.133C104.316 85.133 113.031 76.4174 113.031 65.6661C113.031 54.9148 104.316 46.1992 93.5644 46.1992C82.8131 46.1992 74.0975 54.9148 74.0975 65.6661C74.0975 76.4174 82.8131 85.133 93.5644 85.133Z" fill="#24285B"/>
<path d="M86.4357 65.8721L91.1653 73.5492L100.693 59.9087" stroke="white" stroke-width="5" stroke-linecap="round" stroke-linejoin="round"/>
<path d="M166.017 80.541C170.404 80.9523 176.024 84.7223 179.794 99.2539L166.428 104.052L160.739 87.3955C159.848 84.7223 161.287 81.7748 163.96 80.8152C164.646 80.6096 165.331 80.541 166.017 80.541Z" fill="#6EAD68"/>
<path opacity="0.46" d="M166.017 80.541C170.404 80.9523 176.024 84.7223 179.794 99.2539L166.428 104.052L160.739 87.3955C159.848 84.7223 161.287 81.7748 163.96 80.8152C164.646 80.6096 165.331 80.541 166.017 80.541Z" fill="white"/>
<path d="M35.8492 80.541C35.8492 80.541 36.1234 77.1137 40.1676 78.3475C44.2117 79.5814 44.4174 81.2265 44.4174 81.2265L35.8492 80.541Z" fill="#6EAD68"/>
<path opacity="0.46" d="M35.8492 80.541C35.8492 80.541 36.1234 77.1137 40.1676 78.3475C44.2117 79.5814 44.4174 81.2265 44.4174 81.2265L35.8492 80.541Z" fill="white"/>
<path d="M179.109 99.2539L182.193 110.29C183.701 115.705 180.686 121.394 175.339 123.108L165.948 125.438C164.92 125.712 164.098 126.466 163.823 127.495C163.549 128.454 163.069 129.551 162.247 129.482C158.888 129.208 162.11 124.341 162.11 124.341L171.295 118.652C173.625 117.213 174.448 114.197 173.214 111.729L168.827 103.23L179.109 99.2539Z" fill="#F4A28C"/>
<path d="M109.604 106.862H78.69V121.12H109.604V106.862Z" fill="#FFD200"/>
<path opacity="0.34" d="M104.052 126.397H84.3793V130.579H104.052V126.397Z" fill="#C9C9C9"/>
<path d="M43.869 116.047C43.869 116.047 46.0625 112.688 48.1188 114.402C50.1752 116.116 45.1028 118.035 45.1028 118.035L43.869 116.047Z" fill="#F4A28C"/>
<path opacity="0.46" d="M106.451 109.193H90V112.757H106.451V109.193Z" fill="white"/>
<path opacity="0.58" d="M116.87 11.2415C116.87 11.2415 111.866 9.87063 110.769 5.20954C110.769 5.20954 118.515 3.633 118.789 11.6528L116.87 11.2415Z" fill="#6EAD68"/>
<path opacity="0.73" d="M117.487 10.6931C117.487 10.6931 113.991 5.1409 117.075 0C117.075 0 122.97 3.76999 120.366 10.7616L117.487 10.6931Z" fill="#6EAD68"/>
<path d="M118.446 10.7616C118.446 10.7616 120.297 4.93529 125.918 3.77002C125.918 3.77002 126.946 7.54001 122.285 10.7616H118.446Z" fill="#6EAD68"/>
<path d="M114.745 10.6245L115.773 17.5476H122.216L123.107 10.6245H114.745Z" fill="#24285B"/>
</svg>
