<svg width="221" height="147" viewBox="0 0 221 147" fill="none" xmlns="http://www.w3.org/2000/svg">
<g clip-path="url(#clip0)">
<path d="M23.5381 106.934C23.5381 106.934 24.0807 114.581 27.6759 112.619C31.2711 110.656 26.7941 106.934 26.7941 106.934H23.5381Z" fill="#F4A28C"/>
<path d="M176.976 0H40.6998V105.445H176.976V0Z" fill="#E6E6E6"/>
<path opacity="0.39" d="M78.9576 43.7212H51.9601V53.467H78.9576V43.7212Z" fill="#C9C9C9"/>
<path opacity="0.2" d="M126.169 63.8896H97.8152V95.5637H126.169V63.8896Z" fill="#C9C9C9"/>
<path opacity="0.2" d="M79.229 63.8896H50.8748V95.5637H79.229V63.8896Z" fill="#C9C9C9"/>
<path opacity="0.2" d="M171.55 44.127H139.736V95.4958H171.55V44.127Z" fill="#C9C9C9"/>
<path opacity="0.08" d="M41.1068 36.953C41.1068 36.953 46.3978 35.9378 47.4153 43.0441C48.4328 50.1505 45.6516 55.7002 53.9951 56.9861C62.3386 58.272 72.0387 52.2485 76.8548 65.1753C81.671 78.1021 81.9423 105.445 81.9423 105.445H58.8791L37.8508 51.5041L41.1068 36.953Z" fill="black"/>
<path opacity="0.45" d="M43.6166 147C67.7054 147 87.2333 144.425 87.2333 141.247C87.2333 138.07 67.7054 135.495 43.6166 135.495C19.5278 135.495 0 138.07 0 141.247C0 144.425 19.5278 147 43.6166 147Z" fill="#E6E6E6"/>
<path opacity="0.45" d="M176.569 146.594C201.07 146.594 220.932 144.018 220.932 140.841C220.932 137.664 201.07 135.088 176.569 135.088C152.068 135.088 132.207 137.664 132.207 140.841C132.207 144.018 152.068 146.594 176.569 146.594Z" fill="#E6E6E6"/>
<path opacity="0.58" d="M12.7526 134.412C12.7526 134.412 6.98683 132.855 5.698 127.508C5.698 127.508 14.652 125.681 14.9233 134.885L12.7526 134.412Z" fill="#6EAD68"/>
<path opacity="0.73" d="M13.4309 133.87C13.4309 133.87 9.36096 127.509 12.9561 121.553C12.9561 121.553 19.7394 125.884 16.7548 133.87H13.4309Z" fill="#6EAD68"/>
<path d="M14.5163 133.87C14.5163 133.87 16.6191 127.102 23.1311 125.816C23.1311 125.816 24.3521 130.148 18.9254 133.87H14.5163Z" fill="#6EAD68"/>
<path d="M10.3106 133.667L11.4638 141.653L18.8576 141.721L19.9429 133.735L10.3106 133.667Z" fill="#24285B"/>
<path d="M34.7305 57.1895C34.7305 57.1895 8.95393 75.4629 22.9275 106.934H26.794C26.794 106.934 24.759 84.1259 34.7983 73.2972C44.8376 62.4685 34.7305 57.1895 34.7305 57.1895Z" fill="#6EAD68"/>
<path opacity="0.2" d="M34.7305 57.1895C34.7305 57.1895 8.95393 75.4629 22.9275 106.934H26.794C26.794 106.934 24.759 84.1259 34.7983 73.2972C44.8376 62.4685 34.7305 57.1895 34.7305 57.1895Z" fill="white"/>
<path d="M41.7852 47.3755L43.9558 53.9404L38.8005 57.189L36.9012 45.8188L41.7852 47.3755Z" fill="#F4A28C"/>
<path d="M35.341 41.8938C36.0872 40.2695 37.9865 39.525 39.6145 40.2695C40.0215 40.4725 40.3606 40.7432 40.6998 41.014C42.4635 42.8413 44.5663 45.8192 42.1921 47.4435C38.5291 49.88 35.2053 45.2778 35.2053 45.2778C34.934 44.1272 35.0018 42.9767 35.341 41.8938Z" fill="#F4A28C"/>
<path d="M38.4613 43.5178C38.4613 43.5178 37.2403 42.5026 36.7655 43.9239C36.2228 45.3451 38.3256 46.0219 38.9361 45.2774C39.5466 44.533 38.4613 43.5178 38.4613 43.5178Z" fill="#F4A28C"/>
<path d="M41.3665 87.5453L15.9604 94.1431L20.5739 111.828L45.98 105.23L41.3665 87.5453Z" fill="#FFD200"/>
<path opacity="0.08" d="M28.9647 90.7584L33.0347 102.738L32.8312 108.626L38.6648 107.137L41.3103 96.5111L34.1879 89.4048L28.9647 90.7584Z" fill="black"/>
<path d="M32.6955 60.4377C34.2557 56.9184 37.3082 54.2789 41.039 53.1283C48.0936 51.0303 61.1175 53.3314 65.1197 59.964C70.5463 69.033 62.6099 97.7292 62.6099 97.7292L38.8683 99.5565C38.8683 99.5565 25.7087 76.004 32.6955 60.4377Z" fill="#6EAD68"/>
<path d="M62.6099 97.7295L59.4895 138.54H54.5377L50.1286 106.799L39.2075 99.5568L62.6099 97.7295Z" fill="#24285B"/>
<path d="M39.2075 99.5566L32.3564 138.54H37.6474L49.1111 106.189L39.2075 99.5566Z" fill="#24285B"/>
<path d="M126.169 45.21H114.163V59.4227H126.169V45.21Z" fill="#C9C9C9"/>
<path opacity="0.08" d="M43.074 52.5195C43.074 52.5195 31.9493 88.2543 64.1022 90.6231L62.6099 97.6618L38.8683 99.4892C38.8683 99.4892 30.457 86.427 30.7962 67.9505C30.7962 67.9505 30.9997 58.8137 37.4438 54.8206C39.1396 53.6701 41.039 52.9256 43.074 52.5195Z" fill="black"/>
<path d="M33.5774 138.405L30.3892 140.774C30.05 140.977 29.9822 141.383 30.1179 141.721C30.2535 141.924 30.5249 142.059 30.7962 142.059H36.155C36.562 142.059 36.8333 141.789 36.8333 141.383V138.472L33.5774 138.405Z" fill="#6EAD68"/>
<path d="M58.8791 138.405L61.8637 140.774C62.2029 140.977 62.3385 141.383 62.135 141.653C61.9994 141.924 61.728 142.059 61.3889 141.992H57.5902C56.4371 141.992 55.5552 141.112 55.5552 139.961V138.405H58.8791Z" fill="#6EAD68"/>
<path d="M35.4767 46.631C35.4767 46.631 36.6298 48.7291 38.5292 48.0523C40.4285 47.3755 39.0718 42.9086 39.0718 42.9086C39.0718 42.9086 41.3781 39.5923 41.039 36.9528C40.9033 36.1407 40.1572 35.5992 39.3432 35.7346C38.8683 35.8023 38.4613 36.1407 38.2578 36.6144C37.783 37.4266 36.969 37.968 36.0193 37.968C32.7634 38.3064 29.7787 43.4501 35.4767 46.631Z" fill="#24285B"/>
<path d="M52.0958 63.1449C50.6713 60.0317 52.0279 56.377 55.0804 54.9557C56.9119 54.1435 59.0147 54.2112 60.7784 55.2264C64.6449 57.3921 68.5792 61.2499 70.0715 68.1532C73.531 83.6518 74.4807 102.399 74.4807 102.399L70.5464 102.805C70.5464 102.805 66.1372 83.5165 58.6756 73.0261C56.9119 70.4543 53.6559 66.5289 52.0958 63.1449Z" fill="#6EAD68"/>
<path opacity="0.2" d="M52.0958 63.1449C50.6713 60.0317 52.0279 56.377 55.0804 54.9557C56.9119 54.1435 59.0147 54.2112 60.7784 55.2264C64.6449 57.3921 68.5792 61.2499 70.0715 68.1532C73.531 83.6518 74.4807 102.399 74.4807 102.399L70.5464 102.805C70.5464 102.805 66.1372 83.5165 58.6756 73.0261C56.9119 70.4543 53.6559 66.5289 52.0958 63.1449Z" fill="white"/>
<path d="M71.3603 102.602C71.3603 102.602 69.3254 108.287 71.903 108.558C75.2946 108.964 74.5485 102.264 74.5485 102.264L71.3603 102.602Z" fill="#F4A28C"/>
<path opacity="0.08" d="M178.469 101.587C178.469 101.587 179.69 43.3827 176.027 38.1037C176.027 38.1037 172.839 37.2239 171.685 42.0292C170.532 46.8344 169.922 48.2557 172.296 49.4739C174.67 50.6921 173.449 57.3247 169.108 57.1894C164.766 57.054 159.272 55.7004 157.169 59.3551C155.066 63.0098 153.913 86.7653 145.095 80.9449C136.277 75.1245 136.412 59.5582 136.412 59.5582L120.743 59.4228V72.0112L133.021 71.7405C133.021 71.7405 134.581 93.1272 151.878 97.8648C155.405 98.8123 157.44 102.399 156.559 105.851C156.559 105.986 156.491 106.054 156.491 106.189" fill="black"/>
<path d="M175.281 54.7529C175.281 54.7529 165.241 53.3993 163.206 61.7916C161.171 70.1838 160.9 81.757 152.828 84.0581C144.756 86.3592 140.279 70.2515 140.279 70.2515C140.279 70.2515 138.379 65.717 136.412 65.1079C134.445 64.4987 132.953 68.9656 136.412 71.6728C136.412 71.6728 139.329 92.2474 154.795 91.5029C170.261 90.7584 175.281 69.7101 175.281 54.7529Z" fill="#F4A28C"/>
<path opacity="0.08" d="M175.281 54.7529C175.281 54.7529 165.241 53.3993 163.206 61.7916C161.171 70.1838 160.9 81.757 152.828 84.0581C144.756 86.3592 140.279 70.2515 140.279 70.2515C140.279 70.2515 138.379 65.717 136.412 65.1079C134.445 64.4987 132.953 68.9656 136.412 71.6728C136.412 71.6728 139.329 92.2474 154.795 91.5029C170.261 90.7584 175.281 69.7101 175.281 54.7529Z" fill="black"/>
<path d="M175.281 54.7527C175.281 54.7527 164.495 52.6546 163.003 61.3176C162.189 66.3259 160.764 71.1988 158.797 75.8011L167.005 78.4406L175.281 54.7527Z" fill="#6EAD68"/>
<path opacity="0.46" d="M175.281 54.7527C175.281 54.7527 164.495 52.6546 163.003 61.3176C162.189 66.3259 160.764 71.1988 158.797 75.8011L167.005 78.4406L175.281 54.7527Z" fill="white"/>
<path d="M175.688 40.2016C174.806 42.0289 174.195 43.9916 173.856 45.9543C173.72 46.9695 174.467 47.8493 175.484 47.9847C177.044 48.2554 178.604 47.5786 179.486 46.225L181.589 43.6532C182.335 42.5027 182.267 41.0137 181.453 39.8632C180.165 37.7651 176.569 38.1712 175.688 40.2016Z" fill="#F4A28C"/>
<path d="M180.368 44.1948L181.114 54.7528H175.281L177.044 47.3081L180.368 44.1948Z" fill="#F4A28C"/>
<path d="M174.806 42.7056L173.517 43.5854C173.246 43.7208 173.178 44.0592 173.381 44.3299C173.449 44.3976 173.449 44.4652 173.517 44.4652L174.602 45.142L174.806 42.7056Z" fill="#F4A28C"/>
<path opacity="0.31" d="M176.976 47.511C177.655 47.3756 178.333 47.0372 178.876 46.5635C178.876 46.5635 179.283 48.8646 176.434 49.6091L176.976 47.511Z" fill="#CE8172"/>
<path d="M178.74 44.0595C178.74 44.0595 179.283 42.7736 180.232 43.2474C181.182 43.7211 180.436 45.6162 179.011 45.2778L178.74 44.0595Z" fill="#F4A28C"/>
<path d="M164.699 114.92L159.747 137.39H162.596L172.228 114.92H164.699Z" fill="#F4A28C"/>
<path d="M180.843 112.213L186.134 137.39H188.983L188.576 112.01L180.843 112.213Z" fill="#F4A28C"/>
<path d="M159.747 137.389C159.747 137.389 158.119 139.42 156.084 139.284C154.049 139.149 153.71 142.059 157.033 141.789C158.051 141.721 159.068 141.518 160.086 141.247C161.036 141.044 161.985 141.044 162.867 141.315C163.206 141.383 163.613 141.247 163.817 140.909C164.766 139.826 162.46 137.322 162.46 137.322H159.747V137.389Z" fill="#6EAD68"/>
<path d="M188.779 137.389C188.779 137.389 190.407 139.42 192.442 139.284C194.477 139.149 194.816 142.059 191.493 141.789C190.475 141.721 189.458 141.518 188.44 141.247C187.49 141.044 186.541 141.044 185.659 141.315C185.32 141.383 184.913 141.247 184.709 140.909C183.76 139.826 186.066 137.322 186.066 137.322H188.779V137.389Z" fill="#6EAD68"/>
<path d="M175.281 54.7529H181.114C181.114 54.7529 181.521 54.7529 182.199 54.7529C195.02 55.159 202.414 69.304 195.63 80.1328C191.832 86.1562 187.355 94.2778 187.016 99.083L164.224 97.9325C164.224 97.9325 165.92 83.1783 161.714 74.7861C161.782 74.8538 153.981 61.5209 175.281 54.7529Z" fill="#6EAD68"/>
<path opacity="0.08" d="M185.456 62.5361C185.456 62.5361 182.607 68.3566 181.928 78.9146C181.25 89.4726 165.241 77.0196 165.241 77.0196L164.495 94.3455L187.762 95.5637L189.729 88.5251C189.729 88.5251 195.834 77.6287 185.456 62.5361Z" fill="black"/>
<path d="M176.564 67.2153L161.406 68.9863L164.151 92.3787L179.31 90.6077L176.564 67.2153Z" fill="#FFD200"/>
<path d="M172.405 66.196L165.331 67.0225L165.734 70.4506L172.808 69.6242L172.405 66.196Z" fill="#24285B"/>
<path d="M164.563 94.3452L187.83 95.5634L194.002 119.048L160.425 117.898L164.563 94.3452Z" fill="#24285B"/>
<path opacity="0.08" d="M162.324 77.0195L178.469 83.3814L179.283 90.6231L164.156 92.4505L162.324 77.0195Z" fill="black"/>
<path d="M185.659 63.619C185.523 60.9118 187.694 58.6107 190.407 58.4753C191.967 58.4077 193.46 59.0845 194.409 60.3027C197.733 64.2281 199.429 69.3041 199.293 74.4477C199.09 88.1867 197.258 103.076 167.48 86.8331L169.108 82.5016C169.108 82.5016 182.335 88.8634 187.83 86.7654C191.9 85.2088 186.066 73.0941 185.659 63.619Z" fill="#F4A28C"/>
<path d="M169.176 82.4337C169.176 82.4337 164.224 80.0649 162.121 82.4337C160.018 84.8024 163.342 86.9005 167.615 86.7651L169.176 82.4337Z" fill="#F4A28C"/>
<path d="M175.145 38.5094L173.992 41.352L178.74 43.1793C178.74 43.1793 179.011 46.3603 177.316 46.9017C178.13 46.834 178.808 46.4956 179.351 45.9542C179.758 45.4804 180.436 45.4804 180.911 45.8865L180.978 45.9542C182.335 44.6006 183.285 42.9763 183.692 41.0812C184.234 38.3064 181.114 37.8326 181.114 37.8326C181.114 37.8326 177.044 34.8547 175.145 38.5094Z" fill="#24285B"/>
<path d="M181.182 37.7651C181.182 37.7651 181.386 35.058 186.269 35.5317C191.153 36.0055 186.269 42.5027 190.272 48.5939C190.272 48.5939 182.946 47.0372 182.742 40.4723L181.182 37.7651Z" fill="#24285B"/>
<path d="M180.911 37.5623C181.657 37.1562 182.607 37.2239 183.285 37.7654C184.642 38.6452 185.252 41.8261 183.081 42.909C183.014 42.909 184.845 38.6452 180.911 37.5623Z" fill="#FFD200"/>
<path d="M187.558 78.5082H200.243C200.243 78.5082 201.6 60.0316 191.153 57.6629C180.707 55.2941 187.558 78.5082 187.558 78.5082Z" fill="#6EAD68"/>
<path d="M134.242 15.1602H131.935V97.7292H134.242V15.1602Z" fill="#C9C9C9"/>
<path opacity="0.46" d="M187.558 78.5082H200.243C200.243 78.5082 201.6 60.0316 191.153 57.6629C180.707 55.2941 187.558 78.5082 187.558 78.5082Z" fill="white"/>
<path d="M140.821 57.46H126.983V69.0332H140.821V57.46Z" fill="#6EAD68"/>
<path d="M163.478 25.7861H149.64V37.3593H163.478V25.7861Z" fill="#6EAD68"/>
<path d="M71.5638 27.2749H57.3867V39.0511H71.5638V27.2749Z" fill="#24285B"/>
<path opacity="0.26" d="M66.1372 24.5679H62.8812V30.1176H66.1372V24.5679Z" fill="white"/>
<path d="M106.43 76.0039H92.2529V87.7802H106.43V76.0039Z" fill="#24285B"/>
<path opacity="0.26" d="M101.003 73.2969H97.7474V78.8466H101.003V73.2969Z" fill="white"/>
<path d="M117.962 27.0039H103.785V38.8478H117.962V27.0039Z" fill="#FFD200"/>
<path opacity="0.26" d="M112.535 24.2295H109.279V29.7792H112.535V24.2295Z" fill="white"/>
<path opacity="0.26" d="M157.915 24.0264H154.659V29.5761H157.915V24.0264Z" fill="white"/>
<path d="M89.5396 15.1602H87.2333V97.7292H89.5396V15.1602Z" fill="#C9C9C9"/>
<path d="M76.0408 9.74561H52.1636V16.3105H76.0408V9.74561Z" fill="#C9C9C9"/>
<path opacity="0.58" d="M121.76 9.74561H97.8831V16.3105H121.76V9.74561Z" fill="#C9C9C9"/>
<path opacity="0.3" d="M167.412 9.74561H143.535V16.3105H167.412V9.74561Z" fill="#C9C9C9"/>
<path opacity="0.58" d="M110.364 47.105H97.8831V51.3011H110.364V47.105Z" fill="#C9C9C9"/>
<path opacity="0.58" d="M110.364 54.6172H97.8831V58.8133H110.364V54.6172Z" fill="#C9C9C9"/>
</g>
<defs>
<clipPath id="clip0">
<rect width="221" height="147" fill="white"/>
</clipPath>
</defs>
</svg>
