<svg width="189" height="180" viewBox="0 0 189 180" fill="none" xmlns="http://www.w3.org/2000/svg">
<path d="M184.198 0H128.758V70.0604H184.198V0Z" fill="#E6E6E6"/>
<path opacity="0.2" d="M131.074 14.6924C131.074 14.6924 141.206 13.7515 141.424 22.4367C141.424 22.4367 140.7 38.2148 147.286 45.5248C153.872 52.8348 170.446 36.4054 175.079 70.1328H158.722L136.285 52.6901L129.843 28.5163L131.074 14.6924Z" fill="#A5A5A5"/>
<path d="M166.104 39.5172C171.94 39.5172 176.671 34.7862 176.671 28.9503C176.671 23.1143 171.94 18.3833 166.104 18.3833C160.268 18.3833 155.537 23.1143 155.537 28.9503C155.537 34.7862 160.268 39.5172 166.104 39.5172Z" fill="white"/>
<path d="M161.399 27.9372L164.294 32.3522L169.867 25.5488" stroke="#A5A5A5" stroke-width="4" stroke-linecap="round" stroke-linejoin="round"/>
<path opacity="0.4" d="M175.585 6.65869H154.524V11.7974H175.585V6.65869Z" fill="#A5A5A5"/>
<path d="M65.7901 0H10.3498V70.0604H65.7901V0Z" fill="#E6E6E6"/>
<path opacity="0.2" d="M63.4017 14.6924C63.4017 14.6924 53.269 13.7515 53.0519 22.4367C53.0519 22.4367 53.7757 38.2148 47.1894 45.5248C40.6032 52.8348 24.029 36.4054 19.3969 70.1328H35.7539L58.1906 52.6901L64.6321 28.5163L63.4017 14.6924Z" fill="#A5A5A5"/>
<path d="M76.719 44.5114C76.719 44.5114 85.3318 54.7165 88.9506 60.8685C92.5694 67.0205 105.163 68.5404 113.486 53.0519C118.408 43.8601 119.566 38.9385 123.691 41.9059C127.817 44.8733 118.408 57.3221 118.408 57.3221C118.408 57.3221 114.21 86.1279 76.719 77.298C28.0097 65.8625 76.719 44.5114 76.719 44.5114Z" fill="#D88B7C"/>
<path opacity="0.45" d="M94.3065 180C146.391 180 188.613 173.94 188.613 166.466C188.613 158.991 146.391 152.931 94.3065 152.931C42.2225 152.931 0 158.991 0 166.466C0 173.94 42.2225 180 94.3065 180Z" fill="#E6E6E6"/>
<path d="M151.267 46.9002C155.682 63.5468 161.617 106.755 101.399 101.617V95.6819C101.399 95.6819 128.902 91.4841 132.521 79.6143C135.561 69.4816 126.514 42.7747 139.759 39.7349C144.825 38.5045 149.892 41.8338 151.267 46.9002Z" fill="#73A865"/>
<path opacity="0.08" d="M151.267 46.9002C155.682 63.5468 161.617 106.755 101.399 101.617V95.6819C101.399 95.6819 128.902 91.4841 132.521 79.6143C135.561 69.4816 126.514 42.7747 139.759 39.7349C144.825 38.5045 149.892 41.8338 151.267 46.9002Z" fill="black"/>
<path d="M73.3173 18.8903C73.3173 18.8903 73.8239 24.4633 72.883 28.1545C72.5212 29.6744 71.0013 30.5429 69.4814 30.181C67.5996 29.6744 65.2835 28.444 64.6321 25.5489L62.9675 20.6997C62.4608 18.6008 63.4017 16.5019 65.2111 15.3439C68.251 13.0278 73.1726 15.4886 73.3173 18.8903Z" fill="#F4A28C"/>
<path d="M63.7636 21.9297L57.3945 35.9707L65.6454 42.1227L67.3101 28.9502L63.7636 21.9297Z" fill="#F4A28C"/>
<path d="M71.9422 19.1075C70.2051 19.1798 68.4681 19.0351 66.8034 18.7456C67.8167 20.2655 67.8167 22.292 66.8034 23.8843C65.8625 25.4042 63.9084 26.0556 62.2437 25.4042L62.3161 18.2389C62.2437 16.14 63.4017 14.1859 65.2111 13.1726C66.0073 12.7383 66.8034 12.3041 67.5996 12.0146C69.6985 11.2184 72.6659 12.5936 74.5477 11.1461C75.1267 10.7118 75.9952 10.8565 76.4295 11.4356C76.5742 11.5803 76.6466 11.7974 76.6466 12.0146C76.9361 14.1859 76.5742 17.6599 73.6068 18.818C73.1002 19.0351 72.5212 19.1075 71.9422 19.1075Z" fill="#24285B"/>
<path d="M67.3824 23.6672C67.3824 23.6672 67.3824 21.4959 65.7178 21.713C64.0531 21.9301 64.1255 24.97 66.3692 25.2595L67.3824 23.6672Z" fill="#F4A28C"/>
<path d="M73.4621 22.4365L74.982 24.6078C75.2715 24.9697 75.1991 25.5487 74.7648 25.8382C74.6201 25.9106 74.5477 25.983 74.403 25.983L72.304 26.4172L73.4621 22.4365Z" fill="#F4A28C"/>
<path opacity="0.31" d="M67.31 29.3126C66.2244 28.6612 65.3559 27.7927 64.7769 26.707C64.7769 26.707 62.8227 30.1811 66.8758 33.0762L67.31 29.3126Z" fill="#CE8172"/>
<path d="M120.29 20.6276C120.29 20.6276 119.783 26.2006 120.724 29.8918C121.086 31.4117 122.606 32.2802 124.126 31.9183C126.007 31.4117 128.323 30.1813 128.975 27.2862L130.639 22.437C131.146 20.3381 130.205 18.2392 128.396 17.0812C125.284 14.7651 120.362 17.2259 120.29 20.6276Z" fill="#F4A28C"/>
<path d="M129.843 23.667L136.14 37.708L127.889 43.86L126.224 30.6875L129.843 23.667Z" fill="#F4A28C"/>
<path d="M126.152 25.4768C126.152 25.4768 126.224 23.3055 127.817 23.4503C129.409 23.595 129.409 26.7072 127.165 26.9967L126.152 25.4768Z" fill="#F4A28C"/>
<path d="M120.145 24.1738L118.625 26.3451C118.335 26.707 118.408 27.286 118.842 27.5755C118.987 27.6479 119.059 27.7203 119.204 27.7203L121.303 28.1545L120.145 24.1738Z" fill="#F4A28C"/>
<path opacity="0.31" d="M126.297 31.0494C127.382 30.398 128.251 29.5295 128.83 28.4438C128.83 28.4438 130.784 31.9179 126.731 34.813L126.297 31.0494Z" fill="#CE8172"/>
<path d="M88.444 60.0003L82.7262 78.4563L71.0736 76.5745L76.2847 43.8604C76.2847 43.8604 84.8975 53.1969 88.444 60.0003Z" fill="#73A865"/>
<path opacity="0.08" d="M88.444 60.0003L82.7262 78.4563L71.0736 76.5745L76.2847 43.8604C76.2847 43.8604 84.8975 53.1969 88.444 60.0003Z" fill="black"/>
<path d="M161.472 102.34L155.247 162.196H148.878L143.957 115.223L132.666 106.683L161.472 102.34Z" fill="#24285B"/>
<path d="M132.666 106.683V162.268H140.193L147.069 113.341L132.666 106.683Z" fill="#24285B"/>
<path d="M72.8831 40.2415C69.0471 37.274 64.415 35.6818 59.5658 35.6094C51.7492 35.6094 38.649 41.4719 35.9711 61.0859C33.2932 80.6999 36.0435 102.34 36.0435 102.34L64.7769 106.683C64.7769 106.683 96.4778 60.8687 72.8831 40.2415Z" fill="#73A865"/>
<path opacity="0.08" d="M67.3824 102.412L64.7769 106.682L36.0435 102.34C36.0435 102.34 30.2533 60.0721 42.6297 46.1758L52.4729 61.2301L67.3824 102.412Z" fill="black"/>
<path d="M123.691 41.9061C127.455 38.8662 132.159 37.2016 137.009 37.0568C144.825 36.9845 157.998 42.6298 161.038 62.1715C164.077 81.7131 161.544 103.426 161.544 103.426L132.811 108.203C132.811 108.203 100.458 62.8228 123.691 41.9061Z" fill="#73A865"/>
<path d="M41.3269 51.4594C38.2147 68.3955 35.6092 111.894 95.2474 102.195L94.8131 96.2604C94.8131 96.2604 67.0929 94.2338 62.5332 82.5812C58.6973 72.738 65.7178 45.3798 52.3281 43.3532C47.117 42.5571 42.3402 46.2483 41.3269 51.4594Z" fill="#F4A28C"/>
<path d="M39.9518 51.6044C38.649 57.6841 38.7214 64.0532 40.1689 70.0604L61.1581 69.9157C61.1581 69.9157 64.6322 48.3475 55.5127 42.8469C55.5127 42.8469 53.3414 40.9651 48.9989 42.0508C44.4391 43.2812 40.8927 46.9724 39.9518 51.6044Z" fill="#73A865"/>
<path opacity="0.2" d="M39.9518 51.6044C38.649 57.6841 38.7214 64.0532 40.1689 70.0604L61.1581 69.9157C61.1581 69.9157 64.6322 48.3475 55.5127 42.8469C55.5127 42.8469 53.3414 40.9651 48.9989 42.0508C44.4391 43.2812 40.8927 46.9724 39.9518 51.6044Z" fill="white"/>
<path d="M62.3885 162.268C62.3885 162.268 63.0399 165.236 65.5007 165.742C67.9615 166.249 68.3233 168.854 65.9349 169.216C63.5465 169.578 58.0459 165.815 58.0459 165.815L58.6973 162.196L62.3885 162.268Z" fill="#73A865"/>
<path d="M27.503 162.268C27.503 162.268 26.8516 165.236 24.3909 165.742C21.9301 166.249 21.5682 168.854 23.8842 169.216C26.2003 169.578 31.7732 165.815 31.7732 165.815L31.1219 162.196L27.503 162.268Z" fill="#73A865"/>
<path opacity="0.08" d="M134.114 54.7891C134.114 54.7891 130.857 66.4417 141.496 75.2716C152.135 84.1015 150.253 99.8072 129.843 103.643L132.811 108.203L163.498 102.992L164.946 81.496L153.945 59.3488L134.114 54.7891Z" fill="black"/>
<path d="M95.6546 94.32L91.8298 94.6143L92.4572 102.769L96.2821 102.475L95.6546 94.32Z" fill="#FFD200"/>
<path d="M117.322 17.0086C117.322 17.0086 115.947 20.917 121.23 20.9894C126.514 21.0617 124.343 25.9109 128.541 26.2005C132.738 26.49 133.462 24.7529 133.245 21.6407C133.028 18.5286 133.534 12.5213 128.975 11.4357C124.415 10.35 116.598 9.26437 117.322 17.0086Z" fill="#FFD200"/>
<path d="M133.173 51.4592C132.738 44.3663 140.266 39.3724 146.779 42.2674C156.044 46.2481 171.243 53.8477 173.921 69.8428C178.118 95.1022 165.959 104.439 152.135 115.295L149.023 108.926C149.023 108.926 165.887 90.6872 156.261 73.9683C148.806 61.1577 133.752 61.23 133.173 51.4592Z" fill="#73A865"/>
<path opacity="0.2" d="M133.173 51.4592C132.738 44.3663 140.266 39.3724 146.779 42.2674C156.044 46.2481 171.243 53.8477 173.921 69.8428C178.118 95.1022 165.959 104.439 152.135 115.295L149.023 108.926C149.023 108.926 165.887 90.6872 156.261 73.9683C148.806 61.1577 133.752 61.23 133.173 51.4592Z" fill="white"/>
<path d="M149.385 109.65L145.621 111.46L148.878 117.033L152.063 115.223L149.385 109.65Z" fill="#F4A28C"/>
<path d="M64.7769 106.683V162.268H57.2497L50.374 113.341L64.7769 106.683Z" fill="#24285B"/>
<path d="M106.9 94.5235L107.624 102.051C107.624 102.051 101.834 104.656 98.4319 102.702C95.0302 100.748 99.3728 92.2074 106.9 94.5235Z" fill="#D88B7C"/>
<path d="M134.475 162.268C134.475 162.268 133.824 165.236 131.363 165.742C128.902 166.249 128.541 168.854 130.929 169.216C133.317 169.578 138.818 165.815 138.818 165.815L138.167 162.196L134.475 162.268Z" fill="#73A865"/>
<path d="M150.253 162.268C150.253 162.268 149.602 165.236 147.141 165.742C144.68 166.249 144.319 168.854 146.707 169.216C149.095 169.578 154.596 165.815 154.596 165.815L153.945 162.196L150.253 162.268Z" fill="#73A865"/>
<path d="M35.9711 102.34L25.5489 162.196L33.5103 162.268L50.6635 115.223L64.7769 106.683L35.9711 102.34Z" fill="#24285B"/>
<path d="M95.754 96.1158C95.754 96.1158 98.07 93.5102 100.531 94.6683C102.992 95.8263 101.11 95.8987 103.281 97.1291C105.452 98.3595 108.637 103.932 96.2606 102.557L95.754 96.1158Z" fill="#F4A28C"/>
<path d="M28.4439 39.5172C34.2799 39.5172 39.0109 34.7862 39.0109 28.9503C39.0109 23.1143 34.2799 18.3833 28.4439 18.3833C22.608 18.3833 17.877 23.1143 17.877 28.9503C17.877 34.7862 22.608 39.5172 28.4439 39.5172Z" fill="white"/>
<path d="M24.6803 27.9372L27.5754 32.4246L33.076 25.5488" stroke="#A5A5A5" stroke-width="4" stroke-linecap="round" stroke-linejoin="round"/>
<path opacity="0.4" d="M40.0241 6.65869H18.8902V11.7974H40.0241V6.65869Z" fill="#A5A5A5"/>
</svg>
