<svg width="222" height="169" viewBox="0 0 222 169" fill="none" xmlns="http://www.w3.org/2000/svg">
<path opacity="0.2" d="M12.9032 39.7093C20.0295 39.7093 25.8065 33.9323 25.8065 26.8061C25.8065 19.6798 20.0295 13.9028 12.9032 13.9028C5.77697 13.9028 0 19.6798 0 26.8061C0 33.9323 5.77697 39.7093 12.9032 39.7093Z" fill="#FFD200"/>
<path opacity="0.2" d="M209.097 25.9031C216.223 25.9031 222 20.1262 222 12.9999C222 5.87365 216.223 0.0966797 209.097 0.0966797C201.971 0.0966797 196.194 5.87365 196.194 12.9999C196.194 20.1262 201.971 25.9031 209.097 25.9031Z" fill="#FFD200"/>
<path d="M171.936 32.1611H47.2258V119.193H171.936V32.1611Z" fill="#E6E6E6"/>
<path opacity="0.08" d="M155.032 42.9353C155.032 42.9353 152.968 42.7417 152.968 47.2579C152.968 51.774 156.645 55.0643 156.645 55.0643L155.742 63.2579C155.742 63.2579 135.161 58.5482 132.452 72.6127C129.742 86.6772 130.968 96.8708 121.935 92.1611C112.903 87.4514 108.774 67.903 108.774 67.903C108.774 67.903 102.903 67.1934 104.839 73.9676C106.774 80.7417 106.645 105.968 120.839 107.129C135.032 108.29 144.387 110.419 142.774 119.193H173.29V87.7095L161.677 54.1611L160.387 45.3869L155.032 42.9353Z" fill="black"/>
<path opacity="0.08" d="M53.0968 71.645C53.0968 71.645 57.2903 70.3547 57.871 76.6773C58.3871 82.9999 63.2903 86.4192 64.7742 93.1289C66.2581 99.8386 76.0645 92.6773 80.6452 102.29C80.6452 102.29 88.3226 95.0644 94.129 99.4515C99.9355 103.839 88.3226 104.226 88.3226 104.226L83.2258 117L98.4516 117.193L103.355 100.29L107.484 100.935L103.548 119.129L59.2903 118.355L53.0968 90.4192L49.8065 80.2257L53.0968 71.645Z" fill="black"/>
<path d="M72.8387 121.451L86 99.7741C86 99.7741 90.9032 99.7741 91.7419 97.7741C92.2581 96.5483 89.2258 96.2257 86.8387 96.1612C85.2258 96.0966 83.6774 96.7418 82.5806 97.9031L66.3226 114.548C66.3226 114.484 63.0968 124.419 72.8387 121.451Z" fill="#F4A28C"/>
<path opacity="0.08" d="M72.8387 121.451L86 99.7741C86 99.7741 90.9032 99.7741 91.7419 97.7741C92.2581 96.5483 89.2258 96.2257 86.8387 96.1612C85.2258 96.0966 83.6774 96.7418 82.5806 97.9031L66.3226 114.548C66.3226 114.484 63.0968 124.419 72.8387 121.451Z" fill="black"/>
<path d="M90.9678 131.322C90.9678 131.322 95.7419 135.774 89.5484 135.645C83.3548 135.516 85.6774 130.677 90.9678 131.322Z" fill="#6EAD68"/>
<path d="M53.2258 80.5485C53.2258 80.5485 62.4516 87.4517 58.0645 90.0969C53.6774 92.742 50.3871 79.9033 50.3871 79.9033L53.2258 80.5485Z" fill="#24285B"/>
<path opacity="0.45" d="M104.774 169C156.475 169 198.387 164.494 198.387 158.936C198.387 153.377 156.475 148.871 104.774 148.871C53.0732 148.871 11.1613 153.377 11.1613 158.936C11.1613 164.494 53.0732 169 104.774 169Z" fill="#E6E6E6"/>
<path d="M53.2258 74.6771C53.6129 76.29 53.742 77.9674 53.742 79.6448C53.6774 80.4836 52.9032 81.0642 52.0645 80.9997C50.7742 80.9352 49.6129 80.0965 49.0968 78.9352L47.8065 76.4836C47.4194 75.4513 47.6774 74.2255 48.5807 73.4513C50.0645 71.9029 52.8387 72.8706 53.2258 74.6771Z" fill="#F4A28C"/>
<path d="M48.0645 77.9033L48.9677 87.7098L54.3226 86.8065L51.5484 80.0324L48.0645 77.9033Z" fill="#F4A28C"/>
<path d="M50.3871 77.6452C50.3871 77.6452 50.1936 76.4839 49.3549 76.742C48.5161 77.0001 48.7742 78.613 49.9355 78.613L50.3871 77.6452Z" fill="#F4A28C"/>
<path d="M53.5484 76.5483L54.5161 77.5806C54.7097 77.7741 54.7097 78.0967 54.5161 78.2258C54.4516 78.2903 54.3871 78.2903 54.3226 78.3548L53.2258 78.7419L53.5484 76.5483Z" fill="#F4A28C"/>
<path d="M73.2258 123.322C73.2258 123.322 91.5484 118.677 93.9355 126.806C96.3226 134.935 68.3226 134.096 68.3226 134.096L61.9355 129.064L73.2258 123.322Z" fill="#24285B"/>
<path d="M54.3226 86.8062C54.3226 86.8062 64.9677 87.9029 72.4516 96.4191C76.9032 101.451 75.2258 105.645 73.0968 108.226C71.3548 110.484 70.7742 113.451 71.6774 116.161L73.871 123.064C73.871 123.064 62.129 130.677 54.6452 129.838C47.2258 129.064 23.7419 87.9674 54.3226 86.8062Z" fill="#6EAD68"/>
<path opacity="0.08" d="M39.871 95.4517C39.0968 98.0323 38.8387 100.742 39.2258 103.387C39.9355 107.323 43.6129 133.258 68.0645 126.226L73.9355 123L67.7419 117.774L55.871 105.387L50.7097 95.4517H39.871Z" fill="black"/>
<path d="M48.1935 113C42.9677 97.1289 19.5484 99.7095 17.5484 116.29C15.4839 133.451 17.8064 157.064 45.4194 160.161C89.2903 165.064 96.1936 145.193 90 134.742C83.8064 124.29 53.0323 129.774 48.3871 113.71C48.3226 113.451 48.2581 113.258 48.1935 113Z" fill="#E6E6E6"/>
<path d="M84.3871 121.968C84.3871 121.968 90.5161 123.451 90.9677 119.58L84.2581 119.193L84.3871 121.968Z" fill="#F4A28C"/>
<path d="M47.2258 95.903C47.1613 93.3224 49.2258 91.1934 51.8064 91.1934C52.7097 91.1934 53.5484 91.4514 54.3226 91.903C56.3871 93.2579 58.5161 96.1611 59.7419 101.774C62.1935 112.742 68.2581 117.451 84.3871 118.871V121.968C84.3871 121.903 47.871 131.193 47.2258 95.903Z" fill="#F4A28C"/>
<path d="M52.5807 75.3869C53.6774 74.9353 54.1936 73.645 53.742 72.5482C53.6129 72.2256 53.3549 71.9031 53.0968 71.7095C52.7742 71.4514 52.3871 71.2579 52 71.0644C49.4194 69.9676 43.3549 70.7418 43.742 76.5482C44.129 82.3547 34.4516 95.516 43.2258 99.1289C52 102.742 59.2258 97.9676 59.2258 93.7095C59.2258 89.4515 50.9032 88.4192 50.3871 84.7418C50.1936 83.1934 49.9355 81.645 49.8065 80.2256C49.5484 78.1611 50.7097 76.1611 52.5807 75.3869Z" fill="#24285B"/>
<path d="M99.4194 117.064H80.4516V119.774H99.4194V117.064Z" fill="#FFD200"/>
<path d="M96.9033 118.419L103.032 98.355L104.774 98.7421L99.4194 119.774L96.9033 118.419Z" fill="#FFD200"/>
<path opacity="0.45" d="M32.7742 137.71C29.6774 134.871 24.8387 137.968 26.1936 141.968C28.0645 147.581 32.4516 153.065 42 154.677C63.4194 158.29 61.3549 150.419 59.9355 146.936C58.8387 144.097 44.5807 148.484 32.7742 137.71Z" fill="white"/>
<path opacity="0.39" d="M116.516 66.5483H100.839V69.258H116.516V66.5483Z" fill="#A5A5A5"/>
<path opacity="0.18" d="M116.516 72.6128H100.839V75.3225H116.516V72.6128Z" fill="#A5A5A5"/>
<path opacity="0.39" d="M144.129 66.5483H128.452V69.258H144.129V66.5483Z" fill="#A5A5A5"/>
<path opacity="0.18" d="M144.129 72.6128H128.452V75.3225H144.129V72.6128Z" fill="#A5A5A5"/>
<path d="M152.645 64.8065C150.129 61.9678 145.806 61.6452 142.968 64.1613C142.774 64.3549 142.581 64.5484 142.387 64.742C137.936 69.6452 135.484 75.9678 135.355 82.5484C134.903 97.8387 124.065 96.3549 112.839 71.3226L107.419 74.2904C107.419 74.2904 122.323 123.774 145.032 95.7097C158.903 78.6129 156.581 69.3871 152.645 64.8065Z" fill="#6EAD68"/>
<path opacity="0.08" d="M150.323 62.6127C148.452 61.2579 145.936 61.3869 144.194 62.9353C138.645 67.9676 135.484 75.0643 135.355 82.5482C134.903 97.8385 124.065 96.3546 112.839 71.3224L107.419 74.2901C107.419 74.2901 122.323 123.774 145.032 95.7095C161.548 75.2579 155.097 66.0966 150.323 62.6127Z" fill="black"/>
<path d="M157.032 45.7096C157.032 45.7096 156.581 49.258 157.032 51.7096C157.226 52.6774 158.194 53.3225 159.161 53.129C160.71 52.8709 161.935 51.7741 162.387 50.2903L163.613 47.1935C164 45.8387 163.484 44.4838 162.323 43.7096C160.516 42.0322 157.226 43.5161 157.032 45.7096Z" fill="#F4A28C"/>
<path d="M163.484 47.7095L164.839 59.3869L158.323 59.7095L159.936 51.0643L163.484 47.7095Z" fill="#F4A28C"/>
<path d="M157.935 45.9032C159.032 45.9677 160.194 45.9677 161.29 45.7741C160.581 46.7419 160.516 48.0322 161.161 49.0645C161.742 50.0967 162.968 50.5483 164.065 50.1612L164.194 45.5161C164.258 44.1612 163.613 42.8709 162.452 42.1612C162 41.8387 161.484 41.5806 160.968 41.3225C159.677 40.7419 157.677 41.5161 156.516 40.5483C156.129 40.2258 155.613 40.2903 155.29 40.6774C155.226 40.8064 155.161 40.9354 155.097 41.0645C154.839 42.4838 154.968 44.6774 156.839 45.5161C157.161 45.7741 157.548 45.8387 157.935 45.9032Z" fill="#24285B"/>
<path d="M160.774 48.9353C160.774 48.9353 160.839 47.516 161.936 47.7095C163.032 47.9031 162.839 49.8386 161.419 49.9676L160.774 48.9353Z" fill="#F4A28C"/>
<path d="M156.903 47.9678L155.871 49.3226C155.677 49.5807 155.742 49.9678 156 50.1613C156.065 50.2258 156.129 50.2258 156.194 50.2904L157.548 50.6129L156.903 47.9678Z" fill="#F4A28C"/>
<path opacity="0.31" d="M159.484 52.9357C160.323 52.7422 161.032 52.3551 161.677 51.7744C161.677 51.7744 161.484 53.9034 159.032 55.968L159.484 52.9357Z" fill="#CE8172"/>
<path d="M151.548 59.5806C151.548 59.5806 175.742 54.1612 184.452 58.9999C193.161 63.8386 176.129 109.71 176.129 109.71L149.419 108.871C149.419 108.871 126 64.2257 151.548 59.5806Z" fill="#6EAD68"/>
<path d="M156.968 152.677C156.968 152.677 155.742 154.935 153.548 154.742C151.355 154.548 150.452 156.613 152.323 157.451C154.194 158.29 159.548 156.613 159.548 156.613L160 152.677H156.968Z" fill="#6EAD68"/>
<path d="M176.581 152.226C176.581 152.226 177.484 154.613 179.677 154.806C181.871 155 182.452 157.129 180.516 157.709C178.581 158.29 173.484 155.774 173.484 155.774L173.613 151.774L176.581 152.226Z" fill="#6EAD68"/>
<path d="M111.742 71.903C111.742 71.903 112.065 66.3546 108.516 64.9997C104.968 63.6449 108.516 73.6449 108.516 73.6449L111.742 71.903Z" fill="#F4A28C"/>
<path opacity="0.08" d="M172.581 63.2578C172.581 63.2578 164.968 68.2256 168.839 79.5159C172.71 90.8062 173.355 98.9352 164.194 96.0965C155.032 93.2578 155.677 80.6127 155.677 80.6127L146.323 82.032L145.419 100.032L149.419 108.806L172.645 107.322L182.129 104.871L185.677 93.0643L179.226 72.9352L172.581 63.2578Z" fill="black"/>
<path d="M149.355 108.806L156.194 152.677H160.645C160.645 152.677 156.516 119.71 163.742 115.71C170.968 111.71 172.387 152.677 172.387 152.677L177.161 152.29L177.097 107.064L149.355 108.806Z" fill="#24285B"/>
<path d="M177.29 57.5807C177.29 57.5807 192.387 55.0646 192.387 78.742C192.387 102.419 188.774 123.516 154 102.419L156.645 98.3549C156.645 98.3549 175.355 106.613 179.355 99.3872C183.355 92.1614 163.742 61.5807 177.29 57.5807Z" fill="#6EAD68"/>
<path opacity="0.46" d="M177.29 57.5807C177.29 57.5807 192.387 55.0646 192.387 78.742C192.387 102.419 188.774 123.516 154 102.419L156.645 98.3549C156.645 98.3549 175.355 106.613 179.355 99.3872C183.355 92.1614 163.742 61.5807 177.29 57.5807Z" fill="white"/>
<path d="M116.516 47.2578H100.839V61.0643H116.516V47.2578Z" fill="#FFD200"/>
<path opacity="0.46" d="M110.774 43.8384H106.968V51.5158H110.774V43.8384Z" fill="white"/>
<path d="M88.3226 47.2578H72.6452V61.0643H88.3226V47.2578Z" fill="#A5A5A5"/>
<path opacity="0.46" d="M82.5161 43.8384H78.7097V51.5158H82.5161V43.8384Z" fill="white"/>
<path d="M144.129 47.2578H128.452V61.0643H144.129V47.2578Z" fill="#A5A5A5"/>
<path d="M149.8 78.6544L137.036 81.8657L141.837 100.949L154.601 97.7375L149.8 78.6544Z" fill="#FFD200"/>
<path opacity="0.46" d="M138.323 43.8384H134.516V51.5158H138.323V43.8384Z" fill="white"/>
<path d="M156.645 98.3546C156.645 98.3546 150.387 93.3869 149.355 97.1933C148.323 101 154.903 101 154.903 101L156.645 98.3546Z" fill="#F4A28C"/>
<path opacity="0.39" d="M88.3226 66.5483H72.6452V69.258H88.3226V66.5483Z" fill="#A5A5A5"/>
<path opacity="0.18" d="M88.3226 72.6128H72.6452V75.3225H88.3226V72.6128Z" fill="#A5A5A5"/>
<path d="M217.097 14.5482C218.194 10.2256 215.613 5.77399 211.226 4.67721C206.839 3.58044 202.452 6.16108 201.355 10.5482C200.839 12.5482 201.097 14.6772 202.129 16.5482C202.968 18.0321 203.161 19.774 202.71 21.3869L202.645 21.645L210.452 23.645L210.516 23.4514C210.968 21.774 212 20.3546 213.484 19.5159C215.29 18.2901 216.581 16.5482 217.097 14.5482Z" fill="#FFD200"/>
<path d="M204.516 22.0966C204.387 22.0966 204.258 21.9676 204.323 21.7741L205.226 11.387C205.226 11.2579 205.355 11.1289 205.548 11.1289C205.677 11.1289 205.806 11.2579 205.806 11.387L204.903 21.7741C204.839 21.9676 204.71 22.0966 204.516 22.0966C204.581 22.0966 204.581 22.0966 204.516 22.0966Z" fill="white"/>
<path d="M208.645 23.1289C208.452 23.0644 208.387 22.8708 208.452 22.7418L212.645 13.1934C212.71 13.0644 212.839 12.9999 213.032 13.0644C213.161 13.1289 213.226 13.3224 213.161 13.4515L208.968 22.9999C208.903 23.0644 208.774 23.1289 208.645 23.1289Z" fill="white"/>
<path d="M202.506 20.1725L200.698 27.2354L209.636 29.5234L211.444 22.4605L202.506 20.1725Z" fill="#24285B"/>
<path d="M209.548 14.6775C209.161 14.5485 208.839 14.2259 208.71 13.7743C208.645 13.5807 208.516 13.4517 208.387 13.4517C208.129 13.3872 207.677 13.7743 207.548 13.9678C207.419 14.0969 207.29 14.0969 207.161 13.9678C207.032 13.8388 207.032 13.7098 207.161 13.5807C207.226 13.5162 207.871 12.8065 208.516 12.9356C208.839 13.0001 209.161 13.2581 209.226 13.5807C209.355 13.8388 209.484 14.0969 209.742 14.1614C210 14.2259 210.323 13.9033 210.387 13.8388C210.452 13.7098 210.645 13.6452 210.774 13.7743C210.903 13.8388 210.968 14.0323 210.839 14.1614C210.839 14.1614 210.839 14.2259 210.774 14.2259C210.516 14.613 210.065 14.8065 209.613 14.8065L209.548 14.6775Z" fill="white"/>
<path opacity="0.21" d="M215.058 10.4335C215.735 9.56089 215.394 8.16294 214.296 7.31111C213.198 6.45927 211.759 6.47611 211.082 7.34872C210.405 8.22133 210.746 9.61926 211.844 10.4711C212.942 11.3229 214.381 11.3061 215.058 10.4335Z" fill="white"/>
<path d="M20.9677 25.6451C20.6452 21.1935 16.7742 17.7742 12.3226 18.0968C7.87096 18.4193 4.4516 22.2903 4.77418 26.8064C4.90322 28.871 5.87096 30.871 7.41935 32.2258C8.64515 33.3871 9.41935 34.9355 9.54838 36.6129V36.871L17.5484 36.2903V36.0968C17.4193 34.4193 18 32.6774 19.0968 31.3871C20.4516 29.8387 21.1613 27.7742 20.9677 25.6451Z" fill="#FFD200"/>
<path d="M11.4839 36.8064C11.3548 36.8064 11.2258 36.7418 11.1613 36.6128L8.70967 26.4838C8.64516 26.3548 8.77419 26.1612 8.90322 26.1612C9.03225 26.0967 9.2258 26.2257 9.2258 26.3548L11.6129 36.4838C11.7419 36.6128 11.6129 36.7418 11.4839 36.8064Z" fill="white"/>
<path d="M15.6774 36.4839C15.4839 36.4839 15.3548 36.3548 15.3548 36.1613L16.3226 25.7742C16.3226 25.6451 16.4516 25.5161 16.6452 25.5161C16.7742 25.5161 16.9032 25.6451 16.9032 25.8387L15.9355 36.2258C15.9355 36.4193 15.8064 36.4839 15.6774 36.4839Z" fill="white"/>
<path d="M18.1235 35.0755L8.91984 35.7207L9.42965 42.9935L18.6333 42.3484L18.1235 35.0755Z" fill="#24285B"/>
<path d="M13.871 28.1614C13.4194 28.1614 13.0323 27.9678 12.7742 27.5807C12.6452 27.4517 12.5161 27.3226 12.3871 27.3872C12.129 27.4517 11.8065 27.9033 11.7419 28.0968C11.6774 28.2259 11.5484 28.2904 11.3548 28.2259C11.2258 28.1614 11.1613 28.0323 11.2258 27.8388C11.2903 27.7097 11.6774 26.871 12.3226 26.742C12.6452 26.6775 13.0323 26.871 13.2258 27.1291C13.4194 27.3226 13.6774 27.5162 13.871 27.5162C14.0645 27.5162 14.3226 27.0646 14.3871 27.0001C14.4516 26.871 14.5806 26.8065 14.7742 26.871C14.9677 26.9355 14.9677 27.0646 14.9032 27.2581C14.9032 27.3226 14.5806 28.0323 13.9355 28.1614H13.871Z" fill="white"/>
<path opacity="0.21" d="M17.787 22.4152C18.1545 21.3736 17.3901 20.1544 16.0797 19.6921C14.7693 19.2297 13.409 19.6993 13.0416 20.741C12.6741 21.7826 13.4385 23.0017 14.7489 23.4641C16.0593 23.9264 17.4195 23.4568 17.787 22.4152Z" fill="white"/>
<path opacity="0.32" d="M176.258 51.774C176.258 51.774 206.065 67.9031 204.323 30.6772" stroke="#A5A5A5" stroke-width="2" stroke-linecap="round" stroke-linejoin="round" stroke-dasharray="2 2"/>
<path opacity="0.32" d="M13.4194 47.3223C13.4194 47.3223 0.645156 83.2577 36.4516 85.5158" stroke="#A5A5A5" stroke-width="2" stroke-linecap="round" stroke-linejoin="round" stroke-dasharray="2 2"/>
</svg>
