<svg width="220" height="150" viewBox="0 0 220 150" fill="none" xmlns="http://www.w3.org/2000/svg">
<path opacity="0.3" d="M34.4997 32.1068C14.4912 45.202 2.65892 69.2654 4.52018 94.3924C5.51729 107.222 9.83806 119.719 21.6703 126.366C53.2453 144.314 190.912 144.181 209.724 112.806C229.068 80.4995 222.42 35.6299 178.481 16.7514C140.326 0.398906 86.1496 -1.72825 34.4997 32.1068Z" fill="#E6E6E6"/>
<path d="M54.9736 0H4.5867V47.0632H54.9736V0Z" fill="#FFD200"/>
<path opacity="0.08" d="M50.121 5.25146H9.5722V41.7454H50.121V5.25146Z" fill="black"/>
<path opacity="0.57" d="M9.5722 41.878L20.075 20.54L29.7802 35.4301L39.4188 22.4013L50.121 41.878H9.5722Z" fill="white"/>
<path d="M82.2942 50.3867C82.2942 50.3867 71.5255 56.9676 59.6932 86.0165C52.7799 103.034 33.2367 50.3867 33.2367 50.3867L23.6646 55.2393C23.6646 55.2393 36.8928 100.242 55.3059 110.08C73.7191 119.918 90.271 103.964 91.2016 84.2217C92.1323 64.4791 82.2942 50.3867 82.2942 50.3867Z" fill="#73A865"/>
<path opacity="0.25" d="M82.2942 50.3867C82.2942 50.3867 71.5255 56.9676 59.6932 86.0165C52.7799 103.034 33.2367 50.3867 33.2367 50.3867L23.6646 55.2393C23.6646 55.2393 36.8928 100.242 55.3059 110.08C73.7191 119.918 90.271 103.964 91.2016 84.2217C92.1323 64.4791 82.2942 50.3867 82.2942 50.3867Z" fill="white"/>
<path d="M83.8896 111.277C83.8896 111.277 54.9736 50.7857 94.3259 46.0661C133.678 41.3465 153.886 41.8783 156.877 65.0775C159.869 88.2768 142.253 111.277 142.253 111.277H83.8896Z" fill="#73A865"/>
<path d="M69.4648 100.109L65.3434 82.1611H93.8606L89.2074 101.505L88.8086 105.36L70.0631 104.297L69.4648 100.109Z" fill="#FFD200"/>
<path d="M79.8347 93.1295C81.193 93.1295 82.2942 92.0283 82.2942 90.67C82.2942 89.3116 81.193 88.2104 79.8347 88.2104C78.4763 88.2104 77.3752 89.3116 77.3752 90.67C77.3752 92.0283 78.4763 93.1295 79.8347 93.1295Z" fill="white"/>
<path d="M110.08 100.309C111.438 100.309 112.54 99.208 112.54 97.8497C112.54 96.4913 111.438 95.3901 110.08 95.3901C108.722 95.3901 107.621 96.4913 107.621 97.8497C107.621 99.208 108.722 100.309 110.08 100.309Z" fill="white"/>
<path d="M199.553 108.218H24.3293V149.764H199.553V108.218Z" fill="#C9C9C9"/>
<path d="M199.553 104.098H24.3293V111.609H199.553V104.098Z" fill="#E6E6E6"/>
<path opacity="0.58" d="M182.071 97.3172C182.071 97.3172 175.822 95.5888 174.493 89.8057C174.493 89.8057 184.132 87.8779 184.397 97.8489L182.071 97.3172Z" fill="#73A865"/>
<path opacity="0.73" d="M182.802 96.719C182.802 96.719 178.481 89.8058 182.27 83.4243C182.27 83.4243 189.582 88.0775 186.325 96.7855L182.802 96.719Z" fill="#73A865"/>
<path d="M183.932 96.7192C183.932 96.7192 186.259 89.4736 193.172 88.0776C193.172 88.0776 194.501 92.7973 188.652 96.7192H183.932Z" fill="#73A865"/>
<path d="M179.412 96.519L180.675 105.161L188.652 105.227L189.848 96.5855L179.412 96.519Z" fill="#24285B"/>
<path d="M107.089 26.5224C107.089 26.5224 106.889 30.9097 107.754 33.768C108.086 34.8981 109.349 35.5628 110.479 35.2304C111.941 34.7651 113.736 33.768 114.135 31.4415L115.265 27.586C115.597 25.9242 114.8 24.2623 113.337 23.4646C110.811 21.7363 107.089 23.8635 107.089 26.5224Z" fill="#F4A28C"/>
<path d="M114.999 29.5137L116.595 43.8055L108.684 44.1378L110.678 33.635L114.999 29.5137Z" fill="#F4A28C"/>
<path d="M108.152 26.6563C109.482 26.6563 110.878 26.4569 112.207 26.191C111.476 27.454 111.542 28.9829 112.34 30.1794C113.138 31.3759 114.667 31.7747 115.93 31.243L115.597 25.5927C115.597 23.9309 114.6 22.4685 113.204 21.7372C112.606 21.4049 111.941 21.139 111.277 20.8731C109.615 20.2748 107.288 21.4713 105.826 20.4078C105.36 20.0754 104.696 20.2084 104.363 20.6737C104.297 20.8066 104.23 21.006 104.164 21.139C103.964 22.8673 104.43 25.5262 106.756 26.3904C107.222 26.5898 107.687 26.6563 108.152 26.6563Z" fill="#24285B"/>
<path d="M111.875 30.046C111.875 30.046 111.808 28.3842 113.138 28.4507C114.467 28.5171 114.467 30.9767 112.739 31.2426L111.875 30.046Z" fill="#F4A28C"/>
<path opacity="0.08" d="M133.944 61.8867C133.944 61.8867 129.291 71.5254 136.337 81.6958C143.383 91.8663 124.704 95.3894 117.392 95.3894C110.08 95.3894 106.025 98.3807 106.69 104.097H147.239L159.204 93.1957L160.733 80.2999L153.421 67.3375L133.944 61.8867Z" fill="black"/>
<path d="M107.089 29.3149L105.959 31.0433C105.759 31.3091 105.759 31.7745 106.092 31.9739C106.225 32.0404 106.358 32.1068 106.491 32.1068L108.152 32.3727L107.089 29.3149Z" fill="#F4A28C"/>
<path opacity="0.31" d="M110.479 35.2307L113.67 33.1035C113.67 33.1035 113.537 35.7625 110.147 37.5572L110.479 35.2307Z" fill="#CE8172"/>
<path d="M208.328 3.72314H168.976V25.0611H208.328V3.72314Z" fill="#24285B"/>
<path d="M176.354 10.3696H177.817V17.1499H182.004V18.3464H176.354V10.3696Z" fill="white"/>
<path d="M183.201 10.3696H184.663V18.3464H183.201V10.3696Z" fill="white"/>
<path d="M194.103 10.3696L190.646 18.3464H189.184L185.727 10.3696H187.322L189.981 16.5517L192.64 10.3696H194.103Z" fill="white"/>
<path d="M200.883 17.1499V18.3464H194.9V10.3696H200.75V11.6326H196.429V13.6933H200.285V14.8898H196.429V17.0835L200.883 17.1499Z" fill="white"/>
<path opacity="0.08" d="M27.52 41.0139C27.52 41.0139 32.9044 38.4215 34.6992 47.1295L28.7165 46.9965L27.52 41.0139Z" fill="black"/>
<path d="M103.034 44.936C103.034 44.936 106.557 42.0777 109.149 41.6788C111.277 41.3465 112.806 40.5488 115.996 40.2829C118.323 40.0835 120.184 42.8089 122.71 42.7424L110.08 89.8057L103.034 44.936Z" fill="white"/>
<path opacity="0.25" d="M103.034 44.936L93.8606 60.7567L103.034 68.4677L98.4473 75.0485L110.08 89.8057L103.034 44.936Z" fill="white"/>
<path opacity="0.25" d="M122.71 42.7427L132.216 58.5634L123.042 66.3408L127.629 72.8552L110.08 89.8059L122.71 42.7427Z" fill="white"/>
<path d="M108.684 47.8612L110.08 52.2484L113.936 47.8612L111.343 43.6733L108.684 47.8612Z" fill="#24285B"/>
<path d="M109.548 50.5866L107.288 71.7916L110.08 89.806L115.066 71.7252L111.875 48.9912L109.548 50.5866Z" fill="#24285B"/>
<path opacity="0.08" d="M93.8606 82.1611C93.8606 82.1611 88.2103 101.173 69.7972 102.303L70.0631 104.23L88.9416 104.031L89.2074 101.438L93.8606 82.1611Z" fill="black"/>
<path d="M133.745 60.4911C132.947 51.1183 143.982 45.5345 151.161 51.6501C158.739 58.098 167.979 68.6008 171.369 83.1585C177.484 109.349 161.065 104.231 122.843 104.031L121.846 97.5833C121.846 97.5833 154.152 98.0486 150.363 87.0805C147.704 79.3031 134.742 71.991 133.745 60.4911Z" fill="#73A865"/>
<path opacity="0.25" d="M133.745 60.4911C132.947 51.1183 143.982 45.5345 151.161 51.6501C158.739 58.098 167.979 68.6008 171.369 83.1585C177.484 109.349 161.065 104.231 122.843 104.031L121.846 97.5833C121.846 97.5833 154.152 98.0486 150.363 87.0805C147.704 79.3031 134.742 71.991 133.745 60.4911Z" fill="white"/>
<path d="M122.245 100.308C122.245 100.308 112.54 97.2503 111.941 104.097L122.843 104.031L122.245 100.308Z" fill="#F4A28C"/>
<path d="M31.9738 51.0517C31.9738 51.0517 28.7831 38.887 25.4594 40.283C22.1357 41.6789 26.5894 47.9939 26.5894 47.9939C26.5894 47.9939 19.9421 48.858 24.9276 54.6412L31.9738 51.0517Z" fill="#F4A28C"/>
<path opacity="0.08" d="M172.632 104.098C172.632 104.098 186.126 137.667 127.297 149.698H199.62V104.098H172.632Z" fill="black"/>
<path d="M23.5316 8.6416H0V16.5519H23.5316V8.6416Z" fill="#24285B"/>
<path d="M30.3119 23.6647C31.8171 23.6647 33.0373 22.4445 33.0373 20.9393C33.0373 19.4341 31.8171 18.2139 30.3119 18.2139C28.8067 18.2139 27.5865 19.4341 27.5865 20.9393C27.5865 22.4445 28.8067 23.6647 30.3119 23.6647Z" fill="white"/>
</svg>
