<svg width="188" height="157" viewBox="0 0 188 157" fill="none" xmlns="http://www.w3.org/2000/svg">
<path d="M170.162 8.62061H16.5122V116.845H170.162V8.62061Z" fill="#E6E6E6"/>
<path opacity="0.2" d="M144.432 60.0142C148.204 60.0142 151.262 56.9561 151.262 53.1838C151.262 49.4116 148.204 46.3535 144.432 46.3535C140.659 46.3535 137.601 49.4116 137.601 53.1838C137.601 56.9561 140.659 60.0142 144.432 60.0142Z" fill="#FFD200"/>
<path d="M34.9475 69.6298L52.388 40.4517L72.9453 67.8393L88.6618 52.1892L91.7122 64.3247L111.938 42.839L127.323 69.6298L144.432 53.1839" stroke="#24285B" stroke-width="2" stroke-linecap="round" stroke-linejoin="round"/>
<path opacity="0.08" d="M68.0381 61.3404C68.0381 61.3404 52.0564 58.7541 50.067 77.9188C48.0776 97.0836 51.3933 105.903 51.3933 105.903L40.5841 116.845H99.8688L97.2826 87.0702C97.2826 87.0702 116.182 106.964 126.593 103.848C137.005 100.731 152.389 85.8102 145.559 62.6666L129.843 85.9428L116.779 83.0913L104.643 64.3245L90.1206 55.0405L68.0381 61.3404Z" fill="black"/>
<path d="M28.1834 22.8786C30.0879 22.8786 31.6317 21.3347 31.6317 19.4303C31.6317 17.5258 30.0879 15.9819 28.1834 15.9819C26.2789 15.9819 24.7351 17.5258 24.7351 19.4303C24.7351 21.3347 26.2789 22.8786 28.1834 22.8786Z" fill="#24285B"/>
<path d="M144.432 56.632C146.336 56.632 147.88 55.0881 147.88 53.1837C147.88 51.2792 146.336 49.7354 144.432 49.7354C142.527 49.7354 140.983 51.2792 140.983 53.1837C140.983 55.0881 142.527 56.632 144.432 56.632Z" fill="#FFD200"/>
<path d="M111.938 46.2873C113.842 46.2873 115.386 44.7434 115.386 42.8389C115.386 40.9345 113.842 39.3906 111.938 39.3906C110.033 39.3906 108.49 40.9345 108.49 42.8389C108.49 44.7434 110.033 46.2873 111.938 46.2873Z" fill="#6EAD68"/>
<path d="M127.19 72.2824C129.095 72.2824 130.638 70.7385 130.638 68.8341C130.638 66.9296 129.095 65.3857 127.19 65.3857C125.286 65.3857 123.742 66.9296 123.742 68.8341C123.742 70.7385 125.286 72.2824 127.19 72.2824Z" fill="#6EAD68"/>
<path d="M52.4543 43.8996C54.3588 43.8996 55.9027 42.3557 55.9027 40.4513C55.9027 38.5468 54.3588 37.0029 52.4543 37.0029C50.5499 37.0029 49.006 38.5468 49.006 40.4513C49.006 42.3557 50.5499 43.8996 52.4543 43.8996Z" fill="#6EAD68"/>
<path d="M35.0137 73.0778C36.9182 73.0778 38.4621 71.5339 38.4621 69.6295C38.4621 67.725 36.9182 66.1812 35.0137 66.1812C33.1093 66.1812 31.5654 67.725 31.5654 69.6295C31.5654 71.5339 33.1093 73.0778 35.0137 73.0778Z" fill="#6EAD68"/>
<path d="M38.3958 22.8786C40.3002 22.8786 41.8441 21.3347 41.8441 19.4303C41.8441 17.5258 40.3002 15.9819 38.3958 15.9819C36.4913 15.9819 34.9475 17.5258 34.9475 19.4303C34.9475 21.3347 36.4913 22.8786 38.3958 22.8786Z" fill="#6EAD68"/>
<path d="M48.0113 22.8786C49.9158 22.8786 51.4596 21.3347 51.4596 19.4303C51.4596 17.5258 49.9158 15.9819 48.0113 15.9819C46.1068 15.9819 44.563 17.5258 44.563 19.4303C44.563 21.3347 46.1068 22.8786 48.0113 22.8786Z" fill="#FFD200"/>
<path d="M68.1044 56.4995C68.1044 56.4995 52.3217 68.3697 60.7436 93.7679C69.1655 119.166 87.1365 106.832 87.1365 106.832V86.0755L68.1044 56.4995Z" fill="#6EAD68"/>
<path opacity="0.46" d="M68.1044 56.4995C68.1044 56.4995 52.3217 68.3697 60.7436 93.7679C69.1655 119.166 87.1365 106.832 87.1365 106.832V86.0755L68.1044 56.4995Z" fill="white"/>
<path opacity="0.08" d="M89.8554 37.4673C89.8554 37.4673 82.8261 35.4116 79.9746 39.9872C77.1231 44.5629 83.3566 52.3879 77.3883 57.2289C71.4201 62.0698 94.431 61.3403 94.431 61.3403L90.5848 49.0723L92.2427 40.1862L89.8554 37.4673Z" fill="black"/>
<path opacity="0.45" d="M96.2878 156.766C145.401 156.766 185.215 152.996 185.215 148.344C185.215 143.693 145.401 139.922 96.2878 139.922C47.1748 139.922 7.36084 143.693 7.36084 148.344C7.36084 152.996 47.1748 156.766 96.2878 156.766Z" fill="#E6E6E6"/>
<path d="M108.092 144.365L111.275 146.819C111.606 147.084 111.606 147.548 111.341 147.88C111.208 148.079 111.01 148.145 110.811 148.145H106.765C105.572 148.145 104.643 147.15 104.643 146.023V144.365H108.092Z" fill="#6EAD68"/>
<path d="M79.1186 94.4707L58.5175 104.872L66.7366 121.151L87.3377 110.75L79.1186 94.4707Z" fill="#FFD200"/>
<path d="M74.2053 144.365L71.0222 146.819C70.6906 147.084 70.6906 147.548 70.9559 147.88C71.0885 148.079 71.2875 148.145 71.4864 148.145H75.4652C76.6589 148.145 77.5873 147.15 77.5873 146.023V144.365H74.2053Z" fill="#6EAD68"/>
<path d="M87.1365 53.184L87.667 44.2316C87.667 44.2316 88.3302 38.4623 91.1817 39.5233C94.0332 40.5844 97.0836 46.2874 95.5584 48.0115C94.6963 48.9399 93.8342 48.4094 92.7069 48.4757C91.7122 48.542 91.9111 48.4094 91.9111 49.4041V52.8524L87.1365 53.184Z" fill="#F4A28C"/>
<path d="M84.2187 52.786C84.2187 52.786 66.1813 51.1945 63.8603 63.3299C61.5393 75.4654 78.2505 98.4763 78.2505 98.4763L101.593 97.5479C101.659 97.5479 137.933 46.5525 84.2187 52.786Z" fill="#6EAD68"/>
<path opacity="0.08" d="M100.134 57.6934C100.134 57.6934 86.1418 66.1152 93.0385 78.9138C97.4152 87.1367 86.2081 98.1449 86.2081 98.1449L101.726 97.548C101.726 97.548 107.429 89.1262 108.556 85.8768C109.683 82.6274 100.134 57.6934 100.134 57.6934Z" fill="black"/>
<path d="M78.2504 98.4762L72.9453 144.365H78.1841L89.7891 107.495L102.853 144.432H108.755L101.659 97.5479L78.2504 98.4762Z" fill="#24285B"/>
<path d="M87.1365 49.47H89.9217C89.9217 49.47 90.5185 44.2975 92.5079 43.3028C94.4973 42.3081 96.4868 40.4513 94.6963 38.7271C92.9058 37.0029 90.4522 35.0135 87.4681 37.0692C84.4839 39.125 83.5555 44.0322 87.1365 49.47Z" fill="#24285B"/>
<path d="M98.7414 60.5445C99.6035 56.6983 103.383 54.311 107.163 55.173C108.291 55.4383 109.352 55.9688 110.214 56.6983C112.468 58.6214 114.657 61.5392 116.182 66.0485C117.906 71.221 120.492 76.0619 123.808 80.3723C125.267 82.1628 127.853 82.4281 129.644 80.9692C130.108 80.5713 130.506 80.1071 130.771 79.6429L140.055 61.2739L145.559 64.3244C145.559 64.3244 139.127 91.712 129.644 94.3646C121.222 96.7519 94.2321 80.8365 98.7414 60.5445Z" fill="#6EAD68"/>
<path opacity="0.46" d="M98.7414 60.5445C99.6035 56.6983 103.383 54.311 107.163 55.173C108.291 55.4383 109.352 55.9688 110.214 56.6983C112.468 58.6214 114.657 61.5392 116.182 66.0485C117.906 71.221 120.492 76.0619 123.808 80.3723C125.267 82.1628 127.853 82.4281 129.644 80.9692C130.108 80.5713 130.506 80.1071 130.771 79.6429L140.055 61.2739L145.559 64.3244C145.559 64.3244 139.127 91.712 129.644 94.3646C121.222 96.7519 94.2321 80.8365 98.7414 60.5445Z" fill="white"/>
<path d="M141.315 61.9373C141.315 61.9373 142.31 52.9186 144.564 52.2555C146.819 51.5923 144.564 57.6932 144.564 57.6932C144.564 57.6932 150.665 58.3564 145.692 64.3246L141.315 61.9373Z" fill="#F4A28C"/>
<path d="M32.958 83.1577H0V124.471H32.958V83.1577Z" fill="#EFEFEF"/>
<path opacity="0.08" d="M26.194 108.821H13.2628V112.402H26.194V108.821Z" fill="black"/>
<path opacity="0.08" d="M26.194 115.187H13.2628V118.768H26.194V115.187Z" fill="black"/>
<path d="M11.7376 108.821H7.95767V112.601H11.7376V108.821Z" fill="#6EAD68"/>
<path d="M11.7376 115.055H7.95767V118.835H11.7376V115.055Z" fill="#FFD200"/>
<path d="M17.308 103.98C21.7761 103.98 25.3983 100.358 25.3983 95.8901C25.3983 91.422 21.7761 87.7998 17.308 87.7998C12.8398 87.7998 9.21765 91.422 9.21765 95.8901C9.21765 100.358 12.8398 103.98 17.308 103.98Z" fill="white"/>
<path d="M17.3079 87.7334V95.8237L25.2656 94.1659C25.2656 94.2322 24.1383 87.6671 17.3079 87.7334Z" fill="#FFD200"/>
<path d="M17.3079 95.8899L12.7986 102.654C12.7986 102.654 17.3079 106.102 22.613 102.057C24.8677 100.134 25.9287 97.1498 25.2656 94.2983L17.3079 95.8899Z" fill="#24285B"/>
<path d="M182.098 0H146.289V22.812H182.098V0Z" fill="#FFD200"/>
<path d="M188 94.2319H152.19V123.609H188V94.2319Z" fill="#24285B"/>
<path d="M158.225 13.3291H153.384V18.17H158.225V13.3291Z" fill="#24285B"/>
<path d="M166.382 8.15674H161.541V18.2365H166.382V8.15674Z" fill="#24285B"/>
<path d="M175.069 4.64209H170.228V18.2364H175.069V4.64209Z" fill="#24285B"/>
<path d="M170.825 99.1391C171.355 99.1391 171.488 99.338 171.488 99.8685V100.996C173.411 101.195 175.002 102.455 175.732 104.179C175.997 104.709 175.865 105.041 175.268 105.306L174.14 105.837C173.61 106.102 173.345 105.969 173.079 105.439C172.615 104.245 171.422 103.516 170.095 103.648C168.106 103.648 167.244 104.245 167.244 105.572C167.31 106.434 167.973 107.03 168.835 107.097C169.366 107.229 169.963 107.296 170.493 107.362C171.554 107.428 172.549 107.627 173.544 107.959C174.008 108.091 174.472 108.357 174.87 108.688C175.666 109.55 176.13 110.744 176.13 111.938C176.13 114.458 174.472 116.182 171.488 116.58V117.773C171.488 118.304 171.355 118.503 170.825 118.503H169.565C169.034 118.503 168.835 118.304 168.835 117.773V116.58C166.713 116.447 164.856 115.054 164.193 112.999C163.994 112.468 164.193 112.137 164.724 111.938L165.851 111.54C166.448 111.341 166.647 111.473 166.912 112.07C167.443 113.33 168.437 113.993 170.029 113.993C172.151 113.993 173.212 113.33 173.212 111.938C173.278 111.275 172.814 110.678 172.217 110.479C171.488 110.214 170.692 110.081 169.963 110.015C168.902 109.948 167.841 109.749 166.846 109.351C166.382 109.152 165.917 108.887 165.52 108.622C164.658 107.826 164.26 106.633 164.26 105.505C164.26 102.985 165.851 101.327 168.769 100.93V99.8022C168.769 99.2717 168.968 99.0728 169.498 99.0728L170.825 99.1391Z" fill="white"/>
</svg>
