<svg width="220" height="151" viewBox="0 0 220 151" fill="none" xmlns="http://www.w3.org/2000/svg">
<path d="M111.859 90.3501V107.477" stroke="#C9C9C9" stroke-width="2" stroke-miterlimit="10"/>
<path d="M111.859 114.315C113.729 114.315 115.244 112.799 115.244 110.929C115.244 109.059 113.729 107.543 111.859 107.543C109.989 107.543 108.473 109.059 108.473 110.929C108.473 112.799 109.989 114.315 111.859 114.315Z" stroke="#C9C9C9" stroke-width="2" stroke-miterlimit="10"/>
<path d="M177.049 0H46.6687V100.175H177.049V0Z" fill="#E6E6E6"/>
<path d="M177.049 0H46.6687V14.6047H177.049V0Z" fill="#C9C9C9"/>
<path opacity="0.45" d="M110 150.229C170.751 150.229 220 147.049 220 143.126C220 139.203 170.751 136.023 110 136.023C49.2487 136.023 0 139.203 0 143.126C0 147.049 49.2487 150.229 110 150.229Z" fill="#E6E6E6"/>
<path d="M54.9004 133.501C54.9004 133.501 54.9004 136.023 56.892 136.886C58.8835 137.749 58.6844 139.873 56.6928 139.807C54.7013 139.741 50.8509 135.758 50.8509 135.758L52.3114 132.106L54.9004 133.501Z" fill="#73A865"/>
<path d="M47.1997 107.278C47.1997 107.278 58.8171 107.809 57.5558 115.709C56.2945 123.609 51.1828 132.106 51.1828 132.106L55.6306 133.965C55.6306 133.965 64.5262 123.742 65.3892 111.195C66.2522 98.6483 48.4611 101.437 47.1997 107.278Z" fill="#24285B"/>
<path opacity="0.08" d="M47.1997 107.278C47.1997 107.278 58.8171 107.809 57.5558 115.709C56.2945 123.609 51.1828 132.106 51.1828 132.106L55.6306 133.965C55.6306 133.965 64.5262 123.742 65.3892 111.195C66.2522 98.6483 48.4611 101.437 47.1997 107.278Z" fill="black"/>
<path d="M64.2607 134.031C64.2607 134.031 64.2607 136.554 66.2523 137.417C68.2438 138.28 68.0447 140.404 66.0531 140.338C64.0616 140.272 60.2112 136.355 60.2112 136.355L61.6717 132.704L64.2607 134.031Z" fill="#73A865"/>
<path d="M40.8268 110.796H38.1714V133.434H40.8268V110.796Z" fill="#FFD200"/>
<path opacity="0.46" d="M40.8268 110.796H38.1714V133.434H40.8268V110.796Z" fill="white"/>
<path d="M30.8027 55.8962C30.8027 55.8962 28.4128 42.9512 16.729 48.793C8.16535 53.1081 16.5299 87.5619 21.5087 105.353C23.2348 111.66 28.9439 115.975 35.516 115.975H51.9131C56.9584 115.975 57.8214 108.805 52.9753 107.61L52.7097 107.544C49.8552 106.88 46.5359 106.349 43.5486 105.951C38.3042 105.287 34.2547 100.972 33.8564 95.7273L30.8027 55.8962Z" fill="#FFD200"/>
<path d="M40.8268 133.434L50.2535 140.869H29.2758L38.1714 133.434H40.8268Z" fill="#FFD200"/>
<path opacity="0.08" d="M40.8268 133.434L50.2535 140.869H29.2758L38.1714 133.434H40.8268Z" fill="black"/>
<path d="M37.5739 38.1711C38.4369 39.5652 39.1672 41.0921 39.6319 42.6853C39.831 43.4819 39.2999 44.345 38.5033 44.4777C37.242 44.876 35.9143 44.4777 35.0513 43.4819L33.0597 41.5568C32.3295 40.6938 32.1967 39.4325 32.7942 38.4367C33.6572 36.6443 36.6445 36.5779 37.5739 38.1711Z" fill="#F4A28C"/>
<path d="M34.0555 40.96L33.7236 50.7849L39.1008 50.6522L37.242 43.549L34.0555 40.96Z" fill="#F4A28C"/>
<path d="M65.7212 95.0635C65.7212 95.0635 70.8992 95.5282 69.837 98.5155C68.7749 101.503 65.0573 97.9844 65.0573 97.9844L65.7212 95.0635Z" fill="#F4A28C"/>
<path opacity="0.08" d="M65.7212 95.0635C65.7212 95.0635 70.8992 95.5282 69.837 98.5155C68.7749 101.503 65.0573 97.9844 65.0573 97.9844L65.7212 95.0635Z" fill="black"/>
<path d="M36.9765 38.6363C36.1799 39.101 35.3169 39.4993 34.4538 39.7648C35.3169 40.2295 35.7815 41.2253 35.6488 42.2211C35.5824 43.2169 34.7858 43.9471 33.8564 44.0799L32.1304 40.6278C31.5993 39.6321 31.5993 38.4371 32.2631 37.5077C32.5287 37.1094 32.7942 36.7111 33.1261 36.3792C33.9228 35.5162 35.7152 35.3834 36.2462 34.2549C36.4454 33.9229 36.8437 33.7902 37.242 33.9229C37.3748 33.9893 37.4412 34.0557 37.5076 34.1221C38.1714 35.0515 38.9016 36.7775 37.7731 38.1052C37.4412 38.3044 37.242 38.5035 36.9765 38.6363Z" fill="#24285B"/>
<path d="M35.9143 41.9554C35.9143 41.9554 35.3832 40.9596 34.653 41.4243C33.9228 41.889 34.7194 43.3495 35.8479 42.9512L35.9143 41.9554Z" fill="#F4A28C"/>
<path d="M38.5033 39.8311L39.7646 40.4949C40.0302 40.6277 40.0966 40.8932 39.9638 41.1588C39.9638 41.2251 39.8974 41.2915 39.831 41.2915L38.9016 42.0218L38.5033 39.8311Z" fill="#F4A28C"/>
<path d="M30.0724 57.5562C31.1346 53.8386 34.9849 51.6479 38.7025 52.7101C40.4949 53.2411 42.0881 54.4361 42.9511 56.0957C43.1503 56.4276 43.2831 56.7595 43.4822 57.1579C46.0048 62.4687 45.6729 72.4264 45.0091 79.2641C44.6108 83.5791 47.1998 87.5622 51.2493 89.0227L65.9203 94.2007L65.1901 98.5821L44.8763 94.599C39.7646 93.6032 35.516 89.9521 33.79 85.0396C31.0018 77.2061 27.749 65.5224 30.0724 57.5562Z" fill="#73A865"/>
<path opacity="0.08" d="M30.0724 57.5562C31.1346 53.8386 34.9849 51.6479 38.7025 52.7101C40.4949 53.2411 42.0881 54.4361 42.9511 56.0957C43.1503 56.4276 43.2831 56.7595 43.4822 57.1579C46.0048 62.4687 45.6729 72.4264 45.0091 79.2641C44.6108 83.5791 47.1998 87.5622 51.2493 89.0227L65.9203 94.2007L65.1901 98.5821L44.8763 94.599C39.7646 93.6032 35.516 89.9521 33.79 85.0396C31.0018 77.2061 27.749 65.5224 30.0724 57.5562Z" fill="black"/>
<path opacity="0.31" d="M37.7067 45.0754C37.0428 45.009 36.379 44.6771 35.8479 44.2788C35.8479 44.2788 36.1135 46.0712 38.3042 47.5981L37.7067 45.0754Z" fill="#CE8172"/>
<path d="M33.7236 50.7846L39.1672 50.5854C39.1672 50.5854 51.0501 53.1745 53.971 68.2439C56.892 83.3133 48.5275 96.9222 48.5275 96.9222L31.4001 97.055C31.3337 97.055 8.69644 53.3072 33.7236 50.7846Z" fill="#73A865"/>
<path opacity="0.08" d="M30.8691 57.2241C30.8691 57.2241 22.7037 61.2736 26.8196 79.5295C29.8069 92.9393 35.1177 97.0551 35.1177 97.0551L44.4116 96.7896L39.7647 73.8868L30.8691 57.2241Z" fill="black"/>
<path d="M74.0857 102.764L84.4417 81.3883L81.5872 80.1934L72.0941 98.8475L55.3651 97.0552L54.9668 99.1131L74.0857 102.764Z" fill="#FFD200"/>
<path d="M31.3337 97.0547C31.3337 97.0547 31.5329 106.88 38.2378 107.743C44.9427 108.606 60.0785 103.494 62.0036 111.792C63.9288 120.09 60.1448 133.235 60.1448 133.235L64.7918 134.496C64.7918 134.496 75.2142 114.58 69.0404 105.154C62.8666 95.727 48.5275 96.9219 48.5275 96.9219L31.3337 97.0547Z" fill="#24285B"/>
<path d="M29.5413 59.813C30.6035 56.0954 34.4538 53.9047 38.1714 54.9669C40.0302 55.498 41.557 56.6929 42.42 58.3525C42.6192 58.6845 42.752 59.0164 42.9511 59.4147C45.4737 64.7919 45.0754 74.6833 44.478 81.5209C44.0797 85.8359 46.6687 89.819 50.7182 91.2795L65.3892 96.4575L64.659 100.839L44.3452 96.8558C39.2336 95.8601 35.0513 92.2089 33.2589 87.2964C30.5371 79.5294 27.2842 67.8456 29.5413 59.813Z" fill="#73A865"/>
<path opacity="0.46" d="M29.5413 59.813C30.6035 56.0954 34.4538 53.9047 38.1714 54.9669C40.0302 55.498 41.557 56.6929 42.42 58.3525C42.6192 58.6845 42.752 59.0164 42.9511 59.4147C45.4737 64.7919 45.0754 74.6833 44.478 81.5209C44.0797 85.8359 46.6687 89.819 50.7182 91.2795L65.3892 96.4575L64.659 100.839L44.3452 96.8558C39.2336 95.8601 35.0513 92.2089 33.2589 87.2964C30.5371 79.5294 27.2842 67.8456 29.5413 59.813Z" fill="white"/>
<path d="M65.2565 97.3203C65.2565 97.3203 70.5673 98.3161 69.5051 101.303C68.443 104.291 64.7254 100.772 64.7254 100.772L65.2565 97.3203Z" fill="#F4A28C"/>
<path d="M158.063 134.031C158.063 134.031 158.063 136.554 156.071 137.417C154.08 138.28 154.279 140.404 156.27 140.338C158.262 140.271 162.112 136.288 162.112 136.288L160.652 132.637L158.063 134.031Z" fill="#73A865"/>
<path d="M142.993 134.363C142.993 134.363 141.201 136.089 139.209 135.293C137.218 134.496 135.824 136.089 137.284 137.417C138.745 138.745 144.255 138.811 144.255 138.811L145.848 135.226L142.993 134.363Z" fill="#73A865"/>
<path d="M184.152 110.796H181.497V133.434H184.152V110.796Z" fill="#FFD200"/>
<path opacity="0.46" d="M184.152 110.796H181.497V133.434H184.152V110.796Z" fill="white"/>
<path d="M191.521 55.8962C191.521 55.8962 193.911 42.9512 205.528 48.793C214.092 53.1081 205.727 87.5619 200.748 105.353C199.022 111.66 193.313 115.975 186.741 115.975H170.344C165.365 115.975 164.436 108.805 169.282 107.61L169.547 107.544C172.402 106.88 175.721 106.349 178.709 105.951C183.953 105.287 188.002 100.972 188.401 95.7273L191.521 55.8962Z" fill="#FFD200"/>
<path d="M181.497 133.434L172.136 140.869H193.048L184.152 133.434H181.497Z" fill="#FFD200"/>
<path opacity="0.08" d="M181.497 133.434L172.136 140.869H193.048L184.152 133.434H181.497Z" fill="black"/>
<path d="M124.14 65.8541C113.253 65.8541 104.424 57.0249 104.357 46.1377C104.357 35.2506 113.186 26.4214 124.074 26.355C134.961 26.355 143.79 35.1842 143.856 46.0713C143.856 56.9585 135.027 65.7877 124.14 65.8541ZM124.14 31.6658C116.174 31.6658 109.734 38.1051 109.734 46.0713C109.734 54.0375 116.174 60.4769 124.14 60.4769C132.106 60.4769 138.546 54.0375 138.546 46.0713C138.546 38.1051 132.106 31.6658 124.14 31.6658Z" fill="white"/>
<path d="M143.856 46.0713H138.546C138.546 38.1051 132.106 31.6658 124.14 31.6658V26.355C135.027 26.355 143.856 35.1842 143.856 46.0713Z" fill="#24285B"/>
<path d="M124.14 65.854V60.5432C132.106 60.5432 138.546 54.1039 138.546 46.1377H143.856C143.856 56.9585 135.027 65.7877 124.14 65.854Z" fill="#FFD200"/>
<path d="M124.538 39.6982C124.87 39.6982 125.003 39.831 125.003 40.1629V40.8931C126.264 41.0259 127.326 41.8225 127.791 43.0175C127.99 43.4158 127.924 43.5486 127.459 43.7477L126.729 44.0796C126.397 44.2788 126.198 44.146 125.999 43.8141C125.667 43.0175 124.87 42.5528 124.074 42.6192C122.812 42.6192 122.148 43.0175 122.148 43.8805C122.215 44.4116 122.68 44.8763 123.211 44.8763C123.543 44.9426 123.941 45.009 124.273 45.0754C124.937 45.0754 125.667 45.2082 126.331 45.4737C126.663 45.6065 126.995 45.7393 127.26 45.9384C127.791 46.5359 128.123 47.2661 128.057 48.0627C128.057 49.7224 126.928 50.8509 125.003 51.1164V51.9131C125.003 52.245 124.87 52.3778 124.538 52.3778H123.675C123.343 52.3778 123.211 52.245 123.211 51.9131V51.1164C121.817 51.0501 120.622 50.1207 120.157 48.793C120.024 48.5274 120.157 48.2619 120.422 48.1291C120.489 48.1291 120.489 48.1291 120.555 48.0627L121.285 47.7972C121.684 47.6644 121.817 47.7308 122.016 48.1291C122.348 48.9921 123.144 49.5232 124.074 49.3904C125.468 49.3904 126.198 48.9257 126.198 48.0627C126.198 47.6644 125.932 47.2661 125.534 47.1333C125.069 46.9342 124.538 46.8678 124.007 46.8678C123.277 46.8014 122.613 46.6686 121.949 46.4031C121.617 46.2703 121.352 46.1376 121.086 45.872C120.555 45.3409 120.223 44.5443 120.29 43.8141C120.29 42.1545 121.352 41.0923 123.277 40.8268V40.0965C123.277 39.7646 123.41 39.6318 123.742 39.6318L124.538 39.6982Z" fill="#A5A5A5"/>
<path opacity="0.08" d="M140.072 41.6897C140.072 41.6897 133.965 40.4948 135.027 47.2661C136.089 54.0373 138.346 75.6125 149.499 80.193C160.652 84.7736 166.494 91.5449 160.253 94.3331C154.013 97.1212 140.006 85.6366 137.815 100.175L175.323 100.573L182.293 81.5871L167.954 71.0319L154.08 69.837L140.072 41.6897Z" fill="black"/>
<path d="M184.816 38.1711C183.953 39.5652 183.223 41.0921 182.758 42.6853C182.559 43.4819 183.09 44.2786 183.887 44.4777C185.148 44.876 186.476 44.4777 187.339 43.4819L189.33 41.5568C190.06 40.6938 190.193 39.4325 189.596 38.4367C188.666 36.6443 185.745 36.5779 184.816 38.1711Z" fill="#F4A28C"/>
<path d="M188.268 40.96L188.666 50.7849L183.223 50.6522L185.148 43.549L188.268 40.96Z" fill="#F4A28C"/>
<path d="M181.895 109.004C181.895 109.004 159.988 112.987 146.711 136.023L141.931 134.164C141.931 134.164 151.092 106.946 170.477 104.291C189.861 101.636 181.895 109.004 181.895 109.004Z" fill="#24285B"/>
<path opacity="0.08" d="M181.895 109.004C181.895 109.004 159.988 112.987 146.711 136.023L141.931 134.164C141.931 134.164 151.092 106.946 170.477 104.291C189.861 101.636 181.895 109.004 181.895 109.004Z" fill="black"/>
<path d="M183.887 39.8311L182.625 40.4949C182.36 40.6277 182.293 40.8932 182.426 41.1588C182.426 41.2251 182.492 41.2915 182.559 41.2915L183.488 42.0218L183.887 39.8311Z" fill="#F4A28C"/>
<path d="M186.077 56.2279C177.845 58.7505 168.087 67.3142 161.316 65.9201C151.291 63.8622 145.25 46.7348 145.25 46.7348C145.25 46.7348 143.856 40.2955 141.201 39.7644C138.546 39.2333 140.803 43.4156 140.803 43.4156C140.803 43.4156 137.749 45.6727 140.803 48.66C150.628 95.1959 175.788 76.8736 187.67 70.6998C189.264 69.9032 190.724 68.9738 192.118 67.9116C197.96 63.3975 193.114 54.1035 186.077 56.2279Z" fill="#F4A28C"/>
<path opacity="0.08" d="M186.077 56.2279C177.845 58.7505 168.087 67.3142 161.316 65.9201C151.291 63.8622 145.25 46.7348 145.25 46.7348C145.25 46.7348 143.856 40.2955 141.201 39.7644C138.546 39.2333 140.803 43.4156 140.803 43.4156C140.803 43.4156 137.749 45.6727 140.803 48.66C150.628 95.1959 175.788 76.8736 187.67 70.6998C189.264 69.9032 190.724 68.9738 192.118 67.9116C197.96 63.3975 193.114 54.1035 186.077 56.2279Z" fill="black"/>
<path opacity="0.31" d="M184.617 45.0754C185.281 45.009 185.944 44.6771 186.476 44.2788C186.476 44.2788 186.21 46.0712 184.019 47.5981L184.617 45.0754Z" fill="#CE8172"/>
<path d="M188.666 50.7846L183.223 50.5854C183.223 50.5854 171.34 53.1745 168.419 68.2439C165.498 83.3133 173.796 96.8558 173.796 96.8558L190.99 96.9886C190.99 97.055 213.693 53.3072 188.666 50.7846Z" fill="#73A865"/>
<path opacity="0.08" d="M181.497 58.2861C181.497 58.2861 172.867 65.6549 174.062 77.0731C175.256 88.4913 168.95 84.3754 168.95 84.3754C168.95 84.3754 170.344 90.1509 171.207 91.4786C172.07 92.8064 187.737 74.8824 187.737 74.8824L181.497 58.2861Z" fill="black"/>
<path d="M190.99 97.0547C190.99 97.0547 190.724 107.942 184.086 108.738C177.447 109.535 162.245 103.428 160.32 111.726C158.395 120.024 162.245 133.168 162.245 133.168L157.598 134.429C157.598 134.429 147.176 114.514 153.283 105.087C159.39 95.6606 173.796 96.8555 173.796 96.8555L190.99 97.0547Z" fill="#24285B"/>
<path d="M184.816 38.1715L183.223 32.2632L193.18 37.0429L188.401 44.2789L187.737 43.1503L187.803 42.5529C188.069 40.6941 186.94 38.9017 185.148 38.3042L184.816 38.1715Z" fill="#24285B"/>
<path d="M186.874 41.026C186.874 41.026 188.135 40.495 188.865 40.9597C189.596 41.4244 188.998 43.5487 186.542 42.3537L186.874 41.026Z" fill="#F4A28C"/>
<path d="M180.302 61.9371C182.492 54.9003 192.915 56.0953 193.38 63.464C193.446 65.2564 193.38 66.9824 193.18 68.7748C191.654 82.0518 192.583 113.186 148.57 95.0633L149.433 90.3499C149.433 90.3499 166.958 94.9969 174.327 87.8937C179.372 83.0476 177.779 70.1689 180.302 61.9371Z" fill="#F4A28C"/>
<path d="M177.514 76.6745L193.446 78.9316C193.446 78.9316 199.421 59.4144 188.202 56.0951C176.983 52.7759 177.514 76.6745 177.514 76.6745Z" fill="#73A865"/>
<path opacity="0.46" d="M177.514 76.6745L193.446 78.9316C193.446 78.9316 199.421 59.4144 188.202 56.0951C176.983 52.7759 177.514 76.6745 177.514 76.6745Z" fill="white"/>
<path d="M149.499 90.3503C149.499 90.3503 141.666 90.0847 142.861 93.404C144.056 96.7232 148.636 95.0636 148.636 95.0636L149.499 90.3503Z" fill="#F4A28C"/>
<path d="M138.546 73.8203H111.859V85.3713H138.546V73.8203Z" fill="#73A865"/>
<path d="M95.1961 30.4043H57.6222V41.0923H95.1961V30.4043Z" fill="white"/>
<path d="M95.1961 30.4043H81.2553V41.0923H95.1961V30.4043Z" fill="#24285B"/>
<path d="M95.1961 47.8638H57.6222V52.1124H95.1961V47.8638Z" fill="#C9C9C9"/>
<path opacity="0.57" d="M95.1961 57.4897H57.6222V61.7384H95.1961V57.4897Z" fill="#C9C9C9"/>
<path opacity="0.58" d="M14.4719 134.894C14.4719 134.894 8.82922 133.367 7.5679 128.123C7.5679 128.123 16.3307 126.33 16.5963 135.425L14.4719 134.894Z" fill="#73A865"/>
<path opacity="0.73" d="M15.1358 134.297C15.1358 134.297 11.1527 128.057 14.6711 122.215C14.6711 122.215 21.3096 126.463 18.3886 134.297H15.1358Z" fill="#73A865"/>
<path d="M16.1316 134.297C16.1316 134.297 18.2559 127.725 24.5625 126.463C24.5625 126.463 25.7574 130.712 20.4466 134.297H16.1316Z" fill="#73A865"/>
<path d="M12.0821 134.164L13.2106 141.997H20.4466L21.5088 134.23L12.0821 134.164Z" fill="#24285B"/>
</svg>
