<svg width="220" height="151" viewBox="0 0 220 151" fill="none" xmlns="http://www.w3.org/2000/svg">
<path d="M196.988 20.7319H23.1542V142.986H196.988V20.7319Z" fill="#E6E6E6"/>
<path d="M38.4003 36.1916C40.2102 36.1916 41.6775 34.7244 41.6775 32.9144C41.6775 31.1045 40.2102 29.6372 38.4003 29.6372C36.5903 29.6372 35.123 31.1045 35.123 32.9144C35.123 34.7244 36.5903 36.1916 38.4003 36.1916Z" fill="#24285B"/>
<path d="M48.2319 36.1916C50.0418 36.1916 51.5091 34.7244 51.5091 32.9144C51.5091 31.1045 50.0418 29.6372 48.2319 29.6372C46.4219 29.6372 44.9547 31.1045 44.9547 32.9144C44.9547 34.7244 46.4219 36.1916 48.2319 36.1916Z" fill="#73A865"/>
<path d="M57.4935 36.1916C59.3035 36.1916 60.7707 34.7244 60.7707 32.9144C60.7707 31.1045 59.3035 29.6372 57.4935 29.6372C55.6836 29.6372 54.2163 31.1045 54.2163 32.9144C54.2163 34.7244 55.6836 36.1916 57.4935 36.1916Z" fill="#FFD200"/>
<path opacity="0.08" d="M117.552 49.9415C117.552 49.9415 124.89 48.4454 121.256 61.3405C117.623 74.2356 121.755 87.2019 132.014 89.1967C142.273 91.1915 156.949 96.4636 159.443 112.565C161.937 128.666 149.469 142.986 149.469 142.986H102.804L107.578 63.4066C107.578 63.4066 106.438 48.0892 117.552 49.9415Z" fill="black"/>
<path d="M114.203 54.359C114.203 54.359 114.417 59.5598 113.42 63.0507C112.992 64.4756 111.567 65.2593 110.143 64.8318C108.433 64.2619 106.224 63.0507 105.797 60.2722L104.443 55.6414C104.087 53.6466 105.013 51.723 106.723 50.7256C109.715 48.6595 114.203 51.1531 114.203 54.359Z" fill="#F4A28C"/>
<path d="M104.728 57.9922L102.804 75.0906L112.28 75.4469L109.929 62.8367L104.728 57.9922Z" fill="#F4A28C"/>
<path d="M112.921 54.5725C111.282 54.5725 109.715 54.3588 108.076 54.0026C109.003 55.4987 108.86 57.351 107.863 58.7759C106.865 60.2007 105.084 60.6994 103.517 59.987L103.873 53.2901C103.944 51.2953 105.013 49.5142 106.794 48.6593C107.506 48.3031 108.29 47.9469 109.074 47.6619C111.069 46.9494 113.847 48.3743 115.628 47.1632C116.198 46.7357 116.982 46.9494 117.409 47.5194C117.552 47.6619 117.623 47.8756 117.623 48.0893C117.837 50.1554 117.338 53.3614 114.488 54.3588C113.99 54.43 113.42 54.5725 112.921 54.5725Z" fill="#24285B"/>
<path d="M108.433 58.6335C108.433 58.6335 108.504 56.6386 106.937 56.7099C105.44 56.7811 105.369 59.7021 107.364 60.0583L108.433 58.6335Z" fill="#F4A28C"/>
<path d="M114.203 57.707L115.557 59.7731C115.842 60.1293 115.699 60.6993 115.343 60.913C115.272 60.9842 115.129 61.0555 114.987 61.0555L112.992 61.3404L114.203 57.707Z" fill="#F4A28C"/>
<path opacity="0.31" d="M110.142 64.8314L106.367 62.2666C106.367 62.2666 106.509 65.4726 110.641 67.6099L110.142 64.8314Z" fill="#CE8172"/>
<path d="M71.8135 95.9649C72.3122 84.566 81.5026 75.518 92.9016 75.0906C106.438 74.5919 119.547 72.0983 133.582 79.5077C153.672 90.1942 131.444 143.057 131.444 143.057L85.0648 143.627C85.0648 143.556 70.6023 122.895 71.8135 95.9649Z" fill="#73A865"/>
<path d="M215.227 102.021H178.679V128.666H215.227V102.021Z" fill="#24285B"/>
<path d="M220 0H149.398V81.8588H220V0Z" fill="#F7F7F7"/>
<path opacity="0.08" d="M196.917 82.0015H149.398V91.0494H196.917V82.0015Z" fill="black"/>
<path d="M194.566 120.544C194.21 120.544 193.925 120.402 193.711 120.117L190.078 115.415C189.722 114.916 189.793 114.275 190.291 113.918C190.79 113.562 191.431 113.633 191.788 114.132L194.637 117.766L201.69 110.214C202.047 109.715 202.688 109.573 203.187 109.929C203.685 110.285 203.828 110.926 203.472 111.425C203.4 111.496 203.329 111.567 203.258 111.639L195.35 120.188C195.136 120.402 194.851 120.544 194.566 120.544Z" fill="white"/>
<path d="M185.518 54.43C173.62 54.43 164.003 44.8121 164.003 32.9145C164.003 21.0168 173.62 11.3989 185.518 11.3989C197.416 11.3989 207.034 21.0168 207.034 32.9145C207.034 44.8121 197.416 54.43 185.518 54.43ZM185.518 17.2409C176.826 17.2409 169.773 24.294 169.773 32.9857C169.773 41.6774 176.826 48.7305 185.518 48.7305C194.21 48.7305 201.263 41.6774 201.263 32.9857C201.263 32.9857 201.263 32.9857 201.263 32.9145C201.192 24.2228 194.139 17.2409 185.518 17.2409Z" fill="#C9C9C9"/>
<path d="M185.518 54.4303C180.246 54.4303 175.188 52.5067 171.269 49.0158L175.117 44.6699C177.966 47.2347 181.671 48.5883 185.518 48.6596V54.4303Z" fill="#24285B"/>
<path d="M133.582 79.5078C133.582 79.5078 157.876 92.4029 153.031 121.969C148.187 151.535 81.5739 118.621 81.5739 118.621L84.2099 110C84.2099 110 114.916 120.117 132.869 117.908C132.869 117.908 109.715 81.9301 133.582 79.5078Z" fill="#73A865"/>
<path opacity="0.08" d="M94.6114 87.2019C94.6114 87.2019 105.298 95.8224 99.8122 110.214C94.3264 124.605 116.982 133.724 134.722 134.365L131.444 143.057L85.0648 143.627C85.0648 143.627 80.6477 135.647 78.9378 132.299C77.228 128.951 70.3886 85.3496 94.6114 87.2019Z" fill="black"/>
<path opacity="0.08" d="M105.298 128.31C105.298 128.31 126.956 111.924 143.841 113.776C143.841 113.776 148.044 120.259 138.782 122.325C129.521 124.391 118.905 132.228 118.905 132.228L105.298 128.31Z" fill="black"/>
<path opacity="0.39" d="M133.582 79.5078C133.582 79.5078 157.876 92.4029 153.031 121.969C148.187 151.535 81.5739 118.621 81.5739 118.621L84.2099 110C84.2099 110 114.916 120.117 132.869 117.908C132.869 117.908 109.715 81.9301 133.582 79.5078Z" fill="white"/>
<path d="M207.034 32.9145H201.263C201.263 24.2228 194.21 17.2409 185.518 17.2409V11.3989C197.416 11.4702 207.034 21.088 207.034 32.9145Z" fill="#73A865"/>
<path d="M185.518 54.4301V48.6594C194.21 48.6594 201.263 41.6063 201.263 32.9146H207.034C207.034 44.8122 197.416 54.4301 185.518 54.4301Z" fill="#FFD200"/>
<path d="M197.63 62.5518H173.336V72.5971H197.63V62.5518Z" fill="#73A865"/>
<path d="M83.8536 77.4419C83.8536 77.4419 59.5596 90.337 64.4041 119.903C69.2487 149.469 135.861 116.555 135.861 116.555L133.225 107.934C133.225 107.934 102.519 118.051 84.5661 115.842C84.5661 115.842 107.791 79.8642 83.8536 77.4419Z" fill="#73A865"/>
<path opacity="0.39" d="M83.8536 77.4419C83.8536 77.4419 59.5596 90.337 64.4041 119.903C69.2487 149.469 135.861 116.555 135.861 116.555L133.225 107.934C133.225 107.934 102.519 118.051 84.5661 115.842C84.5661 115.842 107.791 79.8642 83.8536 77.4419Z" fill="white"/>
<path d="M133.653 109.288C133.653 109.288 141.347 106.723 143.627 111.852C145.907 116.982 135.861 116.555 135.861 116.555L133.653 109.288Z" fill="#F4A28C"/>
<path d="M98.8148 74.7346C98.8148 74.7346 97.8886 70.6738 101.807 70.46C105.725 70.2463 115.913 67.4678 117.623 74.2359L98.8148 74.7346Z" fill="#73A865"/>
<path opacity="0.08" d="M57.9923 59.2749H23.1542V96.3928H57.9923V59.2749Z" fill="black"/>
<path opacity="0.39" d="M98.8148 74.7346C98.8148 74.7346 97.8886 70.6738 101.807 70.46C105.725 70.2463 115.913 67.4678 117.623 74.2359L98.8148 74.7346Z" fill="white"/>
<path d="M185.946 26.0039C186.302 26.0039 186.444 26.1463 186.444 26.5026V27.2862C187.798 27.4287 189.009 28.3549 189.508 29.566C189.722 29.9935 189.65 30.2072 189.152 30.3497L188.368 30.7059C188.012 30.8484 187.798 30.7772 187.584 30.421C187.228 29.566 186.373 29.0673 185.447 29.1386C184.022 29.1386 183.381 29.566 183.381 30.4922C183.381 31.1334 183.951 31.4896 184.521 31.6321C184.948 31.7033 185.304 31.7746 185.732 31.7746C186.516 31.8458 187.228 31.9883 187.94 32.202C188.297 32.3445 188.653 32.487 188.938 32.7008C189.579 33.3419 189.864 34.1969 189.864 35.0518C189.864 36.8329 188.653 38.1153 186.516 38.4002V39.2552C186.516 39.6114 186.373 39.7539 186.017 39.7539H185.091C184.734 39.7539 184.592 39.6114 184.592 39.2552V38.4002C183.096 38.329 181.742 37.2603 181.244 35.8355C181.101 35.5505 181.244 35.2655 181.528 35.123C181.6 35.123 181.6 35.123 181.671 35.0518L182.455 34.7668C182.882 34.6243 183.025 34.6956 183.238 35.123C183.595 36.0492 184.521 36.6191 185.447 36.5479C186.943 36.5479 187.727 36.0492 187.727 35.123C187.727 34.6243 187.442 34.1969 187.014 34.1256C186.516 33.9119 185.946 33.8406 185.376 33.8406C184.592 33.7694 183.88 33.6269 183.167 33.3419C181.956 32.9857 181.172 31.7746 181.315 30.4922C181.315 28.7111 182.455 27.5 184.592 27.215V26.4313C184.592 26.0751 184.734 25.9326 185.091 25.9326H185.946V26.0039Z" fill="#A5A5A5"/>
<path d="M50.1554 59.2749H3.20593V89.1972H50.1554V59.2749Z" fill="#FFD200"/>
<path d="M18.8083 76.8003H12.4676V83.141H18.8083V76.8003Z" fill="#24285B"/>
<path d="M29.4948 69.9614H23.1542V83.2127H29.4948V69.9614Z" fill="#24285B"/>
<path d="M40.8225 65.3306H34.4819V83.1414H40.8225V65.3306Z" fill="#24285B"/>
<path d="M41.7487 121.684H0V150.11H41.7487V121.684Z" fill="#F7F7F7"/>
<path d="M0 121.684L20.8744 141.632L41.7487 121.684H0Z" fill="#C9C9C9"/>
<path opacity="0.08" d="M50.1554 121.684H41.7487V143.057H50.1554V121.684Z" fill="black"/>
</svg>
