<svg width="1014" height="430" viewBox="0 0 1014 430" fill="none" xmlns="http://www.w3.org/2000/svg">
<path d="M57.3812 179.841H0V430H57.3812V179.841Z" fill="#D7DCEF"/>
<path d="M153.271 265.797H95.8896V430H153.271V265.797Z" fill="#D7DCEF"/>
<path d="M249.105 147.695H191.724V430H249.105V147.695Z" fill="#D7DCEF"/>
<path d="M344.994 305.165H287.613V430H344.994V305.165Z" fill="#D7DCEF"/>
<path d="M440.828 103.658H383.447V429.946H440.828V103.658Z" fill="#D7DCEF"/>
<path d="M536.718 160.184H479.337V430H536.718V160.184Z" fill="#D7DCEF"/>
<path d="M632.552 269.87H575.171V430H632.552V269.87Z" fill="#D7DCEF"/>
<path d="M728.442 218.828H671.061V430H728.442V218.828Z" fill="#D7DCEF"/>
<path d="M824.276 157.469H766.895V430H824.276V157.469Z" fill="#D7DCEF"/>
<path d="M920.165 97.5225H862.784V429.946H920.165V97.5225Z" fill="#D7DCEF"/>
<path d="M1016.05 0H958.673V430H1016.05V0Z" fill="#D7DCEF"/>
</svg>
