<svg width="275" height="194" viewBox="0 0 275 194" fill="none" xmlns="http://www.w3.org/2000/svg">
<path d="M60.1759 190.034C59.6111 190.034 59.149 189.571 59.149 189.004C59.149 188.438 59.6111 187.974 60.1759 187.923C61.9216 187.923 63.6673 187.82 65.3617 187.717C65.9265 187.665 66.4399 188.129 66.4913 188.695C66.5426 189.262 66.0805 189.777 65.5157 189.828C63.7187 189.931 61.973 189.983 60.1759 190.034ZM54.9388 189.983C53.1931 189.931 51.396 189.828 49.6503 189.725C49.0856 189.674 48.6235 189.159 48.6748 188.592C48.7262 188.026 49.1882 187.562 49.8044 187.614C51.5501 187.717 53.2958 187.82 54.9902 187.871C55.5549 187.871 56.017 188.386 56.017 188.953C55.9657 189.519 55.5036 189.983 54.9388 189.983ZM70.5988 189.365C70.0854 189.365 69.6233 188.953 69.5719 188.438C69.5206 187.871 69.9313 187.356 70.4961 187.254C72.2418 187.048 73.9362 186.79 75.6306 186.481C76.1953 186.378 76.7601 186.738 76.8628 187.356C76.9655 187.923 76.6061 188.49 75.99 188.592C74.2956 188.901 72.5499 189.159 70.7528 189.365C70.7015 189.365 70.6502 189.365 70.5988 189.365ZM44.5159 189.21C44.4646 189.21 44.4132 189.21 44.4132 189.21C42.6675 189.004 40.9218 188.798 39.1761 188.541C38.6113 188.438 38.2006 187.923 38.3033 187.356C38.4059 186.79 38.9194 186.378 39.4842 186.481C41.1785 186.739 42.9242 186.944 44.6186 187.15C45.1834 187.202 45.5941 187.717 45.5428 188.335C45.4915 188.799 45.0294 189.21 44.5159 189.21ZM34.1444 187.665C34.093 187.665 34.0417 187.665 33.939 187.665C32.2446 187.356 30.4989 186.996 28.7532 186.635C28.1884 186.532 27.829 185.966 27.9317 185.4C28.0344 184.833 28.5992 184.473 29.164 184.576C30.8583 184.936 32.5527 185.297 34.2471 185.605C34.8118 185.708 35.1713 186.275 35.0686 186.841C35.1199 187.305 34.6578 187.665 34.1444 187.665ZM80.8677 187.511C80.4056 187.511 79.9948 187.202 79.8408 186.687C79.6868 186.12 80.0462 185.554 80.611 185.4C82.3053 184.988 83.9483 184.524 85.5913 184.009C86.1561 183.803 86.7209 184.112 86.9263 184.679C87.0803 185.245 86.8236 185.812 86.2588 186.018C84.6158 186.533 82.8701 187.048 81.1757 187.459C81.0731 187.511 80.9704 187.511 80.8677 187.511ZM23.9269 185.451C23.8242 185.451 23.7728 185.451 23.6701 185.4C21.9758 184.988 20.2814 184.524 18.587 184.061C18.0223 183.906 17.7142 183.34 17.8682 182.773C18.0223 182.207 18.587 181.898 19.1518 182.052C20.8462 182.516 22.5406 182.979 24.1836 183.391C24.7484 183.546 25.1078 184.112 24.9537 184.679C24.8511 185.142 24.389 185.451 23.9269 185.451ZM90.8285 184.318C90.4177 184.318 90.007 184.061 89.8529 183.649C89.6475 183.134 89.9043 182.516 90.4177 182.258C92.0094 181.589 93.6011 180.868 95.09 180.095C95.6035 179.838 96.2196 180.044 96.4763 180.559C96.7331 181.074 96.5277 181.692 96.0142 181.949C94.4739 182.722 92.8309 183.494 91.1879 184.164C91.0852 184.267 90.9825 184.318 90.8285 184.318ZM13.8634 182.619C13.7607 182.619 13.658 182.619 13.5553 182.567C11.8609 182.052 10.1666 181.486 8.57491 180.919C8.01012 180.713 7.7534 180.147 7.90743 179.58C8.11281 179.014 8.6776 178.756 9.24239 178.911C10.8341 179.477 12.4771 179.992 14.1714 180.559C14.7362 180.713 15.0443 181.331 14.8389 181.846C14.7362 182.361 14.3255 182.619 13.8634 182.619ZM100.122 179.529C99.7624 179.529 99.4543 179.374 99.2489 179.014C98.9409 178.499 99.0949 177.881 99.6083 177.572C101.046 176.645 102.484 175.666 103.819 174.688C104.281 174.327 104.948 174.43 105.308 174.894C105.667 175.357 105.564 176.027 105.102 176.387C103.716 177.469 102.227 178.447 100.738 179.374C100.533 179.477 100.327 179.529 100.122 179.529ZM3.95392 179.168C3.85124 179.168 3.6972 179.168 3.59451 179.117C2.82435 178.808 2.4136 178.653 2.4136 178.653L0.0517578 177.623L2.46494 176.696C2.51628 176.696 2.67032 176.645 2.82435 176.542C3.38914 176.336 4.57006 175.924 6.16173 175.306C6.67517 175.1 7.2913 175.357 7.54802 175.872C7.7534 176.387 7.49668 177.005 6.98324 177.263C6.26442 177.572 5.59694 177.829 5.0835 178.035C5.13484 178.19 5.0835 178.396 5.03215 178.55C4.77543 178.911 4.36468 179.168 3.95392 179.168ZM11.2962 175.151C10.9367 175.151 10.526 174.945 10.372 174.585C10.1152 174.07 10.3206 173.452 10.8341 173.194C12.3744 172.422 13.9147 171.598 15.3524 170.722C15.8658 170.413 16.4819 170.568 16.79 171.083C17.0981 171.598 16.944 172.216 16.4306 172.525C14.9416 173.4 13.3499 174.276 11.7583 175.1C11.6042 175.1 11.4502 175.151 11.2962 175.151ZM108.491 173.246C108.183 173.246 107.926 173.143 107.721 172.885C107.31 172.473 107.361 171.804 107.772 171.392C109.056 170.259 110.237 169.023 111.418 167.787C111.828 167.375 112.496 167.323 112.907 167.735C113.317 168.147 113.369 168.817 112.958 169.229C111.777 170.516 110.493 171.804 109.158 172.988C108.953 173.143 108.748 173.246 108.491 173.246ZM20.2301 169.744C19.922 169.744 19.6139 169.589 19.4086 169.332C19.0491 168.868 19.1518 168.199 19.6139 167.89C21.0516 166.86 22.3352 165.778 23.5674 164.645C23.9782 164.233 24.6457 164.285 25.0564 164.697C25.4672 165.109 25.4158 165.778 25.0051 166.19C23.7215 167.375 22.3352 168.508 20.8462 169.589C20.6922 169.641 20.4354 169.744 20.2301 169.744ZM115.576 165.572C115.371 165.572 115.114 165.521 114.96 165.366C114.498 165.006 114.447 164.336 114.755 163.873C115.782 162.534 116.809 161.143 117.733 159.701C118.041 159.238 118.708 159.083 119.171 159.392C119.633 159.701 119.787 160.371 119.479 160.834C118.503 162.328 117.476 163.77 116.398 165.16C116.193 165.418 115.884 165.572 115.576 165.572ZM27.9317 162.637C27.675 162.637 27.4696 162.534 27.2642 162.379C26.8021 162.019 26.7508 161.349 27.1615 160.886C28.2911 159.547 29.2667 158.156 30.1395 156.766C30.4476 156.251 31.0637 156.096 31.5772 156.405C32.0906 156.714 32.2446 157.332 31.9366 157.847C31.0124 159.341 29.9341 160.783 28.7532 162.225C28.4965 162.534 28.2398 162.637 27.9317 162.637ZM121.276 156.817C121.122 156.817 120.916 156.766 120.762 156.663C120.249 156.405 120.095 155.736 120.351 155.221C121.173 153.727 121.943 152.182 122.662 150.586C122.919 150.071 123.535 149.813 124.048 150.071C124.562 150.328 124.818 150.946 124.562 151.461C123.792 153.109 123.021 154.706 122.2 156.199C121.994 156.611 121.635 156.817 121.276 156.817ZM33.3229 153.727C33.2202 153.727 33.0661 153.727 32.9634 153.676C32.45 153.47 32.1419 152.852 32.3987 152.337C32.45 152.131 32.5527 151.976 32.604 151.77C33.1688 150.225 33.785 148.732 34.4524 147.393C34.7092 146.878 35.3253 146.672 35.8387 146.929C36.3522 147.187 36.5575 147.805 36.3008 148.32C35.6847 149.607 35.0686 150.998 34.5551 152.491C34.5038 152.697 34.4011 152.903 34.3497 153.058C34.1444 153.47 33.7336 153.727 33.3229 153.727ZM125.691 147.29C125.589 147.29 125.435 147.29 125.332 147.238C124.818 147.032 124.51 146.414 124.716 145.899C125.332 144.303 125.897 142.655 126.41 141.007C126.564 140.44 127.18 140.131 127.745 140.337C128.31 140.492 128.618 141.11 128.412 141.676C127.848 143.376 127.283 145.075 126.667 146.672C126.461 147.032 126.102 147.29 125.691 147.29ZM37.9952 144.406C37.7898 144.406 37.5844 144.354 37.3791 144.2C36.917 143.891 36.8143 143.221 37.1223 142.758C38.2519 141.161 39.4328 139.771 40.7164 138.638C41.1272 138.277 41.7947 138.277 42.2054 138.741C42.5648 139.153 42.5648 139.822 42.1027 140.234C40.9218 141.264 39.8436 142.552 38.8167 143.994C38.6627 144.251 38.3033 144.406 37.9952 144.406ZM45.7995 137.608C45.3888 137.608 45.0294 137.35 44.824 136.99C44.6186 136.475 44.824 135.857 45.3888 135.599C46.5183 135.084 47.5966 134.827 48.5208 134.621C47.4939 134.415 46.3643 134.157 45.0294 133.9C44.4646 133.797 44.1052 133.23 44.2079 132.664C44.3105 132.097 44.8753 131.737 45.4401 131.84C47.5966 132.252 49.3423 132.612 50.6259 132.921C51.1907 133.076 51.5501 133.642 51.396 134.209C51.396 134.26 51.3447 134.312 51.3447 134.363C51.7041 134.518 51.9608 134.827 51.9608 135.239C52.0122 135.805 51.6014 136.32 51.0366 136.372C49.8044 136.475 48.1614 136.732 46.313 137.505C46.0562 137.556 45.9022 137.608 45.7995 137.608ZM128.875 137.35C128.772 137.35 128.721 137.35 128.618 137.299C128.053 137.144 127.745 136.578 127.848 136.011C128.002 135.342 128.207 134.621 128.361 133.951L127.026 132.612C126.615 132.2 126.615 131.531 127.026 131.119C127.437 130.707 128.104 130.707 128.515 131.119L130.672 133.333L130.518 133.9C130.312 134.827 130.055 135.702 129.85 136.578C129.747 137.041 129.337 137.35 128.875 137.35ZM39.9976 133.024C39.9463 133.024 39.8949 133.024 39.8436 133.024C37.7385 132.664 35.8901 132.355 34.6578 132.2C34.093 132.097 33.6823 131.582 33.785 131.016C33.8876 130.449 34.4011 130.037 34.9659 130.14C35.2739 130.192 35.582 130.243 35.9928 130.295C35.6847 129.831 35.7874 129.213 36.2495 128.853C37.3277 128.08 38.4059 126.947 39.7409 125.351C40.1003 124.887 40.7678 124.836 41.2299 125.248C41.692 125.608 41.7433 126.278 41.3326 126.741C39.8949 128.441 38.7654 129.677 37.4817 130.552C38.3033 130.707 39.1761 130.81 40.1003 131.016C40.6651 131.119 41.0759 131.634 40.9732 132.2C40.9218 132.664 40.5111 133.024 39.9976 133.024ZM124.1 129.162C123.843 129.162 123.535 129.059 123.329 128.853L119.684 125.093C119.273 124.681 119.273 124.012 119.684 123.6C120.095 123.188 120.762 123.188 121.173 123.6L124.818 127.359C125.229 127.771 125.229 128.441 124.818 128.853C124.664 129.059 124.356 129.162 124.1 129.162ZM43.9511 123.033C43.6944 123.033 43.4377 122.93 43.2837 122.776C42.8729 122.415 42.8216 121.746 43.181 121.282C44.4132 119.892 45.6455 118.604 46.8778 117.42C47.2885 117.008 47.956 117.008 48.3667 117.471C48.7775 117.883 48.7775 118.553 48.3154 118.965C47.1345 120.098 45.9536 121.334 44.7726 122.673C44.5159 122.93 44.2592 123.033 43.9511 123.033ZM116.757 121.694C116.501 121.694 116.193 121.591 115.987 121.385L112.342 117.626C111.931 117.214 111.931 116.544 112.342 116.132C112.752 115.72 113.42 115.72 113.831 116.132L117.476 119.892C117.887 120.304 117.887 120.973 117.476 121.385C117.322 121.591 117.014 121.694 116.757 121.694ZM51.4987 115.823C51.1907 115.823 50.8826 115.669 50.6772 115.411C50.3178 114.948 50.3692 114.278 50.8313 113.918C52.1662 112.836 53.6039 111.755 55.1442 110.776C55.6063 110.467 56.2738 110.57 56.5818 111.085C56.8899 111.549 56.7872 112.218 56.2738 112.527C54.8361 113.506 53.4498 114.536 52.1149 115.566C51.9608 115.72 51.7041 115.823 51.4987 115.823ZM109.415 114.175C109.158 114.175 108.85 114.072 108.645 113.866L104.999 110.107C104.845 109.952 104.743 109.798 104.743 109.592C104.537 109.54 104.332 109.437 104.178 109.231C103.87 108.974 102.381 108.098 99.9678 107.068C99.4543 106.862 99.1976 106.244 99.403 105.678C99.6083 105.163 100.224 104.905 100.789 105.111C101.251 105.317 105.564 107.12 105.975 108.15C105.975 108.201 106.026 108.253 106.026 108.356C106.232 108.407 106.386 108.51 106.54 108.665L110.185 112.424C110.596 112.836 110.596 113.506 110.185 113.918C109.98 114.124 109.723 114.175 109.415 114.175ZM60.1759 109.952C59.8165 109.952 59.4571 109.746 59.2517 109.437C58.9437 108.922 59.149 108.304 59.6625 107.995C60.6894 107.429 61.7676 106.862 62.8458 106.296C63.3593 106.038 63.8727 105.781 64.3862 105.523C64.8996 105.266 65.5157 105.523 65.7725 106.038C66.0292 106.553 65.7725 107.171 65.259 107.429C64.7456 107.635 64.2835 107.892 63.77 108.15C62.7431 108.665 61.6649 109.231 60.6894 109.798C60.5353 109.952 60.33 109.952 60.1759 109.952ZM69.6746 105.678C69.2125 105.678 68.8018 105.42 68.6991 104.957C68.545 104.39 68.8018 103.824 69.3666 103.618C71.0609 103.051 72.8066 102.639 74.5523 102.279C75.1171 102.176 75.6819 102.536 75.7846 103.103C75.8873 103.669 75.5279 104.236 74.9631 104.339C73.3201 104.648 71.6257 105.06 70.034 105.626C69.88 105.626 69.7773 105.678 69.6746 105.678ZM95.4494 105.472C95.3468 105.472 95.2441 105.472 95.1414 105.42C93.4984 104.957 91.804 104.545 90.161 104.287C89.5962 104.184 89.1854 103.669 89.2881 103.051C89.3908 102.485 89.9043 102.073 90.5204 102.176C92.2661 102.485 94.0118 102.897 95.7062 103.36C96.271 103.515 96.579 104.081 96.425 104.648C96.3223 105.163 95.8602 105.472 95.4494 105.472ZM79.8921 103.721C79.3273 103.721 78.8652 103.309 78.8652 102.742C78.8139 102.176 79.276 101.661 79.8408 101.609C81.5865 101.506 83.3835 101.506 85.1806 101.609C85.7454 101.661 86.2075 102.124 86.1561 102.691C86.1048 103.257 85.6427 103.721 85.0779 103.669C83.4349 103.566 81.6892 103.566 79.9948 103.669C79.9435 103.721 79.9435 103.721 79.8921 103.721Z" fill="#7D97F4"/>
<path d="M113.779 119.84C113.779 119.84 88.2609 107.223 77.0679 125.042C65.8235 142.809 58.892 163.564 49.2393 165.778C49.2393 165.778 102.843 180.455 119.992 127.771L113.779 119.84Z" fill="url(#paint0_linear)"/>
<path d="M137.295 64.5807C137.295 64.5807 118.144 44.1868 109.004 46.6588C100.327 48.9763 52.9363 90.8972 48.3667 95.0172C48.1613 95.2232 48.1099 95.5322 48.3153 95.7382C49.7016 97.5921 51.8581 98.6221 54.1172 98.5706C65.1562 98.4161 98.1193 97.5922 108.029 94.1417C119.941 90.0217 137.295 64.5807 137.295 64.5807Z" fill="url(#paint1_linear)"/>
<path d="M68.2368 83.5842C68.0828 83.5842 67.9287 83.5327 67.8261 83.3782C67.6207 83.1722 67.672 82.8117 67.8774 82.6572C68.1341 82.4512 94.4737 59.8943 106.18 50.6758C108.234 49.0793 111.058 48.8218 113.317 50.0063C117.014 51.9633 124.099 56.0318 130.209 61.2333C130.415 61.4393 130.466 61.7483 130.261 61.9543C130.055 62.1603 129.747 62.2118 129.542 62.0058C123.535 56.9073 116.5 52.8388 112.855 50.9333C110.904 49.9033 108.542 50.1093 106.848 51.4998C95.1412 60.7183 68.8529 83.2237 68.5449 83.4812C68.4935 83.5327 68.3908 83.5842 68.2368 83.5842Z" fill="white"/>
<path d="M176.317 116.493C176.317 116.493 190.591 140.543 185.764 148.68C181.143 156.405 127.951 190.601 122.765 193.897C122.508 194.051 122.251 194 122.046 193.742C120.66 191.888 120.249 189.519 120.917 187.356C124.1 176.747 133.907 145.178 139.914 136.578C147.205 126.278 176.317 116.493 176.317 116.493Z" fill="url(#paint2_linear)"/>
<path d="M139.708 178.55C139.554 178.55 139.349 178.447 139.298 178.292C139.144 178.035 139.195 177.726 139.452 177.571C139.76 177.365 168.564 158.156 180.578 149.401C182.375 148.114 183.197 145.899 182.735 143.736C181.862 139.668 179.962 131.788 176.676 124.578C176.574 124.321 176.676 124.012 176.933 123.909C177.19 123.806 177.498 123.909 177.6 124.166C180.732 131.119 182.632 138.535 183.71 143.53C184.275 146.105 183.248 148.732 181.143 150.277C169.077 159.032 140.273 178.241 139.965 178.447C139.914 178.498 139.811 178.55 139.708 178.55Z" fill="white"/>
<path d="M212.309 8.29138C199.472 12.7204 185.815 19.4154 172.517 29.4063C131.236 60.4607 106.231 90.4337 99.3511 99.1886C98.1188 100.785 97.8621 102.897 98.6323 104.751C104.794 119.325 113.933 131.685 126.05 141.831C128.309 143.736 131.493 144.2 134.214 143.015C146.074 137.968 180.372 122.158 219.702 92.2362C232.846 82.2452 242.961 71.0182 250.663 59.8942C241.061 35.0713 223.039 17.5614 212.309 8.29138Z" fill="url(#paint3_linear)"/>
<path d="M250.765 59.8428C267.863 35.3804 273.46 11.6389 274.949 3.65645C275.257 2.11145 274.127 0.617958 272.535 0.463459C264.474 -0.309039 240.343 -1.39054 212.309 8.23994C223.04 17.5614 241.061 35.0714 250.765 59.8428Z" fill="url(#paint4_linear)"/>
<path d="M214.465 79.5157C203.786 87.6011 188.126 84.8201 179.5 73.3357C170.874 61.8512 172.517 45.9893 183.197 37.9038C193.876 29.8183 209.536 32.5993 218.162 44.0838C226.788 55.5682 225.145 71.4302 214.465 79.5157Z" fill="url(#paint5_linear)"/>
<path d="M212.257 75.4471C203.734 81.8846 191.258 79.6701 184.378 70.5031C177.497 61.3362 178.781 48.7187 187.304 42.2812C195.827 35.8437 208.304 38.0582 215.184 47.2252C222.064 56.3922 220.781 69.0097 212.257 75.4471Z" fill="url(#paint6_linear)"/>
<path d="M214.517 55.6713C214.312 55.6713 214.107 55.5168 214.004 55.3108C213.49 53.7658 212.669 52.2723 211.693 50.9333C207.689 45.6288 200.757 43.4143 194.801 45.6288C194.544 45.7318 194.236 45.5773 194.134 45.3198C194.031 45.0623 194.185 44.7533 194.442 44.6503C200.808 42.3328 208.253 44.6503 212.566 50.3153C213.645 51.7573 214.466 53.3023 215.031 55.0018C215.133 55.2593 214.979 55.5683 214.723 55.6713C214.62 55.6713 214.569 55.6713 214.517 55.6713Z" fill="white"/>
<path d="M170.31 101.815C163.276 107.171 152.904 105.317 147.205 97.7467C141.506 90.1762 142.584 79.6703 149.618 74.3658C156.652 69.0098 167.024 70.8638 172.723 78.4343C178.422 86.0048 177.395 96.4592 170.31 101.815Z" fill="url(#paint7_linear)"/>
<path d="M168.872 99.1373C163.276 103.412 155.009 101.918 150.44 95.8928C145.87 89.8673 146.743 81.4728 152.391 77.2499C157.987 72.9754 166.254 74.4689 170.823 80.4943C175.342 86.5198 174.52 94.9143 168.872 99.1373Z" fill="url(#paint8_linear)"/>
<path d="M170.361 86.2623C170.155 86.2623 169.95 86.1078 169.847 85.9018C169.488 84.8718 168.974 83.9448 168.358 83.0693C165.74 79.6188 161.273 78.1768 157.371 79.6188C157.114 79.7218 156.806 79.5673 156.703 79.3098C156.6 79.0523 156.754 78.7433 157.011 78.6403C161.324 77.0953 166.304 78.6403 169.18 82.4513C169.899 83.4298 170.463 84.4598 170.823 85.5928C170.925 85.8503 170.771 86.1593 170.515 86.2623C170.463 86.2623 170.412 86.2623 170.361 86.2623Z" fill="white"/>
<defs>
<linearGradient id="paint0_linear" x1="43.0163" y1="167.642" x2="112.176" y2="125.816" gradientUnits="userSpaceOnUse">
<stop stop-color="#E1473D"/>
<stop offset="1" stop-color="#E9605A"/>
</linearGradient>
<linearGradient id="paint1_linear" x1="910.236" y1="414.449" x2="964.874" y2="436.887" gradientUnits="userSpaceOnUse">
<stop stop-color="#FE7062"/>
<stop offset="1" stop-color="#FF928E"/>
</linearGradient>
<linearGradient id="paint2_linear" x1="890.847" y1="461.617" x2="945.484" y2="484.055" gradientUnits="userSpaceOnUse">
<stop stop-color="#FE7062"/>
<stop offset="1" stop-color="#FF928E"/>
</linearGradient>
<linearGradient id="paint3_linear" x1="215.816" y1="76.1059" x2="-147.705" y2="74.7588" gradientUnits="userSpaceOnUse">
<stop stop-color="#09005D"/>
<stop offset="1" stop-color="#1A0F91"/>
</linearGradient>
<linearGradient id="paint4_linear" x1="249.358" y1="17.5285" x2="177.537" y2="83.7434" gradientUnits="userSpaceOnUse">
<stop stop-color="#FE7062"/>
<stop offset="1" stop-color="#FF928E"/>
</linearGradient>
<linearGradient id="paint5_linear" x1="199.874" y1="33.3493" x2="197.778" y2="84.0247" gradientUnits="userSpaceOnUse">
<stop stop-color="#4042E2"/>
<stop offset="1" stop-color="#4F52FF"/>
</linearGradient>
<linearGradient id="paint6_linear" x1="187.342" y1="42.2842" x2="212.375" y2="75.3635" gradientUnits="userSpaceOnUse">
<stop stop-color="#09005D"/>
<stop offset="1" stop-color="#1A0F91"/>
</linearGradient>
<linearGradient id="paint7_linear" x1="160.684" y1="71.3366" x2="159.299" y2="104.814" gradientUnits="userSpaceOnUse">
<stop stop-color="#4042E2"/>
<stop offset="1" stop-color="#4F52FF"/>
</linearGradient>
<linearGradient id="paint8_linear" x1="152.405" y1="77.2394" x2="168.943" y2="99.0927" gradientUnits="userSpaceOnUse">
<stop stop-color="#09005D"/>
<stop offset="1" stop-color="#1A0F91"/>
</linearGradient>
</defs>
</svg>
