<svg width="977" height="573" viewBox="0 0 977 573" fill="none" xmlns="http://www.w3.org/2000/svg">
<path d="M962.607 571.519L961.742 566.583V566.501C961.584 565.596 962.135 564.691 963 564.526C963.865 564.362 964.73 564.938 964.888 565.843L965.753 570.861C965.91 571.766 965.36 572.671 964.494 572.835C963.629 573.082 962.764 572.506 962.607 571.519Z" fill="url(#paint0_linear)"/>
<path d="M959.304 555.312L958.045 550.541V550.458C957.81 549.553 958.281 548.566 959.225 548.319C960.09 548.073 961.034 548.566 961.27 549.554L962.529 554.407C962.765 555.312 962.214 556.217 961.349 556.464C960.484 556.793 959.54 556.3 959.304 555.312Z" fill="url(#paint1_linear)"/>
<path d="M954.584 539.434L952.933 534.745V534.663C952.618 533.758 953.012 532.771 953.877 532.442C954.742 532.113 955.686 532.524 956 533.429L957.652 538.2C957.967 539.105 957.495 540.093 956.629 540.422C955.922 540.833 954.899 540.422 954.584 539.434Z" fill="url(#paint2_linear)"/>
<path d="M948.607 524.132L946.562 519.608C946.169 518.703 946.483 517.633 947.348 517.222C948.214 516.811 949.236 517.14 949.629 518.045L951.674 522.652C952.068 523.557 951.674 524.626 950.888 525.037C950.023 525.449 949 525.037 948.607 524.132Z" fill="url(#paint3_linear)"/>
<path d="M941.371 509.324L939.012 505.046C938.54 504.141 938.854 503.072 939.641 502.578C940.427 502.085 941.529 502.414 942 503.236L944.439 507.596C944.911 508.501 944.596 509.571 943.809 510.065C942.944 510.558 941.922 510.229 941.371 509.324Z" fill="url(#paint4_linear)"/>
<path d="M933.035 495.174L930.361 491.061C929.81 490.238 930.046 489.086 930.832 488.51C931.619 487.934 932.72 488.181 933.271 489.004L936.023 493.2C936.574 494.022 936.338 495.174 935.552 495.75C934.765 496.243 933.664 496.079 933.035 495.174Z" fill="url(#paint5_linear)"/>
<path d="M923.754 481.764L920.765 477.898C920.136 477.075 920.293 475.923 921.08 475.265C921.866 474.607 922.967 474.771 923.597 475.594L926.585 479.543C927.215 480.366 927.057 481.517 926.271 482.176C925.484 482.669 924.383 482.587 923.754 481.764Z" fill="url(#paint6_linear)"/>
<path d="M913.528 469.013L910.304 465.311C909.596 464.57 909.675 463.336 910.382 462.596C911.09 461.855 912.27 461.938 912.978 462.678L916.281 466.38C916.989 467.12 916.911 468.355 916.203 469.095C915.338 469.918 914.236 469.835 913.528 469.013Z" fill="url(#paint7_linear)"/>
<path d="M902.439 457.084L898.978 453.628C898.27 452.888 898.192 451.654 898.899 450.914C899.607 450.173 900.787 450.091 901.495 450.831L904.956 454.369C905.663 455.109 905.742 456.343 905.034 457.084C904.405 457.824 903.225 457.824 902.439 457.084Z" fill="url(#paint8_linear)"/>
<path d="M890.721 445.895L887.024 442.687C886.237 441.946 886.08 440.712 886.788 439.89C887.496 439.067 888.676 438.902 889.462 439.643L893.159 442.933C893.945 443.674 894.024 444.908 893.395 445.731C892.687 446.553 891.507 446.636 890.721 445.895Z" fill="url(#paint9_linear)"/>
<path d="M878.294 435.529L874.44 432.568C873.575 431.91 873.418 430.676 874.047 429.771C874.676 428.866 875.856 428.701 876.721 429.359L880.575 432.403C881.44 433.061 881.597 434.295 880.968 435.2C880.339 436.023 879.159 436.188 878.294 435.529Z" fill="url(#paint10_linear)"/>
<path d="M865.237 425.904L861.226 423.189C860.282 422.613 860.046 421.297 860.675 420.392C861.226 419.405 862.484 419.158 863.349 419.816L867.439 422.613C868.304 423.189 868.619 424.505 867.99 425.41C867.361 426.315 866.181 426.562 865.237 425.904Z" fill="url(#paint11_linear)"/>
<path d="M851.788 417.184L847.619 414.715C846.676 414.14 846.361 412.906 846.912 411.836C847.462 410.849 848.642 410.52 849.664 411.096L853.833 413.646C854.777 414.222 855.091 415.456 854.541 416.443C853.911 417.43 852.732 417.759 851.788 417.184Z" fill="url(#paint12_linear)"/>
<path d="M837.788 409.203L833.541 406.982C832.519 406.489 832.126 405.172 832.598 404.185C833.069 403.116 834.328 402.704 835.272 403.198L839.598 405.501C840.62 405.995 841.013 407.311 840.463 408.298C839.991 409.286 838.811 409.779 837.788 409.203Z" fill="url(#paint13_linear)"/>
<path d="M823.395 402.128L818.991 400.154C817.969 399.66 817.497 398.426 817.89 397.357C818.362 396.287 819.542 395.794 820.564 396.205L824.968 398.262C825.991 398.755 826.463 399.989 825.991 401.059C825.676 402.046 824.497 402.54 823.395 402.128Z" fill="url(#paint14_linear)"/>
<path d="M808.688 395.794L804.204 394.066C803.103 393.655 802.553 392.421 802.946 391.269C803.339 390.117 804.519 389.541 805.62 389.953L810.182 391.68C811.283 392.092 811.834 393.326 811.44 394.477C810.968 395.711 809.789 396.287 808.688 395.794Z" fill="url(#paint15_linear)"/>
<path d="M793.587 390.446L789.025 389.048C787.924 388.719 787.295 387.485 787.609 386.251C787.924 385.017 789.104 384.441 790.283 384.77L794.924 386.251C796.025 386.58 796.654 387.814 796.34 388.965C795.946 390.117 794.767 390.775 793.587 390.446Z" fill="url(#paint16_linear)"/>
<path d="M778.328 386.004L773.688 384.852C772.508 384.523 771.8 383.371 772.115 382.137C772.429 380.903 773.53 380.163 774.71 380.492L779.429 381.726C780.609 382.055 781.238 383.207 781.002 384.441C780.609 385.51 779.508 386.251 778.328 386.004Z" fill="url(#paint17_linear)"/>
<path d="M762.755 382.302L758.036 381.314C756.856 381.068 756.07 379.916 756.306 378.682C756.541 377.448 757.643 376.625 758.822 376.872L763.541 377.859C764.721 378.106 765.508 379.258 765.272 380.492C765.114 381.808 764.013 382.548 762.755 382.302Z" fill="url(#paint18_linear)"/>
<path d="M747.104 379.422L742.385 378.682C741.205 378.517 740.34 377.283 740.497 376.049C740.654 374.815 741.834 373.91 743.014 374.075L747.812 374.815C748.991 374.98 749.856 376.214 749.621 377.448C749.463 378.764 748.362 379.587 747.104 379.422Z" fill="url(#paint19_linear)"/>
<path d="M731.296 377.283L726.577 376.79C725.318 376.625 724.453 375.473 724.61 374.239C724.768 372.923 725.869 372.018 727.048 372.183L731.846 372.759C733.105 372.923 733.97 374.075 733.812 375.309C733.655 376.543 732.554 377.366 731.296 377.283Z" fill="url(#paint20_linear)"/>
<path d="M715.486 375.72L710.689 375.391C709.43 375.309 708.486 374.157 708.565 372.841C708.644 371.524 709.745 370.537 711.003 370.62L715.801 370.949C717.059 371.031 718.003 372.183 717.925 373.499C717.846 374.815 716.745 375.802 715.486 375.72Z" fill="url(#paint21_linear)"/>
<path d="M699.52 374.898L694.722 374.733C693.464 374.733 692.441 373.581 692.441 372.265C692.441 370.949 693.543 369.879 694.801 369.879L699.599 370.044C700.857 370.044 701.88 371.195 701.801 372.512C701.88 373.91 700.857 374.98 699.52 374.898Z" fill="url(#paint22_linear)"/>
<path d="M683.633 374.651L678.835 374.733C677.577 374.733 676.476 373.663 676.476 372.347C676.476 371.031 677.498 369.879 678.756 369.879H683.554C684.813 369.879 685.914 370.949 685.914 372.265C685.914 373.581 684.891 374.651 683.633 374.651Z" fill="url(#paint23_linear)"/>
<path d="M667.667 374.98L662.869 375.144C661.532 375.227 660.431 374.157 660.431 372.758C660.352 371.36 661.375 370.208 662.712 370.208L667.51 370.044C668.847 369.961 669.869 371.031 669.948 372.429C670.026 373.828 669.004 374.98 667.667 374.98Z" fill="url(#paint24_linear)"/>
<path d="M651.78 375.885L646.982 376.214C645.645 376.296 644.544 375.309 644.386 373.91C644.308 372.512 645.252 371.36 646.589 371.195L651.386 370.866C652.723 370.784 653.825 371.854 653.903 373.17C654.06 374.568 653.117 375.802 651.78 375.885Z" fill="url(#paint25_linear)"/>
<path d="M635.814 377.201L631.016 377.695C629.679 377.859 628.499 376.79 628.42 375.391C628.263 373.993 629.285 372.759 630.623 372.676L635.42 372.183C636.757 372.018 637.937 373.088 638.016 374.486C638.173 375.802 637.151 377.036 635.814 377.201Z" fill="url(#paint26_linear)"/>
<path d="M620.004 378.929L615.285 379.505C613.948 379.669 612.768 378.682 612.611 377.283C612.454 375.885 613.397 374.651 614.734 374.486L619.532 373.91C620.869 373.746 622.049 374.733 622.206 376.132C622.285 377.53 621.341 378.764 620.004 378.929Z" fill="url(#paint27_linear)"/>
<path d="M604.117 381.068L599.398 381.808C598.061 381.973 596.803 381.068 596.645 379.669C596.488 378.271 597.353 376.954 598.69 376.79L603.488 376.049C604.825 375.885 606.083 376.79 606.241 378.188C606.398 379.587 605.454 380.903 604.117 381.068Z" fill="url(#paint28_linear)"/>
<path d="M588.386 383.618L583.667 384.441C582.33 384.687 581.072 383.7 580.836 382.302C580.6 380.903 581.544 379.587 582.881 379.34L587.6 378.517C588.937 378.271 590.195 379.258 590.431 380.656C590.589 382.055 589.724 383.371 588.386 383.618Z" fill="url(#paint29_linear)"/>
<path d="M572.577 386.415L567.858 387.32C566.521 387.567 565.263 386.662 565.027 385.263C564.791 383.865 565.656 382.548 566.993 382.302L571.712 381.397C573.049 381.15 574.308 382.055 574.544 383.453C574.858 384.852 573.993 386.168 572.577 386.415Z" fill="url(#paint30_linear)"/>
<path d="M556.927 389.541L552.208 390.529C550.87 390.775 549.533 389.87 549.298 388.472C549.062 387.073 549.927 385.675 551.264 385.428L555.983 384.441C557.32 384.194 558.578 385.099 558.893 386.497C559.129 387.896 558.264 389.294 556.927 389.541Z" fill="url(#paint31_linear)"/>
<path d="M541.275 392.997L536.556 394.066C535.219 394.395 533.882 393.49 533.646 392.092C533.331 390.693 534.196 389.294 535.533 389.048L540.252 387.978C541.589 387.649 542.927 388.554 543.162 389.953C543.477 391.269 542.612 392.668 541.275 392.997Z" fill="url(#paint32_linear)"/>
<path d="M525.623 396.534L520.904 397.686C519.567 398.015 518.23 397.11 517.915 395.711C517.601 394.313 518.466 392.914 519.803 392.585L524.522 391.433C525.859 391.104 527.196 392.009 527.511 393.408C527.825 394.806 526.96 396.205 525.623 396.534Z" fill="url(#paint33_linear)"/>
<path d="M510.051 400.318L505.41 401.47C504.073 401.799 502.736 400.977 502.422 399.578C502.107 398.179 502.894 396.781 504.231 396.452L508.95 395.3C510.287 394.971 511.624 395.794 511.938 397.274C512.253 398.591 511.388 399.989 510.051 400.318Z" fill="url(#paint34_linear)"/>
<path d="M494.477 404.267L489.837 405.501C488.5 405.83 487.163 405.008 486.769 403.609C486.455 402.211 487.241 400.812 488.578 400.401L493.219 399.167C494.556 398.838 495.893 399.66 496.286 401.059C496.679 402.54 495.893 403.938 494.477 404.267Z" fill="url(#paint35_linear)"/>
<path d="M478.983 408.298L474.343 409.532C473.005 409.862 471.59 409.039 471.275 407.64C470.961 406.242 471.747 404.761 473.084 404.432L477.725 403.198C479.062 402.869 480.477 403.691 480.792 405.09C481.106 406.571 480.32 407.969 478.983 408.298Z" fill="url(#paint36_linear)"/>
<path d="M463.411 412.412L458.77 413.646C457.433 413.975 456.018 413.152 455.703 411.754C455.388 410.355 456.175 408.874 457.512 408.545L462.152 407.311C463.489 406.982 464.905 407.805 465.22 409.203C465.613 410.602 464.826 412.083 463.411 412.412Z" fill="url(#paint37_linear)"/>
<path d="M447.917 416.525L443.276 417.759C441.939 418.088 440.523 417.266 440.209 415.867C439.894 414.469 440.681 412.988 442.018 412.659L446.658 411.425C447.995 411.096 449.411 411.918 449.726 413.317C450.119 414.715 449.254 416.196 447.917 416.525Z" fill="url(#paint38_linear)"/>
<path d="M432.343 420.639L427.703 421.873C426.366 422.202 424.95 421.379 424.635 419.898C424.321 418.5 425.107 417.019 426.523 416.69L431.163 415.456C432.5 415.127 433.916 415.949 434.231 417.43C434.545 418.829 433.759 420.227 432.343 420.639Z" fill="url(#paint39_linear)"/>
<path d="M416.771 424.67L412.13 425.904C410.793 426.233 409.378 425.41 409.063 423.929C408.748 422.531 409.535 421.05 410.951 420.721L415.591 419.569C416.928 419.24 418.344 420.063 418.658 421.544C419.052 422.86 418.187 424.259 416.771 424.67Z" fill="url(#paint40_linear)"/>
<path d="M401.198 428.619L396.479 429.771C395.063 430.1 393.726 429.195 393.411 427.796C393.097 426.315 393.962 424.917 395.299 424.588L399.939 423.436C401.355 423.107 402.692 424.012 403.007 425.41C403.479 426.809 402.614 428.29 401.198 428.619Z" fill="url(#paint41_linear)"/>
<path d="M385.624 432.403L380.905 433.555C379.49 433.884 378.153 432.979 377.838 431.498C377.523 430.017 378.388 428.619 379.804 428.29L384.523 427.22C385.939 426.891 387.276 427.796 387.591 429.277C387.827 430.675 386.961 432.074 385.624 432.403Z" fill="url(#paint42_linear)"/>
<path d="M369.895 436.105L365.176 437.175C363.76 437.504 362.423 436.517 362.109 435.118C361.794 433.637 362.738 432.239 364.075 431.91L368.794 430.84C370.21 430.511 371.547 431.498 371.861 432.897C372.255 434.295 371.311 435.776 369.895 436.105Z" fill="url(#paint43_linear)"/>
<path d="M354.244 439.56L349.524 440.548C348.109 440.877 346.772 439.89 346.457 438.409C346.143 436.928 347.086 435.529 348.502 435.2L353.221 434.213C354.637 433.884 355.974 434.871 356.288 436.352C356.524 437.833 355.659 439.231 354.244 439.56Z" fill="url(#paint44_linear)"/>
<path d="M338.434 442.687L333.715 443.592C332.299 443.838 330.962 442.851 330.647 441.37C330.412 439.89 331.355 438.491 332.771 438.162L337.49 437.257C338.906 437.01 340.243 437.997 340.557 439.478C340.793 441.041 339.85 442.44 338.434 442.687Z" fill="url(#paint45_linear)"/>
<path d="M322.626 445.648L317.907 446.471C316.491 446.718 315.154 445.731 314.918 444.168C314.682 442.687 315.626 441.288 317.12 441.041L321.839 440.219C323.255 439.972 324.592 440.959 324.828 442.522C324.985 444.003 324.041 445.402 322.626 445.648Z" fill="url(#paint46_linear)"/>
<path d="M306.738 448.199L301.941 448.939C300.525 449.186 299.188 448.116 298.952 446.553C298.716 445.073 299.738 443.674 301.233 443.427L305.952 442.769C307.367 442.522 308.705 443.592 308.94 445.155C309.176 446.636 308.154 448.034 306.738 448.199Z" fill="url(#paint47_linear)"/>
<path d="M290.772 450.42L285.974 450.996C284.48 451.16 283.221 450.091 283.064 448.528C282.906 446.965 283.929 445.648 285.423 445.484L290.142 444.908C291.558 444.743 292.895 445.813 293.052 447.376C293.288 448.857 292.266 450.255 290.772 450.42Z" fill="url(#paint48_linear)"/>
<path d="M274.806 452.23L270.008 452.723C268.514 452.888 267.255 451.736 267.098 450.173C266.941 448.61 268.042 447.294 269.536 447.129L274.334 446.718C275.828 446.553 277.087 447.705 277.244 449.268C277.323 450.749 276.3 452.065 274.806 452.23Z" fill="url(#paint49_linear)"/>
<path d="M258.761 453.628L253.963 453.958C252.469 454.04 251.211 452.888 251.132 451.325C251.053 449.762 252.154 448.446 253.649 448.363L258.446 448.034C259.941 447.952 261.199 449.104 261.278 450.667C261.357 452.148 260.255 453.464 258.761 453.628Z" fill="url(#paint50_linear)"/>
<path d="M242.716 454.451L237.919 454.616C236.424 454.698 235.166 453.464 235.166 451.901C235.087 450.338 236.267 449.021 237.761 449.021L242.559 448.857C244.053 448.775 245.233 450.009 245.312 451.572C245.312 453.135 244.211 454.451 242.716 454.451Z" fill="url(#paint51_linear)"/>
<path d="M226.593 454.698L221.717 454.616C220.223 454.616 219.043 453.299 219.043 451.736C219.043 450.173 220.301 448.939 221.796 448.939L226.593 449.021C228.088 449.021 229.268 450.338 229.268 451.901C229.268 453.464 228.088 454.698 226.593 454.698Z" fill="url(#paint52_linear)"/>
<path d="M210.469 454.287L205.671 454.04C204.177 453.958 202.997 452.641 203.076 451.078C203.155 449.515 204.413 448.281 205.907 448.363L210.705 448.61C212.199 448.692 213.379 450.009 213.222 451.572C213.222 453.135 211.964 454.369 210.469 454.287Z" fill="url(#paint53_linear)"/>
<path d="M194.347 453.135L189.549 452.641C188.054 452.477 186.953 451.078 187.111 449.515C187.268 447.952 188.605 446.8 190.099 446.965L194.818 447.458C196.313 447.623 197.414 449.021 197.257 450.584C197.178 452.148 195.841 453.299 194.347 453.135Z" fill="url(#paint54_linear)"/>
<path d="M178.301 451.243L173.503 450.502C172.009 450.255 170.986 448.857 171.222 447.294C171.458 445.731 172.795 444.661 174.29 444.908H174.368L179.087 445.648H179.166C180.66 445.895 181.683 447.294 181.447 448.857C181.132 450.42 179.795 451.489 178.301 451.243Z" fill="url(#paint55_linear)"/>
<path d="M162.336 448.445L157.617 447.458C156.122 447.129 155.178 445.648 155.493 444.085C155.808 442.522 157.223 441.535 158.718 441.864H158.796L163.437 442.851H163.515C165.01 443.18 165.954 444.661 165.639 446.224C165.246 447.787 163.83 448.775 162.336 448.445Z" fill="url(#paint56_linear)"/>
<path d="M146.526 444.826L141.807 443.509C140.313 443.098 139.448 441.535 139.841 439.972C140.234 438.409 141.728 437.504 143.223 437.915H143.301L147.863 439.149H147.942C149.436 439.56 150.301 441.124 149.908 442.687C149.515 444.332 148.02 445.237 146.526 444.826Z" fill="url(#paint57_linear)"/>
<path d="M131.032 440.136L126.392 438.573C124.976 438.08 124.19 436.434 124.662 434.954C125.134 433.473 126.707 432.65 128.122 433.144H128.201L132.684 434.707H132.763C134.178 435.2 134.965 436.846 134.493 438.326C134.021 439.807 132.448 440.63 131.032 440.136Z" fill="url(#paint58_linear)"/>
<path d="M115.774 434.378L111.291 432.403C109.875 431.827 109.167 430.1 109.796 428.619C110.347 427.138 111.999 426.397 113.414 427.056H113.493L117.897 428.948H117.976C119.392 429.524 120.1 431.251 119.471 432.732C118.763 434.295 117.19 435.036 115.774 434.378Z" fill="url(#paint59_linear)"/>
<path d="M100.909 427.549L96.5835 425.246C95.2465 424.505 94.6959 422.778 95.3251 421.297C96.033 419.898 97.6846 419.322 99.1004 419.981H99.179L103.426 422.202H103.505C104.842 422.942 105.392 424.67 104.763 426.151C103.898 427.714 102.246 428.29 100.909 427.549Z" fill="url(#paint60_linear)"/>
<path d="M86.5948 419.487L82.4264 416.854C81.0893 416.032 80.696 414.222 81.4825 412.823C82.269 411.425 83.9994 411.013 85.3364 411.836H85.4151L89.4263 414.469H89.5049C90.842 415.291 91.2352 417.101 90.4487 418.5C89.6622 419.898 87.9319 420.31 86.5948 419.487Z" fill="url(#paint61_linear)"/>
<path d="M72.9881 410.108L69.0556 407.064C67.7971 406.077 67.5612 404.267 68.505 402.951C69.4488 401.635 71.1791 401.388 72.4375 402.375L72.5162 402.457L76.2914 405.419L76.3701 405.501C77.6285 406.489 77.8644 408.298 76.9206 409.615C75.9768 410.931 74.2465 411.096 72.9881 410.108Z" fill="url(#paint62_linear)"/>
<path d="M60.2466 399.578L56.6287 396.205C55.4489 395.136 55.3703 393.243 56.3927 392.009C57.4152 390.775 59.2242 390.693 60.4039 391.763L60.4826 391.845L64.0219 395.136L64.1005 395.218C65.2803 396.287 65.3589 398.179 64.3365 399.413C63.1567 400.565 61.4264 400.648 60.2466 399.578Z" fill="url(#paint63_linear)"/>
<path d="M48.5274 387.731L45.2241 383.947C44.2016 382.713 44.2802 380.903 45.3814 379.751C46.5611 378.682 48.2914 378.764 49.3925 379.916L49.4712 379.998L52.6172 383.618L52.6959 383.7C53.7183 384.934 53.6397 386.744 52.5386 387.896C51.3588 389.048 49.5498 388.965 48.5274 387.731Z" fill="url(#paint64_linear)"/>
<path d="M37.9097 374.815L34.9996 370.702C34.0558 369.386 34.2918 367.493 35.5502 366.506C36.8086 365.519 38.6176 365.766 39.5614 367.082L39.64 367.164L42.4715 371.113L42.5501 371.195C43.4939 372.512 43.258 374.404 41.9996 375.309C40.5838 376.378 38.8535 376.132 37.9097 374.815Z" fill="url(#paint65_linear)"/>
<path d="M28.6288 360.83L26.1119 356.469C25.3254 355.071 25.7187 353.261 27.0557 352.356C28.3928 351.533 30.1231 351.945 30.9883 353.343L31.0669 353.425L33.5051 357.621L33.5838 357.703C34.3703 359.102 33.977 360.912 32.6399 361.817C31.1456 362.639 29.4153 362.228 28.6288 360.83Z" fill="url(#paint66_linear)"/>
<path d="M20.6067 346.021L18.4831 341.414C17.7753 339.933 18.4045 338.123 19.8202 337.383C21.2359 336.643 22.9662 337.301 23.6741 338.782V338.864L25.719 343.306V343.389C26.4269 344.869 25.7977 346.679 24.3819 347.42C23.0449 348.078 21.3146 347.502 20.6067 346.021Z" fill="url(#paint67_linear)"/>
<path d="M13.9211 330.473L12.1908 325.701C11.6402 324.138 12.3481 322.41 13.8425 321.834C15.3368 321.258 16.9885 321.999 17.5391 323.562V323.644L19.1907 328.251V328.334C19.7413 329.897 19.0334 331.624 17.5391 332.2C16.202 332.776 14.5503 332.036 13.9211 330.473Z" fill="url(#paint68_linear)"/>
<path d="M8.57316 314.43L7.23609 309.494C6.76419 307.931 7.708 306.203 9.20236 305.792C10.6967 305.298 12.3484 306.286 12.7416 307.849V307.931L14.0787 312.703V312.785C14.5506 314.348 13.6068 316.076 12.1124 316.487C10.6181 316.898 9.04506 315.993 8.57316 314.43Z" fill="url(#paint69_linear)"/>
<path d="M4.56172 297.977L3.61791 292.958C3.3033 291.313 4.32576 289.75 5.89878 289.421C7.47179 289.091 8.96616 290.161 9.28076 291.806V291.889L10.2246 296.742V296.825C10.5392 298.47 9.51671 300.033 7.9437 300.362C6.37068 300.609 4.87632 299.54 4.56172 297.977Z" fill="url(#paint70_linear)"/>
<path d="M1.80915 281.194L1.2586 276.093C1.1013 274.448 2.20241 272.885 3.77542 272.72C5.34844 272.555 6.8428 273.707 7.0001 275.353V275.435L7.55066 280.371V280.453C7.70796 282.099 6.60685 283.662 5.03383 283.826C3.46082 284.073 1.96645 282.839 1.80915 281.194Z" fill="url(#paint71_linear)"/>
<path d="M0.315132 264.246L0.0791799 259.146C0.000529163 257.5 1.25894 256.02 2.83196 255.937C4.40497 255.855 5.82069 257.171 5.89934 258.817V258.899L6.13529 263.835V263.917C6.21394 265.563 4.95553 267.044 3.38251 267.126C1.73085 267.29 0.315132 265.974 0.315132 264.246Z" fill="url(#paint72_linear)"/>
<path d="M7.6314e-05 247.299L0.157378 242.198C0.236029 240.471 1.57309 239.154 3.14611 239.237C4.79777 239.319 6.05619 240.718 5.97754 242.363V242.445L5.82023 247.381V247.464C5.74158 249.191 4.40452 250.507 2.8315 250.425C1.17984 250.425 -0.0785745 248.944 7.6314e-05 247.299Z" fill="url(#paint73_linear)"/>
<path d="M0.943968 230.352L1.49452 225.251C1.65182 223.523 3.14619 222.372 4.71921 222.536C6.37087 222.701 7.47198 224.264 7.31468 225.909V225.992L6.84278 230.928V231.01C6.68548 232.655 5.19111 233.889 3.61809 233.725C2.04508 233.56 0.786666 231.997 0.943968 230.352Z" fill="url(#paint74_linear)"/>
<path d="M3.06748 213.487L3.93264 208.468C4.24724 206.823 5.7416 205.671 7.39327 206C9.04494 206.329 10.0674 207.892 9.75279 209.62V209.702L8.88764 214.556V214.638C8.57303 216.284 7.07867 217.436 5.427 217.106C3.85399 216.777 2.75288 215.132 3.06748 213.487Z" fill="url(#paint75_linear)"/>
<path d="M6.3706 196.869L7.62901 191.932C8.02226 190.287 9.67393 189.3 11.2469 189.711C12.82 190.123 13.7638 191.85 13.3705 193.496V193.578L12.1908 198.349V198.432C11.7975 200.077 10.1458 201.064 8.57282 200.653C6.92115 200.242 5.97734 198.514 6.3706 196.869Z" fill="url(#paint76_linear)"/>
<path d="M10.9325 180.579L12.5055 175.726C13.0561 174.08 14.7078 173.257 16.2808 173.833C17.8538 174.409 18.6403 176.137 18.0897 177.782V177.865L16.5167 182.554V182.636C15.9662 184.281 14.3145 185.104 12.7415 184.528C11.2471 183.952 10.382 182.142 10.9325 180.579Z" fill="url(#paint77_linear)"/>
<path d="M16.6742 164.619L18.6405 159.93C19.2697 158.367 21.0786 157.626 22.573 158.285C24.0674 158.943 24.7752 160.835 24.146 162.398V162.48L22.2584 167.005V167.087C21.6292 168.65 19.8202 169.391 18.3259 168.65C16.6742 168.075 15.9663 166.182 16.6742 164.619Z" fill="url(#paint78_linear)"/>
<path d="M23.5955 149.235L25.8764 144.71C26.6629 143.147 28.4718 142.654 29.8876 143.394C31.3819 144.217 31.8538 146.109 31.146 147.59V147.672L28.8651 152.032V152.114C28.0786 153.595 26.2696 154.171 24.8539 153.348C23.3595 152.69 22.809 150.798 23.5955 149.235Z" fill="url(#paint79_linear)"/>
<path d="M31.6178 134.509L34.2133 130.231C35.0785 128.75 36.9661 128.339 38.3818 129.244C39.7975 130.149 40.1908 132.123 39.3256 133.604V133.686L36.8088 137.882V137.964C35.9436 139.445 34.056 139.856 32.6403 138.951C31.2246 138.046 30.7527 135.99 31.6178 134.509Z" fill="url(#paint80_linear)"/>
<path d="M40.6623 120.359L43.5724 116.245C44.5949 114.847 46.4825 114.518 47.8196 115.587C49.1566 116.657 49.4712 118.631 48.4488 120.03V120.112L45.6173 124.061V124.143C44.5949 125.542 42.7072 125.871 41.3702 124.801C39.9545 123.732 39.6399 121.757 40.6623 120.359Z" fill="url(#paint81_linear)"/>
<path d="M50.5724 106.949L53.7184 103.082C54.8195 101.766 56.7071 101.602 57.9655 102.753C59.224 103.905 59.3813 105.88 58.2802 107.196L58.2015 107.278L55.1341 111.062L55.0555 111.145C53.9544 112.461 52.0667 112.626 50.8083 111.474C49.7072 110.322 49.5499 108.348 50.5724 106.949Z" fill="url(#paint82_linear)"/>
<path d="M61.3475 94.2796L64.7295 90.6598C65.9093 89.4258 67.7969 89.3435 69.0553 90.5776C70.2351 91.8116 70.3137 93.786 69.1339 95.1023L69.0553 95.1846L65.752 98.7221L65.6733 98.8044C64.4935 100.038 62.6059 100.121 61.4262 98.8867C60.2464 97.5704 60.2464 95.5959 61.3475 94.2796Z" fill="url(#paint83_linear)"/>
<path d="M72.9096 82.433L76.5276 78.9777C77.786 77.826 79.6736 77.9083 80.8533 79.2245C81.9544 80.5408 81.8758 82.5153 80.6174 83.7493H80.5387L76.9995 87.1223H76.9208C75.6624 88.2741 73.7748 88.1918 72.595 86.8755C71.5726 85.5592 71.6512 83.5848 72.9096 82.433Z" fill="url(#paint84_linear)"/>
<path d="M85.1787 71.2445L88.954 68.036C90.291 66.9665 92.1786 67.131 93.2798 68.5296C94.3809 69.9282 94.1449 71.9026 92.8079 73.0544H92.7292L89.0326 76.1806H88.954C87.6169 77.2501 85.7293 77.0855 84.6282 75.687C83.6057 74.3707 83.8417 72.3962 85.1787 71.2445Z" fill="url(#paint85_linear)"/>
<path d="M97.9989 60.9609L101.931 57.9992C103.347 57.012 105.235 57.3411 106.179 58.7397C107.122 60.2205 106.808 62.1949 105.471 63.1822H105.392L101.538 66.0616H101.459C100.044 67.0488 98.1562 66.7197 97.2123 65.3211C96.2685 64.0048 96.5831 61.9481 97.9989 60.9609Z" fill="url(#paint86_linear)"/>
<path d="M111.37 51.4178L115.46 48.703C116.875 47.798 118.763 48.2094 119.707 49.6902C120.572 51.171 120.179 53.1455 118.763 54.1327H118.684L114.673 56.7653H114.594C113.179 57.6703 111.291 57.2589 110.347 55.7781C109.482 54.3795 109.954 52.4051 111.37 51.4178Z" fill="url(#paint87_linear)"/>
<path d="M125.291 42.6973L129.538 40.2292C131.032 39.3243 132.92 39.9002 133.707 41.4633C134.572 43.0264 134.021 45.0008 132.527 45.8235H132.448L128.28 48.2093H128.201C126.707 49.032 124.819 48.5384 124.033 46.9753C123.246 45.4944 123.797 43.6023 125.291 42.6973Z" fill="url(#paint88_linear)"/>
<path d="M139.527 34.7996L143.931 32.5783C145.504 31.7556 147.313 32.4961 148.1 34.0592C148.886 35.7045 148.178 37.5967 146.684 38.4194H146.605L142.358 40.5584H142.279C140.706 41.2988 138.897 40.6406 138.111 39.0775C137.324 37.5144 138.032 35.54 139.527 34.7996Z" fill="url(#paint89_linear)"/>
<path d="M154.235 27.6422L158.718 25.6677C160.291 25.0096 162.1 25.75 162.808 27.3954C163.437 29.0408 162.729 30.9329 161.156 31.6733H161.077L156.673 33.5655H156.594C155.021 34.2237 153.212 33.4832 152.504 31.8379C151.954 30.2748 152.662 28.3826 154.235 27.6422Z" fill="url(#paint90_linear)"/>
<path d="M169.256 21.3898L173.818 19.6621C175.469 19.0863 177.2 19.9089 177.829 21.6366C178.38 23.3642 177.593 25.1741 175.941 25.8323H175.863L171.38 27.5599H171.301C169.649 28.1358 167.919 27.3131 167.29 25.5855C166.661 23.8578 167.683 21.9657 169.256 21.3898Z" fill="url(#paint91_linear)"/>
<path d="M184.594 15.8778L189.234 14.397C190.886 13.9033 192.616 14.8083 193.167 16.5359C193.639 18.2636 192.773 20.0735 191.122 20.6494H191.043L186.481 22.1302H186.403C184.751 22.6238 183.021 21.7188 182.47 19.9912C181.998 18.2636 182.942 16.4537 184.594 15.8778Z" fill="url(#paint92_linear)"/>
<path d="M200.166 11.2708L204.885 10.0368C206.537 9.62543 208.267 10.6949 208.739 12.4226C209.133 14.1502 208.11 15.9601 206.459 16.4537H206.38L201.739 17.6877H201.661C200.009 18.0991 198.279 17.0296 197.886 15.302C197.414 13.492 198.436 11.6821 200.166 11.2708Z" fill="url(#paint93_linear)"/>
<path d="M215.897 7.40421L220.694 6.41699C222.425 6.08792 224.076 7.23968 224.391 9.04958C224.705 10.8595 223.604 12.5871 221.874 12.9162H221.795L217.155 13.9034H217.076C215.346 14.2325 213.694 13.0807 213.38 11.2708C213.065 9.46093 214.166 7.73329 215.897 7.40421Z" fill="url(#paint94_linear)"/>
<path d="M231.783 4.36019L236.581 3.61977C238.311 3.37297 239.884 4.607 240.199 6.4169C240.514 8.22681 239.255 9.87218 237.525 10.2013H237.446L232.727 10.9417H232.649C230.918 11.1885 229.345 9.95445 229.031 8.14454C228.873 6.33463 230.053 4.68926 231.783 4.36019Z" fill="url(#paint95_linear)"/>
<path d="M247.829 2.22124L252.626 1.72763C254.357 1.56309 255.93 2.87939 256.087 4.6893C256.244 6.4992 254.986 8.14457 253.256 8.30911H253.177L248.458 8.80272H248.379C246.649 8.96726 245.076 7.65096 244.919 5.84105C244.84 4.03115 246.098 2.38578 247.829 2.22124Z" fill="url(#paint96_linear)"/>
<path d="M263.952 0.740369L268.828 0.493563C270.559 0.411295 272.053 1.80986 272.211 3.61977C272.289 5.42967 270.952 6.99277 269.222 7.15731H269.143L264.424 7.40412H264.267C262.536 7.48638 261.042 6.08782 260.885 4.27791C260.885 2.46801 262.222 0.904906 263.952 0.740369Z" fill="url(#paint97_linear)"/>
<path d="M280.075 0.0822685L284.952 0C286.682 0 288.176 1.48083 288.176 3.29074C288.176 5.10065 286.761 6.66375 285.03 6.66375H284.952L280.154 6.74602H280.075C278.345 6.74602 276.851 5.26518 276.851 3.45528C276.851 1.64537 278.345 0.0822685 280.075 0.0822685Z" fill="url(#paint98_linear)"/>
<path d="M296.199 0.0822482L301.076 0.246785C302.806 0.329054 304.222 1.80989 304.222 3.70206C304.143 5.51197 302.727 6.9928 300.918 6.9928L296.121 6.82826C294.39 6.746 292.975 5.26516 292.975 3.37299C292.975 1.48081 294.469 -2.02507e-05 296.199 0.0822482Z" fill="url(#paint99_linear)"/>
<path d="M312.322 0.74039L317.12 1.06946C318.85 1.15173 320.187 2.7971 320.109 4.60701C320.03 6.41691 318.457 7.81548 316.727 7.73321L312.008 7.40414C310.277 7.32187 308.94 5.6765 309.019 3.86659C309.098 2.05669 310.592 0.658121 312.322 0.74039Z" fill="url(#paint100_linear)"/>
<path d="M328.446 2.13903L333.244 2.63264C334.974 2.79718 336.232 4.44254 336.075 6.25245C335.918 8.06236 334.345 9.37865 332.615 9.21412L327.895 8.72051C326.165 8.55597 324.907 6.9106 325.064 5.10069C325.143 3.29079 326.716 1.89222 328.446 2.13903Z" fill="url(#paint101_linear)"/>
<path d="M344.491 4.03115L349.288 4.6893C351.019 4.9361 352.198 6.58147 351.962 8.39138C351.727 10.2013 350.154 11.4353 348.423 11.1885L343.704 10.5304C341.974 10.2836 340.794 8.63819 341.03 6.82828C341.266 5.01837 342.76 3.78435 344.491 4.03115Z" fill="url(#paint102_linear)"/>
<path d="M360.378 6.58151L365.175 7.48646C366.906 7.81554 368.007 9.54317 367.771 11.2708C367.456 13.0807 365.805 14.2325 364.153 13.9857L359.434 13.163C357.704 12.8339 356.602 11.1885 356.838 9.37864C357.074 7.48646 358.726 6.25243 360.378 6.58151Z" fill="url(#paint103_linear)"/>
<path d="M376.265 9.62537L380.984 10.6126C382.715 10.9417 383.737 12.7516 383.423 14.4792C383.108 16.2891 381.378 17.3586 379.726 17.0295L375.086 16.0423C373.355 15.7132 372.333 13.9033 372.647 12.1757C372.883 10.4481 374.535 9.29629 376.265 9.62537Z" fill="url(#paint104_linear)"/>
<path d="M391.996 13.2453L396.715 14.397C398.367 14.8084 399.389 16.6183 398.996 18.3459C398.603 20.0735 396.872 21.143 395.221 20.7317L390.58 19.5799C388.929 19.1686 387.827 17.441 388.299 15.6311C388.614 13.9034 390.344 12.8339 391.996 13.2453Z" fill="url(#paint105_linear)"/>
<path d="M407.647 17.3587L412.287 18.675C413.939 19.1686 414.961 20.8962 414.489 22.6238C414.017 24.3515 412.366 25.421 410.714 24.9274L406.074 23.6111C404.422 23.1174 403.399 21.3898 403.871 19.6622C404.265 17.9345 405.995 16.865 407.647 17.3587Z" fill="url(#paint106_linear)"/>
<path d="M423.141 21.8834L427.782 23.3642C429.434 23.8579 430.377 25.6678 429.827 27.3954C429.355 29.123 427.625 30.1103 425.973 29.5344L421.411 28.1358C419.759 27.6422 418.816 25.8323 419.287 24.1047C419.759 22.377 421.49 21.3898 423.141 21.8834Z" fill="url(#paint107_linear)"/>
<path d="M438.557 26.9018L443.118 28.4649C444.77 29.0407 445.635 30.8506 445.085 32.496C444.534 34.2236 442.804 35.1286 441.231 34.5527L436.669 32.9896C435.017 32.4137 434.152 30.6038 434.703 28.8762C435.175 27.2308 436.905 26.3259 438.557 26.9018Z" fill="url(#paint108_linear)"/>
<path d="M453.815 32.2493L458.377 33.9769C459.95 34.5528 460.815 36.445 460.264 38.0903C459.714 39.7357 457.905 40.6407 456.332 40.0648L451.849 38.4194C450.276 37.8435 449.411 35.9514 449.961 34.306C450.512 32.6606 452.163 31.6734 453.815 32.2493Z" fill="url(#paint109_linear)"/>
<path d="M468.916 38.0904L473.399 39.9003C474.972 40.5584 475.759 42.3683 475.13 44.0137C474.501 45.6591 472.77 46.4817 471.197 45.8236L466.714 44.0137C465.141 43.3555 464.355 41.5456 464.984 39.9003C465.534 38.2549 467.343 37.4322 468.916 38.0904Z" fill="url(#paint110_linear)"/>
<path d="M483.859 44.1782L488.343 46.0704C489.916 46.7285 490.623 48.6207 489.994 50.2661C489.365 51.9115 487.556 52.6519 485.983 51.9937L481.579 50.1016C480.006 49.4434 479.298 47.5512 479.927 45.9059C480.556 44.3428 482.286 43.5201 483.859 44.1782Z" fill="url(#paint111_linear)"/>
<path d="M498.724 50.6774L503.129 52.6518C504.702 53.31 505.41 55.2021 504.702 56.8475C504.073 58.4929 502.264 59.2333 500.691 58.4929L496.286 56.5184C494.713 55.8603 494.005 53.9681 494.713 52.3227C495.421 50.7596 497.151 49.9369 498.724 50.6774Z" fill="url(#paint112_linear)"/>
<path d="M513.433 57.4234L517.837 59.4801C519.332 60.2206 520.04 62.0305 519.332 63.6758C518.624 65.2389 516.894 65.9794 515.321 65.2389L510.916 63.1822C509.422 62.4418 508.714 60.6319 509.422 58.9865C510.13 57.4234 511.939 56.683 513.433 57.4234Z" fill="url(#paint113_linear)"/>
<path d="M528.061 64.334L532.466 66.4729C533.96 67.2134 534.668 69.1055 533.96 70.6686C533.252 72.2317 531.443 72.9721 529.949 72.2317L525.623 70.0927C524.129 69.3523 523.421 67.4602 524.129 65.8971C524.758 64.334 526.567 63.5935 528.061 64.334Z" fill="url(#paint114_linear)"/>
<path d="M542.612 71.4091L546.938 73.5481C548.432 74.2885 549.062 76.1807 548.354 77.7438C547.646 79.3069 545.837 79.965 544.343 79.2246L540.017 77.0856C538.522 76.3452 537.893 74.453 538.601 72.8899C539.309 71.3268 541.118 70.6687 542.612 71.4091Z" fill="url(#paint115_linear)"/>
<path d="M557.084 78.6487L561.41 80.7877C562.904 81.5281 563.533 83.4203 562.825 84.9834C562.118 86.5465 560.309 87.2046 558.814 86.4642L554.488 84.3252C552.994 83.5848 552.365 81.6926 553.073 80.1295C553.781 78.5664 555.59 77.9083 557.084 78.6487Z" fill="url(#paint116_linear)"/>
<path d="M571.555 85.8061L575.881 87.945C577.375 88.6854 578.004 90.5776 577.297 92.0585C576.589 93.6216 574.78 94.2797 573.364 93.5393L569.038 91.4003C567.544 90.6599 566.915 88.7677 567.623 87.2869C568.252 85.7238 570.061 85.0656 571.555 85.8061Z" fill="url(#paint117_linear)"/>
<path d="M586.027 93.0457L590.353 95.1847C591.847 95.9251 592.476 97.735 591.768 99.2981C591.06 100.861 589.33 101.519 587.836 100.779L583.51 98.6399C582.016 97.8995 581.386 96.0896 582.094 94.5265C582.723 92.9634 584.532 92.3053 586.027 93.0457Z" fill="url(#paint118_linear)"/>
<path d="M600.498 100.203L604.824 102.342C606.319 103.082 606.948 104.892 606.24 106.373C605.532 107.936 603.802 108.594 602.386 107.854L597.982 105.715C596.487 104.975 595.858 103.165 596.566 101.602C597.195 100.203 599.004 99.5449 600.498 100.203Z" fill="url(#paint119_linear)"/>
<path d="M614.97 107.278L619.296 109.335C620.712 109.993 621.419 111.803 620.712 113.366C620.082 114.847 618.352 115.587 616.858 114.847L612.453 112.79C610.959 112.132 610.33 110.322 611.038 108.759C611.745 107.278 613.476 106.62 614.97 107.278Z" fill="url(#paint120_linear)"/>
<path d="M629.521 114.189L633.926 116.245C635.342 116.904 636.049 118.713 635.342 120.194C634.712 121.675 633.061 122.416 631.566 121.757L627.162 119.701C625.746 119.043 625.038 117.233 625.668 115.752C626.375 114.189 628.027 113.531 629.521 114.189Z" fill="url(#paint121_linear)"/>
<path d="M644.15 120.852L648.554 122.827C649.97 123.485 650.678 125.213 650.049 126.693C649.419 128.174 647.768 128.915 646.352 128.257L641.869 126.282C640.453 125.624 639.745 123.896 640.375 122.415C641.082 120.935 642.734 120.276 644.15 120.852Z" fill="url(#paint122_linear)"/>
<path d="M658.937 127.269L663.42 129.161C664.835 129.737 665.543 131.465 664.993 132.946C664.442 134.427 662.791 135.167 661.375 134.591L656.892 132.781C655.476 132.205 654.768 130.478 655.319 128.997C655.869 127.434 657.442 126.693 658.937 127.269Z" fill="url(#paint123_linear)"/>
<path d="M673.801 133.357L678.284 135.085C679.7 135.661 680.408 137.306 679.857 138.787C679.307 140.268 677.734 141.008 676.318 140.515L671.756 138.787C670.341 138.211 669.633 136.566 670.105 135.085C670.734 133.522 672.307 132.781 673.801 133.357Z" fill="url(#paint124_linear)"/>
<path d="M688.745 139.034L693.307 140.679C694.723 141.173 695.431 142.818 694.959 144.299C694.487 145.78 692.992 146.602 691.577 146.027L687.015 144.381C685.599 143.888 684.813 142.242 685.285 140.761C685.757 139.281 687.33 138.54 688.745 139.034Z" fill="url(#paint125_linear)"/>
<path d="M703.925 144.217L708.487 145.698C709.902 146.191 710.689 147.672 710.217 149.153C709.745 150.634 708.329 151.456 706.914 150.963L702.273 149.482C700.858 149.071 700.071 147.507 700.464 146.027C700.936 144.628 702.431 143.805 703.925 144.217Z" fill="url(#paint126_linear)"/>
<path d="M719.183 148.988L723.823 150.305C725.239 150.716 726.025 152.197 725.632 153.678C725.239 155.158 723.823 155.981 722.407 155.57L717.767 154.253C716.351 153.842 715.565 152.361 715.879 150.88C716.273 149.482 717.767 148.577 719.183 148.988Z" fill="url(#paint127_linear)"/>
<path d="M734.598 153.102L739.239 154.253C740.654 154.582 741.519 156.063 741.205 157.462C740.89 158.943 739.475 159.848 738.137 159.519L733.418 158.367C732.003 158.038 731.138 156.557 731.452 155.158C731.767 153.678 733.182 152.773 734.598 153.102Z" fill="url(#paint128_linear)"/>
<path d="M750.171 156.721L754.891 157.626C756.306 157.873 757.171 159.272 756.935 160.753C756.7 162.233 755.362 163.138 753.947 162.892L749.149 161.987C747.733 161.74 746.868 160.341 747.104 158.86C747.419 157.38 748.756 156.392 750.171 156.721Z" fill="url(#paint129_linear)"/>
<path d="M765.823 159.519L770.542 160.259C771.879 160.506 772.902 161.822 772.666 163.221C772.43 164.619 771.171 165.689 769.834 165.442L765.037 164.702C763.621 164.537 762.677 163.138 762.913 161.74C763.149 160.341 764.407 159.354 765.823 159.519Z" fill="url(#paint130_linear)"/>
<path d="M781.632 161.658L786.351 162.151C787.688 162.316 788.71 163.55 788.553 164.948C788.396 166.347 787.216 167.416 785.879 167.252L781.081 166.758C779.744 166.594 778.721 165.36 778.8 163.961C778.957 162.563 780.216 161.493 781.632 161.658Z" fill="url(#paint131_linear)"/>
<path d="M797.44 162.974L802.159 163.221C803.496 163.303 804.519 164.455 804.519 165.853C804.44 167.252 803.339 168.321 802.002 168.321L797.204 168.157C795.867 168.075 794.845 166.923 794.845 165.524C794.923 163.961 796.025 162.892 797.44 162.974Z" fill="url(#paint132_linear)"/>
<path d="M813.328 163.385L818.125 163.303H818.204C819.541 163.303 820.564 164.372 820.642 165.771C820.642 167.17 819.62 168.239 818.283 168.321L813.406 168.404C812.069 168.404 810.968 167.334 810.968 165.936C810.889 164.537 811.912 163.385 813.328 163.385Z" fill="url(#paint133_linear)"/>
<path d="M829.215 162.809L833.934 162.48H834.013C835.271 162.398 836.372 163.385 836.451 164.702C836.53 166.018 835.586 167.17 834.328 167.252L829.53 167.663C828.271 167.745 827.092 166.758 827.013 165.442C826.856 164.126 827.878 162.974 829.215 162.809Z" fill="url(#paint134_linear)"/>
<path d="M845.025 161.246L849.744 160.588H849.822C851.081 160.424 852.182 161.328 852.339 162.563C852.496 163.879 851.631 165.031 850.451 165.195L845.654 165.936C844.395 166.1 843.294 165.195 843.058 163.961C842.822 162.727 843.687 161.493 845.025 161.246Z" fill="url(#paint135_linear)"/>
<path d="M860.675 158.614L865.316 157.626H865.395C866.574 157.38 867.754 158.202 867.99 159.436C868.226 160.67 867.44 161.822 866.338 162.151L861.619 163.221C860.44 163.467 859.26 162.727 859.024 161.411C858.63 160.177 859.417 158.943 860.675 158.614Z" fill="url(#paint136_linear)"/>
<path d="M876.169 154.912L880.731 153.595H880.81C881.911 153.266 883.091 153.924 883.405 155.158C883.72 156.31 883.091 157.544 881.911 157.873L877.271 159.272C876.169 159.601 874.99 158.943 874.675 157.709C874.282 156.557 874.911 155.323 876.169 154.912Z" fill="url(#paint137_linear)"/>
<path d="M891.35 150.14L895.833 148.495H895.911C897.013 148.083 898.114 148.659 898.507 149.811C898.9 150.88 898.35 152.114 897.249 152.526L892.687 154.253C891.586 154.665 890.406 154.089 890.013 152.937C889.619 151.785 890.17 150.551 891.35 150.14Z" fill="url(#paint138_linear)"/>
<path d="M906.136 144.217L910.461 142.242H910.54C911.563 141.749 912.742 142.242 913.136 143.312C913.607 144.381 913.136 145.533 912.113 146.027L907.709 148.083C906.686 148.577 905.506 148.083 905.034 147.014C904.641 145.944 905.113 144.71 906.136 144.217Z" fill="url(#paint139_linear)"/>
<path d="M920.528 137.224L924.697 134.92H924.776C925.719 134.427 926.899 134.756 927.371 135.743C927.843 136.73 927.528 137.882 926.585 138.458L922.337 140.844C921.393 141.337 920.214 141.008 919.742 140.021C919.191 138.951 919.585 137.8 920.528 137.224Z" fill="url(#paint140_linear)"/>
<path d="M934.372 128.997L938.383 126.282C939.248 125.706 940.349 125.953 940.9 126.858C941.45 127.763 941.214 128.915 940.349 129.491L936.259 132.288C935.394 132.864 934.214 132.617 933.664 131.712C933.192 130.807 933.428 129.655 934.372 128.997Z" fill="url(#paint141_linear)"/>
<path d="M947.427 119.618L951.202 116.574C951.989 115.916 953.09 116.081 953.719 116.904C954.348 117.726 954.191 118.878 953.404 119.454L949.551 122.58C948.764 123.238 947.663 123.074 947.034 122.251C946.483 121.511 946.562 120.277 947.427 119.618Z" fill="url(#paint142_linear)"/>
<path d="M959.697 109.088L963.158 105.715C963.866 105.057 964.888 105.057 965.596 105.797C966.225 106.538 966.225 107.607 965.517 108.265L961.978 111.721C961.27 112.379 960.169 112.379 959.54 111.638C958.911 110.98 958.911 109.828 959.697 109.088Z" fill="url(#paint143_linear)"/>
<path d="M970.944 97.4059L974.09 93.7038C974.719 92.9634 975.742 92.9634 976.371 93.5393C977.079 94.1974 977.079 95.2669 976.528 95.925L973.303 99.7094C972.674 100.45 971.652 100.532 970.944 99.8739C970.393 99.2981 970.315 98.2286 970.944 97.4059Z" fill="url(#paint144_linear)"/>
<defs>
<linearGradient id="paint0_linear" x1="961.747" y1="568.802" x2="965.817" y2="568.802" gradientUnits="userSpaceOnUse">
<stop stop-color="#DAE3FE"/>
<stop offset="1" stop-color="#E9EFFD"/>
</linearGradient>
<linearGradient id="paint1_linear" x1="957.961" y1="552.464" x2="962.519" y2="552.464" gradientUnits="userSpaceOnUse">
<stop stop-color="#DAE3FE"/>
<stop offset="1" stop-color="#E9EFFD"/>
</linearGradient>
<linearGradient id="paint2_linear" x1="952.811" y1="536.525" x2="957.837" y2="536.525" gradientUnits="userSpaceOnUse">
<stop stop-color="#DAE3FE"/>
<stop offset="1" stop-color="#E9EFFD"/>
</linearGradient>
<linearGradient id="paint3_linear" x1="946.377" y1="521.092" x2="951.846" y2="521.092" gradientUnits="userSpaceOnUse">
<stop stop-color="#DAE3FE"/>
<stop offset="1" stop-color="#E9EFFD"/>
</linearGradient>
<linearGradient id="paint4_linear" x1="938.754" y1="506.252" x2="944.634" y2="506.252" gradientUnits="userSpaceOnUse">
<stop stop-color="#DAE3FE"/>
<stop offset="1" stop-color="#E9EFFD"/>
</linearGradient>
<linearGradient id="paint5_linear" x1="930.043" y1="492.076" x2="936.304" y2="492.076" gradientUnits="userSpaceOnUse">
<stop stop-color="#DAE3FE"/>
<stop offset="1" stop-color="#E9EFFD"/>
</linearGradient>
<linearGradient id="paint6_linear" x1="920.347" y1="478.61" x2="926.958" y2="478.61" gradientUnits="userSpaceOnUse">
<stop stop-color="#DAE3FE"/>
<stop offset="1" stop-color="#E9EFFD"/>
</linearGradient>
<linearGradient id="paint7_linear" x1="909.767" y1="465.891" x2="916.697" y2="465.891" gradientUnits="userSpaceOnUse">
<stop stop-color="#DAE3FE"/>
<stop offset="1" stop-color="#E9EFFD"/>
</linearGradient>
<linearGradient id="paint8_linear" x1="898.395" y1="453.943" x2="905.618" y2="453.943" gradientUnits="userSpaceOnUse">
<stop stop-color="#DAE3FE"/>
<stop offset="1" stop-color="#E9EFFD"/>
</linearGradient>
<linearGradient id="paint9_linear" x1="886.318" y1="442.78" x2="893.808" y2="442.78" gradientUnits="userSpaceOnUse">
<stop stop-color="#DAE3FE"/>
<stop offset="1" stop-color="#E9EFFD"/>
</linearGradient>
<linearGradient id="paint10_linear" x1="873.611" y1="432.415" x2="881.347" y2="432.415" gradientUnits="userSpaceOnUse">
<stop stop-color="#DAE3FE"/>
<stop offset="1" stop-color="#E9EFFD"/>
</linearGradient>
<linearGradient id="paint11_linear" x1="860.339" y1="422.857" x2="868.305" y2="422.857" gradientUnits="userSpaceOnUse">
<stop stop-color="#DAE3FE"/>
<stop offset="1" stop-color="#E9EFFD"/>
</linearGradient>
<linearGradient id="paint12_linear" x1="846.569" y1="414.114" x2="854.74" y2="414.114" gradientUnits="userSpaceOnUse">
<stop stop-color="#DAE3FE"/>
<stop offset="1" stop-color="#E9EFFD"/>
</linearGradient>
<linearGradient id="paint13_linear" x1="832.354" y1="406.201" x2="840.717" y2="406.201" gradientUnits="userSpaceOnUse">
<stop stop-color="#DAE3FE"/>
<stop offset="1" stop-color="#E9EFFD"/>
</linearGradient>
<linearGradient id="paint14_linear" x1="817.743" y1="399.131" x2="826.284" y2="399.131" gradientUnits="userSpaceOnUse">
<stop stop-color="#DAE3FE"/>
<stop offset="1" stop-color="#E9EFFD"/>
</linearGradient>
<linearGradient id="paint15_linear" x1="802.781" y1="392.925" x2="811.488" y2="392.925" gradientUnits="userSpaceOnUse">
<stop stop-color="#DAE3FE"/>
<stop offset="1" stop-color="#E9EFFD"/>
</linearGradient>
<linearGradient id="paint16_linear" x1="787.515" y1="387.608" x2="796.373" y2="387.608" gradientUnits="userSpaceOnUse">
<stop stop-color="#DAE3FE"/>
<stop offset="1" stop-color="#E9EFFD"/>
</linearGradient>
<linearGradient id="paint17_linear" x1="772.004" y1="383.204" x2="780.983" y2="383.204" gradientUnits="userSpaceOnUse">
<stop stop-color="#DAE3FE"/>
<stop offset="1" stop-color="#E9EFFD"/>
</linearGradient>
<linearGradient id="paint18_linear" x1="756.302" y1="379.612" x2="765.398" y2="379.612" gradientUnits="userSpaceOnUse">
<stop stop-color="#DAE3FE"/>
<stop offset="1" stop-color="#E9EFFD"/>
</linearGradient>
<linearGradient id="paint19_linear" x1="740.467" y1="376.772" x2="749.662" y2="376.772" gradientUnits="userSpaceOnUse">
<stop stop-color="#DAE3FE"/>
<stop offset="1" stop-color="#E9EFFD"/>
</linearGradient>
<linearGradient id="paint20_linear" x1="724.534" y1="374.652" x2="733.817" y2="374.652" gradientUnits="userSpaceOnUse">
<stop stop-color="#DAE3FE"/>
<stop offset="1" stop-color="#E9EFFD"/>
</linearGradient>
<linearGradient id="paint21_linear" x1="708.536" y1="373.219" x2="717.897" y2="373.219" gradientUnits="userSpaceOnUse">
<stop stop-color="#DAE3FE"/>
<stop offset="1" stop-color="#E9EFFD"/>
</linearGradient>
<linearGradient id="paint22_linear" x1="692.5" y1="372.431" x2="701.932" y2="372.431" gradientUnits="userSpaceOnUse">
<stop stop-color="#DAE3FE"/>
<stop offset="1" stop-color="#E9EFFD"/>
</linearGradient>
<linearGradient id="paint23_linear" x1="676.451" y1="372.259" x2="685.947" y2="372.259" gradientUnits="userSpaceOnUse">
<stop stop-color="#DAE3FE"/>
<stop offset="1" stop-color="#E9EFFD"/>
</linearGradient>
<linearGradient id="paint24_linear" x1="660.407" y1="372.639" x2="669.961" y2="372.639" gradientUnits="userSpaceOnUse">
<stop stop-color="#DAE3FE"/>
<stop offset="1" stop-color="#E9EFFD"/>
</linearGradient>
<linearGradient id="paint25_linear" x1="644.384" y1="373.538" x2="653.993" y2="373.538" gradientUnits="userSpaceOnUse">
<stop stop-color="#DAE3FE"/>
<stop offset="1" stop-color="#E9EFFD"/>
</linearGradient>
<linearGradient id="paint26_linear" x1="628.417" y1="374.91" x2="638.042" y2="374.91" gradientUnits="userSpaceOnUse">
<stop stop-color="#DAE3FE"/>
<stop offset="1" stop-color="#E9EFFD"/>
</linearGradient>
<linearGradient id="paint27_linear" x1="612.49" y1="376.721" x2="622.119" y2="376.721" gradientUnits="userSpaceOnUse">
<stop stop-color="#DAE3FE"/>
<stop offset="1" stop-color="#E9EFFD"/>
</linearGradient>
<linearGradient id="paint28_linear" x1="596.604" y1="378.928" x2="606.246" y2="378.928" gradientUnits="userSpaceOnUse">
<stop stop-color="#DAE3FE"/>
<stop offset="1" stop-color="#E9EFFD"/>
</linearGradient>
<linearGradient id="paint29_linear" x1="580.77" y1="381.492" x2="590.414" y2="381.492" gradientUnits="userSpaceOnUse">
<stop stop-color="#DAE3FE"/>
<stop offset="1" stop-color="#E9EFFD"/>
</linearGradient>
<linearGradient id="paint30_linear" x1="564.986" y1="384.374" x2="574.635" y2="384.374" gradientUnits="userSpaceOnUse">
<stop stop-color="#DAE3FE"/>
<stop offset="1" stop-color="#E9EFFD"/>
</linearGradient>
<linearGradient id="paint31_linear" x1="549.252" y1="387.54" x2="558.907" y2="387.54" gradientUnits="userSpaceOnUse">
<stop stop-color="#DAE3FE"/>
<stop offset="1" stop-color="#E9EFFD"/>
</linearGradient>
<linearGradient id="paint32_linear" x1="533.565" y1="390.955" x2="543.227" y2="390.955" gradientUnits="userSpaceOnUse">
<stop stop-color="#DAE3FE"/>
<stop offset="1" stop-color="#E9EFFD"/>
</linearGradient>
<linearGradient id="paint33_linear" x1="517.917" y1="394.586" x2="527.591" y2="394.586" gradientUnits="userSpaceOnUse">
<stop stop-color="#DAE3FE"/>
<stop offset="1" stop-color="#E9EFFD"/>
</linearGradient>
<linearGradient id="paint34_linear" x1="502.31" y1="398.398" x2="511.991" y2="398.398" gradientUnits="userSpaceOnUse">
<stop stop-color="#DAE3FE"/>
<stop offset="1" stop-color="#E9EFFD"/>
</linearGradient>
<linearGradient id="paint35_linear" x1="486.725" y1="402.341" x2="496.424" y2="402.341" gradientUnits="userSpaceOnUse">
<stop stop-color="#DAE3FE"/>
<stop offset="1" stop-color="#E9EFFD"/>
</linearGradient>
<linearGradient id="paint36_linear" x1="471.168" y1="406.374" x2="480.875" y2="406.374" gradientUnits="userSpaceOnUse">
<stop stop-color="#DAE3FE"/>
<stop offset="1" stop-color="#E9EFFD"/>
</linearGradient>
<linearGradient id="paint37_linear" x1="455.623" y1="410.458" x2="465.348" y2="410.458" gradientUnits="userSpaceOnUse">
<stop stop-color="#DAE3FE"/>
<stop offset="1" stop-color="#E9EFFD"/>
</linearGradient>
<linearGradient id="paint38_linear" x1="440.078" y1="414.556" x2="449.825" y2="414.556" gradientUnits="userSpaceOnUse">
<stop stop-color="#DAE3FE"/>
<stop offset="1" stop-color="#E9EFFD"/>
</linearGradient>
<linearGradient id="paint39_linear" x1="424.525" y1="418.632" x2="434.299" y2="418.632" gradientUnits="userSpaceOnUse">
<stop stop-color="#DAE3FE"/>
<stop offset="1" stop-color="#E9EFFD"/>
</linearGradient>
<linearGradient id="paint40_linear" x1="408.958" y1="422.647" x2="418.76" y2="422.647" gradientUnits="userSpaceOnUse">
<stop stop-color="#DAE3FE"/>
<stop offset="1" stop-color="#E9EFFD"/>
</linearGradient>
<linearGradient id="paint41_linear" x1="393.366" y1="426.564" x2="403.2" y2="426.564" gradientUnits="userSpaceOnUse">
<stop stop-color="#DAE3FE"/>
<stop offset="1" stop-color="#E9EFFD"/>
</linearGradient>
<linearGradient id="paint42_linear" x1="377.742" y1="430.345" x2="387.61" y2="430.345" gradientUnits="userSpaceOnUse">
<stop stop-color="#DAE3FE"/>
<stop offset="1" stop-color="#E9EFFD"/>
</linearGradient>
<linearGradient id="paint43_linear" x1="362.08" y1="433.951" x2="371.984" y2="433.951" gradientUnits="userSpaceOnUse">
<stop stop-color="#DAE3FE"/>
<stop offset="1" stop-color="#E9EFFD"/>
</linearGradient>
<linearGradient id="paint44_linear" x1="346.367" y1="437.345" x2="356.314" y2="437.345" gradientUnits="userSpaceOnUse">
<stop stop-color="#DAE3FE"/>
<stop offset="1" stop-color="#E9EFFD"/>
</linearGradient>
<linearGradient id="paint45_linear" x1="330.608" y1="440.484" x2="340.59" y2="440.484" gradientUnits="userSpaceOnUse">
<stop stop-color="#DAE3FE"/>
<stop offset="1" stop-color="#E9EFFD"/>
</linearGradient>
<linearGradient id="paint46_linear" x1="314.802" y1="443.329" x2="324.82" y2="443.329" gradientUnits="userSpaceOnUse">
<stop stop-color="#DAE3FE"/>
<stop offset="1" stop-color="#E9EFFD"/>
</linearGradient>
<linearGradient id="paint47_linear" x1="298.953" y1="445.839" x2="309.007" y2="445.839" gradientUnits="userSpaceOnUse">
<stop stop-color="#DAE3FE"/>
<stop offset="1" stop-color="#E9EFFD"/>
</linearGradient>
<linearGradient id="paint48_linear" x1="283.049" y1="447.975" x2="293.14" y2="447.975" gradientUnits="userSpaceOnUse">
<stop stop-color="#DAE3FE"/>
<stop offset="1" stop-color="#E9EFFD"/>
</linearGradient>
<linearGradient id="paint49_linear" x1="267.101" y1="449.695" x2="277.229" y2="449.695" gradientUnits="userSpaceOnUse">
<stop stop-color="#DAE3FE"/>
<stop offset="1" stop-color="#E9EFFD"/>
</linearGradient>
<linearGradient id="paint50_linear" x1="251.117" y1="450.961" x2="261.282" y2="450.961" gradientUnits="userSpaceOnUse">
<stop stop-color="#DAE3FE"/>
<stop offset="1" stop-color="#E9EFFD"/>
</linearGradient>
<linearGradient id="paint51_linear" x1="235.097" y1="451.719" x2="245.299" y2="451.719" gradientUnits="userSpaceOnUse">
<stop stop-color="#DAE3FE"/>
<stop offset="1" stop-color="#E9EFFD"/>
</linearGradient>
<linearGradient id="paint52_linear" x1="219.066" y1="451.856" x2="229.294" y2="451.856" gradientUnits="userSpaceOnUse">
<stop stop-color="#DAE3FE"/>
<stop offset="1" stop-color="#E9EFFD"/>
</linearGradient>
<linearGradient id="paint53_linear" x1="203.045" y1="451.326" x2="213.291" y2="451.326" gradientUnits="userSpaceOnUse">
<stop stop-color="#DAE3FE"/>
<stop offset="1" stop-color="#E9EFFD"/>
</linearGradient>
<linearGradient id="paint54_linear" x1="187.068" y1="450.074" x2="197.322" y2="450.074" gradientUnits="userSpaceOnUse">
<stop stop-color="#DAE3FE"/>
<stop offset="1" stop-color="#E9EFFD"/>
</linearGradient>
<linearGradient id="paint55_linear" x1="171.167" y1="448.043" x2="181.419" y2="448.043" gradientUnits="userSpaceOnUse">
<stop stop-color="#DAE3FE"/>
<stop offset="1" stop-color="#E9EFFD"/>
</linearGradient>
<linearGradient id="paint56_linear" x1="155.396" y1="445.17" x2="165.629" y2="445.17" gradientUnits="userSpaceOnUse">
<stop stop-color="#DAE3FE"/>
<stop offset="1" stop-color="#E9EFFD"/>
</linearGradient>
<linearGradient id="paint57_linear" x1="139.81" y1="441.383" x2="150.006" y2="441.383" gradientUnits="userSpaceOnUse">
<stop stop-color="#DAE3FE"/>
<stop offset="1" stop-color="#E9EFFD"/>
</linearGradient>
<linearGradient id="paint58_linear" x1="124.488" y1="436.607" x2="134.622" y2="436.607" gradientUnits="userSpaceOnUse">
<stop stop-color="#DAE3FE"/>
<stop offset="1" stop-color="#E9EFFD"/>
</linearGradient>
<linearGradient id="paint59_linear" x1="109.514" y1="430.767" x2="119.563" y2="430.767" gradientUnits="userSpaceOnUse">
<stop stop-color="#DAE3FE"/>
<stop offset="1" stop-color="#E9EFFD"/>
</linearGradient>
<linearGradient id="paint60_linear" x1="95.0153" y1="423.794" x2="104.929" y2="423.794" gradientUnits="userSpaceOnUse">
<stop stop-color="#DAE3FE"/>
<stop offset="1" stop-color="#E9EFFD"/>
</linearGradient>
<linearGradient id="paint61_linear" x1="81.1127" y1="415.635" x2="90.8559" y2="415.635" gradientUnits="userSpaceOnUse">
<stop stop-color="#DAE3FE"/>
<stop offset="1" stop-color="#E9EFFD"/>
</linearGradient>
<linearGradient id="paint62_linear" x1="67.9497" y1="406.258" x2="77.4772" y2="406.258" gradientUnits="userSpaceOnUse">
<stop stop-color="#DAE3FE"/>
<stop offset="1" stop-color="#E9EFFD"/>
</linearGradient>
<linearGradient id="paint63_linear" x1="55.6768" y1="395.668" x2="64.9392" y2="395.668" gradientUnits="userSpaceOnUse">
<stop stop-color="#DAE3FE"/>
<stop offset="1" stop-color="#E9EFFD"/>
</linearGradient>
<linearGradient id="paint64_linear" x1="44.4439" y1="383.889" x2="53.3954" y2="383.889" gradientUnits="userSpaceOnUse">
<stop stop-color="#DAE3FE"/>
<stop offset="1" stop-color="#E9EFFD"/>
</linearGradient>
<linearGradient id="paint65_linear" x1="34.4179" y1="370.98" x2="43.0154" y2="370.98" gradientUnits="userSpaceOnUse">
<stop stop-color="#DAE3FE"/>
<stop offset="1" stop-color="#E9EFFD"/>
</linearGradient>
<linearGradient id="paint66_linear" x1="25.655" y1="357.09" x2="33.8832" y2="357.09" gradientUnits="userSpaceOnUse">
<stop stop-color="#DAE3FE"/>
<stop offset="1" stop-color="#E9EFFD"/>
</linearGradient>
<linearGradient id="paint67_linear" x1="18.1868" y1="342.381" x2="26.0395" y2="342.381" gradientUnits="userSpaceOnUse">
<stop stop-color="#DAE3FE"/>
<stop offset="1" stop-color="#E9EFFD"/>
</linearGradient>
<linearGradient id="paint68_linear" x1="12.0193" y1="327.008" x2="19.4968" y2="327.008" gradientUnits="userSpaceOnUse">
<stop stop-color="#DAE3FE"/>
<stop offset="1" stop-color="#E9EFFD"/>
</linearGradient>
<linearGradient id="paint69_linear" x1="7.14431" y1="311.117" x2="14.2509" y2="311.117" gradientUnits="userSpaceOnUse">
<stop stop-color="#DAE3FE"/>
<stop offset="1" stop-color="#E9EFFD"/>
</linearGradient>
<linearGradient id="paint70_linear" x1="3.54216" y1="294.839" x2="10.2843" y2="294.839" gradientUnits="userSpaceOnUse">
<stop stop-color="#DAE3FE"/>
<stop offset="1" stop-color="#E9EFFD"/>
</linearGradient>
<linearGradient id="paint71_linear" x1="1.19111" y1="278.297" x2="7.57622" y2="278.297" gradientUnits="userSpaceOnUse">
<stop stop-color="#DAE3FE"/>
<stop offset="1" stop-color="#E9EFFD"/>
</linearGradient>
<linearGradient id="paint72_linear" x1="0.0682647" y1="261.599" x2="6.10328" y2="261.599" gradientUnits="userSpaceOnUse">
<stop stop-color="#DAE3FE"/>
<stop offset="1" stop-color="#E9EFFD"/>
</linearGradient>
<linearGradient id="paint73_linear" x1="7.63136e-05" y1="244.845" x2="6.00349" y2="244.845" gradientUnits="userSpaceOnUse">
<stop stop-color="#DAE3FE"/>
<stop offset="1" stop-color="#E9EFFD"/>
</linearGradient>
<linearGradient id="paint74_linear" x1="0.916833" y1="228.127" x2="7.30532" y2="228.127" gradientUnits="userSpaceOnUse">
<stop stop-color="#DAE3FE"/>
<stop offset="1" stop-color="#E9EFFD"/>
</linearGradient>
<linearGradient id="paint75_linear" x1="3.02068" y1="211.543" x2="9.79023" y2="211.543" gradientUnits="userSpaceOnUse">
<stop stop-color="#DAE3FE"/>
<stop offset="1" stop-color="#E9EFFD"/>
</linearGradient>
<linearGradient id="paint76_linear" x1="6.30296" y1="195.188" x2="13.4534" y2="195.188" gradientUnits="userSpaceOnUse">
<stop stop-color="#DAE3FE"/>
<stop offset="1" stop-color="#E9EFFD"/>
</linearGradient>
<linearGradient id="paint77_linear" x1="10.7625" y1="179.156" x2="18.2936" y2="179.156" gradientUnits="userSpaceOnUse">
<stop stop-color="#DAE3FE"/>
<stop offset="1" stop-color="#E9EFFD"/>
</linearGradient>
<linearGradient id="paint78_linear" x1="16.3988" y1="163.549" x2="24.3125" y2="163.549" gradientUnits="userSpaceOnUse">
<stop stop-color="#DAE3FE"/>
<stop offset="1" stop-color="#E9EFFD"/>
</linearGradient>
<linearGradient id="paint79_linear" x1="23.2148" y1="148.478" x2="31.506" y2="148.478" gradientUnits="userSpaceOnUse">
<stop stop-color="#DAE3FE"/>
<stop offset="1" stop-color="#E9EFFD"/>
</linearGradient>
<linearGradient id="paint80_linear" x1="31.1529" y1="134.023" x2="39.7673" y2="134.023" gradientUnits="userSpaceOnUse">
<stop stop-color="#DAE3FE"/>
<stop offset="1" stop-color="#E9EFFD"/>
</linearGradient>
<linearGradient id="paint81_linear" x1="40.0639" y1="120.21" x2="48.9808" y2="120.21" gradientUnits="userSpaceOnUse">
<stop stop-color="#DAE3FE"/>
<stop offset="1" stop-color="#E9EFFD"/>
</linearGradient>
<linearGradient id="paint82_linear" x1="49.878" y1="107.086" x2="59.0752" y2="107.086" gradientUnits="userSpaceOnUse">
<stop stop-color="#DAE3FE"/>
<stop offset="1" stop-color="#E9EFFD"/>
</linearGradient>
<linearGradient id="paint83_linear" x1="60.5216" y1="94.6892" x2="69.9763" y2="94.6892" gradientUnits="userSpaceOnUse">
<stop stop-color="#DAE3FE"/>
<stop offset="1" stop-color="#E9EFFD"/>
</linearGradient>
<linearGradient id="paint84_linear" x1="71.9206" y1="83.0465" x2="81.6104" y2="83.0465" gradientUnits="userSpaceOnUse">
<stop stop-color="#DAE3FE"/>
<stop offset="1" stop-color="#E9EFFD"/>
</linearGradient>
<linearGradient id="paint85_linear" x1="84.0009" y1="72.1761" x2="93.9042" y2="72.1761" gradientUnits="userSpaceOnUse">
<stop stop-color="#DAE3FE"/>
<stop offset="1" stop-color="#E9EFFD"/>
</linearGradient>
<linearGradient id="paint86_linear" x1="96.694" y1="62.0901" x2="106.79" y2="62.0901" gradientUnits="userSpaceOnUse">
<stop stop-color="#DAE3FE"/>
<stop offset="1" stop-color="#E9EFFD"/>
</linearGradient>
<linearGradient id="paint87_linear" x1="109.934" y1="52.7953" x2="120.205" y2="52.7953" gradientUnits="userSpaceOnUse">
<stop stop-color="#DAE3FE"/>
<stop offset="1" stop-color="#E9EFFD"/>
</linearGradient>
<linearGradient id="paint88_linear" x1="123.659" y1="44.2952" x2="134.087" y2="44.2952" gradientUnits="userSpaceOnUse">
<stop stop-color="#DAE3FE"/>
<stop offset="1" stop-color="#E9EFFD"/>
</linearGradient>
<linearGradient id="paint89_linear" x1="137.814" y1="36.5926" x2="148.381" y2="36.5926" gradientUnits="userSpaceOnUse">
<stop stop-color="#DAE3FE"/>
<stop offset="1" stop-color="#E9EFFD"/>
</linearGradient>
<linearGradient id="paint90_linear" x1="152.349" y1="29.6858" x2="163.049" y2="29.6858" gradientUnits="userSpaceOnUse">
<stop stop-color="#DAE3FE"/>
<stop offset="1" stop-color="#E9EFFD"/>
</linearGradient>
<linearGradient id="paint91_linear" x1="167.216" y1="23.5822" x2="178.022" y2="23.5822" gradientUnits="userSpaceOnUse">
<stop stop-color="#DAE3FE"/>
<stop offset="1" stop-color="#E9EFFD"/>
</linearGradient>
<linearGradient id="paint92_linear" x1="182.364" y1="18.2853" x2="193.27" y2="18.2853" gradientUnits="userSpaceOnUse">
<stop stop-color="#DAE3FE"/>
<stop offset="1" stop-color="#E9EFFD"/>
</linearGradient>
<linearGradient id="paint93_linear" x1="197.754" y1="13.8003" x2="208.748" y2="13.8003" gradientUnits="userSpaceOnUse">
<stop stop-color="#DAE3FE"/>
<stop offset="1" stop-color="#E9EFFD"/>
</linearGradient>
<linearGradient id="paint94_linear" x1="213.348" y1="10.1361" x2="224.422" y2="10.1361" gradientUnits="userSpaceOnUse">
<stop stop-color="#DAE3FE"/>
<stop offset="1" stop-color="#E9EFFD"/>
</linearGradient>
<linearGradient id="paint95_linear" x1="229.112" y1="7.30409" x2="240.237" y2="7.30409" gradientUnits="userSpaceOnUse">
<stop stop-color="#DAE3FE"/>
<stop offset="1" stop-color="#E9EFFD"/>
</linearGradient>
<linearGradient id="paint96_linear" x1="244.986" y1="5.2609" x2="256.16" y2="5.2609" gradientUnits="userSpaceOnUse">
<stop stop-color="#DAE3FE"/>
<stop offset="1" stop-color="#E9EFFD"/>
</linearGradient>
<linearGradient id="paint97_linear" x1="260.938" y1="3.96003" x2="272.149" y2="3.96003" gradientUnits="userSpaceOnUse">
<stop stop-color="#DAE3FE"/>
<stop offset="1" stop-color="#E9EFFD"/>
</linearGradient>
<linearGradient id="paint98_linear" x1="276.933" y1="3.37819" x2="288.171" y2="3.37819" gradientUnits="userSpaceOnUse">
<stop stop-color="#DAE3FE"/>
<stop offset="1" stop-color="#E9EFFD"/>
</linearGradient>
<linearGradient id="paint99_linear" x1="292.941" y1="3.48849" x2="304.184" y2="3.48849" gradientUnits="userSpaceOnUse">
<stop stop-color="#DAE3FE"/>
<stop offset="1" stop-color="#E9EFFD"/>
</linearGradient>
<linearGradient id="paint100_linear" x1="308.96" y1="4.26263" x2="320.167" y2="4.26263" gradientUnits="userSpaceOnUse">
<stop stop-color="#DAE3FE"/>
<stop offset="1" stop-color="#E9EFFD"/>
</linearGradient>
<linearGradient id="paint101_linear" x1="324.944" y1="5.67032" x2="336.109" y2="5.67032" gradientUnits="userSpaceOnUse">
<stop stop-color="#DAE3FE"/>
<stop offset="1" stop-color="#E9EFFD"/>
</linearGradient>
<linearGradient id="paint102_linear" x1="340.871" y1="7.68025" x2="351.988" y2="7.68025" gradientUnits="userSpaceOnUse">
<stop stop-color="#DAE3FE"/>
<stop offset="1" stop-color="#E9EFFD"/>
</linearGradient>
<linearGradient id="paint103_linear" x1="356.724" y1="10.262" x2="367.79" y2="10.262" gradientUnits="userSpaceOnUse">
<stop stop-color="#DAE3FE"/>
<stop offset="1" stop-color="#E9EFFD"/>
</linearGradient>
<linearGradient id="paint104_linear" x1="372.491" y1="13.3842" x2="383.496" y2="13.3842" gradientUnits="userSpaceOnUse">
<stop stop-color="#DAE3FE"/>
<stop offset="1" stop-color="#E9EFFD"/>
</linearGradient>
<linearGradient id="paint105_linear" x1="388.146" y1="17.0167" x2="399.098" y2="17.0167" gradientUnits="userSpaceOnUse">
<stop stop-color="#DAE3FE"/>
<stop offset="1" stop-color="#E9EFFD"/>
</linearGradient>
<linearGradient id="paint106_linear" x1="403.708" y1="21.1363" x2="414.603" y2="21.1363" gradientUnits="userSpaceOnUse">
<stop stop-color="#DAE3FE"/>
<stop offset="1" stop-color="#E9EFFD"/>
</linearGradient>
<linearGradient id="paint107_linear" x1="419.155" y1="25.713" x2="429.99" y2="25.713" gradientUnits="userSpaceOnUse">
<stop stop-color="#DAE3FE"/>
<stop offset="1" stop-color="#E9EFFD"/>
</linearGradient>
<linearGradient id="paint108_linear" x1="434.481" y1="30.7221" x2="445.252" y2="30.7221" gradientUnits="userSpaceOnUse">
<stop stop-color="#DAE3FE"/>
<stop offset="1" stop-color="#E9EFFD"/>
</linearGradient>
<linearGradient id="paint109_linear" x1="449.682" y1="36.1393" x2="460.387" y2="36.1393" gradientUnits="userSpaceOnUse">
<stop stop-color="#DAE3FE"/>
<stop offset="1" stop-color="#E9EFFD"/>
</linearGradient>
<linearGradient id="paint110_linear" x1="464.751" y1="41.9415" x2="475.386" y2="41.9415" gradientUnits="userSpaceOnUse">
<stop stop-color="#DAE3FE"/>
<stop offset="1" stop-color="#E9EFFD"/>
</linearGradient>
<linearGradient id="paint111_linear" x1="479.683" y1="48.1051" x2="490.247" y2="48.1051" gradientUnits="userSpaceOnUse">
<stop stop-color="#DAE3FE"/>
<stop offset="1" stop-color="#E9EFFD"/>
</linearGradient>
<linearGradient id="paint112_linear" x1="494.485" y1="54.5814" x2="504.985" y2="54.5814" gradientUnits="userSpaceOnUse">
<stop stop-color="#DAE3FE"/>
<stop offset="1" stop-color="#E9EFFD"/>
</linearGradient>
<linearGradient id="paint113_linear" x1="509.177" y1="61.3137" x2="519.62" y2="61.3137" gradientUnits="userSpaceOnUse">
<stop stop-color="#DAE3FE"/>
<stop offset="1" stop-color="#E9EFFD"/>
</linearGradient>
<linearGradient id="paint114_linear" x1="523.78" y1="68.2481" x2="534.173" y2="68.2481" gradientUnits="userSpaceOnUse">
<stop stop-color="#DAE3FE"/>
<stop offset="1" stop-color="#E9EFFD"/>
</linearGradient>
<linearGradient id="paint115_linear" x1="538.318" y1="75.3311" x2="548.668" y2="75.3311" gradientUnits="userSpaceOnUse">
<stop stop-color="#DAE3FE"/>
<stop offset="1" stop-color="#E9EFFD"/>
</linearGradient>
<linearGradient id="paint116_linear" x1="552.814" y1="82.5099" x2="563.126" y2="82.5099" gradientUnits="userSpaceOnUse">
<stop stop-color="#DAE3FE"/>
<stop offset="1" stop-color="#E9EFFD"/>
</linearGradient>
<linearGradient id="paint117_linear" x1="567.288" y1="89.7303" x2="577.572" y2="89.7303" gradientUnits="userSpaceOnUse">
<stop stop-color="#DAE3FE"/>
<stop offset="1" stop-color="#E9EFFD"/>
</linearGradient>
<linearGradient id="paint118_linear" x1="581.763" y1="96.9383" x2="592.031" y2="96.9383" gradientUnits="userSpaceOnUse">
<stop stop-color="#DAE3FE"/>
<stop offset="1" stop-color="#E9EFFD"/>
</linearGradient>
<linearGradient id="paint119_linear" x1="596.269" y1="104.077" x2="606.5" y2="104.077" gradientUnits="userSpaceOnUse">
<stop stop-color="#DAE3FE"/>
<stop offset="1" stop-color="#E9EFFD"/>
</linearGradient>
<linearGradient id="paint120_linear" x1="610.844" y1="111.103" x2="621.019" y2="111.103" gradientUnits="userSpaceOnUse">
<stop stop-color="#DAE3FE"/>
<stop offset="1" stop-color="#E9EFFD"/>
</linearGradient>
<linearGradient id="paint121_linear" x1="625.49" y1="117.955" x2="635.616" y2="117.955" gradientUnits="userSpaceOnUse">
<stop stop-color="#DAE3FE"/>
<stop offset="1" stop-color="#E9EFFD"/>
</linearGradient>
<linearGradient id="paint122_linear" x1="640.225" y1="124.581" x2="650.31" y2="124.581" gradientUnits="userSpaceOnUse">
<stop stop-color="#DAE3FE"/>
<stop offset="1" stop-color="#E9EFFD"/>
</linearGradient>
<linearGradient id="paint123_linear" x1="655.074" y1="130.918" x2="665.122" y2="130.918" gradientUnits="userSpaceOnUse">
<stop stop-color="#DAE3FE"/>
<stop offset="1" stop-color="#E9EFFD"/>
</linearGradient>
<linearGradient id="paint124_linear" x1="670.052" y1="136.908" x2="680.066" y2="136.908" gradientUnits="userSpaceOnUse">
<stop stop-color="#DAE3FE"/>
<stop offset="1" stop-color="#E9EFFD"/>
</linearGradient>
<linearGradient id="paint125_linear" x1="685.169" y1="142.502" x2="695.151" y2="142.502" gradientUnits="userSpaceOnUse">
<stop stop-color="#DAE3FE"/>
<stop offset="1" stop-color="#E9EFFD"/>
</linearGradient>
<linearGradient id="paint126_linear" x1="700.43" y1="147.644" x2="710.383" y2="147.644" gradientUnits="userSpaceOnUse">
<stop stop-color="#DAE3FE"/>
<stop offset="1" stop-color="#E9EFFD"/>
</linearGradient>
<linearGradient id="paint127_linear" x1="715.84" y1="152.277" x2="725.763" y2="152.277" gradientUnits="userSpaceOnUse">
<stop stop-color="#DAE3FE"/>
<stop offset="1" stop-color="#E9EFFD"/>
</linearGradient>
<linearGradient id="paint128_linear" x1="731.396" y1="156.34" x2="741.288" y2="156.34" gradientUnits="userSpaceOnUse">
<stop stop-color="#DAE3FE"/>
<stop offset="1" stop-color="#E9EFFD"/>
</linearGradient>
<linearGradient id="paint129_linear" x1="747.094" y1="159.77" x2="756.958" y2="159.77" gradientUnits="userSpaceOnUse">
<stop stop-color="#DAE3FE"/>
<stop offset="1" stop-color="#E9EFFD"/>
</linearGradient>
<linearGradient id="paint130_linear" x1="762.929" y1="162.499" x2="772.746" y2="162.499" gradientUnits="userSpaceOnUse">
<stop stop-color="#DAE3FE"/>
<stop offset="1" stop-color="#E9EFFD"/>
</linearGradient>
<linearGradient id="paint131_linear" x1="778.86" y1="164.459" x2="788.625" y2="164.459" gradientUnits="userSpaceOnUse">
<stop stop-color="#DAE3FE"/>
<stop offset="1" stop-color="#E9EFFD"/>
</linearGradient>
<linearGradient id="paint132_linear" x1="794.865" y1="165.586" x2="804.571" y2="165.586" gradientUnits="userSpaceOnUse">
<stop stop-color="#DAE3FE"/>
<stop offset="1" stop-color="#E9EFFD"/>
</linearGradient>
<linearGradient id="paint133_linear" x1="810.909" y1="165.834" x2="820.54" y2="165.834" gradientUnits="userSpaceOnUse">
<stop stop-color="#DAE3FE"/>
<stop offset="1" stop-color="#E9EFFD"/>
</linearGradient>
<linearGradient id="paint134_linear" x1="826.981" y1="165.093" x2="836.469" y2="165.093" gradientUnits="userSpaceOnUse">
<stop stop-color="#DAE3FE"/>
<stop offset="1" stop-color="#E9EFFD"/>
</linearGradient>
<linearGradient id="paint135_linear" x1="842.991" y1="163.284" x2="852.308" y2="163.284" gradientUnits="userSpaceOnUse">
<stop stop-color="#DAE3FE"/>
<stop offset="1" stop-color="#E9EFFD"/>
</linearGradient>
<linearGradient id="paint136_linear" x1="858.864" y1="160.4" x2="867.991" y2="160.4" gradientUnits="userSpaceOnUse">
<stop stop-color="#DAE3FE"/>
<stop offset="1" stop-color="#E9EFFD"/>
</linearGradient>
<linearGradient id="paint137_linear" x1="874.532" y1="156.43" x2="883.446" y2="156.43" gradientUnits="userSpaceOnUse">
<stop stop-color="#DAE3FE"/>
<stop offset="1" stop-color="#E9EFFD"/>
</linearGradient>
<linearGradient id="paint138_linear" x1="889.918" y1="151.357" x2="898.593" y2="151.357" gradientUnits="userSpaceOnUse">
<stop stop-color="#DAE3FE"/>
<stop offset="1" stop-color="#E9EFFD"/>
</linearGradient>
<linearGradient id="paint139_linear" x1="904.932" y1="145.16" x2="913.341" y2="145.16" gradientUnits="userSpaceOnUse">
<stop stop-color="#DAE3FE"/>
<stop offset="1" stop-color="#E9EFFD"/>
</linearGradient>
<linearGradient id="paint140_linear" x1="919.477" y1="137.814" x2="927.586" y2="137.814" gradientUnits="userSpaceOnUse">
<stop stop-color="#DAE3FE"/>
<stop offset="1" stop-color="#E9EFFD"/>
</linearGradient>
<linearGradient id="paint141_linear" x1="933.44" y1="129.3" x2="941.213" y2="129.3" gradientUnits="userSpaceOnUse">
<stop stop-color="#DAE3FE"/>
<stop offset="1" stop-color="#E9EFFD"/>
</linearGradient>
<linearGradient id="paint142_linear" x1="946.691" y1="119.605" x2="954.085" y2="119.605" gradientUnits="userSpaceOnUse">
<stop stop-color="#DAE3FE"/>
<stop offset="1" stop-color="#E9EFFD"/>
</linearGradient>
<linearGradient id="paint143_linear" x1="959.09" y1="108.737" x2="966.06" y2="108.737" gradientUnits="userSpaceOnUse">
<stop stop-color="#DAE3FE"/>
<stop offset="1" stop-color="#E9EFFD"/>
</linearGradient>
<linearGradient id="paint144_linear" x1="970.487" y1="96.725" x2="976.988" y2="96.725" gradientUnits="userSpaceOnUse">
<stop stop-color="#DAE3FE"/>
<stop offset="1" stop-color="#E9EFFD"/>
</linearGradient>
</defs>
</svg>
