<svg width="192" height="270" viewBox="0 0 192 270" fill="none" xmlns="http://www.w3.org/2000/svg">
<path opacity="0.18" d="M54.7156 64.3762C44.6379 74.8625 41.324 90.1607 32.7443 101.918C22.7574 115.673 5.46182 125.16 1.8756 141.775C-2.07378 160.115 12.6797 176.911 27.5693 188.26C34.7417 193.707 42.4589 199.018 47.0892 206.736C49.9945 211.547 51.5833 217.086 53.8985 222.215C61.2979 238.603 77.731 251.132 95.7074 252.04C113.684 252.948 132.069 241.054 136.926 223.759C139.287 215.27 138.697 205.828 143.327 198.337C149.365 188.532 162.03 185.536 171.154 178.545C188.677 165.244 189.63 135.329 173.015 120.893C158.444 108.228 134.066 106.594 125.895 89.1166C123.671 84.3955 123.035 79.0389 121.083 74.1816C111.051 48.9419 72.0566 46.2635 54.7156 64.3762Z" fill="#4561B5"/>
<path d="M86.4014 128.929C91.7917 128.929 96.1614 124.559 96.1614 119.169C96.1614 113.778 91.7917 109.409 86.4014 109.409C81.0111 109.409 76.6414 113.778 76.6414 119.169C76.6414 124.559 81.0111 128.929 86.4014 128.929Z" fill="#3F3D56"/>
<path d="M119.449 193.027C119.449 193.027 118.904 205.284 118.087 207.644C117.27 210.005 118.223 211.094 115.772 211.73C113.275 212.365 114.183 198.974 114.183 198.974L115 193.844L119.449 193.027Z" fill="#FDB9A9"/>
<path d="M93.5284 196.613L99.2482 230.16H104.151L105.377 210.821L106.511 235.108H111.913C111.913 235.108 116.544 208.506 115.681 203.604C115.454 201.969 114.955 200.426 114.183 198.973L93.5284 196.613Z" fill="#25233A"/>
<path d="M96.9331 144.272C96.7515 141.685 96.8877 138.915 98.2495 136.736C99.3844 134.966 101.246 133.74 103.334 133.377C106.33 132.923 109.235 134.285 111.959 135.602C115.954 137.554 119.994 139.551 123.489 142.275C126.985 144.998 130.026 148.539 131.343 152.806C131.933 154.895 132.251 157.028 132.296 159.162C132.387 161.159 132.251 163.202 131.887 165.154C130.48 171.328 125.804 176.185 119.721 177.865C112.912 179.635 105.15 177.138 98.9759 180.497C98.5673 180.77 98.1134 180.951 97.614 180.997C96.9331 180.951 96.3429 180.452 96.1614 179.817C95.9798 179.181 95.9798 178.5 96.1614 177.865C96.5699 175.867 97.614 174.006 99.0667 172.599C100.928 170.783 103.47 169.693 105.513 168.059C105.876 167.832 106.148 167.469 106.284 167.106C106.511 166.198 105.604 165.472 104.696 165.108C103.788 164.745 102.789 164.473 102.426 163.61C102.154 162.93 102.426 162.158 102.607 161.431C103.379 158.254 101.7 156.12 99.9292 153.76C97.9772 150.991 97.1601 147.586 96.9331 144.272Z" fill="#3F3D56"/>
<path d="M112.05 145.225C112.05 145.225 115.091 150.355 118.632 153.714C122.173 157.119 128.165 163.202 124.306 167.787C121.991 170.556 119.086 172.735 115.772 174.187L108.01 166.425V153.714L112.05 145.225Z" fill="#25233A"/>
<path d="M85.1757 140.686L92.5751 140.141C92.5751 140.141 90.487 154.486 100.565 159.162C110.642 163.837 116.862 164.791 117.542 168.377C118.223 171.963 120.902 192.709 120.902 192.709L115.817 193.889L115.681 177.819L115.863 198.065C115.863 198.065 104.877 204.239 101.7 203.013C98.5219 201.788 91.8942 200.789 92.0304 190.484C92.1666 180.18 97.0239 172.871 91.758 165.018C86.4922 157.164 85.0395 144.363 85.1757 140.686Z" fill="#4561B5"/>
<path d="M85.1757 140.686L92.5751 140.141C92.5751 140.141 90.487 154.486 100.565 159.162C110.642 163.837 116.862 164.791 117.542 168.377C118.223 171.963 120.902 192.709 120.902 192.709L115.817 193.889L115.681 177.819L115.863 198.065C115.863 198.065 104.877 204.239 101.7 203.013C98.5219 201.788 91.8942 200.789 92.0304 190.484C92.1666 180.18 97.0239 172.871 91.758 165.018C86.4922 157.164 85.0395 144.363 85.1757 140.686Z" fill="url(#paint0_linear)"/>
<path d="M102.789 160.115C102.789 160.115 103.061 164.382 105.831 164.291C108.6 164.2 108.554 162.838 108.554 162.838L110.279 155.394L102.789 155.848C102.789 155.848 103.606 158.98 102.789 160.115Z" fill="#FDB9A9"/>
<path d="M103.107 157.8C103.107 157.8 102.744 159.979 104.196 160.615C105.649 161.25 107.873 160.433 108.418 159.843L108.554 162.839L109.825 157.392L103.107 157.8Z" fill="#222A72"/>
<path d="M100.428 145.044C100.428 145.044 98.8397 156.347 104.514 158.617C110.188 160.886 111.959 154.758 112.685 151.807C113.412 148.857 111.278 138.325 106.784 139.959C104.151 140.913 101.927 142.683 100.428 145.044Z" fill="#FDB9A9"/>
<path d="M87.0369 140.549C87.0369 140.549 87.5817 136.6 87.5817 136.509C87.6725 135.783 87.3547 135.011 86.7192 134.603C86.1744 134.194 85.5843 133.241 85.5843 131.016C85.5843 128.792 87.8994 126.431 88.8981 127.385C89.8968 128.338 89.8514 129.11 90.7593 129.246C91.6672 129.382 90.9863 131.652 90.7593 132.424C90.5324 133.195 91.8488 140.186 91.8488 140.186L87.0369 140.549Z" fill="#FDB9A9"/>
<path d="M115.681 177.865L118.632 193.208L115.817 193.889L115.681 177.865Z" fill="url(#paint1_linear)"/>
<path d="M106.511 235.108C106.511 235.108 105.24 247.682 107.329 257.896H108.781L111.868 235.108H106.511Z" fill="#25233A"/>
<path d="M99.2482 230.16L102.154 255.808L103.243 255.354C103.243 255.354 105.24 237.196 105.104 235.425C104.968 233.655 104.151 230.114 104.151 230.114L99.2482 230.16Z" fill="#25233A"/>
<path d="M103.243 255.354C103.243 255.354 103.879 256.443 103.833 257.215C103.788 257.76 100.065 262.345 97.4324 264.842C94.5725 267.52 91.8034 266.521 91.8034 266.521C90.7593 266.43 90.2146 264.024 91.0317 263.344C92.7567 261.891 94.7087 260.665 96.7515 259.757C101.518 257.76 102.199 255.763 102.199 255.763L103.243 255.354Z" fill="#25233A"/>
<path d="M107.329 257.896C107.056 258.804 106.92 259.712 107.011 260.665C107.192 261.982 112.912 268.518 112.912 268.518C112.912 268.518 117.588 271.56 119.222 268.927C120.856 266.294 114.365 262.844 113.094 262.118C111.823 261.391 108.781 257.896 108.781 257.896H107.329Z" fill="#25233A"/>
<path d="M74.5533 104.052C75.8243 108.137 79.5921 110.952 83.8593 111.042C86.4922 111.042 89.3975 110.044 92.1212 106.775C99.3844 98.0141 85.9928 82.5343 104.015 63.8769C122.037 45.2195 123.898 12.0356 91.5311 9.85664C66.8815 8.13162 56.7583 23.5206 53.9438 33.1444V42.9043L71.2848 49.7136C71.2848 49.7136 77.9125 29.5581 88.8527 32.1457C99.793 34.7332 89.4883 52.7551 82.5882 59.6551C67.3808 74.7263 71.7842 95.4266 74.5533 104.052Z" fill="#3F3D56"/>
<path d="M74.5533 91.7045C75.8243 95.7901 79.5921 98.6046 83.8593 98.6954C86.4922 98.6954 89.3975 97.5151 92.1212 94.2013C99.3844 85.44 85.0849 76.7241 103.107 58.0213C121.129 39.3185 123.943 2.27604 91.5765 0.0970731C59.2097 -2.0819 53.9438 33.1448 53.9438 33.1448L71.2848 39.954C71.2848 39.954 77.9125 19.844 88.8527 22.3861C99.793 24.9282 89.4883 42.9955 82.5882 49.8502C67.3808 65.0122 71.7842 83.0795 74.5533 91.7045Z" fill="#E13B31"/>
<path d="M86.4014 122.528C91.7917 122.528 96.1614 118.158 96.1614 112.768C96.1614 107.377 91.7917 103.008 86.4014 103.008C81.0111 103.008 76.6414 107.377 76.6414 112.768C76.6414 118.158 81.0111 122.528 86.4014 122.528Z" fill="#E13B31"/>
<path d="M47.4376 117.326C48.4036 115.259 47.5112 112.801 45.4444 111.835C43.3777 110.869 40.9191 111.761 39.9532 113.828C38.9872 115.895 39.8796 118.353 41.9463 119.319C44.0131 120.285 46.4717 119.393 47.4376 117.326Z" fill="#3F3D56"/>
<path d="M36.7845 111.27C37.874 112.723 39.7806 113.313 41.5056 112.723C42.5497 112.359 43.5938 111.542 44.1839 109.817C45.8181 105.278 38.2371 101.011 42.7313 90.9329C47.2254 80.8552 43.1398 67.3274 29.9298 71.1406C19.8067 74.0459 17.9909 81.6723 18.2633 85.9395L19.6705 89.8434L27.5693 90.025C27.5693 90.025 27.2969 81.0368 32.018 80.4466C36.7391 79.8565 35.2411 88.5724 33.516 92.3402C29.6575 100.602 34.4239 108.228 36.7845 111.27Z" fill="#3F3D56"/>
<path d="M35.0141 106.322C36.1035 107.774 38.0101 108.365 39.7352 107.774C40.7792 107.411 41.7779 106.503 42.4135 104.778C44.0477 100.239 37.0568 98.8316 41.551 88.7084C46.0451 78.5853 41.7779 63.4233 28.5225 67.2365C15.2671 71.0497 18.3086 85.8939 18.3086 85.8939L26.2074 86.0755C26.2074 86.0755 25.935 77.0873 30.6561 76.4971C35.3772 75.907 33.8792 84.6229 32.1542 88.3907C28.2502 96.698 32.6081 103.28 35.0141 106.322Z" fill="#4561B5"/>
<path d="M44.5799 116.705C46.6291 115.703 47.4773 113.228 46.4743 111.179C45.4714 109.13 42.9971 108.282 40.9479 109.285C38.8987 110.288 38.0505 112.762 39.0535 114.811C40.0564 116.86 42.5306 117.708 44.5799 116.705Z" fill="#4561B5"/>
<path d="M25.3903 155.349C25.8896 157.573 24.437 159.797 22.2126 160.297C19.9882 160.796 17.7639 159.343 17.2645 157.119C16.7652 154.895 18.2178 152.67 20.4422 152.171C22.712 151.717 24.8909 153.124 25.3903 155.349Z" fill="#3F3D56"/>
<path d="M15.0855 151.082C15.9934 152.671 17.8093 153.488 19.5797 153.124C20.6691 152.898 21.804 152.217 22.6211 150.582C24.8455 146.27 17.8546 141.095 23.6198 131.698C29.385 122.301 27.1607 108.365 13.4967 110.408C3.10122 111.951 0.33211 119.26 0.0143433 123.527L0.922247 127.567L8.73022 128.793C8.73022 128.793 9.63812 119.85 14.4046 119.895C19.1711 119.941 16.5382 128.384 14.3138 131.88C9.41115 139.551 13.1335 147.722 15.0855 151.082Z" fill="#3F3D56"/>
<path d="M13.9507 145.952C14.8586 147.541 16.6744 148.358 18.4448 147.995C19.5343 147.768 20.6238 146.996 21.4863 145.362C23.7107 141.049 16.9468 138.734 22.7574 129.337C28.5679 119.94 26.2982 104.279 12.6796 106.322C-0.938922 108.365 0.0143772 123.527 0.0143772 123.527L7.82235 124.752C7.82235 124.752 8.73025 115.809 13.4967 115.855C18.2632 115.9 15.6303 124.344 13.406 127.839C8.50328 135.511 11.9987 142.593 13.9507 145.952Z" fill="#4561B5"/>
<path d="M21.0678 157.74C23.3429 157.57 25.0495 155.588 24.8796 153.313C24.7097 151.038 22.7277 149.331 20.4526 149.501C18.1776 149.671 16.471 151.653 16.6408 153.928C16.8107 156.203 18.7927 157.91 21.0678 157.74Z" fill="#4561B5"/>
<path d="M146.868 124.207C146.368 126.432 144.144 127.839 141.92 127.34C139.695 126.84 138.288 124.616 138.787 122.392C139.287 120.167 141.511 118.76 143.735 119.259C145.96 119.713 147.367 121.938 146.868 124.207Z" fill="#3F3D56"/>
<path d="M139.378 115.9C139.514 117.716 140.785 119.214 142.555 119.668C143.645 119.94 144.961 119.758 146.368 118.669C150.227 115.718 146.141 108.047 155.357 102.009C164.572 95.9714 168.521 82.4436 155.311 78.4489C145.234 75.4074 139.605 80.8094 137.516 84.5318L136.608 88.572L143.145 93.0207C143.145 93.0207 147.776 85.3035 152.088 87.3917C156.401 89.4799 150.409 95.9714 146.868 98.1958C139.151 103.053 139.014 112.041 139.378 115.9Z" fill="#3F3D56"/>
<path d="M140.512 110.77C140.649 112.586 141.92 114.084 143.69 114.538C144.78 114.81 146.096 114.584 147.549 113.449C151.407 110.498 146.278 105.55 155.538 99.5123C164.799 93.4748 169.429 78.4036 156.265 74.4088C143.1 70.414 137.562 84.5319 137.562 84.5319L144.099 88.9806C144.099 88.9806 148.729 81.2635 153.042 83.3516C157.354 85.4398 151.362 91.9767 147.821 94.1557C140.059 99.013 140.195 106.912 140.512 110.77Z" fill="#4561B5"/>
<path d="M147.251 122.137C148.094 120.017 147.06 117.615 144.94 116.771C142.82 115.928 140.418 116.963 139.575 119.082C138.731 121.202 139.766 123.604 141.886 124.448C144.005 125.291 146.408 124.256 147.251 122.137Z" fill="#4561B5"/>
<path d="M167.931 161.296C166.932 162.703 165.026 163.021 163.619 162.022C162.211 161.023 161.894 159.117 162.892 157.709C163.891 156.302 165.798 155.984 167.205 156.983C168.567 157.982 168.93 159.934 167.931 161.296Z" fill="#3F3D56"/>
<path d="M165.117 153.487C164.708 154.758 165.162 156.165 166.252 156.983C167.114 157.573 168.204 157.709 169.157 157.391C172.652 156.438 172.017 150.037 180.052 148.494C188.087 146.95 194.624 138.734 186.679 132.288C180.596 127.34 175.194 129.473 172.698 131.425L170.927 133.922L174.15 138.825C174.15 138.825 179.507 134.83 181.867 137.508C184.228 140.186 178.281 142.955 175.24 143.455C168.612 144.59 165.979 150.718 165.117 153.487Z" fill="#3F3D56"/>
<path d="M167.386 150.309C166.978 151.58 167.432 152.988 168.521 153.805C169.202 154.304 170.156 154.531 171.472 154.168C174.967 153.215 172.834 148.357 180.914 146.814C188.995 145.271 196.439 136.191 188.495 129.745C180.551 123.299 172.743 131.425 172.743 131.425L175.966 136.328C175.966 136.328 181.323 132.333 183.683 135.011C186.044 137.69 180.097 140.459 177.056 140.958C170.382 142.093 168.204 147.54 167.386 150.309Z" fill="#4561B5"/>
<path d="M169.09 159.602C170.055 158.196 169.697 156.275 168.292 155.31C166.886 154.346 164.965 154.703 164 156.109C163.035 157.514 163.393 159.436 164.799 160.4C166.204 161.365 168.126 161.007 169.09 159.602Z" fill="#4561B5"/>
<path d="M86.6284 243.279C86.583 243.279 86.4922 243.279 86.4468 243.234C86.3107 243.143 86.2199 242.961 86.3107 242.78C89.7607 236.47 92.5752 229.887 94.7088 223.033C98.068 212.365 101.246 196.386 97.2509 181.088C89.5337 151.626 87.7633 133.514 87.7179 133.332C87.7179 133.15 87.8541 133.014 87.9903 132.969C88.1719 132.969 88.308 133.105 88.3534 133.241C88.3534 133.423 90.1692 151.49 97.841 180.906C101.881 196.386 98.7035 212.456 95.2989 223.26C93.1653 230.16 90.3508 236.788 86.8554 243.143C86.8554 243.234 86.7646 243.279 86.6284 243.279Z" fill="white"/>
<defs>
<linearGradient id="paint0_linear" x1="81.958" y1="176.311" x2="185.532" y2="140.571" gradientUnits="userSpaceOnUse">
<stop stop-color="white" stop-opacity="0"/>
<stop offset="0.99" stop-color="white"/>
</linearGradient>
<linearGradient id="paint1_linear" x1="120.597" y1="184.141" x2="93.7181" y2="194.995" gradientUnits="userSpaceOnUse">
<stop stop-opacity="0"/>
<stop offset="1"/>
</linearGradient>
</defs>
</svg>
