<svg width="145" height="120" viewBox="0 0 145 120" fill="none" xmlns="http://www.w3.org/2000/svg">
<path opacity="0.42" d="M23.291 119.671C23.291 119.671 8.82223 120.701 2.86448 118.237C-3.09326 115.773 1.20707 108.785 6.98563 107.262C12.7642 105.739 16.303 114.116 18.8563 106.366C21.4096 98.6169 28.2185 94.7645 32.5188 100.006C36.8191 105.247 41.2538 106.949 45.8229 102.245C50.392 97.5418 54.6028 101.394 56.4842 108.293C58.3656 115.191 79.8224 101.932 88.0647 104.53C96.307 107.128 102.533 114.743 107.595 106.501C112.657 98.2585 118.57 96.1532 121.93 100.991C125.289 105.829 126.364 111.652 132.277 107.262C138.19 102.872 146.298 106.814 144.014 112.011C141.729 117.162 126.409 118.954 126.409 118.954C126.409 118.954 37.4463 114.519 23.291 119.671Z" fill="#E6E6E6"/>
<path d="M66.6975 93.4208C66.6975 93.4208 69.9227 104.127 63.6514 107.307C57.3801 110.488 53.6173 105.56 47.122 109.905C40.6268 114.251 44.0312 99.1546 34.0867 99.8265C24.1422 100.498 27.8154 108.382 27.8154 108.382C27.8154 108.382 19.2595 100.006 14.78 107.307C10.3005 114.609 12.4955 121.418 32.5189 119.357C52.5423 117.297 67.235 120.119 84.6155 119.716C101.996 119.312 133.89 122.762 135.592 113.175C137.295 103.589 128.38 99.3338 119.108 104.709C109.835 110.085 111.403 97.6764 100.652 103.365C89.9013 109.054 77.2243 115.594 73.9991 90.4644L66.6975 93.4208Z" fill="#E6E6E6"/>
<path d="M46.3605 2.17316C23.3806 7.235 8.1055 29.4086 12.3162 52.5228C14.332 63.5424 20.8273 74.5172 37.1327 79.6238C76.2836 91.8977 120.407 85.7607 128.156 61.6162C135.906 37.4717 130.889 21.883 111.896 9.78831C99.7114 1.94918 70.3706 -3.11266 46.3605 2.17316Z" fill="white"/>
<path d="M140.833 40.5176C140.833 38.5914 139.266 37.0236 137.339 37.0236C137.16 37.0236 136.981 37.0236 136.802 37.0684C135.996 35.5454 134.383 34.6047 132.681 34.6047H132.502C133.263 31.6482 131.471 28.6021 128.47 27.8406C125.513 27.0791 122.467 28.8709 121.706 31.8722C121.482 32.7681 121.482 33.7088 121.706 34.6047H121.527C118.929 34.6047 116.823 36.71 116.823 39.3081C116.823 41.9063 118.929 44.0116 121.527 44.0116H137.787V43.9668C139.534 43.7429 140.833 42.2646 140.833 40.5176Z" fill="#E6E6E6"/>
<path d="M27.5913 62.9151C27.5913 60.9441 26.0235 59.3763 24.0525 59.3763C23.8733 59.3763 23.6941 59.3763 23.4702 59.421C22.6191 57.8532 21.0064 56.9125 19.2594 56.9125H19.0802C19.2146 56.4646 19.2594 56.0166 19.2594 55.5239C19.1698 52.3882 16.5717 49.9245 13.4361 50.0141C10.4348 50.1037 8.01587 52.5226 7.92628 55.5239C7.92628 55.9718 7.97107 56.4646 8.10546 56.9125H7.92628C5.28337 57.0021 3.22279 59.1971 3.31238 61.84C3.40197 64.3485 5.41775 66.3643 7.92628 66.4539H24.4557V66.4091C26.2475 66.1851 27.5913 64.7069 27.5913 62.9151Z" fill="#E6E6E6"/>
<path d="M40.4476 29.7668C44.3812 29.7668 47.57 26.578 47.57 22.6444C47.57 18.7108 44.3812 15.522 40.4476 15.522C36.514 15.522 33.3252 18.7108 33.3252 22.6444C33.3252 26.578 36.514 29.7668 40.4476 29.7668Z" fill="#FFD200"/>
<path opacity="0.22" d="M40.4474 34.1565C46.8055 34.1565 51.9597 29.0022 51.9597 22.6442C51.9597 16.2861 46.8055 11.1318 40.4474 11.1318C34.0893 11.1318 28.9351 16.2861 28.9351 22.6442C28.9351 29.0022 34.0893 34.1565 40.4474 34.1565Z" fill="#FFD200"/>
<path d="M58.4999 30.0807L58.0967 31.0662C57.4248 32.6788 57.0664 34.4258 57.0664 36.1728V84.8203H62.173V36.2176C62.173 34.4706 61.8147 32.7236 61.1428 31.111L60.7396 30.1255C60.4708 29.4984 59.7989 29.1848 59.1718 29.4536C58.8582 29.5432 58.6342 29.7671 58.4999 30.0807Z" fill="#FFD200"/>
<path d="M73.4617 8.13096L73.4169 8.08617C72.8346 7.50383 71.8939 7.50383 71.2668 8.08617L71.222 8.13096C67.1008 12.2969 64.8163 17.9411 64.7715 23.7644V86.4327C64.8163 87.1942 65.4434 87.7766 66.2049 87.7318H78.4788C79.2403 87.7766 79.8674 87.1942 79.9122 86.4327V23.8092C79.8674 17.9411 77.5829 12.3417 73.4617 8.13096Z" fill="#4561B5"/>
<path opacity="0.08" d="M74.1783 37.9194L79.9121 40.6071V65.4236L69.5645 51.6715L74.1783 37.9194Z" fill="black"/>
<path d="M73.103 36.5308C72.6999 36.0828 72.1175 36.0828 71.7144 36.3964C71.6696 36.4412 71.6696 36.4412 71.6248 36.486L71.58 36.5308C68.8027 39.6664 67.2349 43.7428 67.2349 47.9535V93.6893C67.2349 94.2268 67.638 94.63 68.1756 94.63H76.4179C76.9554 94.63 77.3585 94.182 77.3585 93.6893V47.9535C77.4481 43.7428 75.8803 39.7112 73.103 36.5308Z" fill="#4561B5"/>
<path opacity="0.32" d="M73.103 36.5308C72.6999 36.0828 72.1175 36.0828 71.7144 36.3964C71.6696 36.4412 71.6696 36.4412 71.6248 36.486L71.58 36.5308C68.8027 39.6664 67.2349 43.7428 67.2349 47.9535V93.6893C67.2349 94.2268 67.638 94.63 68.1756 94.63H76.4179C76.9554 94.63 77.3585 94.182 77.3585 93.6893V47.9535C77.4481 43.7428 75.8803 39.7112 73.103 36.5308Z" fill="white"/>
<path d="M86.1834 30.0806L86.5866 31.0661C87.2585 32.6787 87.6169 34.4258 87.5721 36.1728V84.8202H82.5103V36.2176C82.5103 34.4705 82.8686 32.7235 83.4957 31.1109L83.8989 30.1254C84.1677 29.4983 84.8844 29.2295 85.4667 29.4535C85.8251 29.5431 86.0939 29.8119 86.1834 30.0806Z" fill="#FFD200"/>
<path d="M82.5102 40.6074H79.9121V48.4018H82.5102V40.6074Z" fill="#24285B"/>
<path opacity="0.08" d="M87.6165 37.9194H82.5547V51.0892H87.6165V37.9194Z" fill="black"/>
<path d="M67.2797 52.9707L63.9201 69.4105C63.1586 73.0837 61.3668 76.4433 58.6791 79.0862L52.4974 85.1336C51.8702 85.7607 51.4223 86.5222 51.1535 87.3733L50.5264 89.5235C50.2128 90.6433 50.84 91.8528 51.9598 92.1664C52.0942 92.2112 52.2286 92.2112 52.363 92.256L67.2797 93.6894V52.9707Z" fill="#24285B"/>
<path d="M77.4482 52.9707L80.8079 69.4105C81.5694 73.0837 83.3612 76.4433 86.0489 79.0862L92.2306 85.1336C92.8577 85.7607 93.3057 86.5222 93.5745 87.3733L94.2016 89.5683C94.5152 90.6881 93.888 91.8976 92.7682 92.2112C92.6338 92.256 92.4994 92.256 92.365 92.3008L77.4482 93.7342V52.9707Z" fill="#24285B"/>
<path d="M64.7715 40.6074H62.1733V48.4018H64.7715V40.6074Z" fill="#24285B"/>
<path opacity="0.08" d="M62.1282 37.9194H57.0664V51.0892H62.1282V37.9194Z" fill="black"/>
<path d="M70.3256 83.4313L67.4587 87.418C66.3836 88.8963 65.8013 90.6881 65.8013 92.5247V98.3928H78.8814V92.5247C78.8814 90.6881 78.2991 88.8963 77.224 87.418L74.3571 83.4313C73.5508 82.3114 71.983 82.0426 70.8631 82.8489C70.6839 83.0281 70.46 83.2073 70.3256 83.4313Z" fill="#24285B"/>
<path d="M74.8503 44.0566H69.5645V46.2068H74.8503V44.0566Z" fill="#24285B"/>
<path opacity="0.34" d="M72.3416 17.0005C74.223 17.0005 75.7012 18.5235 75.7012 20.3601V29.6327C75.7012 31.5141 74.1782 32.9923 72.3416 32.9923C70.4602 32.9923 68.9819 31.4693 68.9819 29.6327V20.3601C68.9819 18.5235 70.505 17.0005 72.3416 17.0005Z" fill="white"/>
</svg>
