<svg width="123" height="120" viewBox="0 0 123 120" fill="none" xmlns="http://www.w3.org/2000/svg">
<path d="M109.191 12.5804L16.6055 12.8228L16.763 72.9876L109.349 72.7452L109.191 12.5804Z" fill="#24285B"/>
<path d="M56.0408 66.0355L52.5728 88.3674L76.0081 88.3148L70.5959 65.9829L56.0408 66.0355Z" fill="#C9C9C9"/>
<path d="M80.2028 84.3838L47.2041 84.4702L47.2229 91.669L80.2217 91.5826L80.2028 84.3838Z" fill="#E6E6E6"/>
<path d="M24.1455 20.4258C25.0451 20.4258 25.7744 19.6965 25.7744 18.7969C25.7744 17.8973 25.0451 17.168 24.1455 17.168C23.2459 17.168 22.5166 17.8973 22.5166 18.7969C22.5166 19.6965 23.2459 20.4258 24.1455 20.4258Z" fill="white"/>
<path d="M28.9797 20.4258C29.8794 20.4258 30.6087 19.6965 30.6087 18.7969C30.6087 17.8973 29.8794 17.168 28.9797 17.168C28.0801 17.168 27.3508 17.8973 27.3508 18.7969C27.3508 19.6965 28.0801 20.4258 28.9797 20.4258Z" fill="#4561B5"/>
<path d="M33.4985 20.4258C34.3982 20.4258 35.1275 19.6965 35.1275 18.7969C35.1275 17.8973 34.3982 17.168 33.4985 17.168C32.5989 17.168 31.8696 17.8973 31.8696 18.7969C31.8696 19.6965 32.5989 20.4258 33.4985 20.4258Z" fill="#FFD200"/>
<path d="M109.307 61.1331L16.7217 61.3755L16.7521 72.9881L109.338 72.7457L109.307 61.1331Z" fill="#E6E6E6"/>
<path d="M64.0277 70.2396C65.769 70.2396 67.1805 68.828 67.1805 67.0868C67.1805 65.3456 65.769 63.9341 64.0277 63.9341C62.2865 63.9341 60.875 65.3456 60.875 67.0868C60.875 68.828 62.2865 70.2396 64.0277 70.2396Z" fill="#A5A5A5"/>
<path d="M118.381 4.52887e-05L89.166 0.0776367L89.2284 24.2487L118.444 24.1711L118.381 4.52887e-05Z" fill="#FFD200"/>
<path d="M94.7145 97.563L65.4991 97.6155H62.4514L33.236 97.7206L26.1423 116.532L62.504 116.427H65.5516L101.913 116.322L94.7145 97.563Z" fill="#E6E6E6"/>
<path d="M77.1116 100.716L61.6632 100.768H59.3511L35.7581 100.821L31.7646 113.379L59.3511 113.327H61.7157L81.6305 113.274L77.1116 100.716Z" fill="#C9C9C9"/>
<path opacity="0.42" d="M80.2642 100.716L85.1509 113.222H97.2364L92.0344 100.663L80.2642 100.716Z" fill="#C9C9C9"/>
<path d="M26.1423 116.532L28.7696 120L98.8656 119.842L101.913 116.322L26.1423 116.532Z" fill="#C9C9C9"/>
<path d="M99.2281 14.8493L94.0786 14.8628L94.0892 18.9088L99.2387 18.8953L99.2281 14.8493Z" fill="white"/>
<path d="M106.634 12.4323L101.485 12.4458L101.502 18.9089L106.651 18.8954L106.634 12.4323Z" fill="white"/>
<path d="M113.775 8.54414L108.626 8.55762L108.653 18.9091L113.803 18.8956L113.775 8.54414Z" fill="white"/>
<path d="M96.291 13.0695L99.5488 8.60315L104.436 9.8117L109.69 4.55713" stroke="#24285B" stroke-width="2" stroke-linecap="round" stroke-linejoin="round"/>
<path d="M108.481 4.55697L109.9 4.2417L109.795 5.71298" stroke="#24285B" stroke-width="2" stroke-linecap="round" stroke-linejoin="round"/>
<path d="M82.047 17.0612L40.5359 17.1699L40.5444 20.4278L82.0555 20.3191L82.047 17.0612Z" fill="white"/>
<path d="M82.0471 17.0551L75.8467 17.0713L75.8552 20.3291L82.0556 20.3129L82.0471 17.0551Z" fill="#4561B5"/>
<path d="M47.083 29.3292L24.1731 29.3892L24.2236 48.6734L47.1335 48.6135L47.083 29.3292Z" fill="#4561B5"/>
<path opacity="0.52" d="M24.1982 48.6955L30.5037 36.5049L35.8108 45.6478L40.5925 39.8153L47.1082 48.6429L24.1982 48.6955Z" fill="white"/>
<path d="M36.3362 38.0815C37.6131 38.0815 38.6482 37.0464 38.6482 35.7695C38.6482 34.4926 37.6131 33.4575 36.3362 33.4575C35.0593 33.4575 34.0242 34.4926 34.0242 35.7695C34.0242 37.0464 35.0593 38.0815 36.3362 38.0815Z" fill="white"/>
<path opacity="0.23" d="M40.6421 51.0471L30.6584 51.0732L30.6644 53.3327L40.648 53.3066L40.6421 51.0471Z" fill="white"/>
<path opacity="0.06" d="M102.771 29.1871L51.6968 29.3208L51.7673 56.2767L102.842 56.143L102.771 29.1871Z" fill="white"/>
<path d="M79.0005 31.7962L54.5142 31.8604L54.5204 34.2249L79.0066 34.1608L79.0005 31.7962Z" fill="#4561B5"/>
<path d="M79.0527 51.2381L54.5664 51.3022L54.5726 53.6668L79.0589 53.6027L79.0527 51.2381Z" fill="#4561B5"/>
<path d="M98.7051 36.9727L54.5142 37.0884L54.5204 39.4529L98.7113 39.3372L98.7051 36.9727Z" fill="white"/>
<path opacity="0.65" d="M98.7051 41.334L54.5142 41.4497L54.5204 43.8143L98.7113 43.6986L98.7051 41.334Z" fill="white"/>
<path opacity="0.23" d="M98.7573 45.6953L54.5664 45.811L54.5726 48.1756L98.7635 48.0599L98.7573 45.6953Z" fill="white"/>
<path d="M32.9872 51.0701L0.251221 51.1558L0.328532 80.6864L33.0645 80.6007L32.9872 51.0701Z" fill="#E6E6E6"/>
<path d="M32.9962 58.0588L0.260254 58.1445L0.319269 80.6866L33.0552 80.6009L32.9962 58.0588Z" fill="#F2F2F2"/>
<path d="M3.91539 55.947C4.61188 55.947 5.17649 55.3824 5.17649 54.6859C5.17649 53.9894 4.61188 53.4248 3.91539 53.4248C3.21891 53.4248 2.6543 53.9894 2.6543 54.6859C2.6543 55.3824 3.21891 55.947 3.91539 55.947Z" fill="#24285B"/>
<path d="M7.75133 55.947C8.44782 55.947 9.01243 55.3824 9.01243 54.6859C9.01243 53.9894 8.44782 53.4248 7.75133 53.4248C7.05485 53.4248 6.49023 53.9894 6.49023 54.6859C6.49023 55.3824 7.05485 55.947 7.75133 55.947Z" fill="#4561B5"/>
<path d="M11.3771 55.947C12.0735 55.947 12.6382 55.3824 12.6382 54.6859C12.6382 53.9894 12.0735 53.4248 11.3771 53.4248C10.6806 53.4248 10.116 53.9894 10.116 54.6859C10.116 55.3824 10.6806 55.947 11.3771 55.947Z" fill="#FFD200"/>
<path d="M17.5773 62.3049C16.1586 61.4642 14.3195 61.9896 13.5313 63.4084L8.38181 72.2886C7.54108 73.7073 7.96145 75.5464 9.38018 76.3871C10.7989 77.2279 12.638 76.8075 13.4787 75.3888C13.5313 75.3362 13.5313 75.2837 13.5838 75.2311L18.6808 66.3509C19.469 64.9847 18.996 63.1456 17.5773 62.3049Z" fill="#4561B5"/>
<path opacity="0.46" d="M17.5773 62.3049C16.1586 61.4642 14.3195 61.9896 13.5313 63.4084L8.38181 72.2886C7.54108 73.7073 7.96145 75.5464 9.38018 76.3871C10.7989 77.2279 12.638 76.8075 13.4787 75.3888C13.5313 75.3362 13.5313 75.2837 13.5838 75.2311L18.6808 66.3509C19.469 64.9847 18.996 63.1456 17.5773 62.3049Z" fill="white"/>
<path d="M13.8992 73.0245C13.4788 71.4481 11.8499 70.5023 10.221 70.9226C8.64461 71.343 7.69879 72.9719 8.11915 74.6008C8.32934 75.3365 8.80225 76.0196 9.48534 76.3874C10.9041 77.2281 12.7432 76.7027 13.5314 75.2839C14.0043 74.6008 14.1094 73.7601 13.8992 73.0245Z" fill="#A0ED83"/>
<path d="M23.8829 72.236L18.7334 63.4083C17.9452 61.937 16.1587 61.4116 14.6874 62.1998C13.2161 62.988 12.6906 64.7745 13.4788 66.2458C13.5314 66.2983 13.5314 66.3509 13.5839 66.4034L18.7334 75.2837C19.5216 76.7024 21.3607 77.2278 22.7794 76.3871C24.1981 75.5464 24.7236 73.7598 23.8829 72.236C23.8829 72.2885 23.8829 72.2885 23.8829 72.236Z" fill="#4561B5"/>
<path d="M13.8992 73.0245C13.4788 71.4481 11.8499 70.5023 10.221 70.9226C8.64461 71.343 7.69879 72.9719 8.11915 74.6008C8.32934 75.3365 8.80225 76.0196 9.48534 76.3874C10.9041 77.2281 12.7432 76.7027 13.5314 75.2839C14.0043 74.6008 14.1094 73.7601 13.8992 73.0245Z" fill="#4561B5"/>
<path opacity="0.06" d="M13.8992 73.0245C13.4788 71.4481 11.8499 70.5023 10.221 70.9226C8.64461 71.343 7.69879 72.9719 8.11915 74.6008C8.32934 75.3365 8.80225 76.0196 9.48534 76.3874C10.9041 77.2281 12.7432 76.7027 13.5314 75.2839C14.0043 74.6008 14.1094 73.7601 13.8992 73.0245Z" fill="black"/>
<path opacity="0.06" d="M37.8841 51.054L32.9448 51.0669L33.0021 72.9259L37.9413 72.913L37.8841 51.054Z" fill="black"/>
<path opacity="0.06" d="M109.264 24.1894L94.1304 24.229L94.1433 29.1683L109.276 29.1287L109.264 24.1894Z" fill="black"/>
<path d="M104.593 88.42V91.4677C104.593 92.8339 108.482 93.9899 113.263 93.9373C118.045 93.8848 121.933 92.7813 121.933 91.3626V88.3149L104.593 88.42Z" fill="#FFD200"/>
<path d="M104.593 92.151V95.2512C104.593 96.6174 108.482 97.7734 113.263 97.7208C118.045 97.6683 121.933 96.5648 121.933 95.1461V92.0459L104.593 92.151Z" fill="#FFD200"/>
<path opacity="0.08" d="M104.593 92.151V95.2512C104.593 96.6174 108.482 97.7734 113.263 97.7208C118.045 97.6683 121.933 96.5648 121.933 95.1461V92.0459L104.593 92.151Z" fill="black"/>
<path d="M113.327 94.5163C118.058 94.4965 121.888 93.3512 121.882 91.9583C121.876 90.5653 118.036 89.4521 113.306 89.4719C108.576 89.4917 104.746 90.637 104.752 92.03C104.758 93.423 108.597 94.5361 113.327 94.5163Z" fill="#FFD200"/>
<path opacity="0.08" d="M104.593 88.42V91.4677C104.593 92.8339 108.482 93.9899 113.263 93.9373C118.045 93.8848 121.933 92.7813 121.933 91.3626V88.3149L104.593 88.42Z" fill="black"/>
<path d="M105.171 84.7418V87.7895C105.171 89.1556 109.059 90.3117 113.841 90.2591C118.623 90.2066 122.511 89.1031 122.511 87.6844V84.6367L105.171 84.7418Z" fill="#FFD200"/>
<path d="M104.541 81.0636V84.1112C104.541 85.4774 108.429 86.6334 113.211 86.5809C117.992 86.5283 121.881 85.4249 121.881 84.0061V80.9585L104.541 81.0636Z" fill="#FFD200"/>
<path d="M113.327 90.8381C118.058 90.8183 121.888 89.673 121.882 88.28C121.876 86.8871 118.036 85.7739 113.306 85.7937C108.576 85.8135 104.746 86.9588 104.752 88.3518C104.758 89.7448 108.597 90.8579 113.327 90.8381Z" fill="#FFD200"/>
<path opacity="0.08" d="M105.171 84.7418V87.7895C105.171 89.1556 109.059 90.3117 113.841 90.2591C118.623 90.2066 122.511 89.1031 122.511 87.6844V84.6367L105.171 84.7418Z" fill="black"/>
<path d="M113.958 87.2121C118.688 87.1923 122.518 86.047 122.512 84.6541C122.506 83.2611 118.667 82.1479 113.937 82.1677C109.206 82.1876 105.376 83.3328 105.382 84.7258C105.388 86.1188 109.227 87.2319 113.958 87.2121Z" fill="#FFD200"/>
<path opacity="0.08" d="M104.541 81.0636V84.1112C104.541 85.4774 108.429 86.6334 113.211 86.5809C117.992 86.5283 121.881 85.4249 121.881 84.0061V80.9585L104.541 81.0636Z" fill="black"/>
<path opacity="0.08" d="M104.908 98.246C108.449 98.246 111.319 95.3758 111.319 91.8354C111.319 88.2949 108.449 85.4248 104.908 85.4248C101.368 85.4248 98.4976 88.2949 98.4976 91.8354C98.4976 95.3758 101.368 98.246 104.908 98.246Z" fill="black"/>
<path opacity="0.08" d="M109.165 85.4248C109.165 85.4248 115.891 87.4741 114.84 97.6679C114.84 97.6679 110.426 97.8256 108.377 97.3001C106.537 96.7747 109.165 85.4248 109.165 85.4248Z" fill="black"/>
<path d="M113.222 83.534C118.01 83.5139 121.887 82.3684 121.881 80.9754C121.876 79.5825 117.989 78.4695 113.201 78.4896C108.412 78.5096 104.535 79.6551 104.541 81.0481C104.547 82.441 108.434 83.554 113.222 83.534Z" fill="#FFD200"/>
<path d="M104.908 98.246C108.449 98.246 111.319 95.3758 111.319 91.8354C111.319 88.2949 108.449 85.4248 104.908 85.4248C101.368 85.4248 98.4976 88.2949 98.4976 91.8354C98.4976 95.3758 101.368 98.246 104.908 98.246Z" fill="#FFD200"/>
<path opacity="0.08" d="M104.908 98.246C108.449 98.246 111.319 95.3758 111.319 91.8354C111.319 88.2949 108.449 85.4248 104.908 85.4248C101.368 85.4248 98.4976 88.2949 98.4976 91.8354C98.4976 95.3758 101.368 98.246 104.908 98.246Z" fill="black"/>
<g opacity="0.08">
<path opacity="0.08" d="M104.593 96.3021C108.134 96.3021 111.004 93.432 111.004 89.8915C111.004 86.3511 108.134 83.481 104.593 83.481C101.053 83.481 98.1826 86.3511 98.1826 89.8915C98.1826 93.432 101.053 96.3021 104.593 96.3021Z" fill="black"/>
</g>
<path d="M104.593 96.3021C108.134 96.3021 111.004 93.432 111.004 89.8915C111.004 86.3511 108.134 83.481 104.593 83.481C101.053 83.481 98.1826 86.3511 98.1826 89.8915C98.1826 93.432 101.053 96.3021 104.593 96.3021Z" fill="#FFD200"/>
<path d="M104.856 86.5283C105.013 86.5283 105.118 86.5809 105.118 86.791V87.1589C105.749 87.2114 106.327 87.6318 106.59 88.2623C106.695 88.4725 106.642 88.5776 106.432 88.6301L106.064 88.7878C105.907 88.8929 105.802 88.8403 105.696 88.6301C105.539 88.2098 105.118 87.9996 104.698 88.0522C104.015 88.0522 103.7 88.2623 103.7 88.6827C103.752 88.9454 103.962 89.1556 104.225 89.2082C104.435 89.2607 104.646 89.3132 104.856 89.3132C105.224 89.3132 105.591 89.4183 105.907 89.5234C106.064 89.576 106.222 89.6811 106.38 89.7862C106.642 90.1014 106.8 90.4692 106.8 90.8896C106.8 91.7303 106.222 92.3609 105.224 92.466V92.8864C105.224 93.044 105.171 93.1491 104.961 93.1491H104.54C104.383 93.1491 104.278 93.0965 104.278 92.8864V92.466C103.542 92.4134 102.912 91.9405 102.701 91.2574C102.649 91.0998 102.701 90.9422 102.859 90.8896L103.227 90.732C103.437 90.6794 103.49 90.6794 103.595 90.8896C103.752 91.31 104.173 91.5727 104.646 91.5727C105.381 91.5727 105.749 91.3625 105.749 90.8896C105.749 90.6794 105.644 90.4693 105.434 90.4167C105.171 90.3116 104.908 90.2591 104.646 90.2591C104.278 90.2591 103.91 90.154 103.595 90.0489C103.017 89.8912 102.649 89.3132 102.701 88.7352C102.701 87.8945 103.227 87.3165 104.278 87.1589V86.791C104.278 86.6334 104.33 86.5283 104.54 86.5283H104.856Z" fill="white"/>
</svg>
