<svg width="135" height="120" viewBox="0 0 135 120" fill="none" xmlns="http://www.w3.org/2000/svg">
<path d="M134.289 -0.000230323L13.895 0.293945L14.1087 87.7644L134.502 87.4702L134.289 -0.000230323Z" fill="#F2F2F2"/>
<path d="M134.341 0.254883H13.8936V17.3381H134.341V0.254883Z" fill="#E6E6E6"/>
<path d="M2.59497 105.457L29.9498 83.4004L40.4376 91.7798L22.6515 119.026L2.59497 105.457Z" fill="#F4A28C"/>
<path d="M0 103.674L23.8408 120L39.4104 97.1864L22.9218 85.5093L0 103.674Z" fill="#4561B5"/>
<path opacity="0.06" d="M33.6798 93.1313L13.8936 113.296L23.8408 120L39.4103 97.1859L33.6798 93.1313Z" fill="black"/>
<path d="M111.852 11.1755C113.046 11.1755 114.014 10.2073 114.014 9.01302C114.014 7.81874 113.046 6.85059 111.852 6.85059C110.658 6.85059 109.689 7.81874 109.689 9.01302C109.689 10.2073 110.658 11.1755 111.852 11.1755Z" fill="#24285B"/>
<path d="M118.393 11.1755C119.587 11.1755 120.556 10.2073 120.556 9.01302C120.556 7.81874 119.587 6.85059 118.393 6.85059C117.199 6.85059 116.231 7.81874 116.231 9.01302C116.231 10.2073 117.199 11.1755 118.393 11.1755Z" fill="#4561B5"/>
<path d="M124.502 11.1213C125.697 11.1213 126.665 10.1531 126.665 8.95882C126.665 7.76454 125.697 6.79639 124.502 6.79639C123.308 6.79639 122.34 7.76454 122.34 8.95882C122.34 10.1531 123.308 11.1213 124.502 11.1213Z" fill="#FFD200"/>
<path d="M105.419 6.79639H39.6807V11.1753H105.419V6.79639Z" fill="white"/>
<path d="M105.419 6.79639H98.4448V11.1753H105.419V6.79639Z" fill="#C9C9C9"/>
<path d="M111.149 41.7739H40.5457V52.8564H111.149V41.7739Z" fill="white"/>
<path d="M111.149 41.7739H95.4714V52.8564H111.149V41.7739Z" fill="#4561B5"/>
<path d="M90.9844 26.6367H58.0073V32.7997H90.9844V26.6367Z" fill="#A5A5A5"/>
<path d="M48.5019 60.3306L42.5071 76.8462L47.2331 78.5616L53.2279 62.046L48.5019 60.3306Z" fill="#24285B"/>
<path opacity="0.06" d="M69.7386 36.314C69.7386 36.314 85.146 45.0178 75.8475 62.3172C66.549 79.6167 62.3863 65.8853 58.0615 87.6718H44.1138L50.6551 63.1822L58.0074 63.885L66.1706 60.9657L70.7658 53.6134V43.8825L69.7386 36.314Z" fill="black"/>
<path opacity="0.18" d="M48.5019 60.3306L42.5071 76.8462L47.2331 78.5616L53.2279 62.046L48.5019 60.3306Z" fill="white"/>
<path d="M46.4923 68.9124L49.5197 69.9936C50.8171 70.4802 51.5199 71.8857 51.0334 73.2373L46.0057 87.0228C45.5192 88.3202 44.1136 89.023 42.7621 88.5365L39.7347 87.4553C38.4372 86.9687 37.7344 85.5631 38.221 84.2116L43.2486 70.4261C43.7352 69.0746 45.1948 68.4258 46.4923 68.9124Z" fill="#24285B"/>
<path d="M88.5517 71.9941H61.7375V75.9406H88.5517V71.9941Z" fill="#C9C9C9"/>
<path opacity="0.39" d="M83.6863 65.4526H66.603V69.3991H83.6863V65.4526Z" fill="#C9C9C9"/>
<path d="M61.9538 30.7994C52.6553 27.3935 42.3297 32.259 38.9239 41.5575C35.5181 50.91 40.3835 61.2356 49.682 64.6415C59.0345 68.0473 69.3602 63.1818 72.766 53.8834C76.1718 44.5308 71.3063 34.2052 61.9538 30.7994ZM51.2498 60.3707C44.2759 57.8298 40.6538 50.0991 43.1947 43.1253C45.7356 36.1514 53.4663 32.5293 60.4401 35.0702C67.414 37.6111 71.036 45.3418 68.4952 52.3156C65.9543 59.2895 58.2236 62.9115 51.2498 60.3707Z" fill="#FFD200"/>
<path d="M29.9497 83.4009C29.9497 83.4009 35.1936 77.6704 39.4104 73.6159C43.6271 69.5613 44.8705 76.9136 50.1144 75.7783C55.3583 74.643 59.4669 94.2671 40.4375 91.7803L29.9497 83.4009Z" fill="#F4A28C"/>
<path d="M48.0757 47.0993L49.083 47.0014C49.1436 47.3395 49.266 47.5878 49.4502 47.7463C49.6368 47.9049 49.8874 47.9842 50.2022 47.9842C50.5357 47.9842 50.7863 47.9142 50.9542 47.7743C51.1244 47.6321 51.2095 47.4665 51.2095 47.2777C51.2095 47.1564 51.1734 47.0538 51.1011 46.9699C51.0311 46.8836 50.9076 46.809 50.7304 46.746C50.6091 46.7041 50.3328 46.6294 49.9014 46.5222C49.3465 46.3846 48.9571 46.2156 48.7332 46.015C48.4184 45.7329 48.2611 45.389 48.2611 44.9832C48.2611 44.7221 48.3345 44.4784 48.4814 44.2523C48.6306 44.0237 48.844 43.85 49.1215 43.7311C49.4013 43.6122 49.7382 43.5527 50.1323 43.5527C50.7758 43.5527 51.2597 43.6938 51.5838 43.9759C51.9102 44.2581 52.0816 44.6347 52.0979 45.1057L51.0626 45.1511C51.0183 44.8876 50.9227 44.6988 50.7758 44.5845C50.6313 44.4679 50.4132 44.4096 50.1218 44.4096C49.821 44.4096 49.5855 44.4714 49.4153 44.595C49.3057 44.6743 49.2509 44.7804 49.2509 44.9133C49.2509 45.0345 49.3022 45.1383 49.4048 45.2246C49.5353 45.3342 49.8525 45.4484 50.3561 45.5673C50.8598 45.6863 51.2317 45.8098 51.4718 45.9381C51.7143 46.064 51.9032 46.2377 52.0385 46.4592C52.176 46.6784 52.2448 46.9501 52.2448 47.2742C52.2448 47.568 52.1632 47.8431 52 48.0996C51.8368 48.3561 51.6059 48.5473 51.3075 48.6732C51.009 48.7968 50.6371 48.8586 50.1917 48.8586C49.5435 48.8586 49.0457 48.7093 48.6983 48.4109C48.3508 48.1101 48.1433 47.6729 48.0757 47.0993Z" fill="#24285B"/>
<path d="M52.8467 48.7676V43.6401H56.6486V44.5075H53.882V45.6443H56.4562V46.5082H53.882V47.9037H56.7465V48.7676H52.8467Z" fill="#24285B"/>
<path d="M56.6265 46.2354C56.6265 45.7131 56.7046 45.2747 56.8608 44.9203C56.9774 44.6591 57.1359 44.4248 57.3365 44.2173C57.5393 44.0098 57.7608 43.8559 58.001 43.7556C58.3205 43.6204 58.6889 43.5527 59.1063 43.5527C59.8617 43.5527 60.4657 43.7871 60.918 44.2557C61.3727 44.7244 61.6 45.3761 61.6 46.2109C61.6 47.0387 61.375 47.6869 60.925 48.1556C60.475 48.6219 59.8734 48.8551 59.1202 48.8551C58.3578 48.8551 57.7515 48.6231 57.3015 48.1591C56.8515 47.6927 56.6265 47.0515 56.6265 46.2354ZM57.6932 46.2004C57.6932 46.781 57.8273 47.2217 58.0955 47.5225C58.3636 47.821 58.704 47.9702 59.1167 47.9702C59.5295 47.9702 59.8676 47.8221 60.131 47.526C60.3969 47.2275 60.5298 46.781 60.5298 46.1864C60.5298 45.5988 60.4004 45.1605 60.1415 44.8713C59.8851 44.5822 59.5435 44.4376 59.1167 44.4376C58.69 44.4376 58.3461 44.5845 58.085 44.8783C57.8238 45.1698 57.6932 45.6105 57.6932 46.2004Z" fill="#24285B"/>
<path d="M104.229 48.2069C105.244 48.2069 106.067 47.384 106.067 46.3688C106.067 45.3537 105.244 44.5308 104.229 44.5308C103.214 44.5308 102.391 45.3537 102.391 46.3688C102.391 47.384 103.214 48.2069 104.229 48.2069Z" stroke="white" stroke-miterlimit="10"/>
<path d="M103.364 47.937L102.121 50.0994" stroke="white" stroke-miterlimit="10"/>
<path d="M34.3287 6.85059H22.3271V11.2295H34.3287V6.85059Z" fill="#24285B"/>
</svg>
