<svg width="157" height="120" viewBox="0 0 157 120" fill="none" xmlns="http://www.w3.org/2000/svg">
<path d="M56.2625 4.7124H0.675537V45.0586H56.2625V4.7124Z" fill="#E6E6E6"/>
<path opacity="0.79" d="M58.1467 64.1782H23.8413V118.823H58.1467V64.1782Z" fill="#A5A5A5"/>
<path d="M68.4552 64.1782H38.8052V118.823H68.4552V64.1782Z" fill="#E6E6E6"/>
<path d="M73.7201 96.2119H43.5159V111.12H73.7201V96.2119Z" fill="#F2F2F2"/>
<path d="M59.0889 105.19C60.252 105.19 61.1949 104.247 61.1949 103.084C61.1949 101.921 60.252 100.978 59.0889 100.978C57.9258 100.978 56.9829 101.921 56.9829 103.084C56.9829 104.247 57.9258 105.19 59.0889 105.19Z" fill="#A5A5A5"/>
<path opacity="0.58" d="M18.0775 111.12C18.0775 111.12 12.0366 109.512 10.6511 103.86C10.6511 103.86 20.0172 101.92 20.3497 111.618L18.0775 111.12Z" fill="#4561B5"/>
<path opacity="0.73" d="M18.8534 110.51C18.8534 110.51 14.586 103.859 18.2992 97.5415C18.2992 97.5415 25.4484 102.031 22.2895 110.51H18.8534Z" fill="#4561B5"/>
<path d="M19.9065 110.51C19.9065 110.51 22.1233 103.416 28.8846 102.086C28.8846 102.086 30.1593 106.686 24.5618 110.51H19.9065Z" fill="#4561B5"/>
<path d="M15.5283 110.344L16.803 118.768H24.5065L25.6149 110.344H15.5283Z" fill="#24285B"/>
<path opacity="0.79" d="M58.1467 64.1782H23.8413V118.823H58.1467V64.1782Z" fill="#A5A5A5"/>
<path d="M68.4552 64.1782H38.8052V118.823H68.4552V64.1782Z" fill="#E6E6E6"/>
<path d="M73.7201 96.2119H43.5159V111.12H73.7201V96.2119Z" fill="#F2F2F2"/>
<path d="M59.0889 105.19C60.252 105.19 61.1949 104.247 61.1949 103.084C61.1949 101.921 60.252 100.978 59.0889 100.978C57.9258 100.978 56.9829 101.921 56.9829 103.084C56.9829 104.247 57.9258 105.19 59.0889 105.19Z" fill="#A5A5A5"/>
<path opacity="0.79" d="M72.9994 74.043H42.7952V88.9511H72.9994V74.043Z" fill="#A5A5A5"/>
<path d="M79.3173 74.043H49.113V88.9511H79.3173V74.043Z" fill="#F2F2F2"/>
<path d="M64.6866 82.9659C65.8497 82.9659 66.7925 82.023 66.7925 80.8599C66.7925 79.6968 65.8497 78.7539 64.6866 78.7539C63.5234 78.7539 62.5806 79.6968 62.5806 80.8599C62.5806 82.023 63.5234 82.9659 64.6866 82.9659Z" fill="#A5A5A5"/>
<path opacity="0.58" d="M18.0775 111.12C18.0775 111.12 12.0366 109.512 10.6511 103.86C10.6511 103.86 20.0172 101.92 20.3497 111.618L18.0775 111.12Z" fill="#4561B5"/>
<path opacity="0.73" d="M18.8534 110.51C18.8534 110.51 14.586 103.859 18.2992 97.5415C18.2992 97.5415 25.4484 102.031 22.2895 110.51H18.8534Z" fill="#4561B5"/>
<path d="M19.9065 110.51C19.9065 110.51 22.1233 103.416 28.8846 102.086C28.8846 102.086 30.1593 106.686 24.5618 110.51H19.9065Z" fill="#4561B5"/>
<path d="M15.5283 110.344L16.803 118.768H24.5065L25.6149 110.344H15.5283Z" fill="#24285B"/>
<path d="M123.82 115.72C123.82 115.72 124.984 117.659 126.924 117.382C128.864 117.105 129.695 118.879 128.143 119.71C126.591 120.541 121.77 119.322 121.77 119.322L121.216 115.831L123.82 115.72Z" fill="#4561B5"/>
<path d="M91.5653 115.72C91.5653 115.72 90.4014 117.659 88.4617 117.382C86.522 117.105 85.6907 118.879 87.2424 119.71C88.7942 120.541 93.6158 119.322 93.6158 119.322L94.17 115.831L91.5653 115.72Z" fill="#4561B5"/>
<path d="M113.401 23.0562C113.401 23.0562 123.876 25.4947 126.148 36.8005C128.42 48.1063 128.586 58.0266 134.738 58.3591C140.89 58.6916 145.379 35.0824 145.379 35.0824L149.979 36.3017C149.979 36.3017 145.213 87.6212 120.218 63.6795C95.2231 39.7378 113.401 23.0562 113.401 23.0562Z" fill="#4561B5"/>
<path opacity="0.46" d="M113.401 23.0562C113.401 23.0562 123.876 25.4947 126.148 36.8005C128.42 48.1063 128.586 58.0266 134.738 58.3591C140.89 58.6916 145.379 35.0824 145.379 35.0824L149.979 36.3017C149.979 36.3017 145.213 87.6212 120.218 63.6795C95.2231 39.7378 113.401 23.0562 113.401 23.0562Z" fill="white"/>
<path d="M75.2716 70.6626H45.1228V73.9878H75.2716V70.6626Z" fill="#FFD200"/>
<path opacity="0.08" d="M75.2716 70.6626H45.1228V73.9878H75.2716V70.6626Z" fill="black"/>
<path d="M103.37 6.76268C103.37 6.76268 104.091 10.3096 103.758 12.7481C103.647 13.7457 102.705 14.4107 101.763 14.2999C100.544 14.1336 98.9365 13.524 98.3269 11.6951L96.886 8.7024C96.4426 7.42773 96.8305 5.98679 97.8835 5.10006C99.7124 3.38202 103.038 4.60127 103.37 6.76268Z" fill="#F4A28C"/>
<path d="M77.5995 70.6626H47.4507V73.9878H77.5995V70.6626Z" fill="#FFD200"/>
<path d="M97.1629 9.20117L96.6641 21.0058L103.204 20.7841L100.931 12.3047L97.1629 9.20117Z" fill="#F4A28C"/>
<path d="M102.539 6.98463C101.43 7.1509 100.322 7.20632 99.2135 7.09548C99.9894 8.03763 100.156 9.3123 99.6014 10.3653C99.1026 11.4183 97.9388 11.9725 96.775 11.6954L96.2762 7.09548C96.1099 5.76538 96.6641 4.43528 97.7171 3.6594C98.1605 3.32687 98.6593 2.99435 99.1581 2.71724C100.433 2.0522 102.428 2.66182 103.536 1.66425C103.869 1.33173 104.423 1.33173 104.756 1.71967C104.866 1.83051 104.922 1.94136 104.977 2.10762C105.365 3.49313 105.365 5.70996 103.536 6.70753C103.259 6.81837 102.871 6.92921 102.539 6.98463Z" fill="#24285B"/>
<path d="M99.934 10.2538C99.934 10.2538 99.7678 8.86826 98.7148 9.08994C97.6618 9.31162 97.9389 11.3068 99.3798 11.3068L99.934 10.2538Z" fill="#F4A28C"/>
<path d="M103.702 8.97998L104.866 10.2547C105.088 10.4763 105.088 10.8089 104.866 11.0305C104.811 11.086 104.7 11.1414 104.589 11.1968L103.259 11.6402L103.702 8.97998Z" fill="#F4A28C"/>
<path opacity="0.31" d="M101.486 14.1338C100.654 14.023 99.8784 13.6904 99.2688 13.1362C99.2688 13.1362 99.6013 15.2422 102.206 17.1265L101.486 14.1338Z" fill="#CE8172"/>
<path d="M96.664 21.0059L103.148 20.7842C103.148 20.7842 120.606 21.0613 121.659 33.7526C122.712 46.4439 115.285 56.3642 117.779 66.2845L94.1146 69.3327C94.1701 69.3327 55.3756 30.372 96.664 21.0059Z" fill="#4561B5"/>
<path opacity="0.08" d="M93.5604 29.5405C93.5604 29.5405 101.541 35.9693 96.2206 47.4414C90.9003 58.9135 94.1701 62.5712 102.151 60.4652C110.131 58.3593 113.346 49.7136 113.346 49.7136L117.28 61.8508C117.225 63.3471 117.391 64.8435 117.779 66.2844L94.1147 69.3326L93.2279 68.4458L82.5872 53.316L93.5604 29.5405Z" fill="black"/>
<path d="M109.909 36.5653L106.072 60.0293L123.41 62.8648L127.247 39.4008L109.909 36.5653Z" fill="#FFD200"/>
<path opacity="0.08" d="M120.163 51.4873C120.163 51.4873 122.934 54.5909 120.661 56.7523C118.389 58.9137 115.23 61.5184 115.23 61.5184L107.305 60.1329L120.163 51.4873Z" fill="black"/>
<path d="M115.249 35.9453L114.649 39.6099L121.65 40.7548L122.25 37.0903L115.249 35.9453Z" fill="#24285B"/>
<path d="M94.2811 38.1863C98.2714 30.4274 88.9053 22.6685 81.9778 27.9335C78.32 30.7045 74.8839 34.7502 73.8309 40.4031C71.1707 54.0366 72.7225 66.2846 82.0332 69.8869C91.3438 73.4893 115.674 55.7547 115.674 55.7547L112.57 50.656C112.57 50.656 91.3438 65.8412 86.1897 55.4775C82.9753 48.9379 90.8451 44.8922 94.2811 38.1863Z" fill="#4561B5"/>
<path opacity="0.46" d="M94.2811 38.1863C98.2714 30.4274 88.9053 22.6685 81.9778 27.9335C78.32 30.7045 74.8839 34.7502 73.8309 40.4031C71.1707 54.0366 72.7225 66.2846 82.0332 69.8869C91.3438 73.4893 115.674 55.7547 115.674 55.7547L112.57 50.656C112.57 50.656 91.3438 65.8412 86.1897 55.4775C82.9753 48.9379 90.8451 44.8922 94.2811 38.1863Z" fill="white"/>
<path d="M113.401 52.0416C113.401 52.0416 116.505 48.8272 119.442 50.4344C122.379 52.0416 115.673 55.7548 115.673 55.7548L113.401 52.0416Z" fill="#F4A28C"/>
<path d="M94.1702 69.3326L89.6812 115.886H94.2256C94.2256 115.886 101.319 81.3034 109.245 76.8144C117.17 72.3253 117.835 66.3398 117.835 66.3398L94.1702 69.3326Z" fill="#24285B"/>
<path d="M117.835 66.3398L125.538 115.886H121.215C121.215 115.886 114.897 83.9636 103.37 76.4818L117.835 66.3398Z" fill="#24285B"/>
<path d="M146.099 35.3044C146.099 35.3044 145.545 29.8177 148.649 30.1503C151.752 30.4828 149.923 36.302 149.923 36.302L146.099 35.3044Z" fill="#F4A28C"/>
<path d="M143.618 20.2777L140.541 22.2559L146.265 31.1602L149.342 29.1821L143.618 20.2777Z" fill="#FFD200"/>
<path opacity="0.08" d="M143.618 20.2777L140.541 22.2559L146.265 31.1602L149.342 29.1821L143.618 20.2777Z" fill="black"/>
<path d="M148.582 25.2407L143.888 28.2891L151.312 39.7235L156.007 36.6751L148.582 25.2407Z" fill="#24285B"/>
<path d="M129.639 1.94119C124.097 5.54353 122.545 12.9145 126.148 18.4565C129.75 23.9986 137.121 25.5504 142.663 21.948C148.205 18.3457 149.757 10.9748 146.155 5.43269C142.552 -0.109375 135.181 -1.66115 129.639 1.94119ZM140.723 19.0107C136.788 21.5601 131.579 20.4517 129.03 16.5168C126.48 12.582 127.589 7.37241 131.524 4.82306C135.403 2.27371 140.668 3.38213 143.162 7.31699C145.711 11.2519 144.658 16.4614 140.723 19.0107Z" fill="#FFD200"/>
<path d="M132.854 12.6373L135.514 15.7408L139.227 9.09033" stroke="#4561B5" stroke-width="5" stroke-linecap="round" stroke-linejoin="round"/>
<path d="M17.5235 13.1914H9.43213V21.2828H17.5235V13.1914Z" fill="#A5A5A5"/>
<path d="M17.5235 28.5981H9.43213V36.6896H17.5235V28.5981Z" fill="#A5A5A5"/>
<path d="M12.0369 16.8494L12.8682 18.6783L15.6392 16.0181" stroke="white" stroke-width="2" stroke-linecap="round" stroke-linejoin="round"/>
<path d="M12.0369 32.2561L12.8682 34.1404L15.6392 31.4248" stroke="white" stroke-width="2" stroke-linecap="round" stroke-linejoin="round"/>
<path opacity="0.19" d="M47.506 14.7437H21.0149V19.0665H47.506V14.7437Z" fill="#A5A5A5"/>
<path opacity="0.18" d="M47.506 29.9287H21.0149V34.2515H47.506V29.9287Z" fill="#A5A5A5"/>
</svg>
