<svg width="152" height="154" viewBox="0 0 152 154" fill="none" xmlns="http://www.w3.org/2000/svg">
<path d="M84.1992 140.098C84.1992 145.605 80.332 149.707 72.5977 152.402C71.1914 152.988 69.7852 153.398 68.3789 153.633C66.9727 153.75 65.5078 153.809 63.9844 153.809C56.0156 153.809 49.5703 149.824 44.6484 141.855C39.7266 134.59 35.2148 127.148 31.1133 119.531C27.1289 111.797 23.3203 103.887 19.6875 95.8008C18.3984 92.5195 16.2891 86.8359 13.3594 78.75C10.5469 70.6641 6.67969 60 1.75781 46.7578C1.17188 45.3516 0.703125 43.8867 0.351562 42.3633C0.117188 40.8398 0 39.3164 0 37.793C0 34.1602 0.996094 31.0547 2.98828 28.4766C5.09766 25.7812 8.02734 23.6133 11.7773 21.9727C13.6523 21.0352 15.293 20.4492 16.6992 20.2148C18.2227 19.9805 19.6875 19.8633 21.0938 19.8633C24.375 19.8633 27.2461 20.8594 29.707 22.8516C32.168 24.8438 34.2188 28.0664 35.8594 32.5195C42.8906 51.0352 50.0977 68.3203 57.4805 84.375C64.8633 100.312 72.4219 115.02 80.1562 128.496C81.4453 130.84 82.4414 132.949 83.1445 134.824C83.8477 136.699 84.1992 138.457 84.1992 140.098ZM151.875 120.586C151.875 123.281 150.879 125.684 148.887 127.793C146.895 129.902 144.023 131.484 140.273 132.539C138.633 133.125 137.109 133.535 135.703 133.77C134.414 133.887 133.184 133.945 132.012 133.945C123.926 133.945 117.48 129.961 112.676 121.992C106.113 112.031 100.723 103.301 96.5039 95.8008C92.4023 88.1836 89.3555 81.5625 87.3633 75.9375L69.4336 27.4219C68.0273 23.7891 67.3242 20.8008 67.3242 18.457C67.3242 11.0742 71.4844 5.80078 79.8047 2.63672C81.4453 1.69922 83.0273 1.05469 84.5508 0.703125C86.1914 0.234375 87.7734 0 89.2969 0C95.7422 0 100.605 4.21875 103.887 12.6562C110.918 31.5234 118.066 48.9258 125.332 64.8633C132.715 80.6836 140.215 95.332 147.832 108.809C149.121 111.152 150.117 113.262 150.82 115.137C151.523 117.012 151.875 118.828 151.875 120.586Z" fill="#EAEFFF"/>
</svg>
