<svg width="181" height="132" viewBox="0 0 181 132" fill="none" xmlns="http://www.w3.org/2000/svg">
<path opacity="0.08" d="M81.6454 2.98827C81.6454 2.98827 75.8831 1.46766 74.4425 5.54929C73.0019 9.63093 59.6366 4.34881 58.036 16.4336C57.1556 23.1563 44.3505 35.3212 27.6238 39.0827C10.8971 42.8442 9.85669 63.7326 9.85669 63.7326H55.2348L85.3269 19.5549L81.6454 2.98827Z" fill="black"/>
<path opacity="0.45" d="M90.7691 132C140.362 132 180.565 122.97 180.565 111.832C180.565 100.693 140.362 91.6638 90.7691 91.6638C41.1761 91.6638 0.973145 100.693 0.973145 111.832C0.973145 122.97 41.1761 132 90.7691 132Z" fill="#E6E6E6"/>
<path d="M77.0836 21.1557C77.0836 21.1557 37.7879 16.994 39.3085 37.8023C40.8291 58.6107 62.8379 102.788 62.8379 102.788H111.097C111.097 102.788 147.672 46.6859 129.905 28.5987C112.138 10.5114 107.976 26.0376 77.0836 21.1557Z" fill="#4561B5"/>
<path d="M62.7579 109.591L92.0496 117.514L118.14 104.229L122.062 97.1859H95.8111H54.0344L62.7579 109.591Z" fill="#24285B"/>
<path d="M58.116 43.6448C61.7975 31.3198 54.8347 17.8745 41.7095 27.7184C32.6658 34.4411 22.0216 55.9697 21.4614 75.8977C20.1809 121.676 76.3633 72.4563 83.3261 46.2058L76.4434 42.1242C76.4434 42.1242 64.7587 64.0529 52.1136 68.8549C42.9099 72.2962 52.7539 61.812 58.116 43.6448Z" fill="#4561B5"/>
<path opacity="0.46" d="M58.116 43.6448C61.7975 31.3198 54.8347 17.8745 41.7095 27.7184C32.6658 34.4411 22.0216 55.9697 21.4614 75.8977C20.1809 121.676 76.3633 72.4563 83.3261 46.2058L76.4434 42.1242C76.4434 42.1242 64.7587 64.0529 52.1136 68.8549C42.9099 72.2962 52.7539 61.812 58.116 43.6448Z" fill="white"/>
<path d="M77.0836 21.1557C77.0836 21.1557 71.0012 30.6795 77.0036 34.0409C83.006 37.4022 84.8467 33.5607 84.8467 33.5607C84.8467 33.5607 89.2485 38.7627 93.17 34.7611C97.0916 30.7595 96.5314 22.6763 92.5298 18.9948C88.5282 15.3134 77.0836 21.1557 77.0836 21.1557Z" fill="white"/>
<path d="M78.4441 21.4757C78.7642 23.2364 78.9243 24.9971 79.0043 26.7578C79.0844 29.1588 79.8847 32.8403 83.7262 33.4805C89.6486 34.601 91.2492 25.2372 91.2492 25.2372C91.2492 25.2372 94.9307 16.4337 88.5282 15.3133C82.7659 14.1928 77.3237 13.3925 78.4441 21.4757Z" fill="#F4A28C"/>
<path opacity="0.08" d="M101.253 34.681C101.253 34.681 97.5719 42.3641 106.856 58.2105C112.138 67.2541 95.8112 82.3001 95.8112 82.3001L55.1549 86.3817L62.838 102.868H111.097C111.097 102.868 132.306 68.3745 133.906 50.6875C135.507 33.0004 101.253 34.681 101.253 34.681Z" fill="black"/>
<path d="M90.7692 25.6376C90.7692 25.6376 91.0893 22.7564 93.5703 22.9165C96.0513 23.0765 95.0909 28.2786 90.7692 25.6376Z" fill="#F4A28C"/>
<path d="M79.8848 24.0368C79.8848 24.0368 80.7651 21.3158 78.4442 20.3554C76.1233 19.395 74.8428 24.6771 79.8848 24.0368Z" fill="#F4A28C"/>
<path d="M64.6787 94.7052L61.2373 63.7328H113.338L108.136 96.3058L108.856 100.467L64.1185 100.788L64.6787 94.7052Z" fill="#FFD200"/>
<path opacity="0.08" d="M157.036 36.8419C157.036 36.8419 171.041 38.5226 173.842 49.1668H164.319L157.036 36.8419Z" fill="black"/>
<path d="M85.5671 109.591C85.5671 109.591 95.491 113.032 92.0497 117.514C88.6083 121.996 83.3262 114.553 83.3262 114.553L85.5671 109.591Z" fill="#4561B5"/>
<path opacity="0.08" d="M113.338 63.7328L103.014 77.3382C97.0116 85.2614 88.8483 91.4239 79.5646 94.9453L64.1184 100.868L105.415 100.548H108.936L108.216 96.3858L113.338 63.7328Z" fill="black"/>
<path d="M78.4442 21.476C78.4442 21.476 68.8404 20.1155 73.1621 13.0726C77.4838 6.02983 78.3642 11.3119 80.445 5.86977C82.5258 0.427591 84.2865 -0.612829 87.2477 1.7081C90.2089 4.02903 87.3278 8.91098 91.8096 7.55044C96.2913 6.18989 99.3326 4.90938 100.213 8.59085C101.093 12.2723 100.213 14.1131 97.3318 15.3936C94.4506 16.6741 99.0124 21.6361 91.7295 23.7169C84.4466 25.7977 80.6851 17.7945 80.6851 17.7945L78.4442 21.476Z" fill="#24285B"/>
<path d="M85.8872 107.83C85.8872 107.83 45.9512 87.4222 42.5898 98.3066C39.2285 109.191 66.6795 115.433 84.4466 116.074L85.8872 107.83Z" fill="#24285B"/>
<path d="M87.808 84.8612C90.2832 84.8612 92.2898 82.8546 92.2898 80.3794C92.2898 77.9041 90.2832 75.8976 87.808 75.8976C85.3327 75.8976 83.3262 77.9041 83.3262 80.3794C83.3262 82.8546 85.3327 84.8612 87.808 84.8612Z" fill="white"/>
<path d="M95.571 109.431C95.571 109.431 127.424 77.8982 133.986 87.1819C140.549 96.4656 116.219 110.871 99.4926 116.874L95.571 109.431Z" fill="#24285B"/>
<path d="M96.8516 111.832C96.8516 111.832 87.4078 120.235 92.85 122.716C98.2922 125.197 99.4927 116.874 99.4927 116.874L96.8516 111.832Z" fill="#4561B5"/>
<path d="M101.253 34.681C100.533 27.318 105.895 20.6754 113.258 19.9551C120.461 19.1547 129.905 19.6349 138.308 24.917C154.635 35.1611 172.722 43.3244 168.24 61.8918C163.758 80.4593 131.425 88.2224 131.425 88.2224L127.104 81.1796C127.104 81.1796 155.675 71.5757 150.473 56.4497C145.751 42.7642 104.375 65.4933 101.253 34.681Z" fill="#4561B5"/>
<path opacity="0.46" d="M101.253 34.681C100.533 27.318 105.895 20.6754 113.258 19.9551C120.461 19.1547 129.905 19.6349 138.308 24.917C154.635 35.1611 172.722 43.3244 168.24 61.8918C163.758 80.4593 131.425 88.2224 131.425 88.2224L127.104 81.1796C127.104 81.1796 155.675 71.5757 150.473 56.4497C145.751 42.7642 104.375 65.4933 101.253 34.681Z" fill="white"/>
<path d="M127.824 82.3C127.824 82.3 118.78 88.3825 122.062 90.0632C125.343 91.7438 130.865 87.262 130.865 87.262L127.824 82.3Z" fill="#F4A28C"/>
<path d="M77.6438 42.9243C77.6438 42.9243 80.8451 35.0012 85.3269 35.6414C89.8087 36.2817 82.8459 45.9656 82.8459 45.9656L77.6438 42.9243Z" fill="#F4A28C"/>
</svg>
