<svg width="198" height="131" viewBox="0 0 198 131" fill="none" xmlns="http://www.w3.org/2000/svg">
<path opacity="0.3" d="M96.5704 130.655C149.416 130.655 192.255 123.55 192.255 114.785C192.255 106.019 149.416 98.9138 96.5704 98.9138C43.7252 98.9138 0.88575 106.019 0.88575 114.785C0.88575 123.55 43.7252 130.655 96.5704 130.655Z" fill="white"/>
<path d="M172.091 39.6478H167.644V113.405H172.091V39.6478Z" fill="#C9C9C9"/>
<path d="M172.091 39.6478H167.644V113.405H172.091V39.6478Z" fill="#4561B5"/>
<path opacity="0.48" d="M172.091 39.6478H167.644V113.405H172.091V39.6478Z" fill="white"/>
<path d="M154.303 13.6566H178.915C184.435 13.6566 188.882 18.1035 188.882 23.6238V39.6479H144.183V23.7771C144.183 18.2568 148.706 13.6566 154.303 13.6566Z" fill="#CDD8FB"/>
<path d="M152.54 13.6566C157.217 13.6566 160.974 17.4135 160.974 22.0904V39.7246H144.106V22.0904C144.183 17.4135 147.94 13.6566 152.54 13.6566Z" fill="#CDD8FB"/>
<path opacity="0.08" d="M152.54 13.6566C157.217 13.6566 160.974 17.4135 160.974 22.0904V39.7246H144.106V22.0904C144.183 17.4135 147.94 13.6566 152.54 13.6566Z" fill="black"/>
<path d="M160.59 113.482L155.837 98.9142L163.964 104.434L164.654 88.717L173.088 104.511L182.135 98.9142L176.691 113.482H160.59Z" fill="#C9C9C9"/>
<path opacity="0.21" d="M176.308 23.6237C178.071 23.6237 179.528 25.0804 179.528 26.8438C179.528 28.6072 178.071 30.064 176.308 30.064C174.544 30.064 173.088 28.6072 173.088 26.8438C173.088 25.0804 174.544 23.6237 176.308 23.6237Z" fill="white"/>
<path d="M176.308 27.8405C175.694 27.8405 175.158 27.3039 175.158 26.6905V6.83285C175.158 3.99605 177.458 1.61926 180.371 1.61926H193.559C194.172 1.61926 194.709 2.15596 194.709 2.76932C194.709 3.38268 194.172 3.91938 193.559 3.91938H180.371C178.761 3.91938 177.458 5.22277 177.458 6.83285V26.6905C177.458 27.3039 176.921 27.8405 176.308 27.8405Z" fill="#CDD8FB"/>
<path opacity="0.08" d="M176.308 27.8405C175.694 27.8405 175.158 27.3039 175.158 26.6905V6.83285C175.158 3.99605 177.458 1.61926 180.371 1.61926H193.559C194.172 1.61926 194.709 2.15596 194.709 2.76932C194.709 3.38268 194.172 3.91938 193.559 3.91938H180.371C178.761 3.91938 177.458 5.22277 177.458 6.83285V26.6905C177.458 27.3039 176.921 27.8405 176.308 27.8405Z" fill="black"/>
<path d="M197.315 0.162598H184.971V5.29952H197.315V0.162598Z" fill="#4561B5"/>
<path d="M197.315 0.392456H184.971V5.52937H197.315V0.392456Z" fill="#4561B5"/>
</svg>
