<svg width="76" height="71" viewBox="0 0 76 71" fill="none" xmlns="http://www.w3.org/2000/svg">
<path d="M75.4702 0H0V70.2681H75.4702V0Z" fill="#E6E6E6"/>
<path d="M33.6134 8.56335H8.40332V31.8527H33.6134V8.56335Z" fill="#C9C9C9"/>
<path opacity="0.44" d="M33.6134 38.4153H8.40332V61.7046H33.6134V38.4153Z" fill="#C9C9C9"/>
<path opacity="0.44" d="M67.0669 38.4153H41.8568V61.7046H67.0669V38.4153Z" fill="#C9C9C9"/>
<path opacity="0.63" d="M10.3241 27.5309L15.2061 19.9279L21.0484 26.6505L26.5706 16.9667L31.6926 27.6109V30.332H10.3241V27.5309Z" fill="white"/>
<path d="M20.8084 18.4874C22.1786 18.4874 23.2894 17.3766 23.2894 16.0064C23.2894 14.6362 22.1786 13.5254 20.8084 13.5254C19.4382 13.5254 18.3274 14.6362 18.3274 16.0064C18.3274 17.3766 19.4382 18.4874 20.8084 18.4874Z" fill="white"/>
<path d="M67.2269 8.56335H42.0168V31.8527H67.2269V8.56335Z" fill="#C9C9C9"/>
<path opacity="0.63" d="M43.9375 27.5309L48.8195 19.9279L54.6618 26.6505L60.184 16.9667L65.3861 27.6109V30.332H43.9375V27.5309Z" fill="white"/>
<path d="M54.4218 18.4874C55.792 18.4874 56.9028 17.3766 56.9028 16.0064C56.9028 14.6362 55.792 13.5254 54.4218 13.5254C53.0516 13.5254 51.9408 14.6362 51.9408 16.0064C51.9408 17.3766 53.0516 18.4874 54.4218 18.4874Z" fill="white"/>
</svg>
