<svg width="89" height="149" viewBox="0 0 89 149" fill="none" xmlns="http://www.w3.org/2000/svg">
<path d="M75.0661 26.4421L75.6928 28.3222L80.7849 26.5204L78.6697 21.8201L75.0661 26.4421Z" fill="#24285B"/>
<path d="M73.7343 20.5667L73.421 18.9999C73.0293 17.1981 74.126 15.4747 75.9278 15.0046C76.0845 14.9263 76.3195 14.9263 76.4762 14.9263L86.6603 14.2996C87.4437 14.2213 88.1487 14.848 88.2271 15.6314V15.7097V15.9447C88.2271 17.1981 87.3654 18.2949 86.1119 18.6082L78.9047 20.175L73.7343 20.5667Z" fill="#24285B"/>
<path d="M27.2792 48.6902C27.2792 48.6902 54.2279 62.6346 62.4535 55.1924C70.6791 47.7501 74.5961 26.4419 74.5961 26.4419L66.9972 27.6953C66.9972 27.6953 59.3199 54.4873 38.1684 33.2574C19.9937 15.1611 27.2792 48.6902 27.2792 48.6902Z" fill="#CDD8FB"/>
<path opacity="0.08" d="M27.2792 48.6902C27.2792 48.6902 54.2279 62.6346 62.4535 55.1924C70.6791 47.7501 74.5961 26.4419 74.5961 26.4419L66.9972 27.6953C66.9972 27.6953 59.3199 54.4873 38.1684 33.2574C19.9937 15.1611 27.2792 48.6902 27.2792 48.6902Z" fill="black"/>
<path d="M8.71285 18.2947C10.9627 18.2947 12.7865 16.4709 12.7865 14.2211C12.7865 11.9713 10.9627 10.1475 8.71285 10.1475C6.46305 10.1475 4.63922 11.9713 4.63922 14.2211C4.63922 16.4709 6.46305 18.2947 8.71285 18.2947Z" fill="#E13B31"/>
<path d="M51.1727 144.264L55.0113 147.241C55.403 147.554 55.4814 148.103 55.168 148.494C55.0113 148.729 54.698 148.808 54.4629 148.808H49.6059C48.1958 148.808 47.0207 147.632 47.0207 146.222V144.186L51.1727 144.264Z" fill="#4561B5"/>
<path d="M15.1367 144.264L18.9753 147.241C19.367 147.554 19.4453 148.103 19.132 148.494C18.9753 148.729 18.6619 148.808 18.4269 148.808H13.5699C12.1598 148.808 10.9847 147.632 10.9847 146.222V144.186L15.1367 144.264Z" fill="#4561B5"/>
<path d="M15.5284 16.963L17.8785 24.1702L12.1598 27.7738L10.123 15.2395L15.5284 16.963Z" fill="#F4A28C"/>
<path d="M8.16446 8.26715C9.18287 5.99532 11.7681 4.97691 14.1182 5.91698C14.6666 6.152 15.215 6.54369 15.6067 7.01373C18.0352 9.59892 20.9337 13.7509 17.6435 15.9444C12.5515 19.3913 7.92944 12.9675 7.92944 12.9675C7.53774 11.4791 7.61609 9.83394 8.16446 8.26715Z" fill="#F4A28C"/>
<path d="M11.9248 12.7326C11.9248 12.7326 10.593 11.6358 10.0446 13.2026C9.49625 14.7694 11.7681 15.4744 12.4731 14.691C13.1782 13.9077 11.9248 12.7326 11.9248 12.7326Z" fill="#F4A28C"/>
<path d="M3.46411 33.8058C5.42259 29.4188 9.18286 26.1286 13.8049 24.7968C22.5789 22.2116 39.1084 16.6496 44.0438 24.7968C50.7809 35.9993 40.4402 79.9476 40.4402 79.9476L11.063 82.2194C10.9847 82.2194 -5.1532 53.0773 3.46411 33.8058Z" fill="#CDD8FB"/>
<path opacity="0.08" d="M16.3117 24.0134C16.3117 24.0134 2.60239 68.2751 42.242 71.1736L40.3619 79.9476L10.9847 82.2194C10.9847 82.2194 0.643907 66.0032 1.0356 43.1282C1.0356 43.1282 1.27062 31.8473 9.26121 26.8336C11.3764 25.4235 13.8049 24.4835 16.3117 24.0134Z" fill="black"/>
<path d="M7.69443 15.7094C7.69443 15.7094 8.94786 20.2531 11.8464 19.3913C14.745 18.5296 10.4363 11.8708 11.8464 10.774C13.2565 9.67727 18.5836 8.03215 15.8417 3.17512C13.0998 -1.68191 8.39949 1.76502 7.2244 5.1336C6.04931 8.50218 1.819 9.36391 7.69443 15.7094Z" fill="#24285B"/>
<path d="M13.4132 16.4146C15.663 16.4146 17.4868 14.5908 17.4868 12.341C17.4868 10.0912 15.663 8.26733 13.4132 8.26733C11.1634 8.26733 9.33954 10.0912 9.33954 12.341C9.33954 14.5908 11.1634 16.4146 13.4132 16.4146Z" fill="#E13B31"/>
<path d="M12.6298 8.34542C12.6298 8.34542 9.26123 5.36853 6.51936 5.60355C3.77749 5.83857 3.93417 8.5021 10.2013 11.3223L12.6298 8.34542Z" fill="#E13B31"/>
<path d="M9.26121 26.9122C9.26121 26.9122 6.441 24.4053 16.7034 20.5667C26.9659 16.7281 26.5742 21.5851 26.5742 21.5851C26.5742 21.5851 18.5836 26.5988 9.26121 26.9122Z" fill="#4561B5"/>
<path d="M29.3943 20.5667C29.3943 20.5667 54.3845 20.645 75.066 20.645L74.5177 26.5988C74.5177 26.5988 49.9975 34.1977 36.6799 42.1883C23.3622 50.1789 5.03085 26.7554 29.3943 20.5667Z" fill="#CDD8FB"/>
<path opacity="0.46" d="M29.3943 20.5667C29.3943 20.5667 54.3845 20.645 75.066 20.645L74.5177 26.5988C74.5177 26.5988 49.9975 34.1977 36.6799 42.1883C23.3622 50.1789 5.03085 26.7554 29.3943 20.5667Z" fill="white"/>
<path d="M40.3618 79.9478L46.9423 92.0903C52.0344 101.491 54.3845 112.145 53.6795 122.799L52.3477 144.264H46.1589L43.5737 122.486C42.6337 114.495 39.5784 106.896 34.6431 100.551C29.2377 93.5004 22.3438 87.86 14.3532 83.9431L10.9063 82.2196L40.3618 79.9478Z" fill="#24285B"/>
<path d="M10.9847 82.2192L13.6482 104.624C14.3532 110.735 14.2749 117.002 13.2565 123.112L9.88791 144.186H16.2334L24.3807 121.467C25.7908 117.55 26.4958 113.398 26.4958 109.246V86.5279L10.9847 82.2192Z" fill="#24285B"/>
<path d="M75.066 20.5665C75.066 20.5665 78.513 17.9029 80.4714 20.4881C82.4299 23.0733 80.8631 25.5018 74.596 26.4419L75.066 20.5665Z" fill="#F4A28C"/>
</svg>
