<svg width="67" height="67" viewBox="0 0 67 67" fill="none" xmlns="http://www.w3.org/2000/svg">
<path opacity="0.08" d="M35.3413 10.7875H0V66.4159H35.3413V10.7875Z" fill="black"/>
<path d="M66.5769 0H8.13086V60.0562H66.5769V0Z" fill="#F2F2F2"/>
<path d="M54.7429 14.8129H18.677V16.9865H54.7429V14.8129Z" fill="#A5A5A5"/>
<path d="M54.7429 28.418H18.677V30.5916H54.7429V28.418Z" fill="#A5A5A5"/>
<path d="M54.7429 42.0232H18.677V44.1968H54.7429V42.0232Z" fill="#A5A5A5"/>
<path d="M52.8108 10.7875C54.5819 10.7875 55.9505 12.2366 55.9505 13.9271V17.7108C55.9505 19.4819 54.5014 20.8505 52.8108 20.8505C51.0397 20.8505 49.6711 19.4014 49.6711 17.7108V13.9271C49.6711 12.2366 51.1202 10.7875 52.8108 10.7875Z" fill="#24285B"/>
<path d="M38.5615 24.3929C40.3326 24.3929 41.7012 25.842 41.7012 27.5326V31.3163C41.7012 33.0874 40.2521 34.456 38.5615 34.456C36.7904 34.456 35.4219 33.0069 35.4219 31.3163V27.5326C35.4219 25.842 36.7904 24.3929 38.5615 24.3929Z" fill="#4561B5"/>
<path d="M28.9009 38.0785C30.672 38.0785 32.0406 39.5276 32.0406 41.2182V45.0018C32.0406 46.7729 30.5915 48.1415 28.9009 48.1415C27.1298 48.1415 25.7612 46.6924 25.7612 45.0018V41.2182C25.7612 39.4471 27.1298 38.0785 28.9009 38.0785Z" fill="#FFD200"/>
</svg>
