<svg width="285" height="200" viewBox="0 0 285 200" fill="none" xmlns="http://www.w3.org/2000/svg">
<path opacity="0.45" d="M45.6459 200C70.8554 200 91.2918 196.143 91.2918 191.386C91.2918 186.629 70.8554 182.772 45.6459 182.772C20.4364 182.772 0 186.629 0 191.386C0 196.143 20.4364 200 45.6459 200Z" fill="#E6E6E6"/>
<path d="M216.234 46.3174H47.8999V156.93H216.234V46.3174Z" fill="#E6E6E6"/>
<path d="M56.0308 56.3804C57.5425 56.3804 58.768 55.155 58.768 53.6433C58.768 52.1316 57.5425 50.9061 56.0308 50.9061C54.5192 50.9061 53.2937 52.1316 53.2937 53.6433C53.2937 55.155 54.5192 56.3804 56.0308 56.3804Z" fill="#24285B"/>
<path d="M64.2423 56.3804C65.754 56.3804 66.9794 55.155 66.9794 53.6433C66.9794 52.1316 65.754 50.9061 64.2423 50.9061C62.7306 50.9061 61.5051 52.1316 61.5051 53.6433C61.5051 55.155 62.7306 56.3804 64.2423 56.3804Z" fill="#4561B5"/>
<path d="M71.8902 56.3804C73.4019 56.3804 74.6274 55.155 74.6274 53.6433C74.6274 52.1316 73.4019 50.9061 71.8902 50.9061C70.3785 50.9061 69.1531 52.1316 69.1531 53.6433C69.1531 55.155 70.3785 56.3804 71.8902 56.3804Z" fill="#FFD200"/>
<path opacity="0.08" d="M188.943 46.3174L149.335 46.4784L142.975 55.4144L83.2413 110.318L88.1521 119.898L71.4072 126.5H54.9038L52.7302 156.93H71.8902L74.6274 139.139C90.6477 137.046 101.194 122.313 101.194 122.313L170.91 92.5268L162.055 72.1592L173.809 66.5239L174.453 70.2271C174.453 70.2271 180.812 68.456 180.571 62.4987C180.329 56.5414 179.766 49.135 188.943 46.3174Z" fill="black"/>
<path d="M156.259 23.8567C155.293 31.6656 151.268 47.7664 134.764 54.9313L137.179 58.9565C137.179 58.9565 160.203 51.7111 165.758 33.1952C168.254 24.9032 166.644 21.2805 164.148 19.751C161.572 18.3019 158.352 19.2679 156.983 21.8441C156.5 22.4881 156.259 23.1321 156.259 23.8567Z" fill="#4561B5"/>
<path opacity="0.2" d="M156.259 23.8567C155.293 31.6656 151.268 47.7664 134.764 54.9313L137.179 58.9565C137.179 58.9565 160.203 51.7111 165.758 33.1952C168.254 24.9032 166.644 21.2805 164.148 19.751C161.572 18.3019 158.352 19.2679 156.983 21.8441C156.5 22.4881 156.259 23.1321 156.259 23.8567Z" fill="white"/>
<path d="M158.352 11.459L162.297 16.2892L165.758 12.586L159.479 7.03125L158.352 11.459Z" fill="#F4A28C"/>
<path d="M155.534 2.60371C153.522 2.28169 151.67 3.65027 151.348 5.66287C151.268 6.1459 151.268 6.70943 151.429 7.19245C152.153 10.0101 153.763 13.8743 156.742 12.5057C161.331 10.4931 158.915 4.45531 158.915 4.45531C158.03 3.56976 156.822 2.92573 155.534 2.60371Z" fill="#F4A28C"/>
<path d="M161.652 40.36L153.844 44.3852C151.106 45.8343 149.979 49.2154 151.428 51.9526C151.428 52.0331 151.509 52.0331 151.509 52.1136L158.593 64.3502L162.055 61.9351L158.03 50.8255C157.788 50.101 158.11 49.296 158.835 49.0544C158.915 49.0544 158.915 49.0544 158.996 48.9739L166.805 47.0418L165.436 50.745C164.551 53.0797 164.873 55.7363 166.241 57.8294L173.487 68.617L176.224 66.9264L172.762 57.3464C171.957 55.1728 172.44 52.8381 173.97 51.1475L177.753 47.0418L161.652 40.36Z" fill="#24285B"/>
<path d="M149.657 3.65007C149.657 3.65007 148.369 7.75578 152.797 6.70923C157.225 5.66267 156.903 4.2941 156.903 4.2941C156.903 4.2941 157.225 9.12436 159.479 8.0778C161.733 7.03125 160.445 4.37461 159.479 2.60351C158.513 0.83242 157.949 0.26889 155.454 0.0273775C152.958 -0.214135 149.979 1.15444 149.657 3.65007Z" fill="#24285B"/>
<path d="M156.983 7.11194C156.983 7.11194 156.822 5.74337 158.11 5.98488C159.398 6.22639 158.915 8.15849 158.11 8.3195C157.305 8.48051 156.983 7.11194 156.983 7.11194Z" fill="#F4A28C"/>
<path d="M40.252 111.848L42.2646 117.725L37.5954 120.703L35.9048 110.479L40.252 111.848Z" fill="#F4A28C"/>
<path d="M34.2948 104.763C35.0999 102.912 37.2735 102.026 39.1251 102.831C39.6081 103.073 40.0106 103.314 40.3326 103.717C42.3453 105.81 44.6799 109.272 42.0232 111.043C37.837 113.86 34.0533 108.628 34.0533 108.628C33.7313 107.34 33.8118 105.971 34.2948 104.763Z" fill="#F4A28C"/>
<path d="M37.354 108.386C37.354 108.386 36.3074 107.501 35.8244 108.789C35.3414 110.077 37.193 110.64 37.7565 109.996C38.32 109.352 37.354 108.386 37.354 108.386Z" fill="#F4A28C"/>
<path d="M161.411 15.323L165.758 12.5859C165.758 12.5859 179.766 7.75565 184.194 12.1834C188.621 16.6111 188.943 33.195 177.673 47.0417L161.652 40.3599C161.652 40.3599 161.974 32.3899 159.318 30.3773C156.661 28.3647 153.36 22.3269 161.411 15.323Z" fill="#AFBEE9"/>
<path d="M159.318 63.7867C159.318 63.7867 158.432 67.8924 160.042 67.7314C161.653 67.5704 161.975 61.9351 161.975 61.9351L159.318 63.7867Z" fill="#4561B5"/>
<path d="M173.487 68.456C173.487 68.456 172.601 72.5617 174.211 72.4007C175.821 72.2397 176.143 66.6044 176.143 66.6044L173.487 68.456Z" fill="#4561B5"/>
<path d="M195.706 44.3048C195.706 44.3048 192.969 45.4319 194.015 46.8004C195.062 48.169 198.443 46.3174 198.443 46.3174L198.684 44.3048H195.706Z" fill="#F4A28C"/>
<path d="M135.005 55.4143C135.005 55.4143 130.578 55.7363 131.463 56.7829C131.946 57.3464 132.51 57.7489 133.154 58.0709C133.154 58.0709 129.934 61.6936 132.268 62.4182C134.603 63.1427 136.938 58.6345 136.938 58.6345L135.005 55.4143Z" fill="#F4A28C"/>
<path d="M144.127 53.289L65.6199 89.525L79.9928 120.665L158.5 84.4287L144.127 53.289Z" fill="#FFD200"/>
<path opacity="0.58" d="M137.669 66.1957L99.9944 83.5051L102.347 88.6259L140.022 71.3165L137.669 66.1957Z" fill="white"/>
<path opacity="0.58" d="M142.549 76.7317L104.874 94.0411L107.227 99.1619L144.901 81.8525L142.549 76.7317Z" fill="white"/>
<path d="M88.7961 107.42C93.7313 107.42 97.732 103.419 97.732 98.4841C97.732 93.5489 93.7313 89.5481 88.7961 89.5481C83.8609 89.5481 79.8601 93.5489 79.8601 98.4841C79.8601 103.419 83.8609 107.42 88.7961 107.42Z" fill="white"/>
<path opacity="0.58" d="M128.807 36.5764C128.807 36.5764 121.078 34.4833 119.388 27.3184C119.388 27.3184 131.383 24.8228 131.705 37.2204L128.807 36.5764Z" fill="#4561B5"/>
<path opacity="0.73" d="M129.773 35.7713C129.773 35.7713 124.298 27.2379 129.048 19.2679C129.048 19.2679 138.145 24.9837 134.2 35.7713H129.773Z" fill="#4561B5"/>
<path d="M131.141 35.7715C131.141 35.7715 133.959 26.755 142.573 24.9839C142.573 24.9839 144.183 30.8607 137.018 35.7715H131.141Z" fill="#4561B5"/>
<path opacity="0.63" d="M82.3558 65.7189H58.7681V70.1466H82.3558V65.7189Z" fill="#CECECE"/>
<path d="M36.549 119.496C36.549 119.496 22.7023 127.868 20.9312 147.511C20.6092 150.892 22.7828 153.952 26.0835 154.757L42.2648 158.701L36.549 119.496Z" fill="#4561B5"/>
<path opacity="0.2" d="M36.549 119.496C36.549 119.496 22.7023 127.868 20.9312 147.511C20.6092 150.892 22.7828 153.952 26.0835 154.757L42.2648 158.701L36.549 119.496Z" fill="white"/>
<path d="M125.506 35.6104L127.116 46.3174H137.018L138.387 35.6104H125.506Z" fill="#24285B"/>
<path d="M37.9175 106.856C37.9175 106.856 40.0911 113.216 36.2269 112.814C32.3627 112.411 34.4558 109.674 32.6042 106.856C30.7526 104.039 31.7186 102.107 34.6168 99.6916C35.9854 98.5645 36.8709 98.001 37.3539 97.4375C38.0785 96.5519 39.3665 96.4714 40.2521 97.196C40.4936 97.357 40.6546 97.679 40.8156 97.9205C41.8622 100.255 41.8622 103.556 37.9175 106.856Z" fill="#24285B"/>
<path d="M39.3646 141.67L12.7021 148.542L17.6251 167.642L44.2876 160.77L39.3646 141.67Z" fill="#FFD200"/>
<path opacity="0.08" d="M28.4985 144.13L31.5577 156.93L30.7527 163.934L37.9175 162.083L40.0911 156.367L33.1678 142.923L28.4985 144.13Z" fill="black"/>
<path d="M33.3288 123.682C34.6974 120.703 37.193 118.53 40.3327 117.564C46.2095 115.793 57.4801 112.089 60.7807 117.564C65.289 125.131 58.3656 154.837 58.3656 154.837L38.4811 156.367C38.4811 156.367 27.5325 136.724 33.3288 123.682Z" fill="#AFBEE9"/>
<path d="M58.2849 154.837L55.7088 188.971H51.6031L47.8999 162.485L38.7224 156.367L58.2849 154.837Z" fill="#24285B"/>
<path d="M38.7225 156.367L33.0872 188.971H37.5149L47.0144 161.921L38.7225 156.367Z" fill="#24285B"/>
<path d="M48.9465 122.072C47.9804 119.093 49.671 115.954 52.5692 114.988C53.1327 114.827 53.6157 114.746 54.1793 114.746C56.6749 114.666 59.6535 115.068 61.8272 116.92C66.8184 120.945 83.0803 123.682 97.8125 110.238L100.63 114.585C100.63 114.585 83.9658 136.321 57.802 130.042C53.7767 129.156 50.4761 126.258 49.027 122.313C48.9465 122.313 48.9465 122.152 48.9465 122.072Z" fill="#BFCAEB"/>
<path opacity="0.2" d="M48.9465 122.072C47.9804 119.093 49.671 115.954 52.5692 114.988C53.1327 114.827 53.6157 114.746 54.1793 114.746C56.6749 114.666 59.6535 115.068 61.8272 116.92C66.8184 120.945 83.0803 123.682 97.8125 110.238L100.63 114.585C100.63 114.585 83.9658 136.321 57.802 130.042C53.7767 129.156 50.4761 126.258 49.027 122.313C48.9465 122.313 48.9465 122.152 48.9465 122.072Z" fill="white"/>
<path opacity="0.08" d="M42.0232 117C42.0232 117 32.7652 146.948 59.5731 148.88L58.2851 154.837L38.4005 156.367C33.8118 148.316 31.4772 139.219 31.7187 129.961C31.7187 129.961 31.8797 122.313 37.2735 118.932C38.7225 117.966 40.3326 117.322 42.0232 117Z" fill="black"/>
<path d="M33.8923 188.971L31.1552 190.984C30.9137 191.145 30.8332 191.547 30.9942 191.789C31.0747 191.95 31.3162 192.03 31.4772 192.03H36.0659C36.3879 192.03 36.6295 191.789 36.71 191.386V188.891L33.8923 188.971Z" fill="#4561B5"/>
<path d="M55.5478 188.971L58.1239 190.983C58.3655 191.225 58.446 191.547 58.2045 191.869C58.1239 192.03 57.8824 192.11 57.7214 192.11H54.4207C53.4547 192.11 52.6497 191.305 52.6497 190.339V188.971H55.5478Z" fill="#4561B5"/>
<path d="M99.9057 113.458C99.9057 113.458 103.367 114.585 104.092 109.513L98.2151 110.882L99.9057 113.458Z" fill="#F4A28C"/>
<path opacity="0.08" d="M168.254 43.0973C168.254 43.0973 175.258 41.7288 177.673 32.0682C180.088 22.4077 174.936 14.7598 179.927 13.5523C184.918 12.3447 186.931 24.9839 186.931 24.9839C186.931 24.9839 187.092 34.8054 177.673 47.042L168.254 43.0973Z" fill="black"/>
<path d="M183.147 11.298C187.253 12.747 193.693 15.6452 198.041 20.6365C200.536 23.4541 201.663 27.2378 201.1 31.0215L199.168 44.3047H194.498L194.74 32.2291C194.74 29.5724 193.049 27.3183 190.554 26.5133C185.562 24.9837 177.914 21.6025 177.834 15.1622C177.834 12.9886 179.525 11.2175 181.698 11.137C182.262 11.137 182.664 11.2175 183.147 11.298Z" fill="#BFCAEB"/>
<path opacity="0.2" d="M183.147 11.298C187.253 12.747 193.693 15.6452 198.041 20.6365C200.536 23.4541 201.663 27.2378 201.1 31.0215L199.168 44.3047H194.498L194.74 32.2291C194.74 29.5724 193.049 27.3183 190.554 26.5133C185.562 24.9837 177.914 21.6025 177.834 15.1622C177.834 12.9886 179.525 11.2175 181.698 11.137C182.262 11.137 182.664 11.2175 183.147 11.298Z" fill="white"/>
</svg>
