<svg width="54" height="55" viewBox="0 0 54 55" fill="none" xmlns="http://www.w3.org/2000/svg">
<path d="M26.8531 54.0622C41.5942 54.0622 53.5442 42.1122 53.5442 27.3711C53.5442 12.6301 41.5942 0.680054 26.8531 0.680054C12.112 0.680054 0.161987 12.6301 0.161987 27.3711C0.161987 42.1122 12.112 54.0622 26.8531 54.0622Z" fill="#24285B"/>
<path d="M36.9135 29.6297C38.8412 29.6297 40.4038 28.067 40.4038 26.1393C40.4038 24.2116 38.8412 22.6489 36.9135 22.6489C34.9858 22.6489 33.4231 24.2116 33.4231 26.1393C33.4231 28.067 34.9858 29.6297 36.9135 29.6297Z" fill="#FFD200"/>
<path d="M24.1839 21.9304H13.7128V31.1696H24.1839V21.9304Z" fill="#FFD200"/>
<path d="M24.184 21.9304C29.8302 21.4171 34.7577 17.8241 36.9136 12.4858V38.6636C36.9136 38.6636 32.7046 31.1696 24.184 31.1696V21.9304Z" fill="white"/>
<path d="M18.9484 31.1696L21.9254 40.1008H26.7504L24.1839 31.1696H18.9484Z" fill="#FFD200"/>
</svg>
