<svg width="307" height="195" viewBox="0 0 307 195" fill="none" xmlns="http://www.w3.org/2000/svg">
<path d="M250 18.6H61V140.6H250V18.6Z" fill="#F2F2F2"/>
<path d="M141.161 126.6L134 172.6H182L170.968 126.6H141.161Z" fill="#C9C9C9"/>
<path opacity="0.24" d="M153.5 194.6C238.276 194.6 307 189.227 307 182.6C307 175.973 238.276 170.6 153.5 170.6C68.7243 170.6 0 175.973 0 182.6C0 189.227 68.7243 194.6 153.5 194.6Z" fill="#E6E6E6"/>
<path d="M190 164.6H123V178.6H190V164.6Z" fill="#E6E6E6"/>
<path d="M250 117.6H61V140.6H250V117.6Z" fill="#E6E6E6"/>
<path d="M157.5 135.6C161.09 135.6 164 132.69 164 129.1C164 125.51 161.09 122.6 157.5 122.6C153.91 122.6 151 125.51 151 129.1C151 132.69 153.91 135.6 157.5 135.6Z" fill="#A5A5A5"/>
<path d="M151.022 10.0405C150.932 12.9286 151.112 15.9163 151.74 18.7048C152.1 20.0991 153.447 20.8958 154.705 20.4974C156.682 19.9995 158.209 18.2069 158.658 15.9163L159.916 11.2356C160.275 9.24379 159.467 7.252 157.849 6.2561C155.154 4.3639 151.022 6.85364 151.022 10.0405Z" fill="#F4A28C"/>
<path d="M159.779 12.6L163 28.4729L154 29.6L155.326 17.5779L159.779 12.6Z" fill="#F4A28C"/>
<path d="M156 14.2779C156 14.2779 156 12.515 157.728 12.6032C159.456 12.6913 159.571 15.2474 157.152 15.6L156 14.2779Z" fill="#F4A28C"/>
<path d="M150.702 13.6L149.189 15.3027C148.864 15.627 148.972 16.0324 149.405 16.2757C149.513 16.3567 149.621 16.3567 149.837 16.3567L152 16.6L150.702 13.6Z" fill="#F4A28C"/>
<path opacity="0.08" d="M169.097 18.6H181.777C181.777 18.6 200.176 33.0596 205.992 53.9778C210.758 70.9437 209.9 86.1745 203.132 96.1998C199.7 101.405 198.46 107.767 199.7 113.84L200.462 117.6H167L169.097 18.6Z" fill="black"/>
<path d="M154.02 29.6C154.02 29.6 141.11 29.6 139.006 40.0176C136.903 50.4353 137.763 76.3334 129.539 77.307C121.315 78.2806 106.97 45.3725 106.97 45.3725C106.97 45.3725 100.85 39.8229 96.9293 42.2569C93.0085 44.691 102.763 50.0459 102.763 50.0459C102.763 50.0459 110.317 113.428 148.474 85.4854C186.63 57.5427 154.02 29.6 154.02 29.6Z" fill="#F4A28C"/>
<path opacity="0.31" d="M154.471 19.7875C155.882 19.35 157.059 18.5844 158 17.6C158 17.6 158 21.1 154 24.6L154.471 19.7875Z" fill="#CE8172"/>
<path d="M153.943 29.746L163.027 28.6C163.027 28.6 185.496 28.982 186.835 53.7159C188.174 78.4499 181.002 77.1129 178.325 98.6H142.756C142.756 98.6 144.095 85.2303 139.888 76.158C135.68 67.1811 113.402 60.4008 153.943 29.746Z" fill="#4764BA"/>
<path d="M159 46.6H145V66.6H159V46.6Z" fill="#24285B"/>
<path opacity="0.08" d="M161 33.6C161 33.6 156.714 43.6549 164.524 56.3912C172.333 69.1274 176.524 75.9265 163 75.735C149.476 75.4477 149.19 51.6989 149.19 51.6989H139L140.238 71.33L146.524 72.2876L156.81 92.8763L178.714 94.6L186.714 84.4493L191 66.7334L173.667 36.3771L161 33.6Z" fill="black"/>
<path d="M180.833 36.7733C180.833 36.7733 195.708 44.2443 195.998 75.5648C196.287 106.885 170.981 97.6903 154.56 73.9365C154.56 73.9365 144.708 64.4542 149.151 60.5271C153.594 56.6001 158.714 70.0095 158.714 70.0095C158.714 70.0095 174.748 82.1737 181.316 79.6834C187.691 77.1931 146.253 33.5168 180.833 36.7733Z" fill="#F4A28C"/>
<path d="M157.23 10.7875C158.48 14.6222 158.865 18.7445 158.48 22.771C157.711 29.1941 156.461 39.5479 169.634 40.5065C182.806 41.4652 181.46 34.8503 180.306 29.6735C179.153 24.4966 167.326 24.209 168.191 13.2801C169.057 2.35113 161.269 0.337905 154.442 0.625509C147.615 0.913112 143.192 10.9792 157.23 10.7875Z" fill="#FFD200"/>
<path d="M142.991 92.6L139 117.6H183L178.724 95.4517L142.991 92.6Z" fill="#24285B"/>
<path opacity="0.58" d="M95.1603 167.952C95.1603 167.952 87.6489 165.917 86 158.792C86 158.792 97.7252 156.386 98 168.6L95.1603 167.952Z" fill="#4764BA"/>
<path opacity="0.73" d="M96.6038 167.6C96.6038 167.6 91.2071 158.81 95.9525 150.6C95.9525 150.6 104.978 156.589 100.977 167.6H96.6038Z" fill="#4764BA"/>
<path d="M98 167.6C98 167.6 100.913 158.337 109.845 156.6C109.845 156.6 111.496 162.582 104.02 167.6H98Z" fill="#4764BA"/>
<path d="M92 167.6L93.6014 178.504L103.493 178.6L105 167.696L92 167.6Z" fill="#24285B"/>
</svg>
