<svg width="55" height="50" viewBox="0 0 55 50" fill="none" xmlns="http://www.w3.org/2000/svg">
<path d="M54.525 0.483887H0V49.725H54.525V0.483887Z" fill="#FFD200"/>
<path d="M22.5969 29.4889H20.4609L19.5615 27.2405H15.7392L14.9522 29.4889H12.9286L16.6385 19.8206H18.6622L22.5969 29.4889ZM18.9994 25.6665L17.6503 22.069L16.3013 25.6665H18.9994Z" fill="#24285B"/>
<path d="M23.6088 19.9331H27.2063C27.9932 19.9331 28.6678 20.0455 29.0051 20.1579C29.5672 20.2704 30.0169 20.6076 30.4666 21.0573C30.9162 21.507 31.1411 21.9567 31.3659 22.6313C31.5908 23.3058 31.7032 23.9803 31.7032 24.8797C31.7032 25.6667 31.5908 26.3412 31.3659 26.9033C31.1411 27.5778 30.8038 28.14 30.3541 28.5897C30.0169 28.9269 29.5672 29.1518 29.0051 29.3766C28.5554 29.489 27.9933 29.6015 27.3187 29.6015H23.6088V19.9331ZM25.5199 21.507V27.9151H26.9814C27.5436 27.9151 27.8808 27.9151 28.1057 27.8027C28.4429 27.6903 28.6678 27.5779 28.8926 27.353C29.1175 27.1282 29.2299 26.9033 29.4547 26.4536C29.6796 26.0039 29.6796 25.4418 29.6796 24.6549C29.6796 23.8679 29.5672 23.3058 29.4547 22.9685C29.3423 22.6312 29.1175 22.294 28.8926 22.0691C28.6678 21.8443 28.3305 21.7319 27.9933 21.6194C27.7684 21.507 27.2063 21.507 26.4193 21.507H25.5199Z" fill="#24285B"/>
<path d="M32.8274 26.3413L34.7386 26.1165C34.851 26.791 35.0759 27.2407 35.4131 27.4655C35.7504 27.6904 36.2001 27.9152 36.8746 27.9152C37.5492 27.9152 37.9988 27.8028 38.3361 27.4655C38.6734 27.1283 38.7858 26.9034 38.7858 26.5662C38.7858 26.3413 38.6734 26.1165 38.561 26.004C38.4485 25.8916 38.2237 25.6668 37.8864 25.5544C37.6616 25.4419 37.0995 25.3295 36.3125 25.1047C35.3007 24.8798 34.5137 24.5426 34.064 24.2053C33.5019 23.6432 33.1647 23.0811 33.1647 22.2941C33.1647 21.8444 33.2771 21.3947 33.6144 20.945C33.9516 20.4953 34.2889 20.1581 34.851 19.9332C35.4131 19.7084 35.9752 19.5959 36.7622 19.5959C37.9988 19.5959 38.8982 19.8208 39.4603 20.3829C40.0225 20.945 40.3597 21.6196 40.4721 22.5189L38.561 22.6314C38.4485 22.1817 38.3361 21.732 37.9988 21.5071C37.6616 21.2823 37.3243 21.1699 36.7622 21.1699C36.2001 21.1699 35.7504 21.2823 35.4131 21.5071C35.1883 21.6196 35.0758 21.8444 35.0758 22.0693C35.0758 22.2941 35.1883 22.5189 35.4131 22.6314C35.638 22.8562 36.3125 23.0811 37.2119 23.3059C38.1113 23.5307 38.8982 23.7556 39.3479 23.9804C39.7976 24.2053 40.1349 24.5425 40.3597 24.9922C40.5846 25.4419 40.697 25.8916 40.697 26.5662C40.697 27.1283 40.5846 27.6904 40.2473 28.1401C39.91 28.5898 39.4603 28.927 38.8982 29.2643C38.3361 29.6016 37.6616 29.6016 36.7622 29.6016C35.5255 29.6016 34.6262 29.2643 33.9516 28.7022C33.2771 28.1401 32.9398 27.4655 32.8274 26.3413Z" fill="#24285B"/>
</svg>
