<svg width="56" height="57" viewBox="0 0 56 57" fill="none" xmlns="http://www.w3.org/2000/svg">
<path d="M27.7076 56.3285C43.0101 56.3285 55.4152 43.9234 55.4152 28.6209C55.4152 13.3184 43.0101 0.91333 27.7076 0.91333C12.4051 0.91333 0 13.3184 0 28.6209C0 43.9234 12.4051 56.3285 27.7076 56.3285Z" fill="#24285B"/>
<path d="M41.6064 29.7039C43.6822 22.7545 39.7111 15.444 32.7617 13.4584C25.8122 11.3826 18.5017 15.3537 16.5162 22.3032C15.3429 26.3646 16.1552 30.6967 18.7725 34.036L16.5162 41.888L20.2166 42.9711L22.0216 37.0144C22.5631 37.3754 23.1046 37.6462 23.6461 37.9169L21.9313 43.5126L25.6317 44.5956L27.2563 38.9999C27.9783 39.0902 28.7003 39.1804 29.4223 39.0902L27.6173 45.1371L31.3176 46.2202L33.6642 38.1877C37.5451 36.8339 40.4331 33.675 41.6064 29.7039ZM22.3826 29.3429C20.2165 28.7111 19.1335 26.1841 19.7653 23.7472C20.4873 21.3104 22.8339 19.7761 24.9097 20.4079C26.9855 21.0397 28.1588 23.5667 27.527 26.0035C26.805 28.4404 24.4584 29.9747 22.3826 29.3429ZM32.6714 32.3212C30.5054 31.6895 29.4223 29.1624 30.0541 26.7256C30.7761 24.2887 33.1227 22.8447 35.1985 23.4765C37.2743 24.1082 38.4476 26.5451 37.8158 29.0721C37.1841 31.5992 34.8375 32.953 32.6714 32.3212Z" fill="#F8F8F8"/>
</svg>
