<svg width="132" height="185" viewBox="0 0 132 185" fill="none" xmlns="http://www.w3.org/2000/svg">
<path d="M46.4707 177.654C46.4707 177.654 45.5507 180.721 42.8672 181.105C40.1837 181.488 39.647 184.171 42.1005 184.708C44.5539 185.245 50.6876 181.795 50.6876 181.795L50.3042 177.884L46.4707 177.654Z" fill="#4561B5"/>
<path d="M92.6263 177.654C92.6263 177.654 93.5463 180.721 96.2298 181.105C98.9133 181.488 99.4499 184.171 96.9965 184.708C94.543 185.245 88.4094 181.795 88.4094 181.795L88.7928 177.884L92.6263 177.654Z" fill="#4561B5"/>
<path d="M84.8059 11.9697C84.8059 11.9697 85.3426 17.8733 84.3459 21.7835C83.9625 23.3936 82.3524 24.3137 80.7424 23.9303C78.7489 23.3936 76.2955 22.0902 75.6054 19.0234L73.842 13.8865C73.382 11.663 74.302 9.4396 76.2188 8.21287C79.439 5.68275 84.6526 8.28954 84.8059 11.9697Z" fill="#F4A28C"/>
<path d="M74.6854 15.1132L66.5583 32.9774L76.6788 36.5042L78.4423 22.5502L74.6854 15.1132Z" fill="#F4A28C"/>
<path d="M73.0753 15.2665L72.9987 18.7934C74.7621 19.4834 76.8322 18.7934 77.8289 17.1833C78.9023 15.5732 78.9023 13.4264 77.8289 11.7397C77.8289 11.7397 78.5956 13.8865 80.4357 12.5831C82.2758 11.2797 83.5025 11.3563 83.6558 12.7364C83.8092 14.1165 86.2626 14.0398 87.2594 11.2797C88.2561 8.51952 84.3459 9.59291 85.5726 7.90616C86.7993 6.21941 88.4861 5.06935 86.0326 3.61262C83.5792 2.15588 83.8859 5.37604 82.1991 3.61262C80.5124 1.8492 80.2823 -0.0675642 77.5222 0.929151C74.7621 1.92587 76.6022 4.53266 73.842 4.07264C71.0819 3.61262 70.2385 4.14931 69.8552 7.13946C69.6252 9.05622 69.4718 10.513 70.4685 11.1263C72.0019 11.893 72.9987 13.5031 73.0753 15.2665Z" fill="#24285B"/>
<path d="M78.5189 17.0299C78.5189 17.0299 78.4423 14.7298 76.7555 14.9598C75.0688 15.1898 75.0688 18.4099 77.4455 18.7166L78.5189 17.0299Z" fill="#F4A28C"/>
<path d="M84.8826 15.6499L86.4927 17.95C86.7993 18.41 86.7227 18.9467 86.2627 19.2534C86.186 19.3301 86.0326 19.4068 85.8793 19.4068L83.5792 19.8668L84.8826 15.6499Z" fill="#F4A28C"/>
<path opacity="0.31" d="M78.3656 22.9336C77.2155 22.2436 76.2955 21.3235 75.6821 20.1735C75.6821 20.1735 73.612 23.8536 77.9056 26.9971L78.3656 22.9336Z" fill="#CE8172"/>
<path d="M90.8629 38.881C90.8629 38.881 131.575 51.9916 131.345 83.4265L103.897 66.559L90.8629 38.881Z" fill="#4561B5"/>
<path d="M43.1739 30.6772C45.474 28.7604 48.4641 27.8404 51.3776 28.2237C61.1914 29.4505 86.5694 33.4373 97.9932 43.7112C112.331 56.5918 118.924 73.536 83.6559 117.468H50.4576C50.4576 117.391 19.5594 51.3782 43.1739 30.6772Z" fill="#CDD8FB"/>
<path opacity="0.08" d="M51.531 46.2412C51.531 46.2412 51.2243 62.4187 58.3546 70.5457C65.485 78.6728 101.98 90.6334 101.98 90.6334C97.2265 99.9105 91.3229 108.574 84.4226 116.471L83.5792 117.391H50.4576C50.4576 117.391 38.727 90.9401 35.9669 72.7692C34.1268 60.1186 51.531 46.2412 51.531 46.2412Z" fill="black"/>
<path d="M58.4241 45.9848L56.4727 76.7446L91.747 78.9824L93.6984 48.2226L58.4241 45.9848Z" fill="#24285B"/>
<path d="M75.5288 54.4452L54.5978 68.7826L52.7577 97.0739L92.703 99.6041L94.4664 71.3127L75.5288 54.4452Z" fill="#FFD200"/>
<path opacity="0.08" d="M54.5978 68.7826C54.5978 68.7826 56.2845 91.7837 93.2396 91.6304L92.703 99.6041L52.7577 97.074L54.5978 68.7826Z" fill="black"/>
<path d="M44.0939 85.8799C44.0939 85.8799 48.6941 80.6663 57.1279 85.2666L56.3612 90.7102H44.0939V85.8799Z" fill="#F4A28C"/>
<path d="M41.9471 30.3708C30.5999 36.351 7.98214 50.1517 0.161758 86.9535C-0.681617 91.0171 1.84851 95.0039 5.98871 95.924C6.90876 96.0773 7.75213 96.154 8.67218 96.0006L44.0939 90.6337V85.8801L21.8595 84.3467C21.8595 84.3467 54.5211 63.7991 52.2976 35.891C51.9143 32.0575 48.5408 29.2207 44.7073 29.604C43.7106 29.6807 42.7905 29.9107 41.9471 30.3708Z" fill="#CDD8FB"/>
<path opacity="0.2" d="M41.9471 30.3708C30.5999 36.351 7.98214 50.1517 0.161758 86.9535C-0.681617 91.0171 1.84851 95.0039 5.98871 95.924C6.90876 96.0773 7.75213 96.154 8.67218 96.0006L44.0939 90.6337V85.8801L21.8595 84.3467C21.8595 84.3467 54.5211 63.7991 52.2976 35.891C51.9143 32.0575 48.5408 29.2207 44.7073 29.604C43.7106 29.6807 42.7905 29.9107 41.9471 30.3708Z" fill="white"/>
<path d="M97.9932 48.3881C97.9932 48.3881 92.5496 44.3246 87.4894 45.0913L86.7227 50.4582C86.7227 50.4582 96.4598 52.7583 97.9932 55.2885V48.3881Z" fill="#F4A28C"/>
<path d="M97.9932 48.3881L129.581 77.2928C132.035 79.5163 132.188 83.2731 129.965 85.7266C128.891 86.8766 127.358 87.5666 125.825 87.6433C116.087 88.0267 103.053 82.8131 97.9932 55.2117V48.3881Z" fill="#CDD8FB"/>
<path opacity="0.2" d="M97.9932 48.3881L129.581 77.2928C132.035 79.5163 132.188 83.2731 129.965 85.7266C128.891 86.8766 127.358 87.5666 125.825 87.6433C116.087 88.0267 103.053 82.8131 97.9932 55.2117V48.3881Z" fill="white"/>
<path d="M80.5821 74.7068L80.1452 81.5934L88.4091 82.1176L88.846 75.2311L80.5821 74.7068Z" fill="white"/>
<path opacity="0.08" d="M63.44 73.8119L63.3137 75.8014L74.5618 76.515L74.688 74.5255L63.44 73.8119Z" fill="black"/>
<path opacity="0.08" d="M63.146 77.6087L63.0198 79.5981L74.2678 80.3117L74.394 78.3223L63.146 77.6087Z" fill="black"/>
<path d="M50.4576 117.392L44.0939 178.115H52.3743L66.4817 127.129L83.7325 117.392H50.4576Z" fill="#24285B"/>
<path d="M83.7325 117.392L94.4664 178.115H87.1827L67.7851 126.899L62.8782 123.065L83.7325 117.392Z" fill="#24285B"/>
</svg>
