<svg width="263" height="200" viewBox="0 0 263 200" fill="none" xmlns="http://www.w3.org/2000/svg">
<path opacity="0.3" d="M131.195 200C203.52 200 262.152 191.838 262.152 181.769C262.152 171.7 203.52 163.538 131.195 163.538C58.8696 163.538 0.238281 171.7 0.238281 181.769C0.238281 191.838 58.8696 200 131.195 200Z" fill="white"/>
<path d="M50.0578 182.671C50.0578 182.671 49.1553 185.65 46.6282 186.011C44.1011 186.372 43.4693 188.989 45.9062 189.44C48.343 189.891 54.1192 186.642 54.1192 186.642L53.7582 182.942L50.0578 182.671Z" fill="#4561B5"/>
<path opacity="0.58" d="M201.592 167.599C201.592 167.599 193.289 165.343 191.484 157.671C191.484 157.671 204.3 155.054 204.751 168.321L201.592 167.599Z" fill="#CDD8FB"/>
<path opacity="0.73" d="M202.675 166.787C202.675 166.787 196.809 157.671 201.863 149.097C201.863 149.097 211.7 155.235 207.368 166.787H202.675Z" fill="#CDD8FB"/>
<path d="M204.119 166.787C204.119 166.787 207.097 157.13 216.394 155.235C216.394 155.235 218.199 161.462 210.437 166.787H204.119Z" fill="#CDD8FB"/>
<path d="M198.163 166.606L199.877 178.069H210.437L211.971 166.606H198.163Z" fill="#24285B"/>
<path d="M182.098 0H79.1191V181.769H182.098V0Z" fill="#C9C9C9"/>
<path d="M172.892 21.0289H87.6029V151.083H172.892V21.0289Z" fill="white"/>
<path d="M155.383 64.621H106.105V133.394H155.383V64.621Z" fill="#E6E6E6"/>
<path opacity="0.08" d="M134.264 77.5271L136.249 67.6895L145.274 75.6318L154.119 105.505L156.827 104.152L159.264 110.018L155.292 112.094L162.603 127.076C162.603 127.076 141.845 158.213 101.682 144.675L95.8159 151.986L118.83 181.769H79.0289L79.6607 138.809L79.0289 92.4188V67.5993C79.0289 67.5993 86.9712 65.7942 90.3105 70.8484C92.2961 73.8267 93.0181 77.5271 92.2961 80.9567L88.8665 81.4079L90.3105 98.3754L104.029 117.238L114.408 134.928L130.563 134.747L145.996 129.152L151.502 120.758L144.643 106.318L134.264 77.5271Z" fill="black"/>
<path opacity="0.56" d="M130.653 175.993C136.236 175.993 140.762 171.467 140.762 165.885C140.762 160.302 136.236 155.776 130.653 155.776C125.071 155.776 120.545 160.302 120.545 165.885C120.545 171.467 125.071 175.993 130.653 175.993Z" fill="white"/>
<path opacity="0.12" d="M150.78 7.22021H121.899V11.4621H150.78V7.22021Z" fill="black"/>
<path d="M111.43 14.4406C114.022 14.4406 116.123 12.3394 116.123 9.74746C116.123 7.15551 114.022 5.05432 111.43 5.05432C108.838 5.05432 106.736 7.15551 106.736 9.74746C106.736 12.3394 108.838 14.4406 111.43 14.4406Z" fill="white"/>
<path d="M64.9495 74.2781C64.9495 74.2781 63.7762 79.3322 64.1372 82.7618C64.3177 84.2059 65.5813 85.1986 66.9351 85.1084C69.1914 85.0181 71.1769 83.5741 71.9892 81.4983L74.1553 77.2564C74.8773 75.4513 74.3358 73.3755 72.8917 72.112C70.2744 69.5849 65.491 71.2095 64.9495 74.2781Z" fill="#F4A28C"/>
<path d="M74.065 79.332L76.8628 93.231L68.2888 95.397L69.7329 81.8591L74.065 79.332Z" fill="#F4A28C"/>
<path d="M69.6426 79.4223C69.6426 79.4223 70.0036 77.4368 71.4476 77.7978C72.8917 78.1588 72.4404 80.9566 70.3646 80.9566L69.6426 79.4223Z" fill="#F4A28C"/>
<path d="M64.3177 77.5271L62.6029 79.2419C62.2419 79.6029 62.2419 80.0542 62.6029 80.4152C62.6932 80.5054 62.7834 80.5957 62.8737 80.5957L64.769 81.2275L64.3177 77.5271Z" fill="#F4A28C"/>
<path opacity="0.31" d="M69.4621 84.0254C70.4549 83.3936 71.2672 82.6716 71.9892 81.769C71.9892 81.769 73.2527 86.8232 69.0109 88.6282L69.4621 84.0254Z" fill="#CE8172"/>
<path d="M64.6787 67.5993C64.6787 67.5993 60.8881 71.1191 65.3104 73.2852C69.7328 75.4513 70.0938 74.5487 70.0938 74.5487C70.0938 74.5487 67.8375 80.5054 72.0794 81.4982L74.426 80.5957C74.426 80.5957 79.5704 73.917 77.0433 70.9386C76.953 70.9386 73.4332 61.6426 64.6787 67.5993Z" fill="#24285B"/>
<path d="M69.4622 93.9529C69.4622 93.9529 97.26 87.9963 102.134 100.09C107.007 112.274 87.964 150.632 87.964 150.632L61.5199 149.188C61.4297 149.278 29.1192 109.837 69.4622 93.9529Z" fill="#CDD8FB"/>
<path opacity="0.08" d="M74.065 110.83L83.3611 115.704C83.3611 115.704 83.1806 135.921 69.0109 149.639L61.4297 149.278C60.7076 148.466 60.0759 147.563 59.5343 146.661C58.9026 145.578 74.065 110.83 74.065 110.83Z" fill="black"/>
<path d="M69.2816 80.1445C69.2816 80.1445 71.1769 76.4441 72.8917 78.3394C74.6065 80.2347 71.4477 83.7546 69.2816 80.1445Z" fill="#F4A28C"/>
<path d="M22.1697 99.639L51.5018 87.3646L74.5163 107.581C74.5163 107.581 72.5307 135.108 56.8267 149.458C49.6065 156.227 38.3249 155.776 31.556 148.556C31.1047 148.105 30.7437 147.653 30.3827 147.112C23.8845 138.628 18.1083 123.917 22.1697 99.639Z" fill="#FFD200"/>
<path opacity="0.57" d="M30.1119 106.679L49.5163 98.556L64.769 112.004C64.769 112.004 63.4152 130.325 53.0361 139.802C48.2527 144.224 40.7618 143.953 36.2491 139.17C35.9784 138.899 35.7076 138.538 35.4368 138.177C31.2852 132.581 27.4044 122.744 30.1119 106.679Z" fill="white"/>
<path d="M86.9711 95.8483C90.6714 93.231 95.7256 93.4115 99.2454 96.2093C103.126 99.1876 108.632 105.054 112.242 115.704C118.379 133.754 131.375 134.928 146.718 121.39L150.689 126.534C150.689 126.534 117.025 159.747 91.2129 121.931C80.2924 105.957 82.7292 98.9169 86.9711 95.8483Z" fill="#CDD8FB"/>
<path opacity="0.2" d="M86.9711 95.8483C90.6714 93.231 95.7256 93.4115 99.2454 96.2093C103.126 99.1876 108.632 105.054 112.242 115.704C118.379 133.754 131.375 134.928 146.718 121.39L150.689 126.534C150.689 126.534 117.025 159.747 91.2129 121.931C80.2924 105.957 82.7292 98.9169 86.9711 95.8483Z" fill="white"/>
<path d="M61.4295 149.278L49.9674 158.303C44.462 162.635 42.5667 170.126 45.2743 176.625L48.3429 183.755H53.758L52.1335 174.368C51.4115 170.307 53.397 166.245 56.9169 164.26C64.4981 160.018 72.3501 156.318 80.4729 153.339L87.8736 150.632L61.4295 149.278Z" fill="#24285B"/>
<path d="M144.372 112.004L125.87 81.3178L126.682 70.0363L136.61 76.3539L149.877 109.928L144.372 112.004Z" fill="#FFD200"/>
<path d="M142.116 112.455L143.921 115.884L146.718 114.44L153.217 127.076L156.917 125.09L150.329 112.545L153.126 111.101L151.321 107.672L142.116 112.455Z" fill="#FFD200"/>
<path opacity="0.57" d="M142.116 112.455L143.921 115.884L146.718 114.44L153.217 127.076L156.917 125.09L150.329 112.545L153.126 111.101L151.321 107.672L142.116 112.455Z" fill="white"/>
<path opacity="0.08" d="M126.682 70.0363L146.989 110.018L149.336 108.755L136.61 76.3539L126.682 70.0363Z" fill="black"/>
<path d="M87.8737 150.632L111.52 182.13L105.563 185.199C105.563 185.199 86.4297 160.108 69.1914 154.874L87.8737 150.632Z" fill="#24285B"/>
<path d="M147.711 122.653C147.711 122.653 150.238 117.509 152.314 116.967C154.48 116.426 159.083 123.195 149.967 125.632L147.711 122.653Z" fill="#F4A28C"/>
<path d="M109.895 183.303C109.895 183.303 111.791 185.74 114.318 185.109C116.845 184.477 118.289 186.733 116.303 188.087C114.318 189.441 107.639 188.448 107.639 188.448L106.646 184.838L109.895 183.303Z" fill="#4561B5"/>
<path opacity="0.45" d="M156.285 34.6569H106.105V51.8049H156.285V34.6569Z" fill="#E6E6E6"/>
<path d="M113.866 45.4873C115.162 45.4873 116.213 44.4367 116.213 43.1408C116.213 41.8448 115.162 40.7942 113.866 40.7942C112.57 40.7942 111.52 41.8448 111.52 43.1408C111.52 44.4367 112.57 45.4873 113.866 45.4873Z" fill="#C9C9C9"/>
<path d="M121.899 45.4873C123.195 45.4873 124.246 44.4367 124.246 43.1408C124.246 41.8448 123.195 40.7942 121.899 40.7942C120.603 40.7942 119.552 41.8448 119.552 43.1408C119.552 44.4367 120.603 45.4873 121.899 45.4873Z" fill="#C9C9C9"/>
<path d="M130.292 45.4873C131.588 45.4873 132.639 44.4367 132.639 43.1408C132.639 41.8448 131.588 40.7942 130.292 40.7942C128.996 40.7942 127.946 41.8448 127.946 43.1408C127.946 44.4367 128.996 45.4873 130.292 45.4873Z" fill="#C9C9C9"/>
<path d="M138.415 45.4873C139.711 45.4873 140.762 44.4367 140.762 43.1408C140.762 41.8448 139.711 40.7942 138.415 40.7942C137.119 40.7942 136.069 41.8448 136.069 43.1408C136.069 44.4367 137.119 45.4873 138.415 45.4873Z" fill="#C9C9C9"/>
<path d="M147.079 45.4873C148.375 45.4873 149.426 44.4367 149.426 43.1408C149.426 41.8448 148.375 40.7942 147.079 40.7942C145.784 40.7942 144.733 41.8448 144.733 43.1408C144.733 44.4367 145.784 45.4873 147.079 45.4873Z" fill="#C9C9C9"/>
</svg>
