<svg width="251" height="201" viewBox="0 0 251 201" fill="none" xmlns="http://www.w3.org/2000/svg">
<path d="M196.71 41.7053C195.143 40.7653 194.594 38.7284 195.534 37.1616C195.613 37.005 195.769 36.8483 195.848 36.6916C200 32.0696 199.608 24.9407 194.908 20.7888C190.207 16.6368 183.157 17.0285 179.005 21.7288C174.853 26.3508 175.245 33.4797 179.945 37.6317L180.023 37.71C180.963 38.5718 181.042 40.1385 180.18 41.0786C180.023 41.2353 179.945 41.3136 179.788 41.4703L179.553 41.627C175.01 44.8389 172.111 49.8526 171.641 55.4147L168.116 99.0496H209.322L205.484 56.0414C205.014 50.0876 201.723 44.8389 196.71 41.7053Z" fill="#24285B"/>
<path opacity="0.13" d="M196.71 41.7053C195.143 40.7653 194.594 38.7284 195.534 37.1616C195.613 37.005 195.769 36.8483 195.848 36.6916C200 32.0696 199.608 24.9407 194.908 20.7888C190.207 16.6368 183.157 17.0285 179.005 21.7288C174.853 26.3508 175.245 33.4797 179.945 37.6317L180.023 37.71C180.963 38.5718 181.042 40.1385 180.18 41.0786C180.023 41.2353 179.945 41.3136 179.788 41.4703L179.553 41.627C175.01 44.8389 172.111 49.8526 171.641 55.4147L168.116 99.0496H209.322L205.484 56.0414C205.014 50.0876 201.723 44.8389 196.71 41.7053Z" fill="white"/>
<path d="M187.387 0.655518H184.175V31.4428H187.387V0.655518Z" fill="#E13B31"/>
<path opacity="0.3" d="M125.343 200.655C194.567 200.655 250.685 194.237 250.685 186.319C250.685 178.402 194.567 171.983 125.343 171.983C56.1178 171.983 0 178.402 0 186.319C0 194.237 56.1178 200.655 125.343 200.655Z" fill="#E6E6E6"/>
<path d="M222.248 114.09H44.1833V186.319H222.248V114.09Z" fill="#C9C9C9"/>
<path d="M205.797 114.09H27.7321V186.319H205.797V114.09Z" fill="#E6E6E6"/>
<path opacity="0.08" d="M39.718 114.091C39.718 114.091 61.6529 143.311 45.28 186.319L101.058 186.241L100.117 162.582L84.3713 119.496L59.3811 114.012H39.718V114.091Z" fill="black"/>
<path d="M108.656 101.243H83.1962V107.432H108.656V101.243Z" fill="#E13B31"/>
<path d="M118.919 107.51H83.1962V113.699H118.919V107.51Z" fill="#E13B31"/>
<path opacity="0.08" d="M118.919 107.51H83.1962V113.699H118.919V107.51Z" fill="black"/>
<path opacity="0.58" d="M40.423 106.413C40.423 106.413 34.4692 104.768 33.2158 99.2842C33.2158 99.2842 42.4598 97.404 42.6948 106.961L40.423 106.413Z" fill="#4561B5"/>
<path opacity="0.73" d="M41.128 105.787C41.128 105.787 36.976 99.2062 40.658 93.0957C40.658 93.0957 47.6302 97.561 44.5749 105.787H41.128Z" fill="#4561B5"/>
<path d="M42.2248 105.787C42.2248 105.787 44.4183 98.893 51.0771 97.5613C51.0771 97.5613 52.3306 102.105 46.7685 105.865L42.2248 105.787Z" fill="#4561B5"/>
<path d="M37.9162 105.708L39.0913 113.934H46.6902L47.7869 105.708H37.9162Z" fill="#24285B"/>
<path d="M192.793 41.7053C191.226 40.7653 190.677 38.7284 191.618 37.1616C191.696 37.005 191.853 36.8483 191.931 36.6916C196.083 32.0696 195.691 24.9407 190.991 20.7888C186.29 16.6368 179.24 17.0285 175.088 21.7288C170.936 26.3508 171.328 33.4797 176.028 37.6317L176.106 37.71C177.046 38.5718 177.125 40.1385 176.263 41.0786C176.106 41.2353 176.028 41.3136 175.871 41.4703L175.636 41.627C171.093 44.8389 168.194 49.8526 167.724 55.4147L164.199 99.0496H205.405L201.567 56.0414C201.097 50.0876 197.806 44.8389 192.793 41.7053Z" fill="#24285B"/>
<path d="M184.88 74.7642C190.808 74.7642 195.613 68.942 195.613 61.7599C195.613 54.5778 190.808 48.7556 184.88 48.7556C178.953 48.7556 174.148 54.5778 174.148 61.7599C174.148 68.942 178.953 74.7642 184.88 74.7642Z" fill="white"/>
<path d="M184.88 71.3174C189.207 71.3174 192.714 67.0384 192.714 61.76C192.714 56.4816 189.207 52.2026 184.88 52.2026C180.554 52.2026 177.046 56.4816 177.046 61.76C177.046 67.0384 180.554 71.3174 184.88 71.3174Z" fill="#24285B"/>
<path d="M184.88 67.8703C187.693 67.8703 189.972 65.1346 189.972 61.7599C189.972 58.3852 187.693 55.6494 184.88 55.6494C182.068 55.6494 179.788 58.3852 179.788 61.7599C179.788 65.1346 182.068 67.8703 184.88 67.8703Z" fill="white"/>
<path d="M184.88 65.0505C186.395 65.0505 187.622 63.5774 187.622 61.7602C187.622 59.9431 186.395 58.47 184.88 58.47C183.366 58.47 182.139 59.9431 182.139 61.7602C182.139 63.5774 183.366 65.0505 184.88 65.0505Z" fill="#24285B"/>
<path d="M184.88 62.8568C185.4 62.8568 185.82 62.3658 185.82 61.7601C185.82 61.1544 185.4 60.6633 184.88 60.6633C184.361 60.6633 183.94 61.1544 183.94 61.7601C183.94 62.3658 184.361 62.8568 184.88 62.8568Z" fill="#E13B31"/>
<path d="M193.419 80.9529H175.323V90.2752H193.419V80.9529Z" fill="#E13B31"/>
</svg>
