<svg width="189" height="201" viewBox="0 0 189 201" fill="none" xmlns="http://www.w3.org/2000/svg">
<path d="M78.3696 60.6832C78.3696 60.6832 101.556 57.2734 138.212 8.25757L151.084 110.211C151.084 110.211 111.615 85.1486 84.6778 95.1222C84.6778 95.1222 70.1009 79.5224 78.3696 60.6832Z" fill="#4561B5"/>
<path d="M159.239 110.619C175.211 108.999 185.729 83.7264 182.732 54.1707C179.734 24.6151 164.356 1.96861 148.384 3.58847C132.412 5.20833 121.894 30.4811 124.891 60.0367C127.889 89.5924 143.267 112.239 159.239 110.619Z" fill="#24285B"/>
<path d="M56.6321 97.9356C56.6321 97.9356 53.9043 111.319 67.2025 113.45C80.5007 115.667 96.0153 149.594 96.0153 149.594L112.468 139.535C112.468 139.535 84.1663 101.431 92.6908 93.1619L56.6321 97.9356Z" fill="#4561B5"/>
<path opacity="0.46" d="M56.6321 97.9356C56.6321 97.9356 53.9043 111.319 67.2025 113.45C80.5007 115.667 96.0153 149.594 96.0153 149.594L112.468 139.535C112.468 139.535 84.1663 101.431 92.6908 93.1619L56.6321 97.9356Z" fill="white"/>
<path d="M129.858 83.6141L155.857 74.9191L152.788 44.4014L124.317 46.2768C124.317 46.2768 122.1 63.07 129.858 83.6141Z" fill="#4561B5"/>
<path opacity="0.18" d="M129.858 83.6141L155.857 74.9191L152.788 44.4014L124.317 46.2768C124.317 46.2768 122.1 63.07 129.858 83.6141Z" fill="black"/>
<path d="M155.872 74.9249C160.415 74.4641 163.405 67.2558 162.55 58.8247C161.695 50.3937 157.319 43.9324 152.775 44.3932C148.232 44.854 145.242 52.0623 146.097 60.4934C146.952 68.9245 151.328 75.3857 155.872 74.9249Z" fill="#4561B5"/>
<path d="M81.0975 60.0012C81.0975 60.0012 42.7372 69.1224 40.6061 77.2207C38.475 85.319 45.2094 103.647 54.7568 103.306C64.3042 102.965 83.9958 94.3549 83.9958 94.3549C83.9958 94.3549 74.1926 75.6011 81.0975 60.0012Z" fill="#24285B"/>
<path d="M7.53101 184.033L67.2877 135.869L85.7859 150.702L54.3305 198.865L7.53101 184.033Z" fill="#F4A28C"/>
<path d="M95.5038 108.761C100.533 108.335 105.307 111.233 107.182 115.922C110.592 124.105 110.507 129.476 101.471 132.459C92.435 135.443 90.3039 111.404 90.3039 111.404L95.5038 108.761Z" fill="#D68676"/>
<path d="M87.0646 93.9287L94.3956 109.699L102.153 105.351C104.028 104.329 104.881 101.942 104.028 99.9811L101.045 92.9057C101.045 92.8205 92.6907 91.4566 87.0646 93.9287Z" fill="#24285B"/>
<path d="M65.7534 139.449C65.7534 139.449 68.5664 113.109 78.0286 109.955C87.4908 106.801 99.1694 113.364 93.5432 120.44C87.9171 127.515 80.927 119.758 80.927 119.758L91.9236 141.666L85.7859 150.702L65.7534 139.449Z" fill="#F4A28C"/>
<path d="M92.5203 98.3615C93.7989 97.4238 95.4186 97.4238 96.6973 98.3615C98.1464 99.3844 99.7661 101.175 99.0841 103.732C97.8907 108.079 90.3039 113.876 87.1498 111.489C84.5072 109.529 88.258 101.43 92.5203 98.3615Z" fill="#F4A28C"/>
<path d="M0.881897 182.328L56.4616 200.655L83.9958 160.249L54.842 139.705L0.881897 182.328Z" fill="#FFD200"/>
<path opacity="0.06" d="M73.8516 153.089L34.3832 193.324L56.4616 200.655L83.9958 160.249L73.8516 153.089Z" fill="black"/>
</svg>
