<svg width="59" height="59" viewBox="0 0 59 59" fill="none" xmlns="http://www.w3.org/2000/svg">
<path d="M29.4131 58.6672C45.4015 58.6672 58.3626 45.706 58.3626 29.7176C58.3626 13.7292 45.4015 0.768066 29.4131 0.768066C13.4247 0.768066 0.463501 13.7292 0.463501 29.7176C0.463501 45.706 13.4247 58.6672 29.4131 58.6672Z" fill="#24285B"/>
<path d="M44.8118 17.5012H13.6038V42.3445H44.8118V17.5012Z" fill="#4764BA"/>
<path opacity="0.85" d="M13.6038 42.3446L23.5616 25.406L29.2078 36.3904L35.2646 27.7671L44.8118 42.3446H13.6038Z" fill="white"/>
<path d="M29.9263 26.9459C31.1736 26.9459 32.1848 25.9348 32.1848 24.6874C32.1848 23.4401 31.1736 22.429 29.9263 22.429C28.679 22.429 27.6678 23.4401 27.6678 24.6874C27.6678 25.9348 28.679 26.9459 29.9263 26.9459Z" fill="white"/>
</svg>
