<svg width="282" height="200" viewBox="0 0 282 200" fill="none" xmlns="http://www.w3.org/2000/svg">
<path d="M281.169 0H0.224854V199.663H281.169V0Z" fill="#E6E6E6"/>
<path d="M228.555 25.9699C231.349 25.9699 233.614 23.7048 233.614 20.9108C233.614 18.1168 231.349 15.8518 228.555 15.8518C225.761 15.8518 223.496 18.1168 223.496 20.9108C223.496 23.7048 225.761 25.9699 228.555 25.9699Z" fill="#24285B"/>
<path d="M243.732 25.8573C246.526 25.8573 248.791 23.5923 248.791 20.7983C248.791 18.0043 246.526 15.7393 243.732 15.7393C240.938 15.7393 238.673 18.0043 238.673 20.7983C238.673 23.5923 240.938 25.8573 243.732 25.8573Z" fill="#4561B5"/>
<path d="M258.01 25.8573C260.804 25.8573 263.069 23.5923 263.069 20.7983C263.069 18.0043 260.804 15.7393 258.01 15.7393C255.216 15.7393 252.951 18.0043 252.951 20.7983C252.951 23.5923 255.216 25.8573 258.01 25.8573Z" fill="#FFD200"/>
<path d="M280.72 38.2239H0V200H280.72V38.2239Z" fill="#F2F2F2"/>
<path d="M210.793 15.4019H46.6554V25.6323H210.793V15.4019Z" fill="white"/>
<path d="M210.905 15.4019H193.479V25.6323H210.905V15.4019Z" fill="#C9C9C9"/>
<path d="M27.7684 13.1536H29.5672V10.0057C28.6678 9.89331 27.8808 9.89331 26.9814 9.89331C24.3957 9.89331 22.5969 11.5797 22.5969 14.5026V17.3132H19.7864V20.7983H22.5969V29.5673H26.082V20.7983H28.7802L29.2299 17.3132H26.082V14.8399C26.082 13.8281 26.3069 13.1536 27.7684 13.1536Z" fill="#A5A5A5"/>
<path d="M73.6369 60.5957H19.674V111.186H73.6369V60.5957Z" fill="#24285B"/>
<path d="M49.5785 78.1342C50.7027 80.2702 51.4896 82.6311 52.0518 84.9919C52.1642 86.2286 51.3772 87.3528 50.1406 87.4652C48.2294 87.8025 46.3182 87.128 45.194 85.5541L42.4958 82.5186C41.5964 81.1696 41.5964 79.3708 42.4958 78.0217C44.1822 75.436 48.4542 75.6609 49.5785 78.1342Z" fill="#F4A28C"/>
<path d="M43.8448 81.3938L43.2827 95.7839L51.1523 95.5591L48.4542 85.2162L43.8448 81.3938Z" fill="#F4A28C"/>
<path d="M46.6555 83.4175C46.6555 83.4175 45.9809 81.8436 44.8567 82.5181C43.7325 83.1927 44.6318 85.3287 46.3182 84.879L46.6555 83.4175Z" fill="#F4A28C"/>
<path d="M50.7026 80.7192L52.5014 81.8435C52.8387 82.0683 52.9511 82.518 52.7262 82.8553C52.7262 82.9677 52.6138 82.9677 52.5014 83.0801L51.0399 83.9795L50.7026 80.7192Z" fill="#F4A28C"/>
<path opacity="0.31" d="M49.1287 87.5772C48.1169 87.4648 47.2175 87.0151 46.4305 86.3406C46.9927 88.3642 48.2293 90.0505 50.0281 91.1747L49.1287 87.5772Z" fill="#CE8172"/>
<path d="M43.5076 85.3288L40.4722 80.045C40.4722 80.045 37.6616 79.1456 38.8983 76.8971C40.1349 74.6487 41.9337 75.6605 42.7206 72.7375C42.9455 71.276 44.1821 70.2642 45.6436 70.489C46.3182 70.6015 46.9927 70.9387 47.4424 71.6133C48.4542 73.1872 52.1641 71.5008 52.0517 74.199C51.9393 76.8971 48.5666 78.0214 47.5548 78.3586C43.2827 79.7077 48.5666 84.317 43.5076 85.3288Z" fill="#FFD200"/>
<path d="M19.674 111.299C19.674 111.299 23.3839 97.1334 43.1703 95.7843L51.1523 95.5595C51.1523 95.5595 71.7257 94.9974 73.6369 111.299H19.674Z" fill="#4561B5"/>
<path d="M38.561 96.3465C38.561 96.3465 36.8746 92.7489 43.3952 91.962C49.9157 91.175 56.3238 88.9266 55.9865 95.8968C55.9865 95.8968 49.9157 101.855 38.561 96.3465Z" fill="#4561B5"/>
<path opacity="0.46" d="M38.561 96.3465C38.561 96.3465 36.8746 92.7489 43.3952 91.962C49.9157 91.175 56.3238 88.9266 55.9865 95.8968C55.9865 95.8968 49.9157 101.855 38.561 96.3465Z" fill="white"/>
<path d="M24.733 161.893C27.4649 161.893 29.6796 159.679 29.6796 156.947C29.6796 154.215 27.4649 152 24.733 152C22.001 152 19.7864 154.215 19.7864 156.947C19.7864 159.679 22.001 161.893 24.733 161.893Z" fill="#A5A5A5"/>
<path d="M39.0106 154.361H67.6784C69.2524 154.361 70.489 155.598 70.489 157.172C70.489 158.746 69.2524 159.982 67.6784 159.982H39.0106C37.4367 159.982 36.2001 158.746 36.2001 157.172C36.2001 155.598 37.4367 154.361 39.0106 154.361Z" fill="#C9C9C9"/>
<path d="M24.733 177.857C27.4649 177.857 29.6796 175.642 29.6796 172.91C29.6796 170.179 27.4649 167.964 24.733 167.964C22.001 167.964 19.7864 170.179 19.7864 172.91C19.7864 175.642 22.001 177.857 24.733 177.857Z" fill="#A5A5A5"/>
<path d="M39.0106 170.324H67.6784C69.2524 170.324 70.489 171.561 70.489 173.135C70.489 174.709 69.2524 175.946 67.6784 175.946H39.0106C37.4367 175.946 36.2001 174.709 36.2001 173.135C36.2001 171.561 37.4367 170.324 39.0106 170.324Z" fill="#C9C9C9"/>
<path d="M24.733 193.709C27.4649 193.709 29.6796 191.494 29.6796 188.762C29.6796 186.03 27.4649 183.815 24.733 183.815C22.001 183.815 19.7864 186.03 19.7864 188.762C19.7864 191.494 22.001 193.709 24.733 193.709Z" fill="#A5A5A5"/>
<path d="M39.0106 186.177H67.6784C69.2524 186.177 70.489 187.413 70.489 188.987C70.489 190.561 69.2524 191.798 67.6784 191.798H39.0106C37.4367 191.798 36.2001 190.561 36.2001 188.987C36.2001 187.413 37.4367 186.177 39.0106 186.177Z" fill="#C9C9C9"/>
<path d="M203.598 60.5957H85.104V94.7722H203.598V60.5957Z" fill="white"/>
<path d="M203.598 103.991H85.104V138.168H203.598V103.991Z" fill="white"/>
<path d="M196.515 82.2937H176.729V90.9503H196.515V82.2937Z" fill="#4561B5"/>
<path d="M196.515 124.789H176.729V133.446H196.515V124.789Z" fill="#4561B5"/>
<path opacity="0.28" d="M196.515 66.8916H92.6364V70.4891H196.515V66.8916Z" fill="#C9C9C9"/>
<path opacity="0.28" d="M196.515 74.0864H92.6364V77.6839H196.515V74.0864Z" fill="#C9C9C9"/>
<path opacity="0.28" d="M196.515 109.837H92.6364V113.435H196.515V109.837Z" fill="#C9C9C9"/>
<path opacity="0.28" d="M196.515 117.145H92.6364V120.742H196.515V117.145Z" fill="#C9C9C9"/>
</svg>
