<svg width="56" height="56" viewBox="0 0 56 56" fill="none" xmlns="http://www.w3.org/2000/svg">
<path d="M27.7076 55.4152C43.0101 55.4152 55.4152 43.0101 55.4152 27.7076C55.4152 12.4051 43.0101 0 27.7076 0C12.4051 0 0 12.4051 0 27.7076C0 43.0101 12.4051 55.4152 27.7076 55.4152Z" fill="#24285B"/>
<path d="M40.5235 22.2924C39.1697 15.1624 32.3105 10.5595 25.1806 11.9133C18.0506 13.2671 13.4477 20.1263 14.8015 27.2563C15.6138 31.4079 18.3213 34.9277 22.112 36.6426L23.6463 44.675L27.4369 43.953L26.2636 37.8158C26.8954 37.9061 27.5271 37.9061 28.1589 37.9061L29.2419 43.592L33.0325 42.87L31.9495 37.1841C32.5813 36.9133 33.3033 36.6425 33.9351 36.2815L35.1084 42.509L38.899 41.787L37.3647 33.574C40.1625 30.5054 41.3358 26.3537 40.5235 22.2924ZM23.195 30.7761C21.0289 31.2274 18.8629 29.5126 18.3213 26.9855C17.8701 24.4584 19.2239 22.1119 21.3899 21.6606C23.556 21.2093 25.7221 22.9241 26.2636 25.4512C26.8051 27.9783 25.4513 30.3249 23.195 30.7761ZM33.7546 28.7003C31.5885 29.1516 29.4224 27.4368 28.8809 24.9097C28.3394 22.3826 29.7834 20.036 31.9495 19.5848C34.1156 19.1335 36.2816 20.8483 36.8232 23.3754C37.3647 25.9025 36.0109 28.3393 33.7546 28.7003Z" fill="#F8F8F8"/>
</svg>
