<svg width="55" height="50" viewBox="0 0 55 50" fill="none" xmlns="http://www.w3.org/2000/svg">
<path d="M54.525 0H0V49.2411H54.525V0Z" fill="#4561B5"/>
<path d="M22.5969 29.0045H20.4609L19.5615 26.7561H15.7392L14.9522 29.0045H12.9286L16.6385 19.3362H18.6622L22.5969 29.0045ZM18.9994 25.1822L17.6503 21.5846L16.3013 25.1822H18.9994Z" fill="#24285B"/>
<path d="M23.6088 19.3362H27.2063C27.9932 19.3362 28.6678 19.4486 29.0051 19.561C29.5672 19.6735 30.0169 20.0107 30.4666 20.4604C30.9162 20.9101 31.1411 21.3598 31.3659 22.0343C31.5908 22.7089 31.7032 23.3834 31.7032 24.2828C31.7032 25.0697 31.5908 25.7443 31.3659 26.3064C31.1411 26.9809 30.8038 27.543 30.3541 27.9927C30.0169 28.33 29.5672 28.5548 29.0051 28.7797C28.5554 28.8921 27.9933 29.0045 27.3187 29.0045H23.6088V19.3362ZM25.5199 20.9101V27.3182H26.9814C27.5436 27.3182 27.8808 27.3182 28.1057 27.2058C28.4429 27.0933 28.6678 26.9809 28.8926 26.7561C29.1175 26.5312 29.2299 26.3064 29.4547 25.8567C29.6796 25.407 29.6796 24.8449 29.6796 24.0579C29.6796 23.271 29.5672 22.7089 29.4547 22.3716C29.3423 22.0343 29.1175 21.6971 28.8926 21.4722C28.6678 21.2474 28.3305 21.1349 27.9933 21.0225C27.7684 20.9101 27.2063 20.9101 26.4193 20.9101H25.5199Z" fill="#24285B"/>
<path d="M32.8274 25.8569L34.7386 25.6321C34.851 26.3066 35.0759 26.7563 35.4131 26.9812C35.7504 27.206 36.2001 27.4309 36.8746 27.4309C37.5492 27.4309 37.9988 27.3184 38.3361 26.9812C38.6734 26.6439 38.7858 26.419 38.7858 26.0818C38.7858 25.8569 38.6734 25.6321 38.561 25.5197C38.4485 25.4072 38.2237 25.1824 37.8864 25.07C37.6616 24.9575 37.0995 24.8451 36.3125 24.6203C35.3007 24.3954 34.5137 24.0582 34.064 23.7209C33.5019 23.1588 33.1647 22.5967 33.1647 21.8097C33.1647 21.36 33.2771 20.9103 33.6144 20.4606C33.9516 20.011 34.2889 19.6737 34.851 19.4488C35.4131 19.224 35.9752 19.1116 36.7622 19.1116C37.9988 19.1116 38.8982 19.3364 39.4603 19.8985C40.0225 20.4606 40.3597 21.1352 40.4721 22.0346L38.561 22.147C38.4485 21.6973 38.3361 21.2476 37.9988 21.0228C37.6616 20.7979 37.3243 20.6855 36.7622 20.6855C36.2001 20.6855 35.7504 20.7979 35.4131 21.0228C35.1883 21.1352 35.0758 21.36 35.0758 21.5849C35.0758 21.8097 35.1883 22.0346 35.4131 22.147C35.638 22.3718 36.3125 22.5967 37.2119 22.8215C38.1113 23.0464 38.8982 23.2712 39.3479 23.4961C39.7976 23.7209 40.1349 24.0582 40.3597 24.5079C40.5846 24.9575 40.697 25.4072 40.697 26.0818C40.697 26.6439 40.5846 27.206 40.2473 27.6557C39.91 28.1054 39.4603 28.4427 38.8982 28.7799C38.3361 29.1172 37.6616 29.1172 36.7622 29.1172C35.5255 29.1172 34.6262 28.7799 33.9516 28.2178C33.2771 27.6557 32.9398 26.8687 32.8274 25.8569Z" fill="#24285B"/>
</svg>
