<svg width="111" height="143" viewBox="0 0 111 143" fill="none" xmlns="http://www.w3.org/2000/svg">
<path d="M10.9722 70.5337H80.3464C86.1744 70.5337 90.9231 75.2392 90.9231 81.0672V99.1554C90.9231 104.983 86.2175 109.689 80.3464 109.689H10.9722C5.14421 109.689 0.395508 104.983 0.395508 99.1554V81.1103C0.438678 75.2824 5.14421 70.5337 10.9722 70.5337Z" fill="white"/>
<path d="M40.3709 118.366H83.6704C87.2967 118.366 90.2323 121.302 90.2323 124.928V136.238C90.2323 139.865 87.2967 142.8 83.6704 142.8H40.3709C36.7446 142.8 33.8091 139.865 33.8091 136.238V124.928C33.8091 121.302 36.7446 118.366 40.3709 118.366Z" fill="white"/>
<path d="M60.5618 0H103.861C107.488 0 110.423 2.93556 110.423 6.56184V17.8724C110.423 21.4987 107.488 24.4342 103.861 24.4342H60.5618C56.9356 24.4342 54 21.4987 54 17.8724V6.60501C54 2.97873 56.9356 0 60.5618 0Z" fill="white"/>
<path opacity="0.11" d="M13.6918 77.3113H78.5764C79.3534 77.3113 79.9578 77.9588 79.9578 78.6927C79.9578 79.4698 79.3103 80.0742 78.5764 80.0742H13.6918C12.9148 80.0742 12.3104 79.4266 12.3104 78.6927C12.2672 77.9157 12.9148 77.3113 13.6918 77.3113Z" fill="#4D61B4"/>
<path opacity="0.11" d="M13.6918 86.9812H78.5764C79.3534 86.9812 79.9578 87.6288 79.9578 88.3626C79.9578 89.1397 79.3103 89.7441 78.5764 89.7441H13.6918C12.9148 89.7441 12.3104 89.0965 12.3104 88.3626C12.2672 87.5856 12.9148 86.9812 13.6918 86.9812Z" fill="#4D61B4"/>
<path opacity="0.11" d="M43.0043 123.762H82.5912C83.1955 123.762 83.7136 124.237 83.7136 124.885V125.489C83.7136 126.093 83.2387 126.611 82.5912 126.611H43.0043C42.3999 126.611 41.8818 126.137 41.8818 125.489V124.885C41.925 124.28 42.3999 123.762 43.0043 123.762Z" fill="#4D61B4"/>
<path opacity="0.11" d="M43.0043 133.432H82.5912C83.1955 133.432 83.7136 133.907 83.7136 134.555V135.159C83.7136 135.763 83.2387 136.281 82.5912 136.281H43.0043C42.3999 136.281 41.8818 135.806 41.8818 135.159V134.555C41.925 133.95 42.3999 133.432 43.0043 133.432Z" fill="#4D61B4"/>
<path opacity="0.11" d="M62.5909 5.52588H102.178C102.782 5.52588 103.3 6.00075 103.3 6.6483V7.25268C103.3 7.85706 102.825 8.3751 102.178 8.3751H62.5909C61.9865 8.3751 61.4685 7.90023 61.4685 7.25268V6.6483C61.4685 6.04392 61.9434 5.52588 62.5909 5.52588Z" fill="#4D61B4"/>
<path opacity="0.11" d="M62.5909 15.196H102.178C102.782 15.196 103.3 15.6709 103.3 16.3185V16.9228C103.3 17.5272 102.825 18.0453 102.178 18.0453H62.5909C61.9865 18.0453 61.4685 17.5704 61.4685 16.9228V16.3185C61.4685 15.7141 61.9434 15.196 62.5909 15.196Z" fill="#4D61B4"/>
<path opacity="0.11" d="M13.6918 96.6516H78.5764C79.3534 96.6516 79.9578 97.2992 79.9578 98.0331C79.9578 98.8101 79.3103 99.4145 78.5764 99.4145H13.6918C12.9148 99.4145 12.3104 98.7669 12.3104 98.0331C12.2672 97.256 12.9148 96.6516 13.6918 96.6516Z" fill="#4D61B4"/>
</svg>
