<svg width="202" height="147" viewBox="0 0 202 147" fill="none" xmlns="http://www.w3.org/2000/svg">
<path d="M200.659 -5.92589e-05L0.00268555 0.490234L0.358902 146.275L201.015 145.784L200.659 -5.92589e-05Z" fill="#F2F2F2"/>
<path d="M200.746 0.424927H0V28.897H200.746V0.424927Z" fill="#E6E6E6"/>
<path d="M163.264 18.6254C165.255 18.6254 166.868 17.0118 166.868 15.0213C166.868 13.0308 165.255 11.4172 163.264 11.4172C161.274 11.4172 159.66 13.0308 159.66 15.0213C159.66 17.0118 161.274 18.6254 163.264 18.6254Z" fill="#24285B"/>
<path d="M174.167 18.6254C176.157 18.6254 177.771 17.0118 177.771 15.0213C177.771 13.0308 176.157 11.4172 174.167 11.4172C172.176 11.4172 170.562 13.0308 170.562 15.0213C170.562 17.0118 172.176 18.6254 174.167 18.6254Z" fill="#4764BA"/>
<path d="M184.348 18.5354C186.338 18.5354 187.952 16.9218 187.952 14.9313C187.952 12.9409 186.338 11.3273 184.348 11.3273C182.357 11.3273 180.744 12.9409 180.744 14.9313C180.744 16.9218 182.357 18.5354 184.348 18.5354Z" fill="#FFD200"/>
<path d="M152.542 11.3273H42.9785V18.6255H152.542V11.3273Z" fill="white"/>
<path d="M152.542 11.3273H140.919V18.6255H152.542V11.3273Z" fill="#C9C9C9"/>
<path d="M162.093 69.623H44.4202V88.0939H162.093V69.623Z" fill="white"/>
<path d="M162.093 69.623H135.963V88.0939H162.093V69.623Z" fill="#4764BA"/>
<path d="M128.485 44.3945H73.5229V54.6661H128.485V44.3945Z" fill="#A5A5A5"/>
<path d="M124.43 119.99H79.74V126.567H124.43V119.99Z" fill="#C9C9C9"/>
<path opacity="0.39" d="M116.321 109.088H87.8491V115.665H116.321V109.088Z" fill="#C9C9C9"/>
<path d="M56.9702 78.4986L58.6491 78.3354C58.7501 78.8989 58.9541 79.3127 59.2611 79.577C59.572 79.8413 59.9898 79.9734 60.5144 79.9734C61.0702 79.9734 61.4879 79.8568 61.7677 79.6236C62.0514 79.3866 62.1933 79.1107 62.1933 78.7959C62.1933 78.5938 62.1331 78.4228 62.0126 78.2829C61.896 78.1391 61.69 78.0147 61.3947 77.9098C61.1926 77.8399 60.7321 77.7155 60.0131 77.5367C59.0882 77.3075 58.4392 77.0257 58.0661 76.6915C57.5415 76.2213 57.2792 75.648 57.2792 74.9718C57.2792 74.5366 57.4016 74.1305 57.6464 73.7535C57.8951 73.3727 58.2507 73.0831 58.7132 72.8849C59.1795 72.6867 59.7411 72.5876 60.3979 72.5876C61.4705 72.5876 62.2768 72.8228 62.817 73.293C63.3611 73.7632 63.6467 74.3909 63.6739 75.1759L61.9485 75.2516C61.8746 74.8125 61.7153 74.4977 61.4705 74.3073C61.2295 74.113 60.8661 74.0158 60.3804 74.0158C59.879 74.0158 59.4865 74.1188 59.2028 74.3248C59.0202 74.4569 58.9289 74.6337 58.9289 74.8553C58.9289 75.0573 59.0144 75.2303 59.1854 75.3741C59.403 75.5567 59.9315 75.7471 60.7709 75.9453C61.6104 76.1435 62.2302 76.3495 62.6305 76.5632C63.0347 76.7731 63.3494 77.0626 63.5748 77.4318C63.8041 77.7971 63.9188 78.2499 63.9188 78.79C63.9188 79.2797 63.7828 79.7383 63.5107 80.1658C63.2387 80.5933 62.8539 80.9119 62.3565 81.1218C61.8591 81.3277 61.2392 81.4307 60.497 81.4307C59.4166 81.4307 58.5869 81.182 58.0078 80.6846C57.4288 80.1833 57.0829 79.4546 56.9702 78.4986Z" fill="#24285B"/>
<path d="M64.9219 81.2792V72.7334H71.2584V74.1791H66.6474V76.0736H70.9377V77.5134H66.6474V79.8393H71.4216V81.2792H64.9219Z" fill="#24285B"/>
<path d="M71.2217 77.0587C71.2217 76.1882 71.3519 75.4576 71.6122 74.8669C71.8066 74.4317 72.0708 74.0411 72.405 73.6952C72.7431 73.3493 73.1123 73.0929 73.5126 72.9257C74.045 72.7003 74.659 72.5876 75.3547 72.5876C76.6138 72.5876 77.6203 72.9782 78.3743 73.7593C79.1321 74.5405 79.511 75.6267 79.511 77.0179C79.511 78.3975 79.136 79.4779 78.3859 80.259C77.6359 81.0363 76.6332 81.4249 75.378 81.4249C74.1072 81.4249 73.0968 81.0382 72.3467 80.2649C71.5967 79.4876 71.2217 78.4189 71.2217 77.0587ZM72.9996 77.0004C72.9996 77.9681 73.2231 78.7026 73.67 79.2039C74.1169 79.7014 74.6843 79.9501 75.3722 79.9501C76.06 79.9501 76.6235 79.7033 77.0627 79.2098C77.5057 78.7123 77.7272 77.9681 77.7272 76.9771C77.7272 75.9978 77.5115 75.2672 77.0802 74.7853C76.6527 74.3034 76.0833 74.0625 75.3722 74.0625C74.661 74.0625 74.0878 74.3073 73.6525 74.797C73.2173 75.2827 72.9996 76.0172 72.9996 77.0004Z" fill="#24285B"/>
<path d="M150.56 80.3449C152.252 80.3449 153.623 78.9734 153.623 77.2815C153.623 75.5896 152.252 74.218 150.56 74.218C148.868 74.218 147.496 75.5896 147.496 77.2815C147.496 78.9734 148.868 80.3449 150.56 80.3449Z" stroke="white" stroke-miterlimit="10"/>
<path d="M149.118 79.8945L147.046 83.4986" stroke="white" stroke-miterlimit="10"/>
<path d="M34.0585 11.4172H14.0559V18.7155H34.0585V11.4172Z" fill="#24285B"/>
</svg>
