<svg width="142" height="152" viewBox="0 0 142 152" fill="none" xmlns="http://www.w3.org/2000/svg">
<path d="M141.205 0H29V131.733H141.205V0Z" fill="#E6E6E6"/>
<path d="M74.1381 15.6864H41.5651V60.3443H74.1381V15.6864Z" fill="#C9C9C9"/>
<path d="M48.5794 124H0V151.851H48.5794V124Z" fill="#FFD200"/>
<path d="M17.7671 144.808C17.527 144.808 17.2869 144.728 17.0468 144.568L9.84389 138.886C9.60379 138.646 9.44373 138.326 9.44373 138.006C9.44373 137.685 9.60379 137.365 9.84389 137.125L17.0468 131.363C17.527 130.963 18.2472 131.043 18.6474 131.523C19.0476 132.003 18.9675 132.723 18.4873 133.124L12.3249 138.006L18.4073 142.807C18.8875 143.208 18.9675 143.928 18.5674 144.408C18.4073 144.568 18.0872 144.728 17.7671 144.808Z" fill="#24285B"/>
<path d="M30.8123 144.808C30.4922 144.808 30.172 144.648 29.932 144.408C29.5318 143.928 29.6118 143.208 30.092 142.888L36.1744 138.086L30.012 133.204C29.5318 132.804 29.4518 132.083 29.8519 131.603C30.2521 131.123 30.9724 131.043 31.4526 131.443L38.6554 137.205C38.8955 137.445 39.0556 137.766 39.0556 138.086C39.0556 138.406 38.8955 138.726 38.6554 138.966L31.4526 144.648C31.2925 144.728 31.0524 144.808 30.8123 144.808Z" fill="#24285B"/>
<path d="M21.2885 144.808C21.1285 144.808 20.9684 144.808 20.8083 144.728C20.2481 144.488 20.008 143.768 20.2481 143.208L25.5302 131.683C25.7703 131.123 26.4106 130.883 26.9708 131.123C27.531 131.363 27.7711 132.003 27.531 132.564C27.531 132.564 27.531 132.564 27.531 132.644L22.2489 144.088C22.0888 144.488 21.6887 144.808 21.2885 144.808Z" fill="#24285B"/>
<path d="M57.8916 30.6523C60.3668 30.6523 62.3734 28.6457 62.3734 26.1705C62.3734 23.6953 60.3668 21.6887 57.8916 21.6887C55.4164 21.6887 53.4098 23.6953 53.4098 26.1705C53.4098 28.6457 55.4164 30.6523 57.8916 30.6523Z" fill="white"/>
<path opacity="0.56" d="M67.4955 36.3345H48.848V40.0159H67.4955V36.3345Z" fill="white"/>
<path opacity="0.19" d="M67.4955 44.7378H48.848V48.4193H67.4955V44.7378Z" fill="white"/>
<path opacity="0.46" d="M131.681 15.6864H85.1024V43.2974H131.681V15.6864Z" fill="white"/>
<path d="M131.681 51.1404H85.1024V60.3441H131.681V51.1404Z" fill="white"/>
<path d="M131.681 51.1404H118.156V60.3441H131.681V51.1404Z" fill="#C9C9C9"/>
</svg>
