<svg width="132" height="151" viewBox="0 0 132 151" fill="none" xmlns="http://www.w3.org/2000/svg">
<path d="M4.32495 126.763L49.9164 90.0012L67.3961 103.967L37.7526 149.378L4.32495 126.763Z" fill="#F4A28C"/>
<path d="M80.8368 51.5504L70.8455 79.0764L78.7221 81.9355L88.7135 54.4095L80.8368 51.5504Z" fill="#24285B"/>
<path d="M0 123.789L39.7348 151L65.6841 112.977L38.2031 93.5153L0 123.789Z" fill="#C5CEEC"/>
<path opacity="0.06" d="M56.1332 106.219L23.156 139.827L39.7347 151L65.6839 112.977L56.1332 106.219Z" fill="black"/>
<path opacity="0.06" d="M116.231 11.5227C116.231 11.5227 141.91 26.0291 126.413 54.8616C110.915 83.6941 103.977 60.8083 96.7692 97.1192H73.5229L84.4252 56.3032L96.6791 57.4745L110.284 52.609L117.943 40.3552V24.1369L116.231 11.5227Z" fill="black"/>
<path opacity="0.18" d="M80.8368 51.5504L70.8455 79.0764L78.7221 81.9355L88.7135 54.4095L80.8368 51.5504Z" fill="white"/>
<path d="M77.4874 65.8542L82.5331 67.6562C84.6955 68.4671 85.8669 70.8097 85.0559 73.0623L76.6765 96.0382C75.8656 98.2006 73.5229 99.3719 71.2704 98.561L66.2247 96.759C64.0623 95.9481 62.8909 93.6054 63.7019 91.3529L72.0813 68.377C72.8922 66.1245 75.325 65.0432 77.4874 65.8542Z" fill="#24285B"/>
<path d="M103.256 2.33231C87.7589 -3.34409 70.5495 4.76505 64.8731 20.2625C59.1967 35.8501 67.3058 53.0595 82.8033 58.7359C98.3909 64.4123 115.6 56.3032 121.277 40.8057C126.953 25.2181 118.844 8.00871 103.256 2.33231ZM85.4162 51.6179C73.7931 47.3831 67.7563 34.4986 71.9911 22.8755C76.2259 11.2524 89.1104 5.21556 100.734 9.45033C112.357 13.6851 118.393 26.5696 114.159 38.1927C109.924 49.8158 97.0393 55.8526 85.4162 51.6179Z" fill="#FFD200"/>
<path d="M49.9163 90.0013C49.9163 90.0013 58.6561 80.4505 65.684 73.6929C72.712 66.9353 74.7843 79.1891 83.5241 77.2969C92.264 75.4048 99.1117 108.112 67.396 103.967L49.9163 90.0013Z" fill="#F4A28C"/>
</svg>
