<svg width="104" height="90" viewBox="0 0 104 90" fill="none" xmlns="http://www.w3.org/2000/svg">
<path opacity="0.45" d="M51.9124 90C80.5828 90 103.825 86.6644 103.825 82.5498C103.825 78.4352 80.5828 75.0996 51.9124 75.0996C23.242 75.0996 0 78.4352 0 82.5498C0 86.6644 23.242 90 51.9124 90Z" fill="#E6E6E6"/>
<path d="M27.5299 24.1831L26.6933 25.3783C26.5339 25.6174 26.5738 25.8963 26.8128 26.0556C26.8526 26.0955 26.9323 26.1353 27.012 26.1353L28.1674 26.3743L27.5299 24.1831Z" fill="#F4A28C"/>
<path d="M91.1157 75.498H68.1675V81.5538H91.1157V75.498Z" fill="#E6E6E6"/>
<path opacity="0.43" d="M86.0957 69.6016H63.1475V75.6573H86.0957V69.6016Z" fill="#E6E6E6"/>
<path d="M74.6215 0H29.1633V81.5538H74.6215V0Z" fill="#C9C9C9"/>
<path d="M70.5976 9.28271H32.9482V66.6931H70.5976V9.28271Z" fill="white"/>
<path d="M27.3705 22.191C27.3705 22.191 27.4103 25.2588 28.1673 27.2508C28.4462 28.0476 29.3625 28.446 30.1594 28.1671C31.1554 27.7687 32.3904 26.9719 32.5498 25.3385L33.1872 22.5895C33.3068 21.4341 32.7092 20.3185 31.6733 19.8006C29.8008 18.6851 27.251 20.3185 27.3705 22.191Z" fill="#F4A28C"/>
<path opacity="0.08" d="M34.5817 18.0875C34.5817 18.0875 38.4861 16.0557 39.004 21.6333C39.5219 27.211 39.8805 31.1154 44.1434 31.8724C48.4064 32.6294 55.9761 28.3664 59.6414 34.4222C63.3068 40.478 66.6136 54.98 59.6414 57.8883L61.2749 66.6931H32.9482V57.8883L32.5498 25.9361L34.5817 18.0875Z" fill="black"/>
<path d="M32.7889 23.3066L37.9283 32.0716L32.9084 34.4222L31.2351 27.3305L32.7889 23.3066Z" fill="#F4A28C"/>
<path d="M33.6255 23.2669L33.8247 25.0996C32.9482 25.5378 31.8326 25.2988 31.235 24.5418C30.5976 23.745 30.4781 22.6693 30.9562 21.753C30.9562 21.753 30.6773 22.9083 29.6414 22.3506C28.6056 21.7928 27.9681 21.8725 28.0079 22.6295C28.0478 23.3864 26.733 23.4661 26.0558 22.0717C25.3785 20.6773 27.49 21.0358 26.7729 20.239C26.0558 19.4422 25.0996 18.9641 26.2948 18.0478C27.49 17.1315 27.49 18.8446 28.2868 17.8486C29.0836 16.8526 29.0836 15.8566 30.5577 16.1753C32.0318 16.494 31.235 18.0079 32.6295 17.5697C34.0239 17.1315 34.502 17.4103 34.8605 18.9641C35.0597 19.9601 35.2191 20.7171 34.7809 21.0358C33.984 21.4741 33.5458 22.3506 33.6255 23.2669Z" fill="#24285B"/>
<path d="M30.9164 24.4623C30.9164 24.4623 30.8368 23.2671 31.7132 23.2671C32.5897 23.2671 32.7491 24.9802 31.5937 25.2591L30.9164 24.4623Z" fill="#F4A28C"/>
<path d="M30.9162 35.7373C30.9162 35.7373 21.3943 42.2712 27.4102 55.4186L12.0317 54.7413V58.4465L35.8963 62.2313C35.8564 62.2313 38.1274 46.574 30.9162 35.7373Z" fill="#588A40"/>
<path opacity="0.2" d="M30.9162 35.7373C30.9162 35.7373 21.3943 42.2712 27.4102 55.4186L12.0317 54.7413V58.4465L35.8963 62.2313C35.8564 62.2313 38.1274 46.574 30.9162 35.7373Z" fill="white"/>
<path opacity="0.31" d="M31.2749 27.5301C31.8327 27.1317 32.2709 26.574 32.51 25.9365C32.51 25.9365 33.7849 27.7294 31.753 29.562L31.2749 27.5301Z" fill="#CE8172"/>
<path d="M37.9284 32.0718C37.9284 32.0718 50.7969 26.7331 51.8726 35.6973C52.9483 44.6614 54.3826 60.3985 54.3826 60.3985L37.0918 64.1036C37.0918 64.1036 20.5579 40.518 32.9085 34.4224L37.9284 32.0718Z" fill="#588A40"/>
<path opacity="0.08" d="M42.4303 34.8208C42.4303 34.8208 40.518 44.8606 46.6933 50.1993L37.1315 50.7969L32.51 56.2152L37.1315 64.1037L54.4622 60.3985L53.8248 53.6256L53.1873 45.0598L42.4303 34.8208Z" fill="black"/>
<path d="M29.7212 44.1831H38.4065L39.0041 56.215H30.279L29.7212 44.1831Z" fill="#FFD200"/>
<path d="M42.4302 36.2949C41.992 33.7849 43.6653 31.4343 46.1752 30.9961C47.0119 30.8367 47.8884 30.9562 48.6852 31.2749C50.3187 31.9522 51.7529 33.0279 52.7888 34.4622C56.6533 39.6016 62.3505 48.765 58.247 52.2311C54.1434 55.6973 41.1155 52.2311 41.1155 52.2311V49.0439L50.7968 48.1275C50.7968 48.0877 43.7051 43.267 42.4302 36.2949Z" fill="#588A40"/>
<path opacity="0.08" d="M35.8168 50.1992C35.8168 50.1992 34.4224 54.8207 30.1196 52.8685L30.279 56.255H39.0041L38.8049 51.9124L35.8168 50.1992Z" fill="black"/>
<path opacity="0.2" d="M42.4302 36.2949C41.992 33.7849 43.6653 31.4343 46.1752 30.9961C47.0119 30.8367 47.8884 30.9562 48.6852 31.2749C50.3187 31.9522 51.7529 33.0279 52.7888 34.4622C56.6533 39.6016 62.3505 48.765 58.247 52.2311C54.1434 55.6973 41.1155 52.2311 41.1155 52.2311V49.0439L50.7968 48.1275C50.7968 48.0877 43.7051 43.267 42.4302 36.2949Z" fill="white"/>
<path d="M41.0758 49.0041C39.8009 48.8846 38.526 48.8447 37.2511 48.9643C36.2551 49.0439 35.5379 49.9204 35.6176 50.9164C35.6176 51.1555 35.6973 51.3547 35.777 51.5539L35.8168 51.5937C36.1754 52.3109 37.012 52.6296 37.769 52.271C37.769 52.271 37.8088 52.271 37.8088 52.2312C38.8049 51.6734 40.0399 51.6336 41.0758 52.1913V49.0041Z" fill="#F4A28C"/>
<path d="M37.0918 64.1038L54.4225 60.4385L55.0201 66.6935H37.0918V64.1038Z" fill="#24285B"/>
<path d="M93.6653 11.1157H51.7529V28.2472H93.6653V11.1157Z" fill="#FFD200"/>
<path d="M103.825 32.1909H61.9124V49.3224H103.825V32.1909Z" fill="#24285B"/>
<path opacity="0.56" d="M52.0317 78.4863C54.4961 78.4863 56.4939 76.4885 56.4939 74.0242C56.4939 71.5598 54.4961 69.562 52.0317 69.562C49.5674 69.562 47.5696 71.5598 47.5696 74.0242C47.5696 76.4885 49.5674 78.4863 52.0317 78.4863Z" fill="white"/>
<path opacity="0.12" d="M60.7969 3.18701H48.0479V5.05952H60.7969V3.18701Z" fill="black"/>
<path d="M43.4262 6.37438C44.5704 6.37438 45.4979 5.44685 45.4979 4.30267C45.4979 3.15849 44.5704 2.23096 43.4262 2.23096C42.282 2.23096 41.3545 3.15849 41.3545 4.30267C41.3545 5.44685 42.282 6.37438 43.4262 6.37438Z" fill="white"/>
<path d="M11.9919 55.3385L11.0755 51.713C10.9959 51.3146 10.5975 51.1154 10.199 51.195C10.0795 51.2349 9.96 51.2747 9.88032 51.3544C9.72096 51.4739 9.64128 51.6731 9.64128 51.8723V53.705L8.56558 54.0636C7.72893 54.3026 7.25084 55.1791 7.45004 56.0158L7.64924 56.8524C7.80861 57.6094 8.44606 58.1273 9.20303 58.207L12.0317 58.446V55.3385H11.9919Z" fill="#F4A28C"/>
<path d="M1.99194 31.8726V44.1036H8.56565L9.72103 47.8088L10.9561 44.1036H17.4103V31.8726H1.99194Z" fill="#E6E6E6"/>
<path d="M7.09155 37.9282L8.88438 39.9999L12.5497 35.5776" stroke="#A5A5A5" stroke-width="2" stroke-linecap="round" stroke-linejoin="round"/>
<path opacity="0.17" d="M61.275 24.2629C63.9154 24.2629 66.0559 22.1225 66.0559 19.482C66.0559 16.8416 63.9154 14.7012 61.275 14.7012C58.6346 14.7012 56.4941 16.8416 56.4941 19.482C56.4941 22.1225 58.6346 24.2629 61.275 24.2629Z" fill="black"/>
<path opacity="0.09" d="M85.9762 16.0557H71.1555V18.5258H85.9762V16.0557Z" fill="black"/>
<path opacity="0.09" d="M85.9762 20.6772H71.1555V23.1474H85.9762V20.6772Z" fill="black"/>
<path opacity="0.61" d="M96.7331 36.4941H81.9124V38.9244H96.7331V36.4941Z" fill="white"/>
<path opacity="0.21" d="M96.7331 41.1157H81.9124V43.546H96.7331V41.1157Z" fill="white"/>
<path opacity="0.61" d="M66.0559 46.215L69.1236 37.8086L72.032 44.1831L74.6216 39.9998L77.3308 46.215H66.0559Z" fill="white"/>
<path opacity="0.61" d="M72.2312 38.1274C72.8033 38.1274 73.267 37.6636 73.267 37.0915C73.267 36.5194 72.8033 36.0557 72.2312 36.0557C71.6591 36.0557 71.1953 36.5194 71.1953 37.0915C71.1953 37.6636 71.6591 38.1274 72.2312 38.1274Z" fill="white"/>
</svg>
