<svg width="129" height="90" viewBox="0 0 129 90" fill="none" xmlns="http://www.w3.org/2000/svg">
<g clip-path="url(#clip0)">
<path d="M124.497 1.36621H98.8379V18.999H124.497V1.36621Z" fill="#FFD200"/>
<path d="M108.188 13.6194C108.06 13.6194 107.932 13.5767 107.804 13.4913L103.961 10.46C103.833 10.3319 103.748 10.1612 103.748 9.99038C103.748 9.81961 103.833 9.64883 103.961 9.52074L107.804 6.44674C108.06 6.23327 108.444 6.27596 108.657 6.53213C108.871 6.7883 108.828 7.17255 108.572 7.38602L105.327 10.0331L108.572 12.5947C108.828 12.8082 108.871 13.1925 108.657 13.4486C108.572 13.534 108.401 13.6194 108.188 13.6194Z" fill="white"/>
<path d="M115.19 13.6194C114.848 13.6194 114.592 13.3632 114.592 13.0216C114.592 12.8082 114.678 12.6374 114.848 12.5093L118.093 9.94763L114.848 7.30057C114.592 7.0871 114.55 6.70285 114.763 6.44668C114.977 6.19051 115.361 6.14782 115.617 6.36129L119.459 9.4353C119.588 9.52068 119.716 9.69146 119.716 9.90494C119.716 10.0757 119.63 10.2465 119.502 10.3746L115.66 13.4059C115.446 13.5767 115.318 13.6194 115.19 13.6194Z" fill="white"/>
<path d="M110.066 13.6195C109.981 13.6195 109.896 13.6195 109.81 13.5768C109.511 13.4488 109.383 13.1072 109.511 12.8083L112.329 6.66033C112.457 6.36147 112.842 6.23338 113.14 6.36147C113.439 6.48955 113.567 6.83111 113.439 7.12997L110.621 13.278C110.536 13.4915 110.323 13.6195 110.066 13.6195Z" fill="white"/>
<path d="M28.9896 0H0V48.5009H28.9896V0Z" fill="#24285B"/>
<path d="M90.3845 0.170898H36.6748V37.5713H90.3845V0.170898Z" fill="#E6E6E6"/>
<path d="M90.3845 37.5713H36.6748V74.2886H90.3845V37.5713Z" fill="#E6E6E6"/>
<path d="M85.0045 43.4629H42.5234V60.8822H85.0045V43.4629Z" fill="#C9C9C9"/>
<path d="M71.8975 63.0596H55.0332V71.1288H71.8975V63.0596Z" fill="#C9C9C9"/>
<path d="M86.7977 3.67188H40.1753V33.1311H86.7977V3.67188Z" fill="#24285B"/>
<path d="M68.7807 24.1226H53.7949V25.7876H68.7807V24.1226Z" fill="#588A40"/>
<path d="M71.513 19.4688H58.1069V21.1338H71.513V19.4688Z" fill="#FFD200"/>
<path d="M75.9532 28.1782H58.1069V29.8433H75.9532V28.1782Z" fill="#588A40"/>
<path d="M54.9477 28.1782H48.2446V29.8433H54.9477V28.1782Z" fill="white"/>
<path d="M50.6357 24.1226H43.9326V25.7876H50.6357V24.1226Z" fill="white"/>
<path d="M43.2497 7.3011C43.6977 7.3011 44.0609 6.93792 44.0609 6.48991C44.0609 6.0419 43.6977 5.67871 43.2497 5.67871C42.8017 5.67871 42.4385 6.0419 42.4385 6.48991C42.4385 6.93792 42.8017 7.3011 43.2497 7.3011Z" fill="white"/>
<path opacity="0.08" d="M53.7953 46.7932C53.7953 46.7932 59.3882 45.6404 58.1074 51.02C56.8266 56.3995 61.096 55.6737 60.2848 59.9004C59.4736 64.1272 53.7953 74.2885 53.7953 74.2885H43.207L48.5865 54.4782L53.7953 46.7932Z" fill="black"/>
<path d="M45.5978 7.3011C46.0458 7.3011 46.409 6.93792 46.409 6.48991C46.409 6.0419 46.0458 5.67871 45.5978 5.67871C45.1498 5.67871 44.7866 6.0419 44.7866 6.48991C44.7866 6.93792 45.1498 7.3011 45.5978 7.3011Z" fill="#588A40"/>
<path opacity="0.08" d="M79.3693 48.8426C79.3693 48.8426 84.5781 46.4517 86.8409 51.02C89.1037 55.5883 90.3845 56.7838 90.3845 56.7838V71.2145L78.9424 62.5902L79.3693 48.8426Z" fill="black"/>
<path d="M47.7751 7.3011C48.2231 7.3011 48.5863 6.93792 48.5863 6.48991C48.5863 6.0419 48.2231 5.67871 47.7751 5.67871C47.3271 5.67871 46.9639 6.0419 46.9639 6.48991C46.9639 6.93792 47.3271 7.3011 47.7751 7.3011Z" fill="#FFD200"/>
<path d="M50.6357 11.3564H43.9326V13.0215H50.6357V11.3564Z" fill="white"/>
<path d="M54.9477 15.541H48.2446V17.2061H54.9477V15.541Z" fill="white"/>
<path d="M71.513 15.541H58.1069V17.2061H71.513V15.541Z" fill="#FFD200"/>
<path d="M54.9477 19.4688H48.2446V21.1338H54.9477V19.4688Z" fill="white"/>
<path d="M67.2012 11.3564H53.3682V13.0215H67.2012V11.3564Z" fill="#588A40"/>
<path d="M79.8813 11.3564H70.0615V13.0215H79.8813V11.3564Z" fill="#588A40"/>
<path d="M78.8992 65.8349C78.8992 65.8349 71.8119 64.0845 72.3669 59.8577C72.9219 55.6309 77.4903 58.0218 77.4903 58.0218C77.4903 58.0218 76.2948 52.2581 74.5443 50.593C72.7939 48.9279 76.5083 46.1528 79.3261 48.8425C82.144 51.5323 82.699 49.3975 85.0045 52.2154C87.31 55.0332 87.31 63.1025 87.31 63.1025L78.8992 65.8349Z" fill="#F4A28C"/>
<path d="M78.8994 65.8347L85.0474 89.9998L98.3254 84.7911L87.3102 63.0596L78.8994 65.8347Z" fill="#588A40"/>
<path d="M49.5256 63.5293C49.5256 63.5293 56.6128 61.7788 56.0578 57.552C55.5028 53.3253 50.9345 55.7162 50.9345 55.7162C50.9345 55.7162 52.1299 49.9524 53.8804 48.2873C55.6309 46.6222 51.9165 43.8471 49.0986 46.5368C46.2808 49.2266 45.7257 47.0919 43.4202 49.9097C41.1147 52.7275 41.1147 60.7968 41.1147 60.7968L49.5256 63.5293Z" fill="#F4A28C"/>
<path d="M49.5254 63.5293L43.4201 87.7371L30.1421 82.4857L41.1146 60.7969L49.5254 63.5293Z" fill="#588A40"/>
<path d="M8.92334 14.8579H19.597V32.4907" stroke="white" stroke-miterlimit="10"/>
<path d="M18.4015 4.22705H4.35498V6.48986H18.4015V4.22705Z" fill="#FFD200"/>
<path d="M12.6803 12.5522H5.25146V17.1633H12.6803V12.5522Z" fill="#588A40"/>
<path d="M8.92334 32.4902H19.4689" stroke="white" stroke-miterlimit="10"/>
<path d="M23.3112 21.6035H15.8823V26.2145H23.3112V21.6035Z" fill="#588A40"/>
<path d="M12.6803 30.228H5.25146V34.839H12.6803V30.228Z" fill="#588A40"/>
<path d="M23.1832 30.228H15.7544V34.839H23.1832V30.228Z" fill="#588A40"/>
<path opacity="0.1" d="M23.1832 40.9438H5.25146V44.2313H23.1832V40.9438Z" fill="white"/>
<path d="M128.596 27.0259H98.7524V44.2745H128.596V27.0259Z" fill="#E6E6E6"/>
<path d="M103.833 34.2837C104.8 34.2837 105.583 33.4999 105.583 32.5332C105.583 31.5664 104.8 30.7827 103.833 30.7827C102.866 30.7827 102.083 31.5664 102.083 32.5332C102.083 33.4999 102.866 34.2837 103.833 34.2837Z" fill="#24285B"/>
<path d="M103.833 40.3037C104.8 40.3037 105.583 39.52 105.583 38.5532C105.583 37.5865 104.8 36.8027 103.833 36.8027C102.866 36.8027 102.083 37.5865 102.083 38.5532C102.083 39.52 102.866 40.3037 103.833 40.3037Z" fill="#588A40"/>
<path d="M123.472 31.3379H107.846V33.4299H123.472V31.3379Z" fill="#C9C9C9"/>
<path d="M123.472 37.4429H107.846V39.5349H123.472V37.4429Z" fill="#C9C9C9"/>
</g>
<defs>
<clipPath id="clip0">
<rect width="128.553" height="90" fill="white"/>
</clipPath>
</defs>
</svg>
