<svg width="108" height="90" viewBox="0 0 108 90" fill="none" xmlns="http://www.w3.org/2000/svg">
<path d="M97.6902 4.94922H9.47949V67.0812H97.6902V4.94922Z" fill="#E6E6E6"/>
<path opacity="0.2" d="M82.9189 34.4545C85.0846 34.4545 86.8402 32.6988 86.8402 30.5331C86.8402 28.3674 85.0846 26.6118 82.9189 26.6118C80.7532 26.6118 78.9976 28.3674 78.9976 30.5331C78.9976 32.6988 80.7532 34.4545 82.9189 34.4545Z" fill="#FFD200"/>
<path d="M20.0635 39.9744L30.0762 23.2231L41.8782 38.9465L50.901 29.9617L52.6523 36.9287L64.264 24.5937L73.0965 39.9744L82.9188 30.5328" stroke="#24285B" stroke-width="2" stroke-linecap="round" stroke-linejoin="round"/>
<path opacity="0.08" d="M39.0607 35.2159C39.0607 35.2159 29.8856 33.7311 28.7435 44.7336C27.6013 55.7362 29.5049 60.7996 29.5049 60.7996L23.2993 67.0814H57.3349L55.8501 49.9874C55.8501 49.9874 66.7003 61.4088 72.6775 59.6194C78.6546 57.8301 87.4871 49.2641 83.5658 35.9773L74.543 49.3402L67.043 47.7032L60.076 36.9291L51.7384 31.5991L39.0607 35.2159Z" fill="black"/>
<path d="M16.1804 13.1347C17.2737 13.1347 18.1601 12.2483 18.1601 11.155C18.1601 10.0616 17.2737 9.17529 16.1804 9.17529C15.087 9.17529 14.2007 10.0616 14.2007 11.155C14.2007 12.2483 15.087 13.1347 16.1804 13.1347Z" fill="#24285B"/>
<path d="M82.9187 32.5126C84.012 32.5126 84.8984 31.6263 84.8984 30.5329C84.8984 29.4396 84.012 28.5532 82.9187 28.5532C81.8253 28.5532 80.939 29.4396 80.939 30.5329C80.939 31.6263 81.8253 32.5126 82.9187 32.5126Z" fill="#FFD200"/>
<path d="M64.2639 26.5736C65.3572 26.5736 66.2436 25.6873 66.2436 24.594C66.2436 23.5006 65.3572 22.6143 64.2639 22.6143C63.1705 22.6143 62.2842 23.5006 62.2842 24.594C62.2842 25.6873 63.1705 26.5736 64.2639 26.5736Z" fill="#588A40"/>
<path d="M73.0202 41.4975C74.1136 41.4975 74.9999 40.6111 74.9999 39.5178C74.9999 38.4244 74.1136 37.5381 73.0202 37.5381C71.9269 37.5381 71.0405 38.4244 71.0405 39.5178C71.0405 40.6111 71.9269 41.4975 73.0202 41.4975Z" fill="#588A40"/>
<path d="M30.114 25.203C31.2073 25.203 32.0937 24.3167 32.0937 23.2233C32.0937 22.13 31.2073 21.2437 30.114 21.2437C29.0206 21.2437 28.1343 22.13 28.1343 23.2233C28.1343 24.3167 29.0206 25.203 30.114 25.203Z" fill="#588A40"/>
<path d="M20.1018 41.954C21.1951 41.954 22.0815 41.0677 22.0815 39.9743C22.0815 38.881 21.1951 37.9946 20.1018 37.9946C19.0084 37.9946 18.1221 38.881 18.1221 39.9743C18.1221 41.0677 19.0084 41.954 20.1018 41.954Z" fill="#588A40"/>
<path d="M22.0432 13.1347C23.1365 13.1347 24.0229 12.2483 24.0229 11.155C24.0229 10.0616 23.1365 9.17529 22.0432 9.17529C20.9498 9.17529 20.0635 10.0616 20.0635 11.155C20.0635 12.2483 20.9498 13.1347 22.0432 13.1347Z" fill="#588A40"/>
<path d="M27.5632 13.1347C28.6565 13.1347 29.5429 12.2483 29.5429 11.155C29.5429 10.0616 28.6565 9.17529 27.5632 9.17529C26.4698 9.17529 25.5835 10.0616 25.5835 11.155C25.5835 12.2483 26.4698 13.1347 27.5632 13.1347Z" fill="#FFD200"/>
<path d="M39.0993 32.4365C39.0993 32.4365 30.0383 39.2512 34.8734 53.8325C39.7084 68.4137 50.0257 61.3325 50.0257 61.3325V49.4162L39.0993 32.4365Z" fill="#588A40"/>
<path opacity="0.46" d="M39.0993 32.4365C39.0993 32.4365 30.0383 39.2512 34.8734 53.8325C39.7084 68.4137 50.0257 61.3325 50.0257 61.3325V49.4162L39.0993 32.4365Z" fill="white"/>
<path opacity="0.08" d="M51.5861 21.51C51.5861 21.51 47.5506 20.3298 45.9135 22.9567C44.2765 25.5836 47.8552 30.076 44.4288 32.8551C41.0024 35.6343 54.213 35.2156 54.213 35.2156L52.0049 28.1724L52.9567 23.0709L51.5861 21.51Z" fill="black"/>
<path opacity="0.45" d="M55.2794 90.0001C83.4753 90.0001 106.333 87.8354 106.333 85.1651C106.333 82.4948 83.4753 80.3301 55.2794 80.3301C27.0834 80.3301 4.22607 82.4948 4.22607 85.1651C4.22607 87.8354 27.0834 90.0001 55.2794 90.0001Z" fill="#E6E6E6"/>
<path d="M62.0559 82.8809L63.8833 84.2895C64.0736 84.4418 64.0736 84.7083 63.9213 84.8986C63.8452 85.0128 63.731 85.0509 63.6168 85.0509H61.2944C60.6092 85.0509 60.0762 84.4798 60.0762 83.8326V82.8809H62.0559Z" fill="#588A40"/>
<path d="M45.4224 54.2358L33.5952 60.207L38.3138 69.5532L50.141 63.582L45.4224 54.2358Z" fill="#FFD200"/>
<path d="M42.6013 82.8809L40.7739 84.2895C40.5835 84.4418 40.5835 84.7083 40.7358 84.8986C40.812 85.0128 40.9262 85.0509 41.0404 85.0509H43.3247C44.0099 85.0509 44.5429 84.4798 44.5429 83.8326V82.8809H42.6013Z" fill="#588A40"/>
<path d="M50.0254 30.5327L50.33 25.3931C50.33 25.3931 50.7107 22.0809 52.3477 22.69C53.9848 23.2992 55.7361 26.5733 54.8604 27.5631C54.3655 28.0961 53.8706 27.7915 53.2234 27.8296C52.6523 27.8677 52.7665 27.7915 52.7665 28.3626V30.3423L50.0254 30.5327Z" fill="#F4A28C"/>
<path d="M48.3504 30.3047C48.3504 30.3047 37.9951 29.391 36.6626 36.358C35.3301 43.325 44.924 56.5357 44.924 56.5357L58.3251 56.0027C58.3631 56.0027 79.188 26.726 48.3504 30.3047Z" fill="#588A40"/>
<path opacity="0.08" d="M57.4871 33.1221C57.4871 33.1221 49.4541 37.9571 53.4135 45.3048C55.9262 50.0256 49.4922 56.3454 49.4922 56.3454L58.4008 56.0028C58.4008 56.0028 61.6749 51.1678 62.3221 49.3023C62.9693 47.4368 57.4871 33.1221 57.4871 33.1221Z" fill="black"/>
<path d="M44.9236 56.5354L41.8779 82.8806H44.8855L51.548 61.7131L59.048 82.9187H62.4363L58.3627 56.0024L44.9236 56.5354Z" fill="#24285B"/>
<path d="M50.0254 28.4011H51.6244C51.6244 28.4011 51.967 25.4315 53.1092 24.8605C54.2513 24.2894 55.3934 23.2234 54.3655 22.2336C53.3376 21.2437 51.929 20.1016 50.2158 21.2818C48.5026 22.462 47.9696 25.2793 50.0254 28.4011Z" fill="#24285B"/>
<path d="M56.688 34.759C57.1829 32.5509 59.3529 31.1803 61.523 31.6752C62.1702 31.8275 62.7793 32.1321 63.2743 32.5509C64.5687 33.6549 65.825 35.3301 66.7006 37.9189C67.6905 40.8884 69.1753 43.6676 71.0788 46.1422C71.9164 47.1702 73.4012 47.3225 74.4291 46.4849C74.6956 46.2565 74.924 45.99 75.0763 45.7235L80.4062 35.1778L83.5661 36.929C83.5661 36.929 79.8732 52.6524 74.4291 54.1752C69.594 55.5458 54.0991 46.4087 56.688 34.759Z" fill="#588A40"/>
<path opacity="0.46" d="M56.688 34.759C57.1829 32.5509 59.3529 31.1803 61.523 31.6752C62.1702 31.8275 62.7793 32.1321 63.2743 32.5509C64.5687 33.6549 65.825 35.3301 66.7006 37.9189C67.6905 40.8884 69.1753 43.6676 71.0788 46.1422C71.9164 47.1702 73.4012 47.3225 74.4291 46.4849C74.6956 46.2565 74.924 45.99 75.0763 45.7235L80.4062 35.1778L83.5661 36.929C83.5661 36.929 79.8732 52.6524 74.4291 54.1752C69.594 55.5458 54.0991 46.4087 56.688 34.759Z" fill="white"/>
<path d="M81.1294 35.5585C81.1294 35.5585 81.7005 30.3808 82.9949 30.0001C84.2893 29.6194 82.9949 33.1219 82.9949 33.1219C82.9949 33.1219 86.4974 33.5027 83.6421 36.9291L81.1294 35.5585Z" fill="#F4A28C"/>
<path d="M18.9213 47.7412H0V71.4595H18.9213V47.7412Z" fill="#EFEFEF"/>
<path opacity="0.08" d="M15.0381 62.4746H7.61426V64.5304H15.0381V62.4746Z" fill="black"/>
<path opacity="0.08" d="M15.0381 66.1294H7.61426V68.1852H15.0381V66.1294Z" fill="black"/>
<path d="M6.73841 62.4746H4.56836V64.6447H6.73841V62.4746Z" fill="#588A40"/>
<path d="M6.73841 66.0532H4.56836V68.2233H6.73841V66.0532Z" fill="#FFD200"/>
<path d="M9.93666 59.6956C12.5018 59.6956 14.5813 57.6161 14.5813 55.0509C14.5813 52.4857 12.5018 50.4062 9.93666 50.4062C7.37148 50.4062 5.29199 52.4857 5.29199 55.0509C5.29199 57.6161 7.37148 59.6956 9.93666 59.6956Z" fill="white"/>
<path d="M9.93652 50.368V55.0126L14.5051 54.0609C14.5051 54.0989 13.8578 50.3299 9.93652 50.368Z" fill="#FFD200"/>
<path d="M9.93649 55.0509L7.34766 58.9342C7.34766 58.9342 9.93649 60.9139 12.9822 58.5915C14.2766 57.4875 14.8857 55.7743 14.505 54.1372L9.93649 55.0509Z" fill="#24285B"/>
<path d="M104.543 0H83.9849V13.0964H104.543V0Z" fill="#FFD200"/>
<path d="M107.931 54.0991H87.373V70.9646H107.931V54.0991Z" fill="#24285B"/>
<path d="M90.8378 7.65234H88.0586V10.4315H90.8378V7.65234Z" fill="#24285B"/>
<path d="M95.5204 4.68262H92.7412V10.4694H95.5204V4.68262Z" fill="#24285B"/>
<path d="M100.508 2.66504H97.7285V10.4696H100.508V2.66504Z" fill="#24285B"/>
<path d="M98.0713 56.916C98.3758 56.916 98.452 57.0302 98.452 57.3348V57.982C99.556 58.0962 100.47 58.8196 100.889 59.8094C101.041 60.114 100.965 60.3043 100.622 60.4566L99.9748 60.7612C99.6702 60.9135 99.518 60.8373 99.3657 60.5328C99.0992 59.8475 98.4139 59.4287 97.6525 59.5048C96.5103 59.5048 96.0154 59.8475 96.0154 60.6089C96.0535 61.1038 96.4342 61.4465 96.9291 61.4845C97.2337 61.5607 97.5763 61.5987 97.8809 61.6368C98.49 61.6749 99.0611 61.7891 99.6322 61.9795C99.8987 62.0556 100.165 62.2079 100.394 62.3982C100.85 62.8932 101.117 63.5784 101.117 64.2637C101.117 65.7104 100.165 66.7003 98.452 66.9287V67.614C98.452 67.9185 98.3758 68.0328 98.0713 68.0328H97.3479C97.0433 68.0328 96.9291 67.9185 96.9291 67.614V66.9287C95.7108 66.8526 94.6449 66.0531 94.2641 64.8729C94.1499 64.5683 94.2641 64.3779 94.5687 64.2637L95.2159 64.0353C95.5586 63.9211 95.6728 63.9972 95.8251 64.3399C96.1296 65.0632 96.7007 65.4439 97.6144 65.4439C98.8327 65.4439 99.4418 65.0632 99.4418 64.2637C99.4799 63.883 99.2134 63.5404 98.8707 63.4262C98.452 63.2739 97.9951 63.1977 97.5763 63.1597C96.9672 63.1216 96.3581 63.0074 95.787 62.7789C95.5205 62.6647 95.254 62.5125 95.0256 62.3602C94.5306 61.9033 94.3022 61.218 94.3022 60.5708C94.3022 59.1241 95.2159 58.1723 96.891 57.9439V57.2967C96.891 56.9921 97.0053 56.8779 97.3098 56.8779L98.0713 56.916Z" fill="white"/>
</svg>
