<svg width="135" height="90" viewBox="0 0 135 90" fill="none" xmlns="http://www.w3.org/2000/svg">
<path d="M14.3784 65.4697C14.3784 65.4697 14.7099 70.152 16.906 68.9504C19.1022 67.7487 16.3674 65.4697 16.3674 65.4697H14.3784Z" fill="#F4A28C"/>
<path d="M108.108 0H24.8618V64.558H108.108V0Z" fill="#E6E6E6"/>
<path opacity="0.39" d="M48.2319 26.7681H31.7402V32.7349H48.2319V26.7681Z" fill="#C9C9C9"/>
<path opacity="0.2" d="M77.0716 39.1157H59.7512V58.508H77.0716V39.1157Z" fill="#C9C9C9"/>
<path opacity="0.2" d="M48.3978 39.1157H31.0774V58.508H48.3978V39.1157Z" fill="#C9C9C9"/>
<path opacity="0.2" d="M104.793 27.0166H85.3589V58.4669H104.793V27.0166Z" fill="#C9C9C9"/>
<path opacity="0.08" d="M25.1105 22.6244C25.1105 22.6244 28.3426 22.0029 28.9641 26.3537C29.5857 30.7045 27.8868 34.1023 32.9835 34.8896C38.0801 35.6769 44.0055 31.9891 46.9475 39.9034C49.8895 47.8178 50.0553 64.5581 50.0553 64.5581H35.9669L23.1216 31.5333L25.1105 22.6244Z" fill="black"/>
<path opacity="0.45" d="M26.6436 90.0002C41.3585 90.0002 53.2872 88.4234 53.2872 86.4782C53.2872 84.533 41.3585 82.9561 26.6436 82.9561C11.9288 82.9561 0 84.533 0 86.4782C0 88.4234 11.9288 90.0002 26.6436 90.0002Z" fill="#E6E6E6"/>
<path opacity="0.45" d="M107.859 89.7512C122.826 89.7512 134.958 88.1743 134.958 86.2291C134.958 84.2839 122.826 82.707 107.859 82.707C92.8923 82.707 80.7595 84.2839 80.7595 86.2291C80.7595 88.1743 92.8923 89.7512 107.859 89.7512Z" fill="#E6E6E6"/>
<path opacity="0.58" d="M7.78986 82.293C7.78986 82.293 4.26776 81.3399 3.48047 78.0664C3.48047 78.0664 8.95008 76.9477 9.11582 82.583L7.78986 82.293Z" fill="#588A40"/>
<path opacity="0.73" d="M8.2045 81.9614C8.2045 81.9614 5.71832 78.0663 7.91445 74.4199C7.91445 74.4199 12.0581 77.0719 10.2349 81.9614H8.2045Z" fill="#588A40"/>
<path d="M8.86743 81.9612C8.86743 81.9612 10.152 77.8176 14.1299 77.0303C14.1299 77.0303 14.8757 79.6822 11.5608 81.9612H8.86743Z" fill="#588A40"/>
<path d="M6.29834 81.8369L7.00276 86.7264L11.5193 86.7678L12.1823 81.8784L6.29834 81.8369Z" fill="#24285B"/>
<path d="M21.2155 35.0137C21.2155 35.0137 5.46967 46.2015 14.0056 65.4694H16.3675C16.3675 65.4694 15.1244 51.5054 21.257 44.8755C27.3895 38.2457 21.2155 35.0137 21.2155 35.0137Z" fill="#588A40"/>
<path opacity="0.2" d="M21.2155 35.0137C21.2155 35.0137 5.46967 46.2015 14.0056 65.4694H16.3675C16.3675 65.4694 15.1244 51.5054 21.257 44.8755C27.3895 38.2457 21.2155 35.0137 21.2155 35.0137Z" fill="white"/>
<path d="M25.5249 29.0058L26.8509 33.0251L23.7017 35.0141L22.5415 28.0527L25.5249 29.0058Z" fill="#F4A28C"/>
<path d="M21.5885 25.6493C22.0443 24.6548 23.2045 24.199 24.199 24.6548C24.4476 24.7791 24.6548 24.9448 24.8619 25.1106C25.9393 26.2294 27.2238 28.0526 25.7735 29.0471C23.536 30.5388 21.5056 27.7211 21.5056 27.7211C21.3398 27.0167 21.3813 26.3122 21.5885 25.6493Z" fill="#F4A28C"/>
<path d="M23.4943 26.6438C23.4943 26.6438 22.7485 26.0222 22.4584 26.8924C22.1269 27.7626 23.4115 28.1769 23.7844 27.7211C24.1573 27.2653 23.4943 26.6438 23.4943 26.6438Z" fill="#F4A28C"/>
<path d="M25.2691 53.5992L9.74951 57.6387L12.5677 68.4663L28.0873 64.4268L25.2691 53.5992Z" fill="#FFD200"/>
<path opacity="0.08" d="M17.6934 55.5665L20.1795 62.9008L20.0552 66.5057L23.6188 65.5941L25.2348 59.0886L20.884 54.7378L17.6934 55.5665Z" fill="black"/>
<path d="M19.9722 37.0025C20.9252 34.8479 22.7899 33.2318 25.0689 32.5274C29.3783 31.2429 37.3341 32.6517 39.7788 36.7125C43.0937 42.265 38.2457 59.834 38.2457 59.834L23.7429 60.9528C23.7429 60.9528 15.7043 46.5329 19.9722 37.0025Z" fill="#588A40"/>
<path d="M38.2458 59.834L36.3397 84.8202H33.3148L30.6215 65.3865L23.9502 60.9528L38.2458 59.834Z" fill="#24285B"/>
<path d="M23.9502 60.9531L19.7651 84.8205H22.9972L29.9999 65.0139L23.9502 60.9531Z" fill="#24285B"/>
<path d="M77.0718 27.6797H69.7375V36.3813H77.0718V27.6797Z" fill="#C9C9C9"/>
<path opacity="0.08" d="M26.3122 32.1548C26.3122 32.1548 19.5167 54.0332 39.1575 55.4835L38.2459 59.7929L23.7432 60.9117C23.7432 60.9117 18.6051 52.9144 18.8123 41.6023C18.8123 41.6023 18.9366 36.0084 22.873 33.5636C23.9089 32.8592 25.0692 32.4034 26.3122 32.1548Z" fill="black"/>
<path d="M20.5112 84.7373L18.5637 86.1876C18.3565 86.3119 18.3151 86.5605 18.3979 86.7677C18.4808 86.892 18.6465 86.9749 18.8123 86.9749H22.0858C22.3344 86.9749 22.5001 86.8091 22.5001 86.5605V84.7787L20.5112 84.7373Z" fill="#588A40"/>
<path d="M35.9669 84.7373L37.7901 86.1876C37.9973 86.3119 38.0802 86.5605 37.9559 86.7263C37.873 86.892 37.7072 86.9749 37.5001 86.9334H35.1796C34.4752 86.9334 33.9365 86.3948 33.9365 85.6903V84.7373H35.9669Z" fill="#588A40"/>
<path d="M21.6713 28.5497C21.6713 28.5497 22.3757 29.8342 23.5359 29.4198C24.6962 29.0055 23.8674 26.2707 23.8674 26.2707C23.8674 26.2707 25.2763 24.2403 25.0691 22.6243C24.9862 22.127 24.5304 21.7955 24.0332 21.8784C23.7431 21.9199 23.4945 22.127 23.3702 22.4171C23.0801 22.9143 22.5829 23.2458 22.0028 23.2458C20.0138 23.453 18.1906 26.6022 21.6713 28.5497Z" fill="#24285B"/>
<path d="M31.8231 38.6602C30.953 36.7542 31.7817 34.5166 33.6463 33.6464C34.7651 33.1492 36.0497 33.1906 37.127 33.8122C39.4889 35.1381 41.8922 37.5 42.8038 41.7265C44.9171 51.2155 45.4972 62.6934 45.4972 62.6934L43.0939 62.942C43.0939 62.942 40.4005 51.1326 35.8425 44.71C34.7651 43.1354 32.7762 40.7321 31.8231 38.6602Z" fill="#588A40"/>
<path opacity="0.2" d="M31.8231 38.6602C30.953 36.7542 31.7817 34.5166 33.6463 33.6464C34.7651 33.1492 36.0497 33.1906 37.127 33.8122C39.4889 35.1381 41.8922 37.5 42.8038 41.7265C44.9171 51.2155 45.4972 62.6934 45.4972 62.6934L43.0939 62.942C43.0939 62.942 40.4005 51.1326 35.8425 44.71C34.7651 43.1354 32.7762 40.7321 31.8231 38.6602Z" fill="white"/>
<path d="M43.591 62.8175C43.591 62.8175 42.3479 66.2982 43.9225 66.4639C45.9943 66.7126 45.5385 62.6104 45.5385 62.6104L43.591 62.8175Z" fill="#F4A28C"/>
<path opacity="0.08" d="M109.019 62.1961C109.019 62.1961 109.765 26.5608 107.528 23.3287C107.528 23.3287 105.58 22.7901 104.876 25.7321C104.171 28.674 103.798 29.5442 105.249 30.2901C106.699 31.0359 105.953 35.0967 103.301 35.0138C100.649 34.9309 97.2927 34.1022 96.0082 36.3398C94.7237 38.5773 94.0192 53.1215 88.6325 49.558C83.2458 45.9945 83.3287 36.4641 83.3287 36.4641L73.7568 36.3812V44.0884L81.2568 43.9226C81.2568 43.9226 82.2099 57.0166 92.7762 59.9171C94.9308 60.4972 96.1739 62.6933 95.6353 64.8066C95.6353 64.8895 95.5938 64.9309 95.5938 65.0138" fill="black"/>
<path d="M107.072 33.522C107.072 33.522 100.939 32.6932 99.6961 37.8313C98.4531 42.9695 98.2873 50.0551 93.3564 51.4639C88.4254 52.8728 85.6906 43.0109 85.6906 43.0109C85.6906 43.0109 84.5304 40.2347 83.3288 39.8617C82.1271 39.4888 81.2155 42.2236 83.3288 43.8811C83.3288 43.8811 85.1105 56.4777 94.558 56.0219C104.006 55.5661 107.072 42.6794 107.072 33.522Z" fill="#F4A28C"/>
<path opacity="0.08" d="M107.072 33.522C107.072 33.522 100.939 32.6932 99.6961 37.8313C98.4531 42.9695 98.2873 50.0551 93.3564 51.4639C88.4254 52.8728 85.6906 43.0109 85.6906 43.0109C85.6906 43.0109 84.5304 40.2347 83.3288 39.8617C82.1271 39.4888 81.2155 42.2236 83.3288 43.8811C83.3288 43.8811 85.1105 56.4777 94.558 56.0219C104.006 55.5661 107.072 42.6794 107.072 33.522Z" fill="black"/>
<path d="M107.072 33.522C107.072 33.522 100.483 32.2375 99.5717 37.5414C99.0745 40.6077 98.2043 43.5911 97.0027 46.4088L102.016 48.0248L107.072 33.522Z" fill="#588A40"/>
<path opacity="0.46" d="M107.072 33.522C107.072 33.522 100.483 32.2375 99.5717 37.5414C99.0745 40.6077 98.2043 43.5911 97.0027 46.4088L102.016 48.0248L107.072 33.522Z" fill="white"/>
<path d="M107.32 24.6133C106.782 25.7321 106.409 26.9337 106.202 28.1354C106.119 28.7569 106.575 29.2956 107.196 29.3785C108.149 29.5442 109.102 29.1299 109.641 28.3011L110.925 26.7266C111.381 26.0221 111.34 25.1105 110.843 24.4061C110.055 23.1216 107.859 23.3702 107.32 24.6133Z" fill="#F4A28C"/>
<path d="M110.18 27.0581L110.635 33.5222H107.072L108.149 28.9642L110.18 27.0581Z" fill="#F4A28C"/>
<path d="M106.782 26.1465L105.995 26.6852C105.829 26.768 105.787 26.9752 105.912 27.141C105.953 27.1824 105.953 27.2238 105.995 27.2238L106.657 27.6382L106.782 26.1465Z" fill="#F4A28C"/>
<path opacity="0.31" d="M108.108 29.0884C108.522 29.0055 108.936 28.7984 109.268 28.5083C109.268 28.5083 109.516 29.9171 107.776 30.3729L108.108 29.0884Z" fill="#CE8172"/>
<path d="M109.185 26.975C109.185 26.975 109.517 26.1877 110.097 26.4777C110.677 26.7678 110.221 27.928 109.351 27.7208L109.185 26.975Z" fill="#F4A28C"/>
<path d="M100.608 70.3589L97.5828 84.1158H99.3231L105.207 70.3589H100.608Z" fill="#F4A28C"/>
<path d="M110.469 68.7015L113.702 84.1158H115.442L115.193 68.5771L110.469 68.7015Z" fill="#F4A28C"/>
<path d="M97.5826 84.1161C97.5826 84.1161 96.5882 85.3592 95.3451 85.2764C94.102 85.1935 93.8948 86.9753 95.9252 86.8095C96.5467 86.7681 97.1683 86.6438 97.7898 86.478C98.3699 86.3537 98.95 86.3537 99.4887 86.5195C99.6959 86.5609 99.9445 86.478 100.069 86.2708C100.649 85.6079 99.2401 84.0747 99.2401 84.0747H97.5826V84.1161Z" fill="#588A40"/>
<path d="M115.318 84.1161C115.318 84.1161 116.312 85.3592 117.555 85.2764C118.798 85.1935 119.006 86.9753 116.975 86.8095C116.354 86.7681 115.732 86.6438 115.111 86.478C114.53 86.3537 113.95 86.3537 113.412 86.5195C113.204 86.5609 112.956 86.478 112.832 86.2708C112.251 85.6079 113.66 84.0747 113.66 84.0747H115.318V84.1161Z" fill="#588A40"/>
<path d="M107.072 33.522H110.635C110.635 33.522 110.884 33.522 111.298 33.522C119.13 33.7706 123.646 42.4308 119.503 49.0606C117.182 52.7485 114.447 57.7208 114.24 60.6628L100.318 59.9584C100.318 59.9584 101.353 50.9253 98.7844 45.7872C98.8259 45.8286 94.0607 37.6656 107.072 33.522Z" fill="#588A40"/>
<path opacity="0.08" d="M113.287 38.2871C113.287 38.2871 111.547 41.8506 111.133 48.3147C110.718 54.7788 100.939 47.1545 100.939 47.1545L100.483 57.7622L114.696 58.5081L115.898 54.1987C115.898 54.1987 119.627 47.5274 113.287 38.2871Z" fill="black"/>
<path d="M107.856 41.152L98.5962 42.2363L100.273 56.5582L109.533 55.4739L107.856 41.152Z" fill="#FFD200"/>
<path d="M105.315 40.5282L100.994 41.0342L101.24 43.1331L105.561 42.6271L105.315 40.5282Z" fill="#24285B"/>
<path d="M100.525 57.7622L114.737 58.5081L118.508 72.8865L97.9971 72.1821L100.525 57.7622Z" fill="#24285B"/>
<path opacity="0.08" d="M99.1572 47.1548L109.019 51.0498L109.516 55.4835L100.276 56.6023L99.1572 47.1548Z" fill="black"/>
<path d="M113.412 38.9503C113.329 37.2929 114.655 35.884 116.312 35.8012C117.265 35.7597 118.177 36.1741 118.757 36.92C120.787 39.3233 121.823 42.431 121.74 45.5802C121.616 53.9918 120.497 63.1078 102.307 53.163L103.301 50.5111C103.301 50.5111 111.381 54.4061 114.738 53.1216C117.224 52.1686 113.66 44.7514 113.412 38.9503Z" fill="#F4A28C"/>
<path d="M103.342 50.4698C103.342 50.4698 100.318 49.0195 99.033 50.4698C97.7485 51.92 99.7789 53.2046 102.389 53.1217L103.342 50.4698Z" fill="#F4A28C"/>
<path d="M106.989 23.5775L106.284 25.3178L109.185 26.4366C109.185 26.4366 109.351 28.3841 108.315 28.7156C108.812 28.6741 109.226 28.467 109.558 28.1355C109.807 27.8454 110.221 27.8454 110.511 28.094L110.552 28.1355C111.381 27.3067 111.961 26.3123 112.21 25.152C112.541 23.4531 110.635 23.1631 110.635 23.1631C110.635 23.1631 108.149 21.3399 106.989 23.5775Z" fill="#24285B"/>
<path d="M110.677 23.1217C110.677 23.1217 110.801 21.4642 113.784 21.7543C116.768 22.0443 113.784 26.0222 116.229 29.7515C116.229 29.7515 111.754 28.7985 111.63 24.7791L110.677 23.1217Z" fill="#24285B"/>
<path d="M110.511 22.9972C110.967 22.7486 111.547 22.79 111.961 23.1215C112.79 23.6602 113.163 25.6077 111.837 26.2707C111.796 26.2707 112.914 23.6602 110.511 22.9972Z" fill="#FFD200"/>
<path d="M114.572 48.066H122.32C122.32 48.066 123.149 36.7539 116.768 35.3036C110.386 33.8533 114.572 48.066 114.572 48.066Z" fill="#588A40"/>
<path d="M82.0026 9.28174H80.5938V59.8342H82.0026V9.28174Z" fill="#C9C9C9"/>
<path opacity="0.46" d="M114.572 48.066H122.32C122.32 48.066 123.149 36.7539 116.768 35.3036C110.386 33.8533 114.572 48.066 114.572 48.066Z" fill="white"/>
<path d="M86.0219 35.1797H77.5688V42.2653H86.0219V35.1797Z" fill="#588A40"/>
<path d="M99.8617 15.7871H91.4087V22.8727H99.8617V15.7871Z" fill="#588A40"/>
<path d="M43.7154 16.6987H35.0552V23.9087H43.7154V16.6987Z" fill="#24285B"/>
<path opacity="0.26" d="M40.4006 15.0415H38.4116V18.4393H40.4006V15.0415Z" fill="white"/>
<path d="M65.0137 46.5332H56.3535V53.7431H65.0137V46.5332Z" fill="#24285B"/>
<path opacity="0.26" d="M61.6989 44.8755H59.71V48.2733H61.6989V44.8755Z" fill="white"/>
<path d="M72.0579 16.5332H63.3977V23.7846H72.0579V16.5332Z" fill="#FFD200"/>
<path opacity="0.26" d="M68.7431 14.834H66.7542V18.2318H68.7431V14.834Z" fill="white"/>
<path opacity="0.26" d="M96.464 14.71H94.4751V18.1077H96.464V14.71Z" fill="white"/>
<path d="M54.6962 9.28174H53.2874V59.8342H54.6962V9.28174Z" fill="#C9C9C9"/>
<path d="M46.4501 5.9668H31.8645V9.98613H46.4501V5.9668Z" fill="#C9C9C9"/>
<path opacity="0.58" d="M74.3783 5.9668H59.7927V9.98613H74.3783V5.9668Z" fill="#C9C9C9"/>
<path opacity="0.3" d="M102.265 5.9668H87.6794V9.98613H102.265V5.9668Z" fill="#C9C9C9"/>
<path opacity="0.58" d="M67.417 28.8398H59.7927V31.4089H67.417V28.8398Z" fill="#C9C9C9"/>
<path opacity="0.58" d="M67.417 33.4395H59.7927V36.0085H67.417V33.4395Z" fill="#C9C9C9"/>
</svg>
