<svg width="102" height="90" viewBox="0 0 102 90" fill="none" xmlns="http://www.w3.org/2000/svg">
<path d="M91.2504 4.8374H21.8884V60.3827H91.2504V4.8374Z" fill="#E6E6E6"/>
<path opacity="0.1" d="M28.5359 11.8677C28.5359 11.8677 33.8607 13.7818 31.1113 18.0626C28.3619 22.3433 28.5359 28.9558 28.5359 28.9558C28.5359 28.9558 44.1275 25.8932 43.8143 41.5197L49.9396 40.3712L54.8816 35.0463L59.928 26.6937L61.4245 27.4941L53.1415 45.2436L50.7749 43.8514C50.7749 43.8514 48.3735 55.3364 43.2227 60.3828H28.1879L24.7424 43.2598L21.8538 23.8746L28.5359 11.8677Z" fill="black"/>
<path d="M27.0393 26.6592C27.0393 26.6592 35.6008 28.7473 38.733 45.2439L49.4523 37.2392L51.6449 39.8146L39.1855 52.9005C37.9674 54.1882 35.914 54.2578 34.5915 53.0049L27.1089 45.9051L27.0393 26.6592Z" fill="#588A40"/>
<path opacity="0.2" d="M27.0393 26.6592C27.0393 26.6592 35.6008 28.7473 38.733 45.2439L49.4523 37.2392L51.6449 39.8146L39.1855 52.9005C37.9674 54.1882 35.914 54.2578 34.5915 53.0049L27.1089 45.9051L27.0393 26.6592Z" fill="white"/>
<path opacity="0.45" d="M51.1577 90C79.0667 90 101.691 87.4913 101.691 84.3967C101.691 81.3021 79.0667 78.7935 51.1577 78.7935C23.2487 78.7935 0.624023 81.3021 0.624023 84.3967C0.624023 87.4913 23.2487 90 51.1577 90Z" fill="#E6E6E6"/>
<path d="M26.239 16.3572C26.239 16.3572 26.4826 19.037 26.0302 20.812C25.8561 21.5428 25.1253 21.9605 24.3944 21.7865C23.4896 21.5428 22.3759 20.9512 22.0626 19.5591L21.2274 17.2273C20.9838 16.218 21.4014 15.2087 22.2715 14.6519C23.8028 13.5382 26.1694 14.7215 26.239 16.3572Z" fill="#F4A28C"/>
<path d="M21.6449 17.8193L18.5823 24.5711L22.5498 27.5293L23.3503 21.1952L21.6449 17.8193Z" fill="#F4A28C"/>
<path d="M21.5056 24.4316C20.8443 24.2576 20.1483 24.0836 19.487 23.8748C16.5288 22.9351 7.37567 20.6033 4.76546 27.007C1.6332 34.6636 11.03 57.9815 11.03 57.9815L27.0392 56.5894L30.8676 36.4038C30.8676 36.4038 34.1738 27.4942 21.5056 24.4316Z" fill="#588A40"/>
<path d="M26.2738 18.0625L27.0046 19.1066C27.1438 19.3154 27.109 19.559 26.9002 19.6982C26.8654 19.733 26.7958 19.7678 26.7262 19.7678L25.6821 19.9767L26.2738 18.0625Z" fill="#F4A28C"/>
<path opacity="0.31" d="M23.3501 21.3686C22.8281 21.0554 22.4105 20.6378 22.132 20.1157C22.132 20.1157 21.1576 21.7863 23.1065 23.1784L23.3501 21.3686Z" fill="#CE8172"/>
<path opacity="0.08" d="M28.2226 27.5289C28.2226 27.5289 20.7052 28.9558 18.9651 23.7354L22.8978 24.849C24.8468 25.3711 26.6565 26.276 28.2226 27.5289Z" fill="black"/>
<path opacity="0.58" d="M89.6843 78.2712C89.6843 78.2712 85.2992 77.0879 84.3247 73.0508C84.3247 73.0508 91.0764 71.6587 91.3201 78.6541L89.6843 78.2712Z" fill="#588A40"/>
<path opacity="0.73" d="M90.2065 77.8188C90.2065 77.8188 87.1439 73.0161 89.7889 68.4917C89.7889 68.4917 94.9397 71.7284 92.6775 77.8188H90.2065Z" fill="#588A40"/>
<path d="M91.0068 77.819C91.0068 77.819 92.6078 72.703 97.4802 71.7285C97.4802 71.7285 98.4198 75.0348 94.3479 77.819H91.0068Z" fill="#588A40"/>
<path d="M87.8398 77.7495L88.7447 83.8052H94.3132L95.1136 77.7495H87.8398Z" fill="#24285B"/>
<path d="M33.6171 81.543C33.6171 81.543 34.3131 82.7959 35.566 82.7263C36.8189 82.6567 37.3062 83.7703 36.2621 84.2576C35.218 84.7448 32.1553 83.8052 32.1553 83.8052L31.9465 82.0302L33.6171 81.543Z" fill="#588A40"/>
<path d="M18.617 79.9767C18.617 79.9767 18.3734 81.4036 19.3827 82.0997C20.392 82.7957 20.0787 84.0138 18.965 83.7354C17.8514 83.457 16.0764 80.812 16.0764 80.812L17.0161 79.3154L18.617 79.9767Z" fill="#588A40"/>
<path opacity="0.08" d="M12.7354 27.4941C12.7354 27.4941 15.8329 31.7749 14.6844 41.1716C13.5359 50.5684 28.8491 46.6357 28.8491 46.6357L27.0742 56.5893L11.0649 57.9814L9.11596 52.6914L5.14844 38.9095L12.7354 27.4941Z" fill="black"/>
<path d="M23.3503 41.5546L25.2645 30.4873L31.4594 34.3852L38.2807 32.1578L36.4014 44.0256L29.4756 46.253L23.3503 41.5546Z" fill="#FFD200"/>
<path d="M5.80958 25.1627C2.19009 29.0606 -2.16026 37.3785 1.21561 51.5432C1.63324 53.2137 3.30378 54.223 4.97431 53.8402C5.00911 53.8402 5.04392 53.8402 5.07872 53.8054L26.7609 47.7845L25.9604 44.5478L9.01143 46.636C9.01143 46.636 13.7098 36.8912 12.7701 27.5293C12.5265 25.3367 10.5428 23.7358 8.35018 23.9446C7.3757 24.0142 6.47083 24.4666 5.80958 25.1627Z" fill="#588A40"/>
<path opacity="0.08" d="M23.8723 38.3525C23.8723 38.3525 26.4477 42.3201 29.3015 42.5289C32.1553 42.7377 35.9836 41.4848 36.4013 43.9906L29.4755 46.218L23.3154 41.5196L23.8723 38.3525Z" fill="black"/>
<path opacity="0.2" d="M5.80958 25.1627C2.19009 29.0606 -2.16026 37.3785 1.21561 51.5432C1.63324 53.2137 3.30378 54.223 4.97431 53.8402C5.00911 53.8402 5.04392 53.8402 5.07872 53.8054L26.7609 47.7845L25.9604 44.5478L9.01143 46.636C9.01143 46.636 13.7098 36.8912 12.7701 27.5293C12.5265 25.3367 10.5428 23.7358 8.35018 23.9446C7.3757 24.0142 6.47083 24.4666 5.80958 25.1627Z" fill="white"/>
<path d="M12.5613 46.1836V51.7172L26.7608 47.7845C26.7608 47.7845 31.1808 47.3321 32.0856 45.2439C32.9905 43.1557 28.849 41.8332 25.9256 44.513L12.5613 46.1836Z" fill="#F4A28C"/>
<path d="M12.5613 46.1831V51.7168L15.4847 50.8467V45.8003L12.5613 46.1831Z" fill="white"/>
<path d="M31.4592 34.3851L27.0044 29.3735L26.552 31.2877L31.4592 34.3851Z" fill="#FFD200"/>
<path d="M11.03 57.9815L17.1553 65.2204C19.4523 67.9699 19.9395 71.7982 18.3038 75L16.3549 78.8979L19.3479 80.4293L22.0973 76.0441C24.4291 72.3202 25.0904 67.7959 23.9419 63.5499C23.559 62.1926 23.8723 60.6961 24.7075 59.5824L27.0393 56.5894L11.03 57.9815Z" fill="#24285B"/>
<path d="M31.4592 34.3852L37.0625 30.4873V32.5407L31.4592 34.3852Z" fill="#FFD200"/>
<path d="M50.7749 41.1367L59.8932 24.8838L60.5893 25.3014L52.3758 41.972L50.7749 41.1367Z" fill="#24285B"/>
<path d="M27.0392 56.5894L34.6262 81.5778L31.2504 82.2738C31.2504 82.2738 26.0647 67.3086 20.9487 60.1044L27.0392 56.5894Z" fill="#24285B"/>
<path d="M41.0996 43.5036L44.1971 47.6451L51.6797 39.8493C51.6797 39.8493 54.7771 39.6405 55.5428 37.97C56.3084 36.2994 53.907 33.4456 49.5219 37.2739L41.0996 43.5036Z" fill="#F4A28C"/>
<path d="M39.8467 44.4083L42.8745 49.0371L44.9279 46.8793L42.1437 42.7378L39.8467 44.4083Z" fill="white"/>
<path d="M52.4105 71.6243C53.5446 71.6243 54.4639 70.705 54.4639 69.5709C54.4639 68.4369 53.5446 67.5176 52.4105 67.5176C51.2765 67.5176 50.3572 68.4369 50.3572 69.5709C50.3572 70.705 51.2765 71.6243 52.4105 71.6243Z" stroke="#A5A5A5" stroke-width="3" stroke-miterlimit="10"/>
<path d="M91.2504 0H21.8884V4.83759H91.2504V0Z" fill="#C9C9C9"/>
<path d="M82.863 12.668H43.9883V15.6262H82.863V12.668Z" fill="#C9C9C9"/>
<path opacity="0.55" d="M82.863 18.689H43.9883V21.6472H82.863V18.689Z" fill="#C9C9C9"/>
<path d="M82.0974 24.6753H63.6868V47.9584H82.0974V24.6753Z" fill="#C9C9C9"/>
<path d="M65.3223 44.826L70.4383 33.0278L74.371 42.1462L76.8072 36.9257L80.0438 44.826H65.3223Z" fill="white"/>
<path d="M74.2318 32.2273C75.3659 32.2273 76.2852 31.308 76.2852 30.174C76.2852 29.0399 75.3659 28.1206 74.2318 28.1206C73.0978 28.1206 72.1785 29.0399 72.1785 30.174C72.1785 31.308 73.0978 32.2273 74.2318 32.2273Z" fill="white"/>
<path d="M52.4106 67.5174V60.3828" stroke="#A5A5A5" stroke-width="3" stroke-miterlimit="10"/>
<path opacity="0.57" d="M82.0974 50.5337H63.6868V53.9096H82.0974V50.5337Z" fill="white"/>
<path d="M21.4013 19.2459C21.4013 19.2459 22.3062 21.7865 23.5939 22.1345C24.8816 22.4825 26.7261 22.6566 26.5173 20.4292C26.3781 19.0719 24.812 19.5591 23.0022 19.9419C23.0022 19.9419 22.1321 18.2366 22.3062 17.1229C22.3062 17.1229 23.4547 16.9141 23.3502 15.87C23.3502 15.87 25.9953 17.3317 26.5521 15.87C27.1089 14.4083 27.0045 13.573 25.7516 13.051C24.4987 12.5289 21.0185 12.877 20.1484 14.4431C19.3131 16.044 21.4013 19.2459 21.4013 19.2459Z" fill="#24285B"/>
<path d="M21.645 18.8629C21.7842 18.4453 21.645 17.9581 21.297 17.6796C21.0534 17.4708 20.7053 17.436 20.4269 17.5752C19.522 17.9929 20.1833 19.7678 21.471 19.4894L21.645 18.8629Z" fill="#F4A28C"/>
</svg>
