<svg width="112" height="90" viewBox="0 0 112 90" fill="none" xmlns="http://www.w3.org/2000/svg">
<path opacity="0.45" d="M20.5407 90.0001C31.8849 90.0001 41.0813 88.2646 41.0813 86.1238C41.0813 83.983 31.8849 82.2476 20.5407 82.2476C9.19636 82.2476 0 83.983 0 86.1238C0 88.2646 9.19636 90.0001 20.5407 90.0001Z" fill="#E6E6E6"/>
<path d="M97.3054 20.8428H21.5549V70.6185H97.3054V20.8428Z" fill="#E6E6E6"/>
<path d="M25.2139 25.3711C25.8942 25.3711 26.4456 24.8197 26.4456 24.1394C26.4456 23.4592 25.8942 22.9077 25.2139 22.9077C24.5336 22.9077 23.9822 23.4592 23.9822 24.1394C23.9822 24.8197 24.5336 25.3711 25.2139 25.3711Z" fill="#24285B"/>
<path d="M28.909 25.3711C29.5892 25.3711 30.1407 24.8197 30.1407 24.1394C30.1407 23.4592 29.5892 22.9077 28.909 22.9077C28.2287 22.9077 27.6772 23.4592 27.6772 24.1394C27.6772 24.8197 28.2287 25.3711 28.909 25.3711Z" fill="#588A40"/>
<path d="M32.3506 25.3711C33.0309 25.3711 33.5823 24.8197 33.5823 24.1394C33.5823 23.4592 33.0309 22.9077 32.3506 22.9077C31.6704 22.9077 31.1189 23.4592 31.1189 24.1394C31.1189 24.8197 31.6704 25.3711 32.3506 25.3711Z" fill="#FFD200"/>
<path opacity="0.08" d="M85.0244 20.8428L67.2008 20.9152L64.3389 24.9364L37.4585 49.6432L39.6684 53.9542L32.1332 56.9248H24.7066L23.7285 70.6185H32.3505L33.5822 62.6124C40.7914 61.6705 45.5371 55.041 45.5371 55.041L76.9096 41.637L72.9246 32.4716L78.2138 29.9357L78.5036 31.6022C78.5036 31.6022 81.3655 30.8052 81.2568 28.1244C81.1482 25.4436 80.8946 22.1107 85.0244 20.8428Z" fill="black"/>
<path d="M70.3164 10.7356C69.8817 14.2496 68.0703 21.495 60.6438 24.7192L61.7306 26.5305C61.7306 26.5305 72.0915 23.2701 74.5912 14.9379C75.7142 11.2065 74.9897 9.57633 73.8666 8.88802C72.7074 8.23594 71.2583 8.67066 70.6424 9.82992C70.4251 10.1197 70.3164 10.4096 70.3164 10.7356Z" fill="#588A40"/>
<path opacity="0.2" d="M70.3164 10.7356C69.8817 14.2496 68.0703 21.495 60.6438 24.7192L61.7306 26.5305C61.7306 26.5305 72.0915 23.2701 74.5912 14.9379C75.7142 11.2065 74.9897 9.57633 73.8666 8.88802C72.7074 8.23594 71.2583 8.67066 70.6424 9.82992C70.4251 10.1197 70.3164 10.4096 70.3164 10.7356Z" fill="white"/>
<path d="M71.2583 5.15654L73.0334 7.33016L74.5912 5.66372L71.7655 3.16406L71.2583 5.15654Z" fill="#F4A28C"/>
<path d="M69.9904 1.17152C69.0847 1.02661 68.2515 1.64247 68.1066 2.54814C68.0703 2.7655 68.0703 3.01909 68.1428 3.23645C68.4688 4.50439 69.1934 6.24328 70.5338 5.62743C72.5987 4.72175 71.5119 2.00474 71.5119 2.00474C71.1134 1.60624 70.57 1.31643 69.9904 1.17152Z" fill="#F4A28C"/>
<path d="M72.7436 18.1621L69.2296 19.9735C67.9979 20.6255 67.4907 22.1471 68.1428 23.3788C68.1428 23.415 68.179 23.415 68.179 23.4512L71.367 28.9577L72.9248 27.8709L71.1134 22.8716C71.0047 22.5456 71.1496 22.1833 71.4757 22.0746C71.5119 22.0746 71.5119 22.0746 71.5481 22.0384L75.0621 21.1689L74.4463 22.8354C74.0478 23.886 74.1927 25.0814 74.8086 26.0233L78.069 30.8778L79.3007 30.117L77.7429 25.806C77.3807 24.8279 77.598 23.7773 78.2863 23.0165L79.989 21.1689L72.7436 18.1621Z" fill="#24285B"/>
<path d="M106.942 62.395H85.749V75.799H106.942V62.395Z" fill="#F2F2F2"/>
<path opacity="0.08" d="M85.7853 62.395H82.3438V70.6185H85.7853V62.395Z" fill="black"/>
<path d="M67.3458 1.64253C67.3458 1.64253 66.7661 3.4901 68.7586 3.01915C70.7511 2.5482 70.6062 1.93235 70.6062 1.93235C70.6062 1.93235 70.7511 4.10596 71.7654 3.63501C72.7798 3.16406 72.2002 1.96857 71.7654 1.17158C71.3307 0.374589 71.0771 0.121001 69.9541 0.0123199C68.8311 -0.0963608 67.4907 0.519497 67.3458 1.64253Z" fill="#24285B"/>
<path d="M70.6425 3.20021C70.6425 3.20021 70.5701 2.58436 71.1497 2.69304C71.7294 2.80172 71.512 3.67116 71.1497 3.74362C70.7875 3.81607 70.6425 3.20021 70.6425 3.20021Z" fill="#F4A28C"/>
<path d="M18.1135 50.3317L19.0192 52.9762L16.918 54.3166L16.1572 49.7158L18.1135 50.3317Z" fill="#F4A28C"/>
<path d="M15.4327 47.1437C15.795 46.3105 16.7731 45.912 17.6063 46.2743C17.8237 46.383 18.0048 46.4917 18.1497 46.6728C19.0554 47.6147 20.106 49.1724 18.9105 49.9694C17.0267 51.2374 15.324 48.8826 15.324 48.8826C15.1791 48.303 15.2153 47.6871 15.4327 47.1437Z" fill="#F4A28C"/>
<path d="M16.8093 48.7737C16.8093 48.7737 16.3384 48.3752 16.121 48.9548C15.9036 49.5345 16.7369 49.7881 16.9904 49.4982C17.244 49.2084 16.8093 48.7737 16.8093 48.7737Z" fill="#F4A28C"/>
<path d="M72.635 6.89536L74.5912 5.66364C74.5912 5.66364 80.8947 3.49003 82.8872 5.48251C84.8797 7.47499 85.0246 14.9377 79.9528 21.1688L72.7436 18.1619C72.7436 18.1619 72.8885 14.5755 71.6931 13.6698C70.4976 12.7641 69.0123 10.0471 72.635 6.89536Z" fill="#588A40"/>
<path d="M71.6931 28.7038C71.6931 28.7038 71.2946 30.5514 72.0191 30.4789C72.7437 30.4065 72.8886 27.8706 72.8886 27.8706L71.6931 28.7038Z" fill="#588A40"/>
<path d="M78.0691 30.8049C78.0691 30.8049 77.6706 32.6525 78.3951 32.58C79.1196 32.5076 79.2645 29.9717 79.2645 29.9717L78.0691 30.8049Z" fill="#588A40"/>
<path d="M88.0675 19.937C88.0675 19.937 86.8358 20.4442 87.3068 21.06C87.7777 21.6759 89.2993 20.8427 89.2993 20.8427L89.4079 19.937H88.0675Z" fill="#F4A28C"/>
<path d="M60.7524 24.9365C60.7524 24.9365 58.7599 25.0814 59.1584 25.5524C59.3758 25.806 59.6294 25.9871 59.9192 26.132C59.9192 26.132 58.4701 27.7622 59.5207 28.0883C60.5713 28.4143 61.6218 26.3856 61.6218 26.3856L60.7524 24.9365Z" fill="#F4A28C"/>
<path d="M64.8572 23.9799L29.5291 40.2861L35.9969 54.299L71.3251 37.9928L64.8572 23.9799Z" fill="#FFD200"/>
<path opacity="0.58" d="M61.9508 29.7879L44.9973 37.5771L46.056 39.8815L63.0095 32.0923L61.9508 29.7879Z" fill="white"/>
<path opacity="0.58" d="M64.1471 34.5296L47.1936 42.3188L48.2523 44.6232L65.2058 36.834L64.1471 34.5296Z" fill="white"/>
<path d="M39.9582 48.3388C42.179 48.3388 43.9794 46.5384 43.9794 44.3176C43.9794 42.0967 42.179 40.2964 39.9582 40.2964C37.7374 40.2964 35.937 42.0967 35.937 44.3176C35.937 46.5384 37.7374 48.3388 39.9582 48.3388Z" fill="white"/>
<path d="M92.922 66.4888L90.1326 69.242L92.922 71.9953" stroke="#A5A5A5" stroke-width="2" stroke-linecap="round" stroke-linejoin="round"/>
<path d="M99.0444 66.4888L101.87 69.242L99.0444 71.9953" stroke="#A5A5A5" stroke-width="2" stroke-linecap="round" stroke-linejoin="round"/>
<path opacity="0.58" d="M57.9632 16.4593C57.9632 16.4593 54.4854 15.5174 53.7246 12.2932C53.7246 12.2932 59.1224 11.1702 59.2673 16.7491L57.9632 16.4593Z" fill="#588A40"/>
<path opacity="0.73" d="M58.3977 16.0969C58.3977 16.0969 55.9343 12.2569 58.0717 8.67041C58.0717 8.67041 62.1653 11.2425 60.3902 16.0969H58.3977Z" fill="#588A40"/>
<path d="M59.0137 16.0971C59.0137 16.0971 60.2816 12.0397 64.1579 11.2427C64.1579 11.2427 64.8824 13.8872 61.6582 16.0971H59.0137Z" fill="#588A40"/>
<path d="M97.0881 66.4888L94.3711 71.9953" stroke="#A5A5A5" stroke-width="2" stroke-linecap="round" stroke-linejoin="round"/>
<path opacity="0.63" d="M37.06 29.5737H26.4456V31.5662H37.06V29.5737Z" fill="#CECECE"/>
<path d="M16.447 53.7729C16.447 53.7729 10.216 57.5405 9.41898 66.3799C9.27407 67.9014 10.2522 69.2781 11.7375 69.6403L19.0191 71.4154L16.447 53.7729Z" fill="#588A40"/>
<path opacity="0.2" d="M16.447 53.7729C16.447 53.7729 10.216 57.5405 9.41898 66.3799C9.27407 67.9014 10.2522 69.2781 11.7375 69.6403L19.0191 71.4154L16.447 53.7729Z" fill="white"/>
<path d="M56.4778 16.0244L57.2023 20.8426H61.6582L62.2741 16.0244H56.4778Z" fill="#24285B"/>
<path d="M17.0628 48.0854C17.0628 48.0854 18.041 50.9473 16.3021 50.7662C14.5632 50.585 15.5051 49.3533 14.6719 48.0854C13.8386 46.8174 14.2734 45.948 15.5775 44.8612C16.1934 44.354 16.5919 44.1004 16.8093 43.8468C17.1353 43.4483 17.7149 43.4121 18.1134 43.7381C18.2221 43.8106 18.2946 43.9555 18.367 44.0642C18.838 45.1148 18.838 46.6001 17.0628 48.0854Z" fill="#24285B"/>
<path opacity="0.08" d="M97.2693 33.9932H81.3657V59.026H97.2693V33.9932Z" fill="black"/>
<path d="M17.7142 63.7513L5.71606 66.8438L7.93141 75.4389L19.9295 72.3464L17.7142 63.7513Z" fill="#FFD200"/>
<path opacity="0.08" d="M12.8242 64.8583L14.2008 70.6184L13.8386 73.7702L17.0628 72.9369L18.0409 70.3648L14.9254 64.3149L12.8242 64.8583Z" fill="black"/>
<path d="M14.9981 55.6569C15.6139 54.3165 16.737 53.3384 18.1498 52.9037C20.7944 52.1067 25.8662 50.4403 27.3515 52.9037C29.3802 56.309 26.2647 69.6767 26.2647 69.6767L17.3166 70.365C17.3166 70.365 12.3898 61.5257 14.9981 55.6569Z" fill="#588A40"/>
<path d="M26.2284 69.6768L25.0692 85.037H23.2216L21.5552 73.1183L17.4253 70.3651L26.2284 69.6768Z" fill="#24285B"/>
<path d="M17.4253 70.3647L14.8894 85.0366H16.8819L21.1567 72.8644L17.4253 70.3647Z" fill="#24285B"/>
<path d="M22.0259 54.9323C21.5912 53.5919 22.3519 52.179 23.6561 51.7443C23.9097 51.6719 24.127 51.6356 24.3806 51.6356C25.5037 51.5994 26.8441 51.7805 27.8222 52.6138C30.0683 54.4251 37.3861 55.6568 44.0156 49.6069L45.2836 51.5632C45.2836 51.5632 37.7846 61.3445 26.0108 58.5188C24.1995 58.1203 22.7142 56.8161 22.0621 55.041C22.0259 55.041 22.0259 54.9685 22.0259 54.9323Z" fill="#588A40"/>
<path opacity="0.2" d="M22.0259 54.9323C21.5912 53.5919 22.3519 52.179 23.6561 51.7443C23.9097 51.6719 24.127 51.6356 24.3806 51.6356C25.5037 51.5994 26.8441 51.7805 27.8222 52.6138C30.0683 54.4251 37.3861 55.6568 44.0156 49.6069L45.2836 51.5632C45.2836 51.5632 37.7846 61.3445 26.0108 58.5188C24.1995 58.1203 22.7142 56.8161 22.0621 55.041C22.0259 55.041 22.0259 54.9685 22.0259 54.9323Z" fill="white"/>
<path opacity="0.08" d="M18.9106 52.6499C18.9106 52.6499 14.7445 66.1263 26.808 66.9958L26.2284 69.6765L17.2804 70.3649C15.2154 66.7422 14.1648 62.6485 14.2735 58.4824C14.2735 58.4824 14.346 55.0409 16.7732 53.5194C17.4253 53.0846 18.1498 52.7948 18.9106 52.6499Z" fill="black"/>
<path d="M15.2515 85.0367L14.0198 85.9424C13.9111 86.0148 13.8749 86.196 13.9474 86.3047C13.9836 86.3771 14.0923 86.4133 14.1647 86.4133H16.2297C16.3746 86.4133 16.4832 86.3047 16.5195 86.1235V85.0005L15.2515 85.0367Z" fill="#588A40"/>
<path d="M24.9966 85.0366L26.1558 85.9423C26.2645 86.051 26.3007 86.1959 26.192 86.3408C26.1558 86.4132 26.0471 86.4495 25.9747 86.4495H24.4894C24.0547 86.4495 23.6924 86.0872 23.6924 85.6525V85.0366H24.9966Z" fill="#588A40"/>
<path d="M111.325 29.1387H85.0247V56.1639H111.325V29.1387Z" fill="#F2F2F2"/>
<path d="M106 35.8047H89.7703V36.7828H106V35.8047Z" fill="#A5A5A5"/>
<path d="M106 41.9268H89.7703V42.9049H106V41.9268Z" fill="#A5A5A5"/>
<path d="M106 48.0493H89.7703V49.0274H106V48.0493Z" fill="#A5A5A5"/>
<path d="M105.13 33.9932C105.927 33.9932 106.543 34.6452 106.543 35.406V37.1087C106.543 37.9057 105.891 38.5215 105.13 38.5215C104.333 38.5215 103.718 37.8694 103.718 37.1087V35.406C103.718 34.6452 104.37 33.9932 105.13 33.9932Z" fill="#24285B"/>
<path d="M98.7183 40.1152C99.5153 40.1152 100.131 40.7673 100.131 41.5281V43.2307C100.131 44.0277 99.479 44.6436 98.7183 44.6436C97.9213 44.6436 97.3054 43.9915 97.3054 43.2307V41.5281C97.3054 40.7673 97.9213 40.1152 98.7183 40.1152Z" fill="#588A40"/>
<path d="M94.3711 46.2739C95.1681 46.2739 95.7839 46.926 95.7839 47.6868V49.3894C95.7839 50.1864 95.1319 50.8023 94.3711 50.8023C93.5741 50.8023 92.9583 50.1502 92.9583 49.3894V47.6868C92.9583 46.8898 93.5741 46.2739 94.3711 46.2739Z" fill="#FFD200"/>
<path d="M77.4168 57.6133H47.7107V64.3877H77.4168V57.6133Z" fill="white"/>
<path d="M77.3807 57.6133H67.2734V64.3877H77.3807V57.6133Z" fill="#24285B"/>
<path d="M44.9575 51.0559C44.9575 51.0559 46.5153 51.5631 46.8413 49.2808L44.1968 49.8966L44.9575 51.0559Z" fill="#F4A28C"/>
<path opacity="0.08" d="M75.7141 19.3939C75.7141 19.3939 78.8659 18.778 79.9527 14.4308C81.0395 10.0836 78.7209 6.64201 80.967 6.09861C83.2131 5.55521 84.1188 11.2428 84.1188 11.2428C84.1188 11.2428 84.1912 15.6625 79.9527 21.169L75.7141 19.3939Z" fill="black"/>
<path d="M82.4161 5.08417C84.2637 5.73626 87.1618 7.04043 89.1181 9.28649C90.2411 10.5544 90.7483 12.2571 90.4947 13.9598L89.6253 19.9372H87.5241L87.6328 14.5032C87.6328 13.3077 86.872 12.2933 85.749 11.9311C83.5029 11.2427 80.0614 9.72122 80.0251 6.82306C80.0251 5.84494 80.7859 5.04795 81.764 5.01172C82.0176 5.01172 82.1988 5.04795 82.4161 5.08417Z" fill="#588A40"/>
<path opacity="0.2" d="M82.4161 5.08417C84.2637 5.73626 87.1618 7.04043 89.1181 9.28649C90.2411 10.5544 90.7483 12.2571 90.4947 13.9598L89.6253 19.9372H87.5241L87.6328 14.5032C87.6328 13.3077 86.872 12.2933 85.749 11.9311C83.5029 11.2427 80.0614 9.72122 80.0251 6.82306C80.0251 5.84494 80.7859 5.04795 81.764 5.01172C82.0176 5.01172 82.1988 5.04795 82.4161 5.08417Z" fill="white"/>
<path opacity="0.08" d="M77.2719 52.6499H63.7593V54.2801H77.2719V52.6499Z" fill="black"/>
</svg>
