<svg width="210" height="46" viewBox="0 0 210 46" fill="none" xmlns="http://www.w3.org/2000/svg">
<g clip-path="url(#clip0)">
<path d="M33.3838 36.6379L32.6598 35.6441L30.6945 32.9505C28.8068 33.8397 26.6605 34.3627 24.3849 34.3627C16.86 34.3627 10.8349 28.8971 10.8349 22.0978C10.8349 15.3508 16.86 9.83286 24.3849 9.83286C31.8323 9.83286 37.935 15.3508 37.935 22.0978C37.935 24.216 37.3402 26.1774 36.3059 27.9034C39.3314 28.4787 42.5379 30.2047 45.4082 33.2644C47.5286 29.9955 48.7699 26.1774 48.7699 22.0978C48.7957 9.88516 37.8833 0 24.4108 0C10.9383 0 0 9.88516 0 22.0716C0 34.2843 10.9124 44.1433 24.4108 44.1433C29.2205 44.1433 33.72 42.888 37.4954 40.6913C36.0214 39.593 34.625 38.2331 33.3838 36.6379Z" fill="url(#paint0_linear)"/>
<path d="M36.4093 41.3189C32.8666 43.1234 28.7809 44.1694 24.4108 44.1694C10.9125 44.1694 0 34.2843 0 22.0716C0 9.88516 10.9125 0 24.4108 0C26.8932 0 29.2981 0.339966 31.5478 0.967595C30.9014 0.889142 30.229 0.86299 29.5567 0.86299C18.3081 0.86299 8.92132 10.3297 8.92132 21.7055C8.92132 33.0551 18.3081 42.548 29.5308 42.548C31.9357 42.548 34.263 42.1035 36.4093 41.3189Z" fill="url(#paint1_linear)"/>
<path d="M23.5057 31.3553L27.9276 37.4486L28.6517 38.4423C34.0044 45.3985 42.3827 48.0398 47.5804 44.1694L42.7706 37.5532C36.6679 29.1325 28.3155 27.7988 23.5057 31.3553Z" fill="url(#paint2_linear)"/>
<path d="M85.4636 16.3184C85.4636 25.2359 77.3957 32.6367 67.9054 32.6367C67.7503 32.6367 64.2852 32.6367 64.2852 32.6367C64.2852 32.6367 51.3816 31.5122 51.3816 45.9738C51.3816 45.9738 43.9343 20.7379 64.3886 20.7379C71.8619 20.7379 67.7244 20.7379 67.7244 20.7379C70.3879 20.7379 72.56 18.7243 72.56 16.2922C72.56 13.834 70.3879 11.8465 67.7244 11.8465H62.1906C55.1053 11.8465 49.287 6.51165 49.287 -0.0261536H67.7503C77.4991 -2.34134e-06 85.4636 7.34849 85.4636 16.3184Z" fill="url(#paint3_linear)"/>
<path d="M85.4636 16.3184C85.4636 32.6367 67.9054 32.6367 67.9054 32.6367C80.7573 32.6367 85.4636 11.8465 67.7503 11.8465H58.2859C51.2006 11.8727 45.4082 6.53781 45.4082 0H67.7503C77.4991 0 85.4636 7.34849 85.4636 16.3184Z" fill="url(#paint4_linear)"/>
<path d="M120.347 20.8948L117.477 23.9545L114.658 21.0779C114.012 21.3655 113.339 21.6009 112.615 21.784C111.607 22.0455 110.547 22.1501 109.487 22.1501C106.125 22.1501 103.487 21.1563 101.574 19.195C99.5826 17.1814 98.5999 14.4093 98.5999 10.9051C98.5999 7.61 99.6084 4.96873 101.6 2.98124C103.617 0.993746 106.228 0 109.487 0C112.796 0 115.46 1.0722 117.477 3.19045C119.416 5.23024 120.399 7.81921 120.399 10.9574C120.399 12.2911 120.192 13.6248 119.804 14.9585C119.39 16.2922 118.796 17.4429 117.994 18.4628L120.347 20.8948ZM108.194 14.4355L111.09 11.3758L113.314 13.6509C113.495 12.9449 113.598 12.0557 113.598 10.9574C113.598 9.15293 113.236 7.71461 112.512 6.69471C111.788 5.67481 110.754 5.15179 109.461 5.15179C108.064 5.15179 107.004 5.77942 106.306 7.06083C105.737 8.10688 105.427 9.41444 105.427 10.9835C105.427 12.631 105.685 13.9648 106.228 15.0108C106.926 16.3445 108.013 17.0244 109.487 17.0244C109.642 17.0244 109.797 16.9983 109.952 16.9721C110.107 16.946 110.288 16.8937 110.521 16.8152L108.194 14.4355Z" fill="white"/>
<path d="M139.405 6.27631V21.5748H133.82V19.3519C133.096 20.398 132.32 21.1041 131.518 21.4963C130.717 21.8886 129.656 22.0716 128.364 22.0716C126.657 22.0716 125.338 21.5486 124.407 20.5287C123.424 19.4304 122.933 17.809 122.933 15.6384V6.27631H128.932V14.5401C128.932 15.56 129.113 16.2922 129.45 16.7106C129.786 17.1291 130.355 17.3121 131.105 17.3121C132.63 17.3121 133.38 16.083 133.38 13.6248V6.27631H139.405Z" fill="white"/>
<path d="M159.136 21.6009H152.929L152.645 19.9534C151.843 20.7379 150.99 21.2871 150.085 21.6009C149.18 21.9147 148.146 22.0716 146.956 22.0716C145.404 22.0716 144.163 21.7055 143.181 20.9471C142.095 20.1365 141.552 18.9596 141.552 17.4429C141.552 15.4292 142.482 14.0432 144.318 13.2587C145.068 12.9449 146.801 12.6049 149.516 12.2388C151.378 11.9773 152.309 11.5065 152.309 10.7743C152.309 10.2774 152.076 9.93747 151.585 9.72826C151.249 9.59751 150.835 9.51905 150.344 9.51905C149.775 9.51905 149.361 9.59751 149.051 9.75441C148.559 9.98978 148.301 10.4082 148.249 11.0097H142.482C142.482 9.30984 143.103 8.05458 144.37 7.21775C145.689 6.3286 147.835 5.88403 150.757 5.88403C154.016 5.88403 156.162 6.48551 157.222 7.66232C157.972 8.49916 158.36 10.0159 158.36 12.2126V19.3519C158.36 19.8749 158.386 20.2672 158.463 20.5026C158.541 20.7379 158.774 20.9994 159.161 21.3133V21.6009H159.136ZM149.645 18.5935C150.628 18.5935 151.326 18.2274 151.766 17.5213C152.128 16.8937 152.309 16.0046 152.309 14.8278C150.912 15.2462 149.904 15.5077 149.309 15.6646C148.275 15.9523 147.758 16.5014 147.758 17.3121C147.758 17.7044 147.913 18.0182 148.249 18.2536C148.559 18.4628 149.025 18.5935 149.645 18.5935Z" fill="white"/>
<path d="M167.876 21.6009H161.877V0.575317H167.876V21.6009Z" fill="white"/>
<path d="M171.496 4.31495V0H177.495V4.31495H171.496ZM177.495 21.6009H171.496V6.27629H177.495V21.6009Z" fill="white"/>
<path d="M190.709 17.2337V21.5748C186.624 21.5748 184.167 21.3394 183.339 20.8687C182.357 20.3195 181.866 18.7504 181.866 16.1615V9.78057H179.719V6.27631H181.943V1.51678H187.865V6.27631H190.761V9.78057H187.865V15.3246C187.865 16.083 187.968 16.5799 188.201 16.8414C188.434 17.1029 188.925 17.2337 189.752 17.2337H190.709Z" fill="white"/>
<path d="M198.363 6.27631L201.027 15.7169L203.639 6.27631H209.405L204.544 20.5549C203.665 23.1438 202.889 24.7652 202.165 25.4452C201.208 26.3343 199.475 26.7789 196.967 26.7789C196.579 26.7789 196.165 26.7527 195.7 26.7266C195.235 26.7004 194.769 26.6743 194.304 26.6481V22.4378L195.545 22.4639C196.864 22.4639 197.51 22.0978 197.51 21.3656C197.51 21.0779 197.433 20.6856 197.252 20.2149L192.313 6.27631H198.363Z" fill="white"/>
<path d="M100.876 45.6862H98.9361V31.2245H105.375C108.013 31.2245 109.616 32.9505 109.616 35.278C109.616 37.2916 108.478 39.5929 105.375 39.5929H100.85V45.6862H100.876ZM100.876 37.9193H104.728C106.461 37.9193 107.651 37.2655 107.651 35.3041C107.651 33.4997 106.409 32.8982 104.806 32.8982H100.876V37.9193Z" fill="white"/>
<path d="M120.528 42.365C120.14 43.9864 119.054 45.9739 115.848 45.9739C112.926 45.9739 111.219 43.751 111.219 40.6913C111.219 37.3963 112.745 34.8334 116.21 34.8334C119.209 34.8334 120.683 37.2655 120.683 40.979H113.107C113.107 43.1495 114.115 44.4309 116.132 44.4309C117.761 44.4309 118.822 43.1234 118.822 42.365H120.528ZM118.873 39.593C118.77 37.9454 118.097 36.4548 115.925 36.4548C114.322 36.4548 113.055 37.9716 113.055 39.593H118.873Z" fill="white"/>
<path d="M124.304 35.1472V36.8994H124.355C125.054 35.6964 125.959 34.8596 127.303 34.8596C127.51 34.8596 127.614 34.8857 127.769 34.9119V36.7425H127.071C125.441 36.7425 124.433 38.05 124.433 39.5668V45.6862H122.675V35.1472H124.304Z" fill="white"/>
<path d="M133.147 32.6367C132.941 32.6106 132.682 32.6106 132.449 32.6106C131.699 32.6106 131.415 32.9767 131.415 33.8397V35.1472H133.173V36.6117H131.415V45.6862H129.656V36.6117H128.234V35.1472H129.656V33.3428C129.656 31.7214 130.639 31.0154 132.346 31.0154C132.604 31.0154 132.941 31.0415 133.147 31.12V32.6367Z" fill="white"/>
<path d="M139.017 34.8334C142.353 34.8334 143.853 37.6839 143.853 40.4036C143.853 43.1234 142.353 45.9739 139.017 45.9739C135.682 45.9739 134.182 43.0972 134.182 40.4036C134.182 37.6839 135.682 34.8334 139.017 34.8334ZM139.017 44.4571C141.526 44.4571 142.043 41.8158 142.043 40.4036C142.043 38.9915 141.5 36.3764 139.017 36.3764C136.509 36.3764 135.992 38.9915 135.992 40.4036C135.992 41.8158 136.509 44.4571 139.017 44.4571Z" fill="white"/>
<path d="M147.473 35.1472V36.8994H147.525C148.223 35.6964 149.128 34.8596 150.473 34.8596C150.68 34.8596 150.783 34.8857 150.938 34.9119V36.7425H150.24C148.611 36.7425 147.603 38.05 147.603 39.5668V45.6862H145.844V35.1472H147.473Z" fill="white"/>
<path d="M154.041 35.1472V36.6379H154.093C154.455 36.0887 155.386 34.8334 157.248 34.8334C159.11 34.8334 159.73 35.9841 160.015 36.5594C160.894 35.5918 161.592 34.8334 163.195 34.8334C164.307 34.8334 166.454 35.4349 166.454 38.39V45.6862H164.695V38.8607C164.695 37.4224 164.256 36.4287 162.756 36.4287C161.282 36.4287 160.325 37.8408 160.325 39.2268V45.66H158.515V38.3638C158.515 37.4747 158.153 36.4025 156.86 36.4025C155.877 36.4025 154.145 37.004 154.145 39.8806V45.66H152.386V35.1211H154.041V35.1472Z" fill="white"/>
<path d="M168.91 38.3377C168.91 35.801 170.617 34.8334 173.203 34.8334C174.03 34.8334 177.056 35.0688 177.056 37.7885V43.8033C177.056 44.2479 177.263 44.4571 177.625 44.4571C177.78 44.4571 177.987 44.4048 178.194 44.3786V45.6862C177.909 45.7646 177.651 45.8954 177.237 45.8954C175.685 45.8954 175.453 45.0847 175.375 44.274C174.677 45.0063 173.642 46 171.6 46C169.686 46 168.341 44.7971 168.341 42.9403C168.341 41.6851 168.652 39.8283 172.324 39.5407C175.065 39.3314 175.271 39.0961 175.271 37.9977C175.271 36.8471 174.496 36.2979 172.841 36.2979C170.85 36.2979 170.565 37.527 170.488 38.3377H168.91ZM175.323 40.299C175.039 40.5083 174.625 40.6652 172.453 40.9528C171.6 41.0836 170.203 41.3189 170.203 42.6527C170.203 43.8033 170.824 44.5094 172.117 44.5094C173.746 44.5094 175.323 43.4633 175.323 42.025V40.299Z" fill="white"/>
<path d="M181.659 35.1472V36.6379H181.71C182.072 36.0887 183.055 34.8334 184.839 34.8334C186.468 34.8334 188.485 35.5134 188.485 38.4946V45.66H186.727V39.1745C186.727 37.3701 186.21 36.4287 184.503 36.4287C183.52 36.4287 181.762 37.0563 181.762 39.9329V45.6862H180.004V35.1472H181.659Z" fill="white"/>
<path d="M197.691 38.6777C197.484 37.2655 196.709 36.4287 195.235 36.4287C193.062 36.4287 192.39 38.5208 192.39 40.4036C192.39 42.2081 192.83 44.4571 195.235 44.4571C196.424 44.4571 197.433 43.5941 197.717 41.9727H199.424C199.243 43.6464 198.234 46 195.183 46C192.261 46 190.528 43.7772 190.528 40.7175C190.528 37.4747 192.08 34.8596 195.519 34.8596C198.26 34.8596 199.294 36.8732 199.424 38.7038H197.691V38.6777Z" fill="white"/>
<path d="M209.871 42.365C209.483 43.9864 208.397 45.9739 205.19 45.9739C202.268 45.9739 200.561 43.751 200.561 40.6913C200.561 37.3963 202.087 34.8334 205.552 34.8334C208.552 34.8334 210.026 37.2655 210.026 40.979H202.449C202.449 43.1495 203.458 44.4309 205.475 44.4309C207.104 44.4309 208.164 43.1234 208.164 42.365H209.871ZM208.216 39.593C208.112 37.9454 207.414 36.4548 205.268 36.4548C203.665 36.4548 202.397 37.9716 202.397 39.593H208.216Z" fill="white"/>
</g>
<defs>
<linearGradient id="paint0_linear" x1="53.0563" y1="16.457" x2="3.21192" y2="26.0248" gradientUnits="userSpaceOnUse">
<stop stop-color="#B0CC36"/>
<stop offset="0.0249433" stop-color="#A8C93B"/>
<stop offset="0.0430108" stop-color="#A3C73E"/>
<stop offset="0.0596026" stop-color="#9EC541"/>
<stop offset="0.0752688" stop-color="#99C344"/>
<stop offset="0.093819" stop-color="#94C147"/>
<stop offset="0.1134" stop-color="#8EBF4A"/>
<stop offset="0.1398" stop-color="#86BD4F"/>
<stop offset="0.1655" stop-color="#81BB51"/>
<stop offset="0.1935" stop-color="#7BB954"/>
<stop offset="0.2075" stop-color="#78B855"/>
<stop offset="0.2312" stop-color="#74B757"/>
<stop offset="0.2494" stop-color="#71B658"/>
<stop offset="0.2721" stop-color="#6EB559"/>
<stop offset="0.2947" stop-color="#6DB559"/>
<stop offset="0.3125" stop-color="#6CB55A"/>
<stop offset="0.3322" stop-color="#6BB55B"/>
<stop offset="0.3469" stop-color="#6BB45D"/>
<stop offset="0.3642" stop-color="#6AB45E"/>
<stop offset="0.3871" stop-color="#69B460"/>
<stop offset="0.4095" stop-color="#68B362"/>
<stop offset="0.4286" stop-color="#67B364"/>
<stop offset="0.4677" stop-color="#65B367"/>
<stop offset="0.4966" stop-color="#64B26A"/>
<stop offset="0.5269" stop-color="#62B26D"/>
<stop offset="0.5519" stop-color="#61B16F"/>
<stop offset="0.5714" stop-color="#60B170"/>
<stop offset="0.6022" stop-color="#5FB173"/>
<stop offset="0.6259" stop-color="#5DB075"/>
<stop offset="0.6613" stop-color="#5BB078"/>
<stop offset="0.678" stop-color="#5BB07A"/>
<stop offset="0.7098" stop-color="#59AF7C"/>
<stop offset="0.7473" stop-color="#57AF7F"/>
<stop offset="0.7778" stop-color="#55AE81"/>
<stop offset="0.8172" stop-color="#53AE84"/>
<stop offset="0.8322" stop-color="#52AE85"/>
<stop offset="0.8594" stop-color="#51AD87"/>
<stop offset="0.8925" stop-color="#4FAD8A"/>
<stop offset="0.9301" stop-color="#4FAD8A"/>
<stop offset="0.9569" stop-color="#4FAD8A"/>
<stop offset="0.9892" stop-color="#4FAD8A"/>
</linearGradient>
<linearGradient id="paint1_linear" x1="27.7243" y1="39.2505" x2="0.845217" y2="-16.7391" gradientUnits="userSpaceOnUse">
<stop stop-color="#FEDD2F"/>
<stop offset="0.0404762" stop-color="#FDD72E"/>
<stop offset="0.0860215" stop-color="#FCD12B"/>
<stop offset="0.1398" stop-color="#FBC929"/>
<stop offset="0.1774" stop-color="#FAC428"/>
<stop offset="0.2262" stop-color="#F9BD26"/>
<stop offset="0.2688" stop-color="#F9B724"/>
<stop offset="0.2952" stop-color="#F8B423"/>
<stop offset="0.328" stop-color="#F8B023"/>
<stop offset="0.3476" stop-color="#F8AF23"/>
<stop offset="0.3738" stop-color="#F7AE23"/>
<stop offset="0.4194" stop-color="#F7AB24"/>
<stop offset="0.4571" stop-color="#F7A824"/>
<stop offset="0.4946" stop-color="#F7A524"/>
<stop offset="0.5376" stop-color="#F6A125"/>
<stop offset="0.5643" stop-color="#F69E25"/>
<stop offset="0.5968" stop-color="#F69B25"/>
<stop offset="0.6238" stop-color="#F59926"/>
<stop offset="0.65" stop-color="#F59626"/>
<stop offset="0.6935" stop-color="#F59226"/>
<stop offset="0.7167" stop-color="#F58F26"/>
<stop offset="0.7473" stop-color="#F58C27"/>
<stop offset="0.7903" stop-color="#F48727"/>
<stop offset="0.8167" stop-color="#F48427"/>
<stop offset="0.8495" stop-color="#F48027"/>
<stop offset="0.8857" stop-color="#F37C27"/>
<stop offset="0.9301" stop-color="#F37727"/>
<stop offset="0.9667" stop-color="#F37228"/>
<stop offset="1" stop-color="#F36E28"/>
</linearGradient>
<linearGradient id="paint2_linear" x1="55.8542" y1="55.2656" x2="16.4816" y2="21.8963" gradientUnits="userSpaceOnUse">
<stop offset="0.00226757" stop-color="#E13B31"/>
<stop offset="0.0215054" stop-color="#E13B31"/>
<stop offset="0.0408163" stop-color="#E13B31"/>
<stop offset="0.0612245" stop-color="#E13B31"/>
<stop offset="0.0837766" stop-color="#E13B31"/>
<stop offset="0.1075" stop-color="#E13B31"/>
<stop offset="0.1293" stop-color="#E03A31"/>
<stop offset="0.1519" stop-color="#DE3931"/>
<stop offset="0.1769" stop-color="#DD3931"/>
<stop offset="0.1935" stop-color="#DC3831"/>
<stop offset="0.2222" stop-color="#DA3731"/>
<stop offset="0.242" stop-color="#D93731"/>
<stop offset="0.2581" stop-color="#D83731"/>
<stop offset="0.2834" stop-color="#D73631"/>
<stop offset="0.3118" stop-color="#D53532"/>
<stop offset="0.3379" stop-color="#D33532"/>
<stop offset="0.3637" stop-color="#D23432"/>
<stop offset="0.379" stop-color="#D13432"/>
<stop offset="0.3991" stop-color="#CF3332"/>
<stop offset="0.4247" stop-color="#CD3332"/>
<stop offset="0.449" stop-color="#CC3232"/>
<stop offset="0.4739" stop-color="#CA3132"/>
<stop offset="0.492" stop-color="#C93132"/>
<stop offset="0.5108" stop-color="#C83132"/>
<stop offset="0.5346" stop-color="#C63032"/>
<stop offset="0.5556" stop-color="#C53032"/>
<stop offset="0.5914" stop-color="#C32F32"/>
<stop offset="0.6259" stop-color="#C22F32"/>
<stop offset="0.6503" stop-color="#C12E32"/>
<stop offset="0.6667" stop-color="#C02E32"/>
<stop offset="0.7043" stop-color="#BE2E32"/>
<stop offset="0.7279" stop-color="#BD2D32"/>
<stop offset="0.7581" stop-color="#BC2D32"/>
<stop offset="0.7959" stop-color="#BB2C32"/>
<stop offset="0.8205" stop-color="#BA2C32"/>
<stop offset="0.8441" stop-color="#BA2C32"/>
<stop offset="0.873" stop-color="#B92C32"/>
<stop offset="0.9086" stop-color="#B82B32"/>
<stop offset="0.9524" stop-color="#B72B32"/>
<stop offset="0.9747" stop-color="#B72B32"/>
<stop offset="1" stop-color="#B72B32"/>
</linearGradient>
<linearGradient id="paint3_linear" x1="42.3276" y1="37.7096" x2="70.9923" y2="8.04905" gradientUnits="userSpaceOnUse">
<stop stop-color="#E02A61"/>
<stop offset="0.0272109" stop-color="#E22B69"/>
<stop offset="0.0537634" stop-color="#E52C70"/>
<stop offset="0.0734095" stop-color="#E72C74"/>
<stop offset="0.0929705" stop-color="#E92D79"/>
<stop offset="0.106" stop-color="#EB2E7C"/>
<stop offset="0.129" stop-color="#EE2E81"/>
<stop offset="0.1436" stop-color="#EC2E7F"/>
<stop offset="0.161" stop-color="#EB2D7C"/>
<stop offset="0.1724" stop-color="#EA2D7A"/>
<stop offset="0.1882" stop-color="#E82D77"/>
<stop offset="0.2039" stop-color="#E72C75"/>
<stop offset="0.217" stop-color="#E62C73"/>
<stop offset="0.2366" stop-color="#E52C6F"/>
<stop offset="0.2486" stop-color="#E42B6D"/>
<stop offset="0.263" stop-color="#E32B6B"/>
<stop offset="0.288" stop-color="#E22A67"/>
<stop offset="0.3002" stop-color="#E12A64"/>
<stop offset="0.3172" stop-color="#E02A61"/>
<stop offset="0.3279" stop-color="#DF2A61"/>
<stop offset="0.3469" stop-color="#DE2A60"/>
<stop offset="0.367" stop-color="#DC2B5F"/>
<stop offset="0.3871" stop-color="#DB2B5D"/>
<stop offset="0.4033" stop-color="#DA2B5D"/>
<stop offset="0.4195" stop-color="#D92C5C"/>
<stop offset="0.4356" stop-color="#D82C5B"/>
<stop offset="0.4624" stop-color="#D72C5A"/>
<stop offset="0.483" stop-color="#D52D59"/>
<stop offset="0.5102" stop-color="#D42D57"/>
<stop offset="0.5302" stop-color="#D32E56"/>
<stop offset="0.5538" stop-color="#D22E55"/>
<stop offset="0.5805" stop-color="#D12E54"/>
<stop offset="0.5938" stop-color="#D02F53"/>
<stop offset="0.6122" stop-color="#CF2F52"/>
<stop offset="0.6237" stop-color="#CE2F52"/>
<stop offset="0.6553" stop-color="#CD3050"/>
<stop offset="0.677" stop-color="#CC304F"/>
<stop offset="0.7043" stop-color="#CA304E"/>
<stop offset="0.7357" stop-color="#C9314D"/>
<stop offset="0.7527" stop-color="#C8314C"/>
<stop offset="0.7823" stop-color="#C7314A"/>
<stop offset="0.8172" stop-color="#C63249"/>
<stop offset="0.8503" stop-color="#C43247"/>
<stop offset="0.8646" stop-color="#C43247"/>
<stop offset="0.8925" stop-color="#C23345"/>
<stop offset="0.9135" stop-color="#C23344"/>
<stop offset="0.9355" stop-color="#C13343"/>
<stop offset="0.9683" stop-color="#C03342"/>
<stop offset="1" stop-color="#BF3441"/>
</linearGradient>
<linearGradient id="paint4_linear" x1="75.6662" y1="21.8256" x2="52.5491" y2="-9.82531" gradientUnits="userSpaceOnUse">
<stop stop-color="#3FB8B5"/>
<stop offset="0.0212072" stop-color="#3FB6B4"/>
<stop offset="0.0375204" stop-color="#3EB4B3"/>
<stop offset="0.0515789" stop-color="#3EB3B2"/>
<stop offset="0.0652529" stop-color="#3EB1B1"/>
<stop offset="0.0806452" stop-color="#3DB0B1"/>
<stop offset="0.0915789" stop-color="#3DAFB0"/>
<stop offset="0.1028" stop-color="#3CAEAF"/>
<stop offset="0.1175" stop-color="#3CADAE"/>
<stop offset="0.1387" stop-color="#3BABAD"/>
<stop offset="0.1516" stop-color="#3BA9AC"/>
<stop offset="0.1613" stop-color="#3BA9AC"/>
<stop offset="0.1811" stop-color="#3AA7AB"/>
<stop offset="0.2023" stop-color="#3AA5AA"/>
<stop offset="0.2235" stop-color="#39A3A8"/>
<stop offset="0.2419" stop-color="#39A2A7"/>
<stop offset="0.2516" stop-color="#38A1A7"/>
<stop offset="0.2643" stop-color="#38A0A6"/>
<stop offset="0.279" stop-color="#389FA5"/>
<stop offset="0.2936" stop-color="#379EA5"/>
<stop offset="0.3063" stop-color="#379DA4"/>
<stop offset="0.3172" stop-color="#379CA4"/>
<stop offset="0.3279" stop-color="#369BA3"/>
<stop offset="0.3475" stop-color="#3698A1"/>
<stop offset="0.3589" stop-color="#3697A0"/>
<stop offset="0.3768" stop-color="#35959F"/>
<stop offset="0.3964" stop-color="#35929E"/>
<stop offset="0.4095" stop-color="#35919D"/>
<stop offset="0.4301" stop-color="#348F9C"/>
<stop offset="0.447" stop-color="#348D9B"/>
<stop offset="0.4649" stop-color="#348B9A"/>
<stop offset="0.4763" stop-color="#338A99"/>
<stop offset="0.4946" stop-color="#338898"/>
<stop offset="0.5155" stop-color="#338697"/>
<stop offset="0.5269" stop-color="#338596"/>
<stop offset="0.5389" stop-color="#328495"/>
<stop offset="0.5481" stop-color="#328395"/>
<stop offset="0.5645" stop-color="#328294"/>
<stop offset="0.5759" stop-color="#328194"/>
<stop offset="0.5922" stop-color="#328093"/>
<stop offset="0.6101" stop-color="#327E92"/>
<stop offset="0.6237" stop-color="#327D91"/>
<stop offset="0.6358" stop-color="#317C91"/>
<stop offset="0.6493" stop-color="#317B90"/>
<stop offset="0.6688" stop-color="#317A8F"/>
<stop offset="0.68" stop-color="#31798F"/>
<stop offset="0.6935" stop-color="#31788F"/>
<stop offset="0.7129" stop-color="#31778E"/>
<stop offset="0.7276" stop-color="#31768D"/>
<stop offset="0.7473" stop-color="#30758D"/>
<stop offset="0.7635" stop-color="#30748C"/>
<stop offset="0.7863" stop-color="#30738B"/>
<stop offset="0.8075" stop-color="#30728B"/>
<stop offset="0.8147" stop-color="#30728B"/>
<stop offset="0.8333" stop-color="#30718B"/>
<stop offset="0.8499" stop-color="#30718B"/>
<stop offset="0.8662" stop-color="#30718B"/>
<stop offset="0.8874" stop-color="#30718B"/>
<stop offset="0.9032" stop-color="#30718B"/>
<stop offset="0.9217" stop-color="#30718B"/>
<stop offset="0.9462" stop-color="#30718B"/>
<stop offset="0.9657" stop-color="#30718B"/>
<stop offset="0.9837" stop-color="#30718B"/>
<stop offset="1" stop-color="#30718B"/>
</linearGradient>
<clipPath id="clip0">
<rect width="210" height="46" fill="white"/>
</clipPath>
</defs>
</svg>
