<svg width="423" height="359" viewBox="0 0 423 359" fill="none" xmlns="http://www.w3.org/2000/svg">
<path opacity="0.18" d="M142.021 10.3073C118.657 22.8441 101.62 45.7984 94.0356 71.1594C89.5426 86.2108 88.1408 102.052 83.0367 116.888C68.4793 159.133 26.5324 186.613 8.66811 227.493C-1.32438 250.267 -3.01376 276.814 5.36124 300.235C13.7362 323.656 32.4991 343.413 55.9707 351.675C70.3484 356.74 85.8044 357.495 101.045 357.998C129.549 358.896 158.304 359.004 186.376 353.939C199.748 351.532 212.939 347.94 226.418 346.395C252.55 343.377 279.184 347.975 305.136 343.773C323.216 340.827 340.325 333.714 356.68 325.524C368.973 319.381 381.05 312.484 391.187 303.181C418.001 278.61 427.921 238.772 420.733 203.137C413.544 167.503 390.899 136.214 362.431 113.619C349.923 103.669 336.264 95.2632 323.144 86.1389C306.214 74.3924 290.147 61.4604 275.051 47.4867C238.891 14.0073 192.271 -16.6343 142.021 10.3073Z" fill="#4561B5"/>
<path opacity="0.44" d="M127.841 268.963L106.097 271.992C105.077 272.151 103.961 272.311 103.164 272.98C101.888 274.064 101.888 276.105 102.685 277.539C103.483 278.974 104.853 280.026 106.224 280.983C101.059 282.226 92.1004 281.939 92.3554 289.304C92.483 292.078 94.2046 294.501 96.7552 295.585C98.2856 296.191 99.9754 296.286 101.601 296.318C117.67 296.892 134.026 297.434 149.585 293.385C152.55 292.62 156.057 290.93 156.089 287.869C156.089 286.785 155.611 285.733 155.547 284.649C155.196 277.699 170.054 281.78 173.911 282.003C182.424 282.513 190.905 282.864 199.418 283.055C216.794 283.533 234.17 283.501 251.546 283.246C257.03 283.183 262.545 283.055 267.965 283.948C272.238 284.649 276.382 285.956 280.591 287.04C294.396 290.547 308.775 291.281 322.868 289.208C329.244 288.252 337.119 284.84 336.705 278.4C336.354 272.884 330.073 270.015 324.717 268.58C316.81 266.444 308.743 264.85 300.613 263.798C286.266 261.949 271.76 261.757 257.253 261.662C225.785 261.407 194.348 261.407 162.88 261.375C152.263 261.407 138.33 267.528 127.841 268.963Z" fill="#4561B5"/>
<path d="M170.596 260.163H258.401L242.874 204.336H183.699L170.596 260.163Z" fill="#4561B5"/>
<path d="M170.596 260.163H258.401L242.874 204.336H183.699L170.596 260.163Z" fill="url(#paint0_linear)"/>
<path d="M346.014 55.1574V199.108C346.014 207.812 338.968 214.858 330.264 214.858H102.749C94.0452 214.858 86.9991 207.812 86.9991 199.108V55.1574C86.9991 46.4534 94.0452 39.4073 102.749 39.4073H330.232C338.936 39.4073 346.014 46.4534 346.014 55.1574Z" fill="#4561B5"/>
<path d="M121.082 188.618C121.209 189.128 120.827 189.67 120.348 189.893C119.838 190.085 119.296 190.148 118.754 190.116L116.459 190.085C116.236 190.053 115.981 190.116 115.789 190.212C115.502 190.403 115.47 190.786 115.47 191.137L115.247 200.957C115.183 203.188 115.152 205.516 116.14 207.524C116.618 208.513 117.351 209.374 117.893 210.362C118.435 211.35 118.722 212.53 118.308 213.55C114.418 213.71 110.529 213.71 106.639 213.55C105.906 213.518 105.109 213.455 104.63 212.944C104.375 212.626 104.184 212.275 104.088 211.892C102.94 208.64 101.984 205.324 101.251 201.977C100.549 198.757 100.039 195.505 100.167 192.221C100.294 188.937 101.091 185.621 102.845 182.847C103.259 182.146 103.801 181.54 104.439 181.03C105.109 180.615 105.874 180.297 106.671 180.137C110.529 179.117 114.546 178.862 118.531 178.575C119.87 178.479 121.305 178.415 122.421 179.149C123.6 179.946 124.111 181.444 124.047 182.879C123.983 184.282 123.409 185.621 122.867 186.928" fill="url(#paint1_linear)"/>
<path d="M313.048 204.496C310.593 196.366 307.787 188.363 304.662 180.488C304.567 180.138 304.344 179.819 304.057 179.627C303.738 179.468 303.355 179.436 303.005 179.532L296.15 180.488C296.277 184.346 298.031 187.917 299.529 191.456C302.176 197.737 304.12 204.305 305.332 211.032C305.396 211.701 305.619 212.371 305.938 212.945C306.575 213.869 307.723 214.22 308.807 214.443C312.155 215.145 314.323 216.165 314.897 212.754C315.311 210.362 313.749 206.791 313.048 204.496Z" fill="url(#paint2_linear)"/>
<path d="M281.006 206.632L273.673 206.536C273.162 206.536 272.589 206.536 272.238 206.887C271.887 207.238 271.791 207.684 271.536 208.067C270.931 208.895 269.751 208.895 268.731 208.768C265.192 208.385 261.717 207.716 258.305 206.759L259.612 197.8C265.861 199.203 272.238 199.841 278.614 199.681L278.965 188.905L269.273 188.809C268.858 188.841 268.444 188.746 268.093 188.554C267.647 188.204 267.583 187.566 267.551 186.992C267.519 185.685 267.615 184.346 267.774 183.039C267.774 182.72 267.902 182.433 268.125 182.21C268.412 182.05 268.731 182.018 269.018 182.082C276.414 183.07 283.875 183.326 291.304 182.879C291.718 193.879 293.727 204.783 297.266 215.24C293.312 214.826 288.657 215.495 284.831 214.634C283.014 214.22 283.11 214.029 282.536 212.084C282.377 211.606 281.261 206.632 281.006 206.632Z" fill="url(#paint3_linear)"/>
<path d="M346.014 55.1574V181.413H86.9991V55.1574C86.9991 46.4534 94.0452 39.4073 102.749 39.4073H330.232C338.936 39.4073 346.014 46.4534 346.014 55.1574Z" fill="#473F47"/>
<path d="M111.868 174.367C114.897 176.439 118.021 178.575 121.624 179.213C122.07 179.277 122.58 179.372 122.803 179.787C122.963 180.137 122.963 180.52 122.867 180.871C122.325 183.421 121.56 185.94 120.572 188.363C115.311 187.694 110.274 185.908 105.746 183.134C105.045 182.688 104.311 182.21 103.865 181.476C103.419 180.743 103.323 179.787 103.259 178.894C103.068 176.471 102.717 172.996 104.152 170.828C105.3 169.138 105.906 170.254 107.436 171.306L111.868 174.367Z" fill="#4561B5"/>
<path d="M110.05 173.952C113.079 176.024 116.204 178.16 119.806 178.798C120.253 178.862 120.763 178.957 120.986 179.372C121.146 179.723 121.146 180.105 121.05 180.456C120.508 183.007 119.743 185.525 118.754 187.948C113.494 187.279 108.456 185.493 103.929 182.72C103.227 182.273 102.494 181.795 102.048 181.062C101.601 180.328 101.506 179.372 101.442 178.479C101.251 176.056 100.9 172.581 102.335 170.413C103.482 168.723 104.088 169.839 105.619 170.891L110.05 173.952Z" fill="url(#paint4_linear)"/>
<path d="M342.093 58.154V177.172H90.8888V58.154C90.8888 49.8007 97.7436 43.0416 106.161 43.0416H326.821C335.27 43.0416 342.093 49.8007 342.093 58.154Z" fill="white"/>
<path opacity="0.18" d="M342.093 58.154V177.172H90.8888V58.154C90.8888 49.8007 97.7436 43.0416 106.161 43.0416H326.821C335.27 43.0416 342.093 49.8007 342.093 58.154Z" fill="#4561B5"/>
<path d="M266.212 97.9117C266.212 95.0423 266.818 92.2366 268.029 89.6222L255.659 82.895C247.369 99.6972 254.256 120.07 271.09 128.36C273.226 129.412 275.49 130.241 277.785 130.815L280.304 116.946C271.919 114.363 266.212 106.648 266.212 97.9117Z" fill="#E13B31"/>
<path opacity="0.5" d="M315.248 115.351C307.532 128.2 292.324 134.481 277.785 130.814L280.272 116.914C282.153 117.487 284.13 117.806 286.107 117.806C292.898 117.806 299.211 114.331 302.877 108.624L315.248 115.351Z" fill="#E13B31"/>
<path d="M320.062 97.9115C320.062 104.065 318.404 110.091 315.248 115.351L302.877 108.624C308.807 99.3781 306.097 87.0714 296.819 81.1412C287.573 75.211 275.267 77.9211 269.336 87.1989C268.826 87.996 268.38 88.7931 267.997 89.6539L255.627 82.9267C263.916 66.1245 284.289 59.2059 301.092 67.4954C312.729 73.2024 320.062 84.999 320.062 97.9115Z" fill="white"/>
<path opacity="0.18" d="M195.337 58.6324H112.601V134.641H195.337V58.6324Z" fill="#4561B5"/>
<path d="M282.408 282.258C277.881 282.513 273.003 282.704 269.113 280.345C268.826 280.186 268.603 279.994 268.412 279.739C268.221 279.325 268.252 278.815 268.539 278.432C268.826 278.049 269.177 277.762 269.591 277.571C270.994 276.806 272.62 276.519 274.214 276.232C276.159 275.881 278.136 275.531 280.113 275.339C281.388 275.212 283.524 274.702 284.576 275.722C285.373 276.519 285.214 277.954 285.087 279.006C284.831 280.823 284.481 282.13 282.408 282.258Z" fill="white"/>
<path d="M312.506 277.124C308.935 279.93 305.013 282.863 300.486 283.118C300.167 283.15 299.848 283.118 299.561 282.991C299.147 282.768 298.924 282.321 298.924 281.843C298.924 281.397 299.051 280.918 299.306 280.536C300.039 279.101 301.187 277.953 302.335 276.806C303.738 275.403 305.173 274 306.671 272.725C307.628 271.896 309.126 270.238 310.561 270.493C311.677 270.684 312.378 271.991 312.824 272.884C313.685 274.606 314.132 275.849 312.506 277.124Z" fill="white"/>
<path d="M277.02 271.959C277.052 273.458 277.052 274.988 277.084 276.487C279.826 276.837 282.6 276.901 285.342 276.71C285.788 276.805 286.202 276.518 286.298 276.072C286.33 275.976 286.33 275.881 286.298 275.817C286.872 268.325 285.915 260.768 286.808 253.34C286.936 251.777 287.286 250.247 287.86 248.78C288.498 247.314 289.454 246.039 290.411 244.763C293.28 240.81 295.831 236.633 298.063 232.265C300.358 227.77 300.964 223.115 300.9 218.014C300.837 213.104 298.318 210.968 293.535 212.243C292.133 212.434 290.921 213.327 290.379 214.602C287.605 219.353 284.8 224.135 282.695 229.236C277.211 242.627 276.829 257.421 277.02 271.959Z" fill="#473F47"/>
<path d="M277.02 271.959C277.052 273.458 277.052 274.988 277.084 276.487C279.826 276.837 282.6 276.901 285.342 276.71C285.788 276.805 286.202 276.518 286.298 276.072C286.33 275.976 286.33 275.881 286.298 275.817C286.872 268.325 285.915 260.768 286.808 253.34C286.936 251.777 287.286 250.247 287.86 248.78C288.498 247.314 289.454 246.039 290.411 244.763C293.28 240.81 295.831 236.633 298.063 232.265C300.358 227.77 300.964 223.115 300.9 218.014C300.837 213.104 298.318 210.968 293.535 212.243C292.133 212.434 290.921 213.327 290.379 214.602C287.605 219.353 284.8 224.135 282.695 229.236C277.211 242.627 276.829 257.421 277.02 271.959Z" fill="url(#paint5_linear)"/>
<path d="M274.406 185.526C264.65 182.784 256.265 176.535 250.908 167.926C250.079 166.555 249.282 164.897 249.888 163.399C249.952 163.208 250.079 163.048 250.239 162.953C250.526 162.825 250.813 163.016 251.068 163.176L263.725 171.465C267.232 173.761 270.835 176.088 274.884 177.109C275.33 178.543 276.096 179.5 276.159 180.998C276.223 182.497 275.394 184.41 274.406 185.526Z" fill="#FFBBAB"/>
<path d="M269.751 86.9756H121.337V206.568H269.751V86.9756Z" fill="white"/>
<path opacity="0.16" d="M248.836 204.177C249.473 204.687 250.334 204.878 251.131 205.038C256.551 206.122 262.131 206.472 267.647 206.09C268.189 206.058 268.763 205.994 269.177 205.643C269.687 205.229 269.815 204.527 269.878 203.89C270.038 202.2 269.91 200.478 269.528 198.82C269.464 198.597 256.105 198.629 254.83 198.82C252.917 199.139 245.679 201.626 248.836 204.177Z" fill="#4561B5"/>
<path opacity="0.16" d="M133.675 156.927C133.867 158.011 133.899 159.095 133.739 160.179C133.42 161.709 132.432 163.016 131.539 164.292C127.458 169.967 124.27 176.248 122.07 182.879C121.082 179.276 121.114 175.514 121.146 171.784C121.114 170.477 121.209 169.17 121.464 167.862C121.847 166.077 122.74 164.419 123.505 162.761C124.716 160.147 125.609 157.437 126.183 154.631C126.597 152.654 127.299 147.617 130.423 147.968C133.038 148.223 133.388 154.95 133.675 156.927Z" fill="#4561B5"/>
<path d="M310.242 222.031C309.094 226.75 307.309 231.309 305.204 235.677C303.451 239.375 299.37 244.158 299.37 248.335C299.402 255.891 307.341 265.966 312.219 271.163C309.636 272.852 306.894 274.287 303.993 275.403C303.355 275.658 302.654 275.881 301.984 275.69C301.187 275.467 300.709 274.67 300.295 273.968L294.97 264.722C292.005 259.589 288.976 254.169 288.721 248.239C288.625 246.103 288.912 243.967 289.167 241.83C289.741 237.303 289.231 232.138 290.315 227.738C291.304 223.721 292.611 219.736 293.567 215.623C294.046 213.582 294.619 211.351 296.309 210.107C297.043 209.629 297.84 209.246 298.7 209.055C302.845 207.875 307.341 207.748 309.604 212.02C311.135 215.017 311.007 218.843 310.242 222.031Z" fill="#473F47"/>
<path d="M273.162 177.491C270.899 178.32 273.003 183.581 273.609 185.143C273.704 185.526 273.959 185.876 274.278 186.099C274.629 186.259 275.012 186.323 275.394 186.227C278.806 185.908 282.185 185.494 285.533 185.015C286.298 184.952 287.031 184.728 287.669 184.378C288.466 183.804 289.008 182.943 289.167 181.955C289.486 180.361 289.646 176.598 288.275 175.387C287.286 174.526 285.31 175.132 284.002 175.259C280.336 175.674 276.669 176.216 273.162 177.491Z" fill="#4561B5"/>
<path d="M273.162 177.491C270.899 178.32 273.003 183.581 273.609 185.143C273.704 185.526 273.959 185.876 274.278 186.099C274.629 186.259 275.012 186.323 275.394 186.227C278.806 185.908 282.185 185.494 285.533 185.015C286.298 184.952 287.031 184.728 287.669 184.378C288.466 183.804 289.008 182.943 289.167 181.955C289.486 180.361 289.646 176.598 288.275 175.387C287.286 174.526 285.31 175.132 284.002 175.259C280.336 175.674 276.669 176.216 273.162 177.491Z" fill="url(#paint6_linear)"/>
<path d="M279.762 158.042C279.348 158.712 278.551 159.094 278.295 159.828C277.977 160.72 278.582 161.645 278.901 162.506C279.348 163.749 279.22 165.12 279.635 166.364C279.698 166.619 279.858 166.874 280.081 167.065C280.272 167.193 280.495 167.288 280.75 167.32C281.675 167.511 282.6 167.575 283.556 167.48C283.747 167.448 283.939 167.48 284.098 167.543C284.226 167.671 284.321 167.83 284.353 168.022C284.895 170.381 284.863 172.804 284.258 175.131C284.066 175.897 283.843 176.821 284.417 177.395C284.608 177.586 284.863 177.714 285.15 177.746C286.936 178.16 288.625 176.853 289.837 175.482C290.921 174.239 291.814 172.9 292.579 171.433C292.802 171.019 292.962 170.604 293.057 170.126C293.089 169.52 292.993 168.946 292.802 168.372C292.292 166.427 292.005 164.451 291.878 162.442C291.75 159.891 291.941 157.213 290.953 154.854C290.666 154.025 290.124 153.324 289.391 152.845C288.594 152.367 287.573 152.367 286.617 152.399C284.768 152.463 282.695 152.718 281.452 154.089C281.006 154.567 280.24 157.213 279.762 158.042Z" fill="#FFBBAB"/>
<path d="M280.527 151.953C279.762 151.826 279.188 152.846 279.507 153.547C279.826 154.249 280.591 154.631 281.356 154.759C282.121 154.886 282.918 154.854 283.652 155.078C284.385 155.301 285.086 155.938 285.086 156.704C285.915 156.48 286.744 157.182 286.999 157.979C287.255 158.776 287.095 159.669 286.904 160.498C287.127 160.753 287.573 160.561 287.797 160.306C288.02 160.051 288.147 159.701 288.466 159.509C289.104 159.127 289.901 159.956 289.805 160.721C289.709 161.486 289.136 162.028 288.594 162.538C288.466 162.634 288.339 162.793 288.275 162.953C288.052 163.558 288.881 164.005 289.518 164.164C289.486 164.642 289.518 165.121 289.678 165.599C289.837 166.077 290.283 166.396 290.762 166.396C291.176 166.364 291.527 166.045 291.941 165.886C292.356 165.726 292.962 165.822 292.993 166.268C293.663 164.866 292.962 163.59 293.248 162.251C293.504 161.04 294.588 161.486 295.321 160.689C295.735 160.243 295.703 159.573 295.895 158.999C296.15 158.266 296.756 157.66 296.915 156.927C297.202 155.651 296.118 154.504 295.161 153.611C295.385 153.133 295.257 152.559 294.843 152.208C294.46 151.889 293.95 151.666 293.44 151.602C293.312 151.602 293.185 151.539 293.057 151.443C292.898 151.284 292.93 151.028 292.962 150.773C293.28 146.884 286.936 147.968 284.608 148.159C283.652 148.255 282.695 148.574 281.898 149.084C281.579 149.275 279.666 151.794 280.527 151.953Z" fill="#473F47"/>
<path d="M292.802 170.381L292.643 170.413C289.263 171.274 284.321 174.334 283.205 177.778C281.803 182.082 280.91 187.885 281.898 192.348C282.6 195.441 284.481 198.151 285.246 201.18C286.139 204.527 286.266 207.811 287.637 211.063C288.243 212.498 289.008 213.965 290.347 214.762C291.463 215.399 292.802 215.495 294.077 215.591C297.872 215.782 303.196 217.089 306.352 214.475C308.775 212.498 309.732 209.118 309.572 205.994C309.413 202.869 308.265 199.872 307.149 196.939L301.857 183.166C300.613 179.85 297.521 169.456 292.802 170.381Z" fill="#4561B5"/>
<path d="M295.576 204.272C294.97 205.07 294.843 206.154 295.193 207.078C295.735 209.31 295.958 211.605 295.895 213.933C295.927 214.347 295.799 214.762 295.544 215.081C295.257 215.304 294.874 215.4 294.524 215.4C293.185 215.495 291.814 215.591 290.602 215.017C289.199 214.315 288.37 212.817 287.733 211.382C285.915 207.269 284.895 202.838 283.907 198.438C283.684 197.736 283.62 196.971 283.716 196.238C283.907 195.122 284.768 194.261 285.692 193.624C286.617 192.986 287.669 192.508 288.562 191.838C290.315 190.499 291.591 188.076 293.982 187.757C295.767 187.534 297.074 188.777 297.68 190.372C299.115 194.58 297.489 200.478 295.576 204.272Z" fill="url(#paint7_linear)"/>
<path d="M289.837 180.456C289.837 180.456 284.991 193.528 284.034 194.485C283.078 195.441 293.344 201.244 293.344 201.244C293.344 201.244 300.04 188.523 299.721 183.007C299.402 177.491 293.599 175.259 289.837 180.456Z" fill="#4561B5"/>
<path d="M293.344 199.458C293.344 199.458 292.993 203.667 287.828 203.603L279.093 203.475C275.075 203.412 271.026 203.284 267.009 203.316C265.925 203.316 265.192 203.826 264.14 204.049C260.377 204.878 256.424 203.826 253.586 201.18C252.502 200.128 251.578 198.534 252.215 197.131C252.279 196.939 252.439 196.78 252.63 196.652C252.789 196.589 252.949 196.557 253.14 196.589C255.563 196.652 258.082 197.29 260.409 196.461C260.218 196.142 260.122 195.792 260.122 195.441C260.154 195.09 260.505 194.74 260.824 194.803C261.015 194.867 261.174 194.995 261.302 195.154C262.513 196.493 264.235 197.163 266.021 197.035C272.652 196.716 279.188 195.313 285.82 195.026C287.382 194.963 288.976 194.963 290.411 195.505C291.846 196.047 293.153 197.928 293.344 199.458Z" fill="#FFBBAB"/>
<path d="M135.493 284.681C136.003 284.713 136.513 284.84 136.991 285.063C137.469 285.286 137.788 285.765 137.788 286.307C137.693 286.817 137.342 287.231 136.864 287.455C136.417 287.678 135.907 287.805 135.461 288.028C135.078 288.283 134.664 288.507 134.217 288.73C133.484 288.953 132.719 288.666 132.018 288.411C128.797 287.263 125.386 286.721 121.974 286.753C121.656 286.785 121.305 286.753 120.986 286.689C120.03 286.434 119.456 285.414 119.169 284.458C118.563 282.385 118.85 280.153 119.233 278.017C119.264 277.794 119.328 277.539 119.488 277.348C119.647 277.188 119.806 277.061 120.03 276.997C123.409 275.754 124.812 279.069 127.012 280.855C129.467 282.832 132.4 284.171 135.493 284.681Z" fill="#FFBBAB"/>
<path d="M124.366 284.776C124.589 284.808 124.812 284.84 125.035 284.872C126.534 285.031 128.064 285.063 129.563 284.999C129.849 284.999 130.136 284.936 130.391 284.808C130.71 284.553 130.902 284.138 130.902 283.724C130.902 283.31 130.902 282.895 130.997 282.481C130.997 282.321 131.157 282.194 131.316 282.194H131.348C132.496 282.162 133.612 282.608 134.664 283.118C136.672 284.107 138.681 285.35 139.797 287.295C139.893 287.454 139.956 287.646 139.988 287.837C139.988 287.996 139.924 288.156 139.829 288.315C138.458 290.419 135.078 289.909 133.006 289.463C130.71 288.985 128.479 288.092 126.151 287.741C123.6 287.327 120.795 287.518 118.595 286.147C118.244 285.956 117.925 285.669 117.702 285.318C117.096 284.234 117.83 282.512 118.627 281.684C118.722 281.588 118.818 281.492 118.946 281.46C119.105 281.428 119.296 281.492 119.424 281.588C120.476 282.257 121.177 283.405 122.229 284.043C122.835 284.425 123.6 284.68 124.366 284.776Z" fill="#4561B5"/>
<path d="M101.41 198.98C101.41 198.98 90.9526 204.974 93.8858 215.942C96.4364 225.506 103.801 231.469 108.488 239.631C111.102 244.158 110.624 251.555 111.708 256.847C113.047 263.319 114.928 269.664 117.288 275.849C117.766 277.093 118.531 278.527 119.87 278.591C120.508 278.623 121.082 278.304 121.719 278.272C122.357 278.24 122.931 278.464 123.505 278.336C125.035 277.985 125.003 275.849 124.685 274.319C123.027 266.986 122.038 259.493 121.688 251.969C121.432 246.166 122.995 240.013 121.369 234.402C120.062 229.938 112.282 206.122 112.282 206.122L101.41 198.98Z" fill="#473F47"/>
<path d="M113.462 290.452C113.94 290.643 114.418 290.866 114.833 291.185C115.247 291.536 115.439 292.078 115.311 292.588C115.088 293.066 114.641 293.385 114.131 293.449C113.621 293.544 113.111 293.544 112.633 293.672C112.186 293.831 111.74 293.959 111.262 294.022C110.497 294.054 109.827 293.608 109.189 293.162C106.352 291.249 103.196 289.878 99.8797 289.049C99.5609 288.985 99.2102 288.889 98.9233 288.73C98.0305 288.252 97.7436 287.136 97.7117 286.116C97.6479 283.948 98.4769 281.875 99.3696 279.898C99.4653 279.675 99.5928 279.484 99.7841 279.325C99.9754 279.197 100.167 279.133 100.39 279.133C103.961 278.751 104.503 282.322 106.193 284.617C108.074 287.2 110.592 289.176 113.462 290.452Z" fill="#FFBBAB"/>
<path d="M102.717 206.377C99.7841 206.727 97.616 208.067 95.3843 209.948C90.9844 213.678 91.3033 221.266 92.8018 226.814C93.5669 229.747 98.2218 238.929 98.8914 241.512C100.199 246.453 97.616 252.575 97.361 257.58C97.074 264.18 97.2972 270.812 98.0305 277.38C98.1899 278.719 98.5725 280.281 99.8478 280.663C100.454 280.855 101.123 280.663 101.729 280.791C102.335 280.919 102.845 281.269 103.451 281.301C105.013 281.333 105.523 279.261 105.587 277.698C105.81 270.174 106.703 262.682 108.233 255.317C109.413 249.642 112.473 244.094 112.282 238.228C112.123 233.445 111.995 228.695 111.836 223.944C111.676 218.652 112.41 213.263 110.784 208.194C110.592 207.588 110.369 206.983 109.859 206.6C109.413 206.313 108.871 206.185 108.329 206.185C106.766 206.09 105.172 206.122 103.61 206.281C103.323 206.281 103.004 206.313 102.717 206.377Z" fill="#473F47"/>
<path d="M110.21 152.782C110.592 153.451 111.421 153.834 111.676 154.567C111.995 155.46 111.389 156.353 111.071 157.245C110.624 158.489 110.784 159.86 110.337 161.103C110.274 161.39 110.114 161.613 109.891 161.805C109.7 161.932 109.476 162.028 109.221 162.06C108.297 162.251 107.372 162.315 106.416 162.219C106.224 162.187 106.033 162.219 105.874 162.283C105.746 162.41 105.651 162.57 105.619 162.761C105.077 165.12 105.109 167.544 105.714 169.871C105.906 170.636 106.129 171.561 105.555 172.135C105.364 172.326 105.109 172.454 104.822 172.485C103.036 172.932 101.346 171.593 100.135 170.222C99.0508 168.978 98.1581 167.639 97.3929 166.173C97.1697 165.758 97.0103 165.344 96.9147 164.865C96.8828 164.26 96.9784 163.686 97.1697 163.112C97.6799 161.167 97.9987 159.19 98.0943 157.182C98.2219 154.631 98.0306 151.953 99.0189 149.594C99.3059 148.765 99.8479 148.063 100.581 147.585C101.41 147.107 102.398 147.107 103.355 147.139C105.204 147.202 107.245 147.457 108.52 148.828C108.966 149.307 109.732 151.953 110.21 152.782Z" fill="#FFBBAB"/>
<path d="M97.1378 165.599C97.8393 165.535 98.5407 165.535 99.2421 165.535C100.517 165.503 101.793 165.567 103.068 165.822C104.343 166.045 105.491 166.683 106.384 167.608C106.926 168.213 107.308 168.947 107.819 169.584C108.329 170.222 109.062 170.764 109.859 170.732C110.433 170.732 110.943 170.445 111.485 170.318C112.25 170.126 113.079 170.286 113.844 170.094C114.61 169.903 115.12 169.361 115.725 168.883C117.065 167.831 118.372 166.683 119.615 165.503C120.221 164.929 126.693 158.011 126.438 157.82C127.426 158.553 128.319 159.414 129.052 160.402C129.308 160.721 129.467 161.072 129.531 161.486C129.531 161.869 129.435 162.219 129.244 162.57C127.171 167.161 124.525 171.497 121.401 175.451C119.775 177.587 117.893 179.468 115.789 181.126C114.418 182.178 112.76 183.103 111.931 184.665C110.018 188.204 111.9 193.624 111.931 197.386C111.931 198.693 111.389 199.745 111.389 201.053C111.389 203.348 113.366 205.389 112.665 207.748C112.059 209.693 109.827 210.554 107.85 211.096L100.135 213.327C98.4131 213.806 96.5002 214.284 94.9379 213.455C92.9931 212.403 92.5786 209.852 92.3873 207.62C91.941 201.913 92.1004 195.09 89.741 189.766C88.2107 186.323 87.9237 183.9 88.3701 180.074C88.6889 177.204 89.1353 174.303 90.1236 171.561C90.5381 170.381 91.112 169.234 91.654 168.086C92.1323 167.066 93.3119 166.524 94.3322 166.141C95.2249 165.822 96.1814 165.631 97.1378 165.599Z" fill="#4561B5"/>
<path d="M107.755 148.637C107.595 149.913 106.99 151.06 106.065 151.921C105.172 152.782 104.024 153.356 103.1 154.153C102.175 154.95 101.41 156.162 101.601 157.373C100.868 157.118 99.9116 157.309 99.5609 158.011C99.3696 158.489 99.4334 159.031 99.7841 159.414C100.135 159.796 100.613 159.988 101.123 159.956C100.167 160.338 99.3059 161.008 98.732 161.901C97.903 163.112 97.7755 164.356 97.2654 165.663C96.9465 166.524 96.2451 167.161 95.7988 167.958C95.0017 169.329 95.0017 171.019 94.8104 172.613C94.4916 175.1 93.5988 177.587 91.9091 179.436C90.2193 181.285 87.6049 182.401 85.1499 181.987C82.695 181.572 80.4632 179.436 80.3356 176.949C79.2516 176.79 78.4227 175.833 78.072 174.813C77.7212 173.793 77.785 172.677 77.8807 171.593C78.0082 170.413 78.2314 169.234 78.8371 168.245C79.953 166.492 82.0892 165.695 83.9384 164.738C84.7673 164.324 85.5644 163.814 86.3296 163.272C86.6803 163.048 86.9672 162.761 87.1904 162.411C87.6049 161.677 87.3179 160.753 87.1585 159.892C86.8716 158.553 86.8716 157.023 87.7005 155.875C88.4338 154.854 89.6454 154.312 90.825 153.802L93.822 152.559C94.0771 152.463 94.3003 152.336 94.4916 152.144C94.6191 151.953 94.7147 151.762 94.7466 151.539C95.1292 150.072 95.3205 148.574 95.9263 147.171C97.2016 144.269 100.262 143.345 103.196 143.855C105.651 144.333 108.01 145.864 107.755 148.637Z" fill="#E13B31"/>
<path d="M97.3929 170.063C97.3929 170.063 111.166 172.294 112.473 171.944C113.781 171.593 113.749 183.358 113.749 183.358C113.749 183.358 99.3696 182.911 94.7147 179.946C90.0598 176.981 91.0163 170.796 97.3929 170.063Z" fill="#4561B5"/>
<path d="M102.303 288.602C102.494 288.666 102.685 288.698 102.909 288.762C104.28 289.113 105.651 289.336 107.053 289.431C107.308 289.463 107.595 289.431 107.85 289.368C108.201 289.144 108.392 288.794 108.456 288.411C108.488 288.029 108.584 287.646 108.679 287.295C108.711 287.232 108.743 287.168 108.807 287.104C108.871 287.072 108.966 287.072 109.03 287.072C110.114 287.168 111.071 287.742 111.963 288.347C113.685 289.495 115.375 290.898 116.14 292.811C116.204 292.97 116.268 293.162 116.236 293.321C116.204 293.481 116.108 293.608 116.012 293.736C114.514 295.489 111.453 294.596 109.604 293.927C107.532 293.194 105.619 292.11 103.514 291.472C101.219 290.77 98.6364 290.579 96.7553 289.081C96.4365 288.858 96.2133 288.539 96.0539 288.188C95.6394 287.136 96.5321 285.637 97.3292 284.968C97.4886 284.777 97.8074 284.745 97.9987 284.936C98.0306 284.968 98.0306 284.968 98.0625 285C98.9552 285.733 99.4653 286.881 100.326 287.614C100.932 288.092 101.601 288.411 102.303 288.602Z" fill="#4561B5"/>
<path d="M129.881 103.045H258.879V192.826H129.881V103.045ZM257.731 104.192H131.029V191.647H257.699L257.731 104.192Z" fill="#4561B5"/>
<path d="M126.757 153.452C126.757 152.017 126.789 150.423 127.681 149.275L128.351 151.985C129.148 149.435 130.36 147.043 131.986 144.907C132.177 146.406 131.699 147.904 131.22 149.371C131.922 147.968 132.687 146.629 133.58 145.322C134.122 146.852 132.719 148.414 132.56 150.04C133.102 149.211 133.803 148.51 134.6 147.904C134.855 148.35 134.6 148.924 134.377 149.371L132.91 152.24C133.325 151.826 133.803 151.443 134.313 151.124C134.759 152.24 133.867 153.356 133.325 154.44C132.942 155.237 132.751 156.098 132.368 156.927C131.667 158.425 130.36 159.541 128.765 159.988C128.192 158.999 127.012 158.936 126.821 157.82C126.534 156.449 126.757 154.855 126.757 153.452Z" fill="#FFBBAB"/>
<path d="M148.979 131.867H139.956V191.679H148.979V131.867Z" fill="#4561B5"/>
<path d="M169.097 118.54H160.074V191.679H169.097V118.54Z" fill="#4561B5"/>
<path d="M189.853 143.759H180.83V191.647H189.853V143.759Z" fill="#4561B5"/>
<path d="M210.608 118.54H201.586V191.679H210.608V118.54Z" fill="#4561B5"/>
<path d="M231.364 129.731H222.341V191.647H231.364V129.731Z" fill="#4561B5"/>
<path d="M252.152 110.41H243.129V191.679H252.152V110.41Z" fill="#4561B5"/>
<defs>
<linearGradient id="paint0_linear" x1="219.558" y1="192.015" x2="210.121" y2="319.208" gradientUnits="userSpaceOnUse">
<stop offset="0.01"/>
<stop offset="0.08" stop-opacity="0.69"/>
<stop offset="0.21" stop-opacity="0.32"/>
<stop offset="1" stop-opacity="0"/>
</linearGradient>
<linearGradient id="paint1_linear" x1="77.0892" y1="183.933" x2="186.53" y2="220.7" gradientUnits="userSpaceOnUse">
<stop offset="0.01"/>
<stop offset="0.08" stop-opacity="0.69"/>
<stop offset="0.21" stop-opacity="0.32"/>
<stop offset="1" stop-opacity="0"/>
</linearGradient>
<linearGradient id="paint2_linear" x1="280.538" y1="200.894" x2="343.478" y2="192.783" gradientUnits="userSpaceOnUse">
<stop offset="0.01"/>
<stop offset="0.08" stop-opacity="0.69"/>
<stop offset="0.21" stop-opacity="0.32"/>
<stop offset="1" stop-opacity="0"/>
</linearGradient>
<linearGradient id="paint3_linear" x1="339.279" y1="207.687" x2="189.609" y2="181.731" gradientUnits="userSpaceOnUse">
<stop offset="0.01"/>
<stop offset="0.08" stop-opacity="0.69"/>
<stop offset="0.21" stop-opacity="0.32"/>
<stop offset="1" stop-opacity="0"/>
</linearGradient>
<linearGradient id="paint4_linear" x1="97.5921" y1="182.715" x2="153.61" y2="166.277" gradientUnits="userSpaceOnUse">
<stop offset="0.01"/>
<stop offset="0.08" stop-opacity="0.69"/>
<stop offset="0.21" stop-opacity="0.32"/>
<stop offset="1" stop-opacity="0"/>
</linearGradient>
<linearGradient id="paint5_linear" x1="300.258" y1="246.869" x2="247.702" y2="236.325" gradientUnits="userSpaceOnUse">
<stop offset="0.01"/>
<stop offset="0.08" stop-opacity="0.69"/>
<stop offset="0.21" stop-opacity="0.32"/>
<stop offset="1" stop-opacity="0"/>
</linearGradient>
<linearGradient id="paint6_linear" x1="289.939" y1="189.719" x2="263.014" y2="161.818" gradientUnits="userSpaceOnUse">
<stop offset="0.01"/>
<stop offset="0.08" stop-opacity="0.69"/>
<stop offset="0.21" stop-opacity="0.32"/>
<stop offset="1" stop-opacity="0"/>
</linearGradient>
<linearGradient id="paint7_linear" x1="312.559" y1="203.823" x2="253.028" y2="196.847" gradientUnits="userSpaceOnUse">
<stop offset="0.01"/>
<stop offset="0.08" stop-opacity="0.69"/>
<stop offset="0.21" stop-opacity="0.32"/>
<stop offset="1" stop-opacity="0"/>
</linearGradient>
</defs>
</svg>
