<?xml version="1.0" encoding="utf-8"?><svg viewBox="0 0 46 36" xmlns="http://www.w3.org/2000/svg" xmlns:xlink="http://www.w3.org/1999/xlink"><style>:root>svg{display:none}:root>svg:target{display:block}</style><svg viewBox="0 0 8 14" id="ic_arr_left" xmlns="http://www.w3.org/2000/svg"><path d="M7.412 12.142a.871.871 0 0 1-1.25 1.213L0 7 6.161.645a.871.871 0 0 1 1.251 1.213L2.427 7l4.985 5.142z"/></svg><svg viewBox="0 0 23 18" id="ic_email" xmlns="http://www.w3.org/2000/svg"><path d="M20.979 0H2.02A2.03 2.03 0 0 0 0 2.031v13.543a2.03 2.03 0 0 0 2.021 2.03h18.957A2.03 2.03 0 0 0 23 15.575V2.03A2.03 2.03 0 0 0 20.979 0zM20.7 1.354l-9.155 9.2-9.236-9.2H20.7zM1.348 15.294V2.307l6.49 6.464-6.49 6.523zm.952.957l6.496-6.528 2.277 2.266a.676.676 0 0 0 .953 0l2.219-2.23 6.455 6.492H2.3zm19.352-.957l-6.46-6.492 6.46-6.49v12.982z"/></svg><svg viewBox="0 0 8 16" id="ic_facebook" xmlns="http://www.w3.org/2000/svg"><path fill-rule="evenodd" clip-rule="evenodd" d="M7.563 2.83a5.178 5.178 0 0 0-1.4-.213c-.567 0-1.791.362-1.791 1.064v1.68h2.907v2.83H4.372V16h-2.93V8.191H0v-2.83h1.443V3.937C1.443 1.787 2.448 0 4.874 0 5.704 0 7.191.043 8 .32l-.437 2.51z"/></svg><svg fill="none" viewBox="0 0 18 20" id="ic_home" xmlns="http://www.w3.org/2000/svg"><path d="M6.429 18.571V10h5.143v8.571M1.286 7.43l7.714-6 7.714 6v9.428A1.714 1.714 0 0 1 15 18.571H3a1.714 1.714 0 0 1-1.714-1.714V7.43z" stroke="currentCOlor" stroke-linecap="round" stroke-linejoin="round"/></svg><svg viewBox="0 0 12 13" id="ic_instagram" xmlns="http://www.w3.org/2000/svg"><path d="M11.969 3.627c-.028-.638-.132-1.075-.28-1.456a2.948 2.948 0 0 0-.693-1.064 2.933 2.933 0 0 0-1.061-.69C9.552.269 9.117.165 8.478.137 7.835.107 7.631.1 6 .1 4.37.1 4.166.107 3.527.135c-.639.028-1.076.131-1.456.28a2.95 2.95 0 0 0-1.064.692c-.305.3-.543.665-.69 1.062-.149.383-.252.817-.28 1.456-.03.644-.038.848-.038 2.476 0 1.628.007 1.834.035 2.473.029.639.132 1.076.28 1.456.153.404.39.764.693 1.064.3.306.665.543 1.062.69.382.149.817.252 1.456.28.639.029.843.036 2.473.036s1.834-.007 2.473-.036c.64-.028 1.076-.131 1.457-.28a3.074 3.074 0 0 0 1.756-1.756c.149-.383.252-.817.28-1.456.028-.641.035-.843.035-2.474 0-1.63-.002-1.83-.03-2.47zm-1.08 4.902c-.026.588-.125.902-.207 1.114a1.993 1.993 0 0 1-1.14 1.139c-.211.082-.53.18-1.113.207-.634.028-.822.035-2.424.035-1.602 0-1.794-.007-2.424-.035-.587-.026-.902-.125-1.113-.207a1.822 1.822 0 0 1-.688-.449c-.2-.195-.353-.43-.449-.688-.082-.211-.18-.53-.207-1.113-.028-.634-.035-.822-.035-2.424 0-1.602.007-1.795.035-2.424.026-.587.125-.902.207-1.113.094-.264.247-.498.449-.691.195-.2.43-.352.688-.449.211-.082.53-.18 1.113-.206.634-.029.822-.036 2.424-.036 1.604 0 1.795.007 2.424.036.587.026.902.124 1.113.206.261.097.498.25.689.449.2.195.352.43.448.69.082.212.181.531.207 1.114.028.634.035.822.035 2.424 0 1.602-.005 1.787-.033 2.421z"/><path d="M6 3.02a3.084 3.084 0 1 0 .001 6.168 3.084 3.084 0 0 0 0-6.168zm0 5.082A2.001 2.001 0 1 1 6 4.1a2.001 2.001 0 0 1 0 4.002zM9.928 2.897a.719.719 0 1 1-1.438 0 .719.719 0 0 1 1.438 0z"/></svg><svg viewBox="0 0 46 36" id="ic_quote" xmlns="http://www.w3.org/2000/svg"><path d="M10.5 36c-1.125 0-2.563-.375-4.313-1.125-1.75-.875-3.25-2.75-4.5-5.625C.563 26.25 0 23.062 0 19.687c0-3.375 1.063-6.75 3.188-10.125C7.062 3.439 12.438.25 19.313 0l.375 1.688c-2.875 1-5.063 2.312-6.563 3.937S10.75 9 10.5 10.875c-.375 3.875.875 7.375 3.75 10.5 3.5 3.875 4.625 7.313 3.375 10.313C16.375 34.563 14 36 10.5 36zM45.938 1.687c-3.75 1.25-6.25 3-7.5 5.25-1.25 2.125-1.876 3.75-1.876 4.875 0 3.5 1.313 6.688 3.938 9.563 3.5 3.875 4.625 7.313 3.375 10.313C42.625 34.563 40.312 36 36.937 36c-4 0-6.812-1.875-8.437-5.625-1.5-3.75-2.25-7.313-2.25-10.688 0-3.375 1.063-6.75 3.188-10.125C33.313 3.439 38.688.25 45.563 0l.374 1.688z"/></svg><svg viewBox="0 0 19 20" id="ic_search" xmlns="http://www.w3.org/2000/svg"><path d="M18.711 18.217l-4.684-4.95a8.128 8.128 0 0 0 1.864-5.192C15.891 3.623 12.327 0 7.946 0S0 3.623 0 8.075c0 4.453 3.565 8.075 7.946 8.075a7.774 7.774 0 0 0 4.552-1.461l4.72 4.988a1.02 1.02 0 0 0 1.464.03c.412-.404.425-1.071.03-1.49zM7.946 2.107c3.238 0 5.873 2.677 5.873 5.968s-2.635 5.969-5.873 5.969c-3.239 0-5.873-2.678-5.873-5.969 0-3.291 2.634-5.968 5.873-5.968z"/></svg></svg>