<svg width="250" height="200" viewBox="0 0 250 200" fill="none" xmlns="http://www.w3.org/2000/svg">
<path d="M186.198 110.159C186.198 110.159 184.312 121.646 184.526 127.647C184.826 136.134 181.183 171.882 181.183 171.882L184.441 172.182C184.441 172.182 192.285 148.307 191.685 141.02C191.084 133.734 194.514 123.189 194.514 123.189C194.514 123.189 201.586 148.35 202.958 150.45C204.329 152.55 206.944 173.768 206.944 173.768L212.688 173.339C212.688 173.339 210.887 152.208 207.158 145.435C207.158 145.435 208.958 111.23 202.958 106.644C196.914 102.058 186.198 110.159 186.198 110.159Z" fill="#3F3D56"/>
<path d="M136.005 175.053C133.605 176.211 130.862 176.211 128.204 176.296C114.059 176.596 -10.9301 175.01 38.0197 183.454C37.5911 187.098 90.6129 186.583 94.2563 186.669C131.676 187.526 169.096 186.969 206.515 185.04C209.987 184.869 213.888 184.44 215.945 181.611C218.431 178.182 216.374 172.996 212.816 170.681C209.258 168.367 204.758 168.195 200.514 168.067L160.823 166.952C156.622 166.824 151.05 165.709 146.978 167.038C142.649 168.495 139.991 173.082 136.005 175.053Z" fill="url(#paint0_linear)"/>
<path d="M129.104 123.532L123.146 179.468L125.504 179.297L134.248 124.518L138.32 108.058L147.921 108.487L149.421 171.539H152.379L152.25 108.015H158.508L165.881 180.068L168.967 179.768L162.795 102.7L140.377 95.9707L128.118 107.672L129.104 123.532Z" fill="#6EAD68"/>
<path d="M127.604 123.532L121.646 179.468L124.046 179.297L132.748 124.518L136.82 108.058L146.464 108.487L147.921 171.539H150.922L150.75 108.015H157.008L164.381 180.068L167.467 179.768L161.337 102.7L138.92 95.9707L126.618 107.672L127.604 123.532Z" fill="#6EAD68"/>
<path d="M127.604 123.532L121.646 179.468L124.046 179.297L132.748 124.518L136.82 108.058L146.464 108.487L147.921 171.539H150.922L150.75 108.015H157.008L164.381 180.068L167.467 179.768L161.337 102.7L138.92 95.9707L126.618 107.672L127.604 123.532Z" fill="url(#paint1_linear)"/>
<path d="M170.553 124.518H118.774L125.332 38.2339H177.111L170.553 124.518Z" fill="#CACCCC"/>
<path d="M169.224 124.518H117.445L124.003 38.2339H175.739L169.224 124.518Z" fill="white"/>
<path opacity="0.18" d="M157.308 91.5132C157.137 99.5715 150.493 105.958 142.435 105.787C134.376 105.615 127.99 98.9714 128.161 90.9131C128.333 82.9834 134.805 76.6396 142.735 76.6396C143.206 76.6396 143.721 76.6825 144.192 76.7254L142.735 91.2132L157.308 91.5132Z" fill="#6EAD68"/>
<path d="M173.682 91.6417L161.766 84.2692C161.037 84.2692 160.351 84.0549 159.794 83.5834C158.98 82.9833 157.951 82.7261 157.137 82.1261C155.765 81.1831 155.294 79.3828 154.908 77.754C154.822 77.454 154.779 77.1111 154.822 76.811C154.865 76.4681 155.079 76.2109 155.379 76.0823C155.765 76.0395 156.151 76.1681 156.408 76.4252C157.565 77.1111 158.937 77.454 160.266 77.7111C160.351 77.754 160.437 77.754 160.523 77.7111C160.694 77.6254 160.652 77.4111 160.566 77.2396C160.48 77.0682 160.351 76.8967 160.394 76.7253C160.48 76.5538 160.652 76.4681 160.823 76.511C160.994 76.5538 161.166 76.6824 161.252 76.811C161.895 77.4968 162.237 78.397 162.752 79.1685C163.138 79.8114 163.48 80.4544 163.781 81.1402L175.311 87.6126C175.354 87.6126 178.74 92.7133 173.682 91.6417Z" fill="url(#paint2_linear)"/>
<path d="M187.87 73.5962L176.94 87.5696L163.952 80.7115L162.795 84.7835C162.795 84.7835 175.482 94.1706 177.154 94.1706C179.811 94.1706 184.912 89.4556 184.912 89.4556L187.87 73.5962Z" fill="#6EAD68"/>
<path d="M187.87 73.6392L176.94 87.6126L174.582 88.3413V92.7133C174.582 92.7133 177.411 94.2564 178.954 93.6563C180.497 93.0562 184.912 89.4986 184.912 89.4986L187.87 73.6392Z" fill="url(#paint3_linear)"/>
<path d="M208.058 87.1409L202.229 82.383C202.229 82.383 198.285 92.2416 199.528 96.3565C200.171 98.4568 201.029 101.2 201.715 103.343C202.357 105.401 202.872 106.944 202.872 106.944L185.812 111.659C185.812 111.659 188.255 96.185 183.755 89.4555C182.297 87.3123 179.811 85.3835 181.054 82.9403C182.297 80.4971 187.398 72.2245 190.613 72.1387C190.613 72.1387 193.399 73.5961 194.685 71.3672C194.685 71.3672 198.5 72.1816 200.3 72.9103C202.1 73.6389 210.587 79.6398 212.816 82.7688C215.045 85.8978 208.058 87.1409 208.058 87.1409Z" fill="#6EAD68"/>
<path opacity="0.69" d="M195.414 74.582C194.985 75.3106 194.342 75.9536 193.613 76.3394C192.842 76.768 192.07 77.068 191.256 77.3252C192.67 75.6535 194.085 73.939 194.685 71.8387C194.728 71.6673 194.813 71.4529 194.942 71.4101C195.028 71.3672 195.156 71.3672 195.242 71.4101C196.185 71.5387 196.485 71.5815 196.228 72.4388C196.014 73.2103 195.756 73.8961 195.414 74.582Z" fill="url(#paint4_linear)"/>
<path d="M199.571 96.3995C200.214 98.4998 201.072 101.243 201.757 103.386L199.314 105.101C199.314 105.101 195.328 105.401 194.942 105.615C194.556 105.829 194.556 101.929 196.228 101.329C197.9 100.729 196.828 93.3133 196.828 93.3133C196.828 93.3133 196.314 85.3836 197.3 83.4119C198.285 81.4402 200.729 81.1401 200.729 81.1401L202.229 82.4689C202.272 82.3832 198.328 92.2846 199.571 96.3995Z" fill="url(#paint5_linear)"/>
<path d="M185.769 109.473C185.341 110.287 183.583 113.716 184.012 114.573C184.655 115.688 186.155 116.031 187.398 115.817C191.384 115.174 193.785 110.973 197.557 109.473C198.928 108.915 200.729 108.573 201.2 107.115C201.243 106.772 201.372 106.429 201.5 106.129C201.672 105.872 202.015 105.701 202.186 105.444C202.615 104.758 202.443 103.815 201.757 103.343C199.529 105.058 197.342 104.801 194.685 105.658C191.642 106.772 188.641 108.015 185.769 109.473Z" fill="#F2FDFF"/>
<path d="M185.855 62.3661C185.641 63.3091 185.726 64.3378 185.384 65.238C185.041 66.1381 184.441 66.9096 183.669 67.424C183.583 67.5097 183.455 67.5954 183.455 67.6812C183.455 67.724 183.455 67.7669 183.498 67.8098C183.969 68.7956 184.955 69.3957 186.027 69.3528C186.198 69.31 186.327 69.3528 186.498 69.3957C186.627 69.4814 186.712 69.5671 186.798 69.6529C187.312 70.1244 188.041 70.253 188.684 70.0386C189.327 69.8243 189.884 69.4814 190.399 69.0099C190.527 68.9242 190.656 68.7956 190.656 68.667C190.656 68.5813 190.613 68.4956 190.527 68.4098C189.713 67.3383 189.198 66.0952 188.984 64.7665C188.856 63.652 189.027 62.4947 188.641 61.4231C187.87 59.3657 186.198 60.9516 185.855 62.3661Z" fill="#3F3D56"/>
<path d="M185.855 62.3661C185.641 63.3091 185.726 64.3378 185.384 65.238C185.041 66.1381 184.441 66.9096 183.669 67.424C183.583 67.5097 183.455 67.5954 183.455 67.6812C183.455 67.724 183.455 67.7669 183.498 67.8098C183.969 68.7956 184.955 69.3957 186.027 69.3528C186.198 69.31 186.327 69.3528 186.498 69.3957C186.627 69.4814 186.712 69.5671 186.798 69.6529C187.312 70.1244 188.041 70.253 188.684 70.0386C189.327 69.8243 189.884 69.4814 190.399 69.0099C190.527 68.9242 190.656 68.7956 190.656 68.667C190.656 68.5813 190.613 68.4956 190.527 68.4098C189.713 67.3383 189.198 66.0952 188.984 64.7665C188.856 63.652 189.027 62.4947 188.641 61.4231C187.87 59.3657 186.198 60.9516 185.855 62.3661Z" fill="url(#paint6_linear)"/>
<path d="M194.985 66.3096C194.985 66.5667 194.985 66.8668 194.985 67.124C194.985 67.6812 194.942 68.2813 194.942 68.8385C194.942 69.0957 194.942 69.3529 194.942 69.61C194.942 70.5102 194.856 71.3674 194.728 72.2247C194.428 73.7249 193.656 75.0965 192.542 76.1253C191.856 76.7253 191.127 77.2826 190.356 77.7541C189.927 78.0541 189.456 78.3113 188.941 78.4399C188.427 78.5685 187.87 78.397 187.484 78.0112C187.098 77.5397 187.227 76.8111 187.484 76.2538C188.084 74.9251 189.37 74.0249 190.141 72.8248C190.141 72.8248 190.141 72.7819 190.184 72.7819C190.827 71.7961 190.999 70.6388 191.213 69.4386C191.513 67.7241 191.77 66.0524 193.356 65.1094C193.699 64.8522 194.213 64.8094 194.599 64.9808C194.985 65.238 195.028 65.7952 194.985 66.3096Z" fill="#FDB9A9"/>
<path d="M195.414 67.4239C195.414 67.8954 195.242 68.3668 194.985 68.7955V68.8383C194.513 69.8242 193.871 70.7243 193.099 71.5387C192.327 72.3531 191.256 72.8675 190.141 72.8675C190.141 72.8246 190.141 72.8246 190.141 72.7818C190.141 72.7818 190.141 72.7389 190.184 72.7389C190.827 71.753 190.999 70.5957 191.213 69.3956C191.642 68.7955 192.327 68.4097 192.97 67.9811C193.613 67.5524 194.299 67.081 195.028 67.1238H195.156C195.242 67.1238 195.285 67.1667 195.371 67.1667C195.371 67.2953 195.414 67.381 195.414 67.4239Z" fill="#FDB9A9"/>
<path d="M187.57 59.4086C186.627 61.466 187.098 63.8664 187.57 66.0953C187.741 66.9525 187.955 67.8955 188.556 68.5813C189.499 69.6958 191.213 69.8244 192.542 69.2671C194.556 68.367 195.671 66.181 196.485 64.1236C197.171 62.409 197.814 60.6088 197.9 58.7657C197.985 56.9225 197.471 54.9508 196.142 53.6649C195.628 53.1506 195.028 52.8077 194.342 52.6362C193.228 52.379 192.07 52.8505 190.999 53.322C189.713 53.9221 188.427 54.5651 187.613 55.7224C186.327 57.5226 186.627 59.923 186.927 62.0661" fill="#FDB9A9"/>
<path d="M190.399 56.7937C190.184 56.7509 190.013 56.7509 189.799 56.7937C189.584 56.8795 189.413 57.0081 189.284 57.1795C188.213 58.3797 187.484 59.837 187.141 61.423C187.012 62.2802 186.67 63.0518 186.155 63.7376C186.112 63.8233 185.984 63.9091 185.855 63.9091C185.684 63.9091 185.555 63.7805 185.469 63.6519C183.755 61.5516 183.583 58.5511 184.398 55.9365C184.526 55.465 184.698 55.0363 184.955 54.6077C185.641 53.4075 186.712 52.4645 187.998 51.9502C189.284 51.4358 190.656 51.2215 192.027 51.3072C192.885 49.8499 194.814 49.4213 196.485 49.5927C198.586 49.807 200.514 50.9215 201.8 52.5931C203.086 54.3077 203.386 56.5794 202.658 58.594C202.4 59.2798 201.972 59.9228 201.715 60.6514C201.114 62.2802 201.329 64.1234 202.315 65.5379C202.615 66.0093 203.043 66.3523 203.515 66.6094C204.029 66.8238 204.629 66.7809 205.058 66.438C204.415 68.6669 202.1 69.9099 199.871 69.267C199.571 69.1812 199.271 69.0526 198.971 68.8812C198.843 68.7955 198.714 68.7526 198.586 68.7955C198.5 68.8383 198.414 68.9241 198.328 69.0098C197.771 69.6099 196.785 69.4384 196.057 69.1384C195.842 69.0098 195.628 68.9669 195.414 68.9669C195.242 69.0098 195.028 69.0955 194.899 69.2241C194.042 69.7813 193.013 70.0385 192.027 69.9956C193.142 69.7813 193.913 68.8812 194.599 67.9811C195.671 66.5666 195.971 65.195 196.442 63.4804C196.914 61.7659 197.428 59.5799 196.271 58.2082C195.542 57.3081 194.556 56.6223 193.442 56.2365C192.885 56.0651 192.628 56.3651 192.156 56.5794C191.599 56.7937 190.999 56.8795 190.399 56.7937Z" fill="#3F3D56"/>
<path d="M205.058 66.438C204.415 68.6669 202.1 69.9528 199.871 69.3098C199.571 69.2241 199.271 69.0955 198.971 68.9241C198.843 68.8383 198.714 68.7955 198.585 68.7955C198.5 68.8383 198.414 68.9241 198.328 69.0098C197.771 69.6099 196.785 69.4813 196.057 69.1384C195.842 69.0098 195.628 68.9669 195.414 68.9669C195.242 69.0098 195.028 69.0955 194.899 69.2241C194.042 69.7813 193.013 70.0385 192.027 69.9956C193.142 69.7813 193.913 68.8812 194.599 67.9811C195.671 66.5666 196.014 65.195 196.442 63.4804C196.871 61.7659 197.428 59.5799 196.314 58.2082C195.585 57.3081 194.599 56.6223 193.485 56.2365C193.27 56.1508 193.013 56.1937 192.799 56.2794C192.627 56.3651 192.413 56.4937 192.199 56.5794C191.642 56.8366 191.042 56.9223 190.441 56.8366C190.227 56.7937 190.056 56.7937 189.841 56.8366C189.627 56.9223 189.456 57.0509 189.327 57.2224C188.684 57.9082 188.127 58.6369 187.655 59.4084C187.312 59.9656 187.055 60.6086 186.884 61.2087C186.669 62.0659 186.798 63.0518 186.198 63.7376C186.112 63.8233 186.027 63.9091 185.898 63.9091C185.726 63.9091 185.598 63.7805 185.512 63.6519C183.798 61.5516 183.626 58.5511 184.441 55.9365C184.569 55.465 184.741 55.0363 184.955 54.6077C185.641 53.4075 186.712 52.4645 187.998 51.9502C189.284 51.4358 190.656 51.2215 192.027 51.3072C192.885 49.8499 194.813 49.4213 196.485 49.5927C198.585 49.807 200.514 50.9215 201.8 52.5931C203.086 54.3077 203.386 56.5794 202.657 58.594C202.4 59.2798 201.972 59.9228 201.714 60.6514C201.114 62.2802 201.329 64.1234 202.315 65.5379C202.615 66.0093 203.043 66.3523 203.515 66.6094C204.029 66.8666 204.629 66.7809 205.058 66.438Z" fill="url(#paint7_linear)"/>
<path d="M212.816 84.655C212.859 84.6979 211.444 88.1698 211.359 88.3841L206.944 99.7429L205.272 103.986C205.144 104.329 204.972 104.629 204.886 104.972C204.415 106.644 204.715 108.358 203.729 109.901C203.429 110.459 202.915 110.887 202.315 111.102C201.715 111.273 201.029 111.016 200.729 110.459C200.514 109.944 200.729 109.344 200.943 108.787C201.2 108.101 201.414 107.415 201.586 106.687C201.629 106.601 201.629 106.515 201.586 106.43C201.5 106.13 201.072 106.172 200.772 106.001C200.514 105.787 200.429 105.401 200.6 105.101C200.772 104.801 200.986 104.544 201.243 104.329C202.272 103.258 202.486 101.886 202.786 100.514C203.129 99.0142 203.515 97.514 203.901 96.0138C204.415 93.8278 204.972 91.6418 205.572 89.4986C205.829 88.5127 206.001 86.8839 206.644 86.0695C207.201 85.2551 210.416 83.4977 212.816 84.655Z" fill="url(#paint8_linear)"/>
<path d="M176.125 174.796C175.739 175.053 175.396 175.439 175.225 175.868C175.054 176.339 175.225 176.854 175.611 177.111C175.825 177.239 176.082 177.282 176.339 177.282C178.268 177.411 180.197 177.411 182.126 177.239C182.555 177.239 182.983 177.154 183.412 176.982C183.712 176.854 183.969 176.682 184.226 176.511C185.084 176.168 185.512 175.268 185.298 174.41L184.998 172.224C184.998 172.053 184.912 171.839 184.784 171.71C184.655 171.624 184.483 171.582 184.312 171.582C182.683 171.496 181.783 171.496 180.454 172.439C179.126 173.382 177.454 173.853 176.125 174.796Z" fill="#6EAD68"/>
<path d="M203.386 176.082C203 176.34 202.658 176.725 202.486 177.154C202.315 177.626 202.486 178.14 202.872 178.44C203.086 178.569 203.343 178.611 203.601 178.611C205.529 178.74 207.458 178.74 209.387 178.569C209.816 178.569 210.244 178.483 210.673 178.311C210.973 178.183 211.23 178.011 211.487 177.84C211.959 177.583 212.345 177.197 212.559 176.725C212.645 176.383 212.645 176.082 212.559 175.74L212.259 173.554C212.259 173.382 212.173 173.168 212.045 173.039C211.916 172.953 211.745 172.911 211.573 172.911C209.944 172.825 209.044 172.825 207.715 173.768C206.387 174.711 204.715 175.139 203.386 176.082Z" fill="#6EAD68"/>
<path d="M203.386 176.082C203 176.34 202.658 176.725 202.486 177.154C202.315 177.626 202.486 178.14 202.872 178.44C203.086 178.569 203.343 178.611 203.601 178.611C205.529 178.74 207.458 178.74 209.387 178.569C209.816 178.569 210.244 178.483 210.673 178.311C210.973 178.183 211.23 178.011 211.487 177.84C211.959 177.583 212.345 177.197 212.559 176.725C212.645 176.383 212.645 176.082 212.559 175.74L212.259 173.554C212.259 173.382 212.173 173.168 212.045 173.039C211.916 172.953 211.745 172.911 211.573 172.911C209.944 172.825 209.044 172.825 207.715 173.768C206.387 174.711 204.715 175.139 203.386 176.082Z" fill="url(#paint9_linear)"/>
<path d="M176.125 174.796C175.739 175.053 175.396 175.439 175.225 175.868C175.054 176.339 175.225 176.854 175.611 177.111C175.825 177.239 176.082 177.282 176.339 177.282C178.268 177.411 180.197 177.411 182.126 177.239C182.555 177.239 182.983 177.154 183.412 176.982C183.712 176.854 183.969 176.682 184.226 176.511C185.084 176.168 185.512 175.268 185.298 174.41L184.998 172.224C184.998 172.053 184.912 171.839 184.784 171.71C184.655 171.624 184.483 171.582 184.312 171.582C182.683 171.496 181.783 171.496 180.454 172.439C179.126 173.382 177.454 173.853 176.125 174.796Z" fill="url(#paint10_linear)"/>
<path d="M151.522 30.5188L151.222 38.2342L150.236 38.1913L145.564 37.9341L146.121 30.3473L146.164 30.2188L151.522 30.5188Z" fill="#6EAD68"/>
<path d="M150.536 30.6043L150.236 38.1911L145.564 37.934L146.121 30.3472L150.536 30.6043Z" fill="url(#paint11_linear)"/>
<path d="M192.799 56.2365C192.627 56.3222 192.413 56.4508 192.199 56.5365C191.642 56.7937 191.042 56.8795 190.441 56.7937C190.227 56.7509 190.056 56.7509 189.841 56.7937C189.627 56.8795 189.456 57.008 189.327 57.1795C188.684 57.8653 188.127 58.594 187.655 59.3655H187.612C187.612 59.3655 187.698 56.0222 189.456 54.9077C191.213 53.7933 192.799 56.0222 192.799 56.0222V56.2365Z" fill="url(#paint12_linear)"/>
<path opacity="0.69" d="M183.369 84.3979C183.626 83.8836 183.926 83.4121 184.312 82.9835L186.112 80.7117C186.412 80.3688 186.67 79.9402 186.798 79.5115C186.927 78.9543 186.755 78.3971 186.755 77.797C186.755 76.5968 187.527 75.4824 188.47 74.7109C188.556 74.6251 190.27 72.6106 190.356 72.482C190.484 72.1391 189.327 72.6963 188.984 72.9106C187.227 73.8964 186.712 74.8394 186.027 75.6967C183.626 78.6114 182.383 80.4974 181.097 84.0122C180.969 84.3122 180.883 84.6551 180.883 84.998C180.883 85.6838 181.655 87.1841 182.512 87.1412C183.24 87.1412 183.112 85.0409 183.369 84.3979Z" fill="url(#paint13_linear)"/>
<path opacity="0.18" d="M166.309 51.6071H132.576C131.633 51.6499 130.862 50.9212 130.862 49.9782C130.862 49.8925 130.862 49.7639 130.862 49.6782C131.033 48.5638 131.976 47.7494 133.09 47.7494H166.824C167.767 47.7065 168.538 48.4352 168.538 49.3782C168.538 49.4639 168.538 49.5925 168.538 49.6782C168.367 50.7926 167.424 51.6071 166.309 51.6071Z" fill="#6EAD68"/>
<path opacity="0.18" d="M165.238 59.9229H131.505C130.562 59.9657 129.79 59.1942 129.79 58.2941C129.79 58.2083 129.79 58.0798 129.79 57.994C129.961 56.8796 130.904 56.0652 132.019 56.0652H165.752C166.695 56.0223 167.467 56.7939 167.467 57.694C167.467 57.7797 167.467 57.9083 167.467 57.994C167.295 59.1085 166.352 59.9229 165.238 59.9229Z" fill="#6EAD68"/>
<path opacity="0.18" d="M164.123 68.4097H130.39C129.447 68.4526 128.676 67.681 128.676 66.7809C128.676 66.6952 128.676 66.5666 128.676 66.4808C128.847 65.3664 129.79 64.552 130.904 64.552H164.638C165.581 64.5091 166.352 65.2807 166.352 66.1808C166.352 66.2665 166.352 66.3951 166.352 66.4808C166.224 67.5524 165.281 68.3668 164.123 68.4097Z" fill="#6EAD68"/>
<path opacity="0.47" d="M158.594 90.1416C158.594 90.2273 158.594 90.313 158.594 90.4416L144.021 90.1416L145.478 75.6538C152.936 76.3825 158.594 82.6405 158.594 90.1416Z" fill="#6EAD68"/>
<path d="M85.9837 169.439L86.4123 173.768C86.4123 173.768 84.7407 176.297 82.5975 176.426C80.4543 176.554 79.6828 175.568 79.6828 175.568L80.0257 169.182" fill="#FDB9A9"/>
<path d="M55.7651 169.91L55.3365 174.368C55.3365 174.368 57.051 176.94 59.2799 177.111C61.5088 177.283 62.2803 176.211 62.2803 176.211L61.8945 169.653" fill="#FDB9A9"/>
<path d="M61.123 72.5674C61.123 72.5674 52.5075 76.7251 52.2931 78.0967C52.0788 79.4684 53.279 112.987 53.279 112.987C53.279 112.987 56.0651 116.631 64.6378 116.631C73.4247 116.631 76.2109 114.188 76.0394 112.945C75.5679 108.701 77.8397 78.3539 77.6253 76.9394C77.411 75.5249 69.4813 72.6102 69.4813 72.6102L61.123 72.5674Z" fill="#6EAD68"/>
<path d="M66.4809 93.8277C66.4809 93.8277 56.108 95.6708 55.465 95.0278C54.865 94.4278 52.3789 77.5396 52.2932 78.054C52.1646 79.0398 52.7218 95.1564 53.0647 104.115C58.3797 102.486 69.5242 96.871 69.5242 96.871C68.7098 95.6708 67.6811 94.6421 66.4809 93.8277Z" fill="url(#paint14_linear)"/>
<path d="M62.4946 93.956C63.2233 93.3988 64.0377 92.8845 64.8521 92.413C65.7522 91.9415 69.8671 91.5128 70.5958 91.7272C71.3244 91.9415 71.0244 92.3701 70.1243 92.5416C69.2241 92.713 68.4955 92.5416 68.324 93.0559C68.1525 93.5703 69.3099 94.6419 69.2241 95.5848C69.1384 96.5278 69.1813 96.4421 67.081 97.1708C64.9807 97.8995 63.009 98.8425 62.4946 97.2137C61.9802 95.5849 61.7659 94.2132 62.4946 93.956Z" fill="#FDB9A9"/>
<path d="M61.1658 67.3383C61.1658 67.3383 61.123 70.3387 61.123 72.5247C61.1658 74.1535 61.7231 77.3254 65.195 77.3254C68.6669 77.3254 69.0956 73.2962 69.0098 72.5247C68.967 71.9675 69.2241 70.8102 69.0098 69.0099C68.7955 67.1239 61.3373 66.0095 61.1658 67.3383Z" fill="#FDB9A9"/>
<path d="M61.0801 72.2676C60.5658 72.0532 59.9657 72.2676 59.7085 72.7819C59.1942 73.682 59.1513 75.4394 59.7085 77.8398C60.2657 80.2401 60.7372 80.8402 60.7372 80.8402C60.7372 80.8402 63.009 77.5826 64.6378 77.454C64.6378 77.4969 61.4659 76.8539 61.0801 72.2676Z" fill="#F2FDFF"/>
<path d="M69.0527 72.2676C69.5671 72.0532 70.1671 72.2676 70.4243 72.7819C70.9387 73.682 70.9816 75.4394 70.4243 77.8398C69.8671 80.2401 69.3956 80.8402 69.3956 80.8402C69.3956 80.8402 67.1239 77.5826 65.4951 77.454C65.4951 77.4969 68.6669 76.8539 69.0527 72.2676Z" fill="#F2FDFF"/>
<path d="M53.279 112.945C53.279 112.945 52.6361 117.917 53.8791 138.105C55.0364 156.922 55.3365 170.081 55.3365 170.081C55.3365 170.081 55.4651 171.625 58.7227 171.667C61.9803 171.71 62.8375 169.567 62.8375 169.567L66.0094 121.346L79.2113 170.553C79.2113 170.553 83.1119 172.782 86.1123 171.11C88.2555 169.91 76.0823 112.902 76.0823 112.902C76.0823 112.902 65.6665 118.646 53.279 112.945Z" fill="#3F3D56"/>
<path d="M53.922 76.5107C52.6789 77.368 51.6502 78.3967 50.7929 79.6398C49.4213 81.6543 47.1924 98.5425 48.2212 103.129C48.6498 105.058 64.5949 97.8138 64.5949 97.8138C64.5949 97.8138 64.2092 94.5562 62.5375 93.4846C62.5375 93.4846 54.7364 95.1563 54.1363 94.5562C53.5362 93.9561 53.922 76.5107 53.922 76.5107Z" fill="#6EAD68"/>
<path d="M71.7102 56.7511C71.7102 56.7511 70.853 59.4086 71.6674 60.6945C74.6678 65.4094 72.9533 64.9379 71.8388 65.0237C71.7102 65.0237 71.8817 65.9238 71.4959 67.6383C71.153 69.01 72.1389 72.0961 67.9383 70.8102C66.7381 70.4244 60.9087 68.7956 60.48 65.1951C59.9657 60.6945 57.1796 54.9508 62.6661 53.0648C69.1813 50.7502 71.3245 52.5505 71.7102 56.7511Z" fill="#FDB9A9"/>
<path d="M69.0956 71.1102C69.0956 71.1102 64.8521 69.5243 62.9232 68.667C62.9232 68.667 66.9524 72.4818 69.0098 72.439L69.0956 71.1102Z" fill="#B6765E"/>
<path d="M77.6682 76.897C77.6682 76.897 82.5546 98.5858 82.8547 101.372C83.1547 104.158 79.5971 105.573 77.9683 105.101C74.4106 104.115 74.9678 98.0286 74.9678 98.0286L77.6682 76.897Z" fill="#6EAD68"/>
<path d="M82.7261 100.6L87.6982 116.674L84.312 119.074C84.312 119.074 77.111 108.83 76.5109 105.744C75.9108 102.658 75.7394 98.5001 78.7398 98.5858" fill="#6EAD68"/>
<path d="M89.1556 120.574C88.8984 119.889 88.5126 119.203 88.2983 118.474C88.1697 118.046 88.2126 117.574 87.8697 117.188C86.8838 115.988 85.1264 116.76 84.6978 118.003C84.4406 118.86 84.5263 119.76 84.8692 120.574C85.2121 121.389 85.6836 122.118 86.0694 122.932C86.498 123.703 86.7124 124.561 86.6695 125.461C86.5838 125.89 86.5409 126.361 86.498 126.79C86.498 126.918 86.5409 127.09 86.6266 127.175C86.8409 127.475 87.3124 127.304 87.6125 127.09C89.5413 125.632 89.97 122.718 89.1556 120.574Z" fill="#FDB9A9"/>
<path d="M84.312 119.631L83.3262 118.131L87.3553 115.517L88.5126 117.145L84.312 119.631Z" fill="#F2FDFF"/>
<path d="M63.2661 92.5845L65.1521 98.071L63.5233 98.9711C63.5233 98.9711 60.9944 93.9132 60.9087 93.6561C60.8229 93.3989 63.2661 92.5845 63.2661 92.5845Z" fill="#F2FDFF"/>
<path d="M74.5392 85.2979L73.8962 102.186L76.168 104.543L74.5392 85.2979Z" fill="url(#paint15_linear)"/>
<path d="M62.4946 78.0538C62.4946 78.0538 64.7235 84.0547 64.9807 84.5262C65.2379 84.9977 67.1239 78.2682 67.1239 78.2682C67.1239 78.2682 67.8954 77.1537 64.8092 77.2823C63.9948 77.3252 63.1804 77.5823 62.4946 78.0538Z" fill="#F2FDFF"/>
<path d="M76.0394 112.645C76.0394 112.645 69.5671 114.402 66.4381 114.317C63.309 114.231 53.2362 112.173 53.2362 112.173C53.2362 112.173 52.1217 116.503 52.7218 116.931C53.3219 117.36 56.3223 117.103 60.6086 117.274C64.895 117.446 67.5096 119.417 70.9387 119.332C74.3678 119.246 76.4252 114.617 76.4252 114.617L76.0394 112.645Z" fill="#F2FDFF"/>
<path d="M55.6793 173.339C55.3793 173.125 52.4217 175.054 50.7929 176.168C49.9357 176.768 49.0355 177.497 48.9927 178.483C49.0355 179.254 49.4642 179.94 50.15 180.283C50.8358 180.626 51.5645 180.797 52.336 180.797C54.8221 180.926 57.2653 180.712 59.7085 180.197C61.2516 179.897 63.009 179.297 63.4805 177.797C63.6519 177.025 63.5662 176.211 63.309 175.44C63.0518 174.625 62.5375 173.125 62.066 173.639C61.2944 174.582 58.7226 175.397 55.6793 173.339Z" fill="#6EAD68"/>
<path d="M86.2409 172.868C88.1269 173.382 89.4556 174.454 91.0415 175.568C91.8988 176.168 92.7989 176.897 92.8418 177.883C92.7989 178.654 92.3703 179.34 91.6845 179.683C90.9987 180.026 90.27 180.197 89.4985 180.197C87.0124 180.326 84.5692 180.112 82.126 179.597C80.5829 179.297 78.8255 178.697 78.354 177.197C78.1826 176.425 78.2683 175.611 78.5255 174.839C78.7398 174.154 79.1256 173.511 79.7257 173.039C79.7257 173.039 81.6116 174.539 82.8118 174.582C83.7977 174.711 86.2409 172.868 86.2409 172.868Z" fill="#6EAD68"/>
<path d="M55.6793 173.339C55.3793 173.125 52.4217 175.054 50.7929 176.168C49.9357 176.768 49.0355 177.497 48.9927 178.483C49.0355 179.254 49.4642 179.94 50.15 180.283C50.8358 180.626 51.5645 180.797 52.336 180.797C54.8221 180.926 57.2653 180.712 59.7085 180.197C61.2516 179.897 63.009 179.297 63.4805 177.797C63.6519 177.025 63.5662 176.211 63.309 175.44C63.0518 174.625 62.5375 173.125 62.066 173.639C61.2944 174.582 58.7226 175.397 55.6793 173.339Z" fill="url(#paint16_linear)"/>
<path d="M86.2409 172.868C88.1269 173.382 89.4556 174.454 91.0415 175.568C91.8988 176.168 92.7989 176.897 92.8418 177.883C92.7989 178.654 92.3703 179.34 91.6845 179.683C90.9987 180.026 90.27 180.197 89.4985 180.197C87.0124 180.326 84.5692 180.112 82.126 179.597C80.5829 179.297 78.8255 178.697 78.354 177.197C78.1826 176.425 78.2683 175.611 78.5255 174.839C78.7398 174.154 79.1256 173.511 79.7257 173.039C79.7257 173.039 81.6116 174.539 82.8118 174.582C83.7977 174.711 86.2409 172.868 86.2409 172.868Z" fill="url(#paint17_linear)"/>
<path d="M67.6811 56.3224C68.967 55.6795 70.3815 55.3794 71.7103 54.8222C72.096 54.6936 72.3961 54.4793 72.6532 54.1793C72.8676 53.8364 72.9962 53.4935 72.9962 53.0648C73.039 51.3503 71.9674 49.7643 70.5529 48.8214C69.1385 47.8784 67.3811 47.5783 65.7094 47.4497C63.9949 47.2783 62.2375 47.4926 60.6087 48.0927C57.994 49.2071 56.1937 51.6075 55.808 54.3936C55.6794 55.5509 55.8937 56.8797 56.8367 57.4797C56.0652 58.3799 55.808 59.6229 56.108 60.7802C56.4081 61.9375 57.051 62.9234 57.9083 63.7378C58.4226 64.1664 58.8513 64.6808 59.2799 65.1951C59.7943 66.0524 59.9229 67.1668 60.6944 67.8098C60.823 67.9384 60.9944 67.9812 61.1659 68.0241C61.8517 68.1098 62.1946 67.2097 62.2803 66.5668L62.5375 64.8094C62.5804 64.595 62.5804 64.4236 62.4946 64.2093C62.3232 63.8664 61.8946 63.7806 61.6374 63.5663C61.2945 63.2234 61.0802 62.7519 61.0802 62.2376C60.9516 61.7661 61.0373 61.2517 61.2945 60.8231C61.6802 60.3944 62.2803 60.2659 62.7947 60.4802C63.309 60.7373 63.6948 61.1231 63.952 61.5946C64.6807 62.8805 65.0236 59.4514 65.1522 59.0228C65.4522 57.9084 66.5238 56.9225 67.6811 56.3224Z" fill="#3F3D56"/>
<path d="M189.027 78.0112C188.941 78.054 188.813 78.1398 188.813 78.2255C188.813 78.3969 189.113 78.4398 189.284 78.3541C190.099 78.054 190.913 77.6683 191.685 77.1968C191.899 77.0682 192.113 76.9825 192.327 77.0682C192.456 77.1539 192.542 77.2825 192.585 77.4539C192.842 77.9683 193.228 78.4398 193.699 78.7398L194.642 76.3824C194.899 75.8251 195.071 75.2251 195.199 74.5821C195.242 74.1535 195.242 73.7248 195.285 73.3391C195.414 72.9533 195.456 72.5247 195.499 72.1389C195.414 69.6957 192.756 73.6391 192.413 74.1963C191.556 75.6537 190.613 77.1968 189.027 78.0112Z" fill="#F2FDFF"/>
<path d="M189.67 73.4675C189.241 74.2391 188.941 75.0535 188.684 75.9108C188.427 76.768 188.47 77.6681 188.77 78.5254C188.084 78.4825 187.484 78.1825 187.012 77.6681C186.712 78.1396 186.455 78.654 186.327 79.1684C186.112 77.9682 185.941 76.6394 186.67 75.6964C186.97 75.3107 187.398 75.0106 187.741 74.6249C187.955 74.3248 188.127 74.0248 188.341 73.6819C188.77 73.0389 189.413 72.5245 190.099 72.1816C190.056 72.696 189.884 73.1246 189.67 73.4675Z" fill="#F2FDFF"/>
<path d="M206.387 84.4834L202.315 101.714L206.515 103.515L213.159 83.8833" fill="#6EAD68"/>
<path d="M202.229 101.457L201.929 102.486L205.958 104.415L206.258 103.386L202.229 101.457Z" fill="white"/>
<path d="M163.952 80.7113L163.566 80.4541L162.023 84.3975L163.523 85.2119L164.423 80.9256L163.952 80.7113Z" fill="white"/>
<defs>
<linearGradient id="paint0_linear" x1="119.243" y1="77.9415" x2="123.263" y2="233.702" gradientUnits="userSpaceOnUse">
<stop offset="0.01"/>
<stop offset="0.13" stop-opacity="0.69"/>
<stop offset="1" stop-opacity="0"/>
</linearGradient>
<linearGradient id="paint1_linear" x1="146.516" y1="147.029" x2="150.284" y2="84.1481" gradientUnits="userSpaceOnUse">
<stop stop-opacity="0"/>
<stop offset="0.99"/>
</linearGradient>
<linearGradient id="paint2_linear" x1="154.796" y1="83.9347" x2="176.476" y2="83.9347" gradientUnits="userSpaceOnUse">
<stop stop-color="#ECC4D7"/>
<stop offset="0.42" stop-color="#EFD4D1"/>
<stop offset="1" stop-color="#F2EAC9"/>
</linearGradient>
<linearGradient id="paint3_linear" x1="183.208" y1="84.7452" x2="193.169" y2="92.6491" gradientUnits="userSpaceOnUse">
<stop stop-opacity="0"/>
<stop offset="0.99"/>
</linearGradient>
<linearGradient id="paint4_linear" x1="190.845" y1="74.9897" x2="198.321" y2="73.018" gradientUnits="userSpaceOnUse">
<stop offset="0.02" stop-color="white" stop-opacity="0"/>
<stop offset="0.58" stop-color="white" stop-opacity="0.39"/>
<stop offset="0.68" stop-color="white" stop-opacity="0.68"/>
<stop offset="1" stop-color="white"/>
</linearGradient>
<linearGradient id="paint5_linear" x1="190.68" y1="93.342" x2="239.377" y2="93.342" gradientUnits="userSpaceOnUse">
<stop stop-opacity="0"/>
<stop offset="0.99"/>
</linearGradient>
<linearGradient id="paint6_linear" x1="185.776" y1="65.9623" x2="188.044" y2="65.2593" gradientUnits="userSpaceOnUse">
<stop stop-opacity="0"/>
<stop offset="0.99"/>
</linearGradient>
<linearGradient id="paint7_linear" x1="193.088" y1="56.0645" x2="195.394" y2="66.1073" gradientUnits="userSpaceOnUse">
<stop stop-opacity="0"/>
<stop offset="0.99"/>
</linearGradient>
<linearGradient id="paint8_linear" x1="200.525" y1="97.7122" x2="212.797" y2="97.7122" gradientUnits="userSpaceOnUse">
<stop stop-color="#ECC4D7"/>
<stop offset="0.42" stop-color="#EFD4D1"/>
<stop offset="1" stop-color="#F2EAC9"/>
</linearGradient>
<linearGradient id="paint9_linear" x1="202.439" y1="175.776" x2="212.568" y2="175.776" gradientUnits="userSpaceOnUse">
<stop stop-opacity="0"/>
<stop offset="0.99"/>
</linearGradient>
<linearGradient id="paint10_linear" x1="175.165" y1="174.487" x2="185.294" y2="174.487" gradientUnits="userSpaceOnUse">
<stop stop-opacity="0"/>
<stop offset="0.99"/>
</linearGradient>
<linearGradient id="paint11_linear" x1="152.579" y1="26.8745" x2="136.711" y2="53.6512" gradientUnits="userSpaceOnUse">
<stop stop-opacity="0"/>
<stop offset="0.99"/>
</linearGradient>
<linearGradient id="paint12_linear" x1="188.634" y1="53.3695" x2="190.01" y2="57.2744" gradientUnits="userSpaceOnUse">
<stop stop-opacity="0"/>
<stop offset="0.99"/>
</linearGradient>
<linearGradient id="paint13_linear" x1="189.566" y1="81.9577" x2="182.485" y2="77.3799" gradientUnits="userSpaceOnUse">
<stop offset="0.02" stop-color="white" stop-opacity="0"/>
<stop offset="0.58" stop-color="white" stop-opacity="0.39"/>
<stop offset="0.68" stop-color="white" stop-opacity="0.68"/>
<stop offset="1" stop-color="white"/>
</linearGradient>
<linearGradient id="paint14_linear" x1="63.2301" y1="86.7159" x2="19.7882" y2="105.241" gradientUnits="userSpaceOnUse">
<stop stop-opacity="0"/>
<stop offset="0.99"/>
</linearGradient>
<linearGradient id="paint15_linear" x1="79.0424" y1="95.5834" x2="55.5363" y2="91.3657" gradientUnits="userSpaceOnUse">
<stop stop-opacity="0"/>
<stop offset="0.99"/>
</linearGradient>
<linearGradient id="paint16_linear" x1="49.0423" y1="177.109" x2="63.6441" y2="177.109" gradientUnits="userSpaceOnUse">
<stop stop-opacity="0"/>
<stop offset="0.99"/>
</linearGradient>
<linearGradient id="paint17_linear" x1="78.2236" y1="176.595" x2="92.84" y2="176.595" gradientUnits="userSpaceOnUse">
<stop stop-opacity="0"/>
<stop offset="0.99"/>
</linearGradient>
</defs>
</svg>
