<svg width="207" height="198" viewBox="0 0 207 198" fill="none" xmlns="http://www.w3.org/2000/svg">
<path opacity="0.18" d="M165.398 29.4858H199.641C203.303 29.4858 206.259 32.4412 206.259 36.1032V75.8713C206.259 79.5334 203.303 82.4887 199.641 82.4887H165.398C161.736 82.4887 158.781 79.5334 158.781 75.8713V36.1032C158.781 32.4412 161.736 29.4858 165.398 29.4858Z" fill="#6EAD68"/>
<path opacity="0.18" d="M7.09645 32.4409H41.3395C45.0015 32.4409 47.9568 35.3962 47.9568 39.0582V78.8264C47.9568 82.4884 45.0015 85.4437 41.3395 85.4437H7.09645C3.43444 85.4437 0.479126 82.4884 0.479126 78.8264V39.0582C0.543372 35.3962 3.49868 32.4409 7.09645 32.4409Z" fill="#6EAD68"/>
<path d="M158.717 74.2651C160.451 71.117 162.25 67.9047 165.141 65.7846C168.354 63.4075 172.53 62.7008 176.577 62.4438C182.359 62.0584 188.077 62.3796 193.795 63.4075C194.887 63.6003 195.915 63.8572 197.007 64.1785C199.513 65.1422 201.569 67.0053 203.432 68.9969C204.138 69.7036 204.717 70.5388 205.102 71.4382C205.552 72.8517 205.616 74.3936 205.359 75.807C205.166 77.2846 204.909 78.8908 203.946 80.1114C202.468 82.1031 199.706 82.617 197.2 82.7455C192.317 82.9383 187.435 82.1673 182.552 82.4243C180.753 82.4885 178.89 82.7455 177.091 82.874C173.429 83.0025 169.703 82.9383 166.041 82.5528C164.435 82.4243 162.764 82.2958 161.415 81.3964C160.066 80.3684 159.231 78.8908 158.974 77.2204C158.781 75.6142 158.781 73.9438 158.974 72.2734" fill="#6EAD68"/>
<path d="M178.954 57.4325C178.826 58.5889 178.44 59.6811 177.926 60.6448C177.412 61.48 176.77 62.2509 176.706 63.2789C176.706 63.9213 176.834 64.4995 177.091 65.0777C177.733 67.0051 178.633 68.7398 179.918 70.2817C181.46 72.1448 184.03 72.9157 186.342 72.209C186.921 72.0163 187.435 71.6951 187.884 71.3096C189.298 69.9604 188.27 67.1979 187.627 65.0135C186.792 62.1224 188.077 57.8822 187.627 56.0833C187.499 55.3124 187.113 54.6057 186.599 54.0275C185.957 53.5135 185.122 53.2565 184.351 53.4492C181.845 53.7705 179.532 55.8906 178.44 58.8459" fill="#FDB9A9"/>
<path d="M184.415 63.408C185.379 63.5364 186.471 63.3437 186.985 62.5728C187.242 62.123 187.37 61.5448 187.37 61.0309L187.563 57.8828C186.985 58.2683 186.342 58.3968 185.636 58.3968C184.543 58.461 183.451 58.461 182.359 58.461C181.652 58.461 180.111 58.0755 179.532 58.5895C178.504 59.4247 181.203 61.8661 181.845 62.38C182.616 62.894 183.451 63.2795 184.415 63.408Z" fill="url(#paint0_linear)"/>
<path d="M174.393 51.5867C174.65 52.6788 174.971 53.771 175.485 54.7989C175.999 55.7626 176.641 56.5978 177.412 57.3688C178.183 58.2682 179.147 59.0392 180.175 59.5531C181.524 60.0671 182.937 60.3241 184.351 60.2598C185.314 60.2598 186.278 60.1314 187.178 59.8744C189.169 59.1677 190.454 57.176 191.354 55.2487C192.574 52.7431 193.217 49.9805 193.281 47.1537C193.345 44.3269 192.638 41.5643 191.225 39.1872C190.518 37.9023 189.426 36.8744 188.205 36.1034C186.728 35.3967 185.057 35.0112 183.387 35.1397C182.359 35.1397 181.331 35.204 180.303 35.5252C178.697 36.0392 177.284 37.0028 176.192 38.2235C175.485 38.866 174.907 39.6369 174.457 40.5364C172.594 43.8772 173.557 48.0531 174.393 51.5867Z" fill="#FDB9A9"/>
<path d="M174.971 46.3185C175.035 48.1816 174.842 50.0447 174.393 51.8436C173.365 50.5587 172.658 49.0168 172.208 47.4749C171.887 46.6397 171.63 45.7402 171.502 44.8408C171.437 44.0698 171.373 43.2989 171.437 42.4637C171.437 41.8855 171.502 41.3073 171.63 40.7933C171.759 40.2151 172.08 39.7654 172.594 39.4441C172.787 39.3799 172.979 39.2514 173.108 39.1229C173.236 38.9302 173.301 38.7374 173.301 38.4805C173.493 37.0028 174.264 35.4609 175.678 34.8184C176.449 34.433 177.219 34.1117 177.99 33.8548C181.138 33.0838 184.415 32.9553 187.563 33.662C189.233 34.0475 191.032 34.6257 192.125 35.9749C192.96 37.0671 193.474 38.2877 193.666 39.6369C193.859 40.0866 193.795 40.5363 193.538 40.9218C193.409 41.0503 193.281 41.1788 193.152 41.3715C193.024 41.6285 193.024 41.8855 193.088 42.0782C193.538 44.7766 193.409 47.7319 191.803 49.9805C191.803 47.6676 191.611 45.3548 191.225 43.0419C191.225 42.7207 191.097 42.3995 190.904 42.1425C190.454 41.5 189.426 41.6285 188.655 41.757C185.7 42.2067 182.68 41.8212 179.982 40.5363C179.532 40.2793 178.954 40.0866 178.44 39.9581C177.862 39.8939 177.348 40.1509 177.027 40.6006C176.898 40.986 176.834 41.3715 176.77 41.757C176.513 42.271 176.192 42.7207 175.742 43.1704C175.164 44.0698 174.907 45.2263 174.971 46.3185Z" fill="#3E3E54"/>
<path d="M199.192 69.061C199.063 68.3543 199.256 67.5834 199.706 67.0052C200.155 66.6197 200.798 66.427 201.376 66.427C202.597 66.3627 203.817 66.3627 205.038 66.4912C205.231 66.4912 205.423 66.5555 205.616 66.684C205.809 66.8767 205.937 67.1337 205.937 67.4549C206.194 69.4465 206.323 71.5024 206.194 73.494C206.194 75.5499 205.745 77.5415 204.781 79.4046C204.138 80.4968 203.239 81.3962 202.147 82.0387C201.312 82.5527 199.577 83.4521 198.613 83.0024C197.457 82.4884 198.164 80.6895 198.356 79.7901C198.613 78.1197 198.87 76.4493 198.999 74.7789C199.192 72.8515 199.256 70.9242 199.192 69.061Z" fill="#6EAD68"/>
<path d="M200.99 62.5083C200.541 61.6731 200.027 60.9021 199.384 60.1954C198.742 59.4245 198.164 58.6535 197.65 57.7541C197.393 57.4971 197.328 57.1116 197.393 56.7261C197.585 56.2764 198.292 56.2764 198.678 56.5334C199.32 56.9189 199.963 57.6256 200.669 57.3686C201.376 57.1116 201.44 56.2122 201.312 55.5055C200.99 53.1284 199.641 50.7513 200.541 48.5027C201.504 49.7233 202.211 51.0725 202.789 52.5502C203.111 52.4217 203.303 52.1004 203.303 51.7792C203.303 51.458 203.239 51.0725 203.111 50.7513C202.854 49.7233 202.918 48.6312 203.303 47.6675C204.01 48.1814 204.524 48.9524 204.717 49.7876C206.259 54.0921 206.066 58.8463 205.809 63.4077C205.809 64.3072 205.68 65.1424 205.488 66.0418C205.359 66.6843 205.038 67.2625 204.524 67.7122C203.753 68.2904 201.633 68.5474 201.247 67.4552C200.99 66.8127 201.312 65.6563 201.312 64.9496C201.44 64.1144 201.312 63.2792 200.99 62.5083Z" fill="#FDB9A9"/>
<path d="M30.739 40.0864C29.4541 39.3155 28.0407 38.7373 26.6273 38.3518C22.901 37.5809 18.982 38.4803 16.0267 40.8574C13.0714 43.2345 11.0155 46.5753 10.1803 50.3015C9.21663 54.092 9.34512 58.1395 8.1887 61.8658C7.41775 64.3071 6.13283 66.5557 5.23339 68.9971C4.33395 71.4384 3.94847 74.201 4.97641 76.5138C6.00434 78.8267 8.31719 80.3686 10.8228 81.0753C13.3284 81.782 15.834 81.782 18.4038 81.782L24.6356 81.7177C28.5546 81.7177 32.9876 81.4608 35.6859 78.6339C37.9345 76.3211 38.4485 72.9161 38.2558 69.7038C38.063 66.4915 37.2278 63.3434 37.1636 60.1954C37.0993 52.6144 38.3842 44.3909 30.739 40.0864Z" fill="#3E3E54"/>
<path d="M6.45404 74.6507C8.31717 72.9803 11.0155 72.5306 13.5211 72.4663C17.4401 72.4663 21.3591 72.7875 25.2781 73.4942C26.82 73.687 28.3619 74.0082 29.8395 74.4579C34.8507 76.0641 38.6412 80.1116 42.1747 83.9663C42.4317 84.159 42.5602 84.4803 42.6244 84.8015C42.6887 85.5725 41.6608 85.8294 40.8898 85.8937C31.4457 86.2792 22.0015 85.2512 12.5574 85.7652C9.66633 85.8937 4.07694 86.6004 2.59929 83.2596C1.50711 80.6255 4.7194 76.2568 6.45404 74.6507Z" fill="#6EAD68"/>
<path d="M22.5155 53.8994C21.6803 54.2849 20.7809 54.6062 19.8172 54.7989C18.2753 55.0559 16.6691 54.6704 15.1272 54.7989C15.063 54.7989 14.9345 54.7989 14.8702 54.8631C14.806 54.9274 14.7417 55.0559 14.7417 55.1201C14.3563 57.8827 14.292 60.7095 14.4848 63.4721C14.549 64.6285 14.8702 65.7849 15.32 66.8771C16.7334 69.7039 19.8172 71.4386 22.9652 71.1173C26.1133 70.7319 28.8116 68.676 30.0965 65.7849C30.739 64.1145 31.1244 62.3799 31.1887 60.6453C31.3814 58.3967 31.5099 56.1481 31.5742 53.8994C30.6105 53.3212 29.968 52.2933 29.8395 51.1369C29.711 50.1732 29.7753 49.2095 29.9038 48.3101C28.0406 51.0084 25.535 52.6145 22.5155 53.8994Z" fill="#FDB9A9"/>
<path d="M24.3143 76.0639C23.9931 77.1561 23.2222 78.1198 22.1942 78.6337C21.0378 79.0835 19.6886 78.955 18.5964 78.3768C17.954 78.0555 17.3758 77.6058 17.0546 76.9634C16.7976 76.4494 16.7333 75.8712 16.7333 75.3572C16.6691 74.3293 16.7333 73.2371 16.9261 72.2092C17.183 70.6673 17.8255 69.0611 19.0462 68.0974C20.4596 67.0695 23.5434 66.8768 24.5713 68.5471C25.5992 70.2175 24.8925 74.3935 24.3143 76.0639Z" fill="#FDB9A9"/>
<path opacity="0.18" d="M98.7753 0.189941H133.083C136.745 0.189941 139.7 3.14525 139.7 6.80726V46.5754C139.7 50.2375 136.745 53.1928 133.083 53.1928H98.7753C95.1133 53.1928 92.158 50.2375 92.158 46.5754V6.80726C92.158 3.14525 95.1133 0.189941 98.7753 0.189941Z" fill="#6EAD68"/>
<path d="M98.1329 42.3995C99.996 40.7291 102.694 40.2794 105.2 40.2151C108.862 40.1509 112.588 40.4079 116.186 41.0503C119.719 41.6285 123.317 41.5643 126.915 41.757C128.2 41.8213 129.613 41.9498 130.513 42.8492C130.962 43.3632 131.284 43.9414 131.476 44.5839L132.376 46.8325C133.018 48.4386 135.395 52.2934 133.404 53.3855C132.312 53.9638 130.063 53.5783 128.842 53.5783C127.236 53.5783 125.63 53.5783 124.024 53.514C117.471 53.3855 110.854 53.0001 104.236 53.3213C101.345 53.4498 95.7558 54.1565 94.2781 50.8157C93.1217 48.3744 96.334 43.9414 98.1329 42.3995Z" fill="#6EAD68"/>
<path d="M117.15 5.7152C119.077 4.49453 121.518 4.36604 123.574 5.45822C124.281 5.77945 124.859 6.29342 125.309 6.93587C125.887 7.96381 126.272 9.12023 126.272 10.3409C126.722 14.4526 126.786 18.5001 126.529 22.6119C126.273 26.3381 125.759 30.1929 126.722 33.7906C124.217 32.1845 122.161 29.9359 120.747 27.3018C119.334 24.6677 118.178 21.9694 117.342 19.1426C116.443 16.5085 115.8 13.8102 114.708 11.3046C113.68 9.31297 115.415 6.80738 117.15 5.7152Z" fill="#3E3E54"/>
<path d="M119.848 43.1701C119.719 44.3266 119.205 45.3545 118.306 46.0612C117.214 46.7037 115.929 46.8964 114.708 46.5109C114.002 46.3824 113.359 45.997 112.909 45.4188C112.588 44.969 112.395 44.4551 112.267 43.8769C112.01 42.8489 111.881 41.821 111.881 40.7931C111.881 39.2512 112.138 37.5808 113.231 36.3601C114.387 35.0752 117.407 34.3042 118.756 35.7176C120.105 37.131 120.105 41.3713 119.848 43.1701Z" fill="url(#paint1_linear)"/>
<path d="M112.974 40.6004C113.488 41.3713 114.259 41.9495 115.158 42.2065C115.8 42.335 116.443 42.3992 117.085 42.335C117.278 42.335 117.535 42.335 117.728 42.2708C117.921 42.2065 118.049 42.1423 118.178 42.0138C119.398 41.1143 119.976 39.6367 119.784 38.159C119.784 38.0305 117.15 37.8378 116.893 37.8378C115.929 37.7093 114.901 37.7093 113.937 37.7093C113.359 37.7093 112.524 37.6451 112.331 38.2875C112.138 38.93 112.588 40.0222 112.974 40.6004Z" fill="url(#paint2_linear)"/>
<path d="M106.742 22.6121C106.678 25.1819 106.935 27.7517 107.448 30.3216C107.962 32.8914 109.247 35.2043 111.046 37.0674C112.781 38.6735 115.03 39.573 117.407 39.5087C119.784 39.4445 121.968 38.3523 123.381 36.4892C124.602 34.883 125.052 32.8272 125.309 30.8998C125.823 27.4948 125.823 23.9612 125.437 20.5562C125.373 19.5925 125.116 18.6288 124.731 17.7294C123.895 16.316 122.611 15.2881 121.069 14.7741C118.627 13.8746 115.993 13.6819 113.423 14.1959C107.705 15.2881 107.192 19.3998 106.806 19.5925C106.678 20.6205 106.678 21.6484 106.742 22.6121Z" fill="url(#paint3_linear)"/>
<path d="M104.108 17.7933C104.3 14.9023 105.778 12.2682 108.155 10.6621C110.532 9.12015 113.488 8.92741 116.25 8.86317C119.205 8.79892 122.353 8.92742 124.859 10.5336C127.622 12.3967 129.228 15.4805 129.164 18.757C129.099 21.7123 127.879 24.5392 125.694 26.595C125.18 25.8883 125.052 24.9246 124.666 24.1537C124.281 23.3827 123.831 22.676 123.253 22.0336L120.812 18.9498C120.747 18.8213 120.619 18.6928 120.49 18.6285C120.233 18.5 119.912 18.5 119.591 18.5643C116.893 18.8855 114.194 19.014 111.432 18.9498C110.404 18.9498 109.183 18.9498 108.412 19.6565C107.448 20.5559 107.898 24.6034 106.035 24.3464C105.136 24.2179 104.686 22.3548 104.429 21.6481C104.236 20.3632 104.043 19.0783 104.108 17.7933Z" fill="#3E3E54"/>
<path d="M112.074 29.9996C113.529 29.9996 114.708 28.8203 114.708 27.3655C114.708 25.9108 113.529 24.7314 112.074 24.7314C110.619 24.7314 109.44 25.9108 109.44 27.3655C109.44 28.8203 110.619 29.9996 112.074 29.9996Z" stroke="white" stroke-width="0.84" stroke-miterlimit="10"/>
<path d="M120.169 29.9996C121.624 29.9996 122.803 28.8203 122.803 27.3655C122.803 25.9108 121.624 24.7314 120.169 24.7314C118.714 24.7314 117.535 25.9108 117.535 27.3655C117.535 28.8203 118.714 29.9996 120.169 29.9996Z" stroke="white" stroke-width="0.84" stroke-miterlimit="10"/>
<path d="M91.1943 96.173H90.2306V76.0641H119.462V54.1562H120.426V76.9635H91.1943V96.173Z" fill="#6EAD68"/>
<path d="M100.574 94.7594H99.6105V90.455H176.641V83.0024H177.541V91.3544H100.574V94.7594Z" fill="#6EAD68"/>
<path d="M82.5211 95.9159H81.5574V92.5109H22.1943V85.8936H23.158V91.6114H82.5211V95.9159Z" fill="#6EAD68"/>
<path d="M68.7725 95.0166H113.809C117.664 95.0166 120.812 98.1004 120.812 101.955V166.779C120.812 170.313 117.985 173.14 114.451 173.14H68.5155C64.8535 173.14 61.8339 170.184 61.8339 166.522V101.891C61.8982 98.1004 64.982 95.0166 68.7725 95.0166Z" fill="#6EAD68"/>
<path d="M68.7725 95.0166H113.809C117.664 95.0166 120.812 98.1004 120.812 101.955V166.779C120.812 170.313 117.985 173.14 114.451 173.14H68.5155C64.8535 173.14 61.8339 170.184 61.8339 166.522V101.891C61.8982 98.1004 64.982 95.0166 68.7725 95.0166Z" fill="url(#paint4_linear)"/>
<path d="M118.113 101.184H64.6607V163.76H118.113V101.184Z" fill="white"/>
<path d="M68.901 148.726L74.9401 145.257C77.0602 143.972 79.3088 142.88 81.6217 142.045C85.1552 140.888 88.9457 140.953 92.6077 141.081C98.4541 141.274 104.429 141.788 109.633 144.55C114.773 147.313 118.884 152.774 118.242 158.62C118.049 160.098 117.664 161.511 117.15 162.925C117.085 163.246 116.893 163.567 116.571 163.824C116.25 164.017 115.929 164.081 115.608 164.017C102.309 164.081 89.0742 164.852 75.7753 164.145C72.306 163.953 68.7725 164.467 65.3032 164.595C64.8535 164.595 64.7893 154.573 64.8535 153.802C65.1105 151.103 66.6524 150.011 68.901 148.726Z" fill="#6EAD68"/>
<path d="M111.689 141.081C112.395 143.008 112.781 145 112.974 146.992C113.231 149.24 113.552 151.553 113.616 153.866C113.745 156.95 113.616 160.033 114.194 163.053C114.773 166.073 115.993 169.092 118.435 170.955C118.692 171.276 119.141 171.405 119.527 171.341C119.912 171.212 120.105 170.698 120.233 170.313C121.647 164.852 120.105 159.134 119.334 153.48C119.077 151.039 118.756 148.533 118.242 146.156C117.856 144.486 117.278 142.88 116.443 141.338C115.865 140.053 115.029 138.961 114.066 137.997C113.488 137.483 111.111 135.749 110.34 136.648C109.569 137.483 111.303 140.181 111.689 141.081Z" fill="url(#paint5_linear)"/>
<path d="M71.1496 150.975C70.9569 152.452 70.8926 153.994 70.8926 155.536V162.603C70.9569 163.888 70.8284 165.173 70.5071 166.458C69.8004 168.771 68.1943 170.698 66.0099 171.855C65.7529 172.047 65.4317 172.112 65.1105 172.112C64.3395 172.112 63.8256 171.341 63.5686 170.57C61.9624 166.587 61.7697 162.154 61.8982 157.913C62.0267 153.673 62.3479 149.304 61.7055 145.064C61.577 144.486 61.577 143.908 61.7697 143.33C62.0909 142.816 62.6049 142.366 63.1831 142.109L69.8004 138.575C71.1496 137.869 74.1691 133.179 75.0686 135.299C75.7753 136.905 73.4624 142.88 72.9485 144.422C72.1775 146.542 71.5351 148.726 71.1496 150.975Z" fill="url(#paint6_linear)"/>
<path d="M59.2641 175.195C62.9904 172.561 65.8172 168.771 67.3591 164.466C69.9931 156.95 68.5797 148.212 72.563 141.402C73.5267 139.732 74.8116 138.254 75.2613 136.391C75.711 134.528 75.0043 132.151 73.1412 131.701C71.2781 131.251 69.5434 132.922 68.3228 134.399L61.9624 142.109C61.8982 141.466 61.8982 135.299 61.9624 133.243C55.4093 133.564 49.6272 138.897 48.0211 145.257C47.5071 147.634 47.2501 150.011 47.3144 152.452C47.3144 154.958 47.3786 157.464 47.5713 159.969C47.6998 161.575 47.6998 163.182 47.5713 164.852C47.0574 169.413 44.1663 173.332 42.9456 177.765C42.8814 177.958 42.8814 178.151 42.9456 178.344C43.0099 178.472 43.2026 178.601 43.3311 178.665C45.1943 179.693 47.4429 179.885 49.563 179.95C51.6831 180.014 53.9959 180.142 56.2445 180.078C56.6943 180.078 57.0797 180.014 57.4652 179.885C58.2362 179.5 58.4289 178.472 58.4931 177.573" fill="#FDB9A9"/>
<path d="M118.756 168.514C114.451 160.419 116.828 150.011 112.588 141.852C111.496 139.796 110.018 137.74 110.018 135.427C109.89 134.592 110.468 133.757 111.367 133.628C111.624 133.564 111.946 133.628 112.203 133.692C115.736 134.271 117.664 138.19 120.876 139.796L120.619 133.692C124.345 134.206 127.879 135.813 130.641 138.447C131.926 139.603 132.89 140.952 133.597 142.494C134.239 144.164 134.56 145.899 134.624 147.698C134.881 151.938 134.496 156.243 134.817 160.483C135.138 164.723 136.102 169.092 138.736 172.433C140.15 174.232 142.141 176.03 141.948 178.343C141.948 178.536 141.884 178.665 141.82 178.857C141.627 178.986 141.435 179.05 141.178 179.05C138.672 179.05 136.102 179.05 133.597 178.986C131.476 178.921 127.557 179.5 125.694 178.6C124.345 177.958 123.51 175.388 122.61 174.039C121.133 172.304 119.912 170.441 118.756 168.514Z" fill="#FDB9A9"/>
<path d="M86.0546 145.449C86.7613 148.34 88.6244 150.782 91.2585 152.131C92.8004 152.966 94.5993 153.287 96.2055 152.581C98.5183 151.553 99.9317 148.469 100.253 145.449C100.574 142.43 99.996 139.346 99.3535 136.391C99.2893 135.556 98.968 134.72 98.4541 134.014C98.0686 133.692 97.6189 133.435 97.1049 133.307C94.4066 132.6 88.8172 131.893 86.5686 134.72C84.8982 136.84 85.4764 142.944 86.0546 145.449Z" fill="#FDB9A9"/>
<path d="M80.2083 116.411V134.592C80.2083 134.592 80.3368 142.687 93.1859 143.651C106.035 144.615 104.814 128.361 104.814 128.361L105.071 114.869C105.071 114.869 83.3563 111.721 80.2083 116.411Z" fill="#FDB9A9"/>
<path d="M82.8547 120.596C82.6672 120.849 82.3547 120.849 82.0423 120.912C81.2923 121.165 80.9798 122.113 80.8548 122.934C80.5424 124.956 80.2924 126.978 80.2299 129L78.1051 123.25C77.5426 121.986 77.2301 120.659 77.0426 119.333C76.8552 117.942 77.2926 116.552 78.2301 115.541C78.48 115.289 78.73 115.036 78.98 114.72C79.1675 114.341 79.23 113.899 79.2925 113.456C79.6049 111.877 80.4799 110.487 81.7298 109.539C82.9797 108.591 84.4171 107.896 85.8545 107.454C91.354 105.558 97.2911 105.495 102.853 107.39C104.666 108.022 106.54 109.033 107.353 110.739C107.79 111.687 107.978 112.698 107.978 113.709C108.165 117.942 107.165 122.113 105.103 125.841C105.29 123.061 104.978 120.344 104.228 117.69C104.541 118.764 92.604 119.143 91.604 119.017C89.4792 118.764 87.4793 117.943 85.417 117.627C84.6671 117.5 84.1671 117.437 83.6046 118.006C82.9172 118.701 83.3547 119.964 82.8547 120.596Z" fill="#B7A451"/>
<path d="M85.1552 133.564C86.2474 132.086 87.9178 131.123 89.7809 130.994C91.5798 130.866 93.4429 131.058 95.1775 131.444C96.5267 131.701 98.0686 132.022 98.968 133.114C99.6105 133.885 99.8032 134.977 100.317 135.877C100.831 136.776 102.052 137.419 102.887 136.841C103.016 138.383 101.859 139.667 100.895 140.888C99.9317 142.109 99.1608 143.458 97.8759 144.229C96.9122 144.743 95.8842 145 94.792 145C92.3507 145.257 89.8451 145 87.5965 144.165C86.5043 143.715 85.4764 143.137 84.6412 142.366C84.063 141.852 82.4568 140.374 82.4568 139.475C82.4568 139.089 83.0351 138.704 83.2278 138.318C83.549 137.804 83.7418 137.29 83.9345 136.712C84.1915 135.62 84.577 134.592 85.1552 133.564Z" fill="#B7A451"/>
<path d="M88.8815 135.234C89.2669 134.849 89.7809 134.656 90.2949 134.656C91.8368 134.463 93.3787 134.464 94.9206 134.592C95.4345 134.592 95.9485 134.72 96.4625 134.913C97.6189 135.556 97.8116 137.033 97.8759 138.318C98.0044 138.961 97.8759 139.667 97.6189 140.246C97.1692 140.888 96.3982 141.274 95.6273 141.338C93.5714 141.723 90.7446 141.659 88.8815 140.503C88.239 140.117 87.9178 139.41 88.0463 138.704C88.1748 137.869 88.239 136.005 88.8815 135.234Z" fill="url(#paint7_linear)"/>
<path d="M52.4541 196.268C52.3898 196.653 52.2613 197.103 52.1328 197.489C42.6887 196.396 35.3004 195.176 31.5742 194.469C31.6384 193.184 31.9596 191.899 32.4736 190.743C33.887 187.273 35.4932 183.933 37.3563 180.72C37.7418 179.821 38.4485 179.05 39.2837 178.536C40.1831 178.215 41.1468 178.151 42.0462 178.343C45.7725 178.793 55.1524 178.665 56.887 182.969C58.2362 186.31 53.225 192.67 52.4541 196.268Z" fill="#6EAD68"/>
<path d="M147.024 185.924C146.96 186.31 146.767 186.695 146.446 187.016C139.764 190.807 133.275 193.762 127.172 195.497C126.915 195.24 126.786 194.854 126.658 194.533C125.309 190.229 123.895 185.86 122.546 181.556C122.097 180.078 121.647 178.343 122.546 177.123C123.446 175.902 125.373 175.709 126.979 175.773C131.027 175.773 137.708 174.81 141.499 176.159C144.968 177.38 145.418 181.234 146.638 184.511C146.895 184.896 147.024 185.41 147.024 185.924Z" fill="#6EAD68"/>
<defs>
<linearGradient id="paint0_linear" x1="183.381" y1="56.1838" x2="183.42" y2="72.3544" gradientUnits="userSpaceOnUse">
<stop stop-opacity="0"/>
<stop offset="0.99"/>
</linearGradient>
<linearGradient id="paint1_linear" x1="111.808" y1="41.6852" x2="120.075" y2="40.0723" gradientUnits="userSpaceOnUse">
<stop stop-color="#867580"/>
<stop offset="0.57" stop-color="#9B8F8E"/>
</linearGradient>
<linearGradient id="paint2_linear" x1="115.966" y1="33.2095" x2="116.345" y2="52.5668" gradientUnits="userSpaceOnUse">
<stop stop-opacity="0"/>
<stop offset="0.99"/>
</linearGradient>
<linearGradient id="paint3_linear" x1="106.703" y1="26.6942" x2="125.706" y2="26.6942" gradientUnits="userSpaceOnUse">
<stop stop-color="#867580"/>
<stop offset="0.57" stop-color="#9B8F8E"/>
</linearGradient>
<linearGradient id="paint4_linear" x1="91.0199" y1="185.922" x2="92.5362" y2="-16.3371" gradientUnits="userSpaceOnUse">
<stop offset="0.02" stop-color="white" stop-opacity="0"/>
<stop offset="0.32" stop-color="white" stop-opacity="0.39"/>
<stop offset="0.68" stop-color="white" stop-opacity="0.68"/>
<stop offset="1" stop-color="white"/>
</linearGradient>
<linearGradient id="paint5_linear" x1="111.657" y1="158.729" x2="126.234" y2="137.772" gradientUnits="userSpaceOnUse">
<stop stop-opacity="0"/>
<stop offset="0.99"/>
</linearGradient>
<linearGradient id="paint6_linear" x1="80.0527" y1="159.013" x2="52.5169" y2="144.03" gradientUnits="userSpaceOnUse">
<stop stop-opacity="0"/>
<stop offset="0.99"/>
</linearGradient>
<linearGradient id="paint7_linear" x1="88.0818" y1="138.06" x2="97.9564" y2="138.06" gradientUnits="userSpaceOnUse">
<stop stop-color="#E5C5D5"/>
<stop offset="0.42" stop-color="#EAD4D1"/>
<stop offset="1" stop-color="#F0E9CB"/>
</linearGradient>
</defs>
</svg>
