<svg width="237" height="119" viewBox="0 0 237 119" fill="none" xmlns="http://www.w3.org/2000/svg">
<path d="M186.764 57.7192H184.752V109.677H186.764V57.7192Z" fill="#6EAD68"/>
<path d="M186.764 57.7192H184.752V109.677H186.764V57.7192Z" fill="#BCDBF2"/>
<path d="M117.052 106.006L157.361 107.559C159.267 107.629 161.244 107.735 162.832 108.088C165.374 108.688 166.08 109.959 165.127 110.947C164.174 111.935 161.95 112.712 159.585 113.347C144.901 117.301 124.323 117.195 105.439 116.912L16.349 115.642C12.9252 115.606 9.36017 115.536 6.21872 115.006C3.07727 114.477 0.535871 113.347 0.959438 112.183C1.34771 111.124 3.9597 110.382 6.60699 109.853C14.3371 108.3 23.5144 107.806 32.4445 107.347C45.9987 106.676 59.6234 106.041 73.2481 105.476" fill="url(#paint0_linear)"/>
<path d="M219.555 107.17L233.956 108.265C234.627 108.265 235.298 108.441 235.898 108.759C236.815 109.359 237.062 110.665 236.745 111.688C236.427 112.712 235.615 113.559 234.768 114.23C229.544 118.501 222.202 118.642 215.461 118.607L183.623 118.43C182.387 118.43 181.116 118.395 180.022 117.901C178.928 117.407 177.975 116.242 178.151 115.042C178.293 113.947 179.21 113.136 180.163 112.536C182.917 110.806 186.199 110.206 189.376 109.606C194.212 108.723 199.083 107.912 203.918 107.17" fill="url(#paint1_linear)"/>
<path d="M218.884 1.80811H150.62V64.6018H218.884V1.80811Z" fill="white"/>
<path opacity="0.18" d="M214.719 10.2095H185.74V59.2726H214.719V10.2095Z" fill="#6EAD68"/>
<path d="M213.378 14.939H188.035V38.4469H213.378V14.939Z" fill="white"/>
<path d="M220.049 0.291016H148.608V2.9736H220.049V0.291016Z" fill="#6EAD68"/>
<path d="M220.049 63.6494H148.608V66.332H220.049V63.6494Z" fill="#6EAD68"/>
<path d="M72.6834 91.1812H71.1303V105.618H72.6834V91.1812Z" fill="#4C506D"/>
<path d="M81.6489 105.3H64.3179V107.312H81.6489V105.3Z" fill="#4C506D"/>
<path d="M81.6489 105.3H64.3179V107.312H81.6489V105.3Z" fill="#2F3554"/>
<path d="M75.966 91.1808H66.2946C64.8474 91.1808 63.6473 90.016 63.6473 88.5335C63.6473 87.0863 64.8121 85.8862 66.2946 85.8862H75.966C77.4132 85.8862 78.6133 87.051 78.6133 88.5335C78.578 89.9807 77.4132 91.1808 75.966 91.1808Z" fill="#4C506D"/>
<path d="M79.0722 91.1808H69.4007C67.9535 91.1808 66.7534 90.016 66.7534 88.5335C66.7534 87.0863 67.9182 85.8862 69.4007 85.8862H79.0722C80.5193 85.8862 81.7194 87.051 81.7194 88.5335C81.7194 89.9807 80.5193 91.1808 79.0722 91.1808Z" fill="#2F3554"/>
<path d="M59.3763 66.4377V71.4499C59.3763 73.2854 60.8941 74.8032 62.7296 74.8032H67.7418C69.5772 74.8032 71.095 73.2854 71.095 71.4499V66.4377C71.095 64.567 69.5772 63.0845 67.7418 63.0845H62.7296C62.5884 63.0845 62.4472 63.0845 62.2707 63.1198C60.647 63.3316 59.3763 64.7434 59.3763 66.4377Z" fill="#4C506D"/>
<path d="M60.7882 71.4855C60.8588 72.015 61.0353 72.5092 61.353 72.968C62.2707 74.2034 64.0355 74.3799 65.5533 74.4152C66.6828 74.4505 70.6714 75.2977 70.389 73.3916C70.2478 72.368 69.6478 71.3091 69.3301 70.356C69.0124 69.403 68.3771 68.1323 68.3771 67.144C68.1653 66.2263 67.8829 65.3085 67.53 64.4261C67.3182 63.9672 67.0711 63.5437 66.7534 63.1201H62.7295C62.5884 63.1201 62.4472 63.1201 62.306 63.1554C62.4825 64.4967 61.5647 65.4497 61.0706 66.6498C60.647 67.7088 60.647 68.8736 60.647 70.0031C60.6823 70.4619 60.7176 70.9914 60.7882 71.4855Z" fill="#2F3554"/>
<path d="M67.7065 71.6974C67.9888 72.2621 68.1653 72.8622 68.3418 73.4975C68.483 74.2388 68.6948 74.98 68.836 75.7565C69.1183 77.2743 69.2242 78.8274 69.2242 80.3805C69.2242 80.9805 69.2242 81.6865 69.6478 82.11C69.9655 82.3571 70.3537 82.5336 70.7773 82.5689C71.5539 82.7454 72.2951 83.0278 73.0716 83.169C73.9188 83.3102 74.8012 83.3454 75.6836 83.3102C78.2603 83.3102 83.0254 83.0278 82.8843 79.4275C82.7078 75.3683 82.3901 71.3797 81.8253 67.3205C81.6489 65.9439 81.5783 64.3909 81.19 63.0849C80.837 61.9906 79.5663 61.9906 78.5074 62.0965L78.2956 62.1318C78.0838 62.1671 77.8721 62.1671 77.6956 62.2024C76.2837 62.3436 74.8718 62.3789 73.4246 62.3436C71.8362 62.3083 69.2595 62.1318 67.7065 63.6496C67.6006 63.7555 67.4947 63.8614 67.3888 63.9673C65.7651 65.8733 66.6122 68.9442 67.7065 71.6974Z" fill="white"/>
<path d="M88.4259 70.7444C88.5671 71.5916 88.6377 72.474 88.6377 73.3211C88.673 73.6388 88.6024 73.9212 88.4612 74.2035C88.1788 74.6271 87.6141 74.6977 87.1552 74.6977C85.6021 74.6977 84.1197 74.0624 83.0254 72.9681C82.0018 71.9445 81.0841 70.8503 80.237 69.6855C79.7781 69.1207 79.531 68.4148 79.6016 67.7089C79.6016 66.7205 79.6369 65.7322 79.7428 64.7439C79.7781 64.5321 81.3312 64.7086 81.5077 64.7439C82.1077 64.9204 82.6725 65.1674 83.2019 65.4851C83.2725 64.8498 83.0607 64.1085 83.0254 63.4379C82.9901 63.2261 83.0254 63.0496 83.096 62.8731C83.2725 62.5555 83.7314 62.5202 84.0844 62.5555C84.8609 62.6261 85.7433 62.7319 86.2375 63.3673C86.4493 63.6497 86.5905 64.0026 86.6964 64.3556C87.367 66.4029 88.0729 68.556 88.4259 70.7444Z" fill="white"/>
<path d="M86.061 71.5556C86.1316 71.8733 86.0963 72.2262 85.9551 72.5086C85.6021 73.0381 84.7903 72.8616 84.2255 72.6145C83.449 72.2615 82.7078 71.8027 82.0371 71.3085C81.9312 71.2026 81.7547 71.132 81.6136 71.132C81.5077 71.1673 81.4018 71.2379 81.3312 71.3438C80.2723 72.5086 78.931 73.4616 77.4838 74.097C76.9896 74.3088 76.319 74.45 75.966 74.0617C75.613 73.6734 75.8954 72.9322 76.2131 72.438L79.9899 66.5787C80.0252 66.5081 80.0958 66.4375 80.2017 66.4022C80.3429 66.3669 80.484 66.4728 80.5899 66.5787C81.1194 67.0375 81.6841 67.4258 82.3195 67.7082C82.5313 67.8494 82.8137 67.8847 83.0607 67.8494C83.4137 67.7435 83.5196 67.2846 83.5902 66.9317C83.6608 66.3316 83.6961 65.6963 83.6255 65.0962C83.5902 64.8491 83.5902 64.5667 83.6608 64.355C83.8726 63.9314 84.3667 63.7549 84.7903 63.9667C84.8256 63.9667 84.8609 64.002 84.8609 64.002C85.3198 64.355 85.2492 65.6963 85.3198 66.261L86.061 71.5556Z" fill="#D8DAE1"/>
<path d="M73.001 71.3442C73.354 71.9796 73.8129 72.509 74.3776 72.9679C75.013 73.4621 76.4249 75.3328 77.3073 74.7681C76.919 75.121 76.4602 75.3681 75.966 75.5093C77.3426 76.4623 79.0722 76.7447 80.6958 77.0271C81.1194 77.0977 81.543 77.2036 81.8959 77.4507C82.2842 77.6624 82.496 78.086 82.4607 78.5449C82.3548 79.2861 81.4018 79.4979 80.6605 79.5685C78.8251 79.6744 76.9543 79.7097 75.1189 79.9568C73.5658 80.1332 71.8715 80.5568 70.9185 81.7922C70.8479 81.8981 70.742 82.004 70.6361 82.0393C70.4243 82.0746 70.2126 82.004 70.142 81.7922C70.0714 81.6157 70.0361 81.4039 70.0361 81.1922C70.0008 79.6744 69.7537 78.1213 69.3301 76.6741C69.1536 76.0741 69.1183 75.474 68.9419 74.9093C68.7301 74.2033 68.3418 73.5327 68.0947 72.862C67.6006 71.4501 67.2829 70.0029 67.1417 68.5205C67.0358 67.4968 67.1064 66.2261 67.9888 65.6967C68.6595 65.3437 69.5066 65.4143 70.1067 65.9085C70.6714 66.4026 71.1303 67.0027 71.4127 67.7086C71.9421 68.9087 72.3304 70.2147 73.001 71.3442Z" fill="#D8DAE1"/>
<path d="M76.8131 64.8846C76.7425 64.9552 76.7072 65.0258 76.7072 65.0964C76.7072 65.2023 76.7072 65.2729 76.7425 65.3435C77.5544 67.5319 78.1897 69.7909 78.6839 72.0499C79.1427 74.0619 79.6369 76.0738 79.7428 78.121C79.7428 78.2622 79.7428 78.4034 79.7075 78.5799C79.5663 79.0741 78.8957 79.2506 78.6133 79.6741L77.6603 78.5799C77.5897 78.5093 77.5544 78.4387 77.5191 78.3681C77.4838 78.2622 77.4838 78.121 77.5191 78.0151C77.8368 75.8267 77.4838 73.5677 76.9543 71.4146C76.5308 69.5438 75.966 67.7084 76.0013 65.8023C76.0366 65.5552 75.966 65.3435 75.8248 65.167C75.7189 65.0964 75.613 65.0611 75.5071 65.0258C74.9777 64.7787 74.7306 64.1433 74.9777 63.6139C74.9777 63.6139 74.9777 63.5786 75.013 63.5786C75.2248 63.5786 75.4012 63.5433 75.613 63.4374C75.7895 63.3315 76.0013 63.2962 76.2131 63.3668C76.6366 63.508 77.0602 64.4963 76.8131 64.8846Z" fill="#6EAD68"/>
<path d="M67.6359 63.614C69.2242 62.0962 71.7656 62.2727 73.354 62.308C74.7659 62.3786 76.2131 62.3433 77.625 62.1668C77.8367 62.1315 78.0132 62.1315 78.225 62.0962C77.3779 61.7432 76.1778 61.9903 75.2601 62.0256C73.8835 62.0609 72.5422 62.1668 71.1656 62.2727C69.9302 62.4139 68.483 62.6257 67.6359 63.614Z" fill="white"/>
<path d="M72.5069 58.0015C73.0363 59.4134 74.5541 60.1546 76.0013 59.731C76.0013 59.731 75.3307 61.743 76.1778 62.9784C76.1778 62.9784 75.613 64.3903 71.9068 62.3077C71.9068 62.3077 72.9305 62.2371 72.6481 60.1546C72.5775 59.4487 72.3304 58.778 71.9068 58.178C72.048 58.3191 72.2598 58.3191 72.401 58.178C72.4363 58.1074 72.4716 58.0721 72.5069 58.0015Z" fill="#D68369"/>
<path d="M74.3423 60.5782C76.319 61.143 77.9074 59.5193 78.6486 57.1544C78.7192 56.9073 78.7898 56.6249 78.8604 56.3425C79.0369 55.5307 79.1075 54.7189 79.0722 53.907C78.9663 49.9891 73.3187 50.3773 73.3187 50.3773C68.7301 51.4009 70.9185 59.5899 74.3423 60.5782Z" fill="#EC9C7D"/>
<path d="M86.5552 85.0043L86.4493 84.8984C86.9082 85.4279 87.2258 85.7809 87.3317 85.9221C87.0846 85.6044 86.8023 85.2867 86.5552 85.0043Z" fill="#DC9BD5"/>
<path d="M77.2367 49.7422C77.9427 49.9187 78.578 50.3423 79.0016 50.9776C79.2134 51.2953 79.3545 51.6482 79.6016 51.9659C79.9546 52.3895 80.484 52.7072 80.6605 53.2366C79.7781 53.3778 78.8604 53.2013 78.0838 52.7778C77.9426 52.9895 77.7309 53.1307 77.4485 53.1307C77.2014 53.1307 76.9543 53.0954 76.7073 52.9895C76.5661 52.9189 76.4249 52.9189 76.319 52.9542C76.2131 52.9895 76.1425 53.0601 76.0366 53.1307C75.5777 53.519 74.9424 53.6602 74.3423 53.4837C73.9894 53.3778 73.6364 53.166 73.3187 53.2719C73.001 53.3778 72.7893 53.872 72.7893 54.2602C72.8246 54.6485 72.8246 55.0721 72.754 55.4603C72.5069 55.4956 72.4716 55.1074 72.2245 54.9662C71.9774 54.825 71.8009 55.0015 71.695 55.178C71.5186 55.4956 71.5539 55.9192 71.8009 56.2016C71.8715 56.2722 71.9421 56.3428 71.9774 56.4487C71.9774 56.5546 71.9774 56.6252 71.9421 56.731L71.5539 57.6841C71.0244 56.484 70.389 55.3192 69.6831 54.2249C69.3654 53.8014 69.0125 53.2719 69.1536 52.7778C69.2948 52.2836 69.8596 51.8953 69.7184 51.3659C69.6831 51.26 69.6478 51.1894 69.6478 51.0835C69.6478 50.9423 69.6831 50.8011 69.7184 50.6599C70.2479 49.601 71.2362 48.8598 72.401 48.6127C73.5305 48.4009 74.7306 48.4009 75.8601 48.648C76.9896 48.8598 78.1191 49.1421 79.2839 49.2127C79.3898 49.2127 79.4957 49.248 79.531 49.3186C79.531 49.3539 79.531 49.3892 79.531 49.4598C79.4957 49.7069 79.2486 49.8834 79.0722 50.0599C78.8957 50.2364 78.7192 50.5187 78.8604 50.7305" fill="#2F3554"/>
<path d="M72.9657 80.4508C72.9657 80.4508 75.3659 86.416 77.272 87.0513C79.178 87.6867 86.3081 89.8398 86.3081 89.8398L96.1913 108.441L100.074 106.041L91.3556 84.2629L83.6255 80.3096C83.5902 80.3449 81.6136 80.4155 72.9657 80.4508Z" fill="#2F3554"/>
<path d="M69.6478 81.6156C69.6478 81.6156 69.1889 87.0513 71.1303 87.6867C73.0716 88.322 80.1664 90.4752 80.1664 90.4752L90.7202 110.665L95.0971 108.9L85.2139 84.9335L77.4838 80.9802C77.4838 80.9802 72.9657 79.3212 69.6478 81.6156Z" fill="#4C506D"/>
<path d="M101.662 106.747C102.157 106.747 102.686 106.818 103.18 106.888C103.639 106.924 104.098 107.1 104.451 107.418C104.663 107.594 104.804 107.841 104.839 108.124C104.874 108.406 104.804 108.688 104.592 108.9C104.416 109.041 104.204 109.183 103.957 109.218C103.427 109.394 102.898 109.606 102.368 109.783C101.239 110.242 100.039 110.524 98.8386 110.63C98.768 110.63 98.6974 110.63 98.6268 110.595C98.5915 110.559 98.5209 110.524 98.4856 110.489C97.7444 109.783 97.0737 108.936 96.8972 107.947C96.8972 107.912 96.8972 107.877 96.8972 107.841C96.8972 107.806 96.9325 107.771 96.9678 107.735C97.7091 107.241 98.4856 106.853 99.3681 106.606C100.145 106.465 100.851 106.747 101.662 106.747Z" fill="#2F3554"/>
<path d="M95.8383 109.041C96.3325 109.041 96.8619 109.112 97.3561 109.183C97.815 109.218 98.2738 109.43 98.6268 109.712C98.8386 109.888 98.9798 110.136 99.0151 110.418C99.0504 110.7 98.9798 110.983 98.768 111.194C98.5915 111.336 98.3797 111.477 98.1326 111.512C97.6032 111.689 97.0737 111.9 96.5443 112.077C95.4148 112.536 94.2147 112.818 93.0146 112.924C92.944 112.924 92.8734 112.924 92.8028 112.889C92.7675 112.853 92.6969 112.818 92.6616 112.783C91.9203 112.077 91.2497 111.23 91.0732 110.241C91.0732 110.206 91.0732 110.171 91.0732 110.136C91.1085 110.1 91.1085 110.065 91.1438 110.065C91.885 109.571 92.6616 109.183 93.544 108.935C94.3558 108.759 95.0618 109.041 95.8383 109.041Z" fill="#2F3554"/>
<path d="M66.7181 66.4373C66.7181 66.4373 70.1067 73.9909 73.6717 75.0146C77.2367 76.0382 81.543 65.449 81.543 65.449L78.6839 64.3548L73.8835 69.1905C73.8835 69.1905 70.9185 62.8723 69.6831 63.1547C68.4477 63.4371 66.2593 65.1666 66.7181 66.4373Z" fill="white"/>
<path d="M82.2842 60.1552C82.3195 60.4376 82.4607 60.72 82.6372 60.9671C82.8489 61.4259 83.0254 61.9554 83.0607 62.4496C83.1313 62.979 83.3431 63.4732 83.6608 63.8967C84.0137 64.3203 84.5785 64.4615 85.0727 64.285C85.3903 64.1085 85.6021 63.7555 85.6374 63.4026C85.6727 63.0496 85.6374 62.6613 85.4962 62.3084C85.355 61.8495 85.1786 61.3906 84.9668 60.9671C84.755 60.5788 84.5079 60.1905 84.1549 59.9082C83.7314 59.4846 82.3195 59.1316 82.2842 60.1552Z" fill="#D68369"/>
<path d="M80.837 60.6134C81.0135 60.2958 81.2606 60.0134 81.5783 59.8369C81.8959 59.731 82.2136 59.6604 82.5313 59.6957C83.1666 59.6957 83.9079 59.8016 84.2256 60.3664C84.402 60.8252 84.3667 61.3194 84.0844 61.743C83.8373 62.1665 83.4843 62.4842 83.2372 62.9078C82.8843 63.5078 82.7078 64.2138 82.1783 64.6726C81.9665 64.8491 81.6842 64.955 81.4018 65.0256C80.484 65.2374 79.2486 64.8138 79.4604 63.6843C79.7428 62.5901 80.2017 61.5665 80.837 60.6134Z" fill="#EC9C7D"/>
<path d="M34.3859 90.9692H32.8328V105.406H34.3859V90.9692Z" fill="#4C506D"/>
<path d="M43.3514 105.088H26.0205V107.1H43.3514V105.088Z" fill="#4C506D"/>
<path d="M43.3514 105.088H26.0205V107.1H43.3514V105.088Z" fill="#2F3554"/>
<path d="M37.6685 90.9694H27.9971C26.5499 90.9694 25.3498 89.8046 25.3498 88.3221C25.3498 86.8749 26.5146 85.6748 27.9971 85.6748H37.6685C39.1157 85.6748 40.3158 86.8396 40.3158 88.3221C40.3158 89.8046 39.1157 90.9694 37.6685 90.9694Z" fill="#4C506D"/>
<path d="M40.81 90.9694H31.1032C29.6561 90.9694 28.456 89.8046 28.456 88.3221C28.456 86.8749 29.6208 85.6748 31.1032 85.6748H40.7747C42.2219 85.6748 43.422 86.8396 43.422 88.3221C43.422 89.8046 42.2572 90.9694 40.81 90.9694Z" fill="#2F3554"/>
<path d="M21.1141 66.2258V71.238C21.1141 73.0735 22.6319 74.5912 24.4674 74.5912H29.4796C31.3503 74.5912 32.8328 73.0735 32.8328 71.238V66.2258C32.8328 64.3903 31.315 62.8726 29.4796 62.8726H24.4674C24.3262 62.8726 24.185 62.8726 24.0085 62.9079C22.3495 63.1196 21.1141 64.5668 21.1141 66.2258Z" fill="#4C506D"/>
<path d="M22.4907 71.2733C22.5613 71.8028 22.7378 72.2969 23.0555 72.7558C23.9732 73.9912 25.7381 74.1677 27.2558 74.203C28.3854 74.2383 32.3739 75.0854 32.0916 73.1793C31.9504 72.1557 31.3503 71.0968 31.0327 70.1438C30.715 69.1908 30.0796 67.9201 30.0796 66.9317C29.8678 66.014 29.5855 65.0963 29.2325 64.1786C29.0207 63.7197 28.7736 63.2961 28.456 62.8726H24.4674C24.3262 62.8726 24.185 62.8726 24.0438 62.9079C24.2203 64.2492 23.3026 65.2022 22.8084 66.4023C22.3848 67.4612 22.3848 68.626 22.3848 69.7555C22.4201 70.285 22.4201 70.7791 22.4907 71.2733Z" fill="#2F3554"/>
<path d="M31.1385 57.4367C31.9151 58.4956 34.2447 59.4839 34.2447 59.4839C34.5271 58.4603 33.927 58.072 33.927 58.072C33.327 58.1073 32.5504 56.6602 32.7975 56.2013C33.1152 55.6365 33.5388 55.8483 33.8564 56.0954C34.4565 55.6365 34.8447 54.8953 34.9153 54.1541C34.9506 53.6952 34.1741 52.4245 35.6566 51.895C37.1391 51.3656 39.2216 51.895 39.2216 51.895C39.2216 51.895 39.7511 50.5184 38.0215 49.8478C34.1388 48.3653 29.4796 50.9067 29.762 55.2836C29.8325 56.4837 29.9031 57.825 29.0913 58.6721C28.5971 59.0957 28.0324 59.4133 27.397 59.5898C26.5852 59.8369 25.8793 60.2958 25.2792 60.8958C24.7144 61.5312 24.5027 62.4842 24.9262 63.2254C25.138 63.5784 25.491 63.8961 25.3851 64.2844C25.3145 64.4608 25.2086 64.602 25.1027 64.7432C24.2203 65.6963 23.6202 66.9317 23.4437 68.2376C23.2673 69.5436 23.6908 70.8849 24.5733 71.838C25.7734 73.1087 27.6794 73.4263 29.409 73.1793C30.8209 73.0028 32.1269 72.3674 33.1152 71.3438C34.5624 69.7554 34.7389 67.4611 35.1271 65.3433C35.1624 65.0962 35.2683 64.8491 35.4095 64.6373C35.8331 64.2491 36.5037 64.5667 37.0685 64.5667C38.0568 64.5314 38.7274 63.4725 38.7627 62.4842C38.798 61.4959 38.3745 60.5429 38.198 59.5898C38.0215 58.6368 38.0568 57.472 38.798 56.8366C39.0804 56.5896 39.4334 56.4484 39.7158 56.2366C41.0571 55.2836 40.9865 53.0598 39.8217 51.8597C38.6568 50.6596 36.8567 50.3773 35.233 50.6596C33.927 50.8714 30.9974 51.6127 30.3973 52.8128C29.7972 54.0129 30.3973 56.3778 31.1385 57.4367Z" fill="#FFD200"/>
<path d="M27.1853 65.0259C27.0794 63.967 27.397 62.9081 28.0677 62.0609C28.8442 61.1432 30.0443 60.7549 31.1385 60.2961C31.5974 60.1196 32.1269 59.8725 32.3034 59.4136C32.4093 59.096 32.4445 58.743 32.4445 58.4253C32.5151 58.1076 32.6916 57.7194 33.0093 57.6841C33.2211 57.6841 33.4329 57.7547 33.5741 57.8959C34.28 58.4253 34.4918 59.4489 34.3506 60.2961C34.1388 61.1432 33.7505 61.955 33.2211 62.6963C32.6916 63.4022 32.2328 64.1788 31.9151 64.9906C31.7033 65.6259 31.6327 66.2966 31.4915 66.9672C31.1385 68.4144 29.9384 69.2616 28.5266 68.4497C27.5382 67.885 27.2206 66.0142 27.1853 65.0259Z" fill="#FFD200"/>
<path d="M40.1746 61.9194C38.4804 62.0606 36.7861 62.1312 35.0918 62.0959C33.3623 62.0606 30.5738 61.8841 29.056 63.7196C27.15 66.0139 28.7736 70.0731 30.1149 73.1439C30.6091 74.2735 30.8562 77.9444 30.6091 80.6622C30.6091 80.6622 35.939 82.533 40.5982 81.5447L42.2219 75.5089C42.2219 75.5089 46.6693 68.9083 40.1746 61.9194Z" fill="#4C506D"/>
<path d="M38.0568 49.813C38.0568 49.813 40.3158 49.9542 40.9865 53.2015C41.6571 56.4489 38.4098 56.4136 38.4098 56.4136L36.4331 50.7307L38.0568 49.813Z" fill="#FFD200"/>
<path d="M36.539 60.6137C38.5863 60.7902 39.8217 58.8841 40.0687 56.378C40.104 56.0956 40.104 55.8133 40.104 55.5309C40.104 54.7191 39.9981 53.9072 39.8217 53.1307C38.9392 49.3186 33.4682 50.8364 33.4682 50.8364C29.1972 52.7424 33.0093 60.3313 36.539 60.6137Z" fill="#EC9C7D"/>
<path d="M34.2094 57.7896C34.5624 58.9191 36.0449 60.931 37.7391 60.4368C37.3156 61.1781 37.3862 62.0605 37.8803 62.7665C37.8803 62.7665 37.3156 64.1784 33.6094 62.0958C33.6094 62.0958 34.633 62.0252 34.3506 59.9427C34.28 59.2367 34.0329 58.5661 33.6094 57.966C33.7505 58.1072 33.9623 58.1072 34.1035 58.0013C34.1741 57.9307 34.2094 57.8601 34.2094 57.7896Z" fill="#D68369"/>
<path d="M38.0215 50.7653C37.492 52.6008 36.7861 55.2481 34.9859 56.2364C34.7389 56.4129 34.4565 56.4835 34.1388 56.4835C33.8564 56.4129 33.8917 56.2011 33.6799 56.0246C33.5388 55.8834 33.327 55.8482 33.1152 55.9187C32.974 56.0246 32.8681 56.2011 32.9034 56.4129C32.9034 56.8718 33.1505 57.2953 33.5388 57.5424C33.7152 57.613 33.8917 57.7189 34.0329 57.8248C34.2094 58.0013 34.3153 58.2484 34.3506 58.4954C34.4212 59.2014 34.0682 59.8367 33.4682 60.1897C33.4329 60.225 33.3976 60.225 33.3623 60.225C33.327 60.225 33.2564 60.1897 33.2211 60.1544L32.4092 59.4132C32.021 59.0955 31.668 58.7072 31.3856 58.319C30.9974 57.7542 30.8209 57.1189 30.8209 56.4482C30.8209 56.1305 30.9268 55.8482 30.9268 55.5658C30.8915 55.1775 30.7856 54.8245 30.6444 54.4716C30.4679 54.0127 30.362 53.5185 30.362 53.0597C30.4326 52.1066 31.2091 51.3301 32.0916 50.9065C33.4682 50.2359 35.0212 50.1653 36.539 50.13C36.8567 50.0947 37.1391 50.1653 37.4214 50.2359C37.6685 50.3771 37.7744 50.6595 38.0215 50.7653Z" fill="#FFD200"/>
<path d="M34.3859 74.0267L32.8328 77.4505C32.8328 77.4505 29.4796 73.2502 28.2089 68.7321C27.0794 64.7435 29.056 63.7199 29.056 63.7199C30.5738 63.1552 31.5974 65.3083 33.0799 69.6852C33.927 72.1207 34.3859 74.0267 34.3859 74.0267Z" fill="#EC9C7D"/>
<path d="M32.8328 77.4503C32.8328 77.4503 32.7622 74.6618 34.1388 74.097C35.5154 73.5323 45.0103 72.0498 45.0103 72.0498L45.8928 73.0734C45.8928 73.1087 36.5743 78.4739 32.8328 77.4503Z" fill="#EC9C7D"/>
<path d="M48.2577 84.8276C48.2224 84.7923 48.1871 84.757 48.1518 84.7217C48.6107 85.2511 48.9283 85.6041 49.0342 85.7453C48.7872 85.3923 48.5401 85.11 48.2577 84.8276Z" fill="#DC9BD5"/>
<path d="M30.0443 85.3573C30.3267 86.981 31.4209 88.3929 32.7975 89.3106C34.1388 90.2636 35.7272 90.8284 37.3156 91.2872C38.2333 91.5696 38.8333 92.7697 39.6805 93.2639C39.9981 93.4051 40.2452 93.6169 40.457 93.8992C40.7747 94.3934 40.5982 95.0288 40.457 95.5935C39.7511 98.0643 39.0451 100.57 38.3039 103.041C37.9509 104.277 37.5979 105.583 37.9156 106.818C38.2333 108.053 39.5393 109.112 40.7747 108.724C43.1396 104.877 45.5398 101.065 47.9047 97.2172C51.4697 91.4637 49.0695 92.5932 46.634 88.64C45.5751 86.9457 37.245 79.9568 37.245 79.9568C35.1271 79.6392 32.9387 79.498 30.8915 79.3921C30.6091 81.404 29.6914 83.3807 30.0443 85.3573Z" fill="#6EAD68"/>
<path d="M37.1744 79.9568C37.1744 79.9568 45.6457 86.8751 46.5634 88.64C49.0342 93.6522 47.8341 97.2172 47.8341 97.2172L54.0817 107.242C55.5289 107.277 57.4703 106.889 57.5409 105.441C57.5409 105.018 57.435 104.63 57.2585 104.277C55.7054 100.359 54.117 96.4759 52.5639 92.5932C51.6462 90.2636 50.6579 87.8987 49.1754 85.9221L49.0342 85.7456L48.9989 85.7103C48.893 85.6044 48.6107 85.2161 48.1165 84.6867C46.7752 83.1689 44.1279 80.4863 41.6924 79.3921C41.7277 79.4274 38.9039 80.2039 37.1744 79.9568Z" fill="#6EAD68"/>
<path d="M37.1744 79.9568C37.1744 79.9568 45.6457 86.8751 46.5634 88.64C49.0342 93.6522 47.8341 97.2172 47.8341 97.2172L54.0817 107.242C55.5289 107.277 57.4703 106.889 57.5409 105.441C57.5409 105.018 57.435 104.63 57.2585 104.277C55.7054 100.359 54.117 96.4759 52.5639 92.5932C51.6462 90.2636 50.6579 87.8987 49.1754 85.9221L49.0342 85.7456L48.9989 85.7103C48.893 85.6044 48.6107 85.2161 48.1165 84.6867C46.7752 83.1689 44.1279 80.4863 41.6924 79.3921C41.7277 79.4274 38.9039 80.2039 37.1744 79.9568Z" fill="url(#paint2_linear)"/>
<path d="M41.5159 110.948C42.0807 111.477 42.8219 111.971 42.7866 112.748C42.7866 112.819 42.7513 112.889 42.716 112.96C42.6454 113.03 42.5395 113.066 42.4336 113.066C40.7041 113.242 39.1157 112.219 37.8097 111.124C37.4567 110.877 37.1744 110.524 37.0332 110.101C37.0332 109.642 37.1391 109.218 37.3861 108.865C37.7038 108.23 37.9509 107.559 38.1627 106.889C38.0921 107.1 38.9745 107.806 39.1157 107.948C39.4334 108.23 39.8569 108.406 40.104 108.724C40.2805 109.077 40.4217 109.395 40.5629 109.783C40.8453 110.171 41.1629 110.595 41.5159 110.948Z" fill="#EC9C7D"/>
<path d="M59.1998 107.735C59.7999 107.947 60.5058 108.053 60.8941 108.583C60.9647 108.688 61 108.794 61.0353 108.9C61.0353 109.218 60.6823 109.394 60.3646 109.465C59.1292 109.712 57.8585 109.536 56.6231 109.359C56.4466 109.359 56.3054 109.288 56.1643 109.218C55.9878 109.077 55.8819 108.865 55.8466 108.653L55.3524 107.135C55.3524 107.1 55.3524 107.029 55.3524 106.994C55.3877 106.959 55.423 106.924 55.4583 106.888C55.776 106.641 56.129 106.465 56.5172 106.288C57.0114 106.076 57.0467 106.076 57.3997 106.465C57.8232 107.029 58.4939 107.488 59.1998 107.735Z" fill="#EC9C7D"/>
<path d="M46.034 71.8732C47.0223 71.7321 48.1165 71.5909 48.9283 72.1909C49.3166 72.5086 49.6343 72.8969 49.8461 73.3557C50.1637 73.6381 50.199 74.097 49.9166 74.4146C49.7755 74.5911 49.5284 74.6617 49.3166 74.6617C48.3989 74.8735 47.4458 75.0853 46.5634 74.7323C45.9281 74.4852 45.3986 73.9558 44.728 73.7793C44.6221 73.7793 44.5162 73.7087 44.4103 73.6734C44.3044 73.6028 44.2691 73.4969 44.2338 73.391C43.8102 72.0497 45.1515 71.9791 46.034 71.8732Z" fill="#EC9C7D"/>
<path d="M56.5878 110.489C56.6231 110.559 56.6584 110.63 56.729 110.665C56.8349 110.7 56.9408 110.7 57.0467 110.665C57.6115 110.594 58.1762 110.559 58.741 110.594C59.8705 110.559 61.0353 110.489 62.1648 110.277C62.659 110.206 63.1884 110.1 63.5061 109.712C63.5414 109.677 63.5767 109.606 63.5767 109.536C63.5767 109.43 63.5414 109.359 63.4708 109.288C62.9766 108.688 62.306 108.265 61.6 108.018C61.3177 107.912 61.0353 107.841 60.7529 107.841C60.4705 107.841 60.1529 107.982 59.9764 108.194C59.7646 108.441 59.7293 108.83 59.5175 109.041C59.2351 109.253 58.9175 109.324 58.5645 109.288C58.1762 109.288 57.7879 109.218 57.3997 109.147C57.1173 109.077 56.6937 108.9 56.3761 108.971C55.6701 109.147 56.3761 110.136 56.5878 110.489Z" fill="#6EAD68"/>
<path d="M36.6449 110.983C36.6449 111.089 36.6449 111.159 36.6802 111.23C36.7508 111.336 36.8567 111.407 36.9626 111.442C37.5273 111.724 38.0921 112.077 38.5863 112.465C39.6805 113.171 40.81 113.807 42.0101 114.336C42.5395 114.583 43.1043 114.83 43.6338 114.619C43.7044 114.583 43.7397 114.548 43.8102 114.513C43.8455 114.442 43.8808 114.336 43.8808 114.23C43.7749 113.348 43.4573 112.501 42.9278 111.795C42.7513 111.512 42.5043 111.265 42.2219 111.089C41.9395 110.877 41.5865 110.842 41.2688 110.912C40.9159 111.018 40.6335 111.371 40.2805 111.442C39.8923 111.477 39.504 111.336 39.2216 111.089C38.8686 110.842 38.5157 110.524 38.198 110.242C37.9509 109.995 37.7038 109.536 37.3509 109.43C36.6096 109.148 36.6449 110.524 36.6449 110.983Z" fill="#6EAD68"/>
<path d="M27.6088 65.1317C27.3617 65.8729 27.2206 66.6142 27.1147 67.3907L26.9735 68.4144C26.9382 68.6261 26.9382 68.8379 27.0088 69.0497C27.1853 69.4027 27.8559 69.2615 28.2089 69.3321L30.0443 69.6145C31.2444 69.7909 32.4798 69.9674 33.7152 70.1439C33.7858 69.5086 33.7858 68.9085 33.6799 68.2732C33.5741 67.6731 33.327 67.1436 33.1858 66.5436C33.0799 66.0847 33.0446 65.5906 32.9034 65.1317C32.6563 64.1434 32.0563 63.261 31.2444 62.6609C29.9737 61.7079 28.0677 64.0022 27.6794 65.0258C27.6088 65.0611 27.6088 65.0964 27.6088 65.1317Z" fill="#4C506D"/>
<path d="M109.745 90.8984H108.192V105.335H109.745V90.8984Z" fill="#4C506D"/>
<path d="M118.711 105.053H101.38V107.065H118.711V105.053Z" fill="#4C506D"/>
<path d="M118.711 105.053H101.38V107.065H118.711V105.053Z" fill="#2F3554"/>
<path d="M113.028 90.8986H103.357C101.909 90.8986 100.709 89.7338 100.709 88.2513C100.709 86.8041 101.874 85.604 103.357 85.604H113.028C114.475 85.604 115.675 86.7688 115.675 88.2513C115.675 89.7338 114.511 90.8986 113.028 90.8986Z" fill="#4C506D"/>
<path d="M116.17 90.8986H106.498C105.051 90.8986 103.851 89.7338 103.851 88.2513C103.851 86.8041 105.016 85.604 106.498 85.604H116.17C117.617 85.604 118.817 86.7688 118.817 88.2513C118.817 89.7338 117.617 90.8986 116.17 90.8986Z" fill="#2F3554"/>
<path d="M96.4737 66.1906V71.2028C96.4737 73.0383 97.9562 74.5561 99.8269 74.5561H104.839C105.404 74.5561 105.969 74.4149 106.463 74.1325C106.886 73.9207 107.239 73.6031 107.522 73.2148C107.981 72.65 108.192 71.9088 108.192 71.2028V66.1906C108.192 64.3552 106.675 62.8374 104.839 62.8374H99.8269C99.6857 62.8374 99.5445 62.8374 99.3681 62.8727C97.7091 63.0845 96.4737 64.4964 96.4737 66.1906Z" fill="#4C506D"/>
<path d="M97.8856 71.2028C97.9562 71.7323 98.1327 72.2265 98.4503 72.6853C99.3681 73.9207 101.133 74.0972 102.651 74.1325C103.78 74.1678 107.769 75.0149 107.486 73.1089C107.345 72.0853 106.745 71.0264 106.428 70.0733C106.11 69.1203 105.474 67.8496 105.474 66.8613C105.263 65.9436 104.98 65.0258 104.627 64.1434C104.416 63.6845 104.168 63.261 103.851 62.8374H99.8269C99.6857 62.8374 99.5446 62.8374 99.4034 62.8727C99.5799 64.214 98.6621 65.167 98.168 66.3671C97.7444 67.426 97.7444 68.5908 97.7444 69.7204C97.7797 70.2145 97.815 70.7087 97.8856 71.2028Z" fill="#2F3554"/>
<path d="M106.533 57.3664C107.31 58.4253 109.64 59.4136 109.64 59.4136C109.922 58.39 109.322 58.0017 109.322 58.0017C108.722 58.037 107.945 56.5899 108.192 56.131C108.51 55.5662 108.934 55.778 109.251 56.0251C109.851 55.5662 110.24 54.825 110.31 54.0838C110.345 53.6249 109.569 52.3542 111.051 51.8247C112.534 51.2953 114.616 51.8247 114.616 51.8247C114.616 51.8247 115.146 50.4481 113.416 49.7775C112.004 49.248 109.922 49.5657 108.439 49.7422C107.663 49.7775 106.886 50.0246 106.216 50.4128C105.227 51.0835 104.804 52.3189 104.627 53.4837C104.451 54.6485 104.451 55.8839 104.063 56.9781C103.851 57.6135 103.533 58.2135 103.533 58.8489C103.533 59.4842 103.957 60.2608 104.627 60.2608C104.874 60.2608 105.157 60.1549 105.369 60.2961C105.58 60.4373 105.616 60.7902 105.827 61.002C106.18 61.355 106.78 61.002 107.275 60.8961C107.91 60.7549 108.651 61.1079 109.216 60.8255C109.463 60.6843 109.675 60.4725 109.922 60.4373C110.275 60.402 110.557 60.7196 110.91 60.7549C111.51 60.8255 111.969 60.0843 112.569 60.0843C112.852 60.1196 113.099 60.2255 113.346 60.3667C114.228 60.649 115.181 60.1549 115.464 59.2724C115.464 59.2372 115.464 59.2018 115.499 59.2018C115.675 59.343 115.922 59.3077 116.064 59.1313L116.099 59.096C116.205 58.8842 116.24 58.6724 116.24 58.4253C116.24 56.4487 116.805 53.3778 115.287 51.7894C114.158 50.5893 112.322 50.307 110.698 50.5893C109.392 50.8011 106.463 51.5424 105.827 52.7425C105.192 53.9426 105.757 56.3075 106.533 57.3664Z" fill="#32384F"/>
<path d="M118.852 75.0154C117.617 71.8387 116.452 68.1325 116.452 68.1325L115.534 61.8496C118.64 61.6378 119.593 65.5558 120.264 67.6736C120.829 69.4385 122.311 73.6741 122.805 75.0154H118.852Z" fill="#D68369"/>
<path d="M131.877 74.2736C131.065 75.2619 129.618 75.3325 128.347 75.3325L122.135 75.2972C121.888 75.3325 121.641 75.2619 121.429 75.156C121.252 75.0148 121.111 74.8383 121.041 74.6265C120.758 74.0265 119.558 71.6263 120.052 71.0968C120.546 70.5674 122.947 71.591 123.582 71.7675C126.37 72.5793 129.124 73.3911 131.877 74.2736Z" fill="#D68369"/>
<path d="M117.581 62.2376C118.146 62.6964 118.64 63.2612 118.993 63.8612L123.158 70.0383C123.547 70.7442 124.217 71.2737 125.029 71.4854L129.124 73.0385C129.265 73.0738 129.441 73.1797 129.477 73.3209C129.512 73.4621 129.406 73.6739 129.265 73.8151L127.747 75.4034C127.606 75.5799 127.394 75.7211 127.182 75.7917C126.97 75.827 126.723 75.7917 126.512 75.7211L118.464 73.1444C118.217 73.0738 117.97 72.9679 117.758 72.7914C117.405 72.4738 117.334 71.909 117.299 71.4148C117.228 70.0383 117.017 68.6617 116.593 67.3557C116.134 65.9791 115.322 64.6378 115.146 63.1906C115.075 62.6964 114.969 62.0258 115.464 61.7434C115.958 61.461 117.123 61.9199 117.581 62.2376Z" fill="#6EAD68"/>
<path d="M115.534 61.8843C113.84 62.0255 112.146 62.0961 110.451 62.0608C108.757 62.0255 105.933 61.849 104.416 63.6844C102.509 65.9788 104.168 70.0379 105.474 73.1088C105.969 74.2383 106.216 77.9092 105.969 80.6271C105.969 80.6271 111.299 82.4979 115.958 81.5095L117.546 75.4737C117.581 75.4737 122.029 68.8378 115.534 61.8843Z" fill="#6EAD68"/>
<path d="M113.416 49.7422C113.416 49.7422 115.675 49.8834 116.346 53.1307C117.017 56.3781 113.769 56.3428 113.769 56.3428L111.793 50.6599L113.416 49.7422Z" fill="#32384F"/>
<path d="M111.934 60.5429C113.981 60.7194 115.217 58.8133 115.464 56.3072C115.499 56.0248 115.499 55.7425 115.499 55.4601C115.499 54.6482 115.393 53.8364 115.216 53.0599C114.334 49.2478 108.863 50.7656 108.863 50.7656C104.592 52.6716 108.369 60.2605 111.934 60.5429Z" fill="#EC9C7D"/>
<path d="M109.604 57.7192C109.957 58.8487 111.44 60.8607 113.134 60.3665C112.71 61.1078 112.781 62.0255 113.275 62.6961C113.275 62.6961 112.71 64.108 109.004 62.0255C109.004 62.0255 110.028 61.9549 109.745 59.8724C109.675 59.1664 109.428 58.4958 109.004 57.8957C109.145 58.0369 109.357 58.0369 109.498 57.931C109.534 57.8604 109.569 57.7898 109.604 57.7192Z" fill="#D68369"/>
<path d="M113.381 50.6955C112.852 52.531 112.146 55.1783 110.345 56.1666C110.098 56.3431 109.816 56.4137 109.498 56.4137C109.216 56.3431 109.251 56.1313 109.039 55.9548C108.898 55.8136 108.687 55.7783 108.51 55.8489C108.369 55.9548 108.263 56.1666 108.298 56.3431C108.298 56.8019 108.545 57.2255 108.934 57.4726C109.11 57.5432 109.287 57.6491 109.428 57.755C109.604 57.9314 109.71 58.1785 109.745 58.4256C109.816 59.1315 109.463 59.7669 108.863 60.1199C108.828 60.1552 108.792 60.1552 108.722 60.1552C108.687 60.1552 108.616 60.1199 108.581 60.0846L107.769 59.3433C107.381 59.0257 107.028 58.6374 106.745 58.2491C106.357 57.6844 106.18 57.049 106.18 56.3784C106.18 56.0607 106.286 55.7783 106.286 55.4959C106.251 55.1077 106.145 54.7547 106.004 54.4017C105.827 53.9429 105.722 53.4487 105.722 52.9898C105.792 52.0368 106.569 51.2603 107.451 50.8367C108.828 50.1661 110.381 50.0955 111.899 50.0602C112.216 50.0249 112.499 50.0955 112.781 50.1661C113.028 50.3072 113.134 50.5896 113.381 50.6955Z" fill="#32384F"/>
<path d="M109.745 73.9558L108.192 77.3796C108.192 77.3796 104.839 73.1792 103.568 68.6965C102.439 64.7079 104.416 63.6843 104.416 63.6843C105.933 63.1195 106.957 65.2727 108.439 69.6495C109.287 72.0497 109.745 73.9558 109.745 73.9558Z" fill="#EC9C7D"/>
<path d="M108.192 77.38C108.192 77.38 108.122 74.5915 109.498 74.0267C110.875 73.462 120.37 71.9795 120.37 71.9795L121.252 73.0031C121.288 73.0384 111.934 78.4389 108.192 77.38Z" fill="#EC9C7D"/>
<path d="M102.827 67.7086C102.615 69.6147 103.039 71.5207 103.992 73.1797C104.204 73.6033 104.521 73.9562 104.874 74.2739C105.298 74.6269 105.792 74.874 106.322 75.0152C107.663 75.3681 109.039 75.5093 110.381 75.4387C112.816 75.4387 115.252 75.2622 117.723 75.1211C118.04 75.1211 118.393 75.0505 118.676 74.9093C118.958 74.7328 119.205 74.4504 119.382 74.168C119.452 74.0621 119.487 73.9562 119.523 73.8504C119.523 73.7092 119.487 73.6033 119.417 73.4974L118.64 71.8737C118.57 71.5913 118.252 71.4148 117.97 71.5207C117.934 71.5207 117.864 71.556 117.828 71.5913C115.852 72.1208 113.805 72.4738 111.757 72.6502C111.546 72.6855 111.299 72.6502 111.087 72.5796C110.946 72.4738 110.84 72.3679 110.734 72.2267C110.169 71.4501 109.887 70.4971 109.64 69.5794C109.11 67.7086 108.51 65.8026 107.451 64.1436C107.028 63.473 106.392 62.7317 105.51 63.0847C104.733 63.4024 104.133 64.3201 103.745 65.026C103.286 65.8379 102.968 66.7556 102.827 67.7086Z" fill="#6EAD68"/>
<path d="M126.159 68.3438H146.066C146.702 68.3438 147.231 67.8497 147.302 67.2496L148.643 52.1777C148.714 51.613 148.29 51.1188 147.761 51.0835C147.725 51.0835 147.69 51.0835 147.619 51.0835H127.747C127.112 51.0835 126.582 51.5777 126.512 52.1777L125.17 67.2496C125.1 67.8144 125.523 68.3085 126.053 68.3438C126.088 68.3438 126.123 68.3438 126.159 68.3438Z" fill="#6EAD68"/>
<path d="M126.935 68.3438H146.843C147.478 68.3438 148.008 67.8497 148.078 67.2496L149.419 52.1777C149.49 51.613 149.067 51.1188 148.537 51.0835C148.502 51.0835 148.466 51.0835 148.396 51.0835H128.488C127.853 51.0835 127.323 51.5777 127.253 52.1777L125.912 67.2496C125.841 67.8144 126.265 68.3085 126.794 68.3438C126.865 68.3438 126.9 68.3438 126.935 68.3438Z" fill="white"/>
<path d="M142.078 74.3443H136.289V64.8846C136.289 63.2962 137.595 61.9902 139.183 61.9902C140.772 61.9902 142.078 63.2962 142.078 64.8846V74.3443Z" fill="#6EAD68"/>
<path d="M143.419 74.3443H137.666V64.8846C137.666 63.2962 138.972 61.9902 140.56 61.9902C142.148 61.9902 143.454 63.2962 143.454 64.8846L143.419 74.3443Z" fill="white"/>
<path d="M123.653 84.7568L123.547 84.6509C124.006 85.1803 124.323 85.5333 124.429 85.6745C124.147 85.3215 123.9 85.0391 123.653 84.7568Z" fill="#DC9BD5"/>
<path d="M105.404 85.286C105.686 86.9097 106.78 88.2863 108.122 89.2393C109.463 90.1923 111.051 90.7218 112.64 91.216C113.558 91.4983 114.158 92.6984 115.005 93.1926C115.322 93.3338 115.569 93.5809 115.781 93.828C116.099 94.3221 115.922 94.9575 115.781 95.5222C115.075 97.993 114.369 100.499 113.628 102.97C113.275 104.205 112.922 105.511 113.24 106.747C113.558 107.982 114.864 109.041 116.099 108.653L123.229 97.1459C123.229 97.1459 124.394 92.522 121.958 88.5687C120.899 86.8744 112.569 79.8856 112.569 79.8856C110.451 79.5679 108.263 79.4267 106.216 79.3208C105.969 81.3327 105.051 83.3094 105.404 85.286Z" fill="#4C506D"/>
<path d="M112.569 79.9212C112.569 79.9212 121.041 86.8394 121.958 88.6043C124.464 93.6165 123.229 97.1815 123.229 97.1815L129.477 107.206C130.924 107.241 132.865 106.853 132.936 105.406C132.936 104.982 132.83 104.594 132.653 104.241C131.1 100.358 129.512 96.4403 127.959 92.5576C127.041 90.228 126.053 87.8631 124.57 85.8864L124.429 85.7099V85.6746C124.323 85.5688 124.041 85.1805 123.547 84.651C122.205 83.1332 119.558 80.4507 117.123 79.3564C117.123 79.3564 114.299 80.133 112.569 79.9212Z" fill="#2F3554"/>
<path d="M116.911 110.877C117.476 111.407 118.217 111.901 118.181 112.642C118.181 112.713 118.146 112.783 118.111 112.854C118.04 112.924 117.934 112.96 117.828 112.96C116.099 113.136 114.511 112.113 113.205 111.018C112.852 110.771 112.569 110.418 112.428 109.995C112.428 109.536 112.534 109.112 112.781 108.759C113.099 108.124 113.346 107.453 113.558 106.783C113.487 106.994 114.369 107.7 114.511 107.842C114.828 108.124 115.252 108.3 115.499 108.618C115.675 108.971 115.817 109.289 115.958 109.677C116.205 110.101 116.522 110.524 116.911 110.877Z" fill="#EC9C7D"/>
<path d="M134.559 107.665C135.159 107.876 135.865 107.982 136.254 108.512C136.324 108.618 136.36 108.723 136.395 108.829C136.395 109.147 136.042 109.324 135.724 109.394C134.489 109.641 133.218 109.465 131.983 109.288C131.806 109.288 131.665 109.218 131.524 109.147C131.347 109.006 131.241 108.794 131.206 108.582L130.712 107.065C130.712 107.029 130.712 106.959 130.712 106.923C130.747 106.888 130.783 106.853 130.818 106.817C131.136 106.57 131.489 106.394 131.877 106.217C132.371 106.006 132.406 106.006 132.759 106.394C133.218 106.959 133.853 107.417 134.559 107.665Z" fill="#EC9C7D"/>
<path d="M121.394 71.8029C122.382 71.6617 123.476 71.5205 124.288 72.1206C124.676 72.4383 124.959 72.8265 125.206 73.2854C125.523 73.5678 125.559 74.0266 125.276 74.3443C125.135 74.5208 124.888 74.6267 124.676 74.5914C123.758 74.8032 122.805 75.015 121.923 74.662C121.288 74.4149 120.758 73.8855 120.088 73.709C119.982 73.709 119.876 73.6384 119.77 73.6031C119.664 73.5325 119.629 73.4266 119.593 73.3207C119.17 71.9794 120.511 71.9441 121.394 71.8029Z" fill="#EC9C7D"/>
<path d="M131.947 110.418C131.983 110.488 132.018 110.559 132.089 110.594C132.194 110.63 132.3 110.63 132.406 110.594C132.971 110.524 133.536 110.488 134.101 110.524C135.23 110.488 136.395 110.418 137.489 110.206C137.983 110.135 138.548 110.03 138.83 109.641C138.866 109.606 138.901 109.535 138.901 109.465C138.901 109.394 138.866 109.288 138.795 109.218C138.301 108.618 137.666 108.194 136.924 107.947C136.642 107.841 136.36 107.771 136.077 107.771C135.759 107.771 135.477 107.912 135.301 108.123C135.089 108.371 135.089 108.759 134.842 109.006C134.559 109.218 134.242 109.288 133.889 109.253C133.5 109.253 133.112 109.182 132.724 109.112C132.442 109.041 132.018 108.865 131.7 108.935C131.065 109.112 131.771 110.1 131.947 110.418Z" fill="#6EAD68"/>
<path d="M112.004 110.912C112.004 111.018 112.004 111.088 112.04 111.159C112.11 111.265 112.216 111.336 112.322 111.371C112.887 111.653 113.452 112.006 113.946 112.394C115.04 113.1 116.205 113.736 117.37 114.265C117.899 114.512 118.464 114.759 118.993 114.548C119.064 114.512 119.099 114.477 119.17 114.442C119.205 114.371 119.24 114.265 119.205 114.159C119.099 113.277 118.782 112.43 118.252 111.724C118.076 111.441 117.828 111.194 117.546 111.018C117.264 110.806 116.911 110.771 116.593 110.841C116.24 110.947 115.958 111.3 115.605 111.371C115.216 111.406 114.828 111.265 114.546 111.018C114.193 110.771 113.84 110.453 113.522 110.135C113.275 109.888 112.993 109.43 112.675 109.324C112.004 109.041 112.04 110.453 112.004 110.912Z" fill="#6EAD68"/>
<path d="M6.21871 78.2625V111.618C6.21871 112.254 6.64228 112.783 7.17174 112.783H21.7142C22.2436 112.783 22.6672 112.254 22.6672 111.618V78.2625C22.6672 78.1566 22.7378 78.0507 22.879 78.0154H135.583C135.689 78.0154 135.795 78.1213 135.795 78.2625V107.383C135.971 107.453 136.112 107.559 136.289 107.63L136.536 107.7V78.2625C136.536 78.1919 136.536 78.086 136.501 78.0154H151.255C151.361 78.0154 151.467 78.1213 151.467 78.2625V111.618C151.467 111.724 151.396 111.865 151.255 111.865H136.713C136.607 111.865 136.501 111.724 136.501 111.618V110.771C136.254 110.842 136.007 110.842 135.759 110.806V111.618C135.759 112.254 136.183 112.783 136.713 112.783H151.255C151.784 112.783 152.208 112.254 152.208 111.618V78.2625C152.208 77.6271 151.784 77.0977 151.255 77.0977H7.24233C6.64228 77.133 6.21871 77.6271 6.21871 78.2625ZM6.95995 78.2625C6.95995 78.1566 7.03055 78.0154 7.17174 78.0154H21.926C21.926 78.086 21.8907 78.1919 21.8907 78.2625V111.618C21.8907 111.724 21.8201 111.865 21.6789 111.865H7.13644C7.03055 111.865 6.92466 111.724 6.92466 111.618V78.2625H6.95995Z" fill="white"/>
<path d="M6.21871 78.2625V111.618C6.21871 112.254 6.64228 112.783 7.17174 112.783H21.7142C22.2436 112.783 22.6672 112.254 22.6672 111.618V78.2625C22.6672 78.1566 22.7378 78.0507 22.879 78.0154H135.583C135.689 78.0154 135.795 78.1213 135.795 78.2625V107.383C135.971 107.453 136.112 107.559 136.289 107.63L136.536 107.7V78.2625C136.536 78.1919 136.536 78.086 136.501 78.0154H151.255C151.361 78.0154 151.467 78.1213 151.467 78.2625V111.618C151.467 111.724 151.396 111.865 151.255 111.865H136.713C136.607 111.865 136.501 111.724 136.501 111.618V110.771C136.254 110.842 136.007 110.842 135.759 110.806V111.618C135.759 112.254 136.183 112.783 136.713 112.783H151.255C151.784 112.783 152.208 112.254 152.208 111.618V78.2625C152.208 77.6271 151.784 77.0977 151.255 77.0977H7.24233C6.64228 77.133 6.21871 77.6271 6.21871 78.2625ZM6.95995 78.2625C6.95995 78.1566 7.03055 78.0154 7.17174 78.0154H21.926C21.926 78.086 21.8907 78.1919 21.8907 78.2625V111.618C21.8907 111.724 21.8201 111.865 21.6789 111.865H7.13644C7.03055 111.865 6.92466 111.724 6.92466 111.618V78.2625H6.95995Z" fill="url(#paint3_linear)"/>
<path d="M7.13644 112.783H21.6789C22.2084 112.783 22.6319 112.254 22.6319 111.618V78.2625C22.6319 78.1566 22.7025 78.0507 22.8437 78.0154H151.22C151.326 78.0154 151.431 78.1213 151.431 78.2625V111.618C151.431 111.724 151.361 111.865 151.22 111.865C150.973 111.936 150.796 112.183 150.867 112.43C150.902 112.607 151.043 112.748 151.22 112.783C151.749 112.783 152.173 112.254 152.173 111.618V78.2625C152.173 77.6271 151.749 77.0977 151.22 77.0977H22.8084C22.2789 77.0977 21.8554 77.6271 21.8554 78.2625V111.618C21.8554 111.724 21.7848 111.83 21.6436 111.865H7.13644C7.03055 111.865 6.92466 111.76 6.92466 111.618V78.2625C6.92466 78.1566 6.99525 78.0154 7.13644 78.0154C7.38352 77.9448 7.56001 77.6977 7.48942 77.4506C7.45412 77.2741 7.31293 77.133 7.13644 77.0977C6.60699 77.0977 6.18342 77.6271 6.18342 78.2625V111.618C6.21872 112.254 6.64228 112.783 7.13644 112.783Z" fill="white"/>
<path d="M7.13644 112.783H21.6789C22.2084 112.783 22.6319 112.254 22.6319 111.618V78.2625C22.6319 78.1566 22.7025 78.0507 22.8437 78.0154H151.22C151.326 78.0154 151.431 78.1213 151.431 78.2625V111.618C151.431 111.724 151.361 111.865 151.22 111.865C150.973 111.936 150.796 112.183 150.867 112.43C150.902 112.607 151.043 112.748 151.22 112.783C151.749 112.783 152.173 112.254 152.173 111.618V78.2625C152.173 77.6271 151.749 77.0977 151.22 77.0977H22.8084C22.2789 77.0977 21.8554 77.6271 21.8554 78.2625V111.618C21.8554 111.724 21.7848 111.83 21.6436 111.865H7.13644C7.03055 111.865 6.92466 111.76 6.92466 111.618V78.2625C6.92466 78.1566 6.99525 78.0154 7.13644 78.0154C7.38352 77.9448 7.56001 77.6977 7.48942 77.4506C7.45412 77.2741 7.31293 77.133 7.13644 77.0977C6.60699 77.0977 6.18342 77.6271 6.18342 78.2625V111.618C6.21872 112.254 6.64228 112.783 7.13644 112.783Z" fill="url(#paint4_linear)"/>
<path d="M152.067 77.0972H21.3259V75.3677H153.126V76.0736C153.126 76.6384 152.667 77.0972 152.067 77.0972Z" fill="white"/>
<path d="M21.3259 77.0976H6.25402C5.65396 77.0976 5.1951 76.6387 5.1951 76.0387V74.9092H21.3259V77.0976Z" fill="white"/>
<path d="M19.2081 74.415H153.902C154.079 74.4503 154.185 74.5915 154.185 74.7327V75.6857C154.185 75.8622 154.079 76.0034 153.902 76.0034H19.2081V74.415Z" fill="#6EAD68"/>
<path d="M4.45386 74.415H21.926C22.1025 74.4503 22.2084 74.5915 22.2084 74.7327V75.6857C22.2084 75.8622 22.1025 76.0034 21.926 76.0034H4.45386C4.27737 75.9681 4.13618 75.8269 4.13618 75.6151V74.768C4.13618 74.6268 4.27737 74.4503 4.45386 74.415Z" fill="#6EAD68"/>
<path d="M4.45386 74.415H21.926C22.1025 74.4503 22.2084 74.5915 22.2084 74.7327V75.6857C22.2084 75.8622 22.1025 76.0034 21.926 76.0034H4.45386C4.27737 75.9681 4.13618 75.8269 4.13618 75.6151V74.768C4.13618 74.6268 4.27737 74.4503 4.45386 74.415Z" fill="url(#paint5_linear)"/>
<path d="M115.499 53.8016C115.499 53.8722 115.464 53.9075 115.464 53.9781C115.358 54.1192 115.181 54.1545 115.04 54.0839C114.899 54.0133 114.758 53.9075 114.652 53.7663C114.687 53.9075 114.581 54.0133 114.475 54.0839C114.334 54.1192 114.228 54.1192 114.087 54.1192C113.805 54.0839 113.487 53.9781 113.24 53.8016C113.205 54.1545 112.887 54.4369 112.534 54.4369C112.357 54.4369 112.181 54.331 112.075 54.1898L111.899 54.5428C111.722 54.4722 111.546 54.5428 111.369 54.5075C110.981 54.4369 110.698 54.0839 110.734 53.6957C110.769 53.3074 110.84 52.9544 111.016 52.6015C111.263 52.0014 111.44 51.4014 111.546 50.766C111.581 50.5542 111.616 50.3777 111.722 50.2012C111.863 50.0248 112.04 49.9189 112.252 49.8836C113.205 49.6012 114.299 50.2365 114.899 50.9425C115.393 51.7896 115.64 52.8132 115.499 53.8016Z" fill="#32384F"/>
<path d="M210.343 110.03C210.378 110.771 210.237 111.513 209.919 112.183C209.566 112.819 209.001 113.313 208.331 113.631C206.919 114.372 205.26 114.513 203.742 114.089C203.53 114.054 203.354 113.948 203.212 113.772C203.142 113.631 203.107 113.489 203.107 113.313C203.142 112.466 203.707 111.76 204.307 111.16C204.907 110.56 205.577 110.03 205.966 109.254C206.672 107.842 206.142 104.03 208.825 104.665C211.084 105.159 210.378 108.442 210.343 110.03Z" fill="#FDB9A9"/>
<path d="M210.695 112.606C210.695 112.606 211.084 113.524 210.625 114.089C210.166 114.654 205.33 117.619 202.083 115.218C198.836 112.818 206.495 112.5 206.495 112.5L210.695 112.606Z" fill="#6EAD68"/>
<path d="M210.519 110.418C210.201 110.277 209.848 110.383 209.637 110.63C209.001 111.371 208.013 111.724 207.06 111.547C206.001 111.3 205.577 110.065 205.048 110.065C204.518 110.065 201.73 112.465 201.553 113.453C201.377 114.442 202.824 115.218 204.413 115.324C206.001 115.43 209.566 114.336 210.272 113.489C210.978 112.642 210.872 110.947 210.519 110.418Z" fill="white"/>
<path d="M219.52 111.512C219.555 112.253 219.414 112.995 219.096 113.665C218.743 114.301 218.178 114.795 217.508 115.112C216.096 115.854 214.437 115.995 212.919 115.571C212.707 115.536 212.531 115.43 212.39 115.254C212.319 115.112 212.284 114.971 212.284 114.795C212.319 113.948 212.884 113.242 213.484 112.642C214.084 112.042 214.755 111.512 215.143 110.736C215.849 109.324 215.319 105.512 218.002 106.147C220.296 106.641 219.59 109.924 219.52 111.512Z" fill="#FDB9A9"/>
<path d="M219.908 114.054C219.908 114.054 220.296 115.007 219.837 115.537C219.379 116.066 214.543 119.066 211.296 116.666C208.048 114.266 215.708 113.948 215.708 113.948L219.908 114.054Z" fill="#6EAD68"/>
<path d="M219.696 111.865C219.379 111.724 219.026 111.83 218.814 112.077C218.178 112.818 217.19 113.171 216.237 112.995C215.178 112.748 214.755 111.512 214.225 111.512C213.696 111.512 210.907 113.877 210.731 114.901C210.554 115.924 212.001 116.666 213.59 116.771C215.178 116.877 218.743 115.783 219.449 114.936C220.155 114.089 220.085 112.43 219.696 111.865Z" fill="white"/>
<path d="M221.426 71.9086C221.426 71.9086 221.92 99.4405 219.873 108.653L214.719 109.288L211.119 71.5557L221.426 71.9086Z" fill="#473F47"/>
<path d="M205.436 68.9082C205.436 68.9082 203.001 83.7683 205.966 107.629L211.154 108.265L214.755 70.5672L205.436 68.9082Z" fill="#473F47"/>
<path d="M199.365 57.0485C199.436 58.0369 199.753 58.9193 200.6 59.2017C200.671 59.237 200.742 59.237 200.812 59.2723C202.401 59.5899 204.483 58.3898 205.93 57.3309C206.53 56.9074 207.13 56.4132 207.66 55.919V45.2593L199.965 53.2011C199.965 53.2011 199.259 55.319 199.365 57.0485Z" fill="#6EAD68"/>
<path d="M205.93 57.2956C205.93 57.7898 205.86 58.3193 205.86 58.8134C205.86 61.5666 206.495 64.3904 205.683 67.1083C205.507 67.7083 205.26 68.3437 205.436 68.9437C205.683 69.4379 206.072 69.8261 206.601 70.0379C209.036 71.3792 211.825 71.7675 214.543 72.1558C216.59 72.4381 219.52 73.0382 221.426 71.944C222.238 71.4851 222.52 70.6027 222.767 69.7202C223.579 66.9318 223.826 63.9315 224.038 61.0371C224.073 60.6489 224.108 60.2606 224.108 59.9076C224.285 57.2603 224.32 54.6483 224.285 52.0011C224.25 50.095 224.108 48.0125 222.838 46.5653C221.179 44.6592 217.967 43.3885 215.531 42.9297C214.755 42.7532 213.943 42.7179 213.131 42.7885C212.001 42.965 210.907 43.3532 209.884 43.8827C208.683 44.4828 207.589 44.9769 206.989 46.177C206.354 47.5536 205.895 49.0361 205.648 50.5186C205.436 51.9305 205.401 53.3776 205.577 54.7895C205.648 55.4955 205.824 56.1661 205.895 56.8721C205.895 57.0486 205.93 57.1544 205.93 57.2956Z" fill="#6EAD68"/>
<path opacity="0.1" d="M217.12 72.8614C217.931 73.1085 219.767 72.3672 220.367 72.2614C220.72 72.1908 221.073 72.0143 221.426 71.9084C223.261 71.4495 223.473 66.3314 223.65 64.9548C224.108 61.3192 224.85 57.5424 224.885 53.9068C224.885 52.4949 224.85 51.083 224.391 49.7417C223.932 48.4004 222.979 47.2003 221.673 46.7062C219.343 45.859 218.673 53.2362 218.32 54.7539L216.555 63.0841C216.308 64.1077 216.167 65.1313 216.096 66.1902C216.025 67.6374 216.484 68.661 216.872 69.967C217.084 70.673 216.52 72.0849 216.802 72.6143C216.872 72.7202 217.014 72.8261 217.12 72.8614Z" fill="#020202"/>
<path d="M211.543 40.6352C211.825 40.9529 212.249 41.1647 212.672 41.2C213.025 41.2353 213.378 41.2353 213.766 41.2H213.978C214.013 41.2 214.084 41.2 214.119 41.2353C214.155 41.2706 214.19 41.3412 214.19 41.4118C214.26 42.1177 214.296 42.8589 214.225 43.5649C214.225 43.7061 214.19 43.812 214.19 43.9532C214.155 44.0943 214.19 44.2355 214.225 44.3767C214.331 44.5179 214.472 44.6238 214.649 44.6591C214.966 44.765 215.284 44.8356 215.637 44.8356C216.343 44.765 217.049 44.5179 217.614 44.1296C217.578 42.8942 217.614 41.6588 217.79 40.4234C218.037 38.8351 218.426 37.282 218.249 35.6936C218.214 35.0583 218.002 34.4582 217.614 33.964C217.049 33.3287 216.131 33.1169 215.249 33.1169C214.119 33.0816 212.99 33.3993 212.037 33.9993C211.684 34.2464 211.648 34.5641 211.543 34.9524C211.437 35.5877 211.331 36.2231 211.26 36.8231C211.19 37.5291 211.154 38.2703 211.119 38.9762C211.119 39.5763 211.154 40.2116 211.543 40.6352Z" fill="#FDB9A9"/>
<path d="M212.778 34.3877C213.59 34.5289 214.472 34.3877 215.249 34.7054C216.308 35.129 216.767 36.5056 216.414 37.6351C216.731 37.741 216.767 37.1762 217.014 36.9644C217.261 36.7527 217.79 37.035 217.825 37.4233C217.79 37.8116 217.684 38.1998 217.473 38.5175C217.19 39.1882 217.12 39.9647 217.331 40.6707C217.367 40.8471 217.508 41.0236 217.684 40.9883C217.861 40.953 217.967 40.6707 218.073 40.5295C218.249 40.3177 218.426 40.1412 218.602 40C218.99 39.6823 219.379 39.3647 219.767 39.047C220.437 38.4822 221.073 37.7057 221.038 36.8233C221.002 36.4703 220.896 36.1173 220.685 35.7996C220.508 35.5526 220.296 35.3055 220.014 35.1643C219.908 35.0937 219.767 35.0231 219.767 34.8819C219.767 34.8113 219.767 34.7407 219.802 34.6701C220.049 33.7524 219.52 32.7994 218.779 32.2346C218.002 31.7052 217.12 31.3875 216.202 31.2816C215.602 31.1757 215.002 31.1051 214.402 31.0345C213.908 30.9992 213.413 30.8933 212.954 30.6815C213.06 30.3639 213.237 30.0462 213.413 29.7638C212.99 29.905 212.566 30.0815 212.213 30.3286C212.249 30.1168 212.284 29.905 212.39 29.7285C211.754 29.9403 211.048 30.1874 210.625 30.7521C210.095 31.4581 210.095 32.4111 210.554 33.1523C211.013 33.8936 211.754 34.176 212.566 34.3525L212.778 34.3877Z" fill="#FFD200"/>
<path d="M213.731 41.2352H213.943C213.978 41.2352 214.049 41.2352 214.084 41.2705C214.119 41.3058 214.155 41.3764 214.155 41.447C214.225 42.153 214.26 42.8942 214.19 43.6002C214.19 43.6002 216.272 43.0707 216.202 40.5293C215.39 40.8117 214.578 41.0588 213.731 41.2352Z" fill="#DE9F93"/>
<path d="M192.941 54.3305C193.965 55.7777 195.2 57.0131 196.647 58.0367C197.671 58.7427 198.871 59.1662 200.142 59.2721C200.318 59.2721 200.459 59.2721 200.636 59.2368C200.918 59.1662 201.13 58.9897 201.306 58.778C201.836 58.1426 202.154 57.3661 202.189 56.5895C202.259 54.4717 199.965 53.2363 199.965 53.2363C199.965 53.2363 194.741 51.5773 194.106 51.8244C193.753 51.9656 193.435 52.7068 193.223 53.3422C193.047 53.8363 192.941 54.3305 192.941 54.3305Z" fill="#6EAD68"/>
<path opacity="0.1" d="M192.941 54.3305C193.965 55.7777 195.2 57.0131 196.647 58.0367C197.671 58.7426 198.871 59.1662 200.142 59.2721C200.318 59.2721 200.459 59.2721 200.636 59.2368C200.706 59.2721 200.777 59.2721 200.848 59.3074C202.436 59.625 204.518 58.4249 205.966 57.366V57.3307L205.471 54.154C204.518 55.1423 203.424 55.9541 202.189 56.5895C201.342 57.0484 200.353 57.2248 199.365 57.1189C199.118 57.0837 198.836 57.0131 198.624 56.9072C196.682 55.9541 194.882 54.7893 193.223 53.3774C193.047 53.8363 192.941 54.3305 192.941 54.3305Z" fill="#020202"/>
<path d="M227.568 57.7898C228.273 59.6605 228.874 61.6371 228.591 63.6138C228.238 66.014 226.65 67.9907 225.132 69.8614C223.932 70.0379 222.344 70.0026 221.92 68.8731C221.814 68.5201 221.779 68.1318 221.849 67.7436L222.026 65.2728C222.096 64.1786 222.167 63.049 221.849 61.9901C221.496 60.79 220.649 59.8017 220.014 58.7075C218.955 56.9779 218.284 55.0013 218.143 52.954C218.002 51.048 219.449 44.8357 222.273 46.7064C223.438 47.483 224.497 50.6597 225.097 51.9304C226.014 53.8365 226.826 55.7778 227.568 57.7898Z" fill="#6EAD68"/>
<path d="M221.179 71.5204C221.108 71.6263 221.073 71.7322 221.073 71.8381C221.073 71.944 221.214 72.0499 221.32 72.0146C221.602 72.897 221.002 73.8148 221.002 74.7678C221.002 74.8384 221.002 74.9443 221.038 75.0149C221.073 75.1208 221.143 75.1914 221.249 75.262C221.567 75.4737 221.955 75.4737 222.308 75.3326C222.626 75.1914 222.944 74.9443 223.191 74.6619C223.72 74.1677 224.144 73.5677 224.391 72.8617C224.497 72.5441 224.532 72.2264 224.567 71.8734L224.85 69.4379C223.014 68.8732 222.026 70.0733 221.179 71.5204Z" fill="#FDB9A9"/>
<path d="M193.259 49.742C193.223 49.5655 193.117 49.4243 192.976 49.3184C192.835 49.2125 192.623 49.2125 192.517 49.3537C192.482 49.4596 192.447 49.5302 192.447 49.6361C192.341 49.8479 192.129 49.989 191.882 49.989C191.635 49.989 191.423 49.9184 191.211 49.8126C190.576 49.5655 189.941 49.389 189.305 49.2125C189.164 49.1772 188.988 49.1772 188.846 49.2125C188.705 49.2831 188.564 49.4243 188.529 49.6008C188.246 50.4126 188.423 51.2597 188.917 51.9304C189.447 52.5657 190.152 53.0599 190.964 53.2717C191.776 53.4835 192.588 53.5894 193.4 53.6247C193.612 53.66 193.823 53.6247 194 53.5541C195.023 52.9893 193.506 50.4126 193.259 49.742Z" fill="#FDB9A9"/>
<path d="M157.255 16.8804H153.832V36.5056H157.255V16.8804Z" fill="#6EAD68"/>
<path d="M162.091 24.9282H158.667V36.4704H162.091V24.9282Z" fill="#6EAD68"/>
<path d="M166.892 28.5283H163.468V36.4702H166.892V28.5283Z" fill="#6EAD68"/>
<path d="M171.692 22.4219H168.268V36.4702H171.692V22.4219Z" fill="#6EAD68"/>
<path d="M176.528 18.9272H173.104V36.47H176.528V18.9272Z" fill="#6EAD68"/>
<path d="M181.328 16.8804H177.904V36.5056H181.328V16.8804Z" fill="#6EAD68"/>
<defs>
<linearGradient id="paint0_linear" x1="88.7094" y1="47.7022" x2="76.6996" y2="187.016" gradientUnits="userSpaceOnUse">
<stop offset="0.01"/>
<stop offset="0.08" stop-opacity="0.69"/>
<stop offset="0.21" stop-opacity="0.32"/>
<stop offset="1" stop-opacity="0"/>
</linearGradient>
<linearGradient id="paint1_linear" x1="210.675" y1="70.0423" x2="203.673" y2="164.582" gradientUnits="userSpaceOnUse">
<stop offset="0.01"/>
<stop offset="0.08" stop-opacity="0.69"/>
<stop offset="0.21" stop-opacity="0.32"/>
<stop offset="1" stop-opacity="0"/>
</linearGradient>
<linearGradient id="paint2_linear" x1="22.4865" y1="94.472" x2="99.0426" y2="91.08" gradientUnits="userSpaceOnUse">
<stop offset="0.01"/>
<stop offset="0.08" stop-opacity="0.69"/>
<stop offset="0.21" stop-opacity="0.32"/>
<stop offset="1" stop-opacity="0"/>
</linearGradient>
<linearGradient id="paint3_linear" x1="80.885" y1="151.396" x2="73.1831" y2="-102.112" gradientUnits="userSpaceOnUse">
<stop offset="0.01"/>
<stop offset="0.08" stop-opacity="0.69"/>
<stop offset="0.21" stop-opacity="0.32"/>
<stop offset="1" stop-opacity="0"/>
</linearGradient>
<linearGradient id="paint4_linear" x1="80.6585" y1="34.9893" x2="74.0085" y2="302.853" gradientUnits="userSpaceOnUse">
<stop offset="0.01"/>
<stop offset="0.08" stop-opacity="0.69"/>
<stop offset="0.21" stop-opacity="0.32"/>
<stop offset="1" stop-opacity="0"/>
</linearGradient>
<linearGradient id="paint5_linear" x1="16.9359" y1="65.7536" x2="7.77272" y2="88.8662" gradientUnits="userSpaceOnUse">
<stop offset="0.01"/>
<stop offset="0.08" stop-opacity="0.69"/>
<stop offset="0.21" stop-opacity="0.32"/>
<stop offset="1" stop-opacity="0"/>
</linearGradient>
</defs>
</svg>
