<svg width="332" height="260" viewBox="0 0 332 260" fill="none" xmlns="http://www.w3.org/2000/svg">
<path opacity="0.18" d="M318.756 157.33C317.394 154.705 315.936 152.177 314.38 149.649C312.922 147.218 311.463 144.884 309.907 142.648C303.198 132.633 295.809 122.812 292.6 111.242C288.613 96.9486 292.6 81.0996 288.322 67.2926C284.627 55.2358 273.445 42.6928 265.083 33.8446C246.512 14.1064 221.037 -0.381283 193.326 0.00764773C187.978 0.10488 182.63 0.688276 177.379 1.6606C166.975 3.50802 156.766 6.81393 146.751 10.2171C121.373 18.8708 95.8012 28.3996 74.0211 44.054C52.241 59.7085 34.2529 82.2664 29.2941 108.616C26.766 122.229 27.6411 136.619 23.2657 149.746C18.0151 165.498 6.24995 175.804 2.45788 192.237C-1.72312 211.1 2.74958 233.366 18.5013 244.45C26.766 250.284 36.9755 252.424 46.8932 253.59C71.882 256.507 97.2597 254.076 121.276 246.395C134.791 242.117 148.21 236.088 162.406 236.088C177.671 235.991 192.061 242.797 206.355 248.34C228.232 256.799 251.86 262.536 275.001 258.841C298.142 255.146 320.506 240.367 328.187 218.198C335.091 198.168 329.062 176.582 318.756 157.33Z" fill="#4561B5"/>
<path d="M176.31 231.713L176.991 231.81C177.38 232.199 176.116 232.199 176.31 231.713Z" fill="url(#paint0_linear)"/>
<path d="M318.756 157.33C313.992 159.275 308.936 161.122 305.824 163.262L232.414 214.795C226.774 218.879 220.94 222.573 214.815 225.977C209.856 228.699 207.036 233.755 201.007 235.116C197.993 235.603 194.979 235.603 192.062 234.922C187.2 234.144 182.436 232.88 177.866 231.324C177.283 231.13 176.505 231.033 176.213 231.519C133.431 225.685 92.4959 210.128 50.1025 202.057C48.8384 201.863 47.9633 200.599 48.255 199.335C48.3523 198.557 48.9357 197.876 49.7135 197.585C53.3111 196.321 56.9088 195.446 60.7008 194.862C67.5071 193.598 74.2162 192.334 81.0224 191.265C94.7322 188.931 108.539 187.375 122.346 186.695C145.39 185.722 168.629 188.153 191.381 184.653C212.967 181.25 233.386 172.596 253.513 164.039C258.375 161.998 263.334 159.761 267.126 156.164C270.14 153.344 272.473 149.552 276.266 147.607C280.058 145.662 285.016 146.051 289.295 146.246C297.754 146.829 306.116 147.899 314.381 149.649C316.034 152.177 317.492 154.802 318.756 157.33Z" fill="url(#paint1_linear)"/>
<path d="M52.0471 187.764L148.113 145.954C150.155 144.884 152.586 144.495 154.822 144.884L273.64 154.996C275.877 155.288 275.488 165.109 273.64 166.664L203.438 226.462C199.16 230.254 193.229 231.713 187.687 230.352L52.9222 197.487C51.172 197.098 50.4914 188.542 52.0471 187.764Z" fill="#4561B5"/>
<path d="M52.0471 187.764L148.113 145.954C150.155 144.884 152.586 144.495 154.822 144.884L273.64 154.996C275.877 155.288 275.488 165.109 273.64 166.664L203.438 226.462C199.16 230.254 193.229 231.713 187.687 230.352L52.9222 197.487C51.172 197.098 50.4914 188.542 52.0471 187.764Z" fill="url(#paint2_linear)"/>
<path d="M273.835 159.664L203.633 219.462C199.355 223.254 193.521 224.712 187.881 223.351L52.9222 190.584C51.172 190.195 50.9775 187.472 52.6305 186.597L89.6761 165.692L99.3994 160.247L128.958 143.62C131 142.551 133.431 142.162 135.667 142.551L272.668 154.51C274.904 154.705 275.682 158.108 273.835 159.664Z" fill="#4561B5"/>
<path d="M135.57 145.759L260.806 164.331L222.301 195.64L93.7599 169.581L135.57 145.759Z" fill="url(#paint3_linear)"/>
<path d="M185.936 178.721C191.284 177.555 196.34 175.513 201.007 172.693C202.272 171.915 203.73 170.359 202.952 169.095C202.466 168.123 201.202 167.831 200.813 166.859C202.563 166.178 204.411 166.47 205.966 165.109C207.522 163.748 207.717 161.22 206.064 160.247C207.328 160.15 208.592 159.761 209.661 159.08C210.731 158.303 211.217 156.941 210.731 155.677C210.147 154.413 208.592 154.122 207.23 153.83C205.383 153.441 203.438 153.344 201.494 153.344C199.257 153.538 197.215 154.219 195.271 155.288C193.521 156.261 192.062 157.914 190.215 158.886C186.617 160.733 181.853 160.539 177.866 161.414C174.949 161.997 172.129 163.164 169.212 164.039C166.295 164.914 163.573 165.498 160.753 166.178C153.947 167.637 147.043 169.095 140.14 170.457C140.626 173.471 143.835 175.221 146.752 176.388C150.738 178.138 154.919 179.402 159.197 180.277C162.503 180.763 165.907 180.958 169.31 180.763C174.949 180.472 180.491 179.888 185.936 178.721Z" fill="url(#paint4_linear)"/>
<path d="M122.541 177.36L174.074 187.764L147.432 209.544L93.7599 197.488L122.541 177.36Z" fill="url(#paint5_linear)"/>
<path d="M96.6769 201.279C97.7464 203.418 99.6911 204.974 102.025 205.655C105.817 206.53 127.889 212.267 127.889 212.267C127.889 212.267 131.486 212.656 133.528 210.322L96.6769 201.279Z" fill="url(#paint6_linear)"/>
<path d="M131.681 142.453L273.057 162.581C275.196 162.872 277.238 161.414 277.627 159.275L297.754 57.472C298.629 53.1938 295.809 49.0128 291.531 48.2349C291.239 48.1377 290.948 48.1377 290.656 48.1377L151.127 35.7892C146.849 35.4002 143.057 38.5117 142.571 42.7899L131.681 142.453Z" fill="#4561B5"/>
<path d="M131.681 142.453L272.668 162.483C275.001 162.775 277.238 161.219 277.724 158.886L297.851 57.472C298.726 53.1938 295.907 49.0128 291.628 48.2349C291.337 48.1377 291.045 48.1377 290.753 48.1377L151.127 35.7892C146.849 35.4002 143.057 38.5117 142.571 42.7899L131.681 142.453Z" fill="url(#paint7_linear)"/>
<path d="M270.529 156.747L290.559 53.9721L148.21 40.8457L136.931 138.078L270.529 156.747Z" fill="white"/>
<path d="M125.749 199.334C125.652 199.918 125.847 200.404 126.236 200.793C126.43 200.89 126.625 200.987 126.916 201.085C127.597 201.182 128.18 201.279 128.861 201.182C130.028 201.085 131.292 200.89 132.459 200.696L134.5 200.307C134.792 200.307 134.987 200.21 135.181 200.015C135.278 199.723 135.278 199.432 135.084 199.237C134.695 198.848 134.306 198.557 133.723 198.362C132.459 197.876 131.292 197.487 129.93 197.195C129.736 197.195 129.542 197.098 129.347 197.001C129.055 196.806 129.055 196.417 128.861 196.126C128.472 195.64 127.889 195.348 127.208 195.542C126.625 195.64 125.749 196.029 125.652 196.709C125.652 197.487 125.652 198.459 125.749 199.334Z" fill="#F9C6D6"/>
<path d="M132.361 197.39C131.972 197.293 131.486 197.39 131.194 197.682C130.903 198.168 131.292 198.946 130.903 199.432C130.611 199.626 130.319 199.724 130.028 199.724H127.791C127.208 199.724 126.625 199.724 125.944 199.626C125.847 199.529 125.652 199.529 125.555 199.529C125.361 199.626 125.166 199.724 125.166 200.015C125.166 200.21 125.166 200.404 125.263 200.599C125.361 200.988 125.652 201.377 125.847 201.765C125.944 201.863 126.041 201.96 126.138 202.057C126.236 202.057 126.43 202.154 126.527 202.154C127.889 202.154 129.153 202.154 130.514 202.057C131.389 201.96 132.361 201.863 133.236 201.765C134.598 201.765 135.862 201.571 137.126 201.085C137.417 200.988 137.709 200.696 137.904 200.404C138.001 200.112 137.904 199.821 137.709 199.529C137.515 199.335 137.32 199.14 137.028 198.946C136.348 198.46 135.473 198.168 134.695 197.876C133.917 197.682 133.139 197.487 132.361 197.39Z" fill="#565056"/>
<path d="M101.15 196.904V197.001C101.247 198.751 103.58 198.848 104.844 198.751C106.011 198.654 107.275 198.459 108.442 198.265L110.484 197.876C110.776 197.876 110.97 197.779 111.165 197.487C111.262 197.195 111.262 196.904 111.067 196.709C110.678 196.32 110.289 196.029 109.803 195.834C108.734 195.445 107.567 195.056 106.497 194.765C105.525 194.473 106.303 193.112 106.4 192.334C106.497 192.236 106.497 192.042 106.4 191.848C106.303 191.653 106.108 191.556 105.914 191.556C105.331 191.361 104.747 191.264 104.067 191.264C103.969 191.264 103.775 191.264 103.678 191.361C103.58 191.459 103.483 191.556 103.483 191.653L101.539 195.834C101.344 196.126 101.247 196.515 101.15 196.904Z" fill="#F9C6D6"/>
<path d="M102.025 144.106C102.025 144.106 100.566 152.274 103.58 158.4C105.136 161.706 106.886 164.914 108.831 168.026C108.831 168.026 102.608 174.735 102.608 183.291C102.608 191.848 102.414 192.139 102.414 192.139L106.206 194.084L115.54 168.026C115.54 168.026 116.123 164.331 115.54 163.067C114.957 161.803 110.192 147.607 110.192 147.607L102.025 144.106Z" fill="#473F47"/>
<path d="M135.959 111.048C134.014 111.048 131.875 109.006 130.708 105.797C129.347 102.102 129.93 98.699 132.07 97.9212C134.209 97.1433 136.834 99.2824 138.195 102.977C139.556 106.672 138.973 110.075 136.834 110.853C136.542 110.95 136.251 111.048 135.959 111.048ZM133.042 99.4769C132.945 99.4769 132.847 99.4769 132.75 99.5741C131.778 99.9631 131.389 102.394 132.361 105.214C133.334 108.033 135.278 109.686 136.251 109.297C137.223 108.908 137.612 106.478 136.639 103.658C135.57 101.033 134.014 99.4769 133.042 99.4769Z" fill="#473F47"/>
<path d="M143.64 119.118C143.349 119.118 143.154 119.02 142.96 118.826L136.542 110.756C136.251 110.367 136.348 109.88 136.64 109.492C137.028 109.2 137.515 109.297 137.904 109.589L144.321 117.756C144.613 118.145 144.613 118.631 144.224 118.923C144.029 119.118 143.835 119.118 143.64 119.118Z" fill="#473F47"/>
<path d="M132.167 107.061C132.264 107.936 132.264 108.811 132.264 109.589C132.07 110.27 131.681 110.853 131.097 111.242C130.514 111.631 129.93 111.923 129.25 112.02C129.055 112.02 128.861 112.117 128.666 112.214C128.472 112.506 128.277 112.895 128.375 113.284V115.52C128.375 115.715 128.375 116.007 128.18 116.201C128.083 116.298 127.986 116.395 127.791 116.395C126.722 116.687 125.555 116.104 125.069 115.034C124.777 114.548 124.485 114.062 124.194 113.673C123.902 113.09 123.708 112.409 123.708 111.728C123.513 109.589 123.902 107.45 124.874 105.603C125.458 104.436 126.333 103.366 127.402 102.588C128.277 102.005 129.93 101.033 130.806 102.102C131.194 102.588 131.194 103.464 131.681 103.95C131.972 104.339 132.458 104.63 132.556 105.116C132.653 105.603 132.361 105.992 132.167 106.381C132.264 106.575 132.167 106.769 132.167 107.061Z" fill="#F9C6D6"/>
<path d="M138.681 111.533V111.436C138.681 110.95 138.876 110.464 139.265 110.075C139.654 109.686 140.14 109.589 140.626 109.881C140.82 109.978 140.918 110.172 141.112 110.269C141.307 110.367 141.696 110.269 141.89 110.464C142.084 110.658 141.987 110.853 142.085 111.047C142.182 111.242 142.473 111.436 142.668 111.631C143.543 112.603 142.571 114.353 142.182 115.423C141.598 116.881 141.112 118.437 140.626 119.993C140.043 120.09 139.556 119.993 139.07 119.701C138.876 119.604 138.779 119.507 138.584 119.312C138.292 118.729 138.195 118.145 138.39 117.562C138.487 117.076 138.584 116.687 138.487 116.201C138.39 115.715 138.195 115.228 138.001 114.742C137.904 114.353 137.709 113.867 138.098 113.575C138.195 113.478 138.292 113.381 138.487 113.284C138.584 113.186 138.584 112.992 138.584 112.895C138.681 112.409 138.584 111.922 138.681 111.533Z" fill="#F9C6D6"/>
<path d="M120.888 147.607L129.93 168.026L129.542 196.904L125.361 196.612C125.361 196.612 118.263 180.18 122.832 169.97C122.832 169.97 111.845 160.539 107.761 155.191C102.803 148.579 103.872 143.134 103.872 143.134L120.888 147.607Z" fill="#565056"/>
<path d="M125.069 112.506C126.138 112.798 127.305 113.187 128.277 113.673C131.778 115.228 131.875 118.048 133.139 121.354C133.917 123.493 134.792 125.535 135.764 127.48L137.417 117.562L142.085 119.409C142.085 119.409 142.571 134.092 139.168 136.036C136.931 137.3 133.917 135.842 131.875 134.772C131.097 134.383 129.93 133.314 129.153 133.216C127.694 133.022 127.597 134.772 126.236 135.842C125.36 136.328 124.583 136.911 123.805 137.495C123.027 138.37 122.541 139.342 122.152 140.412C121.763 141.773 121.666 143.134 121.86 144.495C122.055 145.468 121.86 146.44 121.277 147.218C120.888 147.51 120.402 147.801 119.915 147.801C118.263 147.996 116.61 147.996 114.957 147.704C111.651 147.412 108.442 146.829 105.331 145.954C104.164 145.565 103.094 145.176 101.927 144.69C101.733 144.593 101.441 144.495 101.247 144.301C101.052 144.107 100.955 143.815 100.858 143.523C100.469 141.481 101.83 139.634 102.608 137.786C103.094 136.522 103.289 135.064 103.678 133.8C104.261 132.439 104.942 131.272 105.914 130.105C106.595 129.133 106.886 127.869 107.567 126.799C109.317 124.077 111.262 121.549 113.401 119.118C114.665 117.562 116.026 116.104 117.582 114.84C119.332 113.284 121.471 112.409 123.805 112.409C124.291 112.409 124.68 112.409 125.069 112.506Z" fill="#4561B5"/>
<path d="M121.179 93.9347C120.013 94.1291 118.846 94.6153 117.874 95.2959C115.734 97.0461 115.248 100.158 113.206 102.005C111.456 103.561 108.928 103.852 106.692 104.144C108.248 108.617 113.206 111.048 117.679 109.492C117.679 109.492 117.679 109.492 117.776 109.492L115.443 111.825C115.346 111.923 115.346 111.923 115.346 112.02C115.346 112.214 115.443 112.312 115.637 112.312C116.707 112.701 117.971 112.701 119.04 112.214C119.04 113.284 119.818 114.159 120.888 114.256C121.568 114.354 122.346 114.256 122.93 113.965C123.319 113.867 123.708 113.77 124.096 113.77C124.388 113.77 124.68 113.965 125.069 113.867C126.041 113.187 126.916 112.312 127.402 111.242C128.18 109.492 127.013 107.353 127.986 105.603C128.764 104.241 131.194 103.852 131.486 102.297C131.875 100.546 130.903 98.1157 129.93 96.7544C128.861 95.1987 127.208 94.1291 125.263 93.7402C124.194 93.5457 123.027 93.5457 121.957 93.643L121.179 93.9347Z" fill="#E13B31"/>
<path d="M107.956 194.667C107.567 194.57 107.081 194.667 106.789 194.959C106.497 195.445 106.886 196.223 106.497 196.709C106.206 196.904 105.914 197.001 105.622 197.001H103.386C102.803 197.001 102.219 197.001 101.636 196.904C101.539 196.904 101.344 196.806 101.247 196.806C101.052 196.904 100.858 197.001 100.858 197.293C100.858 197.487 100.858 197.682 100.955 197.876C101.052 198.265 101.344 198.654 101.539 199.043C101.636 199.14 101.733 199.237 101.83 199.335C101.927 199.432 102.122 199.432 102.219 199.432C103.58 199.432 104.844 199.432 106.206 199.335C107.178 199.237 108.053 199.14 108.928 199.043C110.289 199.043 111.554 198.848 112.818 198.362C113.109 198.265 113.401 197.973 113.595 197.682C113.693 197.39 113.595 197.098 113.401 196.806C113.206 196.612 113.012 196.418 112.72 196.223C112.04 195.737 111.165 195.445 110.387 195.153C109.512 194.959 108.734 194.765 107.956 194.667Z" fill="#565056"/>
<path d="M167.559 179.499C151.808 179.305 139.168 173.86 139.265 167.442C139.265 166.762 138.681 162.678 139.07 162.094C141.598 156.747 153.947 156.066 167.948 156.26C181.658 156.455 193.229 156.26 195.854 161.608C196.243 162.386 196.243 167.539 196.243 168.317C196.049 174.735 183.311 179.694 167.559 179.499Z" fill="#E8A825"/>
<path d="M196.02 162.998C196.111 156.608 183.431 151.246 167.699 151.021C151.966 150.795 139.138 155.793 139.047 162.182C138.955 168.572 151.635 173.934 167.368 174.16C183.1 174.385 195.928 169.388 196.02 162.998Z" fill="#F8C244"/>
<path d="M191.742 162.937C191.82 157.46 181.045 152.865 167.675 152.674C154.305 152.482 143.403 156.767 143.325 162.244C143.246 167.721 154.021 172.316 167.391 172.507C180.761 172.698 191.663 168.414 191.742 162.937Z" fill="#E8A825"/>
<path d="M152.197 161.414L156.086 161.511C156.28 160.442 156.864 159.567 157.836 159.178L160.364 159.567C159.489 159.956 158.809 160.831 158.711 161.803C158.711 162.873 160.267 163.748 162.406 163.748C164.156 163.845 165.809 163.262 166.976 161.997C168.726 160.15 171.157 159.275 173.685 159.469C176.894 159.469 179.325 160.442 179.908 161.9L183.797 161.997V162.97L180.005 162.873C179.908 163.748 179.422 164.526 178.644 164.914L176.116 164.526C176.797 164.137 177.38 163.359 177.477 162.581C177.477 161.414 175.727 160.928 174.171 160.831C172.518 160.733 170.865 161.414 169.796 162.678C168.143 164.234 166.101 165.012 162.698 165.012C159.684 165.012 156.767 164.039 156.183 162.484L152.197 162.386V161.414Z" fill="#F8C244"/>
<path d="M163.087 168.026C147.335 167.831 134.695 162.386 134.792 155.969C134.792 155.288 134.209 151.205 134.598 150.621C137.126 145.273 149.474 144.593 163.476 144.787C177.186 144.982 188.756 144.787 191.381 150.135C191.77 150.913 191.77 156.066 191.77 156.844C191.576 163.164 178.741 168.22 163.087 168.026Z" fill="#E8A825"/>
<path d="M191.474 151.471C191.566 145.081 178.886 139.718 163.153 139.493C147.421 139.268 134.593 144.265 134.501 150.655C134.41 157.045 147.09 162.407 162.822 162.632C178.555 162.857 191.383 157.86 191.474 151.471Z" fill="#F8C244"/>
<path d="M187.196 151.409C187.275 145.932 176.5 141.337 163.13 141.146C149.76 140.954 138.858 145.239 138.779 150.716C138.701 156.193 149.476 160.788 162.846 160.979C176.216 161.171 187.118 156.886 187.196 151.409Z" fill="#E8A825"/>
<path d="M147.724 149.843L151.613 149.941C151.808 148.871 152.391 147.996 153.363 147.607L155.892 147.996C155.016 148.385 154.336 149.26 154.239 150.232C154.239 151.302 155.794 152.177 157.933 152.177C159.684 152.274 161.337 151.691 162.601 150.427C164.351 148.579 166.782 147.704 169.31 147.899C172.518 147.899 174.949 148.871 175.533 150.329L179.422 150.427V151.399L175.63 151.302C175.533 152.177 175.046 152.955 174.269 153.344L171.74 152.955C172.421 152.566 173.004 151.788 173.102 151.01C173.102 149.843 171.352 149.357 169.796 149.26C168.143 149.163 166.49 149.843 165.42 151.107C163.767 152.663 161.726 153.441 158.322 153.441C155.308 153.441 152.391 152.469 151.808 150.913L147.821 150.816L147.724 149.843Z" fill="#F8C244"/>
<path d="M176.31 162.581C160.559 162.386 147.918 156.941 148.016 150.524C148.016 149.843 147.432 145.759 147.821 145.176C150.349 139.828 162.698 139.148 176.699 139.342C190.409 139.536 201.98 139.342 204.605 144.69C204.994 145.468 204.994 150.621 204.994 151.399C204.897 157.719 192.062 162.775 176.31 162.581Z" fill="#E8A825"/>
<path d="M204.742 145.935C204.834 139.545 192.154 134.183 176.421 133.958C160.689 133.732 147.861 138.73 147.77 145.119C147.678 151.509 160.358 156.872 176.09 157.097C191.823 157.322 204.651 152.325 204.742 145.935Z" fill="#F8C244"/>
<path d="M200.464 145.873C200.543 140.397 189.768 135.802 176.398 135.61C163.028 135.419 152.126 139.704 152.047 145.18C151.969 150.657 162.744 155.252 176.114 155.444C189.484 155.635 200.386 151.35 200.464 145.873Z" fill="#E8A825"/>
<path d="M160.948 144.398L164.837 144.496C165.031 143.426 165.615 142.551 166.587 142.162L169.115 142.551C168.24 142.94 167.559 143.815 167.462 144.787C167.462 145.857 169.018 146.635 171.254 146.732C173.004 146.829 174.657 146.246 175.921 144.982C177.672 143.134 180.102 142.259 182.631 142.454C185.839 142.454 188.27 143.426 188.853 144.885L192.743 144.982V145.954L189.048 145.857C188.951 146.732 188.367 147.413 187.687 147.899L185.159 147.51C185.839 147.121 186.423 146.343 186.52 145.565C186.52 144.398 184.77 143.912 183.214 143.815C181.561 143.718 179.908 144.398 178.838 145.662C177.185 147.218 175.144 147.996 171.74 147.996C168.726 147.996 165.809 147.024 165.226 145.468L161.239 145.371L160.948 144.398Z" fill="#F8C244"/>
<path d="M157.058 106.866C156.572 106.575 159.003 90.5312 159.003 90.5312L167.171 91.3091L165.129 107.45L157.058 106.866Z" fill="#4561B5"/>
<path d="M173.393 108.422C172.907 108.131 176.991 84.1143 176.991 84.1143L185.159 84.8921L181.464 109.006L173.393 108.422Z" fill="#4561B5"/>
<path d="M189.728 109.978C189.242 109.686 195.757 66.9038 195.757 66.9038L203.924 67.6817L197.702 110.464L189.728 109.978Z" fill="#4561B5"/>
<path d="M205.966 111.631C205.48 111.339 210.634 79.1553 210.634 79.1553L218.801 79.9331L214.037 112.214L205.966 111.631Z" fill="#4561B5"/>
<path d="M214.231 116.59L150.349 111.923L150.447 111.534C151.127 106.478 156.961 61.7506 157.253 60.8755L157.933 61.07C157.739 62.0423 153.461 94.0318 151.224 111.145L214.328 115.715L214.231 116.59Z" fill="#4561B5"/>
<path opacity="0.39" d="M241.262 131.077L242.72 123.201C238.539 123.299 234.553 122.132 231.052 119.895L233.969 114.645C237.178 116.784 240.97 117.951 244.859 117.951C250.596 117.951 255.069 114.742 255.944 110.269C256.819 105.797 254.096 103.366 248.651 101.032C241.067 98.018 236.692 94.4204 237.956 87.7114C239.22 81.294 244.859 76.3352 252.541 75.0712L253.999 67.1953H258.958L257.5 74.7795C261 74.7795 264.403 75.6545 267.417 77.4047L264.5 82.6553C261.583 80.8079 258.277 79.9328 254.874 80.03C248.651 80.03 245.637 83.6276 245.054 86.7391C244.276 90.8228 246.901 92.7675 253.319 95.5872C261 98.7959 264.403 102.782 263.042 109.686C261.875 115.812 256.333 121.646 247.776 123.007L246.318 131.077H241.262Z" fill="#4561B5"/>
<defs>
<linearGradient id="paint0_linear" x1="175.544" y1="231.043" x2="178.422" y2="233.192" gradientUnits="userSpaceOnUse">
<stop offset="0.01"/>
<stop offset="0.08" stop-opacity="0.69"/>
<stop offset="0.21" stop-opacity="0.32"/>
<stop offset="1" stop-opacity="0"/>
</linearGradient>
<linearGradient id="paint1_linear" x1="-98.8914" y1="-34.2248" x2="633.008" y2="513.175" gradientUnits="userSpaceOnUse">
<stop offset="0.01"/>
<stop offset="0.08" stop-opacity="0.69"/>
<stop offset="0.21" stop-opacity="0.32"/>
<stop offset="1" stop-opacity="0"/>
</linearGradient>
<linearGradient id="paint2_linear" x1="147.236" y1="124.811" x2="223.204" y2="366.065" gradientUnits="userSpaceOnUse">
<stop offset="0.01"/>
<stop offset="0.08" stop-opacity="0.69"/>
<stop offset="0.21" stop-opacity="0.32"/>
<stop offset="1" stop-opacity="0"/>
</linearGradient>
<linearGradient id="paint3_linear" x1="190.321" y1="79.0051" x2="143.863" y2="392.989" gradientUnits="userSpaceOnUse">
<stop offset="0.01"/>
<stop offset="0.08" stop-opacity="0.69"/>
<stop offset="0.21" stop-opacity="0.32"/>
<stop offset="1" stop-opacity="0"/>
</linearGradient>
<linearGradient id="paint4_linear" x1="142.062" y1="152.948" x2="297.284" y2="206.659" gradientUnits="userSpaceOnUse">
<stop offset="0.01"/>
<stop offset="0.08" stop-opacity="0.69"/>
<stop offset="0.21" stop-opacity="0.32"/>
<stop offset="1" stop-opacity="0"/>
</linearGradient>
<linearGradient id="paint5_linear" x1="144.262" y1="122.906" x2="108.47" y2="364.84" gradientUnits="userSpaceOnUse">
<stop offset="0.01"/>
<stop offset="0.08" stop-opacity="0.69"/>
<stop offset="0.21" stop-opacity="0.32"/>
<stop offset="1" stop-opacity="0"/>
</linearGradient>
<linearGradient id="paint6_linear" x1="119.383" y1="194.754" x2="100.344" y2="243.721" gradientUnits="userSpaceOnUse">
<stop offset="0.01"/>
<stop offset="0.08" stop-opacity="0.69"/>
<stop offset="0.21" stop-opacity="0.32"/>
<stop offset="1" stop-opacity="0"/>
</linearGradient>
<linearGradient id="paint7_linear" x1="203.606" y1="1.1131" x2="285.194" y2="713.663" gradientUnits="userSpaceOnUse">
<stop offset="0.01"/>
<stop offset="0.08" stop-opacity="0.69"/>
<stop offset="0.21" stop-opacity="0.32"/>
<stop offset="1" stop-opacity="0"/>
</linearGradient>
</defs>
</svg>
